<svg width="1080" height="1080" viewBox="0 0 1080 1080" fill="none" xmlns="http://www.w3.org/2000/svg">
<path d="M460 1075.3C264.335 1045.11 92.8868 908.585 23.819 727.959C6.72015 683.241 12.9795 674.188 39.4929 705.289C75.2221 747.2 152.696 770.462 272.5 775.254C376.037 779.394 380 778.848 380 760.458C380 733.661 372.549 731.843 307.7 742.821C188.674 762.968 94.3812 719.685 71.0508 634.19C53.4426 569.669 66.281 522.692 114 477.032C163.906 429.279 236.405 410.862 319.571 424.808C350.34 429.969 372.692 430.003 376.114 424.895C387.172 408.388 370.881 391.301 338.176 385.102C240.922 366.666 190.731 320.417 204.627 262.04C215.939 214.519 243.029 200.498 323.535 200.498H395L400 463.466C405.446 749.903 410.566 777.415 464.484 810.013C488.257 824.385 489.244 827.248 475.319 841.444C451.641 865.586 457.067 917.435 489.992 981.653C506.488 1013.83 519.988 1049.49 519.992 1060.91C520 1082.12 513.823 1083.6 460 1075.3ZM570.008 1057.58C570.013 1047.99 583.512 1013.83 600.008 981.653C633.446 916.436 638.315 865.542 613.533 840.275C598.104 824.544 598.746 822.269 623.734 804.133C682.65 761.373 684.712 750.399 688.186 461.159L691.373 195.885H758.462C836.581 195.885 863.215 208.931 879.808 255.323C901.066 314.754 859.535 357.098 756.51 381.035C721.719 389.118 710 396.23 710 409.264C710 425.188 715.809 426.194 777.5 420.964C857.92 414.144 916.942 426.839 959.904 460.194C1004.23 494.607 1020 528.889 1020 590.82C1020 709.216 925.564 761.782 757.499 736.938C710.658 730.013 710 730.262 710 754.891V779.865L807.781 774.893C933.236 768.516 980.467 754.957 1036.9 709.121C1087.45 668.063 1087.47 668.134 1049.61 761.323C1004.27 872.924 907.507 966.481 774.196 1027.62C676.549 1072.41 569.994 1088.04 570.008 1057.58ZM486.389 771.333C471.903 757.967 454.684 729.94 448.125 709.051C433.641 662.922 431.905 498.576 443.897 308.914L452.795 168.204H356.076C216.316 168.204 158.482 196.069 144.959 269.925C137.242 312.071 156.767 352.317 193.805 370.606C222.801 384.926 219.42 398.834 186.91 398.967C143.256 399.146 61.9868 442.642 30.596 482.625C2.21555 518.774 0 519.896 0 498.117C0 431.495 76.4523 261.113 138.757 188.876C176.966 144.578 285.168 57.5002 302.021 57.4864C305.883 57.4832 301.597 76.0166 292.497 98.6711C283.397 121.327 278.611 142.318 281.863 145.317C285.114 148.317 300.65 139.611 316.387 125.97C357.24 90.5586 401.018 75.9344 466.173 75.9344H522.988L516.227 345.823C512.508 494.26 506.794 641.661 503.53 673.379L497.596 731.048H544.933H592.27L585.563 701.06C581.875 684.567 576.365 537.166 573.321 373.503L567.784 75.9344H623.241C690.066 75.9344 720.158 85.6452 773.002 124.264C812.658 153.243 813.06 153.32 807.37 130.907C804.205 118.434 798.476 98.886 794.642 87.4675C790.806 76.0498 791.65 66.7075 796.517 66.7075C814.049 66.7075 905.814 143.624 943.629 190.016C1011.16 272.858 1080 418.069 1080 477.663C1080 494.931 1073.33 491.585 1032.29 453.719C991.793 416.35 975.254 407.923 922.775 397.922L860.962 386.141L889.937 369.883C970.674 324.58 966.235 239.218 880.275 184.067C860.645 171.473 833.461 168.204 748.365 168.204C689.413 168.204 638.511 172.188 635.249 177.059C631.987 181.929 636.597 266.01 645.494 363.904C667.846 609.832 654.046 729.192 598.251 772.511C559.443 802.641 519.867 802.224 486.389 771.333ZM391.436 31.484C370.786 18.3907 471.712 -1.01098 555 0.0410505C593.5 0.527392 645.249 7.01149 670.001 14.4503L715 27.9752L634.009 28.8875C589.463 29.3892 519.714 32.1136 479.009 34.9417C438.304 37.7698 398.896 36.2138 391.436 31.484Z" fill="white"/>
</svg>
