<svg width="1920" height="1920" viewBox="0 0 1920 1920" fill="none" xmlns="http://www.w3.org/2000/svg">
<rect width="1920" height="1920" fill="white"/>
<path d="M1389.54 719.89C1360.81 765.547 1361.03 815.436 1331.19 886.705C1309.36 884.478 1287.53 883.587 1265.71 884.478C1269.05 867.329 1270.61 849.957 1270.38 832.585C1269.72 798.287 1266.15 763.988 1259.69 730.358C1302.46 722.117 1345.89 718.554 1389.54 719.89ZM1249.89 839.044C1249.89 854.634 1248.56 870.224 1245.66 885.592C1187.09 890.269 1130.74 910.313 1082.19 943.498C1123.84 898.286 1147 839.044 1147.22 777.574C1147.22 775.569 1147.22 773.788 1147 771.783C1175.28 755.302 1205.57 743.053 1237.2 735.258C1244.33 769.556 1248.56 804.3 1249.89 839.044ZM1055.91 971.783C1109.81 930.135 1174.62 905.636 1242.55 900.736C1223.17 973.119 1169.94 1002.07 1127.85 1002.07C1100.67 1002.07 1074.84 991.159 1055.91 971.783ZM1132.52 796.282C1132.52 872.451 1089.76 928.353 1052.12 964.433C1046.78 951.961 1044.1 938.821 1044.33 925.235C1044.33 879.355 1071.05 823.454 1132.08 781.583C1132.52 786.482 1132.52 791.382 1132.52 796.282ZM1036.09 923.008C1036.09 934.144 1037.87 945.28 1041.65 955.747C1030.96 935.257 1025.4 912.318 1025.4 889.155C1025.4 813.654 1059.47 743.053 1105.13 685.814C1117.82 710.981 1126.29 737.93 1130.52 765.547C1071.94 804.968 1036.09 859.979 1036.09 923.008ZM1070.16 990.937C1087.31 1002.74 1107.8 1009.2 1128.51 1009.64C1194.22 1009.64 1243.44 969.11 1262.14 899.623C1282.86 898.955 1303.79 899.845 1324.51 902.073C1324.51 902.295 1324.28 902.295 1324.28 902.295C1288.2 980.469 1220.72 1021.89 1154.35 1021.89C1123.39 1023.23 1093.1 1012.09 1070.16 990.937ZM1238.31 572.451C1222.5 620.558 1227.18 670.447 1234.75 718.777C1203.79 727.24 1174.17 739.489 1146.33 755.525C1143.21 724.79 1134.75 694.723 1121.39 666.661C1154.79 629.022 1194.44 596.95 1238.31 572.451ZM1024.06 511.427C1038.98 576.683 1072.39 623.008 1098.22 672.006C1061.48 717.44 1035.86 770.892 1024.06 828.131H1025.4V511.427H1024.06ZM1074.84 1002.07C1099.12 1020.78 1128.74 1030.8 1159.25 1030.8C1231.85 1030.8 1303.35 989.155 1345.66 904.745C1381.08 910.313 1416.04 919.445 1449.45 932.139C1373.95 952.184 1291.77 1043.5 1188.42 1043.5C1140.99 1043.5 1102.68 1027.69 1077.51 1003.85L1074.84 1002.07ZM1015.15 900.514C1028.51 980.692 1091.1 1055.3 1199.12 1055.3C1323.84 1055.3 1430.07 939.266 1501.79 936.148C1507.13 935.926 1507.13 933.476 1502.9 931.917C1454.79 911.872 1404.68 897.618 1353.24 889.6C1384.42 818.999 1385.08 757.529 1415.15 709.422C1417.82 705.191 1417.38 703.854 1412.48 703.409C1360.59 698.955 1308.25 702.295 1257.24 713.431C1248.56 658.866 1242.1 605.414 1263.04 544.166C1264.59 539.489 1263.7 537.262 1258.8 539.489C1204.02 567.774 1155.24 606.304 1114.71 652.63C1080.63 584.478 1030.96 521.672 1017.38 424.345C1016.49 418.331 1013.37 418.777 1013.37 424.345V868.22C1013.37 907.195 986.198 925.235 960.363 925.235C934.528 925.235 907.356 906.972 907.356 868.22V424.567C907.356 418.999 904.238 418.554 903.347 424.567C889.761 521.672 840.096 584.701 806.243 652.63C765.708 606.082 716.71 567.774 662.145 539.489C657.468 537.262 656.354 539.267 657.913 544.166C679.071 605.636 672.612 658.866 663.704 713.431C612.701 702.295 560.363 698.955 508.47 703.409C503.793 703.854 503.347 705.191 505.797 709.422C535.864 757.529 536.755 818.999 567.713 889.6C516.265 897.618 465.931 911.872 418.047 931.917C413.815 933.698 413.815 936.148 419.16 936.148C490.652 939.044 597.111 1055.3 721.833 1055.3C830.073 1055.3 892.434 980.692 905.797 900.514L903.57 900.959C912.256 920.558 930.964 933.698 952.345 935.257L952.568 933.921C923.169 937.039 899.561 959.311 899.561 987.819C899.561 1033.25 944.104 1047.95 957.245 1082.25C958.136 1084.48 958.581 1086.93 960.585 1086.93C962.59 1086.93 962.813 1084.7 963.926 1082.25C977.289 1047.95 1021.61 1033.25 1021.61 987.819C1020.27 958.865 997.334 935.48 968.603 933.921L968.826 935.257C990.207 933.698 1008.92 920.558 1017.6 900.959L1015.15 900.514ZM661.254 730.581C654.795 764.211 651.231 798.509 650.563 832.808C650.563 850.18 652.122 867.551 655.24 884.701C633.414 883.81 611.588 884.478 589.762 886.928C559.917 815.658 560.14 765.77 531.41 720.113C574.839 718.554 618.269 722.117 661.254 730.581ZM683.525 735.48C715.151 743.275 745.441 755.748 773.726 772.006C773.726 774.01 773.503 775.792 773.503 777.797C773.503 839.266 796.888 898.509 838.536 943.721C789.984 910.536 733.637 890.491 675.062 885.814C672.167 870.447 670.831 854.857 670.831 839.266C672.39 804.3 676.621 769.779 683.525 735.48ZM793.102 1002.3C751.009 1002.3 697.779 973.119 678.403 900.959C746.332 905.636 811.142 930.358 865.04 972.006C846.109 991.159 820.274 1002.07 793.102 1002.3ZM788.871 781.805C849.895 823.676 876.621 879.578 876.621 925.458C876.844 938.821 874.171 952.184 868.826 964.656C831.187 928.576 788.425 872.674 788.425 796.505C788.425 791.382 788.425 786.482 788.871 781.805ZM790.43 765.77C794.438 737.93 803.124 710.981 815.819 686.037C861.476 743.053 895.552 813.877 895.552 889.378C895.552 912.54 889.984 935.258 879.294 955.97C883.08 945.502 884.862 934.367 884.862 923.231C884.862 859.979 849.004 804.968 790.43 765.77ZM766.599 1021.89C700.229 1021.89 632.746 980.469 596.666 902.295C596.666 902.073 596.443 902.073 596.443 902.073C617.156 899.845 637.868 898.955 658.804 899.623C677.512 969.11 726.733 1009.64 792.434 1009.64C813.369 1009.42 833.637 1002.96 850.786 990.937C828.069 1012.09 797.557 1023.23 766.599 1021.89ZM799.561 666.661C786.198 694.723 777.735 724.79 774.617 755.525C746.777 739.489 717.156 727.24 686.198 718.777C693.77 670.224 698.447 620.558 682.635 572.451C726.733 597.173 766.153 629.022 799.561 666.661ZM895.329 511.427V828.131H896.666C884.862 770.892 859.472 717.44 822.501 672.006C848.336 622.785 881.744 576.683 896.666 511.427H895.329ZM843.436 1003.63C818.269 1027.46 779.962 1043.28 732.523 1043.28C629.182 1043.28 547 951.961 471.499 932.139C505.129 919.445 539.873 910.313 575.285 904.745C617.601 989.155 689.093 1030.8 761.699 1030.8C792.211 1030.8 822.055 1020.56 846.109 1002.07L843.436 1003.63Z" fill="#D2AA1B"/>
<path d="M721.913 1205.88C719.908 1206.11 719.017 1205.88 718.572 1204.55C716.345 1192.52 705.877 1183.83 693.85 1183.83C683.383 1182.5 674.028 1190.07 672.692 1200.32C672.692 1200.76 672.692 1201.43 672.469 1201.87C672.469 1215.24 683.605 1221.03 698.305 1225.7C719.463 1232.61 733.271 1241.3 733.271 1261.78C733.271 1282.27 717.235 1296.75 689.619 1296.75C679.151 1297.2 668.46 1294.97 658.884 1290.74C656.656 1289.85 655.097 1288.07 654.429 1286.06C651.979 1278.71 650.643 1270.92 650.866 1263.12C650.866 1261.78 652.202 1261.34 653.761 1261.12C655.32 1260.89 656.434 1261.34 656.656 1262.45C661.111 1274.26 670.465 1290.07 689.173 1290.07C703.872 1290.07 713.227 1281.38 713.227 1269.58C713.227 1259.56 709.663 1251.32 690.064 1244.86C670.465 1238.4 654.207 1228.15 654.207 1208.33C654.207 1191.18 668.238 1176.48 695.855 1176.48C703.427 1176.71 710.999 1177.6 718.572 1179.38C721.244 1180.05 721.467 1180.49 722.135 1182.28C724.14 1189.18 725.031 1196.31 725.031 1203.43C724.808 1204.99 723.917 1205.66 721.913 1205.88Z" fill="#D2AA1B"/>
<path d="M1037.95 1263.56C1039.51 1263.79 1040.4 1264.45 1040.17 1265.34C1039.28 1273.59 1036.83 1281.83 1033.27 1289.18C1032.6 1290.51 1031.49 1291.4 1029.93 1291.85C1019.68 1295.41 1008.99 1297.19 998.081 1297.42C959.551 1297.42 929.93 1278.04 929.93 1237.06C929.93 1197.19 961.333 1176.26 997.636 1176.26C1009.44 1176.48 1021.02 1178.26 1032.38 1180.93C1034.61 1181.38 1034.83 1181.83 1035.05 1183.83C1035.27 1188.73 1035.72 1197.42 1037.28 1207.88C1037.5 1209 1036.83 1209.44 1035.05 1209.89C1033.05 1210.11 1032.16 1209.89 1031.93 1208.77C1028.82 1192.96 1014.34 1182.05 998.304 1183.38C976.255 1183.38 953.983 1198.97 953.983 1234.61C953.983 1271.58 977.146 1289.84 999.64 1289.84C1015.9 1290.07 1030.38 1279.6 1035.5 1264.23C1035.5 1263.56 1036.39 1263.34 1037.95 1263.56Z" fill="#D2AA1B"/>
<path d="M1082.71 1237.28C1083.38 1203.21 1111.22 1176.04 1145.3 1176.7C1178.48 1177.15 1205.43 1204.1 1205.88 1237.28C1204.98 1271.36 1176.48 1298.08 1142.4 1297.19C1109.88 1296.3 1083.6 1270.02 1082.71 1237.28ZM1144.41 1289.84C1165.34 1289.84 1182.04 1267.35 1182.04 1237.28C1182.04 1209.44 1168.46 1184.28 1144.41 1184.28C1120.35 1184.28 1106.77 1209.67 1106.77 1237.28C1106.54 1267.35 1123.25 1289.84 1144.41 1289.84Z" fill="#D2AA1B"/>
<path d="M562.892 1237.05V1269.35C562.892 1287.83 561.333 1288.28 553.092 1289.39L549.306 1289.84C548.192 1290.06 547.97 1291.17 547.97 1292.51C548.192 1293.85 548.415 1294.96 549.529 1294.74C549.529 1294.74 564.674 1294.29 572.914 1294.29C581.155 1294.29 596.299 1294.74 596.299 1294.74C597.413 1294.74 597.858 1293.85 597.858 1292.51C598.081 1291.17 597.636 1289.84 596.522 1289.84L592.736 1289.39C584.495 1288.28 582.936 1287.83 582.936 1269.35V1204.76C582.936 1186.27 584.495 1185.83 592.736 1184.71L596.522 1184.27C597.636 1184.05 597.858 1182.93 597.858 1181.6C597.858 1180.26 597.413 1179.37 596.299 1179.37C596.299 1179.37 581.155 1179.81 572.914 1179.81C564.674 1179.81 549.529 1179.37 549.529 1179.37C548.415 1179.37 547.97 1180.26 547.97 1181.6C547.747 1182.93 548.192 1184.27 549.306 1184.27L553.092 1184.71C561.333 1185.83 562.892 1186.27 562.892 1204.76V1237.05Z" fill="#D2AA1B"/>
<path d="M860.442 1284.94C862.447 1287.61 860.888 1288.95 858.661 1289.39L854.206 1290.06C853.093 1290.28 852.87 1291.17 853.093 1292.73C853.315 1294.29 853.761 1295.18 854.652 1294.96C854.652 1294.96 869.351 1294.51 877.369 1294.51C885.609 1294.51 900.309 1294.96 900.309 1294.96C901.422 1294.96 901.868 1294.29 902.09 1292.51C902.313 1290.73 901.645 1289.84 900.754 1289.84C893.627 1290.06 886.946 1286.94 882.714 1281.37C871.578 1268.9 849.529 1240.62 840.621 1228.81C839.507 1227.7 839.507 1225.69 840.621 1224.58L840.843 1224.36C845.743 1219.01 861.779 1202.75 868.906 1196.3C876.033 1189.17 885.387 1184.94 895.409 1184.05C896.3 1183.82 896.968 1182.71 896.745 1181.15C896.523 1179.81 896.077 1178.92 894.964 1179.15C894.964 1179.15 882.491 1179.59 875.81 1179.59C869.128 1179.59 856.656 1179.15 856.656 1179.15C855.543 1179.15 855.097 1180.26 855.097 1181.37C854.874 1182.93 855.32 1183.82 856.211 1184.05L860.888 1185.38C861.779 1185.61 862.447 1186.05 862.447 1186.94C862.67 1188.95 858.883 1193.18 853.984 1198.75C847.079 1206.54 835.053 1219.24 828.594 1225.47C823.249 1230.59 821.021 1231.48 819.017 1230.37C817.458 1229.7 816.79 1227.92 816.79 1222.58V1204.31C816.79 1185.83 818.349 1185.38 826.589 1184.27L830.376 1183.82C831.489 1183.6 831.712 1182.49 831.712 1181.15C831.489 1179.81 831.266 1178.92 830.153 1178.92C830.153 1178.92 815.008 1179.37 806.768 1179.37C798.527 1179.37 783.382 1178.92 783.382 1178.92C782.269 1178.92 781.823 1179.81 781.823 1181.15C781.601 1182.49 782.046 1183.82 783.16 1183.82L786.946 1184.27C795.186 1185.38 796.745 1185.83 796.745 1204.31V1268.9C796.745 1287.39 795.186 1287.83 786.946 1288.95L783.16 1289.39C782.046 1289.61 781.823 1290.73 781.823 1292.06C781.823 1293.4 782.269 1294.51 783.382 1294.29C783.382 1294.29 798.527 1293.85 806.768 1293.85C815.008 1293.85 830.153 1294.29 830.153 1294.29C831.266 1294.29 831.712 1293.4 831.712 1292.06C831.935 1290.73 831.489 1289.39 830.376 1289.39L826.589 1288.95C818.349 1287.83 816.79 1287.39 816.79 1268.9V1243.07C816.79 1240.17 817.903 1238.39 819.685 1237.94C821.69 1237.5 823.249 1238.39 825.253 1240.62C834.83 1251.08 852.87 1274.69 860.442 1284.94Z" fill="#D2AA1B"/>
<path d="M1270.02 1203.66C1292.07 1226.37 1326.14 1265.79 1351.98 1296.75C1353.09 1298.09 1354.2 1298.31 1356.43 1297.42C1358.44 1296.53 1358.66 1295.86 1358.66 1294.3C1358.21 1285.62 1357.99 1277.38 1357.99 1269.58V1210.56C1357.99 1190.07 1359.55 1186.06 1367.79 1184.95L1371.58 1184.5C1372.69 1184.28 1372.91 1183.17 1372.91 1181.83C1372.91 1180.49 1372.47 1179.38 1371.35 1179.6C1364.67 1180.05 1358.21 1180.05 1353.76 1180.05C1349.08 1180.05 1340.84 1179.83 1334.16 1179.6C1333.05 1179.6 1332.6 1180.49 1332.6 1181.83C1332.38 1183.17 1333.05 1184.5 1333.94 1184.5C1347.75 1185.17 1349.53 1188.07 1349.53 1210.56V1264.9L1350.86 1263.57C1325.47 1237.73 1301.87 1210.56 1279.82 1181.83C1278.7 1180.27 1278.48 1179.6 1276.48 1179.83C1266.45 1180.27 1256.43 1180.27 1246.41 1179.6C1245.3 1179.38 1244.85 1180.49 1244.85 1181.83C1244.63 1183.17 1245.07 1184.28 1246.19 1184.5C1259.55 1187.18 1263.34 1191.18 1263.34 1204.99V1264.01C1263.34 1284.5 1261.78 1288.51 1253.54 1289.62L1249.75 1290.07C1248.64 1290.29 1248.41 1291.41 1248.41 1292.74C1248.41 1294.08 1248.86 1295.19 1249.97 1294.97C1256.65 1294.52 1263.11 1294.52 1267.57 1294.52C1272.24 1294.52 1278.48 1294.75 1285.16 1294.97C1286.28 1294.97 1286.72 1294.08 1286.72 1292.74C1286.94 1291.41 1286.5 1290.07 1285.39 1290.07L1281.6 1289.62C1273.36 1288.51 1271.8 1284.5 1271.8 1264.01V1202.77L1270.02 1203.66Z" fill="#D2AA1B"/>
<path d="M1371.78 1144.74C1373.79 1144.74 1375.35 1142.51 1375.35 1138.95C1375.35 1135.38 1373.79 1133.16 1371.78 1133.16H549.29C547.286 1133.16 545.727 1135.38 545.727 1138.95C545.727 1142.51 547.286 1144.74 549.29 1144.74H1371.78Z" fill="#D2AA1B"/>
<path d="M1371.78 1340.96C1373.79 1340.96 1375.35 1338.73 1375.35 1335.17C1375.35 1331.6 1373.79 1329.38 1371.78 1329.38H549.29C547.286 1329.38 545.727 1331.6 545.727 1335.17C545.727 1338.73 547.286 1340.96 549.29 1340.96H1371.78Z" fill="#D2AA1B"/>
<path d="M1446.56 1100.53C1446.78 1113.89 1436.31 1124.8 1422.95 1125.03C1409.58 1125.25 1398.67 1114.78 1398.45 1101.42C1398.23 1088.06 1408.69 1077.14 1422.06 1076.92C1422.28 1076.92 1422.5 1076.92 1422.5 1076.92C1435.64 1076.92 1446.56 1087.39 1446.56 1100.53ZM1404.24 1100.53C1404.91 1110.55 1413.37 1118.35 1423.62 1117.9C1433.64 1117.23 1441.43 1108.77 1440.99 1098.52C1440.54 1088.72 1432.52 1081.15 1422.72 1081.15C1412.26 1081.6 1404.02 1090.06 1404.24 1100.53ZM1414.71 1095.18C1414.71 1092.73 1414.26 1091.62 1412.7 1091.4H1412.03C1411.59 1090.73 1411.59 1089.61 1412.26 1089.39C1416.04 1089.17 1419.38 1088.95 1422.5 1088.95C1426.73 1088.95 1431.86 1089.84 1431.86 1095.18C1431.86 1097.41 1430.52 1099.41 1428.52 1100.31C1428.07 1100.53 1428.07 1100.75 1428.52 1101.64C1429.63 1104.31 1431.19 1106.99 1433.19 1108.99C1433.86 1109.44 1434.31 1109.88 1434.75 1110.1C1435.2 1110.1 1435.2 1111.22 1434.75 1111.44C1433.86 1111.44 1432.97 1111.66 1432.08 1111.66C1429.18 1111.89 1426.51 1110.33 1425.17 1107.88L1422.5 1103.2C1422.28 1102.53 1421.61 1102.09 1420.94 1102.09C1420.05 1102.09 1419.83 1102.53 1419.83 1102.98V1105.65C1419.83 1108.32 1419.83 1109.21 1422.5 1109.44L1422.95 1109.66C1423.39 1109.88 1423.39 1111.22 1422.95 1111.44C1421.17 1111.44 1419.61 1111.22 1417.38 1111.22C1415.38 1111.22 1413.59 1111.44 1412.03 1111.44C1411.59 1111.22 1411.59 1109.88 1411.81 1109.66L1412.48 1109.44C1414.48 1108.99 1414.48 1108.55 1414.48 1105.65L1414.71 1095.18ZM1419.83 1098.75C1419.83 1100.08 1420.05 1100.08 1422.06 1100.08C1424.06 1100.31 1425.62 1098.75 1425.84 1096.96C1425.84 1096.74 1425.84 1096.52 1425.84 1096.52C1425.84 1093.62 1424.51 1091.84 1422.28 1091.84C1420.05 1091.84 1419.83 1092.29 1419.83 1093.18V1098.75Z" fill="#D2AA1B"/>
<path d="M1271.44 1490.03V1498.9H1229.55V1432.91H1271.44V1441.74H1239.79V1461.04H1269.75V1469.54H1239.79V1490.03H1271.44Z" fill="#D2AA1B"/>
<path d="M1170.58 1498.9H1159.38L1135.83 1432.91H1146.94L1164.91 1487.38H1165.19L1183.2 1432.91H1194.13L1170.58 1498.9Z" fill="#D2AA1B"/>
<path d="M1074.21 1431.82C1093.19 1431.82 1105.12 1444.94 1105.12 1465.93C1105.12 1486.92 1093.19 1500 1074.21 1500C1055.19 1500 1043.3 1486.92 1043.3 1465.93C1043.3 1444.94 1055.19 1431.82 1074.21 1431.82ZM1074.21 1440.83C1061.68 1440.83 1053.77 1450.52 1053.77 1465.93C1053.77 1481.3 1061.68 1490.99 1074.21 1490.99C1086.74 1490.99 1094.61 1481.3 1094.61 1465.93C1094.61 1450.52 1086.74 1440.83 1074.21 1440.83Z" fill="#D2AA1B"/>
<path d="M1011.54 1490.03V1498.9H970.566V1432.91H980.81V1490.03H1011.54Z" fill="#D2AA1B"/>
<path d="M884.831 1490.03V1498.9H842.941V1432.91H884.831V1441.74H853.185V1461.04H883.139V1469.54H853.185V1490.03H884.831Z" fill="#D2AA1B"/>
<path d="M758.78 1498.9H748.811V1432.91H758.094L792.3 1481.57H792.666V1432.91H802.635V1498.9H793.398L759.191 1450.29H758.78V1498.9Z" fill="#D2AA1B"/>
<path d="M680.013 1431.82C698.992 1431.82 710.927 1444.94 710.927 1465.93C710.927 1486.92 698.992 1500 680.013 1500C660.99 1500 649.1 1486.92 649.1 1465.93C649.1 1444.94 660.99 1431.82 680.013 1431.82ZM680.013 1440.83C667.483 1440.83 659.572 1450.52 659.572 1465.93C659.572 1481.3 667.483 1490.99 680.013 1490.99C692.544 1490.99 700.409 1481.3 700.409 1465.93C700.409 1450.52 692.544 1440.83 680.013 1440.83Z" fill="#D2AA1B"/>
</svg>
