<svg width="447" height="561" viewBox="0 0 447 561" fill="none" xmlns="http://www.w3.org/2000/svg">
<rect width="447" height="561" rx="20" fill="#1E1E1E"/>
<path d="M263.235 104.767C260.575 108.995 260.595 113.614 257.832 120.213C255.811 120.007 253.79 119.924 251.769 120.007C252.079 118.419 252.223 116.811 252.202 115.202C252.14 112.026 251.81 108.851 251.212 105.737C255.172 104.974 259.193 104.644 263.235 104.767ZM250.305 115.8C250.305 117.244 250.181 118.687 249.913 120.11C244.49 120.543 239.272 122.399 234.777 125.472C238.633 121.285 240.778 115.8 240.798 110.108C240.798 109.923 240.798 109.758 240.778 109.572C243.397 108.046 246.201 106.912 249.13 106.19C249.79 109.366 250.181 112.583 250.305 115.8ZM232.343 128.091C237.334 124.234 243.335 121.966 249.625 121.512C247.83 128.214 242.902 130.895 239.004 130.895C236.488 130.895 234.096 129.885 232.343 128.091ZM239.437 111.841C239.437 118.893 235.478 124.069 231.993 127.41C231.498 126.255 231.25 125.039 231.271 123.781C231.271 119.533 233.746 114.357 239.396 110.48C239.437 110.933 239.437 111.387 239.437 111.841ZM230.508 123.575C230.508 124.606 230.673 125.637 231.024 126.606C230.034 124.709 229.518 122.585 229.518 120.44C229.518 113.449 232.673 106.912 236.901 101.612C238.076 103.943 238.86 106.438 239.252 108.995C233.828 112.645 230.508 117.739 230.508 123.575ZM233.663 129.864C235.251 130.957 237.148 131.555 239.066 131.596C245.15 131.596 249.707 127.843 251.439 121.409C253.357 121.347 255.296 121.43 257.213 121.636C257.213 121.657 257.193 121.657 257.193 121.657C253.852 128.895 247.604 132.731 241.458 132.731C238.592 132.854 235.787 131.823 233.663 129.864ZM249.233 91.1158C247.769 95.5701 248.202 100.189 248.903 104.664C246.036 105.448 243.294 106.582 240.716 108.067C240.427 105.221 239.644 102.437 238.406 99.8388C241.5 96.3537 245.17 93.3842 249.233 91.1158ZM229.394 85.4654C230.776 91.5076 233.869 95.7969 236.262 100.334C232.859 104.541 230.487 109.49 229.394 114.79H229.518V85.4654H229.394ZM234.096 130.895C236.344 132.627 239.087 133.555 241.912 133.555C248.635 133.555 255.254 129.699 259.173 121.884C262.451 122.399 265.689 123.245 268.782 124.42C261.792 126.276 254.182 134.731 244.613 134.731C240.221 134.731 236.674 133.267 234.344 131.06L234.096 130.895ZM228.57 121.492C229.807 128.916 235.602 135.824 245.603 135.824C257.152 135.824 266.988 125.08 273.629 124.791C274.123 124.771 274.123 124.544 273.732 124.399C269.277 122.543 264.637 121.224 259.874 120.481C262.761 113.944 262.823 108.253 265.607 103.798C265.854 103.406 265.813 103.283 265.359 103.241C260.554 102.829 255.708 103.138 250.986 104.169C250.181 99.117 249.583 94.1678 251.522 88.4968C251.666 88.0638 251.584 87.8575 251.13 88.0638C246.057 90.6827 241.541 94.2503 237.788 98.5396C234.632 92.2294 230.034 86.414 228.776 77.4023C228.693 76.8455 228.405 76.8867 228.405 77.4023V118.502C228.405 122.11 225.889 123.781 223.497 123.781C221.104 123.781 218.589 122.09 218.589 118.502V77.4229C218.589 76.9074 218.3 76.8661 218.217 77.4229C216.959 86.414 212.361 92.25 209.226 98.5396C205.473 94.2297 200.936 90.6827 195.884 88.0638C195.451 87.8575 195.348 88.0431 195.492 88.4968C197.451 94.1884 196.853 99.117 196.028 104.169C191.306 103.138 186.46 102.829 181.655 103.241C181.222 103.283 181.18 103.406 181.407 103.798C184.191 108.253 184.274 113.944 187.14 120.481C182.376 121.224 177.716 122.543 173.282 124.399C172.89 124.564 172.89 124.791 173.385 124.791C180.005 125.059 189.862 135.824 201.41 135.824C211.433 135.824 217.207 128.916 218.444 121.492L218.238 121.533C219.042 123.348 220.774 124.564 222.754 124.709L222.775 124.585C220.053 124.874 217.867 126.936 217.867 129.575C217.867 133.782 221.991 135.143 223.208 138.319C223.29 138.525 223.332 138.752 223.517 138.752C223.703 138.752 223.723 138.546 223.827 138.319C225.064 135.143 229.168 133.782 229.168 129.575C229.044 126.895 226.92 124.729 224.26 124.585L224.28 124.709C226.26 124.564 227.992 123.348 228.796 121.533L228.57 121.492ZM195.801 105.757C195.203 108.871 194.873 112.047 194.811 115.223C194.811 116.831 194.956 118.44 195.244 120.028C193.224 119.945 191.203 120.007 189.182 120.234C186.418 113.635 186.439 109.016 183.779 104.788C187.8 104.644 191.821 104.974 195.801 105.757ZM197.863 106.211C200.792 106.933 203.596 108.088 206.215 109.593C206.215 109.779 206.195 109.943 206.195 110.129C206.195 115.821 208.36 121.306 212.216 125.492C207.721 122.42 202.503 120.564 197.08 120.131C196.812 118.708 196.688 117.264 196.688 115.821C196.832 112.583 197.224 109.387 197.863 106.211ZM208.009 130.916C204.112 130.916 199.183 128.214 197.389 121.533C203.679 121.966 209.68 124.255 214.67 128.111C212.917 129.885 210.525 130.895 208.009 130.916ZM207.618 110.5C213.268 114.377 215.743 119.553 215.743 123.801C215.763 125.039 215.516 126.276 215.021 127.431C211.536 124.09 207.576 118.914 207.576 111.861C207.576 111.387 207.576 110.933 207.618 110.5ZM207.762 109.016C208.133 106.438 208.937 103.943 210.113 101.633C214.34 106.912 217.496 113.47 217.496 120.461C217.496 122.605 216.98 124.709 215.99 126.627C216.341 125.657 216.506 124.626 216.506 123.595C216.506 117.739 213.186 112.645 207.762 109.016ZM205.555 132.731C199.41 132.731 193.162 128.895 189.821 121.657C189.821 121.636 189.8 121.636 189.8 121.636C191.718 121.43 193.636 121.347 195.574 121.409C197.307 127.843 201.864 131.596 207.948 131.596C209.886 131.576 211.763 130.978 213.351 129.864C211.247 131.823 208.422 132.854 205.555 132.731ZM208.608 99.8388C207.37 102.437 206.587 105.221 206.298 108.067C203.72 106.582 200.977 105.448 198.111 104.664C198.812 100.169 199.245 95.5701 197.781 91.1158C201.864 93.4048 205.514 96.3537 208.608 99.8388ZM217.475 85.4654V114.79H217.599C216.506 109.49 214.155 104.541 210.732 100.334C213.124 95.7763 216.217 91.5076 217.599 85.4654H217.475ZM212.67 131.04C210.34 133.246 206.793 134.71 202.4 134.71C192.832 134.71 185.222 126.255 178.231 124.42C181.345 123.245 184.562 122.399 187.841 121.884C191.759 129.699 198.379 133.555 205.102 133.555C207.927 133.555 210.69 132.607 212.917 130.895L212.67 131.04Z" fill="#D2AA1B"/>
<path d="M201.417 149.767C201.231 149.788 201.148 149.767 201.107 149.643C200.901 148.53 199.932 147.725 198.818 147.725C197.849 147.602 196.983 148.303 196.859 149.251C196.859 149.293 196.859 149.355 196.838 149.396C196.838 150.633 197.87 151.169 199.231 151.602C201.19 152.242 202.468 153.046 202.468 154.943C202.468 156.84 200.984 158.181 198.426 158.181C197.457 158.222 196.467 158.016 195.581 157.624C195.374 157.541 195.23 157.376 195.168 157.191C194.941 156.51 194.818 155.789 194.838 155.067C194.838 154.943 194.962 154.902 195.106 154.881C195.251 154.861 195.354 154.902 195.374 155.005C195.787 156.098 196.653 157.562 198.385 157.562C199.746 157.562 200.612 156.758 200.612 155.665C200.612 154.737 200.282 153.974 198.468 153.376C196.653 152.778 195.147 151.829 195.147 149.994C195.147 148.406 196.447 147.045 199.004 147.045C199.705 147.066 200.406 147.148 201.107 147.313C201.355 147.375 201.375 147.416 201.437 147.581C201.623 148.22 201.705 148.88 201.705 149.54C201.685 149.685 201.602 149.746 201.417 149.767Z" fill="#D2AA1B"/>
<path d="M230.679 155.107C230.824 155.128 230.906 155.19 230.886 155.272C230.803 156.035 230.576 156.798 230.246 157.479C230.184 157.602 230.081 157.685 229.937 157.726C228.988 158.056 227.999 158.221 226.988 158.242C223.42 158.242 220.678 156.448 220.678 152.653C220.678 148.962 223.585 147.023 226.947 147.023C228.04 147.044 229.112 147.209 230.164 147.456C230.37 147.498 230.391 147.539 230.411 147.725C230.432 148.178 230.473 148.983 230.618 149.952C230.638 150.055 230.576 150.096 230.411 150.137C230.226 150.158 230.143 150.137 230.123 150.034C229.834 148.57 228.493 147.56 227.009 147.683C224.967 147.683 222.905 149.127 222.905 152.426C222.905 155.85 225.05 157.541 227.132 157.541C228.638 157.561 229.978 156.592 230.453 155.169C230.453 155.107 230.535 155.087 230.679 155.107Z" fill="#D2AA1B"/>
<path d="M234.824 152.675C234.886 149.52 237.464 147.004 240.619 147.066C243.692 147.107 246.187 149.602 246.228 152.675C246.146 155.83 243.506 158.304 240.351 158.222C237.34 158.139 234.907 155.706 234.824 152.675ZM240.537 157.541C242.475 157.541 244.022 155.459 244.022 152.675C244.022 150.097 242.764 147.767 240.537 147.767C238.309 147.767 237.051 150.118 237.051 152.675C237.031 155.459 238.577 157.541 240.537 157.541Z" fill="#D2AA1B"/>
<path d="M186.693 152.652V155.642C186.693 157.353 186.549 157.395 185.786 157.498L185.436 157.539C185.332 157.56 185.312 157.663 185.312 157.786C185.332 157.91 185.353 158.013 185.456 157.993C185.456 157.993 186.858 157.951 187.621 157.951C188.384 157.951 189.787 157.993 189.787 157.993C189.89 157.993 189.931 157.91 189.931 157.786C189.952 157.663 189.91 157.539 189.807 157.539L189.457 157.498C188.694 157.395 188.549 157.353 188.549 155.642V149.661C188.549 147.95 188.694 147.909 189.457 147.805L189.807 147.764C189.91 147.744 189.931 147.64 189.931 147.517C189.931 147.393 189.89 147.311 189.787 147.311C189.787 147.311 188.384 147.352 187.621 147.352C186.858 147.352 185.456 147.311 185.456 147.311C185.353 147.311 185.312 147.393 185.312 147.517C185.291 147.64 185.332 147.764 185.436 147.764L185.786 147.805C186.549 147.909 186.693 147.95 186.693 149.661V152.652Z" fill="#D2AA1B"/>
<path d="M214.244 157.087C214.429 157.335 214.285 157.459 214.079 157.5L213.666 157.562C213.563 157.582 213.543 157.665 213.563 157.809C213.584 157.954 213.625 158.036 213.708 158.015C213.708 158.015 215.069 157.974 215.811 157.974C216.574 157.974 217.935 158.015 217.935 158.015C218.038 158.015 218.079 157.954 218.1 157.789C218.121 157.624 218.059 157.541 217.976 157.541C217.316 157.562 216.698 157.273 216.306 156.758C215.275 155.603 213.233 152.984 212.408 151.891C212.305 151.788 212.305 151.602 212.408 151.499L212.429 151.478C212.883 150.983 214.367 149.478 215.027 148.88C215.687 148.22 216.553 147.828 217.481 147.746C217.564 147.725 217.626 147.622 217.605 147.478C217.584 147.354 217.543 147.271 217.44 147.292C217.44 147.292 216.285 147.333 215.667 147.333C215.048 147.333 213.893 147.292 213.893 147.292C213.79 147.292 213.749 147.395 213.749 147.498C213.728 147.643 213.769 147.725 213.852 147.746L214.285 147.87C214.367 147.89 214.429 147.931 214.429 148.014C214.45 148.199 214.099 148.591 213.646 149.107C213.006 149.829 211.893 151.004 211.295 151.581C210.8 152.056 210.594 152.138 210.408 152.035C210.264 151.973 210.202 151.808 210.202 151.313V149.622C210.202 147.911 210.346 147.87 211.109 147.766L211.46 147.725C211.563 147.705 211.583 147.601 211.583 147.478C211.563 147.354 211.542 147.271 211.439 147.271C211.439 147.271 210.037 147.313 209.274 147.313C208.511 147.313 207.108 147.271 207.108 147.271C207.005 147.271 206.964 147.354 206.964 147.478C206.944 147.601 206.985 147.725 207.088 147.725L207.438 147.766C208.201 147.87 208.346 147.911 208.346 149.622V155.603C208.346 157.314 208.201 157.356 207.438 157.459L207.088 157.5C206.985 157.521 206.964 157.624 206.964 157.747C206.964 157.871 207.005 157.974 207.108 157.954C207.108 157.954 208.511 157.912 209.274 157.912C210.037 157.912 211.439 157.954 211.439 157.954C211.542 157.954 211.583 157.871 211.583 157.747C211.604 157.624 211.563 157.5 211.46 157.5L211.109 157.459C210.346 157.356 210.202 157.314 210.202 155.603V153.211C210.202 152.942 210.305 152.778 210.47 152.736C210.655 152.695 210.8 152.778 210.985 152.984C211.872 153.953 213.543 156.139 214.244 157.087Z" fill="#D2AA1B"/>
<path d="M252.169 149.56C254.211 151.663 257.366 155.313 259.758 158.18C259.861 158.304 259.965 158.324 260.171 158.242C260.356 158.159 260.377 158.097 260.377 157.953C260.336 157.149 260.315 156.386 260.315 155.664V150.199C260.315 148.302 260.459 147.931 261.222 147.828L261.573 147.786C261.676 147.766 261.697 147.663 261.697 147.539C261.697 147.415 261.656 147.312 261.552 147.333C260.934 147.374 260.336 147.374 259.923 147.374C259.49 147.374 258.727 147.353 258.109 147.333C258.005 147.333 257.964 147.415 257.964 147.539C257.944 147.663 258.005 147.786 258.088 147.786C259.366 147.848 259.531 148.116 259.531 150.199V155.231L259.655 155.107C257.304 152.715 255.118 150.199 253.077 147.539C252.974 147.395 252.953 147.333 252.767 147.353C251.839 147.395 250.911 147.395 249.983 147.333C249.88 147.312 249.839 147.415 249.839 147.539C249.819 147.663 249.86 147.766 249.963 147.786C251.2 148.034 251.551 148.405 251.551 149.684V155.148C251.551 157.046 251.406 157.417 250.643 157.52L250.293 157.561C250.19 157.582 250.169 157.685 250.169 157.809C250.169 157.932 250.21 158.035 250.313 158.015C250.932 157.974 251.53 157.974 251.943 157.974C252.376 157.974 252.953 157.994 253.572 158.015C253.675 158.015 253.716 157.932 253.716 157.809C253.737 157.685 253.695 157.561 253.592 157.561L253.242 157.52C252.479 157.417 252.334 157.046 252.334 155.148V149.477L252.169 149.56Z" fill="#D2AA1B"/>
<path d="M261.592 144.106C261.778 144.106 261.922 143.899 261.922 143.569C261.922 143.239 261.778 143.033 261.592 143.033H185.435C185.25 143.033 185.105 143.239 185.105 143.569C185.105 143.899 185.25 144.106 185.435 144.106H261.592Z" fill="#D2AA1B"/>
<path d="M261.592 162.274C261.778 162.274 261.922 162.067 261.922 161.737C261.922 161.407 261.778 161.201 261.592 161.201H185.435C185.25 161.201 185.105 161.407 185.105 161.737C185.105 162.067 185.25 162.274 185.435 162.274H261.592Z" fill="#D2AA1B"/>
<path d="M268.515 140.01C268.536 141.247 267.567 142.258 266.329 142.279C265.092 142.299 264.081 141.33 264.061 140.093C264.04 138.855 265.009 137.845 266.247 137.824C266.267 137.824 266.288 137.824 266.288 137.824C267.505 137.824 268.515 138.793 268.515 140.01ZM264.597 140.01C264.659 140.938 265.443 141.66 266.391 141.619C267.319 141.557 268.041 140.773 268 139.825C267.958 138.917 267.216 138.216 266.309 138.216C265.339 138.257 264.576 139.041 264.597 140.01ZM265.566 139.515C265.566 139.288 265.525 139.185 265.381 139.165H265.319C265.278 139.103 265.278 139 265.339 138.979C265.69 138.958 265.999 138.938 266.288 138.938C266.68 138.938 267.154 139.02 267.154 139.515C267.154 139.721 267.03 139.907 266.845 139.99C266.804 140.01 266.804 140.031 266.845 140.113C266.948 140.361 267.092 140.608 267.278 140.794C267.34 140.835 267.381 140.876 267.422 140.897C267.463 140.897 267.463 141 267.422 141.021C267.34 141.021 267.257 141.041 267.175 141.041C266.907 141.062 266.659 140.917 266.536 140.691L266.288 140.258C266.267 140.196 266.206 140.154 266.144 140.154C266.061 140.154 266.041 140.196 266.041 140.237V140.484C266.041 140.732 266.041 140.814 266.288 140.835L266.329 140.856C266.371 140.876 266.371 141 266.329 141.021C266.164 141.021 266.02 141 265.814 141C265.628 141 265.463 141.021 265.319 141.021C265.278 141 265.278 140.876 265.298 140.856L265.36 140.835C265.546 140.794 265.546 140.753 265.546 140.484L265.566 139.515ZM266.041 139.845C266.041 139.969 266.061 139.969 266.247 139.969C266.432 139.99 266.577 139.845 266.597 139.68C266.597 139.66 266.597 139.639 266.597 139.639C266.597 139.371 266.474 139.206 266.267 139.206C266.061 139.206 266.041 139.247 266.041 139.33V139.845Z" fill="#D2AA1B"/>
<path d="M252.301 176.078V176.899H248.422V170.789H252.301V171.606H249.37V173.393H252.144V174.181H249.37V176.078H252.301Z" fill="#D2AA1B"/>
<path d="M242.962 176.899H241.925L239.744 170.789H240.773L242.437 175.832H242.463L244.131 170.789H245.143L242.962 176.899Z" fill="#D2AA1B"/>
<path d="M234.038 170.688C235.795 170.688 236.901 171.903 236.901 173.846C236.901 175.79 235.795 177.001 234.038 177.001C232.277 177.001 231.176 175.79 231.176 173.846C231.176 171.903 232.277 170.688 234.038 170.688ZM234.038 171.522C232.878 171.522 232.145 172.419 232.145 173.846C232.145 175.269 232.878 176.167 234.038 176.167C235.198 176.167 235.927 175.269 235.927 173.846C235.927 172.419 235.198 171.522 234.038 171.522Z" fill="#D2AA1B"/>
<path d="M228.235 176.078V176.899H224.441V170.789H225.39V176.078H228.235Z" fill="#D2AA1B"/>
<path d="M216.502 176.078V176.899H212.623V170.789H216.502V171.606H213.572V173.393H216.345V174.181H213.572V176.078H216.502Z" fill="#D2AA1B"/>
<path d="M204.831 176.899H203.908V170.789H204.768L207.935 175.294H207.969V170.789H208.892V176.899H208.037L204.869 172.398H204.831V176.899Z" fill="#D2AA1B"/>
<path d="M197.538 170.688C199.295 170.688 200.401 171.903 200.401 173.846C200.401 175.79 199.295 177.001 197.538 177.001C195.777 177.001 194.676 175.79 194.676 173.846C194.676 171.903 195.777 170.688 197.538 170.688ZM197.538 171.522C196.378 171.522 195.645 172.419 195.645 173.846C195.645 175.269 196.378 176.167 197.538 176.167C198.698 176.167 199.427 175.269 199.427 173.846C199.427 172.419 198.698 171.522 197.538 171.522Z" fill="#D2AA1B"/>
</svg>
