<svg width="602" height="1080" viewBox="0 0 602 1080" fill="none" xmlns="http://www.w3.org/2000/svg">
<path d="M55.2169 85.5195C55.3688 83.7243 53.1639 81.7404 54.5264 79.8347C56.393 77.2225 60.1835 76.6079 63.171 76.8081C66.888 77.0544 70.9388 78.4169 74.6512 79.1189C79.8135 80.0924 84.5939 80.5159 89.6297 82.3158C94.9739 84.226 100.622 87.6047 104.742 91.4943C108.898 95.4208 111.296 99.9272 113.893 104.931C118.397 113.621 122.894 122.179 127.711 130.713C136.404 146.11 145.58 161.542 155.339 176.283C164.794 190.564 173.18 202.256 185.798 215.331C198.861 228.872 216.595 233.905 234.837 235.827C258.312 238.313 281.404 242.646 304.228 248.469C310.051 249.958 315.817 250.327 321.711 250.179C324.526 250.106 327.483 249.822 328.623 246.782C329.969 243.176 327.686 240.504 324.986 238.904C320.634 236.331 316.063 233.933 311.303 232.271C299.664 228.197 291.901 220.904 289.038 208.583C288.164 204.832 286.854 200.777 284.52 197.828C264.158 172.102 276.311 136.089 320.18 132.285C326.022 131.778 331.976 131.951 337.833 132.397C354.172 133.647 371.892 141.196 382.522 119.414C387.25 133.056 384.739 141.3 374.161 144.987C362.193 149.16 361.203 156.921 365.809 166.173C373.121 180.852 373.901 196.137 373.229 212.024C372.428 230.975 381.254 237.656 399.015 230.653C421.833 221.661 444.133 211.677 465.565 200.114C480.221 192.21 493.008 184.019 508.634 177.487C515.373 174.67 522.758 171.917 531.071 169.128C534.567 167.954 542.729 165.333 544.952 162.189C546.77 159.613 545.233 153.744 544.747 150.877C542.998 140.559 541.189 130.651 538.687 120.457C534.936 105.182 530.418 90.0766 526.224 74.9185C525.034 70.6216 523.925 66.2992 522.714 62.0114C522.008 59.512 521.253 57.077 520.194 54.7018C518.052 49.8984 515.043 45.4749 513.082 40.5841C511.301 36.1352 510.661 31.7024 511.372 26.9613C511.939 23.1867 513.504 18.4639 516.098 15.6099C517.808 13.7296 521.398 11.6835 523.771 13.5846C525.532 14.9932 524.965 17.7665 524.965 19.7435C524.965 21.4444 525.278 23.3178 526.045 24.8506C526.816 26.3927 527.861 27.1108 529.557 27.4882C532.551 28.1534 536.413 27.5205 539.311 26.685C543.875 25.3708 548.508 22.9957 552.395 20.2822C556.651 17.3109 560.359 13.6629 564.439 10.4729C568.306 7.45099 572.52 4.8502 576.994 2.83634C579.998 1.48533 585.257 -0.579194 588.571 0.152699C592.53 1.02729 592.613 4.96531 590.787 7.932C588.774 11.2071 584.092 14.9172 581.234 17.6468C577.257 21.4421 573.581 25.5849 570.08 29.822C566.522 34.1259 562.929 38.9661 558.874 42.782C556.929 44.6141 552.16 47.8201 550.996 49.8708C549.346 52.7776 551.73 59.6432 552.614 62.5224C556.064 73.7356 560.08 84.8014 563.574 96.0214C567.309 108.017 570.663 120.257 573.128 132.579C574.983 141.855 576.495 151.668 577.084 161.119C577.381 165.885 577.135 169.825 576.888 174.518C576.053 190.419 491.616 233.159 475.968 242.055C456.483 253.144 447.965 268.824 448.213 291.188C448.595 325.32 448.066 359.611 436.496 392.362C430.749 408.623 423.842 424.476 417.246 440.425C412.889 450.973 408.484 461.484 408.68 473.179C408.926 486.569 417.617 496.134 430.908 497.745C445.863 499.568 458.676 494.114 470.504 485.708C483.489 476.465 497.361 469.487 513.508 467.961C520.905 467.259 528.082 467.641 536.832 472.085C519.748 486.942 502.208 499.458 490.921 520.222C506.344 522.043 519.748 518.708 533.164 517.797C547.442 516.825 561.424 517.426 575.174 521.108C599.186 527.546 607.31 544.076 597.588 566.822C586.265 593.308 565.77 613.359 548.206 635.355C515.343 676.553 478.074 713.711 440.287 750.366C422.268 767.844 408.051 787.796 402.956 813.127C401.54 820.167 401.048 827.219 402.007 834.211C404.334 851.284 396.099 864.541 387.004 877.524C384.739 880.748 381.699 883.803 377.158 882.348C372.676 880.907 372.212 876.723 371.724 872.76C370.354 861.683 372.179 850.778 374.672 840.131C378.474 823.884 376.566 808.252 371.931 792.572C364.962 769.001 368.596 761.123 389.749 749.737C427.4 729.477 452.782 699.789 459.871 656.476C464.978 625.311 480.684 601.888 510.519 588.042C466.379 588.102 409.025 604.51 376.467 633.275C354.423 652.759 347.191 676.626 342.669 703.311C336.756 738.193 330.929 773.395 308.726 802.528C293.036 823.106 276.311 842.936 259.362 862.506C220.116 907.812 205.379 961.588 203.782 1020.05C203.427 1033 203.938 1045.98 203.538 1058.93C203.264 1067.83 201.602 1076.5 191.172 1079.33C180.785 1082.15 174.824 1075.58 170.039 1068.09C155.728 1045.73 155.723 1021.38 161.102 996.521C168.062 964.322 183.072 935.36 197.706 906.25C200.348 900.995 203.257 895.775 205.052 890.213C219.605 845.187 240.36 802.984 262.874 761.54C269.666 749.047 273.682 735.643 275.362 719.311C257.442 737.01 243.058 756.26 218.885 763.793C272.343 684.521 278.697 638.246 278.976 547.422C273.434 559.335 272.29 599.525 268.513 617.088C257.617 667.738 222.687 744.838 161.035 739.855C132.657 737.565 105.209 740.766 82.7134 761.174C81.6916 762.097 80.0575 762.355 78.5983 762.971C75.4866 748.607 80.5569 736.754 92.9991 728.729C101.319 723.364 110.643 720.199 119.881 716.89C129.235 713.541 136.073 707.905 139.272 697.96C142.19 688.889 140.176 684.456 129.994 684.68C96.4445 685.393 79.6017 646.93 92.7988 616.945C93.6849 614.927 95.6436 613.387 96.9325 611.838C102.921 612.158 104.152 616.996 106.403 620.331C113.992 631.544 123.41 640.801 134.505 648.506C164.566 669.407 193.963 663.487 214.238 632.591C228.961 610.153 236.565 584.884 241.806 559.16C251.914 509.532 268.909 463.02 301.865 424.027C347.161 370.424 312.104 295.847 255.217 279.269C237.467 274.099 219.423 270.493 201.485 266.345C178.308 260.992 161.357 247.871 148.298 228.436C132.333 204.659 120.081 172.143 104.088 145.657C98.5988 136.568 92.5364 127.799 86.0369 119.403C82.6007 114.966 78.932 110.077 73.5579 107.927C68.3933 105.861 61.309 105.582 55.7232 105.403C48.9888 105.186 42.8621 105.085 36.2268 103.476C29.0022 101.725 21.0503 98.3507 14.827 94.2724C11.393 92.0214 8.16861 89.3355 5.42746 86.2721C3.17425 83.7542 -0.72695 79.6966 0.117718 75.9727C1.45492 70.0784 10.2722 73.5354 13.6463 74.9117C20.4681 77.6897 27.253 81.1626 34.4108 83.0131C37.1635 83.7243 51.951 86.3941 55.2169 85.5287V85.5195Z" fill="#1E1E1E"/>
<path d="M318.174 61.2168C368.154 53.6332 420.756 89.4108 432.091 138.685C433.212 143.598 434.172 148.627 430.503 156.151C424.89 122.684 410.07 97.4778 381.577 82.1126C361.968 71.537 340.646 68.4736 318.811 71.2884C289.395 75.079 265.731 89.4407 247.967 113.225C230.498 136.613 226.425 163.47 228.029 191.966C221.182 175.452 223.527 158.867 226.846 141.288C241.115 95.1762 271.135 68.354 318.171 61.2168H318.174Z" fill="#1E1E1E"/>
</svg>
