<svg width="815" height="53" viewBox="0 0 815 53" fill="none" xmlns="http://www.w3.org/2000/svg">
<path d="M814.691 51.6094H781.855V0.878906H814.691V8.54297H790.926V22.2539H813.391V29.4609H790.926V43.9453H814.691V51.6094Z" fill="black"/>
<path d="M733.986 51.6094L716.338 0.878906H726.322L739.189 41.8711H739.4L752.268 0.878906H762.041L744.393 51.6094H733.986Z" fill="black"/>
<path d="M675.922 0.0351562C683.305 0.0351562 689.164 2.39062 693.5 7.10156C697.812 11.8125 699.969 18.1992 699.969 26.2617C699.969 34.3242 697.812 40.7109 693.5 45.4219C689.164 50.1094 683.305 52.4531 675.922 52.4531C668.516 52.4531 662.656 50.1094 658.344 45.4219C654.008 40.7109 651.84 34.3242 651.84 26.2617C651.84 18.1992 654.008 11.8125 658.344 7.10156C662.656 2.39062 668.516 0.0351562 675.922 0.0351562ZM675.922 7.76953C671.398 7.76953 667.801 9.43359 665.129 12.7617C662.457 16.0898 661.121 20.5898 661.121 26.2617C661.121 31.9102 662.457 36.3984 665.129 39.7266C667.801 43.0547 671.398 44.7188 675.922 44.7188C680.445 44.7188 684.043 43.0547 686.715 39.7266C689.387 36.3984 690.723 31.9102 690.723 26.2617C690.723 20.6133 689.387 16.1133 686.715 12.7617C684.043 9.43359 680.445 7.76953 675.922 7.76953Z" fill="black"/>
<path d="M634.768 51.6094H602.67V0.878906H611.74V43.9453H634.768V51.6094Z" fill="black"/>
<path d="M549.895 51.6094H517.059V0.878906H549.895V8.54297H526.129V22.2539H548.594V29.4609H526.129V43.9453H549.895V51.6094Z" fill="black"/>
<path d="M451.611 51.6094V0.878906H459.486L484.658 36.4219H484.975V0.878906H493.693V51.6094H485.889L460.682 16.0312H460.365V51.6094H451.611Z" fill="black"/>
<path d="M405.922 0.0351562C413.305 0.0351562 419.164 2.39062 423.5 7.10156C427.812 11.8125 429.969 18.1992 429.969 26.2617C429.969 34.3242 427.812 40.7109 423.5 45.4219C419.164 50.1094 413.305 52.4531 405.922 52.4531C398.516 52.4531 392.656 50.1094 388.344 45.4219C384.008 40.7109 381.84 34.3242 381.84 26.2617C381.84 18.1992 384.008 11.8125 388.344 7.10156C392.656 2.39062 398.516 0.0351562 405.922 0.0351562ZM405.922 7.76953C401.398 7.76953 397.801 9.43359 395.129 12.7617C392.457 16.0898 391.121 20.5898 391.121 26.2617C391.121 31.9102 392.457 36.3984 395.129 39.7266C397.801 43.0547 401.398 44.7188 405.922 44.7188C410.445 44.7188 414.043 43.0547 416.715 39.7266C419.387 36.3984 420.723 31.9102 420.723 26.2617C420.723 20.6133 419.387 16.1133 416.715 12.7617C414.043 9.43359 410.445 7.76953 405.922 7.76953Z" fill="black"/>
<path d="M287.578 51.6094V0.878906H296.438L320.133 33.9258H320.414V0.878906H330.574V51.6094H321.785L298.055 18.3867H297.738V51.6094H287.578Z" fill="black"/>
<path d="M241.855 0C249.379 0 255.332 2.35547 259.715 7.06641C264.121 11.7773 266.324 18.1758 266.324 26.2617C266.324 34.3242 264.121 40.7109 259.715 45.4219C255.309 50.1328 249.355 52.4883 241.855 52.4883C234.332 52.4883 228.379 50.1328 223.996 45.4219C219.59 40.7109 217.387 34.3242 217.387 26.2617C217.387 18.1758 219.59 11.7773 223.996 7.06641C228.379 2.35547 234.332 0 241.855 0ZM241.855 8.85938C237.707 8.85938 234.402 10.4297 231.941 13.5703C229.457 16.7109 228.215 20.9414 228.215 26.2617C228.215 31.5586 229.445 35.7773 231.906 38.918C234.367 42.0352 237.684 43.5938 241.855 43.5938C246.004 43.5938 249.309 42.0352 251.77 38.918C254.23 35.7773 255.461 31.5586 255.461 26.2617C255.461 20.9414 254.23 16.7109 251.77 13.5703C249.309 10.4297 246.004 8.85938 241.855 8.85938Z" fill="black"/>
<path d="M175.67 52.4883C168.264 52.4883 162.416 50.1562 158.127 45.4922C153.814 40.8047 151.658 34.3828 151.658 26.2266C151.658 18.0938 153.826 11.6836 158.162 6.99609C162.451 2.33203 168.287 0 175.67 0C181.811 0 186.955 1.75781 191.104 5.27344C195.275 8.83594 197.561 13.4414 197.959 19.0898H187.623C187.131 15.9727 185.795 13.4766 183.615 11.6016C181.412 9.72656 178.764 8.78906 175.67 8.78906C171.662 8.78906 168.463 10.3477 166.072 13.4648C163.682 16.6289 162.486 20.8711 162.486 26.1914C162.486 31.6055 163.67 35.8711 166.037 38.9883C168.404 42.1289 171.627 43.6992 175.705 43.6992C178.846 43.6992 181.482 42.832 183.615 41.0977C185.748 39.3633 187.096 36.9961 187.658 33.9961H197.994C197.408 39.6445 195.1 44.1445 191.068 47.4961C187.037 50.8242 181.904 52.4883 175.67 52.4883Z" fill="black"/>
<path d="M93.3477 51.6094V0.878906H103.965V24.0117H104.281L123.336 0.878906H135.148L116.375 23.3789L136.449 51.6094H123.758L108.711 30.4102L103.965 36.1055V51.6094H93.3477Z" fill="black"/>
<path d="M41.7871 37.1602C42.0215 39.2227 43.123 40.8984 45.0918 42.1875C47.0371 43.4531 49.4277 44.0859 52.2637 44.0859C55.0762 44.0859 57.373 43.4766 59.1543 42.2578C60.9121 41.0625 61.791 39.5273 61.791 37.6523C61.791 36.0117 61.1348 34.6875 59.8223 33.6797C58.5098 32.6719 56.3184 31.8281 53.248 31.1484L46.6387 29.707C37.334 27.7148 32.6816 22.9922 32.6816 15.5391C32.6816 10.8984 34.498 7.13672 38.1309 4.25391C41.7402 1.41797 46.3926 0 52.0879 0C57.9473 0 62.6348 1.39453 66.1504 4.18359C69.6191 6.94922 71.4004 10.6406 71.4941 15.2578H61.5449C61.3809 13.125 60.4316 11.4375 58.6973 10.1953C56.9863 8.97656 54.7949 8.36719 52.123 8.36719C49.498 8.36719 47.3887 8.94141 45.7949 10.0898C44.1777 11.2383 43.3691 12.75 43.3691 14.625C43.3691 16.1719 44.0254 17.4375 45.3379 18.4219C46.627 19.3594 48.7363 20.168 51.666 20.8477L57.8184 22.1484C62.9043 23.2266 66.6074 24.9141 68.9277 27.2109C71.248 29.4844 72.4082 32.5547 72.4082 36.4219C72.4082 41.3438 70.5566 45.2461 66.8535 48.1289C63.1504 51.0352 58.1465 52.4883 51.8418 52.4883C45.7246 52.4883 40.8613 51.1289 37.252 48.4102C33.6191 45.668 31.7207 41.918 31.5566 37.1602H41.7871Z" fill="black"/>
<path d="M0 51.6094V0.878906H10.6172V51.6094H0Z" fill="black"/>
</svg>
