<svg width="1091" height="1080" viewBox="0 0 1091 1080" fill="none" xmlns="http://www.w3.org/2000/svg">
<path d="M974.538 299.89C945.808 345.547 946.031 395.436 916.187 466.705C894.36 464.478 872.534 463.587 850.708 464.478C854.049 447.329 855.608 429.957 855.385 412.585C854.717 378.286 851.153 343.988 844.694 310.358C887.456 302.117 930.886 298.554 974.538 299.89ZM834.895 419.044C834.895 434.634 833.559 450.224 830.663 465.592C772.089 470.269 715.741 490.313 667.189 523.498C708.837 478.286 732 419.044 732.222 357.574C732.222 355.569 732.222 353.788 732 351.783C760.285 335.302 790.574 323.053 822.2 315.258C829.327 349.556 833.559 384.3 834.895 419.044ZM640.908 551.783C694.806 510.135 759.617 485.636 827.545 480.736C808.169 553.119 754.939 582.073 712.846 582.073C685.674 582.073 659.839 571.159 640.908 551.783ZM717.523 376.282C717.523 452.451 674.761 508.353 637.122 544.433C631.777 531.961 629.104 518.821 629.327 505.235C629.327 459.355 656.053 403.453 717.078 361.583C717.523 366.482 717.523 371.382 717.523 376.282ZM621.086 503.008C621.086 514.144 622.868 525.28 626.654 535.747C615.964 515.258 610.396 492.318 610.396 469.155C610.396 393.654 644.472 323.053 690.129 265.814C702.824 290.981 711.287 317.93 715.518 345.547C656.944 384.968 621.086 439.979 621.086 503.008ZM655.162 570.937C672.311 582.741 692.801 589.2 713.514 589.645C779.216 589.645 828.436 549.11 847.144 479.623C867.857 478.955 888.792 479.845 909.505 482.073C909.505 482.295 909.282 482.295 909.282 482.295C873.202 560.469 805.719 601.894 739.349 601.894C708.392 603.231 678.102 592.095 655.162 570.937ZM823.314 152.451C807.501 200.558 812.178 250.447 819.75 298.776C788.792 307.24 759.171 319.489 731.331 335.525C728.213 304.79 719.75 274.723 706.387 246.661C739.795 209.022 779.438 176.95 823.314 152.451ZM609.06 91.4269C623.982 156.683 657.389 203.008 683.224 252.006C646.476 297.44 620.864 350.892 609.06 408.131H610.396V91.4269H609.06ZM659.839 582.073C684.115 600.781 713.737 610.803 744.249 610.803C816.855 610.803 888.347 569.155 930.663 484.745C966.075 490.313 1001.04 499.445 1034.45 512.139C958.948 532.184 876.766 623.498 773.425 623.498C725.986 623.498 687.679 607.685 662.512 583.854L659.839 582.073ZM600.151 480.514C613.514 560.692 676.098 635.302 784.115 635.302C908.837 635.302 1015.07 519.266 1086.79 516.148C1092.13 515.926 1092.13 513.476 1087.9 511.917C1039.79 491.872 989.683 477.618 938.236 469.6C969.416 398.999 970.084 337.529 1000.15 289.422C1002.82 285.191 1002.38 283.854 997.478 283.409C945.585 278.955 893.247 282.295 842.244 293.431C833.558 238.866 827.1 185.414 848.035 124.166C849.594 119.489 848.703 117.262 843.804 119.489C789.015 147.774 740.24 186.304 699.706 232.63C665.63 164.478 615.964 101.672 602.378 4.34459C601.487 -1.66877 598.369 -1.22334 598.369 4.34459V448.22C598.369 487.195 571.198 505.235 545.363 505.235C519.528 505.235 492.356 486.972 492.356 448.22V4.5673C492.356 -1.00063 489.238 -1.44606 488.347 4.5673C474.761 101.672 425.095 164.701 391.243 232.63C350.708 186.082 301.71 147.774 247.145 119.489C242.468 117.262 241.354 119.267 242.913 124.166C264.071 185.636 257.612 238.866 248.704 293.431C197.701 282.295 145.363 278.955 93.4698 283.409C88.7927 283.854 88.3473 285.191 90.7972 289.422C120.864 337.529 121.755 398.999 152.713 469.6C101.265 477.618 50.9309 491.872 3.04669 511.917C-1.18494 513.698 -1.18494 516.148 4.16027 516.148C75.6524 519.044 182.111 635.302 306.833 635.302C415.073 635.302 477.434 560.692 490.797 480.514L488.57 480.959C497.256 500.558 515.964 513.698 537.345 515.257L537.568 513.921C508.169 517.039 484.561 539.311 484.561 567.819C484.561 613.253 529.104 627.952 542.245 662.251C543.136 664.478 543.581 666.928 545.585 666.928C547.59 666.928 547.813 664.701 548.926 662.251C562.289 627.952 606.61 613.253 606.61 567.819C605.274 538.865 582.334 515.48 553.603 513.921L553.826 515.257C575.207 513.698 593.915 500.558 602.601 480.959L600.151 480.514ZM246.254 310.581C239.795 344.211 236.231 378.509 235.563 412.808C235.563 430.18 237.122 447.551 240.24 464.701C218.414 463.81 196.588 464.478 174.762 466.928C144.917 395.658 145.14 345.77 116.41 300.113C159.839 298.554 203.269 302.117 246.254 310.581ZM268.525 315.48C300.151 323.275 330.441 335.748 358.726 352.006C358.726 354.01 358.503 355.792 358.503 357.797C358.503 419.266 381.888 478.509 423.536 523.721C374.984 490.536 318.637 470.491 260.062 465.814C257.167 450.447 255.831 434.857 255.831 419.266C257.39 384.3 261.621 349.779 268.525 315.48ZM378.102 582.295C336.009 582.295 282.779 553.119 263.403 480.959C331.332 485.636 396.142 510.358 450.04 552.006C431.109 571.159 405.274 582.073 378.102 582.295ZM373.871 361.805C434.895 403.676 461.621 459.578 461.621 505.458C461.844 518.821 459.171 532.184 453.826 544.656C416.187 508.576 373.425 452.674 373.425 376.505C373.425 371.382 373.425 366.482 373.871 361.805ZM375.43 345.77C379.439 317.93 388.124 290.981 400.819 266.037C446.476 323.053 480.552 393.877 480.552 469.378C480.552 492.54 474.984 515.258 464.294 535.97C468.08 525.503 469.862 514.367 469.862 503.231C469.862 439.979 434.004 384.968 375.43 345.77ZM351.599 601.894C285.229 601.894 217.746 560.469 181.666 482.295C181.666 482.073 181.443 482.073 181.443 482.073C202.156 479.845 222.868 478.955 243.804 479.623C262.512 549.11 311.733 589.645 377.434 589.645C398.369 589.422 418.637 582.963 435.786 570.937C413.069 592.095 382.557 603.231 351.599 601.894ZM384.561 246.661C371.198 274.723 362.735 304.79 359.617 335.525C331.777 319.489 302.156 307.24 271.198 298.776C278.77 250.224 283.447 200.558 267.635 152.451C311.733 177.173 351.153 209.022 384.561 246.661ZM480.329 91.4269V408.131H481.666C469.862 350.892 444.472 297.44 407.501 252.006C433.336 202.785 466.744 156.683 481.666 91.4269H480.329ZM428.436 583.632C403.269 607.462 364.962 623.275 317.523 623.275C214.182 623.275 132 531.961 56.4988 512.139C90.1291 499.445 124.873 490.313 160.285 484.745C202.601 569.155 274.093 610.803 346.699 610.803C377.211 610.803 407.055 600.558 431.109 582.073L428.436 583.632Z" fill="#D2AA1B"/>
<path d="M306.911 785.883C304.906 786.106 304.015 785.883 303.57 784.547C301.343 772.52 290.875 763.834 278.848 763.834C268.381 762.498 259.026 770.07 257.69 780.315C257.69 780.76 257.69 781.429 257.467 781.874C257.467 795.237 268.603 801.028 283.303 805.705C304.461 812.609 318.269 821.295 318.269 841.785C318.269 862.275 302.234 876.752 274.617 876.752C264.149 877.197 253.459 874.97 243.882 870.738C241.655 869.847 240.095 868.066 239.427 866.061C236.977 858.711 235.641 850.916 235.864 843.121C235.864 841.785 237.2 841.34 238.759 841.117C240.318 840.894 241.432 841.34 241.655 842.453C246.109 854.257 255.463 870.07 274.171 870.07C288.871 870.07 298.225 861.384 298.225 849.58C298.225 839.558 294.661 831.317 275.062 824.858C255.463 818.4 239.205 808.155 239.205 788.333C239.205 771.184 253.236 756.484 280.853 756.484C288.425 756.707 295.997 757.598 303.57 759.38C306.242 760.048 306.465 760.493 307.133 762.275C309.138 769.179 310.029 776.306 310.029 783.433C309.806 784.992 308.915 785.66 306.911 785.883Z" fill="#D2AA1B"/>
<path d="M622.946 843.563C624.505 843.786 625.396 844.454 625.173 845.345C624.283 853.585 621.833 861.826 618.269 869.175C617.601 870.512 616.487 871.403 614.928 871.848C604.683 875.411 593.993 877.193 583.08 877.416C544.55 877.416 514.928 858.039 514.928 817.06C514.928 777.193 546.332 756.258 582.634 756.258C594.438 756.481 606.02 758.262 617.378 760.935C619.605 761.38 619.828 761.826 620.051 763.83C620.274 768.73 620.719 777.416 622.278 787.884C622.501 788.997 621.833 789.443 620.051 789.888C618.046 790.111 617.156 789.888 616.933 788.775C613.815 772.962 599.338 762.048 583.303 763.385C561.254 763.385 538.982 778.975 538.982 814.61C538.982 851.581 562.145 869.844 584.639 869.844C600.897 870.066 615.374 859.599 620.496 844.231C620.496 843.563 621.387 843.34 622.946 843.563Z" fill="#D2AA1B"/>
<path d="M667.712 817.282C668.381 783.207 696.22 756.035 730.296 756.703C763.481 757.149 790.429 784.098 790.875 817.282C789.984 851.358 761.476 878.084 727.401 877.193C694.884 876.302 668.603 850.022 667.712 817.282ZM729.405 869.844C750.34 869.844 767.044 847.349 767.044 817.282C767.044 789.443 753.458 764.276 729.405 764.276C705.352 764.276 691.766 789.666 691.766 817.282C691.543 847.349 708.247 869.844 729.405 869.844Z" fill="#D2AA1B"/>
<path d="M147.891 817.053V849.347C147.891 867.832 146.332 868.278 138.091 869.391L134.305 869.837C133.191 870.06 132.969 871.173 132.969 872.509C133.191 873.846 133.414 874.959 134.528 874.737C134.528 874.737 149.673 874.291 157.913 874.291C166.154 874.291 181.298 874.737 181.298 874.737C182.412 874.737 182.857 873.846 182.857 872.509C183.08 871.173 182.635 869.837 181.521 869.837L177.735 869.391C169.494 868.278 167.935 867.832 167.935 849.347V784.759C167.935 766.273 169.494 765.828 177.735 764.714L181.521 764.269C182.635 764.046 182.857 762.933 182.857 761.596C182.857 760.26 182.412 759.369 181.298 759.369C181.298 759.369 166.154 759.815 157.913 759.815C149.673 759.815 134.528 759.369 134.528 759.369C133.414 759.369 132.969 760.26 132.969 761.596C132.746 762.933 133.191 764.269 134.305 764.269L138.091 764.714C146.332 765.828 147.891 766.273 147.891 784.759V817.053Z" fill="#D2AA1B"/>
<path d="M445.441 864.937C447.445 867.61 445.886 868.946 443.659 869.391L439.205 870.06C438.091 870.282 437.869 871.173 438.091 872.732C438.314 874.291 438.759 875.182 439.65 874.959C439.65 874.959 454.35 874.514 462.367 874.514C470.608 874.514 485.307 874.959 485.307 874.959C486.421 874.959 486.866 874.291 487.089 872.51C487.312 870.728 486.644 869.837 485.753 869.837C478.626 870.06 471.944 866.942 467.713 861.374C456.577 848.902 434.528 820.616 425.619 808.812C424.506 807.699 424.506 805.694 425.619 804.581L425.842 804.358C430.742 799.013 446.777 782.755 453.904 776.296C461.031 769.169 470.385 764.937 480.407 764.046C481.298 763.824 481.967 762.71 481.744 761.151C481.521 759.815 481.076 758.924 479.962 759.146C479.962 759.146 467.49 759.592 460.808 759.592C454.127 759.592 441.655 759.146 441.655 759.146C440.541 759.146 440.096 760.26 440.096 761.374C439.873 762.933 440.318 763.824 441.209 764.046L445.886 765.383C446.777 765.605 447.445 766.051 447.445 766.942C447.668 768.946 443.882 773.178 438.982 778.746C432.078 786.541 420.051 799.236 413.592 805.472C408.247 810.594 406.02 811.485 404.016 810.371C402.457 809.703 401.788 807.922 401.788 802.576V784.314C401.788 765.828 403.347 765.383 411.588 764.269L415.374 763.824C416.488 763.601 416.71 762.487 416.71 761.151C416.488 759.815 416.265 758.924 415.151 758.924C415.151 758.924 400.007 759.369 391.766 759.369C383.526 759.369 368.381 758.924 368.381 758.924C367.267 758.924 366.822 759.815 366.822 761.151C366.599 762.487 367.045 763.824 368.158 763.824L371.944 764.269C380.185 765.383 381.744 765.828 381.744 784.314V848.902C381.744 867.387 380.185 867.832 371.944 868.946L368.158 869.391C367.045 869.614 366.822 870.728 366.822 872.064C366.822 873.4 367.267 874.514 368.381 874.291C368.381 874.291 383.526 873.846 391.766 873.846C400.007 873.846 415.151 874.291 415.151 874.291C416.265 874.291 416.71 873.4 416.71 872.064C416.933 870.728 416.488 869.391 415.374 869.391L411.588 868.946C403.347 867.832 401.788 867.387 401.788 848.902V823.066C401.788 820.171 402.902 818.389 404.684 817.944C406.688 817.498 408.247 818.389 410.252 820.616C419.828 831.084 437.869 854.692 445.441 864.937Z" fill="#D2AA1B"/>
<path d="M855.018 783.656C877.067 806.373 911.142 845.794 936.978 876.752C938.091 878.088 939.205 878.311 941.432 877.42C943.436 876.529 943.659 875.861 943.659 874.302C943.214 865.616 942.991 857.376 942.991 849.58V790.56C942.991 770.07 944.55 766.062 952.79 764.948L956.577 764.503C957.69 764.28 957.913 763.166 957.913 761.83C957.913 760.494 957.467 759.38 956.354 759.603C949.672 760.048 943.214 760.048 938.759 760.048C934.082 760.048 925.842 759.825 919.16 759.603C918.047 759.603 917.601 760.494 917.601 761.83C917.378 763.166 918.047 764.503 918.937 764.503C932.746 765.171 934.528 768.066 934.528 790.56V844.903L935.864 843.567C910.474 817.732 886.866 790.56 864.817 761.83C863.704 760.271 863.481 759.603 861.476 759.825C851.454 760.271 841.432 760.271 831.41 759.603C830.296 759.38 829.851 760.494 829.851 761.83C829.628 763.166 830.073 764.28 831.187 764.503C844.55 767.175 848.336 771.184 848.336 784.992V844.012C848.336 864.502 846.777 868.511 838.537 869.625L834.75 870.07C833.637 870.293 833.414 871.407 833.414 872.743C833.414 874.079 833.86 875.193 834.973 874.97C841.655 874.525 848.113 874.525 852.568 874.525C857.245 874.525 863.481 874.747 870.162 874.97C871.276 874.97 871.721 874.079 871.721 872.743C871.944 871.407 871.499 870.07 870.385 870.07L866.599 869.625C858.358 868.511 856.799 864.502 856.799 844.012V782.765L855.018 783.656Z" fill="#D2AA1B"/>
<path d="M956.783 724.738C958.788 724.738 960.347 722.51 960.347 718.947C960.347 715.383 958.788 713.156 956.783 713.156H134.289C132.285 713.156 130.726 715.383 130.726 718.947C130.726 722.51 132.285 724.738 134.289 724.738H956.783Z" fill="#D2AA1B"/>
<path d="M956.783 920.956C958.788 920.956 960.347 918.729 960.347 915.166C960.347 911.602 958.788 909.375 956.783 909.375H134.289C132.285 909.375 130.726 911.602 130.726 915.166C130.726 918.729 132.285 920.956 134.289 920.956H956.783Z" fill="#D2AA1B"/>
<path d="M1031.56 680.528C1031.78 693.891 1021.31 704.804 1007.95 705.027C994.585 705.25 983.672 694.782 983.449 681.419C983.227 668.056 993.694 657.143 1007.06 656.92C1007.28 656.92 1007.5 656.92 1007.5 656.92C1020.64 656.92 1031.56 667.388 1031.56 680.528ZM989.24 680.528C989.908 690.55 998.371 698.345 1008.62 697.9C1018.64 697.232 1026.43 688.768 1025.99 678.523C1025.54 668.724 1017.52 661.152 1007.73 661.152C997.258 661.597 989.017 670.06 989.24 680.528ZM999.708 675.183C999.708 672.733 999.262 671.619 997.703 671.397H997.035C996.59 670.728 996.59 669.615 997.258 669.392C1001.04 669.169 1004.38 668.947 1007.5 668.947C1011.73 668.947 1016.86 669.838 1016.86 675.183C1016.86 677.41 1015.52 679.414 1013.52 680.305C1013.07 680.528 1013.07 680.751 1013.52 681.641C1014.63 684.314 1016.19 686.987 1018.19 688.991C1018.86 689.437 1019.31 689.882 1019.75 690.105C1020.2 690.105 1020.2 691.218 1019.75 691.441C1018.86 691.441 1017.97 691.664 1017.08 691.664C1014.18 691.886 1011.51 690.327 1010.18 687.878L1007.5 683.201C1007.28 682.532 1006.61 682.087 1005.94 682.087C1005.05 682.087 1004.83 682.532 1004.83 682.978V685.65C1004.83 688.323 1004.83 689.214 1007.5 689.437L1007.95 689.659C1008.39 689.882 1008.39 691.218 1007.95 691.441C1006.17 691.441 1004.61 691.218 1002.38 691.218C1000.38 691.218 998.594 691.441 997.035 691.441C996.59 691.218 996.59 689.882 996.812 689.659L997.481 689.437C999.485 688.991 999.485 688.546 999.485 685.65L999.708 675.183ZM1004.83 678.746C1004.83 680.083 1005.05 680.083 1007.06 680.083C1009.06 680.305 1010.62 678.746 1010.84 676.964C1010.84 676.742 1010.84 676.519 1010.84 676.519C1010.84 673.624 1009.51 671.842 1007.28 671.842C1005.05 671.842 1004.83 672.287 1004.83 673.178V678.746Z" fill="#D2AA1B"/>
<path d="M856.437 1070.03V1078.9H814.548V1012.91H856.437V1021.74H824.792V1041.04H854.745V1049.54H824.792V1070.03H856.437Z" fill="#D2AA1B"/>
<path d="M755.583 1078.9H744.379L720.828 1012.91H731.94L749.913 1067.38H750.187L768.205 1012.91H779.134L755.583 1078.9Z" fill="#D2AA1B"/>
<path d="M659.211 1011.82C678.189 1011.82 690.125 1024.94 690.125 1045.93C690.125 1066.92 678.189 1080 659.211 1080C640.187 1080 628.297 1066.92 628.297 1045.93C628.297 1024.94 640.187 1011.82 659.211 1011.82ZM659.211 1020.83C646.681 1020.83 638.769 1030.52 638.769 1045.93C638.769 1061.3 646.681 1070.99 659.211 1070.99C671.741 1070.99 679.607 1061.3 679.607 1045.93C679.607 1030.52 671.741 1020.83 659.211 1020.83Z" fill="#D2AA1B"/>
<path d="M596.541 1070.03V1078.9H555.567V1012.91H565.811V1070.03H596.541Z" fill="#D2AA1B"/>
<path d="M469.831 1070.03V1078.9H427.942V1012.91H469.831V1021.74H438.186V1041.04H468.139V1049.54H438.186V1070.03H469.831Z" fill="#D2AA1B"/>
<path d="M343.78 1078.9H333.81V1012.91H343.094L377.3 1061.57H377.666V1012.91H387.635V1078.9H378.398L344.191 1030.29H343.78V1078.9Z" fill="#D2AA1B"/>
<path d="M265.013 1011.82C283.991 1011.82 295.927 1024.94 295.927 1045.93C295.927 1066.92 283.991 1080 265.013 1080C245.989 1080 234.099 1066.92 234.099 1045.93C234.099 1024.94 245.989 1011.82 265.013 1011.82ZM265.013 1020.83C252.483 1020.83 244.572 1030.52 244.572 1045.93C244.572 1061.3 252.483 1070.99 265.013 1070.99C277.543 1070.99 285.409 1061.3 285.409 1045.93C285.409 1030.52 277.543 1020.83 265.013 1020.83Z" fill="#D2AA1B"/>
</svg>
