<svg width="859" height="525" viewBox="0 0 859 525" fill="none" xmlns="http://www.w3.org/2000/svg">
<path d="M766.999 236.025C744.387 271.959 744.562 311.223 721.074 367.315C703.896 365.562 686.718 364.861 669.54 365.562C672.169 352.065 673.396 338.393 673.221 324.72C672.695 297.726 669.89 270.732 664.807 244.263C698.462 237.778 732.643 234.973 766.999 236.025ZM657.094 329.803C657.094 342.074 656.043 354.344 653.764 366.438C607.663 370.119 563.316 385.895 525.103 412.013C557.882 376.43 576.112 329.803 576.287 281.424C576.287 279.847 576.287 278.444 576.112 276.867C598.373 263.896 622.212 254.255 647.103 248.12C652.712 275.114 656.043 302.459 657.094 329.803ZM504.419 434.274C546.839 401.496 597.847 382.214 651.31 378.358C636.06 435.326 594.166 458.113 561.037 458.113C539.652 458.113 519.319 449.524 504.419 434.274ZM564.718 296.148C564.718 356.096 531.063 400.093 501.44 428.49C497.233 418.674 495.129 408.332 495.304 397.639C495.304 361.53 516.339 317.533 564.367 284.579C564.718 288.436 564.718 292.292 564.718 296.148ZM488.819 395.887C488.819 404.651 490.221 413.415 493.201 421.654C484.787 405.527 480.405 387.473 480.405 369.243C480.405 309.821 507.224 254.255 543.158 209.206C553.149 229.014 559.81 250.223 563.14 271.959C517.04 302.985 488.819 346.28 488.819 395.887ZM515.638 449.349C529.135 458.639 545.261 463.723 561.563 464.073C613.273 464.073 652.011 432.171 666.735 377.481C683.037 376.956 699.514 377.657 715.815 379.41C715.815 379.585 715.64 379.585 715.64 379.585C687.244 441.111 634.132 473.714 581.896 473.714C557.531 474.766 533.692 466.001 515.638 449.349ZM647.979 119.985C635.534 157.847 639.215 197.111 645.175 235.149C620.81 241.809 597.497 251.45 575.586 264.071C573.132 239.881 566.471 216.218 555.954 194.131C582.247 164.508 613.448 139.267 647.979 119.985ZM479.353 71.9565C491.098 123.316 517.391 159.775 537.724 198.338C508.802 234.097 488.644 276.166 479.353 321.214H480.405V71.9565H479.353ZM519.319 458.113C538.425 472.837 561.738 480.725 585.752 480.725C642.896 480.725 699.163 447.947 732.468 381.513C760.338 385.895 787.858 393.082 814.151 403.073C754.729 418.849 690.048 490.717 608.715 490.717C571.379 490.717 541.23 478.271 521.422 459.516L519.319 458.113ZM472.342 378.183C482.859 441.286 532.115 500.007 617.129 500.007C715.289 500.007 798.901 408.683 855.344 406.228C859.551 406.053 859.551 404.125 856.22 402.898C818.358 387.122 778.919 375.904 738.427 369.594C762.967 314.028 763.493 265.648 787.157 227.787C789.261 224.456 788.91 223.404 785.054 223.054C744.212 219.548 703.019 222.177 662.879 230.942C656.042 187.996 650.959 145.928 667.436 97.7237C668.663 94.0427 667.962 92.2898 664.106 94.0427C620.985 116.304 582.597 146.629 550.695 183.088C523.876 129.451 484.787 80.0197 474.095 3.41936C473.394 -1.31339 470.94 -0.962814 470.94 3.41936V352.766C470.94 383.441 449.555 397.639 429.221 397.639C408.888 397.639 387.503 383.266 387.503 352.766V3.59464C387.503 -0.78753 385.049 -1.1381 384.348 3.59464C373.655 80.0197 334.566 129.626 307.923 183.088C276.021 146.453 237.458 116.304 194.512 94.0427C190.831 92.2898 189.955 93.8674 191.182 97.7237C207.834 146.103 202.751 187.996 195.739 230.942C155.599 222.177 114.406 219.548 73.5643 223.054C69.8833 223.404 69.5327 224.456 71.4609 227.787C95.1246 265.648 95.8258 314.028 120.191 369.594C79.6994 375.904 40.0845 387.122 2.39786 402.898C-0.932591 404.3 -0.932591 406.228 3.27429 406.228C59.5414 408.507 143.328 500.007 241.489 500.007C326.679 500.007 375.759 441.286 386.276 378.183L384.523 378.533C391.359 393.958 406.083 404.3 422.911 405.527L423.086 404.476C399.948 406.93 381.368 424.458 381.368 446.895C381.368 482.654 416.425 494.222 426.767 521.217C427.468 522.97 427.819 524.898 429.397 524.898C430.974 524.898 431.15 523.145 432.026 521.217C442.543 494.222 477.425 482.654 477.425 446.895C476.373 424.108 458.319 405.703 435.707 404.476L435.882 405.527C452.71 404.3 467.434 393.958 474.27 378.533L472.342 378.183ZM193.811 244.439C188.728 270.907 185.923 297.901 185.397 324.895C185.397 338.568 186.624 352.24 189.078 365.737C171.9 365.036 154.722 365.562 137.544 367.49C114.056 311.398 114.231 272.134 91.6189 236.2C125.8 234.973 159.981 237.778 193.811 244.439ZM211.34 248.295C236.231 254.43 260.07 264.246 282.331 277.042C282.331 278.62 282.156 280.022 282.156 281.6C282.156 329.979 300.561 376.605 333.339 412.188C295.127 386.071 250.779 370.295 204.679 366.614C202.4 354.519 201.348 342.249 201.348 329.979C202.575 302.459 205.906 275.289 211.34 248.295ZM297.581 458.289C264.452 458.289 222.558 435.326 207.308 378.533C260.771 382.214 311.779 401.671 354.199 434.45C339.299 449.524 318.966 458.113 297.581 458.289ZM294.25 284.755C342.279 317.709 363.313 361.706 363.313 397.815C363.489 408.332 361.385 418.849 357.178 428.665C327.555 400.269 293.9 356.272 293.9 296.324C293.9 292.292 293.9 288.436 294.25 284.755ZM295.477 272.134C298.633 250.223 305.469 229.014 315.46 209.381C351.394 254.255 378.213 309.996 378.213 369.418C378.213 387.648 373.831 405.527 365.417 421.829C368.397 413.591 369.799 404.826 369.799 396.062C369.799 346.28 341.578 302.985 295.477 272.134ZM276.722 473.714C224.486 473.714 171.374 441.111 142.978 379.585C142.978 379.41 142.803 379.41 142.803 379.41C159.104 377.657 175.406 376.956 191.883 377.481C206.607 432.171 245.345 464.073 297.055 464.073C313.532 463.898 329.483 458.815 342.98 449.349C325.101 466.001 301.087 474.766 276.722 473.714ZM302.664 194.131C292.147 216.218 285.486 239.881 283.032 264.071C261.121 251.45 237.808 241.809 213.443 235.149C219.403 196.936 223.084 157.847 210.639 119.985C245.345 139.442 276.371 164.508 302.664 194.131ZM378.038 71.9565V321.214H379.089C369.799 276.166 349.816 234.097 320.719 198.338C341.052 159.6 367.345 123.316 379.089 71.9565H378.038ZM337.196 459.34C317.388 478.096 287.239 490.541 249.903 490.541C168.57 490.541 103.889 418.674 44.4667 403.073C70.935 393.082 98.2798 385.895 126.15 381.513C159.455 447.947 215.722 480.725 272.865 480.725C296.88 480.725 320.368 472.662 339.299 458.113L337.196 459.34Z" fill="#1E1E1E"/>
</svg>
