<svg width="1067" height="73" viewBox="0 0 1067 73" fill="none" xmlns="http://www.w3.org/2000/svg">
<path d="M1066.74 71.6797H1020.06V1.2207H1066.74V13.3789H1034.8V30.3711H1064.93V41.6992H1034.8V59.4727H1066.74V71.6797Z" fill="black"/>
<path d="M956.377 71.6797L932.695 1.2207H949.199L965.312 56.4941H965.654L981.768 1.2207H997.832L974.15 71.6797H956.377Z" fill="black"/>
<path d="M881.123 0C891.572 0 899.84 3.27148 905.928 9.81445C912.048 16.3574 915.107 25.2441 915.107 36.4746C915.107 47.6725 912.048 56.543 905.928 63.0859C899.808 69.6289 891.54 72.9004 881.123 72.9004C870.674 72.9004 862.406 69.6289 856.318 63.0859C850.199 56.543 847.139 47.6725 847.139 36.4746C847.139 25.2441 850.199 16.3574 856.318 9.81445C862.406 3.27148 870.674 0 881.123 0ZM881.123 12.3047C875.361 12.3047 870.771 14.4857 867.354 18.8477C863.903 23.2096 862.178 29.0853 862.178 36.4746C862.178 43.8314 863.887 49.6908 867.305 54.0527C870.723 58.3822 875.329 60.5469 881.123 60.5469C886.885 60.5469 891.475 58.3822 894.893 54.0527C898.311 49.6908 900.02 43.8314 900.02 36.4746C900.02 29.0853 898.311 23.2096 894.893 18.8477C891.475 14.4857 886.885 12.3047 881.123 12.3047Z" fill="black"/>
<path d="M828.525 71.6797H782.969V1.2207H797.715V59.4727H828.525V71.6797Z" fill="black"/>
<path d="M720.84 71.6797H674.16V1.2207H720.84V13.3789H688.906V30.3711H719.033V41.6992H688.906V59.4727H720.84V71.6797Z" fill="black"/>
<path d="M587.676 71.6797V1.2207H599.98L632.891 47.1191H633.281V1.2207H647.393V71.6797H635.186L602.227 25.5371H601.787V71.6797H587.676Z" fill="black"/>
<path d="M529.17 0C539.619 0 547.887 3.27148 553.975 9.81445C560.094 16.3574 563.154 25.2441 563.154 36.4746C563.154 47.6725 560.094 56.543 553.975 63.0859C547.855 69.6289 539.587 72.9004 529.17 72.9004C518.721 72.9004 510.452 69.6289 504.365 63.0859C498.245 56.543 495.186 47.6725 495.186 36.4746C495.186 25.2441 498.245 16.3574 504.365 9.81445C510.452 3.27148 518.721 0 529.17 0ZM529.17 12.3047C523.408 12.3047 518.818 14.4857 515.4 18.8477C511.95 23.2096 510.225 29.0853 510.225 36.4746C510.225 43.8314 511.934 49.6908 515.352 54.0527C518.77 58.3822 523.376 60.5469 529.17 60.5469C534.932 60.5469 539.521 58.3822 542.939 54.0527C546.357 49.6908 548.066 43.8314 548.066 36.4746C548.066 29.0853 546.357 23.2096 542.939 18.8477C539.521 14.4857 534.932 12.3047 529.17 12.3047Z" fill="black"/>
<path d="M374.414 71.6797V1.2207H386.719L419.629 47.1191H420.02V1.2207H434.131V71.6797H421.924L388.965 25.5371H388.525V71.6797H374.414Z" fill="black"/>
<path d="M315.908 0C326.357 0 334.626 3.27148 340.713 9.81445C346.833 16.3574 349.893 25.2441 349.893 36.4746C349.893 47.6725 346.833 56.543 340.713 63.0859C334.593 69.6289 326.325 72.9004 315.908 72.9004C305.459 72.9004 297.191 69.6289 291.104 63.0859C284.984 56.543 281.924 47.6725 281.924 36.4746C281.924 25.2441 284.984 16.3574 291.104 9.81445C297.191 3.27148 305.459 0 315.908 0ZM315.908 12.3047C310.146 12.3047 305.557 14.4857 302.139 18.8477C298.688 23.2096 296.963 29.0853 296.963 36.4746C296.963 43.8314 298.672 49.6908 302.09 54.0527C305.508 58.3822 310.114 60.5469 315.908 60.5469C321.67 60.5469 326.26 58.3822 329.678 54.0527C333.096 49.6908 334.805 43.8314 334.805 36.4746C334.805 29.0853 333.096 23.2096 329.678 18.8477C326.26 14.4857 321.67 12.3047 315.908 12.3047Z" fill="black"/>
<path d="M228.984 72.9004C218.698 72.9004 210.576 69.6615 204.619 63.1836C198.63 56.6732 195.635 47.7539 195.635 36.4258C195.635 25.1302 198.646 16.2272 204.668 9.7168C210.625 3.23893 218.73 0 228.984 0C237.513 0 244.658 2.44141 250.42 7.32422C256.214 12.2721 259.388 18.6686 259.941 26.5137H245.586C244.902 22.1842 243.047 18.7174 240.02 16.1133C236.96 13.5091 233.281 12.207 228.984 12.207C223.418 12.207 218.975 14.3717 215.654 18.7012C212.334 23.0957 210.674 28.9876 210.674 36.377C210.674 43.8965 212.318 49.821 215.605 54.1504C218.893 58.5124 223.369 60.6934 229.033 60.6934C233.395 60.6934 237.057 59.4889 240.02 57.0801C242.982 54.6712 244.854 51.3835 245.635 47.2168H259.99C259.176 55.0618 255.97 61.3118 250.371 65.9668C244.772 70.5892 237.643 72.9004 228.984 72.9004Z" fill="black"/>
<path d="M119.648 71.6797V1.2207H134.395V33.3496H134.834L161.299 1.2207H177.705L151.631 32.4707L179.512 71.6797H161.885L140.986 42.2363L134.395 50.1465V71.6797H119.648Z" fill="black"/>
<path d="M53.0371 51.6113C53.3626 54.4759 54.8926 56.8034 57.627 58.5938C60.3288 60.3516 63.6491 61.2305 67.5879 61.2305C71.4941 61.2305 74.6842 60.3841 77.1582 58.6914C79.5996 57.0312 80.8203 54.8991 80.8203 52.2949C80.8203 50.0163 79.9089 48.1771 78.0859 46.7773C76.263 45.3776 73.2194 44.2057 68.9551 43.2617L59.7754 41.2598C46.8522 38.4928 40.3906 31.9336 40.3906 21.582C40.3906 15.1367 42.9134 9.91211 47.959 5.9082C52.972 1.9694 59.4336 0 67.3438 0C75.4818 0 81.9922 1.93685 86.875 5.81055C91.6927 9.65169 94.1667 14.7786 94.2969 21.1914H80.4785C80.2507 18.2292 78.9323 15.8854 76.5234 14.1602C74.1471 12.4674 71.1035 11.6211 67.3926 11.6211C63.7467 11.6211 60.8171 12.4186 58.6035 14.0137C56.3574 15.6087 55.2344 17.7083 55.2344 20.3125C55.2344 22.4609 56.1458 24.2188 57.9688 25.5859C59.7591 26.888 62.6888 28.0111 66.7578 28.9551L75.3027 30.7617C82.3665 32.2591 87.5098 34.6029 90.7324 37.793C93.9551 40.9505 95.5664 45.2148 95.5664 50.5859C95.5664 57.4219 92.9948 62.8418 87.8516 66.8457C82.7083 70.8822 75.7585 72.9004 67.002 72.9004C58.5059 72.9004 51.7513 71.0124 46.7383 67.2363C41.6927 63.4277 39.056 58.2194 38.8281 51.6113H53.0371Z" fill="black"/>
<path d="M0 71.6797V1.2207H14.7461V71.6797H0Z" fill="black"/>
</svg>
