<svg width="825" height="264" viewBox="0 0 825 264" fill="none" xmlns="http://www.w3.org/2000/svg">
<path d="M132.914 195.697C151.892 195.697 163.828 208.822 163.828 229.812C163.828 250.803 151.892 263.882 132.914 263.882C113.89 263.882 102 250.803 102 229.812C102 208.822 113.89 195.697 132.914 195.697ZM527.111 195.697C546.089 195.697 558.025 208.822 558.025 229.812C558.025 250.803 546.089 263.882 527.111 263.882C508.087 263.882 496.197 250.803 496.197 229.812C496.197 208.822 508.087 195.697 527.111 195.697ZM245.201 245.45H245.566V196.793H255.536V262.782H246.298L212.092 214.171H211.681V262.782H201.711V196.793H210.994L245.201 245.45ZM337.732 205.619H306.086V224.917H336.04V233.423H306.086V253.91H337.732V262.782H295.843V196.793H337.732V205.619ZM433.711 253.91H464.442V262.782H423.468V196.793H433.711V253.91ZM617.813 251.258H618.088L636.105 196.793H647.035L623.483 262.782H612.279L588.728 196.793H599.841L617.813 251.258ZM724.338 205.619H692.691V224.917H722.645V233.423H692.691V253.91H724.338V262.782H682.448V196.793H724.338V205.619ZM132.914 204.706C120.384 204.706 112.473 214.401 112.473 229.812C112.473 245.178 120.384 254.873 132.914 254.873C145.444 254.873 153.309 245.178 153.31 229.812C153.31 214.401 145.444 204.706 132.914 204.706ZM527.111 204.706C514.581 204.706 506.67 214.401 506.67 229.812C506.67 245.178 514.581 254.873 527.111 254.873C539.641 254.873 547.507 245.178 547.507 229.812C547.507 214.401 539.641 204.706 527.111 204.706ZM823.44 3.34473C824.554 3.12201 825 4.23597 825 5.57227C825 6.90857 824.777 8.0224 823.663 8.24512L819.877 8.69043C811.637 9.80404 810.077 13.8129 810.077 34.3027V93.3232C810.077 101.118 810.301 109.358 810.746 118.044C810.746 119.603 810.523 120.271 808.519 121.162C806.291 122.053 805.178 121.83 804.064 120.494C778.915 90.3587 745.957 52.2044 723.886 29.2441V87.7549C723.886 108.245 725.445 112.254 733.686 113.367L737.472 113.812C738.585 113.812 739.031 115.149 738.809 116.485C738.809 117.822 738.363 118.713 737.249 118.713C730.567 118.49 724.331 118.268 719.654 118.268C715.2 118.268 708.741 118.267 702.06 118.713C700.946 118.935 700.501 117.822 700.501 116.485C700.501 115.149 700.723 114.035 701.837 113.812L705.623 113.367C713.864 112.254 715.423 108.245 715.423 87.7549V28.7344C715.423 14.9263 711.636 10.9177 698.273 8.24512C697.16 8.02235 696.715 6.90853 696.937 5.57227C696.937 4.23609 697.383 3.12226 698.496 3.34473C708.518 4.01288 718.541 4.01282 728.563 3.56738C730.568 3.3448 730.791 4.01335 731.904 5.57227C753.566 33.7976 776.732 60.5172 801.614 85.9443V34.3027C801.614 11.8085 799.833 8.9133 786.024 8.24512C785.134 8.24512 784.465 6.90856 784.687 5.57227C784.687 4.23598 785.133 3.34473 786.247 3.34473C792.928 3.56744 801.169 3.79101 805.846 3.79102C810.3 3.79102 816.759 3.79015 823.44 3.34473ZM449.722 0C461.526 0.22273 473.107 2.00416 484.466 4.67676C486.693 5.12216 486.915 5.56803 487.138 7.57227C487.36 12.472 487.806 21.1583 489.365 31.626C489.588 32.7395 488.919 33.1845 487.138 33.6299C485.133 33.8525 484.242 33.6301 484.019 32.5166C480.901 16.7038 466.425 5.79066 450.39 7.12695C428.341 7.12699 406.069 22.7171 406.069 58.3516C406.069 95.3223 429.231 113.586 451.726 113.586C467.984 113.809 482.46 103.341 487.583 87.9736C487.583 87.3055 488.474 87.082 490.033 87.3047C491.592 87.5274 492.483 88.196 492.261 89.0869C491.37 97.3274 488.92 105.568 485.356 112.918C484.688 114.254 483.574 115.144 482.016 115.59C471.771 119.153 461.08 120.935 450.167 121.158C411.637 121.158 382.016 101.782 382.016 60.8018C382.016 20.9354 413.419 0 449.722 0ZM534.8 61.0244C535.468 26.949 563.307 -0.222594 597.383 0.445312C630.568 0.890746 657.516 27.8397 657.962 61.0244C657.071 95.1 628.564 121.826 594.488 120.936C561.972 120.045 535.691 93.7638 534.8 61.0244ZM147.939 0.226562C155.512 0.449276 163.084 1.34039 170.656 3.12207C173.329 3.79022 173.552 4.23584 174.22 6.01758C176.224 12.9217 177.115 20.0489 177.115 27.1758C176.892 28.7345 176.001 29.4023 173.997 29.625C171.993 29.8476 171.102 29.6253 170.656 28.2891C168.429 16.2625 157.962 7.57638 145.936 7.57617C135.468 6.23987 126.114 13.8126 124.777 24.0576C124.777 24.503 124.777 25.1709 124.555 25.6162C124.555 38.9792 135.69 44.7702 150.39 49.4473C171.548 56.3515 185.356 65.0375 185.356 85.5273C185.356 106.017 169.32 120.494 141.703 120.494C131.236 120.94 120.545 118.712 110.969 114.48C108.742 113.59 107.183 111.808 106.515 109.804C104.065 102.454 102.728 94.6584 102.951 86.8633C102.951 85.5272 104.287 85.0821 105.846 84.8594C107.405 84.6367 108.518 85.0818 108.741 86.1953C113.195 97.9993 122.55 113.812 141.258 113.812C155.957 113.812 165.311 105.126 165.311 93.3223C165.311 83.3 161.748 75.0594 142.148 68.6006C122.55 62.1418 106.291 51.8968 106.291 32.0752C106.291 14.926 120.323 0.226605 147.939 0.226562ZM282.237 2.66602C283.351 2.66602 283.574 3.55725 283.797 4.89355C283.797 6.22949 283.574 7.3425 282.461 7.56543L278.674 8.01074C270.434 9.12429 268.875 9.57053 268.875 28.0557V46.3184C268.875 51.6631 269.543 53.445 271.102 54.1133C273.106 55.2269 275.333 54.3363 280.679 49.2139C287.137 42.9779 299.164 30.2834 306.068 22.4883C310.968 16.9204 314.755 12.688 314.532 10.6836C314.532 9.79285 313.863 9.3477 312.973 9.125L308.296 7.78809C307.405 7.56539 306.959 6.67497 307.182 5.11621C307.182 4.00263 307.628 2.88867 308.741 2.88867C308.785 2.89024 321.225 3.33397 327.894 3.33398C334.576 3.33398 347.049 2.88867 347.049 2.88867C348.162 2.66624 348.607 3.55741 348.83 4.89355C349.053 6.45217 348.385 7.56517 347.494 7.78809C337.472 8.67895 328.117 12.9111 320.99 20.0381C313.863 26.497 297.827 42.7554 292.928 48.1006L292.705 48.3232C291.592 49.4368 291.592 51.4412 292.705 52.5547C301.614 64.3587 323.663 92.6441 334.799 105.116C339.03 110.684 345.712 113.802 352.839 113.579C353.73 113.579 354.398 114.47 354.176 116.252C353.953 118.034 353.507 118.701 352.394 118.701C352.348 118.7 337.682 118.256 329.454 118.256C321.436 118.256 306.736 118.701 306.736 118.701C305.846 118.924 305.4 118.033 305.178 116.475C304.955 114.916 305.178 114.025 306.291 113.802L310.745 113.134C312.972 112.688 314.531 111.352 312.527 108.68C304.955 98.4347 286.915 74.8261 277.338 64.3584C275.334 62.1315 273.775 61.2404 271.77 61.6855C269.989 62.131 268.875 63.9133 268.875 66.8086V92.6436C268.875 111.129 270.434 111.575 278.674 112.688L282.461 113.134C283.574 113.134 284.02 114.471 283.797 115.807C283.797 117.143 283.351 118.033 282.237 118.033C282.139 118.03 267.066 117.588 258.853 117.588C250.612 117.588 235.467 118.033 235.467 118.033C234.354 118.256 233.908 117.143 233.908 115.807C233.908 114.47 234.131 113.357 235.244 113.134L239.03 112.688C247.271 111.575 248.83 111.129 248.83 92.6436V28.0557C248.83 9.57023 247.271 9.12433 239.03 8.01074L235.244 7.56543C234.131 7.56516 233.686 6.22961 233.908 4.89355C233.908 3.55741 234.353 2.66623 235.467 2.66602C235.467 2.66602 250.612 3.11133 258.853 3.11133C267.066 3.11133 282.14 2.66889 282.237 2.66602ZM48.3847 3.11133C49.4983 3.11133 49.9443 4.00256 49.9443 5.33887C49.9443 6.67479 49.7214 7.7878 48.6084 8.01074L44.8213 8.45605C36.5811 9.5696 35.0224 10.0158 35.0224 28.501V93.0889C35.0224 111.574 36.5811 112.02 44.8213 113.134L48.6084 113.579C49.7216 113.579 50.167 114.916 49.9443 116.252C49.9442 117.588 49.4982 118.479 48.3847 118.479C48.2896 118.476 33.2145 118.033 25 118.033C16.7594 118.033 1.61422 118.479 1.61422 118.479C0.500991 118.701 0.278308 117.588 0.0556287 116.252C0.0556287 114.916 0.278262 113.802 1.39157 113.579L5.1777 113.134C13.4182 112.02 14.9775 111.574 14.9775 93.0889V28.501C14.9775 10.0155 13.4182 9.56964 5.1777 8.45605L1.39157 8.01074C0.27831 8.01049 -0.166931 6.67493 0.0556287 5.33887C0.0556287 4.00271 0.500911 3.11153 1.61422 3.11133C1.61422 3.11133 16.7594 3.55664 25 3.55664C33.2147 3.55664 48.2905 3.1141 48.3847 3.11133ZM596.492 8.01758C572.439 8.01772 558.854 33.4077 558.853 61.0244C558.631 91.0911 575.334 113.586 596.492 113.586C617.428 113.586 634.132 91.0912 634.132 61.0244C634.132 33.1849 620.546 8.01758 596.492 8.01758Z" fill="white"/>
</svg>
