<svg width="1080" height="256" viewBox="0 0 1080 256" fill="none" xmlns="http://www.w3.org/2000/svg">
<path d="M840.064 255.223L851.179 222.222H861.448L872.562 255.223H863.757L861.699 247.973H850.928L848.869 255.223H840.064ZM856.233 229.403L852.666 241.935H859.961L856.393 229.403H856.233Z" fill="black"/>
<path d="M800.875 255.223V222.222H814.277C824.225 222.222 830.103 227.985 830.103 238.482V238.528C830.103 249.071 824.225 255.223 814.277 255.223H800.875ZM809.268 248.453H813.179C818.645 248.453 821.572 245.137 821.572 238.551V238.505C821.572 232.33 818.462 228.991 813.179 228.991H809.268V248.453Z" fill="black"/>
<path d="M755.831 255.223L766.946 222.222H777.214L788.329 255.223H779.524L777.466 247.973H766.694L764.636 255.223H755.831ZM772 229.403L768.432 241.935H775.728L772.16 229.403H772Z" fill="black"/>
<path d="M721.764 255.223V222.222H735.829C743.193 222.222 747.95 226.841 747.95 233.908V233.954C747.95 241.021 743.193 245.549 735.829 245.549H730.157V255.223H721.764ZM733.816 228.648H730.157V239.237H733.816C737.361 239.237 739.465 237.384 739.465 233.954V233.908C739.465 230.478 737.361 228.648 733.816 228.648Z" fill="black"/>
<path d="M693.163 255.817C684.564 255.817 678.961 250.946 678.961 243.513V222.222H687.354V242.713C687.354 246.555 689.412 248.865 693.186 248.865C696.937 248.865 698.995 246.555 698.995 242.713V222.222H707.388V243.513C707.388 250.923 701.831 255.817 693.163 255.817Z" fill="black"/>
<path d="M634.648 255.223V222.222H643.042V235.189H656.192V222.222H664.562V255.223H656.192V241.935H643.042V255.223H634.648Z" fill="black"/>
<path d="M594.453 255.223V222.222H609.799C616.339 222.222 620.296 225.378 620.296 230.523V230.569C620.296 234.297 617.437 237.27 613.687 237.75V237.91C618.192 238.139 621.737 241.409 621.737 245.732V245.777C621.737 251.518 617.277 255.223 610.21 255.223H594.453ZM607.58 228.145H602.846V235.783H606.963C610.325 235.783 612.109 234.32 612.109 231.85V231.804C612.109 229.517 610.416 228.145 607.58 228.145ZM607.58 241.066H602.846V249.299H607.832C611.262 249.299 613.206 247.859 613.206 245.183V245.137C613.206 242.507 611.262 241.066 607.58 241.066Z" fill="black"/>
<path d="M549.408 255.223L560.523 222.222H570.791L581.906 255.223H573.101L571.043 247.973H560.271L558.213 255.223H549.408ZM565.577 229.403L562.009 241.935H569.305L565.737 229.403H565.577Z" fill="black"/>
<path d="M510.859 255.223V222.222H525.153C533.134 222.222 537.64 226.178 537.64 233.176V233.222C537.64 237.453 535.444 241.112 532.014 242.599L538.623 255.223H529.201L523.529 243.856H519.253V255.223H510.859ZM519.253 237.773H524.215C527.188 237.773 529.087 235.989 529.087 233.199V233.153C529.087 230.386 527.12 228.557 524.17 228.557H519.253V237.773Z" fill="black"/>
<path d="M471.578 255.223V222.222H485.643C493.007 222.222 497.764 226.841 497.764 233.908V233.954C497.764 241.021 493.007 245.549 485.643 245.549H479.971V255.223H471.578ZM483.63 228.648H479.971V239.237H483.63C487.175 239.237 489.279 237.384 489.279 233.954V233.908C489.279 230.478 487.175 228.648 483.63 228.648Z" fill="black"/>
<path d="M408.064 255.223L419.179 222.222H429.448L440.562 255.223H431.757L429.699 247.973H418.928L416.869 255.223H408.064ZM424.233 229.403L420.666 241.935H427.961L424.393 229.403H424.233Z" fill="black"/>
<path d="M374.638 255.223V222.222H383.031V248.476H396.684V255.223H374.638Z" fill="black"/>
<path d="M351.869 255.223V222.222H360.262V255.223H351.869Z" fill="black"/>
<path d="M311.49 255.223V222.222H325.784C333.765 222.222 338.271 226.178 338.271 233.176V233.222C338.271 237.453 336.075 241.112 332.645 242.599L339.254 255.223H329.832L324.16 243.856H319.883V255.223H311.49ZM319.883 237.773H324.846C327.819 237.773 329.717 235.989 329.717 233.199V233.153C329.717 230.386 327.751 228.557 324.8 228.557H319.883V237.773Z" fill="black"/>
<path d="M267.178 255.223V222.222H275.571V235.189H288.721V222.222H297.091V255.223H288.721V241.935H275.571V255.223H267.178Z" fill="black"/>
<path d="M240.018 255.818C231.808 255.818 226.616 252.182 226.25 245.87L226.228 245.458H234.026L234.072 245.71C234.484 247.837 236.953 249.232 240.178 249.232C243.517 249.232 245.575 247.814 245.575 245.755V245.733C245.575 243.857 244.112 242.988 240.247 242.234L236.862 241.593C230.321 240.381 226.868 237.156 226.868 232.102V232.079C226.868 225.722 232.379 221.628 239.949 221.628C248.228 221.628 252.917 225.516 253.214 231.508L253.237 231.988H245.438L245.415 231.736C245.164 229.564 243.037 228.214 240.018 228.214C236.931 228.214 235.192 229.609 235.192 231.508V231.531C235.192 233.314 236.748 234.252 240.292 234.915L243.677 235.556C250.675 236.905 253.923 239.741 253.923 245.024V245.047C253.923 251.633 248.754 255.818 240.018 255.818Z" fill="black"/>
<path d="M964.975 199.799V166.798H973.368V199.799H964.975Z" fill="black"/>
<path d="M914.533 199.799V166.798H924.23L932.509 188.364H932.646L940.925 166.798H950.622V199.799H943.235V179.17H943.052L934.979 199.799H930.176L922.103 179.17H921.92V199.799H914.533Z" fill="black"/>
<path d="M869.488 199.799L880.603 166.798H890.871L901.986 199.799H893.181L891.123 192.549H880.351L878.293 199.799H869.488ZM885.657 173.979L882.09 186.512H889.385L885.817 173.979H885.657Z" fill="black"/>
<path d="M825.931 199.799L817.31 166.798H825.977L830.46 188.616H830.62L835.971 166.798H843.015L848.367 188.616H848.527L853.009 166.798H861.677L853.055 199.799H844.799L839.562 179.994H839.402L834.187 199.799H825.931Z" fill="black"/>
<path d="M792.253 200.393C784.043 200.393 778.852 196.757 778.486 190.445L778.463 190.033H786.261L786.307 190.285C786.719 192.412 789.189 193.807 792.413 193.807C795.752 193.807 797.811 192.389 797.811 190.331V190.308C797.811 188.433 796.347 187.563 792.482 186.809L789.097 186.168C782.557 184.956 779.103 181.732 779.103 176.677V176.655C779.103 170.297 784.615 166.203 792.185 166.203C800.464 166.203 805.152 170.091 805.449 176.083L805.472 176.563H797.673L797.651 176.312C797.399 174.139 795.272 172.79 792.253 172.79C789.166 172.79 787.428 174.185 787.428 176.083V176.106C787.428 177.89 788.983 178.827 792.528 179.49L795.912 180.131C802.911 181.48 806.158 184.316 806.158 189.599V189.622C806.158 196.208 800.99 200.393 792.253 200.393Z" fill="black"/>
<path d="M716.023 199.799L727.138 166.798H737.407L748.521 199.799H739.716L737.658 192.549H726.887L724.828 199.799H716.023ZM732.192 173.979L728.625 186.512H735.92L732.352 173.979H732.192Z" fill="black"/>
<path d="M691.86 199.799V173.544H682.758V166.798H709.332V173.544H700.23V199.799H691.86Z" fill="black"/>
<path d="M640.983 199.799V166.798H648.096L661.292 185.848H661.452V166.798H669.822V199.799H662.778L649.514 180.543H649.354V199.799H640.983Z" fill="black"/>
<path d="M595.939 199.799L607.054 166.798H617.323L628.437 199.799H619.632L617.574 192.549H606.803L604.744 199.799H595.939ZM612.108 173.979L608.541 186.512H615.836L612.268 173.979H612.108Z" fill="black"/>
<path d="M556.75 199.799V166.798H570.152C580.1 166.798 585.978 172.561 585.978 183.058V183.104C585.978 193.647 580.1 199.799 570.152 199.799H556.75ZM565.143 193.029H569.054C574.52 193.029 577.447 189.713 577.447 183.127V183.081C577.447 176.906 574.337 173.567 569.054 173.567H565.143V193.029Z" fill="black"/>
<path d="M520.03 199.799V166.798H542.648V173.544H528.423V180.062H541.802V186.374H528.423V193.052H542.648V199.799H520.03Z" fill="black"/>
<path d="M486.352 199.799L475.9 166.798H485.3L491.635 191.612H491.795L498.107 166.798H507.506L497.055 199.799H486.352Z" fill="black"/>
<path d="M454.961 199.799V166.798H463.354V199.799H454.961Z" fill="black"/>
<path d="M424.577 199.799V173.544H415.475V166.798H442.049V173.544H432.947V199.799H424.577Z" fill="black"/>
<path d="M375.667 199.799V166.798H384.06V181.32H384.22L395.335 166.798H404.323L393.025 181.389L404.986 199.799H395.129L386.896 186.786L384.06 190.468V199.799H375.667Z" fill="black"/>
<path d="M330.623 199.799L341.738 166.798H352.006L363.121 199.799H354.316L352.258 192.549H341.486L339.428 199.799H330.623ZM346.792 173.979L343.224 186.512H350.52L346.952 173.979H346.792Z" fill="black"/>
<path d="M288.141 199.799V166.798H296.534V179.765H309.684V166.798H318.054V199.799H309.684V186.512H296.534V199.799H288.141Z" fill="black"/>
<path d="M247.944 199.799V166.798H263.29C269.831 166.798 273.787 169.954 273.787 175.1V175.145C273.787 178.873 270.928 181.846 267.178 182.326V182.486C271.683 182.715 275.228 185.986 275.228 190.308V190.354C275.228 196.094 270.768 199.799 263.702 199.799H247.944ZM261.072 172.721H256.338V180.36H260.454C263.816 180.36 265.6 178.896 265.6 176.426V176.38C265.6 174.093 263.907 172.721 261.072 172.721ZM261.072 185.643H256.338V193.876H261.323C264.754 193.876 266.698 192.435 266.698 189.759V189.713C266.698 187.083 264.754 185.643 261.072 185.643Z" fill="black"/>
<path d="M214.642 200.233C212.263 200.233 210.365 198.335 210.365 195.934C210.365 193.555 212.263 191.657 214.642 191.657C217.043 191.657 218.941 193.555 218.941 195.934C218.941 198.335 217.043 200.233 214.642 200.233Z" fill="black"/>
<path d="M183.982 200.393C174.08 200.393 167.928 194.058 167.928 183.287V183.264C167.928 172.492 174.125 166.203 183.982 166.203C192.604 166.203 198.573 171.738 198.87 179.125V179.353H190.797L190.752 179.01C190.226 175.58 187.824 173.156 183.982 173.156C179.385 173.156 176.481 176.929 176.481 183.241V183.264C176.481 189.645 179.408 193.441 184.005 193.441C187.641 193.441 190.226 191.177 190.797 187.495L190.843 187.243H198.916L198.893 187.495C198.596 194.882 192.558 200.393 183.982 200.393Z" fill="black"/>
<path d="M152.866 200.233C150.487 200.233 148.589 198.335 148.589 195.934C148.589 193.555 150.487 191.657 152.866 191.657C155.267 191.657 157.165 193.555 157.165 195.934C157.165 198.335 155.267 200.233 152.866 200.233Z" fill="black"/>
<path d="M104.368 199.799L115.483 166.798H125.751L136.866 199.799H128.061L126.003 192.549H115.231L113.173 199.799H104.368ZM120.537 173.979L116.969 186.512H124.265L120.697 173.979H120.537Z" fill="black"/>
<path d="M1059.05 144.375V111.374H1080V115.788H1064.17V125.416H1079.15V129.716H1064.17V139.961H1080V144.375H1059.05Z" fill="black"/>
<path d="M1031.23 144.924C1021.87 144.924 1015.93 138.337 1015.93 127.863V127.84C1015.93 117.366 1021.87 110.825 1031.23 110.825C1038.5 110.825 1043.97 115.308 1045 121.826L1045.04 122.031H1039.96L1039.83 121.574C1038.73 117.709 1035.66 115.353 1031.23 115.353C1025.1 115.353 1021.16 120.202 1021.16 127.84V127.863C1021.16 135.502 1025.12 140.396 1031.23 140.396C1035.62 140.396 1038.66 138.109 1039.9 133.924L1039.96 133.718H1045.04L1045.02 133.946C1043.99 140.51 1038.52 144.924 1031.23 144.924Z" fill="black"/>
<path d="M975.755 144.375L987.761 111.374H993.296L1005.28 144.375H999.905L996.887 135.456H984.171L981.129 144.375H975.755ZM990.483 116.84L985.543 131.339H995.491L990.574 116.84H990.483Z" fill="black"/>
<path d="M940.064 144.375V111.374H952.872C959.618 111.374 963.872 115.285 963.872 121.482V121.528C963.872 126.011 961.425 129.578 957.468 130.928L964.855 144.375H958.955L952.231 131.705H945.187V144.375H940.064ZM945.187 127.497H952.368C956.325 127.497 958.589 125.325 958.589 121.574V121.528C958.589 117.869 956.165 115.674 952.231 115.674H945.187V127.497Z" fill="black"/>
<path d="M911.464 144.924C902.018 144.924 896.072 138.337 896.072 127.726V127.703C896.072 117.297 902.018 110.825 911.395 110.825C919.125 110.825 923.973 115.285 925.346 121.231L925.437 121.643H920.177L920.108 121.391C918.713 117.572 915.717 115.353 911.418 115.353C905.106 115.353 901.287 119.95 901.287 127.68V127.703C901.287 135.593 905.22 140.396 911.509 140.396C916.861 140.396 920.566 137.011 920.634 132.003V131.454H911.967V127.269H925.689V130.653C925.689 139.595 920.406 144.924 911.464 144.924Z" fill="black"/>
<path d="M842.805 144.375V111.374H863.753V115.788H847.928V125.416H862.907V129.716H847.928V139.961H863.753V144.375H842.805Z" fill="black"/>
<path d="M800.413 144.375V111.374H805.147L822.116 135.776H822.254V111.374H827.331V144.375H822.62L805.627 119.927H805.49V144.375H800.413Z" fill="black"/>
<path d="M779.84 144.375V111.374H784.963V144.375H779.84Z" fill="black"/>
<path d="M749.409 144.375L737.654 111.374H743.166L752.177 138.68H752.291L761.302 111.374H766.813L755.058 144.375H749.409Z" fill="black"/>
<path d="M719.527 144.375V111.374H724.65V144.375H719.527Z" fill="black"/>
<path d="M678.005 144.375V111.374H689.646C699.434 111.374 705.266 117.389 705.266 127.772V127.817C705.266 138.246 699.48 144.375 689.646 144.375H678.005ZM683.128 139.938H689.165C696.163 139.938 700.028 135.662 700.028 127.863V127.817C700.028 120.065 696.118 115.788 689.165 115.788H683.128V139.938Z" fill="black"/>
<path d="M632.559 144.924C625.149 144.924 620.255 141.402 619.843 135.593L619.82 135.25H624.806L624.852 135.547C625.309 138.589 628.351 140.487 632.765 140.487C637.178 140.487 639.969 138.498 639.969 135.41V135.387C639.969 132.734 638.162 131.294 633.794 130.333L630.203 129.578C623.731 128.206 620.598 125.233 620.598 120.339V120.316C620.621 114.69 625.583 110.825 632.559 110.825C639.443 110.825 644.154 114.576 644.497 120.11L644.52 120.499H639.534L639.511 120.179C639.054 117.114 636.401 115.262 632.49 115.262C628.396 115.285 625.789 117.229 625.789 120.11V120.133C625.789 122.603 627.665 124.113 631.781 125.004L635.395 125.759C642.21 127.2 645.137 129.967 645.137 135.067V135.09C645.137 141.105 640.38 144.924 632.559 144.924Z" fill="black"/>
<path d="M600.732 144.375V111.374H605.855V144.375H600.732Z" fill="black"/>
<path d="M558.113 144.375V111.374H563.236V125.325H580.183V111.374H585.305V144.375H580.183V129.761H563.236V144.375H558.113Z" fill="black"/>
<path d="M496.68 144.375L508.686 111.374H514.221L526.205 144.375H520.83L517.811 135.456H505.096L502.054 144.375H496.68ZM511.408 116.84L506.468 131.339H516.416L511.499 116.84H511.408Z" fill="black"/>
<path d="M473.636 144.375V130.859L462.019 111.374H467.713L476.129 125.942H476.289L484.705 111.374H490.4L478.759 130.859V144.375H473.636Z" fill="black"/>
<path d="M427.563 144.375V111.374H440.371C447.117 111.374 451.371 115.285 451.371 121.482V121.528C451.371 126.011 448.924 129.578 444.967 130.928L452.354 144.375H446.454L439.73 131.705H432.686V144.375H427.563ZM432.686 127.497H439.867C443.824 127.497 446.088 125.325 446.088 121.574V121.528C446.088 117.869 443.664 115.674 439.73 115.674H432.686V127.497Z" fill="black"/>
<path d="M401.135 108.698H397.59L401.432 101.746H406.143L401.135 108.698ZM385.012 144.375L397.018 111.374H402.553L414.537 144.375H409.162L406.143 135.456H393.428L390.386 144.375H385.012ZM399.74 116.84L394.8 131.34H404.748L399.831 116.84H399.74Z" fill="black"/>
<path d="M360.047 144.924C350.693 144.924 344.747 138.337 344.747 127.863V127.84C344.747 117.366 350.693 110.825 360.047 110.825C367.319 110.825 372.785 115.308 373.814 121.826L373.86 122.031H368.783L368.646 121.574C367.548 117.709 364.484 115.353 360.047 115.353C353.918 115.353 349.984 120.202 349.984 127.84V127.863C349.984 135.502 353.941 140.396 360.047 140.396C364.438 140.396 367.48 138.109 368.715 133.924L368.783 133.718H373.86L373.837 133.946C372.808 140.51 367.342 144.924 360.047 144.924Z" fill="black"/>
<path d="M320.697 108.698H317.153L320.995 101.746H325.706L320.697 108.698ZM304.574 144.375L316.581 111.374H322.115L334.099 144.375H328.725L325.706 135.456H312.99L309.949 144.375H304.574ZM319.302 116.84L314.362 131.34H324.311L319.394 116.84H319.302Z" fill="black"/>
<path d="M277.918 133.214V128.755H292.623V133.214H277.918Z" fill="black"/>
<path d="M240.077 144.375V111.374H252.884C259.631 111.374 263.885 115.285 263.885 121.482V121.528C263.885 126.011 261.437 129.578 257.481 130.928L264.868 144.375H258.968L252.244 131.705H245.2V144.375H240.077ZM245.2 127.497H252.381C256.338 127.497 258.602 125.325 258.602 121.574V121.528C258.602 117.869 256.177 115.674 252.244 115.674H245.2V127.497Z" fill="black"/>
<path d="M204.501 144.375V111.374H225.45V115.788H209.624V125.416H224.603V129.716H209.624V139.961H225.45V144.375H204.501Z" fill="black"/>
<path d="M162.979 144.375V111.374H174.619C184.407 111.374 190.239 117.389 190.239 127.772V127.817C190.239 138.246 184.453 144.375 174.619 144.375H162.979ZM168.101 139.938H174.139C181.137 139.938 185.002 135.662 185.002 127.863V127.817C185.002 120.065 181.091 115.788 174.139 115.788H168.101V139.938Z" fill="black"/>
<path d="M120.588 144.375V111.374H125.322L142.291 135.776H142.428V111.374H147.506V144.375H142.794L125.802 119.927H125.665V144.375H120.588Z" fill="black"/>
<path d="M91.8036 144.924C83.5248 144.924 78.4248 140.007 78.4248 132.78V111.374H83.5476V132.368C83.5476 137.171 86.5436 140.396 91.8036 140.396C97.0636 140.396 100.037 137.171 100.037 132.368V111.374H105.137V132.78C105.137 140.007 100.105 144.924 91.8036 144.924Z" fill="black"/>
<path d="M48.7031 144.924C39.1893 144.924 33.2432 138.383 33.2432 127.886V127.84C33.2432 117.366 39.2122 110.825 48.7031 110.825C58.2169 110.825 64.163 117.389 64.163 127.84V127.886C64.163 138.36 58.2398 144.924 48.7031 144.924ZM48.7031 140.396C55.038 140.396 58.9259 135.502 58.9259 127.886V127.84C58.9259 120.179 54.9694 115.353 48.7031 115.353C42.4597 115.353 38.4575 120.156 38.4575 127.84V127.886C38.4575 135.57 42.4368 140.396 48.7031 140.396Z" fill="black"/>
<path d="M0 144.375V111.374H20.6056V115.788H5.12282V126.239H19.302V130.562H5.12282V144.375H0Z" fill="black"/>
<path d="M966.182 89.4769C959.184 89.4769 954.427 85.932 954.015 80.3518L953.992 80.0317H957.125L957.148 80.3518C957.606 84.1482 961.128 86.5724 966.342 86.5724C971.51 86.5724 974.849 84.1253 974.849 80.3061V80.2832C974.849 77.0357 972.791 75.229 967.714 74.0855L964.101 73.2851C957.697 71.8443 954.815 69.0771 954.815 64.3888V64.3659C954.838 59.1287 959.527 55.4238 966.067 55.4238C972.425 55.4238 977.045 59.1287 977.434 64.5488L977.457 64.869H974.323L974.301 64.5717C973.82 60.7067 970.641 58.3283 965.976 58.3283C961.219 58.3283 957.994 60.7296 957.994 64.2744V64.3202C957.994 67.3847 960.144 69.26 964.924 70.312L968.537 71.1353C975.307 72.6447 978.051 75.2748 978.051 80.146V80.1689C978.051 85.8177 973.431 89.4769 966.182 89.4769Z" fill="black"/>
<path d="M929.782 89.4769C922.784 89.4769 918.027 85.932 917.616 80.3518L917.593 80.0317H920.726L920.749 80.3518C921.206 84.1482 924.728 86.5724 929.942 86.5724C935.111 86.5724 938.45 84.1253 938.45 80.3061V80.2832C938.45 77.0357 936.392 75.229 931.315 74.0855L927.701 73.2851C921.298 71.8443 918.416 69.0771 918.416 64.3888V64.3659C918.439 59.1287 923.127 55.4238 929.668 55.4238C936.026 55.4238 940.645 59.1287 941.034 64.5488L941.057 64.869H937.924L937.901 64.5717C937.421 60.7067 934.242 58.3283 929.577 58.3283C924.82 58.3283 921.595 60.7296 921.595 64.2744V64.3202C921.595 67.3847 923.745 69.26 928.525 70.312L932.138 71.1353C938.907 72.6447 941.652 75.2748 941.652 80.146V80.1689C941.652 85.8177 937.032 89.4769 929.782 89.4769Z" fill="black"/>
<path d="M885.081 88.9512V55.9502H905.001V58.786H888.191V70.6554H904.154V73.4455H888.191V86.1154H905.001V88.9512H885.081Z" fill="black"/>
<path d="M843.834 88.9512V55.9502H846.921L866.315 83.6683H866.429V55.9502H869.517V88.9512H866.429L847.036 61.2331H846.921V88.9512H843.834Z" fill="black"/>
<path d="M818.023 89.4769C811.024 89.4769 806.268 85.932 805.856 80.3518L805.833 80.0317H808.966L808.989 80.3518C809.446 84.1482 812.968 86.5724 818.183 86.5724C823.351 86.5724 826.69 84.1253 826.69 80.3061V80.2832C826.69 77.0357 824.632 75.229 819.555 74.0855L815.941 73.2851C809.538 71.8443 806.656 69.0771 806.656 64.3888V64.3659C806.679 59.1287 811.367 55.4238 817.908 55.4238C824.266 55.4238 828.886 59.1287 829.274 64.5488L829.297 64.869H826.164L826.141 64.5717C825.661 60.7067 822.482 58.3283 817.817 58.3283C813.06 58.3283 809.835 60.7296 809.835 64.2744V64.3202C809.835 67.3847 811.985 69.26 816.765 70.312L820.378 71.1353C827.148 72.6447 829.892 75.2748 829.892 80.146V80.1689C829.892 85.8177 825.272 89.4769 818.023 89.4769Z" fill="black"/>
<path d="M779.153 89.4772C771.218 89.4772 766.369 84.6288 766.369 77.4249V55.9502H769.479V77.2419C769.479 82.845 773.093 86.5728 779.153 86.5728C785.214 86.5728 788.781 82.845 788.781 77.2419V55.9502H791.915V77.4249C791.915 84.6288 787.089 89.4772 779.153 89.4772Z" fill="black"/>
<path d="M737.151 89.4769C727.934 89.4769 722.148 82.9132 722.148 72.4618V72.416C722.148 62.0103 727.957 55.4238 737.151 55.4238C746.345 55.4238 752.131 62.0103 752.131 72.416V72.4618C752.131 82.9132 746.367 89.4769 737.151 89.4769ZM737.151 86.5724C744.424 86.5724 748.929 81.0379 748.929 72.4618V72.416C748.929 63.7941 744.355 58.3283 737.151 58.3283C729.924 58.3283 725.327 63.7713 725.327 72.416V72.4618C725.327 81.1065 729.901 86.5724 737.151 86.5724Z" fill="black"/>
<path d="M704.822 88.9512V55.9502H707.933V88.9512H704.822Z" fill="black"/>
<path d="M677.662 89.4769C668.606 89.4769 662.751 82.776 662.751 72.4389V72.416C662.751 62.056 668.56 55.4238 677.662 55.4238C684.5 55.4238 689.554 59.6319 690.789 65.8067L690.835 66.0354H687.702L687.565 65.6237C686.307 61.1641 682.808 58.3283 677.662 58.3283C670.527 58.3283 665.953 63.8399 665.953 72.416V72.4389C665.953 80.9922 670.572 86.5724 677.662 86.5724C682.785 86.5724 686.261 83.7594 687.633 79.0711L687.702 78.8653H690.835L690.789 79.094C689.554 85.3146 684.523 89.4769 677.662 89.4769Z" fill="black"/>
<path d="M638.267 89.4769C631.269 89.4769 626.512 85.932 626.1 80.3518L626.077 80.0317H629.21L629.233 80.3518C629.691 84.1482 633.213 86.5724 638.427 86.5724C643.595 86.5724 646.934 84.1253 646.934 80.3061V80.2832C646.934 77.0357 644.876 75.229 639.799 74.0855L636.186 73.2851C629.782 71.8443 626.9 69.0771 626.9 64.3888V64.3659C626.923 59.1287 631.612 55.4238 638.152 55.4238C644.51 55.4238 649.13 59.1287 649.519 64.5488L649.541 64.869H646.408L646.385 64.5717C645.905 60.7067 642.726 58.3283 638.061 58.3283C633.304 58.3283 630.079 60.7296 630.079 64.2744V64.3202C630.079 67.3847 632.229 69.26 637.009 70.312L640.622 71.1353C647.392 72.6447 650.136 75.2748 650.136 80.146V80.1689C650.136 85.8177 645.516 89.4769 638.267 89.4769Z" fill="black"/>
<path d="M586.43 88.9512V55.9502H589.517L608.911 83.6683H609.025V55.9502H612.112V88.9512H609.025L589.631 61.2331H589.517V88.9512H586.43Z" fill="black"/>
<path d="M557.212 89.4769C547.995 89.4769 542.209 82.9132 542.209 72.4618V72.416C542.209 62.0103 548.018 55.4238 557.212 55.4238C566.405 55.4238 572.191 62.0103 572.191 72.416V72.4618C572.191 82.9132 566.428 89.4769 557.212 89.4769ZM557.212 86.5724C564.484 86.5724 568.989 81.0379 568.989 72.4618V72.416C568.989 63.7941 564.415 58.3283 557.212 58.3283C549.985 58.3283 545.388 63.7713 545.388 72.416V72.4618C545.388 81.1065 549.962 86.5724 557.212 86.5724Z" fill="black"/>
<path d="M516.376 89.4769C507.319 89.4769 501.465 82.776 501.465 72.4389V72.416C501.465 62.056 507.274 55.4238 516.376 55.4238C523.214 55.4238 528.268 59.6319 529.503 65.8067L529.549 66.0354H526.416L526.278 65.6237C525.021 61.1641 521.522 58.3283 516.376 58.3283C509.241 58.3283 504.667 63.8399 504.667 72.416V72.4389C504.667 80.9922 509.286 86.5724 516.376 86.5724C521.499 86.5724 524.975 83.7594 526.347 79.0711L526.416 78.8653H529.549L529.503 79.094C528.268 85.3146 523.237 89.4769 516.376 89.4769Z" fill="black"/>
<path d="M442.891 88.9512L455.332 55.9502H458.419L470.837 88.9512H467.544L463.862 78.8428H449.889L446.207 88.9512H442.891ZM456.841 59.7694L450.872 76.1442H462.879L456.91 59.7694H456.841Z" fill="black"/>
<path d="M404.204 88.9512V55.9502H407.292L426.685 83.6683H426.799V55.9502H429.887V88.9512H426.799L407.406 61.2331H407.292V88.9512H404.204Z" fill="black"/>
<path d="M363.094 88.9512V55.9502H366.204V70.6326H385.506V55.9502H388.639V88.9512H385.506V73.4684H366.204V88.9512H363.094Z" fill="black"/>
<path d="M337.282 89.4769C330.284 89.4769 325.527 85.932 325.116 80.3518L325.093 80.0317H328.226L328.249 80.3518C328.706 84.1482 332.228 86.5724 337.442 86.5724C342.611 86.5724 345.95 84.1253 345.95 80.3061V80.2832C345.95 77.0357 343.892 75.229 338.815 74.0855L335.201 73.2851C328.798 71.8443 325.916 69.0771 325.916 64.3888V64.3659C325.939 59.1287 330.627 55.4238 337.168 55.4238C343.526 55.4238 348.145 59.1287 348.534 64.5488L348.557 64.869H345.424L345.401 64.5717C344.921 60.7067 341.742 58.3283 337.077 58.3283C332.32 58.3283 329.095 60.7296 329.095 64.2744V64.3202C329.095 67.3847 331.245 69.26 336.025 70.312L339.638 71.1353C346.407 72.6447 349.152 75.2748 349.152 80.146V80.1689C349.152 85.8177 344.532 89.4769 337.282 89.4769Z" fill="black"/>
<path d="M308.041 88.9512V55.9502H311.151V88.9512H308.041Z" fill="black"/>
<path d="M271.367 88.9512V55.9502H283.008C289.457 55.9502 293.574 59.7237 293.574 65.6012V65.647C293.574 70.2895 290.898 73.7886 286.507 74.9321L294.511 88.9512H290.852L283.259 75.4352C283.076 75.4352 282.802 75.4352 282.596 75.4352H274.477V88.9512H271.367ZM274.477 72.668H282.756C287.536 72.668 290.349 70.1066 290.349 65.7156V65.6698C290.349 61.3246 287.422 58.7403 282.642 58.7403H274.477V72.668Z" fill="black"/>
<path d="M234.831 88.9512V55.9502H237.941V73.1254H238.079L253.356 55.9502H257.289L244.185 70.5411L258.638 88.9512H254.636L241.989 72.7594L237.941 77.1733V88.9512H234.831Z" fill="black"/>
<path d="M179.185 88.9512V55.9502H190.825C197.275 55.9502 201.391 59.7237 201.391 65.6012V65.647C201.391 70.2895 198.715 73.7886 194.324 74.9321L202.329 88.9512H198.67L191.077 75.4352C190.894 75.4352 190.619 75.4352 190.414 75.4352H182.295V88.9512H179.185ZM182.295 72.668H190.574C195.353 72.668 198.166 70.1066 198.166 65.7156V65.6698C198.166 61.3246 195.239 58.7403 190.459 58.7403H182.295V72.668Z" fill="black"/>
<path d="M149.966 89.4769C140.75 89.4769 134.964 82.9132 134.964 72.4618V72.416C134.964 62.0103 140.773 55.4238 149.966 55.4238C159.16 55.4238 164.946 62.0103 164.946 72.416V72.4618C164.946 82.9132 159.183 89.4769 149.966 89.4769ZM149.966 86.5724C157.239 86.5724 161.744 81.0379 161.744 72.4618V72.416C161.744 63.7941 157.17 58.3283 149.966 58.3283C142.74 58.3283 138.143 63.7713 138.143 72.416V72.4618C138.143 81.1065 142.717 86.5724 149.966 86.5724Z" fill="black"/>
<path d="M102.635 88.9512V55.9502H122.28V58.786H105.745V71.1814H120.931V73.9715H105.745V88.9512H102.635Z" fill="black"/>
<path d="M943.953 33.5274V19.2567L932.106 0.526367H935.697L945.439 16.1921H945.577L955.319 0.526367H958.91L947.063 19.2567V33.5274H943.953Z" fill="black"/>
<path d="M907.21 33.5274V3.36221H896.324V0.526367H921.252V3.36221H910.343V33.5274H907.21Z" fill="black"/>
<path d="M863.927 33.5274V0.526367H883.846V3.36221H867.037V15.2316H883V18.0217H867.037V30.6915H883.846V33.5274H863.927Z" fill="black"/>
<path d="M845.274 33.5274V0.526367H848.385V33.5274H845.274Z" fill="black"/>
<path d="M818.114 34.053C809.058 34.053 803.203 27.3522 803.203 17.0151V16.9922C803.203 6.63222 809.012 0 818.114 0C824.952 0 830.006 4.20803 831.241 10.3829L831.287 10.6116H828.154L828.017 10.1999C826.759 5.7403 823.26 2.90446 818.114 2.90446C810.979 2.90446 806.405 8.41606 806.405 16.9922V17.0151C806.405 25.5684 811.025 31.1486 818.114 31.1486C823.237 31.1486 826.713 28.3356 828.085 23.6473L828.154 23.4415H831.287L831.241 23.6702C830.006 29.8907 824.975 34.053 818.114 34.053Z" fill="black"/>
<path d="M775.311 34.053C766.095 34.053 760.309 27.4894 760.309 17.0379V16.9922C760.309 6.58648 766.118 0 775.311 0C784.505 0 790.291 6.58648 790.291 16.9922V17.0379C790.291 27.4894 784.528 34.053 775.311 34.053ZM775.311 31.1486C782.584 31.1486 787.089 25.6141 787.089 17.0379V16.9922C787.089 8.37032 782.515 2.90446 775.311 2.90446C768.084 2.90446 763.487 8.34745 763.487 16.9922V17.0379C763.487 25.6827 768.061 31.1486 775.311 31.1486Z" fill="black"/>
<path d="M735.824 34.053C728.826 34.053 724.069 30.5082 723.658 24.928L723.635 24.6078H726.768L726.791 24.928C727.248 28.7244 730.77 31.1486 735.984 31.1486C741.153 31.1486 744.492 28.7015 744.492 24.8823V24.8594C744.492 21.6119 742.434 19.8052 737.357 18.6617L733.743 17.8613C727.34 16.4205 724.458 13.6532 724.458 8.96493V8.94206C724.481 3.7049 729.169 0 735.71 0C742.068 0 746.687 3.7049 747.076 9.12502L747.099 9.4452H743.966L743.943 9.14789C743.463 5.28291 740.284 2.90446 735.619 2.90446C730.862 2.90446 727.637 5.30578 727.637 8.85058V8.89632C727.637 11.9609 729.787 13.8362 734.566 14.8882L738.18 15.7115C744.949 17.2209 747.694 19.8509 747.694 24.7222V24.745C747.694 30.3939 743.074 34.053 735.824 34.053Z" fill="black"/>
<path d="M672.837 33.5274V0.526367H675.947V30.6915H692.482V33.5274H672.837Z" fill="black"/>
<path d="M631.909 33.5274L644.35 0.526367H647.438L659.856 33.5274H656.563L652.881 23.419H638.907L635.225 33.5274H631.909ZM645.86 4.34561L639.891 20.7203H651.897L645.928 4.34561H645.86Z" fill="black"/>
<path d="M593.223 33.5274V0.526367H596.31L615.704 28.2445H615.818V0.526367H618.905V33.5274H615.818L596.424 5.80927H596.31V33.5274H593.223Z" fill="black"/>
<path d="M564.004 34.053C554.788 34.053 549.002 27.4894 549.002 17.0379V16.9922C549.002 6.58648 554.811 0 564.004 0C573.198 0 578.984 6.58648 578.984 16.9922V17.0379C578.984 27.4894 573.221 34.053 564.004 34.053ZM564.004 31.1486C571.277 31.1486 575.782 25.6141 575.782 17.0379V16.9922C575.782 8.37032 571.208 2.90446 564.004 2.90446C556.778 2.90446 552.181 8.34745 552.181 16.9922V17.0379C552.181 25.6827 556.755 31.1486 564.004 31.1486Z" fill="black"/>
<path d="M531.676 33.5274V0.526367H534.786V33.5274H531.676Z" fill="black"/>
<path d="M504.31 33.5274V3.36221H493.424V0.526367H518.352V3.36221H507.443V33.5274H504.31Z" fill="black"/>
<path d="M459.38 33.5274L471.821 0.526367H474.908L487.327 33.5274H484.033L480.351 23.419H466.378L462.696 33.5274H459.38ZM473.33 4.34561L467.361 20.7203H479.368L473.399 4.34561H473.33Z" fill="black"/>
<path d="M420.693 33.5274V0.526367H423.781L443.174 28.2445H443.289V0.526367H446.376V33.5274H443.289L423.895 5.80927H423.781V33.5274H420.693Z" fill="black"/>
<path d="M384.02 33.5274V0.526367H395.66C402.109 0.526367 406.226 4.29987 406.226 10.1774V10.2231C406.226 14.8657 403.55 18.3648 399.159 19.5082L407.164 33.5274H403.505L395.912 20.0114C395.729 20.0114 395.454 20.0114 395.249 20.0114H387.13V33.5274H384.02ZM387.13 17.2441H395.409C400.188 17.2441 403.001 14.6827 403.001 10.2917V10.246C403.001 5.90075 400.074 3.31647 395.294 3.31647H387.13V17.2441Z" fill="black"/>
<path d="M349.403 33.5274V0.526367H369.323V3.36221H352.514V15.2316H368.477V18.0217H352.514V30.6915H369.323V33.5274H349.403Z" fill="black"/>
<path d="M322.037 33.5274V3.36221H311.151V0.526367H336.079V3.36221H325.171V33.5274H322.037Z" fill="black"/>
<path d="M272.122 33.5274V0.526367H275.209L294.603 28.2445H294.717V0.526367H297.805V33.5274H294.717L275.324 5.80927H275.209V33.5274H272.122Z" fill="black"/>
<path d="M253.47 33.5274V0.526367H256.58V33.5274H253.47Z" fill="black"/>
<path d="M199.882 33.5274V0.526367H219.801V3.36221H202.992V15.2316H218.955V18.0217H202.992V30.6915H219.801V33.5274H199.882Z" fill="black"/>
<path d="M158.771 33.5274V0.526367H161.881V15.2087H181.183V0.526367H184.316V33.5274H181.183V18.0446H161.881V33.5274H158.771Z" fill="black"/>
<path d="M131.405 33.5274V3.36221H120.519V0.526367H145.447V3.36221H134.538V33.5274H131.405Z" fill="black"/>
</svg>
