<svg width="1080" height="1080" viewBox="0 0 1080 1080" fill="none" xmlns="http://www.w3.org/2000/svg">
<path d="M586.386 1077.97C594.642 1077.24 603.114 1076.5 611.536 1075.2C828.033 1046.4 1005.82 889.895 1061.89 678.746C1117.96 467.597 1041.26 243.453 867.598 110.957C694.088 -21.69 457.783 -36.7022 268.904 72.9221C80.0262 182.546 -24.2146 395.211 4.80403 611.719C43.1365 897.529 299.184 1102.8 586.386 1077.97ZM1052.26 483.641C1082.85 762.024 885.58 1013.87 608.054 1050.76C401.543 1078.31 198.762 978.739 94.2214 798.46C-10.3188 618.181 3.95752 392.672 130.396 227.037C213.109 118.156 335.935 46.91 471.491 29.182C479.545 28.1305 487.439 27.2232 495.523 26.5158C774.436 2.25521 1021.67 205.257 1052.26 483.641ZM989.415 327.631C898.244 129.651 688.614 14.3394 472.658 43.379C219.967 77.3972 33.9785 297.135 42.1061 552.063L42.1958 554.667C42.7948 570.288 44.4914 585.848 47.2735 601.231C60.7636 703.154 105.692 798.334 175.802 873.513C178.613 876.821 181.605 879.971 184.764 882.949C285.868 986.19 426.919 1040.25 571.096 1031.01C570.5 1030.28 569.802 1029.64 569.025 1029.11C564.391 1026.51 562.129 1021.07 563.546 1015.95C561.379 1016.92 561.099 1020.15 559.464 1018.78C557.829 1017.4 555.67 1014 556.284 1012.6C559.323 1006.27 557.234 1001.69 553.21 996.762C548.672 990.396 543.589 984.437 538.017 978.954C526.169 969.51 515.475 958.702 506.156 946.755C498.752 936.838 493.066 925.774 486.097 915.385C483.273 911.302 479.718 907.284 476.894 903.201C473.847 897.236 469.726 891.886 464.735 887.421C461.269 884.71 458.347 881.365 456.125 877.566C454.909 875.568 453.832 873.459 452.775 871.329L451.91 869.584C448.642 862.988 445.228 856.437 438.059 852.647C436.893 852.186 435.983 850.188 436.712 850.124C440.23 849.252 438.938 847.85 437.131 846.493C433.965 844.053 432.891 839.756 434.535 836.112C435.059 833.225 435.369 830.303 435.458 827.371C437.446 828.323 439.541 828.53 439.722 830.592C440.714 837.476 445.095 829.169 446.877 832.218C449.58 830.466 447.577 829.341 446.467 827.534C440.382 818.771 433.391 810.676 425.611 803.379C410.997 789.699 397.598 774.775 385.565 758.776C381.023 752.376 375.766 746.211 371.591 739.562C366.995 732.04 355.911 726.558 362.629 714.799C362.67 714.612 362.653 714.417 362.58 714.24C360.404 711.065 360.835 706.783 363.599 704.106C364.912 702.057 365.11 699.486 364.125 697.261C362.563 693.501 363.126 689.192 365.604 685.961C368.157 682.49 365.48 680.082 363.031 680.296C358.554 681.078 354.848 677.809 351.111 678.135C345.45 678.241 343.609 676.497 344.267 671.156C344.398 670.28 344.112 669.392 343.494 668.757C341.409 666.688 325.215 665.636 323.926 668.217C321.924 672.283 319.179 672.441 316.275 672.246L315.728 672.206C315.546 672.192 315.363 672.177 315.179 672.163L314.629 672.122C313.801 672.066 312.968 672.033 312.147 672.106C312.072 671.259 312.255 670.354 312.464 669.464L312.59 668.931C313.029 667.078 313.374 665.349 311.473 664.413C308.488 662.943 307.512 666.622 305.738 668.119C302.049 671.473 298.657 675.753 293.104 675.113C291.216 675.062 289.327 675.228 287.477 675.606C284.351 674.841 282.727 676.502 281.259 678.261L280.893 678.701C280.288 679.433 279.691 680.148 279.004 680.677C275.224 683.476 270.516 683.108 266.696 684.958C251.662 692.725 236.817 700.648 222.235 709.113C215.42 712.631 209.123 717.072 203.521 722.311C202.815 723.378 201.712 724.118 200.457 724.367C199.201 724.614 197.9 724.35 196.841 723.631C196.229 723.27 195.829 722.636 195.768 721.928C195.705 721.22 195.989 720.526 196.529 720.064C197.85 718.709 199.019 717.196 200.163 715.658L200.922 714.63C203.702 710.859 206.491 707.112 211.124 705.322C216.726 702.87 221.874 699.492 226.352 695.329C229.409 692.765 231.036 688.88 230.72 684.901C230.488 682.237 232.864 676.746 237.16 676.371C250.715 675.964 262.539 669.604 275.23 666.242C279.462 665.135 284.06 659.797 282.969 655.736C282.131 652.619 278.634 652.617 275.111 652.954L274.471 653.018L273.835 653.086C273.2 653.156 272.575 653.225 271.975 653.277C270.698 653.669 269.393 653.972 268.072 654.181C260.374 655.245 253.786 659.589 246.605 662.121C243.108 663.207 238.04 666.638 236.031 662.484C234.023 658.329 239.191 655.062 242.238 653.281C253.239 646.906 259.842 635.806 269.39 628.173C274.4 624.097 277.146 616.886 282.138 613.592C290.004 608.07 298.249 603.109 306.81 598.746C309.703 597.388 312.55 595.877 315.39 594.331L317.519 593.167L318.94 592.389C319.177 592.259 319.413 592.129 319.651 592.001L321.074 591.228C331.52 585.583 342.23 580.543 355.124 582.006C360.996 581.968 366.844 581.267 372.558 579.917C373.059 579.873 373.622 579.966 374.173 580.078L374.472 580.14C376.257 580.517 377.797 580.872 376.64 577.092C376.327 575.993 379.72 575.697 378.562 573.33C375.554 573.593 370.753 577.087 371.441 569.623C371.242 567.345 368.871 567.943 366.98 568.108C365.338 568.136 363.63 568.627 361.908 569.095L361.218 569.28C357.997 570.127 354.748 570.669 351.799 567.747C350.986 566.866 350.461 567.302 350.123 567.894C347.545 573.056 343.324 573.724 338.913 573.926L338.176 573.957C337.931 573.966 337.684 573.974 337.438 573.983L336.699 574.008C335.222 574.061 333.75 574.138 332.339 574.387C331.244 574.547 330.272 574.074 329.292 573.57L328.84 573.337C327.324 572.567 325.742 571.938 323.616 573.634C317.465 578.056 309.688 579.558 302.333 577.748C295.675 576.206 288.677 577.428 282.934 581.133C276.846 585.26 269.001 584.648 262.667 589.921C256.826 594.162 249.822 596.499 242.605 596.612C241.101 596.35 239.556 596.753 238.374 597.719C232.197 604.798 222.906 606.953 215.832 612.681C214.122 614.036 212.27 615.288 210.416 616.537L209.027 617.476C205.564 619.827 202.213 622.256 199.892 625.42C195.11 632.256 189.247 638.268 182.534 643.22C178.161 646.714 174.308 650.812 171.089 655.392C169.54 657.29 168.288 659.379 167.059 661.465L166.323 662.715C164.354 666.039 162.304 669.263 159.046 671.601C151.908 676.598 147.933 685.086 139.126 688.325C138.699 688.493 138.442 689.175 138.202 689.909L138.042 690.401C137.936 690.727 137.826 691.043 137.699 691.307L137.342 692.1L136.805 693.291C134.23 698.988 131.392 704.605 124.201 705.739L122.312 705.904C122.468 705.717 122.806 705.125 122.806 705.125C119.2 701.496 117.559 696.355 118.394 691.309C119.456 685.295 121.721 679.559 125.056 674.445L128.841 668.225C129.687 667.025 130.55 665.997 131.412 664.969C135.143 660.47 138.148 655.415 140.316 649.987C140.774 649.067 141.068 648.075 141.186 647.053C149.952 632.474 158.53 618.214 167.687 603.643C172.535 595.93 176.815 587.829 181.034 579.695L183.843 574.271C186.654 568.85 189.487 563.449 192.495 558.174C200.898 548.162 208.317 537.362 214.648 525.925C216.601 522.507 220.264 520.844 221.005 516.449C221.034 516.32 221.022 516.185 220.971 516.063C230.642 501.924 240.273 487.832 249.819 473.746C255.332 465.513 261.193 456.816 269.839 451.73C279.376 445.96 301.287 443.091 309.692 452.573C310.014 452.816 310.29 453.115 310.505 453.456C311.657 459.864 315.974 465.254 321.973 467.78C326.029 469.114 333.179 466.236 336.562 470.271C339.944 474.305 335.81 478.997 335.799 483.327C335.866 483.661 336.099 483.938 336.418 484.059C336.736 484.181 337.094 484.13 337.366 483.926C339.24 482.72 340.533 483.942 341.715 485.277L342.051 485.66C342.662 486.36 343.256 487.031 343.899 487.339C344.863 487.748 345.944 487.792 346.94 487.462C348.231 487.046 349.737 485.343 351.298 483.557L351.97 482.79C353.095 481.515 354.236 480.285 355.336 479.539C356.684 479.278 358.078 479.412 359.351 479.924C359.738 479.891 359.738 479.891 359.738 479.891L360.048 480.086C360.653 480.498 361.173 481.023 361.579 481.634C362.254 482.918 362.753 484.173 363.429 485.457C364.126 487.01 365.148 488.398 366.424 489.524C368.683 491.578 372.042 490.895 374.318 493.164C375.996 495.6 377.072 498.4 377.457 501.332C378.665 504.258 379.898 507.96 383.389 508.78C386.655 509.223 389.887 507.763 391.717 505.021C394.271 502.546 396.097 499.182 399.933 499.972C402.789 500.459 404.154 503.197 407.053 503.679C411.044 504.282 412.132 501.373 411.834 497.978C411.399 493.069 408.447 488.738 404.038 486.537C401.314 485.086 395.899 484.045 394.872 480.714C392.993 474.08 399.884 472.698 405.158 472.626C406.358 473.474 407.557 474.321 408.972 475.15C411.562 477.045 414.255 477.156 413.269 481.226C413.319 481.784 412.069 482.846 412.118 483.405C411.739 484.455 411.841 485.618 412.397 486.585C413.112 487.308 413.866 487.994 414.654 488.639C417.556 491.632 416.512 494.538 414.311 497.589C411.739 500.192 411.611 504.34 414.018 507.097C416.529 510.081 418.97 507.789 421.707 506.424C429.906 502.676 433.349 511.857 436.496 517.644L430.194 519.321C429.655 519.585 429.316 520.178 429.365 520.735C431.311 524.51 435.014 524.803 438.829 524.731L439.568 524.713L440.308 524.691L441.044 524.67C442.514 524.632 443.952 524.63 445.264 524.844C448.019 525.025 450.668 525.979 452.907 527.596C455.971 529.969 455.323 533.447 454.656 536.709C453.772 539.021 453.735 541.57 454.55 543.906C455.329 545.513 456.827 546.652 458.584 546.974C461.272 547.518 461.95 546.852 464.088 549.524C464.729 550.42 464.624 551.208 465.247 551.89C465.87 552.572 466.222 552.15 466.815 552.489C468.481 552.741 469.948 553.724 470.815 555.17C471.254 555.866 471.761 556.518 472.326 557.116C474.199 558.962 476.543 560.255 479.103 560.853C479.363 560.943 479.648 560.922 479.891 560.794C480.134 560.667 480.314 560.443 480.386 560.178C480.516 559.487 480.453 558.774 480.206 558.115C480.369 557.812 480.337 557.44 480.123 557.17C477.299 553.087 478.145 551.887 482.975 553.154C486.629 551.881 488.009 552.323 486.893 554.889L486.883 554.849C486.819 554.75 486.497 556.115 486.495 556.719L486.499 556.829C486.266 557.452 486.326 558.147 486.665 558.72C487.336 559.96 489.824 560.695 491.156 560.578C492.694 560.748 494.206 560.08 495.116 558.828C496.026 557.576 496.196 555.932 495.56 554.52C494.926 553.196 494.178 551.929 493.325 550.732C492.42 549.296 490.293 542.295 494.308 542.679C495.253 542.597 496.971 544.914 497.999 545.777C499.027 546.64 500.256 547.831 501.456 548.678C503.708 550.17 507.389 551.191 508.801 548.036C509.596 546.234 508.358 542.965 508.193 541.074C508.328 538.625 507.785 536.185 506.623 534.024C505.718 532.587 505.409 533.005 503.386 531.666C502.071 530.794 502.308 531.953 502.148 531.548L502.107 531.435C502.002 531.135 501.781 530.442 501.248 528.995C500.059 526.285 499.936 526.858 500.873 524.698C501.317 523.819 501.686 522.903 501.975 521.96C502.927 517.504 498.967 513.304 495.344 510.979C494.349 510.323 493.286 509.777 492.171 509.352V509.29C492.189 509.024 492.477 509.114 491.55 508.67C490.555 508.195 490.383 508.21 489.826 508.258L489.906 508.07C490.373 507.229 492.034 506.85 492.446 505.561C493.186 501.506 491.409 497.405 487.945 495.173C484.386 493.579 481.068 496.727 477.773 498.141C477.28 496.218 475.968 494.607 474.184 493.736C471.757 492.216 465.671 487.466 465.408 484.458C464.889 482.988 465.58 481.975 465.062 480.505C464.788 479.666 464.397 478.869 463.902 478.138C463.614 476.483 463.718 474.784 464.204 473.175C464.508 472.197 465.527 470.982 465.43 469.864C465.427 469.149 464.891 468.545 464.181 468.458L463.065 468.556C461.561 468.687 461.9 468.615 460.499 467.437C459.097 466.261 457.256 466.985 457.437 469.048C457.74 470.492 458.183 471.904 458.758 473.263C457.633 472.589 456.368 472.182 455.061 472.071C452.941 471.946 451.016 473.299 450.412 475.335C450.202 476.032 450.608 477.625 451.06 479.226L451.27 479.962C451.756 481.666 452.193 483.221 451.865 483.522C450.462 484.813 449.696 480.507 448.309 479.502C446.923 478.498 445.487 479.403 444.048 480.265C440.49 482.655 440.656 484.545 439.636 488.228C438.913 490.426 437.584 492.374 435.8 493.846C435.357 493.874 434.957 494.121 434.732 494.502C433.449 495.178 432.253 494.374 431.569 491.013C431.529 489.561 431.591 488.109 431.752 486.666C431.225 483.118 428.473 481.844 425.672 480.011C423.725 478.844 421.85 477.563 420.055 476.172C418.192 474.58 416.883 472.434 416.317 470.048C416.049 469.465 415.289 469.185 415.255 468.798C414.768 467.509 414.926 466.063 415.682 464.91C416.436 463.756 417.697 463.034 419.074 462.965C422.265 462.339 424.735 462.859 423.371 466.573C422.4 468.322 422.102 470.365 422.532 472.318C423.48 476.219 428.204 480.742 432.251 477.53C434.568 475.812 433.409 473.446 434.717 471.079C436.025 468.713 436.914 469.978 438.473 468.499C438.857 468.25 439.157 467.892 439.336 467.471C439.507 467.377 439.71 467.358 439.894 467.422C440.683 467.526 440.55 468.49 441.544 468.966C442.538 469.443 443.889 469.541 444.33 468.159C444.772 466.779 442.966 465.421 441.956 464.774C440.741 464.06 439.426 463.534 438.054 463.21C437.805 462.842 437.446 462.7 437.026 462.347C433.498 460.379 430.569 457.494 428.548 453.996C431.293 454.011 433.963 454.9 436.171 456.533C437.168 457.052 437.638 457.963 439.123 457.617C440.607 457.27 440.995 455.765 441.109 454.585C441.122 454.447 441.126 454.241 441.128 453.989L441.129 452.851C441.142 450.7 441.308 447.575 442.997 447.968C444.112 450.182 444.956 452.522 445.51 454.937C445.755 457.73 443.037 456.841 442.101 459.002C441.957 459.257 441.952 459.569 442.089 459.828C442.225 460.086 442.484 460.259 442.776 460.285C443.779 460.53 444.757 461.461 445.781 462.46L446.193 462.861C447.989 464.605 449.948 466.302 452.427 464.723C453.691 463.833 453.593 462.717 453.462 461.212C453.088 459.663 453.081 458.048 453.438 456.494C454.268 454.808 455.342 453.256 456.628 451.886C456.917 450.735 457.104 450.891 457.573 451.803C458.042 452.714 458.106 453.445 458.796 454.9C459.487 456.355 460.206 458.154 460.881 459.437C461.557 460.721 462.764 463.646 464.332 464.245C466.865 465.495 467.614 463.178 467.821 461.082C469.148 461.15 470.478 461.034 471.773 460.736C471.945 460.721 472.282 460.129 472.249 459.742C471.151 457.586 472.136 455.984 475.232 454.761L476.447 455.781C477.823 456.761 479.119 457.85 480.325 459.035C480.514 459.272 480.809 459.399 481.112 459.373C481.414 459.346 481.682 459.17 481.828 458.904C484.743 458.086 486.123 458.528 486.27 460.203L486.319 460.762C486.353 461.149 486.383 461.493 486.417 461.88C486.727 462.38 487.15 462.803 487.651 463.114C488.467 463.331 489.333 463.255 490.099 462.899C490.819 462.421 491.631 462.099 492.484 461.954C492.674 462.154 492.105 464.067 492.139 464.453C492.177 464.805 492.344 465.129 492.609 465.365C493.091 465.7 493.517 466.554 493.966 467.482L494.134 467.832C495.188 470.004 496.421 472.274 498.827 469.151C499.244 468.348 499.548 467.49 499.73 466.604C499.976 462.988 502.39 462.387 506.556 464.49C506.606 465.049 506.639 465.436 506.688 465.995C507.997 468.188 508.79 470.651 509.007 473.196C509.291 474.82 510.158 476.283 511.444 477.312C513.202 478.111 513.506 477.133 514.961 476.442C517.484 475.096 515.225 473.041 522.381 474.667C521.654 474.532 524.585 475.861 524.61 475.69L524.595 475.662L524.719 475.784C525.892 477.035 525.369 478.117 524.281 479.096L524.122 479.234L522.956 478.774L520.796 477.837C519.49 477.38 518.051 477.507 516.845 478.183C515.863 478.888 515.569 480.22 516.163 481.273C516.475 481.71 516.892 482.06 517.377 482.293C517.625 482.661 518.184 482.611 518.356 482.597C518.528 482.582 519.086 482.532 519.086 482.532C519.321 483.248 519.933 483.802 519.997 484.531C519.933 484.716 519.952 484.919 520.046 485.09C519.719 485.526 519.3 485.992 518.867 486.475L518.578 486.799C516.887 488.704 515.265 490.81 518.421 492.248C521.173 493.522 525.209 490.181 528.109 490.664C532.505 491.448 530.164 494.857 528.62 496.508C527.075 498.158 525.508 500.028 523.979 501.85C523.807 502.037 523.722 502.288 523.744 502.541C523.766 502.795 523.894 503.027 524.096 503.182C524.954 503.939 526.077 504.323 527.219 504.251C529.874 504.408 531.094 503.522 532.674 506.241C532.977 506.997 533.36 507.718 533.815 508.393C534.25 508.918 535.161 508.449 535.196 508.836C537.907 511.629 536.775 511.555 536.618 514.21C536.214 516.539 537.76 518.76 540.083 519.189C543.98 520.191 547.826 514.182 550.552 519.615C550.629 519.899 550.843 520.123 551.122 520.213C551.401 520.303 551.707 520.245 551.933 520.058C552.86 519.491 553.637 518.709 554.2 517.781L554.386 517.765C554.563 517.75 554.759 517.732 554.759 517.732C555.502 517.025 556.541 516.725 557.546 516.926C557.732 517.083 558.324 517.42 558.324 517.42L559.352 518.283C559.897 519.228 560.616 520.062 561.472 520.739C562.079 521.249 563.954 520.912 564.749 521.577C565.542 522.244 565.296 525.86 565.971 527.144C566.617 528.295 567.552 529.257 568.682 529.937C571.503 531.985 573.121 526.734 573.244 536.553C573.311 537.326 572.817 538.105 572.899 539.051C572.934 539.985 573.271 540.882 573.859 541.608C574.672 542.49 575.412 542.036 576.176 542.358C580.648 544.268 579.44 546.001 577.637 548.06L577.369 548.364C577.28 548.465 577.188 548.568 577.097 548.672L576.822 548.986C576.503 549.356 576.189 549.737 575.903 550.132C574.765 551.963 571.497 555.67 573.367 557.759C574.195 558.812 576.258 558.631 577.203 558.549L579.485 558.912C579.518 560.351 579.644 561.787 579.861 563.209C578.683 563.739 577.46 564.165 576.206 564.482C572.409 566.588 571.345 571.748 569.767 575.48C569.433 576.115 570.099 576.793 570.829 576.729C573.827 576.857 576.619 576.613 579.453 576.365C582.492 575.709 585.626 575.626 588.696 576.119C591.279 576.75 593.017 579.172 592.787 581.823C592.885 582.94 592.484 582.802 592.968 583.886C593.215 584.594 593.66 585.215 594.25 585.678C596.487 586.998 598.926 584.706 600.503 583.442C604.221 580.624 607.556 577.334 610.426 573.655C611.644 572.25 611.856 570.715 613.057 569.094C614.518 567.21 617.168 566.735 619.194 567.995C619.595 568.133 619.987 568.662 620.374 568.627C621.537 569.168 622.782 569.513 624.056 569.648C627.57 569.776 630.728 571.83 632.272 574.991C633.45 577.573 632.059 578.993 631.887 581.476C631.538 583.025 632.304 584.611 633.736 585.298C636.473 586.401 638.059 584.746 638.996 582.586L639.094 583.704C639.103 583.959 639.221 584.198 639.417 584.362C639.612 584.527 639.869 584.601 640.122 584.567C643.68 586.16 644.787 587.925 643.062 589.981L643.078 590.248C643.103 591.152 642.783 591.236 642.841 591.906C643.126 592.747 643.731 593.441 644.526 593.836C645.896 594.67 648.747 594.593 648.574 597.076C648.473 597.588 648.179 597.984 647.858 598.366L647.536 598.747C647.11 599.261 646.736 599.813 646.81 600.651C646.868 601.398 647.281 602.07 647.92 602.459C648.556 602.794 648.727 602.778 649.285 602.73L651.954 603.059C653.736 603.57 654.856 605.331 654.565 607.161C654.592 608.298 654.115 609.394 653.555 610.474L653.245 611.062C652.197 613.018 651.128 614.939 652.567 616.991C652.816 617.359 653.175 617.501 653.595 617.854C654.546 618.769 655.704 619.439 656.97 619.811C659.955 621.281 659.254 624.156 657.53 626.212L656.971 626.262C655.574 627.121 651.824 627.795 653.051 630.934C654.278 634.075 659.335 631.511 661.072 631.575C661.393 631.587 661.674 631.582 661.912 631.58L662.177 631.579C662.994 631.587 663.136 631.76 662.569 633.349C662.179 634.366 661.618 635.309 660.908 636.136C659.973 637.441 659.446 638.994 659.395 640.599C659.443 641.157 659.707 641.697 660.437 641.633C662.327 641.468 669.866 639.076 666.998 645.388C666.538 646.555 665.221 646.844 664.574 647.853C662.554 650.497 664.864 653.153 662.645 655.989C662.581 656.174 662.6 656.376 662.694 656.548C662.48 656.742 662.362 657.022 662.372 657.312C662.478 658.898 663.386 660.32 664.779 661.085C667.687 662.508 670.07 664.816 671.589 667.677C673.453 671.67 674.211 676.367 677.883 679.25C679.911 680.641 682.266 681.48 684.718 681.682C686.809 681.847 691.085 680.736 692.858 681.707C694.613 682.553 693.967 684.445 693.214 686.493L692.999 687.082C692.391 688.756 691.855 690.478 692.612 691.773C692.755 692.075 693.059 692.267 693.392 692.269C694.68 692.155 695.922 695.467 697.985 695.287C698.882 695.182 699.716 694.772 700.35 694.128C700.709 695.598 701.285 697.007 702.058 698.308C700.771 701.896 698.284 704.928 695.017 706.891C692.86 707.211 690.876 708.256 689.39 709.852C686.283 712.938 681.785 715.453 680.667 709.1C680.545 708.229 680.479 707.31 680.412 706.379L680.355 705.578C680.112 702.372 679.677 699.141 676.779 697.316C676.572 697.111 676.286 697.009 675.997 697.035C675.708 697.06 675.444 697.211 675.275 697.448C670.453 707.136 671.779 717.844 674.169 727.854C669.082 728.082 667.663 738.079 663.464 739.572C663.607 736.745 663.55 734.109 663.688 731.239C663.688 730.963 663.578 730.698 663.382 730.505C663.187 730.31 662.921 730.202 662.645 730.204C660.225 730.243 659.96 731.175 658.613 733.588C657.266 736.001 655.591 736.148 653.034 737.108C652.136 737.213 651.301 737.622 650.668 738.266C649.693 740.073 649.886 742.287 651.161 743.896C651.81 744.753 652.396 745.657 652.912 746.601C652.264 747.61 651.589 748.794 650.941 749.804C650.555 749.838 650.383 749.853 649.996 749.886C648.381 749.668 646.779 749.36 645.198 748.964C644.156 748.964 643.132 749.248 642.239 749.786C641.7 750.049 641.171 750.442 640.819 750.862C640.466 751.283 639.923 751.503 639.57 751.925C638.524 750.847 637.309 749.828 636.266 748.793C636.131 747.246 639.805 743.72 640.651 742.52C642.205 740.479 643.685 738.098 645.008 735.904C649.791 727.994 653.571 719.517 656.262 710.672C656.566 709.692 654.965 708.707 654.503 709.873C652.355 715.993 650.101 722.382 643.915 725.392C643.474 725.594 643.271 726.108 643.454 726.558C644.461 728.981 643.696 731.777 641.597 733.351C639.498 734.924 636.6 734.872 634.558 733.225C632.857 731.815 631.372 730.165 630.147 728.328C627.556 725.011 624.501 722.085 621.076 719.639C620.465 719.086 619.573 719.77 619.637 720.501C619.662 723.927 620.885 727.236 623.095 729.854C624.161 730.92 625.318 731.891 626.552 732.755C627.337 733.27 628.08 733.841 628.78 734.466L629.216 734.991C628.607 736.979 627.897 738.935 627.087 740.849C622.15 742.797 620.701 732.661 618.919 729.613C617.874 727.635 616.217 726.048 614.194 725.09C612.1 724.319 609.753 724.74 608.057 726.191C606.837 727.077 605.836 728.506 604.569 729.354C600.988 731.962 598.236 730.686 595.014 728.501C592.764 727.009 587.603 721.962 584.038 722.273C585.009 720.5 586.207 721.348 587.629 720.27C588.782 719.503 589.276 718.057 588.835 716.745C588.752 715.799 587.739 715.108 587.675 714.377C586.96 712.741 587.326 710.832 588.597 709.578C589.101 709.953 589.636 710.282 590.198 710.562C591.306 711.89 592.146 713.42 592.671 715.066C592.763 715.387 593.03 715.626 593.358 715.68C593.687 715.735 594.018 715.594 594.208 715.321C596.105 713.25 597.905 716.513 599.835 714.829C600.763 713.995 600.886 712.583 600.115 711.6C598.124 708.138 592.875 708.986 590.411 706.56C591.504 704.214 592.772 703.366 594.512 703.95C595.257 704.058 596.079 704.55 596.81 704.485C597.856 704.624 598.891 704.853 599.899 705.168C602.532 705.723 605.127 706.45 607.664 707.346C610.043 708.307 613.02 712.16 615.438 711.602C617.857 711.045 620.543 705.137 621.509 703.321C622.477 701.504 623.833 699.696 622.536 697.732C621.895 696.835 620.916 696.531 620.293 695.849C617.19 692.527 620.286 688.835 622.29 686.019C623.919 683.842 625.707 681.79 627.639 679.878C628.517 679.022 630.853 677.519 631.294 676.138C631.633 675.545 631.179 674.806 631.129 674.247C630.934 672.013 627.22 674.59 631.14 669.917C632.045 669.031 633.172 668.41 634.402 668.116C638.493 667.368 640.777 671.714 644.465 670.829C644.72 670.819 644.96 670.701 645.124 670.506C645.289 670.31 645.362 670.054 645.328 669.801C644.891 666.869 642.858 664.426 640.055 663.464C639.233 662.973 635.339 663.487 634.904 662.962C633.842 661.713 638.722 654.661 639.354 653.48C639.527 653.293 639.612 653.042 639.59 652.788C639.568 652.535 639.44 652.303 639.238 652.148C636.861 650.785 634.004 650.544 631.433 651.489C627.901 652.187 625.483 652.745 625.107 648.448C624.887 645.874 624.849 643.287 624.992 640.708C627.324 639.161 629.948 636.507 629.396 634.65C630.276 634.466 631.136 634.202 631.968 633.862C636.067 635.775 634.776 636.553 633.405 637.208L633.073 637.365C632.526 637.626 632.036 637.879 631.957 638.192C631.578 638.835 631.387 639.573 631.408 640.32C631.573 642.21 634.036 644.636 635.127 646.228L640.949 654.379C645.613 660.207 654.579 660.765 657.487 652.933C658.72 651.699 659.46 649.772 658.055 648.553C656.651 647.333 654.892 649.003 653.726 648.542C650.803 647.282 654.862 646.191 655.387 645.755C656.102 645.157 656.568 644.313 656.695 643.39C656.846 642.641 656.005 641.935 655.383 641.253L655.769 641.219C657.07 640.759 657.092 639.025 656.436 637.957C655.971 637.185 655.337 636.529 654.58 636.04C653.735 635.187 652.841 634.384 651.902 633.634C651.066 632.97 650.927 633.372 649.949 633.068C646.457 632.248 647.844 630.784 646.532 628.647C645.876 627.579 644.901 627.318 644.02 628.131C641.992 625.445 639.246 623.389 636.098 622.199C637.875 620.745 639.18 618.336 636.247 617.466C635.151 617.221 634.037 617.791 633.596 618.825C633.243 619.245 633.697 619.985 632.816 620.798C631.935 621.611 631.995 617.839 631.912 616.893C631.589 615.189 631.203 615.223 629.988 614.204C628.976 613.233 628.056 612.168 627.243 611.023C625.436 607.198 632.3 605.991 629.303 601.923C628.49 601.042 628.202 602.192 627.076 600.213C626.626 599.516 626.96 598.88 626.509 598.184C625.827 597.536 624.901 597.208 623.963 597.281C621.85 597.657 619.708 597.844 617.563 597.841C615.931 597.504 614.32 597.081 612.734 596.574C609.671 595.717 609.574 594.599 608.028 592.267C607.709 591.599 607.276 590.991 606.746 590.474C603.945 588.641 601.554 591.49 601.783 594.112C601.733 599.962 606.385 596.741 608.216 600.347C608.906 601.802 608.77 602.724 610.218 603.939C610.811 604.278 611.507 603.827 611.927 604.179C612.949 605.444 613.824 606.82 614.537 608.281C614.57 608.668 614.028 608.888 614.061 609.275C614.036 610.966 613.199 610.303 614.711 612.249C616.223 614.196 618.285 614.015 618.563 617.195C618.748 618.97 617.999 620.712 616.584 621.799C615.17 622.885 613.293 623.159 611.627 622.522C611.207 622.168 610.477 622.232 610.51 622.619C609.633 623.649 609.602 625.154 610.436 626.22C611.094 626.824 611.839 627.328 612.644 627.715C613.633 628.641 614.783 629.377 616.037 629.887C617.184 630.132 617.335 629.383 618.452 629.286C621.582 628.449 622.576 628.925 624.177 629.911C624.7 630.233 625.511 630.206 626.304 630.221L626.601 630.23C628.122 630.29 629.435 630.691 628.324 634.267C628.195 634.236 628.059 634.248 627.938 634.301L621.603 639.575C621.383 639.778 621.151 639.975 620.914 640.167L619.466 641.309L618.776 641.9C617.174 643.383 618.027 644.218 615.383 642.197C612.739 640.177 613.954 641.196 615.154 639.576C615.714 638.802 615.899 637.816 615.655 636.891C615.569 636.526 615.285 636.24 614.919 636.153C614.555 636.066 614.173 636.192 613.93 636.479C609.104 641.664 608.781 629.569 604.246 631.654C602.632 632.39 603.013 633.346 603.493 634.462L603.632 634.785C603.7 634.948 603.767 635.115 603.827 635.284C604.814 637.667 604.09 638.293 603.154 640.453L602.003 642.632C601.563 644.532 599.701 644.523 597.072 642.674C596.754 641.013 598.871 639.485 598.724 637.81C598.259 634.472 592.657 635.743 590.831 634.17C589.005 632.598 589.705 629.722 587.684 628.383C586.612 627.669 585.262 627.513 584.055 627.965C582.52 628.464 581.115 629.298 579.94 630.404C577.383 632.817 573.619 633.438 570.424 631.972C569.09 631.142 567.554 630.692 565.982 630.672C565.423 630.72 565.037 630.755 564.478 630.803C563.475 631.651 562.048 631.776 560.913 631.116C559.257 631.561 557.517 630.769 556.766 629.226C554.29 627.149 552.281 625.462 548.951 626.489C548.794 626.676 548.423 626.883 548.457 627.269C548.343 629.537 549.232 631.74 550.888 633.292C551.511 633.973 553.641 634.567 554.075 635.091C556.014 637.952 551.857 637.926 550.774 638.411C548.352 639.39 545.653 639.425 543.207 638.51C542.334 638.291 541.438 638.179 540.538 638.18C538.89 638.078 537.366 639.052 536.766 640.589C536.399 640.837 536.463 641.568 536.496 641.955C534.056 646.715 534.895 643.437 533.22 643.584C532.489 643.648 531.853 643.314 531.124 643.378C529.506 643.705 528.219 644.928 527.806 646.526C526.311 651.203 532.615 658.445 534.832 662.019C537.047 665.121 539.788 667.812 542.929 669.969C543.9 670.609 544.794 671.36 545.593 672.205C546.984 674.368 547.076 677.121 545.829 679.372C545.526 680.351 544.614 680.821 544.713 681.937C544.231 684.838 546.541 687.494 547.853 689.63C549.825 692.878 551.606 695.927 553.407 699.19C558.036 706.579 561.994 714.719 566.932 721.691C570.12 725.959 575.647 730.758 581.44 729.689C582.553 729.695 583.549 729.001 583.929 727.955C585.423 729.687 586.861 731.292 588.34 732.852L584.824 733.722C584.437 733.757 583.908 734.149 583.942 734.536C583.638 737.982 586.447 739.425 589.627 739.148C590.448 739.178 591.271 739.105 592.075 738.933C595.468 741.104 595.919 741.801 593.2 740.913C591.585 740.858 589.982 740.62 588.42 740.206C585.652 739.875 582.863 739.743 580.075 739.81C579.565 739.876 579.19 740.324 579.212 740.838C580.036 747.78 584.623 752.706 588.681 758.022C591.954 778.873 604.017 796.006 616.251 812.938L617.636 814.854L619.712 817.727C623.851 823.476 627.917 829.239 631.572 835.154C639.671 847.93 646.641 861.388 652.405 875.375C653.511 879.666 656.733 883.092 660.947 884.457C662.8 884.839 664.727 884.531 666.369 883.593C667.17 883.005 667.938 882.373 668.67 881.702L670.758 879.831L675.43 883.753C675.527 884.869 674.4 886.83 674.131 888.196C673.984 889.203 673.942 890.223 674.006 891.238C674.067 893.796 674.611 896.32 675.609 898.675C677.679 903.475 680.632 907.842 684.311 911.553C687.049 913.986 689.558 916.665 691.807 919.557C694.035 921.268 693.236 923.026 689.631 924.857L686.173 924.424C684.093 923.644 682.268 922.305 680.9 920.555C678.384 917.528 676.649 911.055 672.765 909.706C671.282 909.337 669.712 909.596 668.425 910.421C667.138 911.247 666.247 912.566 665.962 914.067C665.447 918.259 667.008 922.438 670.144 925.263C677.856 933.249 690.364 933.236 699.097 940.05C702.645 942.461 704.946 946.316 705.386 950.584C705.047 954.279 704.412 957.939 703.487 961.532C703.324 966.093 708.102 966.281 710.497 967.933C712.893 969.586 717.473 973.948 720.355 970.276C720.921 969.6 721.197 968.726 721.12 967.849C721.043 966.97 720.621 966.158 719.944 965.592L719.91 965.205C719.721 963.458 719.756 961.695 720.014 959.956C722.33 949.318 725.273 948.325 730.201 944.3C732.398 942.498 733.855 939.951 734.294 937.144C737.967 936.087 742.114 937.975 745.451 935.041C746.468 934.167 747.064 932.899 747.087 931.556C747.11 930.214 746.559 928.926 745.572 928.017C742.89 925.566 740.377 927.519 738.29 929.39C734.659 932.912 733.552 931.146 729.782 931.087C727.33 930.93 724.886 931.474 722.734 932.657C722.193 932.92 722.243 933.478 722.292 934.037C723.561 936.037 724.405 938.278 724.772 940.618C724.449 941.07 724.02 941.434 723.523 941.68C718.006 945.41 706.961 938.41 704.422 933.132C702.352 928.767 704.047 926.367 705.376 922.267C706.156 920.93 706.16 919.277 705.387 917.936C704.937 917.239 704.154 916.702 703.703 916.006C702.868 914.129 702.369 912.121 702.232 910.072C702.008 908.709 701.368 907.45 700.401 906.465C699.569 905.832 698.51 905.578 697.483 905.768C695.765 905.918 696.587 906.409 695.117 906.927C691.635 908.185 690.015 906.984 687.895 904.529C685.73 902.117 684.019 899.332 682.848 896.31C681.632 893.401 682.316 890.044 684.574 887.846C685.068 889.601 686.764 890.738 688.575 890.526C690.586 889.973 692.682 889.789 694.76 889.985C697.474 890.51 698.421 892.402 699.295 894.408L699.669 895.272C699.964 895.943 700.279 896.608 700.674 897.218C701.624 899.358 703.749 900.734 706.089 900.728C712.637 900.372 708.913 891.951 707.304 888.888C705.984 886.359 705.101 883.625 704.692 880.803C704.672 878.94 704.26 877.102 703.484 875.41C702.86 874.358 702.012 873.457 701.003 872.769C700.964 871.474 700.212 870.306 699.048 869.735C700.045 867.63 699.976 865.172 698.86 863.127C698.694 862.796 698.341 862.601 697.973 862.633C697.604 862.665 697.292 862.919 697.185 863.273C694.753 868.036 689.547 870.707 684.26 869.903C684.898 868.306 686.747 866.907 688.775 865.53L689.388 865.118C693.186 862.577 697.245 860.055 695.029 856.448C693.904 854.467 691.627 854.667 689.222 854.877C686.816 855.088 686.365 856.859 687.351 852.789C687.953 850.302 687.837 850.142 688.148 850.132H688.244C688.46 850.132 688.834 850.119 689.551 849.739C690.912 849.255 692.194 848.574 693.357 847.717C695.135 845.407 695.837 842.444 695.286 839.582C695.105 837.519 694.136 832.884 692.551 832.07C690.965 831.256 689.74 832.1 688.911 833.514C687.254 836.344 686.505 838.661 682.768 838.988C680.455 839.11 678.139 838.861 675.907 838.246C677.058 837.635 678.14 836.901 679.134 836.059C680.307 834.613 680.367 830.842 682.987 830.612C683.31 830.675 683.643 830.559 683.855 830.306C684.067 830.053 684.124 829.705 684.006 829.397C680.284 821.45 681.12 812.116 686.197 804.957C686.754 804.147 687.435 803.34 688.148 802.52L688.626 801.972C691.271 798.945 694.054 795.697 692.414 791.424C692.323 791.103 692.054 790.864 691.726 790.81C691.397 790.755 691.066 790.895 690.877 791.169C689.395 793.191 687.646 795.005 685.678 796.56C684.638 797.476 683.413 798.159 682.088 798.562C680.634 795.977 682.311 794.464 684.173 792.895L684.605 792.532C685.758 791.557 686.894 790.529 687.327 789.184C687.996 786.441 686.208 782.83 683.373 783.079C683.074 781.632 682.57 780.334 682.439 778.83C682.449 778.414 682.27 778.016 681.955 777.747C680.927 776.884 679.784 778.672 678.453 778.789C677.819 778.836 677.192 778.625 676.714 778.205C675.162 776.697 674.733 774.373 675.644 772.41C676.636 770.613 677.967 769.027 679.564 767.737C681.135 765.911 683.218 763.997 685.134 762.141C686.135 760.822 687.612 759.946 689.249 759.702C690.557 759.804 691.738 760.437 693.069 760.32C693.627 760.271 693.455 760.287 694.573 760.189C695.69 760.091 696.395 761.718 695.952 763.099C695.51 764.48 694.457 765.308 694.187 766.674C693.982 768.956 694.887 771.197 696.619 772.697C698.2 774.891 700.303 776.657 702.739 777.833C705.293 779.057 708.35 778.398 710.174 776.23C711.515 774.251 711.068 771.606 711.817 769.288C713.093 765.451 717.086 763.223 721.021 764.153C726.083 765.616 725.079 769.471 726.756 773.307C728.622 777.002 731.158 780.319 734.235 783.088C738.466 787.877 742.109 793.155 745.089 798.809C746.246 800.94 747.359 803.112 748.468 805.291L749.577 807.473C753.093 814.38 756.713 821.262 761.762 827.097C762.099 827.65 762.607 828.075 763.209 828.313C764.418 828.771 765.629 827.754 765.898 826.389C766.038 825.11 765.79 823.82 765.184 822.685C761.199 813.819 756.269 805.409 750.481 797.601C745.891 790.636 743.405 782.495 743.321 774.153C743.227 765.819 747.323 760.081 751.918 754.044L752.688 753.035C754.751 750.333 756.87 747.539 758.725 744.401C762.552 738.177 763.57 730.51 766.594 724.011C768.943 718.696 772.745 714.163 775.513 709.201C778.078 704.035 780.143 698.635 781.678 693.074C786.217 678.171 790.98 663.336 795.573 648.559C798.564 639.204 799.879 622.072 810.493 617.723L812.334 616.999C828.923 622.562 833.635 600.717 837.595 589.589L837.562 589.202C839.764 590.135 842.188 590.139 843.749 592.644C842.993 593.61 842.386 594.685 841.951 595.832C840.416 600.275 839.164 604.81 838.204 609.41C836.846 613.686 835.532 617.957 833.816 622.091C833.335 623.337 832.736 624.589 832.109 625.845L831.729 626.598C828.993 632.007 826.029 637.501 829.767 643.099C834.549 650.258 843.238 654.087 850.744 657.761C858.532 661.385 866.527 664.546 874.687 667.227C878.123 669.04 881.674 670.625 885.318 671.969C888.441 673.038 896.506 676.663 899.014 672.676C900.156 670.887 899.32 667.757 899.154 665.866C898.975 661.796 899.183 657.718 899.777 653.687C901.008 650.938 902.263 647.971 903.366 645.233L903.43 645.964C903.754 649.069 904.863 652.042 906.652 654.602C911.737 663.25 910.833 672.205 913.331 681.469C913.948 683.55 914.763 685.566 915.763 687.492C917.582 690.969 919.011 694.438 914.475 696.524C912.306 697.45 910.943 697.223 909.635 699.589C908.577 702.595 908.665 705.887 909.882 708.833C911.297 714.122 908.787 717.589 906.714 722.1C904.98 726.02 905.132 731.721 909.623 733.58L909.715 734.7C909.984 738.435 909.864 742.188 909.359 745.901C909.042 750.691 908.664 755.271 908.344 760.019C907.596 768.787 906.863 777.728 905.747 786.745C904.707 796.304 903.281 805.896 901.469 815.524C900.366 824.477 898.138 833.256 894.838 841.651C893.001 844.562 891.615 847.735 890.727 851.06C889.784 855.127 890.698 859.636 889.144 863.149C887.59 866.663 884.798 869.375 883.204 872.935C882.721 873.797 882.35 874.717 882.102 875.673C879.143 878.963 875.234 881.772 874.107 886.201C873.813 887.36 871.657 891.147 869.452 895.297L868.962 896.224C866.026 901.812 863.242 907.747 864.903 908.656C866.612 907.752 868.175 906.593 869.537 905.221C1031.95 759.919 1080.58 525.612 989.415 327.631ZM673.858 841.065L674.026 841.444C674.655 842.967 674.988 844.598 675.005 846.248C674.323 849.339 672.682 849.873 669.896 848.211C669.504 847.683 669.402 846.523 668.952 845.826C668.26 844.993 667.263 844.472 666.184 844.379C666.454 843.013 666.965 842.405 669.634 842.735C671.386 842.972 672.042 844.04 673.619 842.776C673.884 842.455 673.99 842.032 673.908 841.625C673.814 841.454 673.794 841.25 673.858 841.065ZM658.03 842.711C658.637 843.058 659.088 843.623 659.294 844.289C659.853 845.545 660.523 846.747 661.297 847.881C661.125 847.896 660.772 848.316 660.772 848.316C657.12 851.104 658.352 845.887 658.129 843.828L658.03 842.711ZM652.528 802.578C655.775 800.605 659.265 797.442 663.299 798.041C666.618 799.004 669.165 801.674 669.971 805.035C671.094 807.884 671.598 810.939 671.448 813.999C671.945 816.784 671.144 819.645 669.27 821.767C668.761 822.374 666.181 823.553 665.367 822.671C665.279 821.46 665.363 820.244 665.613 819.056C665.978 814.305 667.715 808.437 663.774 804.451C661.412 802.089 657.636 801.93 655.085 804.086C654.848 804.312 654.728 804.633 654.756 804.959C654.784 805.285 654.959 805.58 655.232 805.761C657.894 807.997 657.639 809.534 655.019 809.763C654.104 810.713 652.695 810.992 651.487 810.463C649.967 810.289 648.478 809.909 647.059 809.334C644.541 808.413 642.099 807.295 639.755 805.989C639.529 805.827 639.219 805.854 639.024 806.053C638.991 805.667 638.942 805.108 638.908 804.721C643.557 805.715 648.41 804.952 652.528 802.578ZM640.201 808.116L640.705 808.369C642.267 809.154 644.241 810.17 646.339 810.999L645.996 810.913C645.031 810.724 643.733 810.838 642.741 810.924L642.78 810.878C641.67 810.228 640.772 809.268 640.201 808.116ZM671.481 741.641C671.671 739.373 672.97 738.871 675.368 740.566C675.855 740.418 676.367 740.373 676.872 740.434C677.408 741.745 678.026 743.022 678.722 744.256L678.691 744.411C678.671 744.62 678.73 744.829 678.862 744.997C679.027 745.207 679.284 745.323 679.55 745.309C679.951 745.448 679.985 745.834 679.985 745.834C680.528 748.081 681.84 750.218 682.648 750.537C683.454 750.856 683.808 750.435 684.537 750.372C685.268 750.308 685.046 749.764 685.218 749.749C685.39 749.734 685.777 749.7 685.777 749.7L686.572 750.367L686.517 750.242C688.382 751.767 687.047 752.837 686.111 754.997C685.906 755.243 685.844 755.578 685.951 755.88C686.057 756.182 686.315 756.405 686.629 756.467L686.277 756.888C682.25 758.366 676.45 761.342 676.763 764.908L676.713 765.183C675.931 769.291 673.852 768.991 670.461 764.117C670.598 763.716 670.831 763.911 671.108 763.108C671.384 762.305 672.295 761.835 672.617 761.07C673.133 760.126 673.368 759.054 673.299 757.98C673.319 756.801 672.711 755.701 671.705 755.088C672.522 753.552 672.838 751.799 672.607 750.073C672.552 749.443 672.456 748.841 672.347 748.247L672.004 746.476C671.895 745.882 671.799 745.28 671.744 744.65C671.563 743.658 671.475 742.65 671.481 741.641ZM717.001 732.073C716.898 732.861 716.594 733.841 716.658 734.572C715.203 735.262 713.577 735.967 713.018 736.016C710.618 736.789 708.869 738.068 708.712 740.723C708.693 741.23 709.043 741.675 709.54 741.777L716.087 742.892C716.121 743.279 716.523 743.416 716.556 743.803C716.834 744.721 716.918 745.688 716.805 746.64C713.267 750.164 708.64 752.386 703.677 752.941L707.39 738.977C707.571 738.571 706.949 737.889 706.562 737.923C705.166 738.079 703.754 737.81 702.513 737.152L708.352 732.657C708.617 732.928 708.97 733.097 709.347 733.133C710.464 733.035 714.94 732.254 717.001 732.073ZM263.151 701.481C264.11 700.882 265.095 700.378 266.182 701.846C267.896 703.737 268.289 706.478 267.178 708.774C265.517 711.56 263.547 714.764 260.745 715.399C257.22 716.106 254.278 717.829 251.391 719.61L250.059 720.433C248.063 721.662 246.052 722.849 243.852 723.675L244.021 723.617C225.546 731.28 206.59 737.726 187.273 742.914C188.548 738.643 192.012 735.381 196.352 734.369C210.791 728.09 224.899 721.075 238.62 713.351C246.247 709.479 252.48 703.045 261.501 702.256C261.951 702.217 262.399 701.955 262.85 701.671L263.151 701.481ZM648.073 725.168L647.746 725.872C646.785 727.951 645.901 729.975 644.74 731.857C645.007 730.427 645.01 728.959 644.75 727.527C646.047 726.845 647.239 725.983 648.293 724.965L648.073 725.168ZM704.198 703.966C705.465 703.12 710.432 701.515 710.344 704.944C710.392 705.503 710.656 706.043 711.386 705.979C712.636 705.832 713.874 705.594 715.089 705.265C714.79 707.383 713.987 709.399 712.747 711.142C712.407 711.547 712.021 711.918 711.619 712.277L710.4 713.343C709.999 713.702 709.613 714.072 709.272 714.478C708.342 715.389 707.95 716.718 708.238 717.989C708.928 721.912 712.962 722.512 716.356 722.215C714.985 725.311 712.894 728.033 710.254 730.152C710.052 729.711 709.538 729.508 709.089 729.692C708.545 729.912 708.036 730.52 707.477 730.569L707.503 730.437C707.551 729.916 707.007 729.484 706.649 729.516C700.608 728.268 696.012 723.341 695.186 717.226C694.95 716.51 694.128 716.019 693.619 716.626C693.047 716.717 692.492 716.897 691.977 717.16C693.302 714.582 694.399 711.892 695.256 709.122C697.153 708.897 698.932 708.074 700.332 706.772C701.277 705.438 702.636 704.453 704.198 703.966ZM592.739 710.903C593.751 711.342 594.795 711.699 595.863 711.972C596.237 712.019 596.586 712.185 596.856 712.449C596.388 712.451 595.923 712.359 595.491 712.178C594.819 711.958 594.159 711.697 593.518 711.398L593.389 711.41C593.147 711.277 592.928 711.106 592.739 710.903ZM647.362 640.613C648.248 640.49 649.15 640.544 650.016 640.769C650.393 641.126 650.937 640.906 650.78 641.093C650.652 641.245 650.658 641.271 650.361 641.609L650.114 641.887C649.562 642.498 649.1 643.664 648.963 644.066C648.825 644.467 648.296 644.86 648.331 645.247L648.332 645.208L648.125 645.028C646.375 643.465 646.093 642.095 647.202 640.79L647.362 640.613ZM834.285 586.891C834.455 587.378 834.747 587.815 835.133 588.159C835.338 588.531 835.897 588.481 835.725 588.496C835.553 588.511 835.2 588.932 835.2 588.932L834.756 590.056L834.701 589.979C834.517 589.732 834.352 589.621 834.093 589.72L833.975 589.775L834.285 586.891ZM919.725 511.429C921.046 505.869 923.151 500.857 926.378 504.054C927.131 504.926 927.616 505.996 927.773 507.136C931.016 520.376 931.835 534.096 930.19 547.626C929.716 553.294 928.347 558.851 926.133 564.089C924.151 568.636 919.574 574.709 914.085 574.8C913.535 574.935 912.962 574.683 912.689 574.186C912.484 573.814 912.454 573.47 912.21 573.665C912.674 568.081 916.72 564.35 916.992 559.044C916.841 552.914 915.93 546.828 914.28 540.922C913.12 534.572 916.53 528.039 917.893 521.857C918.114 520.641 918.623 516.32 919.564 512.126L919.725 511.429ZM471.463 520.517C471.822 520.395 472.204 520.362 472.579 520.419C473.825 520.855 474.935 521.609 475.801 522.605C475.849 523.164 475.898 523.722 475.933 524.109C476.034 524.338 476.057 524.596 475.996 524.84C475.495 524.496 474.862 524.408 474.287 524.6C473.204 525.084 472.949 526.621 473.031 527.567C473.292 529.985 472.622 532.413 471.158 534.356C468.561 536.835 466.172 535.745 465.351 532.785L465.483 532.818C464.646 529.686 465.214 529.247 466.567 527.396C467.92 525.546 469.464 521.427 471.463 520.517ZM490.217 511.255C490.821 511.368 491.406 511.565 491.956 511.839C491.776 512.056 491.663 512.322 491.634 512.603C491.579 513.951 492.275 513.5 492.826 515.357C493.027 516.032 492.852 516.986 492.676 517.943L492.59 518.421C492.326 519.926 492.218 521.321 493.755 521.51C494.485 521.447 495.087 521.395 495.816 521.33C497.294 521.851 498.153 523.391 497.819 524.922C497.359 526.364 496.389 527.589 495.09 528.365C494.77 528.606 494.4 528.772 494.007 528.849C493.63 528.814 493.277 528.645 493.013 528.374C492.095 527.751 491.211 527.077 490.369 526.353C489.968 526.215 490.154 526.372 489.934 525.829C489.713 525.285 490.394 524.663 490.345 524.104C490.482 523.48 490.317 522.829 489.9 522.346C489.483 521.863 488.862 521.604 488.227 521.648C486.948 521.888 485.881 522.765 485.4 523.974C484.866 524.8 484.777 525.76 484.282 526.539C483.828 527.398 482.873 527.866 481.917 527.699C481.73 527.542 481.898 527.484 481.138 527.204C480.377 526.924 479.604 526.992 479.011 526.654C478.652 526.456 478.367 526.147 478.198 525.773L478.316 525.632C478.068 525.265 477.591 525.263 478.923 525.147C479.755 525.073 480.229 524.373 480.676 523.606L480.945 523.143C481.126 522.835 481.313 522.534 481.529 522.277C482.561 521.563 483.761 521.13 485.012 521.02C486.324 520.689 487.362 519.689 487.246 518.356C487.1 517.891 486.872 517.457 486.571 517.073C485.934 516.143 485.985 514.907 486.694 514.031C487.495 512.792 490.397 513.317 490.267 511.814L490.217 511.255ZM832.559 306.416C835.007 304.781 838.026 304.243 840.887 304.929C843.749 305.616 846.195 307.466 847.635 310.033C852.509 320.215 852.37 333.477 854.119 345.059C855.936 357.412 855.936 370.273 858.139 382.593C859.411 388.717 860.358 395.087 862.016 401.177C862.832 403.574 863.734 413.886 867.932 412.393C868.819 412.143 869.353 411.317 870.034 410.694C875.24 404.393 880.571 398.038 885.671 391.529C889.616 386.637 893.839 378.518 901.034 378.624C905.028 378.908 908.958 379.79 912.69 381.242C917.753 382.704 922.827 384.295 928.266 386.114C933.707 387.934 939.17 389.533 944.606 391.31C949.435 392.561 953.916 394.893 957.712 398.13C962.476 402.606 966.044 408.745 973.248 404.522C977.731 401.834 980.675 398.373 986.827 397.444C992.978 396.517 1000.65 402.124 997.968 408.031C995.284 408.421 992.566 408.528 989.859 408.351C987.307 408.65 984.854 409.515 982.679 410.884C979.061 413.063 974.764 415.907 974.409 420.268C973.93 425.678 979.203 429.547 982.2 433.615C984.764 437.047 986.413 441.075 986.99 445.32C987.087 448.906 985.475 449.782 981.846 449.364C979.612 449.135 977.442 448.487 975.446 447.456C975.191 447.311 974.881 447.307 974.621 447.443C974.362 447.58 974.19 447.839 974.164 448.131C973.879 449.325 973.977 450.442 974.074 451.559C973.301 449.159 973.596 446.101 971.198 444.406C968.816 442.666 965.772 442.104 962.926 442.879C958.978 444.393 955.766 447.373 953.958 451.197C952.62 453.22 951.684 455.38 950.517 457.387C949.665 459.108 948.263 460.496 946.534 461.33C943.567 462.541 941.133 460.459 938.925 458.964C938.504 458.611 937.407 458.924 937.471 459.654C937.498 461.947 937.12 464.058 937.315 466.293C928.215 461.72 919.613 473.731 915.071 480.19C911.658 485.058 908.748 490.26 906.387 495.714C905.65 497.684 904.161 500.456 903.274 503.174C902.475 503.532 901.742 504.021 901.105 504.62C900.044 505.839 900.409 507.539 899.562 508.739L896.019 511.3C895.397 510.96 894.734 510.698 894.048 510.521C893.302 510.413 892.48 509.921 891.75 509.986C890.065 509.611 888.331 509.514 886.617 509.698C881.877 509.939 876.989 512.446 872.257 512.297C870.851 512.332 869.489 511.801 868.476 510.824C867.463 509.846 866.884 508.504 866.867 507.096C866.891 506.554 867.037 506.023 867.294 505.543C867.479 505.607 867.682 505.589 867.853 505.494C869.57 504.235 871.585 502.848 873.593 501.341L874.167 500.907C874.262 500.835 874.357 500.762 874.453 500.688L875.022 500.245C875.117 500.17 875.211 500.096 875.307 500.021L875.869 499.568C876.336 499.188 876.796 498.801 877.245 498.407L877.777 497.931C883.398 492.829 886.94 486.662 879.788 479.64C875.209 474.801 869.182 472.687 863.625 468.063C858.07 463.441 854.478 456.523 848.475 452.718C844.451 450.257 823.548 444.854 826.178 455.622C826.744 457.651 829.373 459.499 829.539 461.39C830.016 464.432 827.913 464.924 825.635 465.273L824.656 465.421C823.516 465.6 822.42 465.829 821.667 466.408C821.16 466.795 820.746 467.29 820.453 467.858L820.481 467.805L820.399 467.492C820.189 466.658 820.074 465.874 819.742 464.842L819.586 464.382C819.335 454.109 823.598 444.241 831.248 437.382C835.02 433.995 839.103 430.971 843.443 428.348C845.618 426.989 847.754 425.676 850.106 424.345C852.092 423.463 854.03 422.47 855.905 421.369C856.945 420.678 857.494 419.45 857.317 418.215C856.971 416.729 855.403 416.131 854.204 415.283C851.433 413.603 849.868 410.727 848.436 407.681L847.963 406.662C847.178 404.957 846.397 403.236 845.438 401.674C843.314 398.936 841.357 396.07 839.58 393.094C837.82 389.99 838.153 386.123 840.417 383.365C842.546 381.49 846.097 381.006 847 378.459C847.532 376.387 847.067 374.186 845.743 372.506C844.804 371.184 843.933 369.816 843.133 368.405C841.719 365.108 842.319 361.073 840.151 358.058C839.853 357.687 839.515 357.338 839.168 356.995L838.648 356.483C837.698 355.544 836.817 354.584 836.7 353.25C836.563 351.325 837.875 349.598 839.766 349.215C842.208 348.846 844.684 348.76 847.146 348.959C847.461 349.04 847.794 349.011 848.091 348.877C848.262 348.862 848.619 348.483 848.586 348.097C849.28 346.332 849.309 344.375 848.667 342.591C847.394 338.935 843.252 339.081 840.436 337.075C836.176 333.898 831.699 334.679 828.987 329.418C827.912 327.211 827.194 324.848 826.86 322.416C826.687 319.349 827.171 316.28 828.28 313.415C829.185 311.046 830.451 308.832 832.035 306.852C832.173 306.449 832.559 306.416 832.559 306.416ZM460.299 488.412C461.665 488.682 461.966 489.652 461.88 491.132C461.792 492.612 460.792 494.042 460.924 495.546C459.165 494.747 452.584 493.244 453.471 496.934C453.903 497.953 454.645 498.812 455.59 499.39C459.198 502.048 462.254 505.384 464.587 509.211C464.704 509.511 464.733 509.84 464.669 510.157C464.552 510.443 464.384 510.708 464.175 510.936C462.961 512.153 461.14 512.534 459.542 511.904C459.355 511.747 458.762 511.409 458.762 511.409C456.893 509.841 456.615 506.661 455.705 504.662L455.819 504.479C454.223 502.098 453.042 499.463 452.324 496.687C452.645 493.239 454.878 490.265 458.1 488.995C458.738 488.541 459.52 488.333 460.299 488.412ZM479.564 505.26C481.224 504.941 481.792 506.97 481.591 508.632C481.329 509.753 480.68 510.746 479.758 511.434L479.532 511.149C478.902 510.425 478.069 509.941 477.638 508.978C477.3 508.25 477.325 507.404 477.707 506.697C478.088 505.99 478.781 505.505 479.576 505.388L479.564 505.26ZM485.293 498.999C485.734 497.618 486.852 497.521 487.526 498.804C487.747 499.348 488.029 500.102 488.251 500.646C488.471 501.19 489.079 501.699 489.161 502.645L489.143 502.535L489.087 502.815C488.963 503.309 488.739 503.773 488.429 504.179L488.233 504.414C488.175 503.918 487.934 503.461 487.559 503.131C486.672 501.91 484.851 500.38 485.293 498.999ZM706.639 445.903C712.143 445.985 713.814 456.663 713.674 463.473C713.084 467.469 712.8 471.503 712.825 475.542C709.015 473.061 704.29 473.474 699.862 472.346C692.051 470.448 684.377 468.023 676.892 465.089C674.507 464.115 672.415 462.537 670.822 460.511L671.037 460.492C668.698 457.211 667.218 453.395 666.733 449.394C668.303 447.981 670.302 447.136 672.41 446.992C673.114 446.968 673.819 447.039 674.506 447.199C675.097 447.537 675.671 447.66 676.263 447.998C682.408 450.448 691.671 454.4 698.118 450.416C700.993 448.648 703.04 445.828 706.639 445.903ZM434.871 352.121C435.63 350.077 437.795 348.921 439.916 349.428C441.125 349.885 442.143 351.138 443.475 351.023C445.078 369.306 451.308 386.881 461.578 402.09C464.012 404.892 466.239 407.866 468.244 410.99C469.546 413.721 471.225 416.256 473.23 418.521C476.902 422.78 481.896 425.682 487.414 426.763C494.553 428.216 499.907 424.111 504.772 419.355C507.875 416.226 514.738 408.091 519.913 410.843C521.218 411.661 522.2 412.906 522.689 414.367C526.475 422.523 533.449 438.41 520.825 442.545C511.985 445.397 499.51 441.335 491.617 437.697C474.813 429.684 462.572 412.959 454.151 396.852C448.67 386.16 446.789 373.075 439.502 363.494C438.117 361.927 436.83 360.275 435.65 358.549C435.391 358.139 435.165 357.71 434.975 357.265L435.189 357.246C434.61 355.601 434.5 353.826 434.871 352.121ZM687.656 406.039C695.356 404.759 703.198 407.303 708.683 412.859C710.63 417.799 712.409 422.796 713.984 427.941C715.553 433 712.85 434.275 710.111 436.116C708.72 435.086 707.19 434.258 705.568 433.656C702.541 432.019 699.379 430.645 696.119 429.547L694.532 428.733C692.701 427.548 690.94 426.256 689.259 424.864C687.602 423.781 685.808 422.918 683.928 422.3C682.332 421.741 680.812 420.986 679.403 420.055C677.354 418.013 676.651 414.98 677.594 412.245C678.726 409.852 682.973 408.917 685.324 407.586C686.168 407.18 686.953 406.66 687.656 406.039ZM463.268 159.681C488.26 158.151 513.335 160.696 537.512 167.215C556.874 172.318 586.306 184.163 597.389 202.504C603.771 211.885 610.944 220.702 618.827 228.86C623.937 234.104 628.389 239.953 632.081 246.276C631.709 246.482 631.931 247.025 631.793 247.427C631.654 247.828 631.283 248.035 631.317 248.421C626.998 247.916 622.769 246.83 618.741 245.192C616.555 244.755 614.31 244.703 612.105 245.036C608.26 246.109 610.175 246.72 608.088 248.592C600.867 255.112 596.41 260.568 585.091 260.822C582.613 260.528 580.113 261.148 578.058 262.564C577.884 263.072 577.741 263.591 577.631 264.116C577.727 268.842 573.531 270.349 565.042 268.639C561.948 267.564 559.133 265.813 556.801 263.514C550.404 252.73 558.184 260.016 559.604 258.939C558.708 259.58 564.149 256.462 564.846 256.012C565.562 255.331 566.138 254.516 566.54 253.612C568.558 252.118 570.841 251.022 573.27 250.382C575.482 249.811 577.581 248.866 579.475 247.587C581.758 245.483 583.517 243.814 581.873 240.363C580.23 236.914 576.324 237.298 573.592 236.758C570.862 236.217 559.299 233.678 556.618 231.229C553.936 228.779 552.967 224.144 548.319 224.94C546.226 225.327 544.532 226.868 543.949 228.916C543.339 232.131 544.485 235.429 546.957 237.573C551.582 242.45 555.995 240.939 561.451 242.929C565.139 242.044 565.847 243.714 563.554 247.681C562.132 247.896 560.697 248.021 559.258 248.058C558.214 248.041 557.187 248.327 556.301 248.879C554.386 250.133 553.605 251.764 552.932 253.337L552.751 253.764C552.69 253.906 552.631 254.046 552.569 254.187L552.385 254.602C551.256 257.072 549.668 259.07 543.134 258.692C540.14 258.607 537.321 256.559 534.265 256.263C533.56 256.093 532.824 256.383 532.424 256.987C529.563 261.394 528.737 266.793 524.069 269.842C522.991 270.567 521.841 271.176 520.635 271.658L514.71 271.224C514.328 270.691 513.695 270.399 513.042 270.456C512.389 270.513 511.815 270.911 511.532 271.501C505.866 267.104 506.562 264.185 513.694 263.561C514.643 263.813 515.614 263.974 516.593 264.045C517.781 264.257 518.996 264.281 520.192 264.119C522.48 263.828 524.522 262.54 525.77 260.6C527.994 257.863 527.815 253.895 525.353 251.371C522.297 248.607 519.158 249.834 516.077 251.229C515.363 251.465 515.341 253.199 514.582 253.439C513.825 253.678 513.589 252.962 512.644 253.045C510.383 253.416 506.175 255.3 505.132 251.797C504.834 250.974 503.989 250.483 503.126 250.63C501.31 249.664 499.694 248.506 497.902 247.32C497.534 246.557 496.739 246.096 495.895 246.154C493.834 246.335 493.32 246.899 492.354 248.715C491.388 250.532 492.749 253.227 492.88 254.731C493.074 257.212 492.972 259.706 492.578 262.162C491.874 261.484 491.125 260.856 490.336 260.28C490.108 259.731 489.631 259.325 489.054 259.188C488.476 259.049 487.869 259.196 487.417 259.582C485.644 261.079 484.708 263.24 481.907 261.407C480.477 260.406 478.169 261.733 479.065 263.56C479.099 263.947 479.099 263.947 479.099 263.947L479.048 264.164C478.969 264.599 479.032 265.051 479.231 265.451C481.409 269.071 480.211 272.206 481.268 275.882C481.649 276.978 482.192 278.01 482.879 278.944C483.115 279.66 484.592 281.22 484.709 282.552C483.555 282.115 482.298 282.028 481.094 282.305C480.34 282.587 480.051 283.738 479.322 283.802C479.003 284.361 478.509 284.8 477.915 285.051C477.054 286.079 476.108 286.162 475.046 284.912C474.307 285.009 473.565 285.075 472.852 285.156L472.381 285.212C469.352 285.598 466.992 286.426 467.85 291.215C468.567 294.961 472.294 296.498 475.129 298.718C479.273 301.949 482.308 306.39 483.815 311.424C486.731 320.998 488.867 330.077 496.214 338.354C499.207 341.903 504.159 345.063 507.995 343.385C509.44 343.674 510.903 343.864 512.373 343.955L519.381 343.905C521.324 344.955 523.53 345.423 525.732 345.254C530.636 344.512 535.65 345.265 540.118 347.416C542.286 348.149 544.015 349.805 544.842 351.939C544.877 352.326 544.907 352.67 544.941 353.056C545.233 353.522 545.59 353.942 546.002 354.306C546.782 354.801 547.339 354.752 548.285 354.669C550.256 354.554 552.233 354.628 554.191 354.888C556.12 355.672 556.992 356.722 559.515 355.376C562.037 354.029 561.714 352.325 565.388 351.268C566.789 350.913 568.213 350.659 569.65 350.505L571.663 349.766C572.746 349.281 573.691 349.199 574.807 349.1C575.686 348.974 576.552 348.768 577.394 348.485C580.258 347.854 583.238 348.818 585.19 351.007C586.018 352.06 586.364 353.546 587.564 354.393C588.096 354.98 588.797 355.388 589.57 355.561C590.5 356.639 591.879 357.222 593.301 357.139C594.491 357.206 595.614 356.586 596.191 355.543C596.471 354.673 596.639 353.772 596.692 352.858C597.81 351.752 599.288 351.085 600.857 350.979C602.612 352.635 604.01 354.635 604.964 356.855C606.108 360.284 606.615 363.894 606.458 367.506C606.779 373.15 609.564 374.811 613.442 378.066C618.581 382.379 621.99 388.705 626.73 393.4C630.957 397.767 635.741 401.556 640.96 404.669C641.783 405.16 642.851 404.503 642.382 403.592C640.268 398.029 637.256 392.851 633.466 388.264C633.315 386.942 633.07 385.633 632.733 384.346C632.097 381.885 631.06 379.547 629.661 377.426C627.732 374.309 625.033 371.741 621.824 369.972C621.159 366.826 619.935 363.729 619.638 360.333C618.869 352.952 621.591 345.634 626.997 340.552L627.556 340.502C628.053 340.257 628.483 339.893 628.805 339.441C630.158 337.59 629.174 335.252 628.278 333.425C628.232 333.128 627.972 332.909 627.671 332.915C625.063 329.333 619.436 329.825 618.115 325.61C618.066 325.052 617.337 325.116 616.95 325.15C613.669 326.736 609.957 325.371 606.474 326.63C604.953 327.235 603.783 328.187 602.643 329.123L602.073 329.589C600.27 331.048 598.406 332.314 595.209 331.945C592.31 331.463 585.226 326.193 582.903 329.818C582.427 330.837 582.199 331.955 582.236 333.08C581.447 334.447 580.806 336.019 580.33 337.014C579.568 338.547 578.452 339.876 577.076 340.892C572.858 343.067 567.731 342.375 564.242 339.157C560.496 334.938 559.123 330.122 553.865 326.425C548.607 322.729 542.179 320.996 537.425 316.13C535.548 314.041 533.999 311.68 532.83 309.128C532.634 304.283 534.484 299.578 537.929 296.168C539.435 294.323 541.205 292.709 543.181 291.378C547.124 288.955 550.927 290.874 554.782 291.878C555.929 292.125 557.5 292.767 559.224 293.179C559.867 293.575 560.471 294.029 561.03 294.537C566.752 298.582 573.268 298.358 579.834 299.69C583.307 300.295 587.004 301.486 590.514 302.522C592.639 303.072 599.108 303.285 600.807 305.389C602.505 307.491 605.478 309.31 607.746 307.033C607.884 306.631 607.728 306.818 608.271 306.597C608.814 306.377 609.637 306.868 610.194 306.819C610.793 306.764 611.294 306.339 611.444 305.756C611.403 305.284 611.214 304.546 610.818 304.359L610.71 304.324L610.796 304.328C611.785 304.338 612.674 303.719 613.008 302.788L613.071 302.584C613.265 300.835 611.32 299.879 609.938 299.437C609.588 299.321 609.254 299.161 608.945 298.961C610.619 296.552 613.903 297.404 617.061 298.489L617.735 298.724C619.412 299.316 621.018 299.911 622.285 300.045C624.983 300.427 627.732 299.928 630.125 298.623C632.637 297.148 637.038 291.047 631.994 289.8H631.836C631.81 289.8 631.782 289.8 631.75 289.8L631.53 289.798C629.266 289.78 619.646 289.626 623.894 288.257C625.01 288.16 626.377 288.43 627.459 287.945C629.316 287.393 630.845 285.571 630.713 284.067C630.581 282.562 629.793 282.459 628.593 281.611C627.365 281.589 626.293 280.771 625.95 279.591C626.224 279.297 626.444 278.954 626.597 278.581C626.548 278.022 626.499 277.464 626.466 277.077C626.432 276.69 626.039 276.162 625.653 276.196C622.594 276.111 619.586 275.402 616.813 274.111C616.411 273.974 616.191 273.43 615.804 273.464C615.332 273.149 614.797 272.945 614.236 272.865C612.585 271.98 611.039 270.91 609.629 269.674C608.363 261.644 610.254 259.01 614.764 261.084C616.352 261.351 617.872 261.924 619.24 262.771C622.155 264.33 625.407 265.145 628.712 265.146C630.69 265.035 632.639 264.617 634.49 263.905C634.572 264.85 634.636 265.581 634.719 266.526C634.757 281.627 646.762 287.479 659.011 292.347L660.461 292.919C660.784 293.046 661.106 293.171 661.428 293.298L662.392 293.674L663.353 294.049C665.75 294.986 668.101 295.925 670.318 296.926C683.247 302.762 694.913 311.066 704.661 321.373C712.431 329.723 713.819 342.177 708.08 352.033C707.316 351.71 706.213 351.98 705.812 351.842C705.41 351.704 705.376 351.317 705.376 351.317C705.881 349.497 706.552 347.729 707.382 346.033C708.007 343.544 707.973 340.935 707.282 338.463C706.449 335.385 704.118 332.934 701.085 331.948C696.657 330.82 691.183 333.55 686.887 333.926C681.653 334.04 676.419 333.672 671.252 332.826C666.644 332.103 660.25 330.758 658.106 336.444C654.524 345.461 661.499 351.475 668.975 354.805C673.172 356.525 677.49 357.927 681.895 359C686.065 360.151 691.751 359.826 695.192 362.557C696.386 363.584 697.339 364.861 697.987 366.296C702.024 372.99 703.773 380.816 702.967 388.592C698.257 386.71 692.195 384.208 686.906 386.577C683.066 388.211 680.933 392.036 677.95 394.548C675.006 396.534 671.732 397.978 668.281 398.815C667.198 399.299 665.728 399.817 665.268 400.983L664.922 401.031C663.434 401.276 662.084 402.064 661.137 403.25C660.259 404.479 659.672 405.893 659.422 407.384C659.053 408.637 658.518 409.835 657.828 410.944C657.58 410.576 657.221 410.434 656.8 410.081C653.667 407.519 649.328 407.019 645.694 408.801C643.836 409.985 642.311 411.624 641.263 413.562C640.078 415.517 638.56 417.247 636.776 418.674C630.301 422.835 628.551 413.722 624.041 411.649C621.881 410.711 618.976 409.666 618.424 407.81C617.873 405.953 619.214 403.974 619.608 402.034C619.653 398.579 618.104 395.296 615.409 393.135C610.023 388.341 605.195 382.953 601.018 377.075C600.26 375.707 599.321 374.449 598.224 373.336C596.329 371.769 593.911 371.528 591.48 371.427L590.569 371.392C589.357 371.35 588.157 371.304 587.035 371.11C582.96 370.534 578.978 369.427 575.19 367.816C571.63 366.223 565.784 362.23 561.552 363.337C555.289 364.968 562.311 370.026 564.538 371.736C567.656 373.977 570.44 376.649 572.807 379.672C574.471 381.605 575.652 383.907 576.252 386.386C576.787 388.904 576.024 391.524 574.221 393.361C572.23 392.072 569.572 392.634 568.272 394.618C567.128 396.643 566.48 398.911 566.383 401.235C565.265 406.93 562.332 412.109 558.022 415.995C555.235 411.783 551.654 408.154 547.478 405.314C544.544 402.482 541.755 399.502 539.122 396.389C532.739 390.712 522.724 391.025 517.399 384.087C514.025 379.501 511.349 374.437 509.462 369.063C508.546 365.084 506.741 361.363 504.181 358.181C502.386 356.263 500.185 354.769 497.739 353.808C497.337 353.671 497.304 353.284 497.304 353.284C496.191 352.18 494.732 351.477 493.249 350.803L492.137 350.297C491.215 349.871 490.314 349.422 489.514 348.856C486.95 347.241 484.668 345.218 482.757 342.865C479.959 339.084 478.436 334.54 475.47 330.816C470.319 324.918 461.77 323.382 454.889 327.118C450.372 329.419 444.464 335.607 445.343 341.203C445.186 341.39 444.662 341.825 444.662 341.825C443.689 342.83 443.126 344.16 443.084 345.557C442.649 345.265 442.149 345.069 441.636 344.89L440.869 344.622C440.233 344.391 439.624 344.12 439.151 343.65C436.89 341.553 437.778 336.365 438.279 333.681C439.591 326.897 443.673 320.968 449.541 317.323C455.41 313.678 462.532 312.647 469.193 314.479C469.437 314.803 469.643 315.175 470.201 315.127C471.267 315.06 472.234 314.478 472.791 313.568C473.349 312.657 473.429 311.531 473.004 310.552C471.685 306.857 465.23 306.296 462.719 303.311C460.302 300.281 461.184 297.641 461.941 294.947L462.127 294.273C462.603 292.469 462.897 290.625 461.994 288.61C459.944 284.458 454.777 283.785 451.663 280.853C447.924 277.196 448.362 271.312 444.113 268.264C440.664 266.396 436.797 265.437 432.875 265.48C426.901 264.487 424.107 260.748 420.166 256.763C418.138 254.333 415.309 252.707 412.189 252.178C411.803 252.212 411.088 252.448 411.136 253.007C411.228 255.88 409.697 258.562 407.176 259.943C404.656 261.325 401.573 261.174 399.2 259.55C396.384 257.545 397.287 254.998 395.348 252.136C393.409 249.275 389.893 250.145 386.92 250.795C379.638 252.169 374.61 248.625 368.44 245.397C366.522 244.377 364.402 243.794 362.231 243.689C358.529 244.522 354.648 243.832 351.459 241.774C349.718 240.215 347.752 238.927 345.627 237.953C343.679 237.599 341.69 237.525 339.722 237.734C336.083 237.707 334.718 234.968 331.441 234.129C329.619 233.866 327.766 233.896 325.952 234.22C322.311 234.626 318.649 233.665 315.674 231.525C314.214 230.416 312.68 229.407 311.082 228.507L311.254 228.491C310.856 228.157 310.453 227.869 310.106 227.801L310.044 227.792L310.427 227.457C313.78 224.465 316.919 221.242 319.822 217.811L320.781 216.66C355.291 180.689 415.026 162.387 463.268 159.681ZM455.49 339.925C456.569 339.753 457.674 339.997 458.58 340.608L458.628 341.166C458.977 341.995 459.241 342.857 459.416 343.739C461.32 348.681 467.872 349.84 469.094 355.406L469.266 355.391C470.482 360.394 468.497 365.893 468.554 370.997C469.246 380.454 474.094 389.116 481.791 394.65C486.04 397.699 491.151 397.252 495.627 398.938C497.83 399.872 500.024 401.195 502.355 402.117C502.863 402.291 503.381 402.434 503.908 402.544C505.23 402.819 506.525 403.214 507.776 403.722C508.309 405.364 508.46 407.082 508.607 408.758C507.899 409.039 507.16 409.235 506.407 409.34C503.297 409.723 500.144 409.545 497.097 408.812C487.229 407.127 477.939 402.997 470.075 396.801C465.781 392.425 462.388 387.249 460.085 381.568C457.972 377.206 455.712 372.641 453.97 368.073C452.738 364.515 453.167 360.729 453.614 356.959L453.789 355.454C454.181 351.942 454.397 348.475 453.098 345.243C452.903 343.009 452.903 340.541 455.49 339.925ZM494.45 368.168C496.552 364.001 503.543 372.656 504.605 373.905C506.254 375.764 507.429 377.993 508.03 380.403C508.495 383.74 505.414 385.136 502.515 384.654C498.76 381.945 496.025 378.051 494.753 373.598L494.928 373.626C494.294 371.881 494.129 369.999 494.45 368.168Z" fill="#1E1E1E"/>
</svg>
