<svg width="1080" height="1080" viewBox="0 0 1080 1080" fill="none" xmlns="http://www.w3.org/2000/svg">
<path fill-rule="evenodd" clip-rule="evenodd" d="M540 0C838.231 0 1080 241.769 1080 540.001C1080 838.231 838.231 1080 540 1080C241.769 1080 0 838.231 0 540.001C0 241.769 241.769 0 540 0ZM520.399 425.68C510.692 423.162 501.402 419.239 492.812 414.036C477.777 423.134 460.761 428.238 443.183 428.934L440.212 429.052V405.328L442.927 405.199C453.18 404.703 463.194 402.267 472.491 397.999C463.496 388.914 456.203 378.045 456.203 364.71C456.203 344.265 472.782 327.684 493.228 327.684C513.678 327.684 530.258 344.265 530.258 364.71C530.258 378.991 522.642 388.765 513.175 398.014C522.45 402.267 532.415 404.691 542.614 405.195V352.968H532.223V327.684H543.521C546.233 309.753 561.724 296.243 580.131 296.243C598.545 296.243 614.044 309.769 616.744 327.717C619.895 327.842 622.163 328.416 625.005 331.014C627.633 333.426 629.044 336.774 629.044 340.327C629.044 345.953 625.145 351.074 619.719 352.552C618.972 352.756 618.218 352.878 617.451 352.949C617.451 398.754 617.451 444.559 617.451 490.363V493.22H592.167V352.968H567.902V493.22H542.614V436.545C519.448 467.834 482.835 486.536 443.422 486.536H440.562V462.324H443.422C473.474 462.324 501.591 448.823 520.399 425.68ZM270.463 754.745C223.471 695.845 195.374 621.204 195.374 540.001C195.374 458.793 223.471 384.151 270.463 325.255V325.267C333.607 246.116 430.871 195.379 539.996 195.379C730.321 195.379 884.614 349.671 884.614 540.001C884.614 730.329 730.321 884.621 539.996 884.621C430.871 884.621 333.607 833.885 270.463 754.733V754.745ZM769.465 561.174V740.279H728.34V561.358H698.01V740.279H656.886V692.422C638.172 703.681 610.986 722.061 590.968 722.061C573.179 722.061 557.137 714.036 546.83 699.496C532.086 678.7 533.146 650.968 549.825 631.822C539.371 622.902 533.304 609.878 533.304 595.995C533.304 582.669 538.907 570.181 548.48 561.358H480.033V740.279H438.912V561.358H410.134V598.392C410.322 600.903 410.288 603.697 410.288 606.228C410.288 643.065 382.018 662.894 348.398 655.852C363.497 683.958 391.326 703.422 423.255 707.599L425.739 707.921V740.149L422.588 739.828C369.473 734.329 324.765 697 309.773 645.828C299.799 611.777 315.042 606.499 345.636 612.846C352.469 614.264 364.2 616.63 367.772 608.519C368.424 607.041 368.766 605.403 368.936 603.803L369.009 589.519V561.358H294.341V522.773H625.185V561.358H622.328C604.962 561.358 568.18 574.939 568.18 595.995C568.18 602.754 573.658 608.229 580.414 608.229C582.591 608.229 584.712 607.654 586.591 606.553C586.678 606.503 586.772 606.452 586.862 606.408L615.38 589.947L632.399 619.424L620.485 626.635C606.491 635.095 570.668 648.261 570.668 667.563C570.668 678.774 579.757 687.864 590.968 687.864C593.07 687.864 595.158 687.546 597.162 686.902C606.562 683.898 620.352 675.159 628.965 669.972C632.389 667.913 635.795 665.834 639.195 663.747C645.069 660.144 650.937 656.454 656.886 652.98V561.358H638.342V522.773H764.847C766.797 522.773 768.833 522.807 770.75 523.161C789.844 526.685 790.752 555.444 772.507 560.568C771.548 560.839 770.51 561.039 769.465 561.174ZM592.372 327.684C590.23 322.985 585.486 319.805 580.114 319.805C574.743 319.805 569.999 322.985 567.854 327.684H592.372ZM493.213 385.711C499.559 379.809 506.676 374.134 506.676 364.71C506.676 357.276 500.652 351.248 493.213 351.248C485.778 351.248 479.749 357.276 479.749 364.71C479.749 374.103 486.878 379.82 493.213 385.711ZM541.72 1037.45C548.519 1042.17 557.53 1054.75 541.207 1069.44C541.207 1069.44 533.259 1062.87 532.09 1054.38C536.476 1051.32 539.057 1046.53 540.498 1042.69L541.207 1054.37L541.854 1043.76L541.82 1042.6L541.72 1037.45ZM472.011 1028.06C478.809 1032.78 487.82 1045.37 471.498 1060.06C471.498 1060.06 463.549 1053.48 462.38 1045C466.766 1041.93 469.347 1037.15 470.788 1033.31L471.498 1044.98L472.146 1034.38L472.11 1033.21L472.011 1028.06ZM611.43 1028.06C618.229 1032.78 627.24 1045.37 610.917 1060.06C610.917 1060.06 602.968 1053.48 601.8 1045C606.186 1041.93 608.767 1037.15 610.208 1033.31L610.917 1044.98L611.565 1034.38L611.529 1033.21L611.43 1028.06ZM539.375 1038.15L539.384 1038.17C538.498 1041.72 535.942 1049.37 529.821 1053.01C526.819 1054.79 523.378 1055.35 520.236 1055.35C514.888 1055.35 510.405 1053.73 510.405 1053.73C510.405 1053.73 511.934 1044.03 518.211 1038.6C518.735 1038.89 519.275 1039.16 519.839 1039.39C522.071 1040.32 524.58 1040.8 527.29 1040.8C528.794 1040.8 530.255 1040.65 531.641 1040.42L523.353 1046.04L536.899 1039.09C537.864 1038.76 538.701 1038.43 539.375 1038.15ZM553.235 1033.22C555.681 1033.22 558.229 1033.62 560.601 1034.73C569.149 1038.72 572.163 1050.38 572.163 1050.38C572.163 1050.38 566.504 1053.09 560.14 1053.09C557.741 1053.09 555.246 1052.69 552.914 1051.64C552.712 1046.6 550.564 1042.72 548.209 1039.95L558.524 1044.01L544.478 1036.38C543.855 1035.9 543.317 1035.52 542.897 1035.24C545.034 1034.44 548.952 1033.22 553.235 1033.22ZM469.665 1028.76L469.675 1028.79C468.788 1032.33 466.233 1039.99 460.111 1043.62C457.108 1045.4 453.668 1045.97 450.526 1045.97C445.178 1045.97 440.695 1044.34 440.695 1044.34C440.695 1044.34 442.224 1034.64 448.501 1029.21C449.025 1029.5 449.565 1029.77 450.129 1030.01C452.361 1030.94 454.87 1031.41 457.58 1031.41C459.084 1031.41 460.545 1031.26 461.931 1031.03L453.643 1036.66L467.19 1029.7C468.154 1029.37 468.99 1029.05 469.665 1028.76ZM609.084 1028.76L609.094 1028.79C608.207 1032.33 605.652 1039.99 599.531 1043.62C596.528 1045.4 593.087 1045.97 589.946 1045.97C585.215 1045.97 581.16 1044.69 580.287 1044.4L580.134 1044.35L580.114 1044.34C580.114 1044.34 581.644 1034.64 587.921 1029.21C588.444 1029.5 588.984 1029.77 589.548 1030.01C591.781 1030.94 594.289 1031.41 596.999 1031.41C598.504 1031.41 599.965 1031.26 601.35 1031.03L593.063 1036.66L606.609 1029.7C607.573 1029.37 608.41 1029.05 609.084 1028.76ZM483.526 1023.84C485.971 1023.84 488.52 1024.24 490.891 1025.35C499.44 1029.33 502.454 1041 502.454 1041C502.454 1041 496.795 1043.71 490.43 1043.71C488.031 1043.7 485.537 1043.31 483.204 1042.25C483.002 1037.21 480.854 1033.33 478.499 1030.56L488.814 1034.63L474.768 1027C474.145 1026.51 473.607 1026.14 473.187 1025.86C475.324 1025.05 479.242 1023.84 483.526 1023.84ZM622.945 1023.84C625.39 1023.84 627.939 1024.24 630.311 1025.35C638.859 1029.33 641.873 1041 641.873 1041C641.873 1041 636.214 1043.71 629.85 1043.71C627.451 1043.7 624.956 1043.31 622.623 1042.25C622.421 1037.21 620.273 1033.33 617.919 1030.56L628.234 1034.63L614.187 1027C613.564 1026.51 613.026 1026.14 612.606 1025.86C614.744 1025.05 618.662 1023.84 622.945 1023.84ZM521.37 1018.78C522.408 1018.78 523.462 1018.86 524.511 1019.04C524.561 1019.58 524.622 1020.12 524.726 1020.66C525.445 1024.46 527.415 1027.7 529.635 1030.29L522.459 1027.8L531.439 1032.21C533.495 1034.23 535.531 1035.7 536.833 1036.55C534.434 1037.42 530.963 1038.38 527.288 1038.38C525.121 1038.38 522.884 1038.05 520.764 1037.16C512.059 1033.53 508.569 1022 508.569 1022L508.88 1021.85C510.201 1021.2 515.541 1018.78 521.37 1018.78ZM533.017 1001.67C533.017 1001.67 543.236 1007.3 545.215 1016.35C541.341 1020.5 539.855 1026.11 539.307 1030.23L535.824 1016.48L538.114 1034.5C535.265 1032.64 528.474 1027.51 527.09 1020.21C525.33 1010.93 533.017 1001.67 533.017 1001.67ZM562.98 1012.31C564.723 1012.31 566.009 1012.44 566.479 1012.5L566.676 1012.53C566.676 1012.53 567.253 1024.56 560.275 1030.91C559.963 1031.19 559.62 1031.42 559.29 1031.68C557.421 1031.11 555.402 1030.81 553.235 1030.81C550.958 1030.81 548.8 1031.14 546.893 1031.56L555.538 1022.67L543.228 1032.57C542.536 1032.8 541.915 1033.02 541.441 1033.21C541.649 1029.41 542.716 1021.78 547.801 1017.15C552.321 1013.04 558.902 1012.31 562.98 1012.31ZM591.08 1009.39C592.118 1009.39 593.172 1009.48 594.22 1009.66C594.271 1010.19 594.332 1010.74 594.435 1011.28C595.155 1015.08 597.124 1018.32 599.345 1020.91L592.168 1018.42L601.149 1022.83C603.205 1024.84 605.241 1026.32 606.543 1027.17C604.143 1028.04 600.672 1029 596.998 1029C594.831 1029 592.594 1028.66 590.474 1027.78C581.769 1024.14 578.278 1012.62 578.278 1012.62L578.299 1012.61L578.59 1012.46C579.91 1011.82 585.251 1009.39 591.08 1009.39ZM451.66 1009.39C452.698 1009.39 453.752 1009.48 454.801 1009.66C454.852 1010.19 454.912 1010.74 455.016 1011.28C455.735 1015.08 457.705 1018.32 459.926 1020.91L452.749 1018.42L461.729 1022.83C463.785 1024.84 465.821 1026.32 467.124 1027.17C464.724 1028.04 461.253 1029 457.579 1029C455.411 1029 453.175 1028.66 451.054 1027.78C442.35 1024.14 438.859 1012.62 438.859 1012.62L438.88 1012.61L439.17 1012.46C440.491 1011.82 445.832 1009.39 451.66 1009.39ZM463.307 992.284C463.307 992.284 473.526 997.918 475.506 1006.97C471.632 1011.11 470.146 1016.72 469.597 1020.84L466.114 1007.1L468.405 1025.12C465.556 1023.25 458.765 1018.13 457.38 1010.83C455.621 1001.54 463.307 992.284 463.307 992.284ZM602.726 992.284C602.726 992.284 612.945 997.918 614.925 1006.97C611.051 1011.11 609.565 1016.72 609.016 1020.84L605.533 1007.1L607.824 1025.12C604.975 1023.25 598.184 1018.13 596.799 1010.83C595.04 1001.54 602.726 992.284 602.726 992.284ZM493.271 1002.93C495.489 1002.93 496.966 1003.14 496.966 1003.14C496.966 1003.14 496.973 1003.29 496.976 1003.56L496.977 1003.95C496.963 1006.75 496.458 1016.16 490.565 1021.52C490.252 1021.81 489.911 1022.04 489.58 1022.29C487.712 1021.73 485.692 1021.43 483.526 1021.43C481.248 1021.43 479.09 1021.75 477.183 1022.17L485.828 1013.28L473.518 1023.19C472.826 1023.42 472.205 1023.64 471.731 1023.83C471.939 1020.02 473.007 1012.4 478.091 1007.77C482.611 1003.65 489.192 1002.93 493.271 1002.93ZM632.69 1002.93C634.908 1002.93 636.386 1003.14 636.386 1003.14C636.386 1003.14 636.393 1003.29 636.395 1003.56L636.396 1003.95C636.382 1006.75 635.877 1016.16 629.985 1021.52C629.672 1021.81 629.33 1022.04 629 1022.29C627.131 1021.73 625.112 1021.43 622.945 1021.43C620.667 1021.43 618.51 1021.75 616.602 1022.17L625.248 1013.28L612.938 1023.19C612.246 1023.42 611.625 1023.64 611.15 1023.83C611.359 1020.02 612.426 1012.4 617.511 1007.77C622.03 1003.65 628.612 1002.93 632.69 1002.93ZM540 95.6533C785.404 95.6533 984.347 294.597 984.347 540.001C984.347 785.403 785.404 984.347 540 984.347C294.597 984.347 95.6533 785.403 95.6533 540.001C95.6533 294.597 294.597 95.6533 540 95.6533ZM54.2703 610.855C55.0726 612.995 56.2858 616.923 56.2858 621.216C56.2858 623.666 55.8861 626.221 54.7819 628.596C50.8019 637.163 39.165 640.184 39.165 640.184C39.165 640.184 36.4625 634.513 36.4625 628.135C36.4637 625.732 36.8565 623.23 37.912 620.892C42.9396 620.69 46.812 618.538 49.5768 616.178L45.5179 626.515L53.1338 612.438C53.6155 611.815 53.9928 611.274 54.2703 610.855ZM1025.17 610.855C1025.45 611.274 1025.82 611.815 1026.31 612.438L1033.92 626.515L1029.86 616.178C1032.63 618.538 1036.5 620.69 1041.53 620.892C1042.58 623.23 1042.98 625.732 1042.98 628.135C1042.98 634.513 1040.27 640.184 1040.27 640.184C1040.27 640.184 1028.64 637.163 1024.66 628.596C1023.55 626.221 1023.15 623.666 1023.15 621.216C1023.15 616.923 1024.37 612.995 1025.17 610.855ZM56.2945 609.394C60.0937 609.604 67.7017 610.673 72.3223 615.768C76.4287 620.299 77.1525 626.895 77.1525 630.981C77.1525 632.728 77.0202 634.017 76.9634 634.489L76.9381 634.685C76.9381 634.685 76.7899 634.692 76.5178 634.696L75.8992 634.694C72.849 634.651 63.8069 634.02 58.5943 628.271C58.3114 627.957 58.0806 627.615 57.8274 627.283C58.3913 625.411 58.6931 623.386 58.6931 621.216C58.6931 618.933 58.3678 616.771 57.9461 614.858L66.8207 623.523L56.9373 611.186C56.7054 610.492 56.4834 609.87 56.2945 609.394ZM1023.14 609.394C1022.96 609.87 1022.73 610.492 1022.5 611.186L1012.62 623.523L1021.49 614.858C1021.07 616.771 1020.75 618.933 1020.75 621.216C1020.75 623.386 1021.05 625.411 1021.61 627.283L1021.11 627.949L1020.85 628.271C1015.63 634.02 1006.59 634.651 1003.54 634.694L1002.92 634.696C1002.65 634.692 1002.5 634.685 1002.5 634.685L1002.48 634.489C1002.42 634.017 1002.29 632.728 1002.29 630.981C1002.29 626.895 1003.01 620.299 1007.12 615.768C1011.74 610.673 1019.35 609.604 1023.14 609.394ZM1044.27 600.023C1052.73 601.196 1059.3 609.162 1059.3 609.162C1044.64 625.519 1032.08 616.489 1027.37 609.676L1032.51 609.775L1033.67 609.811L1044.25 609.162L1032.6 608.45C1036.43 607.006 1041.21 604.42 1044.27 600.023ZM35.1727 600.023C38.2284 604.42 43.0051 607.006 46.8365 608.45L35.1894 609.162L45.7731 609.81L46.9328 609.775L52.0714 609.676C47.3631 616.489 34.8012 625.519 20.143 609.162C20.143 609.162 26.7078 601.196 35.1727 600.023ZM87.7718 600.953C87.7718 600.953 82.1501 611.193 73.1213 613.178C68.9818 609.296 63.3847 607.807 59.2769 607.256L72.9893 603.766L55.0084 606.062C56.8696 603.207 61.9829 596.401 69.2669 595.013C78.5309 593.249 87.7718 600.953 87.7718 600.953ZM991.668 600.953C991.668 600.953 1000.91 593.249 1010.17 595.013C1017.46 596.401 1022.57 603.207 1024.43 606.062L1006.45 603.766L1020.16 607.256C1016.05 607.807 1010.46 609.296 1006.32 613.178C997.289 611.193 991.668 600.953 991.668 600.953ZM1043.61 578.291C1043.61 578.291 1045.23 582.785 1045.23 588.144C1045.23 591.292 1044.67 594.741 1042.89 597.751C1039.27 603.885 1031.63 606.445 1028.09 607.334L1028.07 607.325C1028.35 606.649 1028.68 605.81 1029 604.843L1035.95 591.268L1030.33 599.573C1030.56 598.186 1030.71 596.72 1030.71 595.213C1030.71 592.497 1030.24 589.984 1029.31 587.745C1029.07 587.18 1028.81 586.64 1028.52 586.115C1033.93 579.824 1043.61 578.291 1043.61 578.291ZM35.8276 578.291C35.8276 578.291 45.5068 579.824 50.9208 586.115C50.6333 586.64 50.3669 587.18 50.1317 587.745C49.2015 589.984 48.7287 592.497 48.7287 595.213C48.7287 596.72 48.8786 598.186 49.1094 599.573L43.4937 591.268L50.4346 604.843C50.7619 605.81 51.0884 606.649 51.3725 607.325L51.348 607.334C47.8098 606.445 40.1695 603.885 36.5446 597.751C34.7667 594.741 34.2072 591.292 34.2072 588.144C34.2072 582.785 35.8276 578.291 35.8276 578.291ZM67.4824 576.452C67.4824 576.452 70.6976 582.54 70.6976 589.28C70.6976 590.32 70.6154 591.377 70.4379 592.429C69.8995 592.479 69.3603 592.539 68.8175 592.643C65.0251 593.365 61.794 595.339 59.2093 597.564L61.6975 590.372L57.295 599.371C55.2827 601.433 53.8131 603.472 52.9664 604.778C52.0961 602.372 51.1374 598.895 51.1374 595.212C51.1374 593.04 51.4703 590.798 52.3547 588.673C55.9807 579.949 67.4824 576.452 67.4824 576.452ZM1011.96 576.452C1011.96 576.452 1023.46 579.949 1027.08 588.673C1027.97 590.798 1028.3 593.04 1028.3 595.212C1028.3 598.895 1027.34 602.372 1026.47 604.778C1025.63 603.472 1024.16 601.433 1022.14 599.371L1017.74 590.372L1020.23 597.564C1017.65 595.339 1014.41 593.365 1010.62 592.643C1010.08 592.539 1009.54 592.479 1009 592.429C1008.82 591.377 1008.74 590.32 1008.74 589.28C1008.74 582.54 1011.96 576.452 1011.96 576.452ZM44.9063 540.993C45.7086 543.134 46.9218 547.062 46.9218 551.354C46.9218 553.805 46.5221 556.359 45.4179 558.735C41.4379 567.302 29.801 570.323 29.801 570.323C29.801 570.323 27.0985 564.651 27.0985 558.274C27.0997 555.87 27.4926 553.369 28.548 551.031C33.5756 550.828 37.448 548.677 40.2127 546.316L36.1539 556.654L43.7698 542.577C44.2516 541.953 44.6287 541.413 44.9063 540.993ZM1034.53 540.993C1034.81 541.413 1035.19 541.953 1035.67 542.577L1043.29 556.654L1039.23 546.316C1041.99 548.677 1045.86 550.828 1050.89 551.031C1051.95 553.369 1052.34 555.87 1052.34 558.274C1052.34 564.651 1049.64 570.323 1049.64 570.323C1049.64 570.323 1038 567.302 1034.02 558.735C1032.92 556.359 1032.52 553.805 1032.52 551.354C1032.52 547.062 1033.73 543.134 1034.53 540.993ZM46.9305 539.533C50.7297 539.743 58.3378 540.811 62.9583 545.907C67.0648 550.438 67.7885 557.034 67.7885 561.119C67.7885 563.344 67.5741 564.823 67.5741 564.823C67.5741 564.823 67.4259 564.831 67.1538 564.834L66.7692 564.835C63.9766 564.82 54.5837 564.315 49.2304 558.409C48.9473 558.095 48.7165 557.753 48.4634 557.421C49.0274 555.55 49.3291 553.525 49.3291 551.353C49.3291 549.072 49.0038 546.909 48.5822 544.997L57.4566 553.662L47.5732 541.324C47.3414 540.63 47.1193 540.008 46.9305 539.533ZM1032.51 539.533C1032.32 540.008 1032.1 540.63 1031.87 541.324L1021.98 553.662L1030.86 544.997C1030.44 546.909 1030.11 549.072 1030.11 551.353C1030.11 553.525 1030.41 555.55 1030.98 557.421C1030.72 557.753 1030.49 558.095 1030.21 558.409C1024.86 564.315 1015.46 564.82 1012.67 564.835L1012.29 564.834C1012.01 564.831 1011.86 564.823 1011.86 564.823C1011.86 564.823 1011.65 563.344 1011.65 561.119C1011.65 557.034 1012.37 550.438 1016.48 545.907C1021.1 540.811 1028.71 539.743 1032.51 539.533ZM1053.63 530.162C1062.1 531.334 1068.66 539.3 1068.66 539.3C1054 555.658 1041.44 546.628 1036.73 539.814L1041.87 539.914L1043.03 539.949L1053.61 539.3L1041.97 538.588C1045.8 537.144 1050.58 534.558 1053.63 530.162ZM25.8088 530.162C28.8644 534.558 33.6411 537.144 37.4725 538.588L25.8254 539.3L36.4068 539.948L37.5688 539.914L42.7074 539.814C37.999 546.628 25.4371 555.658 10.779 539.3C10.779 539.3 11.1893 538.802 11.937 538.037L12.4847 537.49C14.9683 535.066 19.9303 530.976 25.8088 530.162ZM78.4078 531.092C78.4078 531.092 72.7861 541.332 63.7574 543.317C59.6178 539.434 54.0206 537.945 49.9128 537.394L63.6253 533.905L45.6444 536.2C47.5055 533.345 52.6189 526.538 59.9028 525.152C69.1669 523.388 78.4078 531.092 78.4078 531.092ZM1001.03 531.092C1001.03 531.092 1010.27 523.388 1019.54 525.152C1026.82 526.538 1031.93 533.345 1033.79 536.2L1015.81 533.905L1029.53 537.394C1025.42 537.945 1019.82 539.434 1015.68 543.317C1006.65 541.332 1001.03 531.092 1001.03 531.092ZM1052.98 508.429C1052.98 508.429 1054.6 512.923 1054.6 518.282C1054.6 521.431 1054.04 524.879 1052.26 527.889C1048.63 534.023 1040.99 536.584 1037.46 537.472L1037.43 537.464C1037.71 536.787 1038.04 535.948 1038.37 534.982L1045.31 521.407L1039.69 529.712C1039.92 528.324 1040.07 526.859 1040.07 525.352C1040.07 522.635 1039.6 520.122 1038.67 517.884C1038.44 517.319 1038.17 516.779 1037.88 516.254C1043.3 509.962 1052.98 508.429 1052.98 508.429ZM26.4636 508.429C26.4636 508.429 36.1428 509.962 41.5568 516.254C41.2693 516.779 41.0028 517.319 40.7676 517.884C39.8374 520.122 39.3647 522.635 39.3647 525.352C39.3647 526.859 39.5146 528.324 39.7455 529.712L34.1296 521.407L41.0706 534.982C41.398 535.948 41.7244 536.787 42.0085 537.464L41.9839 537.472C38.4457 536.584 30.8056 534.023 27.1806 527.889C25.4027 524.879 24.8431 521.431 24.8431 518.282C24.8431 513.541 26.1113 509.478 26.4038 508.604L26.4567 508.449L26.4636 508.429ZM1021.32 506.589C1021.32 506.589 1032.82 510.088 1036.45 518.811C1037.33 520.936 1037.67 523.179 1037.67 525.351C1037.67 529.033 1036.71 532.511 1035.84 534.917C1034.99 533.61 1033.52 531.571 1031.51 529.509L1027.11 520.511L1029.59 527.703C1027.01 525.478 1023.78 523.503 1019.99 522.781C1019.44 522.677 1018.9 522.618 1018.37 522.567C1018.19 521.515 1018.11 520.459 1018.11 519.419C1018.11 512.679 1021.32 506.589 1021.32 506.589ZM58.1184 506.589L58.1288 506.61L58.2745 506.902C58.9185 508.225 61.3336 513.577 61.3336 519.419C61.3336 520.459 61.2514 521.515 61.074 522.567C60.5356 522.618 59.9964 522.677 59.4536 522.781C55.661 523.503 52.4301 525.478 49.8454 527.703L52.3336 520.511L47.9309 529.509C45.9187 531.571 44.4491 533.61 43.6024 534.917C42.7321 532.511 41.7734 529.033 41.7734 525.351C41.7734 523.179 42.1064 520.936 42.9907 518.811C46.6168 510.088 58.1184 506.589 58.1184 506.589ZM1025.17 471.132C1025.45 471.552 1025.82 472.092 1026.31 472.715L1033.92 486.792L1029.86 476.455C1032.63 478.815 1036.5 480.967 1041.53 481.169C1042.58 483.507 1042.98 486.008 1042.98 488.412C1042.98 494.79 1040.27 500.461 1040.27 500.461C1040.27 500.461 1028.64 497.44 1024.66 488.874C1023.55 486.498 1023.15 483.942 1023.15 481.493C1023.15 477.2 1024.37 473.272 1025.17 471.132ZM54.2703 471.132C55.0726 473.272 56.2858 477.2 56.2858 481.493C56.2858 483.942 55.8861 486.498 54.7819 488.874C50.8019 497.44 39.165 500.461 39.165 500.461C39.165 500.461 36.4625 494.79 36.4625 488.412C36.4637 486.008 36.8565 483.507 37.912 481.169C42.9396 480.967 46.812 478.815 49.5768 476.455L45.5179 486.792L53.1338 472.715C53.6155 472.092 53.9928 471.552 54.2703 471.132ZM1023.14 469.671C1022.96 470.147 1022.73 470.769 1022.5 471.463L1012.62 483.801L1021.49 475.135C1021.07 477.048 1020.75 479.21 1020.75 481.492C1020.75 483.663 1021.05 485.688 1021.61 487.56L1021.11 488.226L1020.85 488.548C1014.51 495.541 1002.5 494.962 1002.5 494.962L1002.48 494.766C1002.42 494.294 1002.29 493.005 1002.29 491.258C1002.29 487.171 1003.01 480.575 1007.12 476.045C1011.74 470.95 1019.35 469.881 1023.14 469.671ZM56.2945 469.671C60.0937 469.881 67.7017 470.95 72.3223 476.045C76.4287 480.575 77.1525 487.171 77.1525 491.258C77.1525 493.005 77.0202 494.294 76.9634 494.766L76.9381 494.962C76.9381 494.962 64.9339 495.541 58.5943 488.548C58.3114 488.234 58.0806 487.892 57.8274 487.56C58.3913 485.688 58.6931 483.663 58.6931 481.492C58.6931 479.21 58.3678 477.048 57.9461 475.135L66.8207 483.801L56.9373 471.463C56.7054 470.769 56.4834 470.147 56.2945 469.671ZM35.1727 460.3C38.2284 464.697 43.0051 467.283 46.8365 468.727L35.1894 469.439L45.7731 470.087L46.9328 470.052L52.0714 469.952C47.3631 476.766 34.8012 485.796 20.143 469.439C20.143 469.439 26.7078 461.473 35.1727 460.3ZM1044.27 460.3C1052.73 461.473 1059.3 469.439 1059.3 469.439C1044.64 485.796 1032.08 476.766 1027.37 469.952L1032.51 470.052L1033.67 470.087L1044.25 469.439L1032.6 468.727C1036.43 467.283 1041.21 464.697 1044.27 460.3ZM87.7718 461.23C87.7718 461.23 82.1501 471.47 73.1213 473.455C68.9818 469.573 63.3847 468.084 59.2769 467.533L72.9893 464.043L55.0084 466.339C56.8696 463.484 61.9829 456.677 69.2669 455.29C78.5309 453.526 87.7718 461.23 87.7718 461.23ZM991.668 461.23C991.668 461.23 1000.91 453.526 1010.17 455.29C1017.46 456.677 1022.57 463.484 1024.43 466.339L1006.45 464.043L1020.16 467.533C1016.05 468.084 1010.46 469.573 1006.32 473.455C997.289 471.47 991.668 461.23 991.668 461.23ZM1043.61 438.568C1043.61 438.568 1045.23 443.062 1045.23 448.421C1045.23 451.569 1044.67 455.018 1042.89 458.028C1039.27 464.161 1031.63 466.722 1028.09 467.611L1028.07 467.602C1028.35 466.926 1028.68 466.087 1029 465.12L1035.95 451.545L1030.33 459.85C1030.56 458.463 1030.71 456.997 1030.71 455.491C1030.71 452.774 1030.24 450.261 1029.31 448.022C1029.07 447.457 1028.81 446.917 1028.52 446.392C1033.93 440.101 1043.61 438.568 1043.61 438.568ZM35.8276 438.568C35.8276 438.568 45.5068 440.101 50.9208 446.392C50.6333 446.917 50.3669 447.457 50.1317 448.022C49.2015 450.261 48.7287 452.774 48.7287 455.491C48.7287 456.997 48.8786 458.463 49.1094 459.85L43.4937 451.545L50.4346 465.12C50.7619 466.087 51.0884 466.926 51.3725 467.602L51.348 467.611C47.8098 466.722 40.1695 464.161 36.5446 458.028C34.7667 455.018 34.2072 451.569 34.2072 448.421C34.2072 443.062 35.8276 438.568 35.8276 438.568ZM67.4824 436.728L67.6386 437.041C68.2826 438.363 70.6976 443.716 70.6976 449.557C70.6976 450.597 70.6154 451.654 70.4379 452.706C69.8995 452.756 69.3603 452.816 68.8175 452.92C65.0251 453.642 61.794 455.616 59.2093 457.84L61.6975 450.649L57.295 459.648C55.2827 461.71 53.8131 463.749 52.9664 465.055C52.0961 462.649 51.1374 459.171 51.1374 455.489C51.1374 453.317 51.4703 451.075 52.3547 448.95C55.9807 440.226 67.4824 436.728 67.4824 436.728ZM1011.96 436.728C1011.96 436.728 1023.46 440.226 1027.08 448.95C1027.97 451.075 1028.3 453.317 1028.3 455.489C1028.3 459.171 1027.34 462.649 1026.47 465.055C1025.63 463.749 1024.16 461.71 1022.14 459.648L1017.74 450.649L1020.23 457.84C1017.65 455.616 1014.41 453.642 1010.62 452.92C1010.08 452.816 1009.54 452.756 1009 452.706C1008.82 451.654 1008.74 450.597 1008.74 449.557C1008.74 442.817 1011.96 436.728 1011.96 436.728ZM607.824 53.585L605.533 71.6051L609.016 57.8628C609.565 61.9795 611.051 67.5889 614.925 71.7374C612.945 80.7858 602.726 86.4197 602.726 86.4197C602.726 86.4197 595.04 77.1587 596.799 67.8745C598.184 60.5747 604.975 55.4502 607.824 53.585ZM468.405 53.585L466.114 71.6051L469.597 57.8628C470.146 61.9795 471.632 67.5889 475.506 71.7374C473.526 80.7858 463.307 86.4197 463.307 86.4197C463.307 86.4197 455.621 77.1587 457.38 67.8745C458.765 60.5747 465.556 55.4502 468.405 53.585ZM538.114 44.2007L535.824 62.2206L539.307 48.4784C539.855 52.5951 541.341 58.2045 545.215 62.353C543.236 71.4015 533.017 77.0354 533.017 77.0354C533.017 77.0354 525.33 67.7743 527.09 58.4901C528.474 51.1903 535.265 46.0658 538.114 44.2007ZM471.731 54.8739C472.205 55.0631 472.826 55.2857 473.518 55.5181L485.828 65.423L477.183 56.5291C479.09 56.9517 481.248 57.2777 483.526 57.2777C485.692 57.2777 487.712 56.9753 489.58 56.4101C489.911 56.6638 490.252 56.8951 490.565 57.1787C496.458 62.5438 496.963 71.957 496.977 74.7558L496.976 75.1412C496.973 75.414 496.966 75.5625 496.966 75.5625C496.966 75.5625 495.489 75.7773 493.271 75.7773C489.192 75.7773 482.611 75.052 478.091 70.9366C473.007 66.306 471.939 58.6813 471.731 54.8739ZM611.15 54.8739C611.625 55.0631 612.246 55.2857 612.938 55.5181L625.248 65.423L616.602 56.5291C618.51 56.9517 620.667 57.2777 622.945 57.2777C625.112 57.2777 627.131 56.9753 629 56.4101C629.33 56.6638 629.672 56.8951 629.985 57.1787C635.877 62.5438 636.382 71.957 636.396 74.7558L636.395 75.1412C636.393 75.414 636.386 75.5625 636.386 75.5625C636.386 75.5625 634.908 75.7773 632.69 75.7773C628.612 75.7773 622.03 75.052 617.511 70.9366C612.426 66.306 611.359 58.6813 611.15 54.8739ZM457.579 49.7055C461.253 49.7055 464.724 50.6663 467.124 51.5386C465.821 52.387 463.785 53.8599 461.729 55.8765L452.749 60.2887L459.926 57.795C457.705 60.3855 455.735 63.6235 455.016 67.4241C454.912 67.9681 454.852 68.5087 454.801 69.0481C453.752 69.2259 452.698 69.3083 451.66 69.3083C445.832 69.3083 440.491 66.8881 439.17 66.2426L438.88 66.0966C438.859 66.0861 442.35 54.5594 451.054 50.9255C453.175 50.0393 455.411 49.7055 457.579 49.7055ZM596.998 49.7055C600.672 49.7055 604.143 50.6663 606.543 51.5386C605.241 52.387 603.205 53.8599 601.149 55.8765L592.168 60.2887L599.345 57.795C597.124 60.3855 595.155 63.6235 594.435 67.4241C594.332 67.9681 594.271 68.5087 594.22 69.0481C593.172 69.2259 592.118 69.3083 591.08 69.3083C585.251 69.3083 579.91 66.8881 578.59 66.2426L578.299 66.0966C578.278 66.0861 581.769 54.5594 590.474 50.9255C592.594 50.0393 594.831 49.7055 596.998 49.7055ZM541.441 45.4895C541.915 45.6787 542.536 45.9014 543.228 46.1336L555.538 56.0386L546.893 47.1448C548.8 47.5673 550.958 47.8933 553.235 47.8933C555.402 47.8933 557.421 47.5909 559.29 47.0257L559.954 47.5254L560.275 47.7944C567.253 54.1478 566.676 66.1781 566.676 66.1781L566.479 66.2035C566.009 66.2603 564.723 66.393 562.98 66.393C558.902 66.393 552.321 65.6676 547.801 61.5522C542.716 56.9216 541.649 49.2969 541.441 45.4895ZM527.288 40.3212C530.963 40.3212 534.434 41.282 536.833 42.1541C535.531 43.0027 533.495 44.4755 531.439 46.4921L522.459 50.9043L529.635 48.4107C527.415 51.0011 525.445 54.239 524.726 58.0398C524.622 58.5838 524.561 59.1242 524.511 59.6638C523.462 59.8416 522.408 59.924 521.37 59.924C514.644 59.924 508.569 56.7017 508.569 56.7017C508.569 56.7017 512.059 45.1751 520.764 41.5411C522.884 40.6549 525.121 40.3212 527.288 40.3212ZM490.43 34.9987C496.795 34.9987 502.454 37.7071 502.454 37.7071C502.454 37.7071 499.44 49.3693 490.891 53.358C488.52 54.4646 485.971 54.8652 483.526 54.8652C479.242 54.8652 475.324 53.6493 473.187 52.8453C473.607 52.5671 474.145 52.1891 474.768 51.7063L488.814 44.0738L478.499 48.1415C480.854 45.3707 483.002 41.4899 483.204 36.4513C485.537 35.3937 488.031 34.9999 490.43 34.9987ZM629.85 34.9987C636.214 34.9987 641.873 37.7071 641.873 37.7071C641.873 37.7071 638.859 49.3693 630.311 53.358C627.939 54.4646 625.39 54.8652 622.945 54.8652C618.662 54.8652 614.744 53.6493 612.606 52.8453C613.026 52.5671 613.564 52.1891 614.187 51.7063L628.234 44.0738L617.919 48.1415C620.273 45.3707 622.421 41.4899 622.623 36.4513C624.956 35.3937 627.451 34.9999 629.85 34.9987ZM610.917 18.6436C627.24 33.3337 618.229 45.923 611.43 50.6416L611.529 45.4918L611.565 44.3272L610.917 33.7228L610.208 45.3954C608.767 41.5556 606.186 36.7685 601.8 33.7061C602.968 25.2227 610.917 18.6436 610.917 18.6436ZM471.498 18.6436C487.82 33.3337 478.809 45.923 472.011 50.6416L472.11 45.4918L472.146 44.3272L471.498 33.7228L470.788 45.3954C469.347 41.5556 466.766 36.7685 462.38 33.7061C463.549 25.2227 471.498 18.6436 471.498 18.6436ZM589.946 32.7384C593.087 32.7384 596.528 33.2992 599.531 35.081C605.652 38.7138 608.207 46.3707 609.094 49.9166L609.084 49.9411C608.41 49.6565 607.573 49.3293 606.609 49.0012L593.063 42.0452L601.35 47.6732C599.965 47.4419 598.504 47.2916 596.999 47.2916C594.289 47.2916 591.781 47.7654 589.548 48.6976C588.984 48.9333 588.444 49.2004 587.921 49.4885C581.644 44.0627 580.114 34.3624 580.114 34.3624L580.134 34.3554L580.287 34.3025C581.16 34.0092 585.215 32.7384 589.946 32.7384ZM450.526 32.7384C453.668 32.7384 457.108 33.2992 460.111 35.081C466.233 38.7138 468.788 46.3707 469.675 49.9166L469.665 49.9411C468.99 49.6565 468.154 49.3293 467.19 49.0012L453.643 42.0452L461.931 47.6732C460.545 47.4419 459.084 47.2916 457.58 47.2916C454.87 47.2916 452.361 47.7654 450.129 48.6976C449.565 48.9333 449.025 49.2004 448.501 49.4885C442.224 44.0627 440.695 34.3624 440.695 34.3624C440.695 34.3624 445.178 32.7384 450.526 32.7384ZM560.14 25.6143C566.504 25.6143 572.163 28.3227 572.163 28.3227C572.163 28.3227 569.149 39.9849 560.601 43.9736C558.229 45.0802 555.681 45.4808 553.235 45.4808C548.952 45.4808 545.034 44.2649 542.897 43.4609C543.317 43.1827 543.855 42.8047 544.478 42.3219L558.524 34.6894L548.209 38.7571C550.564 35.9864 552.712 32.1055 552.914 27.067C555.246 26.0092 557.741 25.6155 560.14 25.6143ZM541.207 9.25926C557.53 23.9493 548.519 36.5386 541.72 41.2572L541.82 36.1074L541.855 34.9428L541.207 24.3385L540.498 36.0109C539.057 32.1712 536.476 27.384 532.09 24.3217C533.259 15.8384 541.207 9.25926 541.207 9.25926ZM520.236 23.3541C523.378 23.3541 526.819 23.9148 529.821 25.6966C535.942 29.3295 538.498 36.9862 539.384 40.5321L539.375 40.5568C538.701 40.2722 537.864 39.945 536.899 39.6168L523.353 32.6607L531.641 38.2889C530.255 38.0574 528.794 37.9072 527.29 37.9072C524.58 37.9072 522.071 38.381 519.839 39.3132C519.275 39.5489 518.735 39.8159 518.211 40.1041C511.934 34.6783 510.405 24.978 510.405 24.978C510.405 24.978 514.888 23.3541 520.236 23.3541Z" fill="#1E1E1E"/>
</svg>
