<?xml version="1.0" encoding="UTF-8"?> <svg xmlns="http://www.w3.org/2000/svg" xmlns:xlink="http://www.w3.org/1999/xlink" width="126px" height="120px" viewBox="0 0 126 120"> <title>Group 5 Copy</title> <g id="Page-1" stroke="none" stroke-width="1" fill="none" fill-rule="evenodd" stroke-linecap="round" stroke-linejoin="round"> <g id="Mahabhava-Dhama-Water&amp;Electro-Copy-19" transform="translate(-1372.000000, -165.000000)"> <g id="Group-5-Copy" transform="translate(1434.835310, 224.992132) rotate(50.000000) translate(-1434.835310, -224.992132) translate(1403.110116, 171.339451)"> <g id="Radha-Kunda-Water" transform="translate(0.001016, 0.276863)" stroke="#2A96FB" stroke-width="0.73"> <line x1="15.4775617" y1="21.2156431" x2="34.5073507" y2="2.12156431" id="Shape"></line> <polyline id="Shape" points="2.45272836 47.1835903 36.7063486 12.6445233 40.7660369 8.57111983"></polyline> <polyline id="Shape" points="0 62.4588534 45.6714936 16.6330642 46.4326852 15.6995759"></polyline> <line x1="1.2686526" y1="73.8304381" x2="51.4227187" y2="23.5069326" id="Shape"></line> <line x1="4.56714936" y1="83.4199088" x2="56.4127523" y2="31.3991518" id="Shape"></line> <line x1="9.3034524" y1="91.4818532" x2="60.3032869" y2="40.2248594" id="Shape"></line> <line x1="15.2238312" y1="98.270859" x2="62.6714384" y2="50.5780932" id="Shape"></line> <line x1="22.4128626" y1="103.956651" x2="63.0943226" y2="63.0528914" id="Shape"></line> <line x1="32.223776" y1="106.841979" x2="59.5420954" y2="79.4313679" id="Shape"></line> <line x1="18.0148669" y1="12.305073" x2="20.7213258" y2="9.5894707" id="Shape"></line> <line x1="23.8506689" y1="6.44955551" x2="30.3630856" y2="0" id="Shape"></line> <line x1="8.54226084" y1="34.6239296" x2="15.9004459" y2="27.1560232" id="Shape"></line> <line x1="19.029789" y1="24.016108" x2="27.0645888" y2="15.9541636" id="Shape"></line> <polyline id="Shape" points="30.1939319 12.8142485 30.5322392 12.5596607 37.7212706 5.2614795"></polyline> <line x1="3.12934308" y1="52.8693827" x2="11.079566" y2="44.8074383" id="Shape"></line> <line x1="14.293486" y1="41.6675231" x2="22.2437089" y2="33.6055787" id="Shape"></line> <line x1="25.4576288" y1="30.4656635" x2="33.4078518" y2="22.4037192" id="Shape"></line> <polyline id="Shape" points="36.6217717 19.263804 41.6118053 14.1720496 43.7262263 12.0504853"></polyline> <line x1="0.25373052" y1="68.3992335" x2="6.25868616" y2="62.4588534" id="Shape"></line> <line x1="9.55718292" y1="59.2340756" x2="17.422829" y2="51.2569938" id="Shape"></line> <line x1="20.7213258" y1="48.0322161" x2="28.5869719" y2="40.0551342" id="Shape"></line> <line x1="31.8854687" y1="36.8303565" x2="39.7511148" y2="28.8532747" id="Shape"></line> <polyline id="Shape" points="43.0496116 25.6284969 48.8854135 19.6881168 49.139144 19.5183917"></polyline> <line x1="4.73630304" y1="76.8854907" x2="12.686526" y2="68.8235463" id="Shape"></line> <line x1="15.9004459" y1="65.5987686" x2="23.8506689" y2="57.6216868" id="Shape"></line> <line x1="27.0645888" y1="54.396909" x2="35.0148118" y2="46.4198272" id="Shape"></line> <line x1="38.2287317" y1="43.1950494" x2="46.1789546" y2="35.2179676" id="Shape"></line> <line x1="49.3928746" y1="31.9931899" x2="54.0446008" y2="27.3257484" id="Shape"></line> <line x1="6.7661472" y1="87.9344209" x2="8.22069265" y2="86.4749614" id="Shape"></line> <line x1="11.079566" y1="83.1653211" x2="19.029789" y2="75.2731019" id="Shape"></line> <line x1="22.2437089" y1="71.9634615" x2="30.1939319" y2="64.0712423" id="Shape"></line> <line x1="33.4078518" y1="60.7616019" x2="41.3580748" y2="52.8693827" id="Shape"></line> <line x1="44.5719947" y1="49.5597424" x2="52.5222176" y2="41.6675231" id="Shape"></line> <line x1="55.7361376" y1="38.3578828" x2="58.5271733" y2="35.6422805" id="Shape"></line> <line x1="12.179065" y1="95.0460813" x2="14.293486" y2="92.8396544" id="Shape"></line> <line x1="17.422829" y1="89.6148766" x2="25.4576288" y2="81.6377948" id="Shape"></line> <line x1="28.5869719" y1="78.413017" x2="36.6217717" y2="70.4359352" id="Shape"></line> <line x1="39.7511148" y1="67.2111575" x2="47.7859146" y2="59.2340756" id="Shape"></line> <line x1="50.9152577" y1="56.0092979" x2="58.9500575" y2="48.0322161" id="Shape"></line> <line x1="18.6914816" y1="101.241049" x2="20.7213258" y2="99.2892099" id="Shape"></line> <line x1="23.8506689" y1="96.0644321" x2="31.8854687" y2="88.0873503" id="Shape"></line> <line x1="35.0148118" y1="84.8625726" x2="43.0496116" y2="76.8854907" id="Shape"></line> <line x1="46.1789546" y1="73.660713" x2="54.2137544" y2="65.5987686" id="Shape"></line> <line x1="57.3430975" y1="62.4588534" x2="63.1788995" y2="56.5184733" id="Shape"></line> <line x1="26.8108583" y1="106.152824" x2="27.2472219" y2="105.56904" id="Shape"></line> <line x1="30.1939319" y1="102.429125" x2="38.2287317" y2="94.3671807" id="Shape"></line> <line x1="41.3580748" y1="91.2272655" x2="49.3928746" y2="83.1653211" id="Shape"></line> <line x1="52.5222176" y1="80.0254059" x2="60.5570174" y2="71.9634615" id="Shape"></line> <line x1="40.5123064" y1="104.975002" x2="44.5719947" y2="100.816736" id="Shape"></line> <line x1="47.7859146" y1="97.676821" x2="51.9301798" y2="93.3488298" id="Shape"></line> </g> <g id="Group-9" transform="translate(0.000000, 0.000000)" stroke="#545454"> <path d="M8.88158458,34.3916176 C-6.67732028,56.728594 -1.26502817,87.4892043 20.9760727,103.130301" id="Shape"></path> <path d="M51.5928888,23.6989334 C47.3145352,16.1658338 41.9572801,9.30367981 35.6924429,3.33191602" id="Shape"></path> <path d="M8.88158458,34.3916176 C14.1961118,26.6195148 17.5882989,17.6885772 18.7770749,8.3388078" id="Shape"></path> <path d="M21.1452264,103.300026 C27.0297175,107.667335 34.8890547,108.261251 41.3590911,104.827553" id="Shape"></path> <path d="M35.607866,3.4167786 C33.1260388,0.528186339 29.2046592,-0.662121151 25.5432221,0.361725983 C21.9241343,1.45964742 19.2785872,4.57866705 18.7770749,8.3388078" id="Shape"></path> <path d="M41.443668,104.74269 C66.2311045,84.9937576 70.7402649,48.9871215 51.5928888,23.6989334" id="Shape"></path> </g> </g> </g> </g> </svg> 