<?xml version="1.0" encoding="UTF-8"?> <svg xmlns="http://www.w3.org/2000/svg" width="1920" height="1920" viewBox="0 0 1920 1920" fill="none"><path d="M433.57 896.143C433.57 896.143 964.301 678.318 1148.37 601.616C1218.93 570.938 1458.22 472.759 1458.22 472.759C1458.22 472.759 1568.66 429.81 1559.45 534.12C1556.39 577.073 1531.84 727.403 1507.3 890.007C1470.49 1120.11 1430.61 1371.68 1430.61 1371.68C1430.61 1371.68 1424.47 1442.25 1372.32 1454.52C1320.17 1466.79 1234.27 1411.57 1218.93 1399.29C1206.65 1390.09 988.842 1252.03 909.08 1184.53C887.604 1166.13 863.063 1129.31 912.145 1086.36C1022.59 985.116 1154.5 859.329 1234.27 779.562C1271.08 742.744 1307.89 656.841 1154.5 761.151C936.691 911.484 721.944 1052.61 721.944 1052.61C721.944 1052.61 672.858 1083.29 580.825 1055.68C488.787 1028.07 381.414 991.251 381.414 991.251C381.414 991.251 307.791 945.232 433.57 896.143Z" fill="black"></path></svg> 