<?xml version="1.0" encoding="UTF-8"?> <svg xmlns="http://www.w3.org/2000/svg" xmlns:xlink="http://www.w3.org/1999/xlink" width="395px" height="395px" viewBox="0 0 395 395"> <title>Combined Shape</title> <g id="Page-1" stroke="none" stroke-width="1" fill="none" fill-rule="evenodd"> <g id="Mahabhava-Dhama-Water&amp;Electro-Copy-28" transform="translate(-6.000000, 0.000000)" fill="#919195" fill-rule="nonzero"> <path d="M155.199513,0.137698809 C194.204379,-1.50288739 232.407306,11.5646217 262.232938,36.7551028 C292.060687,61.9427602 311.34181,97.4179661 316.25298,136.150343 C321.166973,174.884837 311.353105,214.048538 288.757631,245.887488 L288.757631,245.887488 L394.139175,351.417278 C399.894618,358.134433 401.849718,367.311551 399.334835,375.794031 C396.823128,384.278629 390.182425,390.910861 381.695004,393.411978 C373.210406,395.915708 364.033077,393.947004 357.318462,388.186457 L357.318462,388.186457 L251.887503,282.755498 C220.042906,305.35069 180.882734,315.16477 142.150358,310.250847 C103.418687,305.338972 67.9455988,286.058554 42.7551177,256.232923 C17.5653425,226.407292 4.49698629,188.20507 6.13771368,149.199498 C7.77829989,110.191807 24.0097967,73.2235552 51.6180953,45.6180804 C79.2270997,18.0090759 116.191116,1.7784262 155.199513,0.137698809 Z M162.000462,33.0757782 C129.408989,33.0863737 98.1524335,46.0444634 75.10728,69.0945583 C52.0656562,92.148183 39.1188615,123.407562 39.1188615,156.001859 C39.1188615,188.59898 52.0649503,219.859065 75.10728,242.90916 C98.1496097,265.962079 129.406165,278.91697 162.000462,278.930764 C194.595465,278.941347 225.860492,266.005847 248.921882,242.971988 L248.921882,242.971988 C271.952917,219.892244 284.888417,188.615922 284.888417,156.005389 C284.888417,123.39415 271.952917,92.1178279 248.921882,69.0345541 C225.859786,46.0006956 194.591936,33.0651958 162.000462,33.0757782 Z M169.391571,84.017257 L169.391571,148.571218 L233.942709,148.571218 L233.942709,163.398616 L169.391571,163.398616 L169.391571,227.949753 L154.564174,227.949753 L154.564174,163.398616 L89.9600914,163.398616 L89.9600914,148.571218 L154.564174,148.571218 L154.564174,84.017257 L169.391571,84.017257 Z" id="Combined-Shape"></path> </g> </g> </svg> 