<?xml version="1.0" encoding="UTF-8"?> <svg xmlns="http://www.w3.org/2000/svg" xmlns:xlink="http://www.w3.org/1999/xlink" width="619px" height="110px" viewBox="0 0 619 110"> <title>10800+</title> <defs> <radialGradient cx="75.381116%" cy="-4.33877037%" fx="75.381116%" fy="-4.33877037%" r="254.960323%" gradientTransform="translate(0.753811,-0.043388),scale(0.177001,1.000000),rotate(-21.021541),scale(1.000000,0.891476),translate(-0.753811,0.043388)" id="radialGradient-1"> <stop stop-color="#F8F392" offset="0%"></stop> <stop stop-color="#AA6B08" offset="100%"></stop> </radialGradient> </defs> <g id="Page-1" stroke="none" stroke-width="1" fill="none" fill-rule="evenodd"> <g id="Artboard-Copy-33" transform="translate(-632.000000, -1049.000000)" fill="url(#radialGradient-1)" fill-rule="nonzero"> <path d="M676.807129,1157 L699.29248,1051.31152 L668.237793,1051.31152 C668.237793,1051.31152 661.539604,1055.22689 654.439525,1059.37718 L653.531433,1059.90799 L653.531433,1059.90799 L652.621887,1060.43966 C645.195903,1064.78045 637.915527,1069.03613 637.915527,1069.03613 L632.275879,1095.76953 C632.275879,1095.76953 639.67334,1091.46655 647.070801,1087.16357 L647.958023,1086.64749 C655.048223,1082.52324 661.865723,1078.55762 661.865723,1078.55762 L662.45166,1078.55762 L645.752441,1157 L676.807129,1157 Z M748.218262,1158.83105 C780.225098,1158.83105 803.369629,1130.70605 803.369629,1091.8877 C803.369629,1066.47266 786.743652,1049.48047 761.768066,1049.48047 C729.834473,1049.48047 706.98291,1077.3125 706.98291,1116.13086 C706.98291,1141.69238 723.535645,1158.83105 748.218262,1158.83105 Z M749.463379,1135.17383 C742.13916,1135.17383 738.330566,1128.3623 738.330566,1115.39844 C738.330566,1093.05957 748.804199,1073.1377 760.596191,1073.1377 C768.140137,1073.1377 772.021973,1079.80273 772.021973,1092.69336 C772.021973,1115.03223 761.328613,1135.17383 749.463379,1135.17383 Z M884.155762,1158.83105 C912.20752,1158.83105 932.202637,1145.7207 932.202637,1127.41016 C932.202637,1116.13086 925.244629,1107.3418 913.452637,1103.82617 L913.525879,1103.16699 C928.760254,1101.18945 938.721191,1091.15527 938.721191,1077.75195 C938.721191,1061.8584 920.703613,1049.48047 897.48584,1049.48047 C872.583496,1049.48047 854.272949,1061.93164 854.272949,1078.85059 C854.272949,1087.85938 860.278809,1095.47656 869.727051,1098.47949 L869.580566,1098.99219 C850.903809,1102.21484 839.258301,1113.56738 839.258301,1128.58203 C839.258301,1146.37988 857.715332,1158.83105 884.155762,1158.83105 Z M894.922363,1092.69336 C888.403809,1092.69336 883.569824,1088.37207 883.569824,1082.43945 C883.569824,1075.84766 889.575684,1070.35449 896.753418,1070.35449 C903.271973,1070.35449 908.179199,1074.82227 908.179199,1080.75488 C908.179199,1087.2002 902.100098,1092.69336 894.922363,1092.69336 Z M885.474121,1137.44434 C877.490723,1137.44434 871.924316,1132.68359 871.924316,1125.87207 C871.924316,1118.32812 878.442871,1112.61523 887.012207,1112.61523 C895.068848,1112.61523 900.708496,1117.37598 900.708496,1124.26074 C900.708496,1131.80469 894.189941,1137.44434 885.474121,1137.44434 Z M989.478027,1158.83105 C1021.48486,1158.83105 1044.62939,1130.70605 1044.62939,1091.8877 C1044.62939,1066.47266 1028.00342,1049.48047 1003.02783,1049.48047 C971.094238,1049.48047 948.242676,1077.3125 948.242676,1116.13086 C948.242676,1141.69238 964.79541,1158.83105 989.478027,1158.83105 Z M990.723145,1135.17383 C983.398926,1135.17383 979.590332,1128.3623 979.590332,1115.39844 C979.590332,1093.05957 990.063965,1073.1377 1001.85596,1073.1377 C1009.3999,1073.1377 1013.28174,1079.80273 1013.28174,1092.69336 C1013.28174,1115.03223 1002.58838,1135.17383 990.723145,1135.17383 Z M1095.82568,1158.83105 C1127.83252,1158.83105 1150.97705,1130.70605 1150.97705,1091.8877 C1150.97705,1066.47266 1134.35107,1049.48047 1109.37549,1049.48047 C1077.44189,1049.48047 1054.59033,1077.3125 1054.59033,1116.13086 C1054.59033,1141.69238 1071.14307,1158.83105 1095.82568,1158.83105 Z M1097.0708,1135.17383 C1089.74658,1135.17383 1085.93799,1128.3623 1085.93799,1115.39844 C1085.93799,1093.05957 1096.41162,1073.1377 1108.20361,1073.1377 C1115.74756,1073.1377 1119.62939,1079.80273 1119.62939,1092.69336 C1119.62939,1115.03223 1108.93604,1135.17383 1097.0708,1135.17383 Z M1209.35107,1157.14648 L1215.79639,1126.67773 L1244.65381,1126.67773 L1250.07373,1101.18945 L1221.21631,1101.18945 L1227.66162,1070.7207 L1200.56201,1070.7207 L1194.1167,1101.18945 L1166.43115,1101.18945 L1161.01123,1126.67773 L1188.69678,1126.67773 L1182.25146,1157.14648 L1209.35107,1157.14648 Z" id="10800+"></path> </g> </g> </svg> 