<?xml version="1.0" encoding="UTF-8"?> <svg xmlns="http://www.w3.org/2000/svg" width="1785" height="1260" viewBox="0 0 1785 1260" fill="none"><g clip-path="url(#clip0_2088_10392)"><rect width="1260" height="1785" transform="matrix(0 1 -1 0 1785 0)" fill="white"></rect><path d="M985.362 355.926L937.726 486.806L806.846 439.17L854.482 308.29L985.362 355.926ZM812.243 436.653L935.209 481.409L979.965 358.443L856.999 313.687L812.243 436.653Z" fill="black"></path><path d="M1014.22 342.474L951.182 515.664L777.992 452.628L841.028 279.438L1014.22 342.474ZM783.389 450.111L948.665 510.267L1008.82 344.991L843.545 284.836L783.389 450.111Z" fill="black"></path><path d="M1123.77 482.526C1137.02 446.121 1124.24 403.745 1092.05 364.495C1059.91 325.287 1008.64 289.543 945.848 266.687C883.052 243.831 820.803 238.261 770.974 247.632C721.092 257.013 684.056 281.254 670.806 317.66C657.555 354.065 670.344 396.441 702.526 435.691C734.674 474.899 785.94 510.645 848.735 533.5C911.53 556.356 973.776 561.925 1023.61 552.554C1073.49 543.173 1110.52 518.931 1123.77 482.526ZM1127.73 483.967C1113.77 522.332 1075.02 547.17 1024.38 556.693C973.692 566.226 910.675 560.526 847.295 537.458C783.914 514.389 731.974 478.248 699.269 438.361C666.599 398.516 652.885 354.585 666.849 316.219C680.813 277.854 719.557 253.016 770.196 243.493C820.888 233.96 883.907 239.661 947.288 262.73C1010.67 285.799 1062.61 321.938 1095.31 361.825C1127.98 401.67 1141.69 445.601 1127.73 483.967Z" fill="black"></path><path d="M1144.93 490.222C1160.32 447.921 1147.02 399.376 1112.42 354.939C1077.84 310.528 1022.16 270.505 953.547 245.531C884.93 220.556 816.552 215.427 761.514 227.219C706.443 239.018 665.049 267.656 649.652 309.957C634.256 352.259 647.556 400.808 682.159 445.246C716.741 489.656 772.42 529.676 841.036 554.65C909.653 579.625 978.029 584.758 1033.07 572.966C1088.14 561.167 1129.53 532.524 1144.93 490.222ZM1148.88 491.663C1132.81 535.814 1089.84 565.106 1033.95 577.081C978.024 589.063 908.838 583.809 839.596 558.607C770.354 533.405 713.978 492.958 678.837 447.831C643.718 402.73 629.625 352.669 645.695 308.517C661.766 264.365 704.74 235.074 760.633 223.099C816.559 211.118 885.745 216.372 954.987 241.573C1024.23 266.776 1080.61 307.223 1115.75 352.35C1150.86 397.45 1164.95 447.511 1148.88 491.663Z" fill="black"></path><path d="M868.179 386.642L870.532 380.176L877.783 382.815L875.43 389.281L878.084 390.247L883.509 375.342L880.855 374.376L878.599 380.574L871.348 377.934L873.604 371.737L870.939 370.767L865.514 385.672L868.179 386.642ZM883.815 392.532C885.22 393.043 886.86 392.81 887.923 391.851L887.974 391.87L887.339 393.616L889.818 394.518L892.562 386.978C893.363 384.778 892.119 382.699 889.403 381.71C886.614 380.695 884.335 381.527 883.477 383.53L885.863 384.399C886.359 383.55 887.348 383.243 888.567 383.687C889.837 384.149 890.371 385.092 889.954 386.239L889.668 387.024L886.716 386.136C883.991 385.332 882.068 385.954 881.361 387.896C880.643 389.869 881.697 391.761 883.815 392.532ZM885.296 390.872C884.181 390.466 883.644 389.627 883.971 388.728C884.287 387.861 885.202 387.562 886.472 387.931L889.059 388.697L888.755 389.534C888.273 390.856 886.753 391.402 885.296 390.872ZM894.631 396.27L896.323 391.622L900.951 393.306L899.259 397.954L901.82 398.886L905.805 387.938L903.244 387.005L901.672 391.323L897.045 389.639L898.616 385.321L896.055 384.389L892.07 395.337L894.631 396.27ZM904.487 403.097L905.529 400.236L913.296 403.063L912.255 405.924L914.61 406.782L916.373 401.937L914.71 401.332L917.973 392.366L909.648 389.336L907.187 394.909C906.546 396.348 905.742 397.53 904.763 397.712L903.895 397.396L902.132 402.24L904.487 403.097ZM912.148 400.4L907.459 398.693L907.489 398.61C908.258 398.071 908.897 397.087 909.431 395.878L911.12 392.106L914.693 393.407L912.148 400.4ZM920.266 405.799C921.671 406.31 923.312 406.077 924.374 405.118L924.426 405.137L923.79 406.883L926.269 407.785L929.014 400.245C929.814 398.045 928.571 395.966 925.854 394.977C923.065 393.962 920.786 394.794 919.928 396.798L922.314 397.666C922.81 396.817 923.799 396.51 925.018 396.954C926.288 397.416 926.822 398.359 926.405 399.506L926.119 400.291L923.167 399.404C920.442 398.599 918.519 399.221 917.813 401.163C917.095 403.136 918.149 405.028 920.266 405.799ZM921.748 404.139C920.632 403.733 920.095 402.894 920.422 401.996C920.738 401.128 921.654 400.83 922.923 401.198L925.51 401.964L925.206 402.801C924.725 404.123 923.204 404.669 921.748 404.139ZM860.205 407.696C863.17 408.775 865.902 407.664 866.906 404.906C867.895 402.19 866.471 399.578 863.465 398.484L860.346 397.348L861.613 393.867L868.419 396.345L869.235 394.103L859.763 390.656L854.339 405.561L860.205 407.696ZM860.331 405.262L857.8 404.341L859.571 399.476L862.091 400.393C863.982 401.081 864.754 402.333 864.179 403.914C863.608 405.484 862.211 405.946 860.331 405.262ZM869.336 411.019L873.037 407.922L873.089 407.94L873.933 412.692L876.742 413.715L875.277 406.912L880.769 402.781L877.949 401.755L874.371 404.804L874.319 404.785L873.507 400.138L870.615 399.086L872.12 405.845L866.599 410.023L869.336 411.019ZM881.45 415.628C882.855 416.139 884.496 415.905 885.558 414.947L885.61 414.966L884.975 416.711L887.454 417.614L890.198 410.073C890.999 407.873 889.755 405.795 887.039 404.806C884.25 403.791 881.97 404.622 881.112 406.626L883.498 407.495C883.994 406.646 884.983 406.339 886.202 406.783C887.473 407.245 888.007 408.188 887.589 409.334L887.304 410.119L884.351 409.232C881.626 408.427 879.704 409.049 878.997 410.991C878.279 412.964 879.333 414.857 881.45 415.628ZM882.932 413.968C881.816 413.562 881.279 412.723 881.607 411.824C881.922 410.957 882.838 410.658 884.108 411.027L886.695 411.793L886.39 412.629C885.909 413.952 884.388 414.498 882.932 413.968ZM894.983 420.354C897.411 421.238 899.366 420.557 900.069 418.626C900.569 417.252 899.967 415.887 898.599 415.178L898.629 415.095C899.781 415.304 900.99 414.586 901.407 413.44C902.039 411.704 901.096 410.18 898.886 409.375L893.69 407.484L889.705 418.433L894.983 420.354ZM896.463 413.558L894.583 412.874L895.575 410.147L897.651 410.903C898.695 411.283 899.096 411.979 898.784 412.836C898.454 413.745 897.661 413.994 896.463 413.558ZM895.102 418.421L892.861 417.605L893.989 414.506L896.024 415.247C897.408 415.751 897.929 416.537 897.556 417.559C897.192 418.561 896.321 418.864 895.102 418.421ZM903.988 423.831C905.393 424.342 907.034 424.109 908.096 423.15L908.148 423.169L907.513 424.915L909.992 425.817L912.736 418.277C913.537 416.076 912.293 413.998 909.577 413.009C906.788 411.994 904.508 412.825 903.65 414.829L906.036 415.698C906.532 414.849 907.521 414.542 908.74 414.986C910.011 415.448 910.545 416.391 910.127 417.538L909.842 418.323L906.889 417.435C904.164 416.631 902.242 417.253 901.535 419.195C900.817 421.167 901.871 423.06 903.988 423.831ZM905.47 422.171C904.354 421.765 903.817 420.926 904.145 420.027C904.46 419.16 905.376 418.861 906.646 419.23L909.233 419.996L908.928 420.833C908.447 422.155 906.926 422.701 905.47 422.171ZM914.805 427.569L916.497 422.921L921.124 424.605L919.432 429.253L921.994 430.185L925.979 419.236L923.417 418.304L921.846 422.622L917.219 420.937L918.79 416.62L916.228 415.688L912.243 426.636L914.805 427.569Z" fill="black"></path><path d="M747.224 846.217L700.095 927.846L618.465 880.718L665.594 799.088L747.224 846.217ZM624.217 879.176L698.553 922.094L741.471 847.758L667.135 804.84L624.217 879.176Z" fill="black"></path><path d="M777.974 837.976L708.334 958.596L587.715 888.956L657.354 768.337L777.974 837.976ZM593.467 887.415L706.793 952.843L772.221 839.518L658.896 774.089L593.467 887.415Z" fill="black"></path><path d="M1121.44 938.845L1089.21 1027.42L1000.63 995.181L1032.87 906.607L1121.44 938.845ZM1006.03 992.664L1086.69 1022.02L1116.05 941.362L1035.39 912.005L1006.03 992.664Z" fill="black"></path><path d="M1150.3 925.392L1102.66 1056.27L971.78 1008.64L1019.42 877.756L1150.3 925.392ZM977.177 1006.12L1100.14 1050.87L1144.9 927.909L1021.93 883.153L977.177 1006.12Z" fill="black"></path><path d="M1558.4 942.397V1036.66H1464.14V942.397H1558.4ZM1468.35 1032.44H1554.19V946.608H1468.35V1032.44Z" fill="black"></path><path d="M1580.91 919.887V1059.17H1441.63V919.887H1580.91ZM1445.84 1054.95H1576.7V924.098H1445.84V1054.95Z" fill="black"></path><path d="M456.02 675.995C456.612 675.403 457.574 675.403 458.166 675.995C458.758 676.587 458.758 677.549 458.166 678.141L407.248 729.06C406.656 729.652 405.693 729.652 405.101 729.06C404.509 728.468 404.509 727.505 405.101 726.913L456.02 675.995Z" fill="#2A96FB"></path><path d="M484.61 680.903C485.203 680.312 486.162 680.314 486.753 680.907C487.344 681.5 487.341 682.458 486.749 683.049L411.934 757.642C411.341 758.232 410.382 758.23 409.791 757.638C409.2 757.045 409.203 756.087 409.795 755.495L484.61 680.903Z" fill="#2A96FB"></path><path d="M504.038 695.419C504.631 694.828 505.589 694.831 506.181 695.423C506.772 696.016 506.773 696.975 506.181 697.566L426.674 776.847C426.081 777.438 425.122 777.435 424.531 776.843C423.941 776.25 423.943 775.291 424.535 774.7L504.038 695.419Z" fill="#2A96FB"></path><path d="M515.427 717.532C516.018 716.941 516.977 716.941 517.569 717.532C518.161 718.124 518.161 719.086 517.569 719.678L448.787 788.461C448.195 789.053 447.233 789.053 446.641 788.461C446.05 787.869 446.05 786.91 446.641 786.318L515.427 717.532Z" fill="#2A96FB"></path><path d="M512.974 753.708C513.568 753.12 514.527 753.124 515.116 753.717C515.706 754.311 515.706 755.273 515.112 755.863L484.739 786.01C484.145 786.6 483.182 786.596 482.592 786.002C482.004 785.408 482.008 784.449 482.601 783.86L512.974 753.708Z" fill="#2A96FB"></path><path d="M439.944 708.823C440.536 708.233 441.495 708.232 442.086 708.823C442.678 709.415 442.678 710.377 442.086 710.969L420.871 732.185C420.279 732.777 419.316 732.777 418.724 732.185C418.133 731.593 418.134 730.634 418.724 730.042L439.944 708.823Z" fill="#2A96FB"></path><path d="M469.423 679.341C470.015 678.751 470.974 678.75 471.566 679.341C472.158 679.933 472.158 680.896 471.566 681.488L450.35 702.703C449.758 703.295 448.796 703.295 448.204 702.703C447.613 702.112 447.614 701.153 448.204 700.561L469.423 679.341Z" fill="#2A96FB"></path><path d="M427.21 755.276C427.802 754.684 428.765 754.684 429.357 755.276C429.949 755.868 429.949 756.831 429.357 757.423L418.414 768.365C417.822 768.957 416.86 768.957 416.268 768.365C415.676 767.773 415.676 766.811 416.268 766.219L427.21 755.276Z" fill="#2A96FB"></path><path d="M456.699 725.788C457.294 725.2 458.253 725.206 458.842 725.8C459.43 726.396 459.424 727.354 458.829 727.943L437.836 748.714C437.241 749.302 436.282 749.296 435.694 748.702C435.105 748.107 435.111 747.148 435.706 746.559L456.699 725.788Z" fill="#2A96FB"></path><path d="M486.178 696.312C486.773 695.723 487.732 695.729 488.321 696.324C488.909 696.919 488.903 697.878 488.308 698.466L467.315 719.238C466.72 719.825 465.761 719.82 465.173 719.225C464.584 718.63 464.59 717.672 465.185 717.083L486.178 696.312Z" fill="#2A96FB"></path><path d="M444.175 772.036C444.76 771.439 445.719 771.428 446.317 772.012C446.916 772.597 446.927 773.56 446.342 774.158L436.74 783.983C436.155 784.581 435.192 784.593 434.593 784.007C433.996 783.422 433.985 782.463 434.569 781.865L444.175 772.036Z" fill="#2A96FB"></path><path d="M473.671 742.538C474.266 741.95 475.224 741.956 475.813 742.551C476.402 743.146 476.396 744.104 475.801 744.693L454.585 765.686C453.99 766.275 453.032 766.269 452.443 765.674C451.854 765.079 451.86 764.12 452.455 763.532L473.671 742.538Z" fill="#2A96FB"></path><path d="M503.15 713.061C503.745 712.472 504.704 712.478 505.293 713.073C505.881 713.668 505.875 714.627 505.28 715.216L484.065 736.209C483.47 736.797 482.511 736.792 481.922 736.197C481.334 735.601 481.34 734.643 481.935 734.054L503.15 713.061Z" fill="#2A96FB"></path><path d="M490.187 759.526C490.776 758.931 491.734 758.925 492.329 759.514C492.924 760.102 492.929 761.061 492.342 761.656L471.571 782.65C470.982 783.245 470.023 783.25 469.428 782.662C468.833 782.073 468.827 781.115 469.416 780.519L490.187 759.526Z" fill="#2A96FB"></path><path d="M517.437 732.497C518.029 731.906 518.988 731.906 519.58 732.497C520.172 733.089 520.172 734.051 519.58 734.643L501.046 753.177C500.454 753.769 499.491 753.769 498.899 753.177C498.308 752.586 498.308 751.627 498.899 751.035L517.437 732.497Z" fill="#2A96FB"></path><path d="M462.228 675.099C494.145 675.099 520.023 700.972 520.027 732.889L520.014 734.324C519.704 749.153 513.676 763.312 503.162 773.826C492.31 784.679 477.575 790.747 462.228 790.687C430.31 790.686 404.434 764.811 404.434 732.893C404.435 700.975 430.311 675.1 462.228 675.099ZM407.469 732.893C407.469 763.137 431.985 787.655 462.228 787.656H462.237C476.777 787.714 490.738 781.965 501.02 771.684C511.301 761.403 517.049 747.441 516.992 732.901V732.893C516.991 702.649 492.472 678.134 462.228 678.134C431.985 678.135 407.47 702.65 407.469 732.893Z" fill="black"></path><path d="M462.232 652.588C506.58 652.589 542.533 688.54 542.536 732.889C542.621 754.215 534.189 774.694 519.109 789.774C504.03 804.852 483.555 813.28 462.232 813.197V813.202L462.227 813.197L462.223 813.202V813.197C417.875 813.194 381.923 777.246 381.923 732.897C381.923 688.545 417.88 652.588 462.232 652.588ZM384.957 732.897C384.958 775.574 419.555 810.171 462.232 810.171H462.236C482.753 810.252 502.454 802.136 516.962 787.627C531.47 773.119 539.587 753.419 539.506 732.901V732.897C539.506 690.22 504.908 655.623 462.232 655.623C419.554 655.623 384.957 690.219 384.957 732.897Z" fill="black"></path><path d="M720.954 759.463V752.23H721.042L727.505 759.463H731.132L723.735 751.142L730.528 743.602H727.252L721.042 750.537H720.954L720.954 743.602H718.118V759.463H720.954ZM733.88 763.794C736.54 763.794 737.826 762.816 738.827 759.925L743.036 747.811H740.157L737.409 757.133H737.365L734.617 747.811H731.627L735.771 759.474C735.782 759.507 735.617 760.09 735.617 760.122C735.309 761.2 734.727 761.628 733.594 761.628C733.429 761.628 732.946 761.617 732.803 761.584V763.75C732.946 763.783 733.726 763.794 733.88 763.794ZM746.631 759.463L749.049 755.286H749.104L751.522 759.463H754.512L750.808 753.571L754.556 747.811H751.555L749.236 751.9H749.181L746.829 747.811H743.751L747.477 753.648L743.718 759.463H746.631ZM758.876 759.463V754.517H763.8V759.463H766.526V747.811H763.8V752.406H758.876V747.811H756.15V759.463H758.876ZM771.33 759.463L774.045 755.561H775.606V759.463H778.288V747.811H773.374C770.604 747.811 768.813 749.339 768.813 751.791C768.813 753.439 769.791 754.638 771.407 755.132L768.274 759.463H771.33ZM775.606 753.56H773.583C772.33 753.56 771.528 752.813 771.528 751.78C771.528 750.625 772.33 749.9 773.583 749.9H775.606V753.56ZM720.954 781.975V776.731H724.163C727.373 776.731 729.626 774.588 729.626 771.422C729.626 768.257 727.439 766.113 724.284 766.113H718.118V781.975H720.954ZM723.526 774.445H720.954V768.432H723.537C725.57 768.432 726.746 769.521 726.746 771.422C726.746 773.346 725.559 774.445 723.526 774.445ZM735.133 782.161C736.628 782.161 738.09 781.381 738.761 780.117H738.816V781.975H741.454V773.95C741.454 771.609 739.574 770.081 736.683 770.081C733.715 770.081 731.858 771.642 731.737 773.818H734.276C734.452 772.851 735.276 772.225 736.573 772.225C737.925 772.225 738.75 772.928 738.75 774.148V774.984L735.672 775.16C732.836 775.335 731.242 776.577 731.242 778.644C731.242 780.743 732.88 782.161 735.133 782.161ZM735.958 780.095C734.771 780.095 733.979 779.49 733.979 778.534C733.979 777.611 734.738 777.017 736.057 776.929L738.75 776.764V777.655C738.75 779.062 737.508 780.095 735.958 780.095ZM745.345 785.019V781.975H753.611V785.019H756.117V779.864H754.347V770.323H745.488L745.081 776.402C744.971 777.973 744.619 779.358 743.762 779.864H742.839V785.019H745.345ZM751.621 779.864H746.631V779.776C747.169 779.007 747.433 777.864 747.521 776.544L747.818 772.423H751.621V779.864ZM759.744 781.975L762.162 777.798H762.217L764.636 781.975H767.626L763.921 776.083L767.669 770.323H764.669L762.349 774.412H762.294L759.942 770.323H756.864L760.591 776.16L756.831 781.975H759.744ZM771.945 781.975L777.013 774.137H777.101V781.975H779.783V770.323H777.101L772.033 778.105H771.945V770.323H769.263V781.975H771.945ZM784.949 781.975V776.764H785.037L789.368 781.975H792.72L787.554 775.764L792.489 770.323H789.302L785.037 775.181H784.949V770.323H782.223V781.975H784.949ZM796.798 781.975L801.865 774.137H801.953V781.975H804.635V770.323H801.953L796.886 778.105H796.798V770.323H794.116V781.975H796.798Z" fill="black"></path><path d="M410.305 615.385V601.931H417.823V615.385H420.648V599.523H407.458V615.385H410.305ZM426.815 615.572C428.309 615.572 429.771 614.791 430.442 613.527H430.497V615.385H433.135V607.361C433.135 605.019 431.255 603.492 428.364 603.492C425.397 603.492 423.539 605.052 423.418 607.229H425.957C426.133 606.262 426.957 605.635 428.254 605.635C429.606 605.635 430.431 606.338 430.431 607.559V608.394L427.353 608.57C424.517 608.746 422.923 609.988 422.923 612.054C422.923 614.154 424.561 615.572 426.815 615.572ZM427.639 613.505C426.452 613.505 425.66 612.901 425.66 611.944C425.66 611.021 426.419 610.427 427.738 610.34L430.431 610.175V611.065C430.431 612.472 429.189 613.505 427.639 613.505ZM441.148 615.385C443.731 615.385 445.336 614.077 445.336 612.021C445.336 610.559 444.303 609.482 442.775 609.284V609.196C443.929 608.999 444.819 607.91 444.819 606.69C444.819 604.844 443.412 603.733 441.06 603.733H435.531V615.385H441.148ZM440.214 608.493H438.213V605.591H440.423C441.533 605.591 442.148 606.108 442.148 607.02C442.148 607.987 441.489 608.493 440.214 608.493ZM440.598 613.527H438.213V610.23H440.379C441.852 610.23 442.61 610.79 442.61 611.878C442.61 612.945 441.896 613.527 440.598 613.527ZM450.799 615.572C452.294 615.572 453.756 614.791 454.426 613.527H454.481V615.385H457.119V607.361C457.119 605.019 455.24 603.492 452.349 603.492C449.381 603.492 447.523 605.052 447.402 607.229H449.942C450.118 606.262 450.942 605.635 452.239 605.635C453.591 605.635 454.415 606.338 454.415 607.559V608.394L451.338 608.57C448.502 608.746 446.908 609.988 446.908 612.054C446.908 614.154 448.546 615.572 450.799 615.572ZM451.623 613.505C450.436 613.505 449.645 612.901 449.645 611.944C449.645 611.021 450.403 610.427 451.722 610.34L454.415 610.175V611.065C454.415 612.472 453.173 613.505 451.623 613.505ZM462.242 615.385V610.438H467.166V615.385H469.892V603.733H467.166V608.328H462.242V603.733H459.516V615.385H462.242ZM475.784 615.572C477.279 615.572 478.741 614.791 479.411 613.527H479.466V615.385H482.104V607.361C482.104 605.019 480.225 603.492 477.334 603.492C474.366 603.492 472.508 605.052 472.387 607.229H474.926C475.102 606.262 475.927 605.635 477.224 605.635C478.576 605.635 479.4 606.338 479.4 607.559V608.394L476.322 608.57C473.486 608.746 471.893 609.988 471.893 612.054C471.893 614.154 473.53 615.572 475.784 615.572ZM476.608 613.505C475.421 613.505 474.63 612.901 474.63 611.944C474.63 611.021 475.388 610.427 476.707 610.34L479.4 610.175V611.065C479.4 612.472 478.158 613.505 476.608 613.505ZM414.295 638.215C417.944 638.215 420.494 636.237 421.099 632.983H418.285C417.768 634.731 416.306 635.753 414.306 635.753C411.558 635.753 409.821 633.522 409.821 629.96C409.821 626.421 411.569 624.178 414.295 624.178C416.251 624.178 417.812 625.355 418.285 627.179H421.088C420.615 623.926 417.878 621.716 414.295 621.716C409.788 621.716 406.919 624.904 406.919 629.96C406.919 635.049 409.766 638.215 414.295 638.215ZM426.617 638.083C428.112 638.083 429.574 637.303 430.244 636.039H430.299V637.896H432.937V629.872C432.937 627.531 431.057 626.003 428.167 626.003C425.199 626.003 423.341 627.564 423.22 629.74H425.759C425.935 628.773 426.76 628.147 428.057 628.147C429.409 628.147 430.233 628.85 430.233 630.07V630.906L427.155 631.081C424.319 631.257 422.726 632.499 422.726 634.566C422.726 636.665 424.363 638.083 426.617 638.083ZM427.441 636.017C426.254 636.017 425.463 635.412 425.463 634.456C425.463 633.533 426.221 632.939 427.54 632.851L430.233 632.686V633.577C430.233 634.984 428.991 636.017 427.441 636.017ZM438.081 641.733V635.962H438.136C438.774 637.27 440.093 638.083 441.786 638.083C444.709 638.083 446.578 635.786 446.578 632.071C446.578 628.344 444.698 626.047 441.742 626.047C440.049 626.047 438.73 626.904 438.07 628.256H438.015V626.245H435.344V641.733H438.081ZM440.906 635.841C439.202 635.841 438.07 634.357 438.059 632.071C438.07 629.806 439.202 628.3 440.906 628.3C442.676 628.3 443.775 629.773 443.775 632.071C443.775 634.379 442.676 635.841 440.906 635.841ZM453.723 638.127C457.141 638.127 459.362 635.852 459.362 632.071C459.362 628.3 457.119 626.003 453.723 626.003C450.326 626.003 448.084 628.311 448.084 632.071C448.084 635.852 450.304 638.127 453.723 638.127ZM453.723 635.962C451.986 635.962 450.865 634.555 450.865 632.071C450.865 629.597 451.997 628.179 453.723 628.179C455.46 628.179 456.581 629.597 456.581 632.071C456.581 634.555 455.46 635.962 453.723 635.962ZM466.935 637.896C469.518 637.896 471.123 636.588 471.123 634.533C471.123 633.071 470.09 631.994 468.562 631.796V631.708C469.716 631.51 470.607 630.422 470.607 629.202C470.607 627.355 469.2 626.245 466.847 626.245H461.318V637.896H466.935ZM466.001 631.004H464V628.103H466.21C467.32 628.103 467.935 628.619 467.935 629.532C467.935 630.499 467.276 631.004 466.001 631.004ZM466.386 636.039H464V632.741H466.166C467.639 632.741 468.397 633.302 468.397 634.39C468.397 635.456 467.683 636.039 466.386 636.039ZM476.586 638.083C478.081 638.083 479.543 637.303 480.214 636.039H480.268V637.896H482.907V629.872C482.907 627.531 481.027 626.003 478.136 626.003C475.168 626.003 473.311 627.564 473.19 629.74H475.729C475.905 628.773 476.729 628.147 478.026 628.147C479.378 628.147 480.203 628.85 480.203 630.07V630.906L477.125 631.081C474.289 631.257 472.695 632.499 472.695 634.566C472.695 636.665 474.333 638.083 476.586 638.083ZM477.411 636.017C476.223 636.017 475.432 635.412 475.432 634.456C475.432 633.533 476.19 632.939 477.509 632.851L480.203 632.686V633.577C480.203 634.984 478.96 636.017 477.411 636.017ZM488.051 641.733V635.962H488.106C488.743 637.27 490.062 638.083 491.755 638.083C494.679 638.083 496.548 635.786 496.548 632.071C496.548 628.344 494.668 626.047 491.711 626.047C490.018 626.047 488.699 626.904 488.04 628.256H487.985V626.245H485.314V641.733H488.051ZM490.876 635.841C489.172 635.841 488.04 634.357 488.029 632.071C488.04 629.806 489.172 628.3 490.876 628.3C492.645 628.3 493.745 629.773 493.745 632.071C493.745 634.379 492.645 635.841 490.876 635.841Z" fill="black"></path><path d="M1463.85 876.519V863.064H1471.36V876.519H1474.19V860.657H1461V876.519H1463.85ZM1478.22 880.849C1480.88 880.849 1482.17 879.871 1483.17 876.98L1487.38 864.867H1484.5L1481.75 874.188H1481.71L1478.96 864.867H1475.97L1480.11 876.53L1480.09 876.64L1479.99 877.067C1479.97 877.127 1479.96 877.178 1479.96 877.178C1479.65 878.255 1479.07 878.684 1477.94 878.684C1477.77 878.684 1477.29 878.673 1477.15 878.64V880.806C1477.29 880.838 1478.07 880.849 1478.22 880.849ZM1491.63 880.355V874.584H1491.69C1492.33 875.892 1493.64 876.706 1495.34 876.706C1498.26 876.706 1500.13 874.408 1500.13 870.693C1500.13 866.967 1498.25 864.669 1495.29 864.669C1493.6 864.669 1492.28 865.527 1491.62 866.879H1491.57V864.867H1488.9V880.355H1491.63ZM1494.46 874.463C1492.75 874.463 1491.62 872.979 1491.61 870.693C1491.62 868.429 1492.75 866.923 1494.46 866.923C1496.23 866.923 1497.33 868.396 1497.33 870.693C1497.33 873.001 1496.23 874.463 1494.46 874.463ZM1504.83 876.519V871.572H1509.76V876.519H1512.48V864.867H1509.76V869.462H1504.83V864.867H1502.11V876.519H1504.83ZM1518.38 876.706C1519.87 876.706 1521.33 875.925 1522 874.661H1522.06V876.519H1524.7V868.495C1524.7 866.153 1522.82 864.625 1519.93 864.625C1516.96 864.625 1515.1 866.186 1514.98 868.363H1517.52C1517.7 867.395 1518.52 866.769 1519.82 866.769C1521.17 866.769 1521.99 867.472 1521.99 868.692V869.528L1518.92 869.704C1516.08 869.879 1514.49 871.122 1514.49 873.188C1514.49 875.288 1516.12 876.706 1518.38 876.706ZM1519.2 874.639C1518.01 874.639 1517.22 874.034 1517.22 873.078C1517.22 872.155 1517.98 871.561 1519.3 871.473L1521.99 871.308V872.199C1521.99 873.606 1520.75 874.639 1519.2 874.639ZM1529.7 876.519V868.549H1529.78L1533.06 875.98H1535L1538.28 868.549H1538.37V876.519H1540.98V864.867H1537.55L1534.11 873.001H1534.02L1530.58 864.867H1527.09V876.519H1529.7ZM1546.86 876.706C1548.35 876.706 1549.81 875.925 1550.48 874.661H1550.54V876.519H1553.18V868.495C1553.18 866.153 1551.3 864.625 1548.41 864.625C1545.44 864.625 1543.58 866.186 1543.46 868.363H1546C1546.18 867.395 1547 866.769 1548.3 866.769C1549.65 866.769 1550.47 867.472 1550.47 868.692V869.528L1547.4 869.704C1544.56 869.879 1542.97 871.122 1542.97 873.188C1542.97 875.288 1544.6 876.706 1546.86 876.706ZM1547.68 874.639C1546.49 874.639 1545.7 874.034 1545.7 873.078C1545.7 872.155 1546.46 871.561 1547.78 871.473L1550.47 871.308V872.199C1550.47 873.606 1549.23 874.639 1547.68 874.639ZM1560.67 876.749C1563.52 876.749 1565.46 875.134 1565.78 872.693H1563.19C1562.88 873.859 1562.01 874.54 1560.7 874.54C1558.97 874.54 1557.86 873.1 1557.86 870.693C1557.86 868.33 1558.96 866.846 1560.68 866.846C1562.05 866.846 1562.88 867.659 1563.17 868.703H1565.76C1565.44 866.428 1563.59 864.625 1560.65 864.625C1557.27 864.625 1555.1 867 1555.1 870.693C1555.1 874.441 1557.27 876.749 1560.67 876.749ZM1570.3 876.519L1575.37 868.681H1575.46V876.519H1578.14V864.867H1575.46L1570.39 872.649H1570.3V864.867H1567.62V876.519H1570.3ZM1463.85 899.03V885.576H1470.92V883.169H1461V899.03H1463.85ZM1474.16 903.361C1476.82 903.361 1478.1 902.383 1479.1 899.492L1483.31 887.379H1480.43L1477.68 896.7H1477.64L1474.89 887.379H1471.9L1476.05 899.041L1476.03 899.152L1475.92 899.579C1475.9 899.639 1475.89 899.69 1475.89 899.69C1475.58 900.767 1475 901.196 1473.87 901.196C1473.71 901.196 1473.22 901.185 1473.08 901.152V903.317C1473.22 903.35 1474 903.361 1474.16 903.361ZM1493.22 902.866V899.195C1496.95 899.118 1499.43 896.821 1499.43 893.204C1499.43 889.555 1496.98 887.291 1493.22 887.214V883.63H1490.56V887.214C1486.8 887.291 1484.35 889.577 1484.35 893.204C1484.35 896.854 1486.77 899.107 1490.56 899.195V902.866H1493.22ZM1490.57 897.063C1488.45 896.997 1487.1 895.579 1487.1 893.204C1487.1 890.841 1488.46 889.401 1490.57 889.346V897.063ZM1493.19 897.063V889.346C1495.32 889.412 1496.67 890.83 1496.67 893.204C1496.67 895.568 1495.3 897.008 1493.19 897.063ZM1504.83 899.217C1506.33 899.217 1507.79 898.437 1508.46 897.173H1508.52V899.03H1511.15V891.006C1511.15 888.665 1509.28 887.137 1506.38 887.137C1503.42 887.137 1501.56 888.698 1501.44 890.874H1503.98C1504.15 889.907 1504.98 889.28 1506.27 889.28C1507.63 889.28 1508.45 889.984 1508.45 891.204V892.039L1505.37 892.215C1502.54 892.391 1500.94 893.633 1500.94 895.7C1500.94 897.799 1502.58 899.217 1504.83 899.217ZM1505.66 897.151C1504.47 897.151 1503.68 896.546 1503.68 895.59C1503.68 894.666 1504.44 894.073 1505.76 893.985L1508.45 893.82V894.71C1508.45 896.117 1507.21 897.151 1505.66 897.151Z" fill="black"></path><path d="M1073.7 858.511C1077.08 858.511 1079.14 856.796 1079.14 854.004C1079.14 851.905 1077.63 850.355 1075.48 850.146V850.058C1077.1 849.794 1078.37 848.31 1078.37 846.607C1078.37 844.199 1076.51 842.649 1073.63 842.649H1067.05V858.511H1073.7ZM1072.48 849.333H1069.88V844.859H1072.92C1074.61 844.859 1075.57 845.639 1075.57 847.024C1075.57 848.497 1074.46 849.333 1072.48 849.333ZM1073.05 856.301H1069.88V851.344H1072.93C1075.1 851.344 1076.25 852.19 1076.25 853.806C1076.25 855.433 1075.14 856.301 1073.05 856.301ZM1083.84 862.347V856.576H1083.9C1084.53 857.884 1085.85 858.698 1087.55 858.698C1090.47 858.698 1092.34 856.4 1092.34 852.685C1092.34 848.959 1090.46 846.661 1087.5 846.661C1085.81 846.661 1084.49 847.519 1083.83 848.871H1083.78V846.859H1081.11V862.347H1083.84ZM1086.67 856.455C1084.96 856.455 1083.83 854.971 1083.82 852.685C1083.83 850.421 1084.96 848.915 1086.67 848.915C1088.44 848.915 1089.54 850.388 1089.54 852.685C1089.54 854.993 1088.44 856.455 1086.67 856.455ZM1097 858.511L1102.07 850.674H1102.15V858.511H1104.84V846.859H1102.15L1097.09 854.642H1097V846.859H1094.32V858.511H1097ZM1110 858.511V853.564H1114.93V858.511H1117.65V846.859H1114.93V851.454H1110V846.859H1107.28V858.511H1110ZM1121.6 861.556V858.511H1129.87V861.556H1132.37V856.4H1130.6V846.859H1121.74L1121.34 852.938C1121.23 854.51 1120.87 855.895 1120.02 856.4H1119.09V861.556H1121.6ZM1127.88 856.4H1122.89V856.312C1123.42 855.543 1123.69 854.4 1123.78 853.081L1124.07 848.959H1127.88V856.4ZM1137.35 858.698C1138.85 858.698 1140.31 857.917 1140.98 856.653H1141.03V858.511H1143.67V850.487C1143.67 848.145 1141.79 846.618 1138.9 846.618C1135.93 846.618 1134.08 848.178 1133.95 850.355H1136.49C1136.67 849.387 1137.49 848.761 1138.79 848.761C1140.14 848.761 1140.97 849.464 1140.97 850.685V851.52L1137.89 851.696C1135.05 851.872 1133.46 853.114 1133.46 855.18C1133.46 857.28 1135.1 858.698 1137.35 858.698ZM1138.18 856.631C1136.99 856.631 1136.2 856.027 1136.2 855.07C1136.2 854.147 1136.96 853.553 1138.27 853.466L1140.97 853.301V854.191C1140.97 855.598 1139.73 856.631 1138.18 856.631ZM1068.42 884.155V881.022H1079.28V884.155H1081.85V878.626H1079.87V865.161H1069.15L1068.57 874.493C1068.45 876.615 1068.09 877.923 1066.97 878.626H1065.84V884.155H1068.42ZM1077.05 878.626H1070.12V878.538C1070.86 877.67 1071.08 876.45 1071.2 874.669L1071.65 867.546H1077.05V878.626ZM1088.73 881.253C1091.49 881.253 1093.54 879.736 1093.89 877.538H1091.33C1091.03 878.505 1090.06 879.143 1088.79 879.143C1087 879.143 1085.85 877.89 1085.85 876.021V875.856H1094V874.966C1094 871.426 1091.93 869.129 1088.62 869.129C1085.26 869.129 1083.13 871.558 1083.13 875.241C1083.13 878.956 1085.24 881.253 1088.73 881.253ZM1091.32 874.053H1085.88C1085.99 872.427 1087.1 871.251 1088.63 871.251C1090.21 871.251 1091.26 872.405 1091.32 874.053ZM1101.57 881.022C1104.16 881.022 1105.76 879.714 1105.76 877.659C1105.76 876.197 1104.73 875.12 1103.2 874.922V874.834C1104.35 874.636 1105.24 873.548 1105.24 872.328C1105.24 870.481 1103.84 869.371 1101.48 869.371H1095.96V881.022H1101.57ZM1100.64 874.13H1098.64V871.229H1100.85C1101.96 871.229 1102.57 871.745 1102.57 872.657C1102.57 873.625 1101.91 874.13 1100.64 874.13ZM1101.02 879.165H1098.64V875.867H1100.8C1102.28 875.867 1103.03 876.428 1103.03 877.516C1103.03 878.582 1102.32 879.165 1101.02 879.165ZM1110.46 881.022L1115.53 873.185H1115.62V881.022H1118.3V869.371H1115.62L1110.55 877.153H1110.46V869.371H1107.78V881.022H1110.46Z" fill="black"></path><path d="M162.034 354.25V340.785H166.772V338.389H154.461V340.785H159.209V354.25H162.034ZM173.773 354.481C176.532 354.481 178.577 352.964 178.929 350.766H176.368C176.071 351.733 175.103 352.37 173.828 352.37C172.037 352.37 170.894 351.117 170.894 349.249V349.084H179.039V348.194C179.039 344.654 176.972 342.357 173.664 342.357C170.3 342.357 168.168 344.786 168.168 348.468C168.168 352.184 170.278 354.481 173.773 354.481ZM176.357 347.281H170.916C171.025 345.654 172.136 344.478 173.675 344.478C175.246 344.478 176.302 345.632 176.357 347.281ZM183.743 358.086V352.315H183.798C184.436 353.624 185.755 354.437 187.447 354.437C190.371 354.437 192.24 352.14 192.24 348.424C192.24 344.698 190.36 342.401 187.404 342.401C185.711 342.401 184.392 343.258 183.732 344.61H183.677V342.599H181.006V358.086H183.743ZM186.568 352.195C184.864 352.195 183.732 350.711 183.721 348.424C183.732 346.16 184.864 344.654 186.568 344.654C188.338 344.654 189.437 346.127 189.437 348.424C189.437 350.733 188.338 352.195 186.568 352.195ZM201.528 349.029V346.589H194.306V349.029H201.528ZM157.769 376.762V371.551H157.857L162.188 376.762H165.54L160.374 370.551L165.31 365.11H162.122L157.857 369.969H157.769V365.11H155.043V376.762H157.769ZM170.377 376.948C171.872 376.948 173.334 376.168 174.004 374.904H174.059V376.762H176.697V368.737C176.697 366.396 174.818 364.868 171.927 364.868C168.959 364.868 167.101 366.429 166.98 368.606H169.52C169.695 367.638 170.52 367.012 171.817 367.012C173.169 367.012 173.993 367.715 173.993 368.935V369.771L170.916 369.947C168.08 370.122 166.486 371.365 166.486 373.431C166.486 375.531 168.124 376.948 170.377 376.948ZM171.201 374.882C170.014 374.882 169.223 374.277 169.223 373.321C169.223 372.398 169.981 371.804 171.3 371.716L173.993 371.551V372.442C173.993 373.849 172.751 374.882 171.201 374.882ZM180.588 379.806V376.762H188.854V379.806H191.361V374.651H189.591V365.11H180.731L180.325 371.189C180.215 372.761 179.863 374.146 179.006 374.651H178.082V379.806H180.588ZM186.865 374.651H181.875V374.563C182.413 373.794 182.677 372.651 182.765 371.332L183.062 367.21H186.865V374.651ZM196.34 376.948C197.835 376.948 199.297 376.168 199.967 374.904H200.022V376.762H202.66V368.737C202.66 366.396 200.781 364.868 197.89 364.868C194.922 364.868 193.064 366.429 192.943 368.606H195.483C195.658 367.638 196.483 367.012 197.78 367.012C199.132 367.012 199.956 367.715 199.956 368.935V369.771L196.879 369.947C194.043 370.122 192.449 371.365 192.449 373.431C192.449 375.531 194.087 376.948 196.34 376.948ZM197.164 374.882C195.977 374.882 195.186 374.277 195.186 373.321C195.186 372.398 195.944 371.804 197.263 371.716L199.956 371.551V372.442C199.956 373.849 198.714 374.882 197.164 374.882ZM207.662 376.762V368.792H207.739L211.025 376.223H212.96L216.246 368.792H216.334V376.762H218.939V365.11H215.51L212.069 373.244H211.982L208.541 365.11H205.057V376.762H207.662ZM226.722 376.992C230.217 376.992 232.372 374.739 232.372 371.079C232.372 367.66 230.349 365.495 227.194 365.495C225.337 365.495 223.963 366.264 223.237 367.66H223.149C223.556 364.506 224.567 363.121 227.579 363.022L228.711 362.989C230.217 362.934 231.36 362.637 231.602 362.417V360.23C231.174 360.461 229.898 360.702 228.546 360.757L227.37 360.79C223.017 360.944 220.984 363.527 220.984 370.035C220.984 374.618 223.028 376.992 226.722 376.992ZM226.689 374.772C224.853 374.772 223.787 373.464 223.787 371.134C223.787 368.902 224.864 367.627 226.689 367.627C228.502 367.627 229.569 368.902 229.569 371.134C229.569 373.464 228.502 374.772 226.689 374.772ZM237.78 376.948C239.275 376.948 240.737 376.168 241.407 374.904H241.462V376.762H244.1V368.737C244.1 366.396 242.22 364.868 239.33 364.868C236.362 364.868 234.504 366.429 234.383 368.606H236.922C237.098 367.638 237.923 367.012 239.22 367.012C240.572 367.012 241.396 367.715 241.396 368.935V369.771L238.318 369.947C235.482 370.122 233.889 371.365 233.889 373.431C233.889 375.531 235.526 376.948 237.78 376.948ZM238.604 374.882C237.417 374.882 236.626 374.277 236.626 373.321C236.626 372.398 237.384 371.804 238.703 371.716L241.396 371.551V372.442C241.396 373.849 240.154 374.882 238.604 374.882Z" fill="black"></path><path d="M1292.39 369.95C1344.55 317.798 1423 302.232 1491.11 330.521C1559.22 358.811 1603.56 425.375 1603.42 499.129C1603.23 599.481 1521.93 680.783 1421.57 680.975C1347.82 681.115 1281.26 636.777 1252.97 568.664C1224.68 500.551 1240.24 422.102 1292.39 369.95ZM1489.49 334.412C1422.95 306.777 1346.32 321.981 1295.37 372.927C1244.43 423.874 1229.22 500.509 1256.86 567.048C1284.49 633.587 1349.52 676.901 1421.57 676.764C1519.6 676.576 1599.02 597.154 1599.21 499.121C1599.35 427.072 1556.03 362.048 1489.49 334.412Z" fill="black"></path><path d="M1276.47 354.032C1335.07 295.436 1423.21 277.949 1499.74 309.734C1576.27 341.519 1626.09 416.308 1625.93 499.175C1625.72 611.925 1534.37 703.273 1421.62 703.49C1338.75 703.648 1263.96 653.829 1232.18 577.3C1200.39 500.771 1217.88 412.627 1276.47 354.032ZM1498.13 313.624C1423.17 282.494 1336.85 299.623 1279.46 357.013C1222.07 414.403 1204.94 500.729 1236.07 575.684C1267.2 650.639 1340.45 699.433 1421.61 699.279C1532.04 699.067 1621.51 609.597 1621.72 499.167C1621.88 418.004 1573.08 344.755 1498.13 313.624Z" fill="black"></path><path d="M1366.61 507.778V502.535H1369.82C1373.03 502.535 1375.29 500.392 1375.29 497.226C1375.29 494.06 1373.1 491.917 1369.94 491.917H1363.78V507.778H1366.61ZM1369.18 500.249H1366.61V494.236H1369.2C1371.23 494.236 1372.41 495.325 1372.41 497.226C1372.41 499.15 1371.22 500.249 1369.18 500.249ZM1380.79 507.965C1382.29 507.965 1383.75 507.185 1384.42 505.921H1384.47V507.778H1387.11V499.754C1387.11 497.413 1385.23 495.885 1382.34 495.885C1379.37 495.885 1377.52 497.446 1377.4 499.622H1379.94C1380.11 498.655 1380.94 498.029 1382.23 498.029C1383.58 498.029 1384.41 498.732 1384.41 499.952V500.788L1381.33 500.963C1378.5 501.139 1376.9 502.381 1376.9 504.448C1376.9 506.547 1378.54 507.965 1380.79 507.965ZM1381.62 505.899C1380.43 505.899 1379.64 505.294 1379.64 504.338C1379.64 503.415 1380.4 502.821 1381.72 502.733L1384.41 502.568V503.459C1384.41 504.866 1383.17 505.899 1381.62 505.899ZM1394.61 508.009C1397.46 508.009 1399.39 506.393 1399.72 503.953H1397.13C1396.82 505.118 1395.95 505.8 1394.63 505.8C1392.91 505.8 1391.8 504.36 1391.8 501.953C1391.8 499.589 1392.89 498.105 1394.62 498.105C1395.98 498.105 1396.82 498.919 1397.1 499.963H1399.7C1399.38 497.688 1397.52 495.885 1394.59 495.885C1391.2 495.885 1389.04 498.259 1389.04 501.953C1389.04 505.701 1391.2 508.009 1394.61 508.009ZM1405 507.965C1406.49 507.965 1407.95 507.185 1408.62 505.921H1408.68V507.778H1411.32V499.754C1411.32 497.413 1409.44 495.885 1406.55 495.885C1403.58 495.885 1401.72 497.446 1401.6 499.622H1404.14C1404.32 498.655 1405.14 498.029 1406.44 498.029C1407.79 498.029 1408.61 498.732 1408.61 499.952V500.788L1405.54 500.963C1402.7 501.139 1401.11 502.381 1401.11 504.448C1401.11 506.547 1402.74 507.965 1405 507.965ZM1405.82 505.899C1404.63 505.899 1403.84 505.294 1403.84 504.338C1403.84 503.415 1404.6 502.821 1405.92 502.733L1408.61 502.568V503.459C1408.61 504.866 1407.37 505.899 1405.82 505.899ZM1418.81 508.009C1421.66 508.009 1423.6 506.393 1423.92 503.953H1421.33C1421.02 505.118 1420.15 505.8 1418.84 505.8C1417.11 505.8 1416 504.36 1416 501.953C1416 499.589 1417.1 498.105 1418.82 498.105C1420.19 498.105 1421.02 498.919 1421.31 499.963H1423.9C1423.58 497.688 1421.73 495.885 1418.79 495.885C1415.41 495.885 1413.24 498.259 1413.24 501.953C1413.24 505.701 1415.41 508.009 1418.81 508.009ZM1431.3 507.778V498.237H1434.88V496.127H1425V498.237H1428.59V507.778H1431.3ZM1438.65 507.778L1441.07 503.601H1441.13L1443.55 507.778H1446.54L1442.83 501.887L1446.58 496.127H1443.58L1441.26 500.216H1441.2L1438.85 496.127H1435.77L1439.5 501.964L1435.74 507.778H1438.65ZM1451.61 507.965C1453.11 507.965 1454.57 507.185 1455.24 505.921H1455.3V507.778H1457.93V499.754C1457.93 497.413 1456.05 495.885 1453.16 495.885C1450.2 495.885 1448.34 497.446 1448.22 499.622H1450.76C1450.93 498.655 1451.76 498.029 1453.05 498.029C1454.41 498.029 1455.23 498.732 1455.23 499.952V500.788L1452.15 500.963C1449.32 501.139 1447.72 502.381 1447.72 504.448C1447.72 506.547 1449.36 507.965 1451.61 507.965ZM1452.44 505.899C1451.25 505.899 1450.46 505.294 1450.46 504.338C1450.46 503.415 1451.22 502.821 1452.54 502.733L1455.23 502.568V503.459C1455.23 504.866 1453.99 505.899 1452.44 505.899ZM1460.34 507.899C1463.08 507.899 1463.96 505.723 1464.18 502.348L1464.45 498.237H1467.77V507.778H1470.5V496.127H1462.09L1461.72 502.205C1461.61 504.14 1461.23 505.503 1460.1 505.503C1459.79 505.503 1459.56 505.448 1459.45 505.415V507.767C1459.59 507.822 1459.91 507.899 1460.34 507.899ZM1475.62 507.778L1480.69 499.941H1480.78V507.778H1483.46V496.127H1480.78L1475.71 503.909H1475.62V496.127H1472.94V507.778H1475.62Z" fill="black"></path><path d="M697.228 663.111V649.35H712.661V663.111H718.311V631.389H712.661V644.579H697.228V631.389H691.556V663.111H697.228ZM746.743 663.111L749.447 654.911H761.121L763.825 663.111H769.805L758.549 631.389H752.151L740.896 663.111H746.743ZM759.78 650.537H750.766L755.207 636.995H755.361L759.78 650.537ZM798.061 663.111V649.35H813.494V663.111H819.144V631.389H813.494V644.579H798.061V631.389H792.389V663.111H798.061ZM846.675 669.377V663.111H868.395V669.377H873.539V658.319H869.582V631.389H848.126L846.983 650.053C846.741 654.296 846.016 656.912 843.773 658.319H841.509V669.377H846.675ZM863.932 658.319H850.083V658.143C851.555 656.406 851.995 653.966 852.237 650.405L853.138 636.159H863.932V658.319ZM900.015 663.111L902.719 654.911H914.393L917.097 663.111H923.077L911.821 631.389H905.423L894.168 663.111H900.015ZM913.052 650.537H904.038L908.479 636.995H908.633L913.052 650.537ZM951.355 663.111V636.203H965.513V631.389H945.661V663.111H951.355ZM994.363 663.111V652.625H1000.78C1007.2 652.625 1011.71 648.338 1011.71 642.007C1011.71 635.676 1007.33 631.389 1001.02 631.389H988.691V663.111H994.363ZM999.507 648.052H994.363V636.027H999.529C1003.6 636.027 1005.95 638.204 1005.95 642.007C1005.95 645.854 1003.57 648.052 999.507 648.052ZM1036.21 663.111L1038.91 654.911H1050.58L1053.29 663.111H1059.27L1048.01 631.389H1041.61L1030.36 663.111H1036.21ZM1049.24 650.537H1040.23L1044.67 636.995H1044.82L1049.24 650.537ZM1086.97 663.111V640.6H1087.13L1096.3 662.848H1100.16L1109.33 640.6H1109.49V663.111H1114.59V631.389H1108.03L1098.32 655.329H1098.14L1088.43 631.389H1081.85V663.111H1086.97Z" fill="#D2AA1B"></path><path d="M800.351 175.706C854.107 167.404 903.79 161.838 944.536 166.318C1006.17 173.095 1054.17 215.47 1094.23 255.53C1114.35 275.654 1132.4 295.119 1149.35 309.582C1166.35 324.082 1181.73 333.071 1196.4 332.886C1200.63 332.825 1205.58 331.092 1211.46 327.828C1217.31 324.578 1223.87 319.935 1231.29 314.311C1246.07 303.114 1264.16 288.075 1286.05 273.221C1329.95 243.442 1389.55 214.087 1471.12 215.83L1474.84 215.945C1552.81 219.108 1612.9 270.235 1653.56 350.721C1694.86 432.455 1716.3 544.759 1716.31 669.025L1716.51 679.638C1718.44 788.655 1713.96 877.002 1703.03 944.634C1691.76 1014.35 1673.58 1062.44 1648.17 1088.35C1625.39 1111.58 1593.55 1124.95 1560.18 1132.66C1528.88 1139.89 1496.04 1142.18 1467.71 1142.89L1462.11 1143.02C1416.08 1143.9 1187.98 1141.61 1137.86 1140.7L1130.32 1140.53C1056.47 1138.46 891.822 1121.78 759.076 1079.89C693.632 1059.23 521.598 984.119 391.104 876.341C312.823 811.687 226.51 705.117 132.145 556.788L129.731 553.177C104.719 515.309 77.6033 460.567 60.4757 406.73C51.6345 378.939 45.4333 351.32 43.5783 326.343C41.7257 301.397 44.1926 278.888 52.8886 261.464C56.0615 255.106 63.1192 249.817 72.5494 245.327C82.0525 240.803 94.3206 236.925 108.413 233.582C136.608 226.894 172.443 222.275 208.843 219.041C281.648 212.573 357.102 211.611 378.857 210.776C411.13 209.536 520.776 214.544 630.826 201.782C688.531 195.091 746.484 184.025 800.351 175.706ZM944.075 170.504C903.941 166.092 854.757 171.564 800.992 179.868C747.337 188.154 689.11 199.262 631.311 205.964C521.1 218.744 410.713 213.765 379.018 214.983C357.111 215.824 281.88 216.78 209.217 223.236C172.884 226.464 137.287 231.06 109.387 237.678C95.432 240.989 83.4827 244.787 74.3588 249.131C65.1626 253.509 59.1815 258.282 56.6554 263.343C48.4378 279.809 45.9516 301.452 47.777 326.031C49.6 350.578 55.7072 377.859 64.4852 405.451C81.4952 458.92 108.444 513.309 133.239 550.85L135.632 554.431L135.665 554.481L144.482 568.253C235.323 709.287 318.428 810.854 393.785 873.093C523.771 980.451 695.289 1055.34 760.342 1075.87C892.6 1117.61 1056.84 1134.26 1130.44 1136.32L1137.97 1136.49C1188.04 1137.4 1416.08 1139.68 1462.03 1138.8L1467.61 1138.68C1495.82 1137.98 1528.32 1135.69 1559.23 1128.55C1592.21 1120.93 1623.17 1107.83 1645.16 1085.41C1669.61 1060.48 1687.63 1013.52 1698.87 943.96C1710.1 874.503 1714.51 782.903 1712.09 669.115V669.07C1712.09 545.19 1690.71 433.583 1649.81 352.621C1608.91 271.679 1548.71 221.659 1471.03 220.041H1471.03C1390.63 218.322 1331.87 247.224 1288.42 276.704C1266.64 291.479 1248.81 306.322 1233.84 317.666C1226.39 323.312 1219.63 328.106 1213.5 331.508C1207.4 334.896 1201.72 337.025 1196.46 337.101H1196.46C1180.12 337.309 1163.7 327.353 1146.62 312.785C1129.49 298.178 1111.2 278.455 1091.25 258.507C1051.16 218.421 1004.1 177.104 944.075 170.504Z" fill="#D2AA1B"></path><path d="M1679.82 742.506C1683.25 741.258 1684.97 738.526 1684.42 735.262L1681.78 736.224C1681.89 738.043 1680.87 739.504 1678.99 740.188C1676.4 741.128 1674.01 739.625 1672.79 736.279C1671.58 732.953 1672.45 730.248 1675.02 729.316C1676.85 728.646 1678.72 729.218 1679.79 730.771L1682.43 729.812C1680.87 726.916 1677.54 725.776 1674.17 727.002C1669.94 728.543 1668.33 732.52 1670.06 737.271C1671.8 742.054 1675.56 744.055 1679.82 742.506ZM1691.35 738.167C1692.76 737.656 1693.86 736.423 1694.06 735.006L1694.11 734.987L1694.75 736.732L1697.23 735.83L1694.48 728.29C1693.68 726.09 1691.39 725.297 1688.68 726.286C1685.89 727.301 1684.68 729.403 1685.31 731.489L1687.69 730.621C1687.53 729.652 1688.09 728.781 1689.31 728.337C1690.58 727.875 1691.59 728.254 1692.01 729.401L1692.29 730.186L1689.46 731.404C1686.86 732.539 1685.78 734.251 1686.49 736.193C1687.21 738.166 1689.23 738.938 1691.35 738.167ZM1691.42 735.944C1690.3 736.35 1689.35 736.052 1689.03 735.154C1688.71 734.286 1689.22 733.469 1690.43 732.935L1692.9 731.859L1693.21 732.696C1693.69 734.018 1692.88 735.414 1691.42 735.944ZM1702.04 734.078L1700.35 729.43L1704.98 727.746L1706.67 732.394L1709.23 731.462L1705.24 720.513L1702.68 721.445L1704.25 725.763L1699.63 727.447L1698.05 723.129L1695.49 724.062L1699.48 735.011L1702.04 734.078ZM1714.09 729.691L1712.31 724.795L1712.39 724.765L1718.25 728.18L1721.4 727.033L1714.42 722.964L1717.19 716.163L1714.2 717.253L1711.85 723.277L1711.77 723.308L1710.11 718.742L1707.55 719.674L1711.53 730.623L1714.09 729.691ZM1727.61 725.017C1730.2 724.073 1731.61 721.948 1731.18 719.762L1728.78 720.638C1728.83 721.649 1728.14 722.579 1726.94 723.015C1725.26 723.628 1723.75 722.841 1723.11 721.085L1723.06 720.93L1730.71 718.144L1730.41 717.308C1729.2 713.982 1726.47 712.53 1723.36 713.661C1720.2 714.812 1719.03 717.824 1720.29 721.284C1721.56 724.775 1724.33 726.212 1727.61 725.017ZM1727.58 717.368L1722.46 719.229C1722.01 717.662 1722.65 716.177 1724.1 715.651C1725.57 715.114 1726.96 715.837 1727.58 717.368ZM1739.52 720.435L1736.26 711.469L1739.63 710.244L1738.91 708.261L1729.62 711.64L1730.34 713.624L1733.71 712.398L1736.97 721.364L1739.52 720.435Z" fill="black"></path></g><defs><clipPath id="clip0_2088_10392"><rect width="1260" height="1785" fill="white" transform="matrix(0 1 -1 0 1785 0)"></rect></clipPath></defs></svg> 