<?xml version="1.0" encoding="UTF-8"?> <svg xmlns="http://www.w3.org/2000/svg" xmlns:xlink="http://www.w3.org/1999/xlink" width="405px" height="110px" viewBox="0 0 405 110"> <title>1200</title> <defs> <radialGradient cx="75.381116%" cy="-4.33877037%" fx="75.381116%" fy="-4.33877037%" r="180.419455%" gradientTransform="translate(0.753811,-0.043388),scale(0.270864,1.000000),rotate(-30.459206),scale(1.000000,0.891476),translate(-0.753811,0.043388)" id="radialGradient-1"> <stop stop-color="#F8F392" offset="0%"></stop> <stop stop-color="#AA6B08" offset="100%"></stop> </radialGradient> </defs> <g id="Page-1" stroke="none" stroke-width="1" fill="none" fill-rule="evenodd"> <g id="Artboard-Copy-33" transform="translate(-222.000000, -1591.000000)" fill="url(#radialGradient-1)" fill-rule="nonzero"> <path d="M267.047852,1699 L289.533203,1593.31152 L258.478516,1593.31152 C258.478516,1593.31152 251.780327,1597.22689 244.680247,1601.37718 L243.772156,1601.90799 L243.772156,1601.90799 L242.862609,1602.43966 C235.436626,1606.78045 228.15625,1611.03613 228.15625,1611.03613 L222.516602,1637.76953 C222.516602,1637.76953 229.052998,1633.96742 235.981578,1629.93718 L236.867735,1629.42172 L236.867735,1629.42172 L237.755312,1628.90543 L237.755312,1628.90543 L238.641469,1628.38997 C245.570049,1624.35973 252.106445,1620.55762 252.106445,1620.55762 L252.692383,1620.55762 L235.993164,1699 L267.047852,1699 Z M401.374023,1699 L406.354492,1675.5625 L364.899414,1675.5625 L364.972656,1674.97656 L380.939453,1663.47754 C409.503906,1642.89648 415.949219,1635.13281 415.949219,1621.65625 C415.949219,1604.07812 399.542969,1591.48047 376.691406,1591.48047 C351.789062,1591.48047 332.599609,1606.78809 331.28125,1627.66211 L359.259766,1627.66211 C360.871094,1619.38574 366.657227,1614.84473 374.494141,1614.84473 C381.012695,1614.84473 385.700195,1618.65332 385.700195,1624.29297 C385.700195,1630.95801 381.378906,1635.35254 359.992188,1651.02637 L323.517578,1677.68652 L318.830078,1699 L401.374023,1699 Z M464.728516,1700.83105 C496.735352,1700.83105 519.879883,1672.70605 519.879883,1633.8877 C519.879883,1608.47266 503.253906,1591.48047 478.27832,1591.48047 C446.344727,1591.48047 423.493164,1619.3125 423.493164,1658.13086 C423.493164,1683.69238 440.045898,1700.83105 464.728516,1700.83105 Z M465.973633,1677.17383 C458.649414,1677.17383 454.84082,1670.3623 454.84082,1657.39844 C454.84082,1635.05957 465.314453,1615.1377 477.106445,1615.1377 C484.650391,1615.1377 488.532227,1621.80273 488.532227,1634.69336 C488.532227,1657.03223 477.838867,1677.17383 465.973633,1677.17383 Z M571.076172,1700.83105 C603.083008,1700.83105 626.227539,1672.70605 626.227539,1633.8877 C626.227539,1608.47266 609.601562,1591.48047 584.625977,1591.48047 C552.692383,1591.48047 529.84082,1619.3125 529.84082,1658.13086 C529.84082,1683.69238 546.393555,1700.83105 571.076172,1700.83105 Z M572.321289,1677.17383 C564.99707,1677.17383 561.188477,1670.3623 561.188477,1657.39844 C561.188477,1635.05957 571.662109,1615.1377 583.454102,1615.1377 C590.998047,1615.1377 594.879883,1621.80273 594.879883,1634.69336 C594.879883,1657.03223 584.186523,1677.17383 572.321289,1677.17383 Z" id="1200"></path> </g> </g> </svg> 