<?xml version="1.0" encoding="UTF-8"?> <svg xmlns="http://www.w3.org/2000/svg" width="1920" height="1920" viewBox="0 0 1920 1920" fill="none"><path d="M1364.74 360H553.789C459.053 360 382 437.053 382 531.789V1097.68C382 1192.42 459.053 1269.47 553.789 1269.47H745.789C745.789 1318.74 736.947 1384.42 710.421 1453.89C697.789 1484.21 706.632 1518.32 731.895 1541.05C747.053 1553.68 764.737 1560 783.684 1560C796.316 1560 810.211 1556.21 822.842 1549.89C952.947 1475.37 1062.84 1347.79 1122.21 1269.47H1366C1460.74 1269.47 1537.79 1192.42 1537.79 1097.68V531.789C1536.53 437.053 1459.47 360 1364.74 360ZM1474.63 1097.68C1474.63 1158.32 1425.37 1207.58 1364.74 1207.58H1105.79C1095.68 1207.58 1086.84 1212.63 1080.53 1220.21C1027.47 1292.21 918.842 1423.58 791.263 1495.58C782.421 1500.63 774.842 1495.58 772.316 1493.05C769.789 1490.53 763.474 1484.21 767.263 1475.37C803.895 1380.63 808.947 1293.47 806.421 1236.63C805.158 1220.21 792.526 1207.58 774.842 1207.58H553.789C493.158 1207.58 443.895 1158.32 443.895 1097.68V531.789C443.895 471.158 493.158 421.895 553.789 421.895H1364.74C1425.37 421.895 1474.63 471.158 1474.63 531.789V1097.68Z" fill="black"></path><path d="M959.264 490.106C774.843 490.106 625.79 640.422 625.79 823.58C625.79 1008 776.106 1157.05 959.264 1157.05C1143.68 1157.05 1292.74 1006.74 1292.74 823.58C1292.74 640.422 1143.68 490.106 959.264 490.106ZM840.527 565.895C824.106 589.895 810.211 618.948 800.106 651.79C782.422 646.737 764.737 641.685 748.316 635.369C773.579 605.053 805.158 582.316 840.527 565.895ZM718.001 674.527C739.474 683.369 763.474 692.211 787.474 698.527C781.158 730.106 776.106 764.211 774.843 799.58H676.316C680.106 754.106 694.001 711.158 718.001 674.527ZM718.001 973.895C695.264 937.264 680.106 894.316 676.316 848.843H774.843C776.106 884.211 781.158 918.316 787.474 949.895C763.474 956.211 739.474 963.79 718.001 973.895ZM748.316 1014.32C764.737 1008 782.422 1001.68 800.106 996.632C811.474 1029.47 824.106 1058.53 840.527 1082.53C805.158 1066.11 773.579 1043.37 748.316 1014.32ZM934.001 1102.74C901.158 1088.84 868.316 1047.16 848.106 986.527C875.895 981.474 904.948 978.948 934.001 977.685V1102.74ZM934.001 928.422C899.895 929.685 867.053 933.474 834.211 939.79C827.895 912.001 824.106 881.685 822.843 850.106H934.001V928.422ZM934.001 799.58H824.106C825.369 766.737 829.158 736.422 835.474 709.895C867.053 716.211 901.158 720.001 935.264 721.264V799.58H934.001ZM934.001 670.737C903.685 669.474 875.895 666.948 848.106 661.895C869.58 601.264 901.158 559.58 934.001 545.685V670.737ZM1170.21 634.106C1153.79 640.422 1136.11 646.737 1118.42 651.79C1107.05 618.948 1094.42 589.895 1078 565.895C1113.37 582.316 1144.95 605.053 1170.21 634.106ZM984.527 544.422C1017.37 558.316 1050.21 600.001 1070.42 660.632C1042.63 665.685 1013.58 668.211 984.527 669.474V544.422ZM984.527 720.001C1018.63 718.737 1051.47 714.948 1084.32 708.632C1090.63 736.422 1094.42 766.737 1095.68 798.316H984.527V720.001ZM984.527 848.843H1094.42C1093.16 881.685 1089.37 912.001 1083.05 938.527C1051.47 932.211 1017.37 928.422 983.264 927.159V848.843H984.527ZM984.527 1102.74V976.422C1014.84 977.685 1042.63 980.211 1070.42 985.264C1048.95 1047.16 1017.37 1088.84 984.527 1102.74ZM1078 1082.53C1094.42 1058.53 1108.32 1029.47 1118.42 996.632C1136.11 1001.68 1153.79 1006.74 1170.21 1014.32C1144.95 1043.37 1113.37 1066.11 1078 1082.53ZM1200.53 973.895C1177.79 965.053 1155.05 956.211 1131.05 949.895C1137.37 918.316 1142.42 884.211 1143.68 848.843H1242.21C1238.42 894.316 1224.53 937.264 1200.53 973.895ZM1242.21 799.58H1143.68C1142.42 764.211 1137.37 730.106 1131.05 698.527C1155.05 692.211 1179.05 683.369 1200.53 674.527C1224.53 711.158 1238.42 754.106 1242.21 799.58Z" fill="black"></path></svg> 