<?xml version="1.0" encoding="UTF-8"?> <svg xmlns="http://www.w3.org/2000/svg" xmlns:xlink="http://www.w3.org/1999/xlink" width="599px" height="110px" viewBox="0 0 599 110"> <title>2000м</title> <defs> <radialGradient cx="75.381116%" cy="-4.33877037%" fx="75.381116%" fy="-4.33877037%" r="248.02176%" gradientTransform="translate(0.753811,-0.043388),scale(0.182719,1.000000),rotate(-21.638812),scale(1.000000,0.891476),translate(-0.753811,0.043388)" id="radialGradient-1"> <stop stop-color="#F8F392" offset="0%"></stop> <stop stop-color="#AA6B08" offset="100%"></stop> </radialGradient> </defs> <g id="Page-1" stroke="none" stroke-width="1" fill="none" fill-rule="evenodd"> <g id="Artboard-Copy-33" transform="translate(-545.000000, -419.000000)" fill="url(#radialGradient-1)" fill-rule="nonzero"> <path d="M627.986328,527 L632.966797,503.5625 L591.511719,503.5625 L591.584961,502.976562 L607.551758,491.477539 C636.116211,470.896484 642.561523,463.132812 642.561523,449.65625 C642.561523,432.078125 626.155273,419.480469 603.303711,419.480469 C578.401367,419.480469 559.211914,434.788086 557.893555,455.662109 L585.87207,455.662109 C587.483398,447.385742 593.269531,442.844727 601.106445,442.844727 C607.625,442.844727 612.3125,446.65332 612.3125,452.292969 C612.3125,458.958008 607.991211,463.352539 586.604492,479.026367 L550.129883,505.686523 L545.442383,527 L627.986328,527 Z M721.516602,528.831055 C753.523438,528.831055 776.667969,500.706055 776.667969,461.887695 C776.667969,436.472656 760.041992,419.480469 735.066406,419.480469 C703.132812,419.480469 680.28125,447.3125 680.28125,486.130859 C680.28125,511.692383 696.833984,528.831055 721.516602,528.831055 Z M722.761719,505.173828 C715.4375,505.173828 711.628906,498.362305 711.628906,485.398438 C711.628906,463.05957 722.102539,443.137695 733.894531,443.137695 C741.438477,443.137695 745.320312,449.802734 745.320312,462.693359 C745.320312,485.032227 734.626953,505.173828 722.761719,505.173828 Z M827.864258,528.831055 C859.871094,528.831055 883.015625,500.706055 883.015625,461.887695 C883.015625,436.472656 866.389648,419.480469 841.414062,419.480469 C809.480469,419.480469 786.628906,447.3125 786.628906,486.130859 C786.628906,511.692383 803.181641,528.831055 827.864258,528.831055 Z M829.109375,505.173828 C821.785156,505.173828 817.976562,498.362305 817.976562,485.398438 C817.976562,463.05957 828.450195,443.137695 840.242188,443.137695 C847.786133,443.137695 851.667969,449.802734 851.667969,462.693359 C851.667969,485.032227 840.974609,505.173828 829.109375,505.173828 Z M934.211914,528.831055 C966.21875,528.831055 989.363281,500.706055 989.363281,461.887695 C989.363281,436.472656 972.737305,419.480469 947.761719,419.480469 C915.828125,419.480469 892.976562,447.3125 892.976562,486.130859 C892.976562,511.692383 909.529297,528.831055 934.211914,528.831055 Z M935.457031,505.173828 C928.132812,505.173828 924.324219,498.362305 924.324219,485.398438 C924.324219,463.05957 934.797852,443.137695 946.589844,443.137695 C954.133789,443.137695 958.015625,449.802734 958.015625,462.693359 C958.015625,485.032227 947.322266,505.173828 935.457031,505.173828 Z M1046.27246,527 L1057.03906,476.316406 L1058.28418,476.316406 L1064.80273,520.701172 L1084.13867,520.701172 L1109.48047,476.316406 L1110.79883,476.316406 L1100.03223,527 L1126.69238,527 L1143.9043,446.140625 L1105.45215,446.140625 L1081.72168,489.866211 L1080.25684,489.866211 L1075.34961,446.140625 L1036.82422,446.140625 L1019.6123,527 L1046.27246,527 Z" id="2000м"></path> </g> </g> </svg> 