<?xml version="1.0" encoding="UTF-8"?> <svg xmlns="http://www.w3.org/2000/svg" xmlns:xlink="http://www.w3.org/1999/xlink" width="1106px" height="279px" viewBox="0 0 1106 279"> <title>Mahabhava Dhama Water&amp;Electro Copy 9</title> <defs> <filter x="-7.1%" y="-41.2%" width="114.3%" height="182.4%" filterUnits="objectBoundingBox" id="filter-1"> <feGaussianBlur stdDeviation="25" in="SourceGraphic"></feGaussianBlur> </filter> </defs> <g id="Mahabhava-Dhama-Water&amp;Electro-Copy-9" stroke="none" stroke-width="1" fill="none" fill-rule="evenodd"> <ellipse id="Oval" fill="#D2AA1B" opacity="0.500139509" filter="url(#filter-1)" cx="553" cy="144" rx="526" ry="91"></ellipse> <g id="Group-2" transform="translate(35.000000, 35.000000)" stroke="#D2AA1B" stroke-linecap="round" stroke-linejoin="round"> <polyline id="Shape" points="869.49309 186.611297 879.86592 185.157485 890.23875 183.471063 900.498831 181.435726 910.815287 179.225932 921.018995 176.725376 931.166328 173.992209 941.257288 170.96828 951.179125 167.769894 961.157336 164.222593 970.966425 160.500835 980.662766 156.546466 990.359107 152.301336 999.886326 147.823595 1009.35717 143.055092"></polyline> <polyline id="Shape" points="680.132571 201.382026 703.866057 200.626043 727.599543 199.521146 751.276654 198.125487 775.01014 196.439065 798.630877 194.403728 822.307989 192.135782 845.928727 189.51892 869.49309 186.611297"></polyline> <path d="M1001.97217,50.3600445 C925.865344,21.4597377 845.507801,6.27391932 764.411814,5.46633278" id="Shape"></path> <path d="M1009.35717,142.996939 C1027.52668,134.19274 1038.48261,114.672027 1036.83736,94.0341438 C1035.19211,73.3962608 1021.2919,55.9840692 1001.97217,50.3600445" id="Shape"></path> <polyline id="Shape" points="29.4066208 162.826934 38.9902135 167.130217 48.6865545 171.20089 58.4956436 175.038954 68.3047327 178.644407 78.2265699 182.017251 88.2611553 185.099332 98.3521148 187.948804 108.499448 190.507513 118.703156 192.833612 128.963238 194.927101 139.279693 196.78798 149.596149 198.358097 160.025353 199.637451 170.398183 200.684196"></polyline> <path d="M278.523659,14.0728993 C194.307883,18.0928182 111.383358,36.9750621 33.352806,69.8992766" id="Shape"></path> <path d="M33.352806,69.8992766 C14.2052045,76.238661 0.91311117,94.2115162 0.0450632686,114.936218 C-0.822984633,135.660921 10.916805,154.749422 29.4629948,162.768781" id="Shape"></path> <polyline id="Shape" points="170.398183 200.684196 193.229683 202.603228 216.117558 204.173344 239.005432 205.569004 261.893307 206.615748 284.837556 207.313578 307.72543 207.83695 330.669679 208.011408 353.557553 207.953255 376.501802 207.604341"></polyline> <polyline id="Shape" points="764.411814 5.46633278 734.026187 3.83806344 703.640561 2.44240401 673.311308 1.39565943 642.869307 0.63967724 612.483681 0.174457429 582.098054 0 551.656054 0.0581524763 521.270427 0.523372287 490.828427 1.221202 460.4428 2.15164162 430.113548 3.4309961 399.727921 4.94296049 369.398669 6.80383973 339.013042 8.95548136 308.740164 11.3978854 278.467285 14.1310518"></polyline> <polyline id="Shape" points="376.501802 207.604341 404.125099 208.30217 431.692022 208.825543 459.315319 209 486.994989 209 514.561912 208.651085 542.185209 208.127713 569.808506 207.313578 597.375429 206.208681 624.998726 204.871174 652.565648 203.301057 680.132571 201.382026"></polyline> </g> <g id="Group-16" transform="translate(28.000000, 27.000000)" stroke="#D2AA1B" stroke-linecap="round" stroke-linejoin="round"> <polyline id="Shape" points="877.195963 201.872417 887.734722 200.41968 898.329838 198.676395 908.81224 196.642562 919.181929 194.376291 929.551617 191.819473 939.921305 189.030217 950.121922 186.008523 960.266182 182.696281 970.354085 179.151601 980.329274 175.374483 990.191749 171.306818 999.997867 167.006715 1009.74763 162.474174 1019.38468 157.651085"></polyline> <polyline id="Shape" points="775.471578 212.274019 801.001299 210.182076 826.418306 207.799587 851.835313 205.010331 877.25232 201.872417"></polyline> <path d="M1011.26927,51.6012397 C951.223594,27.7272096 888.034453,13.3094654 823.825884,8.83264463" id="Shape"></path> <path d="M1019.2156,157.651085 C1040.10446,147.586414 1052.71004,125.178724 1050.81191,101.485452 C1048.91378,77.7921802 1032.91311,57.8209591 1010.7057,51.4269112" id="Shape"></path> <polyline id="Shape" points="177.242019 215.993027 202.602669 217.852531 227.963319 219.421488 253.323969 220.758006 278.740976 221.862087 304.101627 222.733729 329.574991 223.256715 354.991998 223.605372"></polyline> <path d="M268.484002,15.9220041 C189.222554,21.5027797 111.342967,40.1606345 37.8147999,71.1841426" id="Shape"></path> <path d="M38.2656559,71.009814 C16.3983915,78.3242786 1.19372093,98.8162081 0.0669296512,122.491732 C-1.05986163,146.167256 12.1258918,168.095714 33.1935259,177.582645" id="Shape"></path> <polyline id="Shape" points="33.1935259 177.524535 42.9996439 181.998967 52.862119 186.124742 62.8936651 190.018079 72.9815681 193.678977 83.1258282 197.107438 93.3264453 200.245351 103.696133 203.092717 114.009464 205.765754 124.435509 208.148244 134.917912 210.240186 145.456671 212.041581 155.99543 213.668647 166.646903 214.947056 177.242019 215.993027"></polyline> <polyline id="Shape" points="823.769527 8.83264463 794.576601 6.79881198 765.327318 4.99741736 736.134391 3.48657025 706.828751 2.26627066 677.635825 1.3365186 648.330185 0.522985537 619.137259 0.116219008 589.831618 0 560.582335 0.0581095041 531.333052 0.464876033 502.083769 1.10408058 472.778129 2.03383264 443.585202 3.19602273 414.335919 4.59065083 385.142993 6.33393595 355.950067 8.3677686 326.700784 10.5759298 297.564215 13.0746384 268.427645 15.8638946"></polyline> <polyline id="Shape" points="354.991998 223.605372 387.284559 224.360795 419.689834 224.825671 452.09511 225 484.444028 224.94189 516.792946 224.593233 549.198221 223.954029 581.547139 223.140496 613.952415 221.920196 646.244976 220.525568 678.593894 218.898502 710.886455 216.922779 743.235373 214.772727 775.471578 212.274019"></polyline> </g> <path d="M138.668493,146.374216 L138.668493,139.568739 L142.121118,139.568739 L142.121118,138.142613 L137,138.142613 L137,146.374216 L138.668493,146.374216 Z M230.991796,146.516828 C233.343105,146.516828 234.824375,144.879635 234.824375,142.261266 C234.824375,139.637193 233.343105,138 230.991796,138 C228.63498,138 227.159217,139.637193 227.159217,142.261266 C227.159217,144.879635 228.63498,146.516828 230.991796,146.516828 Z M230.991796,145.073588 C229.686737,145.073588 228.855243,143.984027 228.855243,142.261266 C228.855243,140.532801 229.692243,139.437536 230.991796,139.437536 C232.291349,139.437536 233.122842,140.532801 233.122842,142.261266 C233.122842,143.984027 232.291349,145.073588 230.991796,145.073588 Z M324.102539,146.374216 C325.798566,146.374216 326.850322,145.467199 326.850322,144.018254 C326.850322,142.928694 326.057375,142.112949 324.978086,142.027382 L324.978086,141.981746 C325.820592,141.850542 326.470368,141.097547 326.470368,140.196235 C326.470368,138.935539 325.53425,138.142613 324.041967,138.142613 L320.583836,138.142613 L320.583836,146.374216 L324.102539,146.374216 Z M323.44175,141.565317 L322.246822,141.565317 L322.246822,139.426127 L323.612454,139.426127 C324.388882,139.426127 324.834914,139.802624 324.834914,140.464347 C324.834914,141.160297 324.328309,141.565317 323.44175,141.565317 Z M323.678533,145.090702 L322.246822,145.090702 L322.246822,142.700513 L323.639987,142.700513 C324.620158,142.700513 325.154296,143.111238 325.154296,143.881346 C325.154296,144.668568 324.636678,145.090702 323.678533,145.090702 Z M413.551408,146.374216 L414.157132,144.377638 L416.948967,144.377638 L417.554691,146.374216 L419.322303,146.374216 L416.558,138.142613 L414.603164,138.142613 L411.844368,146.374216 L413.551408,146.374216 Z M416.591039,143.08842 L414.515059,143.08842 L415.533776,139.717056 L415.572322,139.717056 L416.591039,143.08842 Z M506.485941,146.374216 L506.485941,143.778665 L507.972717,143.778665 C509.646717,143.778665 510.808605,142.649173 510.808605,140.960639 C510.808605,139.2664 509.685263,138.142613 508.055316,138.142613 L504.822954,138.142613 L504.822954,146.374216 L506.485941,146.374216 Z M507.609283,142.432402 L506.485941,142.432402 L506.485941,139.50599 L507.614789,139.50599 C508.567428,139.50599 509.118086,140.030804 509.118086,140.966343 C509.118086,141.907587 508.561921,142.432402 507.609283,142.432402 Z M597.052645,148 L597.052645,146.374216 L602.278388,146.374216 L602.278388,148 L603.781684,148 L603.781684,144.948089 L602.7905,144.948089 L602.7905,138.142613 L597.15727,138.142613 L596.881941,142.791786 C596.815862,143.909869 596.656171,144.554478 596.100007,144.948089 L595.543842,144.948089 L595.543842,148 L597.052645,148 Z M601.127513,144.948089 L597.884138,144.948089 L597.884138,144.902453 C598.236559,144.474615 598.352197,143.841415 598.41277,142.922989 L598.62202,139.55733 L601.127513,139.55733 L601.127513,144.948089 Z M690.669993,146.374216 L692.421086,143.49344 L692.465138,143.49344 L694.205217,146.374216 L696.09948,146.374216 L693.533414,142.27838 L693.533414,142.238448 L696.13252,138.142613 L694.276803,138.142613 L692.57527,141.108956 L692.531217,141.108956 L690.846204,138.142613 L688.891368,138.142613 L691.396862,142.204221 L691.396862,142.249857 L688.874849,146.374216 L690.669993,146.374216 Z M782.839112,146.374216 L783.444836,144.377638 L786.236671,144.377638 L786.842395,146.374216 L788.610007,146.374216 L785.845704,138.142613 L783.890868,138.142613 L781.132072,146.374216 L782.839112,146.374216 Z M785.878743,143.08842 L783.802763,143.08842 L784.82148,139.717056 L784.860026,139.717056 L785.878743,143.08842 Z M875.773645,146.374216 L875.773645,142.905876 L879.352921,142.905876 L879.352921,146.374216 L881.015908,146.374216 L881.015908,138.142613 L879.352921,138.142613 L879.352921,141.485454 L875.773645,141.485454 L875.773645,138.142613 L874.110658,138.142613 L874.110658,146.374216 L875.773645,146.374216 Z M968.229105,146.374216 L968.834829,144.377638 L971.626664,144.377638 L972.232388,146.374216 L974,146.374216 L971.235697,138.142613 L969.280862,138.142613 L966.522066,146.374216 L968.229105,146.374216 Z M971.268737,143.08842 L969.192757,143.08842 L970.211474,139.717056 L970.25002,139.717056 L971.268737,143.08842 Z" id="ГОВАРДХАНА" fill="#000000" fill-rule="nonzero"></path> </g> </svg> 