<?xml version="1.0" encoding="UTF-8"?> <svg xmlns="http://www.w3.org/2000/svg" width="1785" height="1260" viewBox="0 0 1785 1260" fill="none"><g clip-path="url(#clip0_2089_12076)"><rect width="1260" height="1785" transform="matrix(0 1 -1 0 1785 0)" fill="white"></rect><path d="M974.666 483.06L806.293 945.663L343.69 777.289L512.063 314.687L974.666 483.06ZM371.879 764.144L793.148 917.474L946.477 496.205L525.208 342.876L371.879 764.144Z" fill="black"></path><path d="M1125.36 412.796L876.561 1096.36L193 847.561L441.796 164L1125.36 412.796ZM221.189 834.416L863.416 1068.17L1097.17 425.94L454.941 192.189L221.189 834.416Z" fill="black"></path><path d="M1227.53 759.953C1245.22 759.953 1255.95 750.997 1255.95 736.415C1255.95 725.45 1248.09 717.355 1236.83 716.264V715.805C1245.33 714.427 1251.93 706.677 1251.93 697.779C1251.93 685.206 1242.23 677.111 1227.19 677.111H1192.8V759.953H1227.53ZM1221.16 712.016H1207.61V688.651H1223.46C1232.3 688.651 1237.29 692.727 1237.29 699.96C1237.29 707.653 1231.5 712.016 1221.16 712.016ZM1224.15 748.413H1207.61V722.522H1223.52C1234.88 722.522 1240.85 726.942 1240.85 735.382C1240.85 743.878 1235.05 748.413 1224.15 748.413ZM1280.52 779.988V749.849H1280.81C1284.14 756.68 1291.03 760.929 1299.87 760.929C1315.14 760.929 1324.9 748.93 1324.9 729.526C1324.9 710.064 1315.08 698.066 1299.64 698.066C1290.8 698.066 1283.91 702.544 1280.46 709.605H1280.18V699.099H1266.23V779.988H1280.52ZM1295.28 749.217C1286.38 749.217 1280.46 741.467 1280.41 729.526C1280.46 717.7 1286.38 709.835 1295.28 709.835C1304.52 709.835 1310.26 717.527 1310.26 729.526C1310.26 741.582 1304.52 749.217 1295.28 749.217ZM1349.24 759.953L1375.71 719.02H1376.17V759.953H1390.17V699.099H1376.17L1349.7 739.745H1349.24V699.099H1335.23V759.953H1349.24ZM1417.16 759.953V734.119H1442.88V759.953H1457.11V699.099H1442.88V723.096H1417.16V699.099H1402.92V759.953H1417.16ZM1477.72 775.855V759.953H1520.89V775.855H1533.98V748.93H1524.74V699.099H1478.47L1476.34 730.846C1475.77 739.056 1473.93 746.289 1469.46 748.93H1464.63V775.855H1477.72ZM1510.5 748.93H1484.44V748.471C1487.25 744.452 1488.63 738.482 1489.09 731.593L1490.64 710.064H1510.5V748.93ZM1559.99 760.929C1567.8 760.929 1575.43 756.853 1578.93 750.25H1579.22V759.953H1593V718.044C1593 705.816 1583.18 697.836 1568.08 697.836C1552.58 697.836 1542.88 705.988 1542.25 717.355H1555.51C1556.43 712.303 1560.74 709.031 1567.51 709.031C1574.57 709.031 1578.88 712.705 1578.88 719.077V723.44L1562.8 724.359C1547.99 725.278 1539.67 731.765 1539.67 742.558C1539.67 753.523 1548.22 760.929 1559.99 760.929ZM1564.3 750.136C1558.1 750.136 1553.96 746.978 1553.96 741.984C1553.96 737.161 1557.92 734.061 1564.81 733.602L1578.88 732.741V737.391C1578.88 744.739 1572.39 750.136 1564.3 750.136ZM1199.98 893.888V877.526H1256.7V893.888H1270.13V865.011H1259.8V794.685H1203.77L1200.78 843.425C1200.15 854.505 1198.26 861.337 1192.4 865.011H1186.49V893.888H1199.98ZM1245.04 865.011H1208.88V864.552C1212.72 860.017 1213.87 853.644 1214.5 844.344L1216.86 807.143H1245.04V865.011ZM1306.07 878.732C1320.48 878.732 1331.16 870.81 1332.99 859.328H1319.62C1318.07 864.38 1313.02 867.709 1306.36 867.709C1297 867.709 1291.03 861.165 1291.03 851.405V850.544H1333.57V845.894C1333.57 827.408 1322.78 815.41 1305.5 815.41C1287.93 815.41 1276.79 828.097 1276.79 847.329C1276.79 866.734 1287.81 878.732 1306.07 878.732ZM1319.56 841.129H1291.14C1291.72 832.633 1297.52 826.49 1305.55 826.49C1313.76 826.49 1319.27 832.518 1319.56 841.129ZM1373.12 877.526C1386.61 877.526 1395 870.695 1395 859.959C1395 852.324 1389.6 846.698 1381.62 845.664V845.205C1387.65 844.172 1392.3 838.488 1392.3 832.116C1392.3 822.471 1384.95 816.673 1372.66 816.673H1343.79V877.526H1373.12ZM1368.24 841.531H1357.8V826.375H1369.33C1375.13 826.375 1378.35 829.073 1378.35 833.838C1378.35 838.89 1374.9 841.531 1368.24 841.531ZM1370.25 867.824H1357.8V850.602H1369.1C1376.8 850.602 1380.76 853.529 1380.76 859.213C1380.76 864.782 1377.03 867.824 1370.25 867.824ZM1419.57 877.526L1446.03 836.594H1446.49V877.526H1460.5V816.673H1446.49L1420.03 857.318H1419.57V816.673H1405.56V877.526H1419.57Z" fill="black"></path></g><defs><clipPath id="clip0_2089_12076"><rect width="1260" height="1785" fill="white" transform="matrix(0 1 -1 0 1785 0)"></rect></clipPath></defs></svg> 