<?xml version="1.0" encoding="UTF-8"?> <svg xmlns="http://www.w3.org/2000/svg" width="100" height="100" viewBox="0 0 100 100" fill="none"> <g clip-path="url(#clip0_3351_63)"> <path fill-rule="evenodd" clip-rule="evenodd" d="M50 0C77.614 0 100 22.3374 100 49.8914C100 77.4453 77.614 99.7827 50 99.7827C22.386 99.7827 0 77.4453 0 49.8914C0 22.3374 22.386 0 50 0ZM48.1851 39.3292C47.2863 39.0965 46.4261 38.7341 45.6307 38.2534C44.2386 39.0939 42.6631 39.5655 41.0355 39.6298L40.7604 39.6407V37.4488L41.0118 37.4369C41.9611 37.3911 42.8883 37.166 43.7492 36.7717C42.9163 35.9323 42.241 34.9281 42.241 33.6961C42.241 31.8071 43.7761 30.2752 45.6693 30.2752C47.5628 30.2752 49.098 31.8071 49.098 33.6961C49.098 35.0155 48.3928 35.9185 47.5162 36.7731C48.375 37.166 49.2977 37.39 50.242 37.4365V32.6112H49.2799V30.2752H50.326C50.5771 28.6185 52.0115 27.3703 53.7158 27.3703C55.4208 27.3703 56.8559 28.62 57.1059 30.2782C57.3977 30.2898 57.6077 30.3428 57.8708 30.5828C58.1142 30.8057 58.2448 31.115 58.2448 31.4433C58.2448 31.9631 57.8838 32.4362 57.3814 32.5728C57.3122 32.5916 57.2424 32.6029 57.1714 32.6094C57.1714 36.8414 57.1714 41.0734 57.1714 45.3053V45.5693H54.8303V32.6112H52.5835V45.5693H50.242V40.333C48.097 43.2238 44.7069 44.9517 41.0576 44.9517H40.7928V42.7148H41.0576C43.8402 42.7148 46.4436 41.4674 48.1851 39.3292ZM25.0429 69.7319C20.6918 64.2901 18.0902 57.3939 18.0902 49.8914C18.0902 42.3885 20.6918 35.4922 25.0429 30.0508V30.0519C30.8895 22.739 39.8955 18.0513 49.9996 18.0513C67.6223 18.0513 81.9087 32.3066 81.9087 49.8914C81.9087 67.4761 67.6223 81.7314 49.9996 81.7314C39.8955 81.7314 30.8895 77.0438 25.0429 69.7308V69.7319ZM71.2468 51.8476V68.3954H67.4389V51.8646H64.6306V68.3954H60.8228V63.9738C59.09 65.0141 56.5728 66.7122 54.7193 66.7122C53.0721 66.7122 51.5868 65.9708 50.6324 64.6274C49.2672 62.706 49.3654 60.1438 50.9097 58.3749C49.9418 57.5508 49.38 56.3475 49.38 55.0648C49.38 53.8336 49.8988 52.6798 50.7852 51.8646H44.4475V68.3954H40.64V51.8646H37.9754V55.2863C37.9928 55.5183 37.9896 55.7764 37.9896 56.0102C37.9896 59.4137 35.372 61.2457 32.2591 60.5951C33.6571 63.1918 36.2339 64.9901 39.1903 65.3761L39.4203 65.4058V68.3834L39.1285 68.3537C34.2105 67.8457 30.0708 64.3968 28.6827 59.6689C27.7592 56.5229 29.1706 56.0353 32.0033 56.6217C32.636 56.7527 33.7222 56.9713 34.053 56.2219C34.1133 56.0854 34.145 55.934 34.1607 55.7862L34.1675 54.4665V51.8646H27.2538V48.2997H57.8875V51.8646H57.623C56.015 51.8646 52.6093 53.1194 52.6093 55.0648C52.6093 55.6893 53.1165 56.1951 53.742 56.1951C53.9436 56.1951 54.14 56.142 54.314 56.0403C54.322 56.0357 54.3307 56.0309 54.3391 56.0269L56.9796 54.506L58.5555 57.2294L57.4523 57.8957C56.1566 58.6773 52.8396 59.8937 52.8396 61.6771C52.8396 62.7129 53.6812 63.5527 54.7193 63.5527C54.9139 63.5527 55.1072 63.5233 55.2928 63.4638C56.1631 63.1863 57.44 62.3789 58.2375 61.8996C58.5545 61.7094 58.8699 61.5173 59.1847 61.3245C59.7286 60.9916 60.2719 60.6507 60.8228 60.3297V51.8646H59.1057V48.2997H70.8192C70.9997 48.2997 71.1882 48.3029 71.3657 48.3356C73.1337 48.6612 73.2178 51.3182 71.5284 51.7917C71.4396 51.8167 71.3435 51.8352 71.2468 51.8476ZM54.8493 30.2752C54.6509 29.841 54.2117 29.5472 53.7143 29.5472C53.2169 29.5472 52.7777 29.841 52.5791 30.2752H54.8493ZM45.6679 35.6364C46.2555 35.0911 46.9144 34.5668 46.9144 33.6961C46.9144 33.0092 46.3567 32.4523 45.6679 32.4523C44.9794 32.4523 44.4212 33.0092 44.4212 33.6961C44.4212 34.5639 45.0813 35.0921 45.6679 35.6364ZM50.1593 95.8511C50.7888 96.2871 51.6231 97.4502 50.1118 98.8075C50.1118 98.8075 49.3758 98.1996 49.2676 97.4158C49.6737 97.1329 49.9127 96.6906 50.0461 96.3358L50.1118 97.4143L50.1717 96.4343L50.1685 96.3269L50.1593 95.8511ZM43.7047 94.9841C44.3342 95.42 45.1685 96.5832 43.6572 97.9404C43.6572 97.9404 42.9212 97.3326 42.813 96.5488C43.2191 96.2658 43.4581 95.8236 43.5915 95.4688L43.6572 96.5472L43.7172 95.5675L43.7139 95.4599L43.7047 94.9841ZM56.6139 94.9841C57.2434 95.42 58.0778 96.5832 56.5664 97.9404C56.5664 97.9404 55.8304 97.3326 55.7222 96.5488C56.1283 96.2658 56.3673 95.8236 56.5007 95.4688L56.5664 96.5472L56.6264 95.5675L56.6231 95.4599L56.6139 94.9841ZM49.9421 95.9158C49.9424 95.9164 49.9427 95.9173 49.943 95.9181C49.8609 96.2457 49.6243 96.9532 49.0575 97.2888C48.7795 97.4534 48.4609 97.5052 48.17 97.5052C47.6748 97.5052 47.2597 97.3552 47.2597 97.3552C47.2597 97.3552 47.4013 96.459 47.9825 95.9577C48.031 95.9843 48.081 96.009 48.1332 96.0307C48.3399 96.1169 48.5722 96.1606 48.8231 96.1606C48.9624 96.1606 49.0977 96.1468 49.226 96.1254L48.4586 96.6454L49.7129 96.0027C49.8022 95.9724 49.8797 95.9421 49.9421 95.9158ZM51.2255 95.4609C51.4519 95.4609 51.6879 95.4979 51.9075 95.6002C52.699 95.9687 52.9781 97.0462 52.9781 97.0462C52.9781 97.0462 52.4541 97.2964 51.8648 97.2964C51.6427 97.2963 51.4117 97.2599 51.1957 97.1622C51.177 96.6967 50.9781 96.3381 50.7601 96.0821L51.7152 96.4579L50.4146 95.7528C50.3569 95.7082 50.3071 95.6732 50.2682 95.6475C50.4661 95.5732 50.8289 95.4609 51.2255 95.4609ZM43.4875 95.0488C43.4878 95.0494 43.4881 95.0502 43.4884 95.0511C43.4063 95.3787 43.1697 96.0861 42.6029 96.4218C42.3248 96.5864 42.0063 96.6382 41.7154 96.6382C41.2202 96.6382 40.8051 96.4881 40.8051 96.4881C40.8051 96.4881 40.9467 95.5919 41.5279 95.0906C41.5764 95.1172 41.6264 95.1419 41.6786 95.1637C41.8853 95.2498 42.1176 95.2936 42.3685 95.2936C42.5078 95.2936 42.6431 95.2797 42.7714 95.2583L42.004 95.7783L43.2583 95.1356C43.3476 95.1053 43.425 95.0751 43.4875 95.0488ZM56.3967 95.0488C56.397 95.0494 56.3973 95.0502 56.3976 95.0511C56.3155 95.3787 56.0789 96.0861 55.5121 96.4218C55.2341 96.5864 54.9155 96.6382 54.6246 96.6382C54.1866 96.6382 53.8111 96.5208 53.7303 96.4937L53.7161 96.4888C53.7149 96.4884 53.7143 96.4881 53.7143 96.4881C53.7143 96.4881 53.8559 95.5919 54.4371 95.0906C54.4856 95.1172 54.5356 95.1419 54.5878 95.1637C54.7945 95.2498 55.0268 95.2936 55.2777 95.2936C55.417 95.2936 55.5523 95.2797 55.6806 95.2583L54.9132 95.7783L56.1675 95.1356C56.2568 95.1053 56.3343 95.0751 56.3967 95.0488ZM44.7709 94.5939C44.9973 94.5939 45.2333 94.6309 45.4529 94.7331C46.2444 95.1016 46.5235 96.1791 46.5235 96.1791C46.5235 96.1791 45.9995 96.4294 45.4102 96.4294C45.1881 96.4292 44.9571 96.3929 44.7411 96.2951C44.7224 95.8296 44.5235 95.4711 44.3055 95.2151L45.2606 95.5909L43.96 94.8857C43.9023 94.8411 43.8525 94.8062 43.8136 94.7805C44.0115 94.7062 44.3743 94.5939 44.7709 94.5939ZM57.6801 94.5939C57.9065 94.5939 58.1425 94.6309 58.3621 94.7331C59.1536 95.1016 59.4327 96.1791 59.4327 96.1791C59.4327 96.1791 58.9087 96.4294 58.3194 96.4294C58.0973 96.4292 57.8663 96.3929 57.6503 96.2951C57.6316 95.8296 57.4327 95.4711 57.2147 95.2151L58.1698 95.5909L56.8692 94.8857C56.8115 94.8411 56.7617 94.8062 56.7228 94.7805C56.9207 94.7062 57.2835 94.5939 57.6801 94.5939ZM48.275 94.1265C48.3711 94.1265 48.4687 94.1341 48.5658 94.1505C48.5705 94.2004 48.5761 94.2503 48.5857 94.3006C48.6523 94.6517 48.8347 94.9509 49.0403 95.1902L48.3758 94.9598L49.2073 95.3675C49.3977 95.5538 49.5862 95.6899 49.7068 95.7683C49.4846 95.8488 49.1632 95.9376 48.823 95.9376C48.6223 95.9376 48.4152 95.9068 48.2189 95.8249C47.4129 95.4892 47.0897 94.4242 47.0897 94.4242L47.1185 94.4097C47.2408 94.3501 47.7353 94.1265 48.275 94.1265ZM49.3534 92.5455C49.3534 92.5455 50.2996 93.0661 50.4829 93.9021C50.1242 94.2853 49.9866 94.8036 49.9358 95.184L49.6133 93.9143L49.8254 95.5792C49.5616 95.4069 48.9328 94.9334 48.8046 94.259C48.6417 93.4012 49.3534 92.5455 49.3534 92.5455ZM52.1278 93.5288C52.2892 93.5288 52.4082 93.5411 52.4518 93.5463L52.47 93.5487C52.47 93.5487 52.5234 94.6602 51.8773 95.2472C51.8484 95.2734 51.8167 95.2947 51.7861 95.3182C51.6131 95.2659 51.4261 95.238 51.2255 95.238C51.0146 95.238 50.8148 95.2681 50.6382 95.3072L51.4387 94.4855L50.2989 95.4006C50.2348 95.4221 50.1773 95.4426 50.1334 95.4601C50.1527 95.1083 50.2515 94.4039 50.7223 93.976C51.1408 93.5958 51.7502 93.5288 52.1278 93.5288ZM54.7296 93.2594C54.8257 93.2594 54.9233 93.2671 55.0204 93.2835C55.0251 93.3333 55.0307 93.3833 55.0403 93.4335C55.1069 93.7847 55.2893 94.0838 55.4949 94.3232L54.8304 94.0928L55.6619 94.5004C55.8523 94.6868 56.0408 94.8228 56.1614 94.9012C55.9392 94.9818 55.6178 95.0706 55.2776 95.0706C55.0769 95.0706 54.8698 95.0397 54.6735 94.9579C53.8675 94.6221 53.5443 93.5572 53.5443 93.5572L53.5462 93.5562L53.5731 93.5427C53.6954 93.4831 54.1899 93.2594 54.7296 93.2594ZM41.8204 93.2594C41.9165 93.2594 42.0141 93.2671 42.1112 93.2835C42.1159 93.3333 42.1215 93.3833 42.1311 93.4335C42.1977 93.7847 42.3801 94.0838 42.5857 94.3232L41.9212 94.0928L42.7527 94.5004C42.9431 94.6868 43.1316 94.8228 43.2522 94.9012C43.03 94.9818 42.7086 95.0706 42.3684 95.0706C42.1677 95.0706 41.9606 95.0397 41.7643 94.9579C40.9583 94.6221 40.6351 93.5572 40.6351 93.5572L40.637 93.5562L40.6639 93.5427C40.7862 93.4831 41.2807 93.2594 41.8204 93.2594ZM42.8988 91.6785C42.8988 91.6785 43.845 92.199 44.0283 93.035C43.6696 93.4183 43.532 93.9366 43.4812 94.3169L43.1587 93.0472L43.3708 94.7121C43.107 94.5398 42.4782 94.0664 42.35 93.3919C42.1871 92.5341 42.8988 91.6785 42.8988 91.6785ZM55.808 91.6785C55.808 91.6785 56.7542 92.199 56.9375 93.035C56.5788 93.4183 56.4412 93.9366 56.3904 94.3169L56.0679 93.0472L56.28 94.7121C56.0162 94.5398 55.3874 94.0664 55.2592 93.3919C55.0963 92.5341 55.808 91.6785 55.808 91.6785ZM45.6732 92.6618C45.8786 92.6618 46.0154 92.6816 46.0154 92.6816C46.0154 92.6816 46.016 92.6953 46.0163 92.7205L46.0164 92.7561C46.0151 93.0147 45.9683 93.8844 45.4227 94.3801C45.3937 94.4063 45.3621 94.4277 45.3315 94.4511C45.1585 94.3989 44.9715 94.371 44.7709 94.371C44.56 94.371 44.3602 94.4011 44.1836 94.4401L44.9841 93.6184L43.8443 94.5336C43.7802 94.555 43.7227 94.5756 43.6788 94.5931C43.6981 94.2413 43.7969 93.5368 44.2677 93.109C44.6862 92.7288 45.2956 92.6618 45.6732 92.6618ZM58.5824 92.6618C58.7878 92.6618 58.9246 92.6816 58.9246 92.6816C58.9246 92.6816 58.9253 92.6953 58.9255 92.7205L58.9256 92.7561C58.9243 93.0147 58.8775 93.8844 58.3319 94.3801C58.303 94.4063 58.2713 94.4277 58.2407 94.4511C58.0677 94.3989 57.8807 94.371 57.6801 94.371C57.4692 94.371 57.2694 94.4011 57.0928 94.4401L57.8933 93.6184L56.7535 94.5336C56.6894 94.555 56.6319 94.5756 56.588 94.5931C56.6073 94.2413 56.7061 93.5368 57.1769 93.109C57.5954 92.7288 58.2048 92.6618 58.5824 92.6618ZM50 8.83754C72.7226 8.83754 91.1432 27.2182 91.1432 49.8914C91.1432 72.5645 72.7226 90.9452 50 90.9452C27.2775 90.9452 8.85679 72.5645 8.85679 49.8914C8.85679 27.2182 27.2775 8.83754 50 8.83754ZM5.02503 56.4377C5.09931 56.6355 5.21165 56.9984 5.21165 57.395C5.21165 57.6214 5.17464 57.8574 5.0724 58.0769C4.70388 58.8684 3.62639 59.1475 3.62639 59.1475C3.62639 59.1475 3.37616 58.6235 3.37616 58.0343C3.37627 57.8122 3.41264 57.5811 3.51037 57.3651C3.97589 57.3464 4.33444 57.1476 4.59044 56.9295L4.21462 57.8846L4.9198 56.584C4.9644 56.5264 4.99933 56.4765 5.02503 56.4377ZM94.9231 56.4377C94.9488 56.4765 94.9837 56.5264 95.0283 56.584L95.7335 57.8846L95.3577 56.9295C95.6136 57.1476 95.9722 57.3464 96.4377 57.3651C96.5354 57.5811 96.5718 57.8122 96.5719 58.0343C96.5719 58.6235 96.3217 59.1475 96.3217 59.1475C96.3217 59.1475 95.2442 58.8684 94.8757 58.0769C94.7734 57.8574 94.7364 57.6214 94.7364 57.395C94.7364 56.9984 94.8488 56.6355 94.9231 56.4377ZM5.21245 56.3028C5.56423 56.3222 6.26868 56.4209 6.69651 56.8917C7.07673 57.3103 7.14375 57.9197 7.14375 58.2972C7.14375 58.4586 7.1315 58.5777 7.12624 58.6213L7.1239 58.6394C7.1239 58.6394 7.11018 58.6401 7.08498 58.6404L7.0277 58.6403C6.74528 58.6363 5.90805 58.578 5.4254 58.0468C5.3992 58.0178 5.37783 57.9862 5.35439 57.9555C5.4066 57.7826 5.43455 57.5955 5.43455 57.395C5.43455 57.1841 5.40443 56.9843 5.36538 56.8076L6.1871 57.6082L5.27197 56.4683C5.2505 56.4042 5.22994 56.3467 5.21245 56.3028ZM94.7356 56.3028C94.7182 56.3467 94.6976 56.4042 94.6761 56.4683L93.761 57.6082L94.5827 56.8076C94.5437 56.9843 94.5135 57.1841 94.5135 57.395C94.5135 57.5955 94.5415 57.7826 94.5937 57.9555L94.5475 58.0171L94.5227 58.0468C94.04 58.578 93.2028 58.6363 92.9204 58.6403L92.8631 58.6404C92.8379 58.6401 92.8242 58.6394 92.8242 58.6394L92.8218 58.6213C92.8166 58.5777 92.8043 58.4586 92.8043 58.2972C92.8043 57.9197 92.8713 57.3103 93.2516 56.8917C93.6794 56.4209 94.3839 56.3222 94.7356 56.3028ZM96.6914 55.437C97.4751 55.5453 98.083 56.2813 98.083 56.2813C96.7258 57.7926 95.5626 56.9583 95.1267 56.3288L95.6025 56.338L95.7101 56.3413L96.6898 56.2813L95.6114 56.2155C95.9661 56.0821 96.4084 55.8432 96.6914 55.437ZM3.25673 55.437C3.53967 55.8432 3.98195 56.0821 4.33671 56.2155L3.25828 56.2813L4.23825 56.3412L4.34563 56.338L4.82143 56.3288C4.38547 56.9583 3.22233 57.7926 1.86509 56.2813C1.86509 56.2813 2.47294 55.5453 3.25673 55.437ZM8.12702 55.5229C8.12702 55.5229 7.60649 56.469 6.77049 56.6524C6.3872 56.2937 5.86895 56.1561 5.4886 56.1052L6.75827 55.7828L5.09337 55.9949C5.2657 55.7311 5.73916 55.1023 6.4136 54.9741C7.27138 54.8111 8.12702 55.5229 8.12702 55.5229ZM91.8211 55.5229C91.8211 55.5229 92.6767 54.8111 93.5345 54.9741C94.2089 55.1023 94.6824 55.7311 94.8547 55.9949L93.1898 55.7828L94.4595 56.1052C94.0791 56.1561 93.5609 56.2937 93.1776 56.6524C92.3416 56.469 91.8211 55.5229 91.8211 55.5229ZM96.6307 53.4291C96.6307 53.4291 96.7808 53.8443 96.7808 54.3394C96.7808 54.6303 96.729 54.9489 96.5643 55.227C96.2287 55.7938 95.5213 56.0303 95.1936 56.1124C95.1928 56.1121 95.192 56.1118 95.1914 56.1116C95.2177 56.0491 95.2479 55.9716 95.2782 55.8823L95.9209 54.6281L95.4009 55.3954C95.4223 55.2672 95.4362 55.1318 95.4362 54.9926C95.4362 54.7416 95.3924 54.5094 95.3063 54.3026C95.2845 54.2504 95.2598 54.2005 95.2332 54.152C95.7345 53.5707 96.6307 53.4291 96.6307 53.4291ZM3.31737 53.4291C3.31737 53.4291 4.21359 53.5707 4.71489 54.152C4.68827 54.2005 4.6636 54.2504 4.64182 54.3026C4.55569 54.5094 4.51192 54.7416 4.51192 54.9926C4.51192 55.1318 4.5258 55.2672 4.54717 55.3954L4.02719 54.6281L4.66987 55.8823C4.70018 55.9716 4.73041 56.0491 4.75671 56.1116C4.75611 56.1118 4.75527 56.1121 4.75444 56.1124C4.42683 56.0303 3.7194 55.7938 3.38376 55.227C3.21914 54.9489 3.16733 54.6303 3.16733 54.3394C3.16733 53.8443 3.31737 53.4291 3.31737 53.4291ZM6.24837 53.2592C6.24837 53.2592 6.54607 53.8217 6.54607 54.4444C6.54607 54.5405 6.53846 54.6381 6.52203 54.7353C6.47218 54.74 6.42225 54.7455 6.37199 54.7551C6.02084 54.8218 5.72167 55.0042 5.48234 55.2098L5.71273 54.5453L5.30509 55.3767C5.11877 55.5672 4.98269 55.7556 4.9043 55.8763C4.82371 55.654 4.73494 55.3327 4.73494 54.9925C4.73494 54.7918 4.76577 54.5846 4.84766 54.3883C5.1834 53.5823 6.24837 53.2592 6.24837 53.2592ZM93.6997 53.2592C93.6997 53.2592 94.7647 53.5823 95.1004 54.3883C95.1823 54.5846 95.2131 54.7918 95.2131 54.9925C95.2131 55.3327 95.1244 55.654 95.0438 55.8763C94.9654 55.7556 94.8293 55.5672 94.643 55.3767L94.2354 54.5453L94.4657 55.2098C94.2264 55.0042 93.9272 54.8218 93.5761 54.7551C93.5258 54.7455 93.4759 54.74 93.4261 54.7353C93.4096 54.6381 93.402 54.5405 93.402 54.4444C93.402 53.8217 93.6997 53.2592 93.6997 53.2592ZM4.15799 49.9831C4.23228 50.1809 4.34461 50.5438 4.34461 50.9404C4.34461 51.1668 4.3076 51.4028 4.20536 51.6223C3.83684 52.4138 2.75935 52.6929 2.75935 52.6929C2.75935 52.6929 2.50912 52.1689 2.50912 51.5797C2.50923 51.3576 2.54561 51.1265 2.64333 50.9105C3.10885 50.8918 3.46741 50.693 3.7234 50.4749L3.34758 51.43L4.05276 50.1294C4.09737 50.0718 4.13229 50.0219 4.15799 49.9831ZM95.7901 49.9831C95.8158 50.0219 95.8507 50.0718 95.8953 50.1294L96.6005 51.43L96.2247 50.4749C96.4807 50.693 96.8392 50.8918 97.3047 50.9105C97.4025 51.1265 97.4389 51.3576 97.439 51.5797C97.439 52.1689 97.1887 52.6929 97.1887 52.6929C97.1887 52.6929 96.1112 52.4138 95.7427 51.6223C95.6405 51.4028 95.6035 51.1668 95.6035 50.9404C95.6035 50.5438 95.7158 50.1809 95.7901 49.9831ZM4.34542 49.8482C4.69719 49.8676 5.40165 49.9663 5.82947 50.4371C6.2097 50.8557 6.27671 51.4651 6.27671 51.8426C6.27671 52.0481 6.25686 52.1848 6.25686 52.1848C6.25686 52.1848 6.24314 52.1855 6.21794 52.1858L6.18233 52.1859C5.92376 52.1845 5.05405 52.1378 4.55837 51.5922C4.53216 51.5632 4.51079 51.5316 4.48735 51.5009C4.53957 51.328 4.56751 51.1409 4.56751 50.9403C4.56751 50.7295 4.53739 50.5297 4.49835 50.353L5.32006 51.1536L4.40493 50.0137C4.38346 49.9496 4.3629 49.8921 4.34542 49.8482ZM95.6027 49.8482C95.5852 49.8921 95.5646 49.9496 95.5432 50.0137L94.628 51.1536L95.4497 50.353C95.4107 50.5297 95.3806 50.7295 95.3806 50.9403C95.3806 51.1409 95.4085 51.328 95.4607 51.5009C95.4373 51.5316 95.4159 51.5632 95.3897 51.5922C94.894 52.1378 94.0243 52.1845 93.7657 52.1859L93.7301 52.1858C93.7049 52.1855 93.6912 52.1848 93.6912 52.1848C93.6912 52.1848 93.6714 52.0481 93.6714 51.8426C93.6714 51.4651 93.7384 50.8557 94.1186 50.4371C94.5464 49.9663 95.2509 49.8676 95.6027 49.8482ZM97.5584 48.9824C98.3422 49.0907 98.95 49.8267 98.95 49.8267C97.5928 51.338 96.4297 50.5037 95.9937 49.8742L96.4695 49.8834L96.5769 49.8866L97.5568 49.8267L96.4784 49.7609C96.8332 49.6275 97.2755 49.3886 97.5584 48.9824ZM2.3897 48.9824C2.67263 49.3886 3.11492 49.6275 3.46968 49.7609L2.39124 49.8267L3.371 49.8865L3.47859 49.8834L3.95439 49.8742C3.51843 50.5037 2.35529 51.338 0.998055 49.8267C0.998055 49.8267 1.03605 49.7807 1.10528 49.71L1.15599 49.6594C1.38595 49.4355 1.8454 49.0576 2.3897 48.9824ZM7.25998 49.0683C7.25998 49.0683 6.73945 50.0144 5.90346 50.1978C5.52017 49.8391 5.00191 49.7015 4.62156 49.6506L5.89123 49.3282L4.22633 49.5403C4.39866 49.2765 4.87212 48.6476 5.54656 48.5195C6.40434 48.3565 7.25998 49.0683 7.25998 49.0683ZM92.6881 49.0683C92.6881 49.0683 93.5437 48.3565 94.4015 48.5195C95.076 48.6476 95.5494 49.2765 95.7217 49.5403L94.0569 49.3282L95.3265 49.6506C94.9462 49.7015 94.4279 49.8391 94.0446 50.1978C93.2086 50.0144 92.6881 49.0683 92.6881 49.0683ZM97.4977 46.9745C97.4977 46.9745 97.6478 47.3897 97.6478 47.8848C97.6478 48.1757 97.596 48.4943 97.4314 48.7724C97.0957 49.3391 96.3883 49.5757 96.0607 49.6578C96.0598 49.6575 96.059 49.6572 96.0584 49.657C96.0847 49.5945 96.1149 49.517 96.1452 49.4277L96.7879 48.1735L96.268 48.9408C96.2893 48.8126 96.3032 48.6772 96.3032 48.538C96.3032 48.287 96.2594 48.0548 96.1733 47.848C96.1515 47.7958 96.1268 47.7459 96.1002 47.6974C96.6015 47.1161 97.4977 46.9745 97.4977 46.9745ZM2.45033 46.9745C2.45033 46.9745 3.34656 47.1161 3.84785 47.6974C3.82123 47.7459 3.79656 47.7958 3.77478 47.848C3.68865 48.0548 3.64488 48.287 3.64488 48.538C3.64488 48.6772 3.65876 48.8126 3.68014 48.9408L3.16015 48.1735L3.80283 49.4277C3.83315 49.517 3.86337 49.5945 3.88968 49.657C3.88907 49.6572 3.88824 49.6575 3.8874 49.6578C3.55979 49.5757 2.85237 49.3391 2.51672 48.7724C2.3521 48.4943 2.30029 48.1757 2.30029 47.8848C2.30029 47.4468 2.41771 47.0714 2.4448 46.9906L2.44969 46.9763C2.45011 46.9751 2.45033 46.9745 2.45033 46.9745ZM94.5668 46.8045C94.5668 46.8045 95.6317 47.1277 95.9675 47.9337C96.0493 48.13 96.0802 48.3372 96.0802 48.5379C96.0802 48.8781 95.9914 49.1994 95.9108 49.4217C95.8324 49.301 95.6964 49.1126 95.51 48.9221L95.1024 48.0907L95.3328 48.7552C95.0934 48.5496 94.7943 48.3672 94.4431 48.3005C94.3929 48.2909 94.3429 48.2854 94.2931 48.2807C94.2767 48.1835 94.2691 48.0859 94.2691 47.9898C94.2691 47.3671 94.5668 46.8045 94.5668 46.8045ZM5.38133 46.8045L5.3823 46.8064L5.39579 46.8334C5.45542 46.9556 5.67904 47.4501 5.67904 47.9898C5.67904 48.0859 5.67143 48.1835 5.655 48.2807C5.60515 48.2854 5.55522 48.2909 5.50496 48.3005C5.1538 48.3672 4.85464 48.5496 4.61531 48.7552L4.8457 48.0907L4.43805 48.9221C4.25173 49.1126 4.11566 49.301 4.03726 49.4217C3.95668 49.1994 3.86791 48.8781 3.86791 48.5379C3.86791 48.3372 3.89874 48.13 3.98062 47.9337C4.31637 47.1277 5.38133 46.8045 5.38133 46.8045ZM94.9231 43.5285C94.9488 43.5673 94.9837 43.6172 95.0283 43.6748L95.7335 44.9754L95.3577 44.0203C95.6136 44.2384 95.9722 44.4372 96.4377 44.4559C96.5354 44.6719 96.5718 44.903 96.5719 45.1251C96.5719 45.7143 96.3217 46.2383 96.3217 46.2383C96.3217 46.2383 95.2442 45.9592 94.8757 45.1677C94.7734 44.9482 94.7364 44.7121 94.7364 44.4858C94.7364 44.0892 94.8488 43.7263 94.9231 43.5285ZM5.02503 43.5285C5.09931 43.7263 5.21165 44.0892 5.21165 44.4858C5.21165 44.7121 5.17464 44.9482 5.0724 45.1677C4.70388 45.9592 3.62639 46.2383 3.62639 46.2383C3.62639 46.2383 3.37616 45.7143 3.37616 45.1251C3.37627 44.903 3.41264 44.6719 3.51037 44.4559C3.97589 44.4372 4.33444 44.2384 4.59044 44.0203L4.21462 44.9754L4.9198 43.6748C4.9644 43.6172 4.99933 43.5673 5.02503 43.5285ZM94.7356 43.3936C94.7182 43.4375 94.6976 43.495 94.6761 43.5591L93.761 44.699L94.5827 43.8984C94.5437 44.0751 94.5135 44.2749 94.5135 44.4857C94.5135 44.6863 94.5415 44.8734 94.5937 45.0463L94.5475 45.1079L94.5227 45.1376C93.9357 45.7837 92.8242 45.7302 92.8242 45.7302L92.8218 45.7121C92.8166 45.6685 92.8043 45.5494 92.8043 45.388C92.8043 45.0104 92.8713 44.401 93.2516 43.9825C93.6794 43.5117 94.3839 43.413 94.7356 43.3936ZM5.21245 43.3936C5.56423 43.413 6.26868 43.5117 6.69651 43.9825C7.07673 44.401 7.14375 45.0104 7.14375 45.388C7.14375 45.5494 7.1315 45.6685 7.12624 45.7121L7.1239 45.7302C7.1239 45.7302 6.0124 45.7837 5.4254 45.1376C5.3992 45.1086 5.37783 45.077 5.35439 45.0463C5.4066 44.8734 5.43455 44.6863 5.43455 44.4857C5.43455 44.2749 5.40443 44.0751 5.36538 43.8984L6.1871 44.699L5.27197 43.5591C5.2505 43.495 5.22994 43.4375 5.21245 43.3936ZM3.25673 42.5278C3.53967 42.934 3.98195 43.1729 4.33671 43.3063L3.25828 43.3721L4.23825 43.432L4.34563 43.4288L4.82143 43.4195C4.38547 44.0491 3.22233 44.8834 1.86509 43.3721C1.86509 43.3721 2.47294 42.6361 3.25673 42.5278ZM96.6914 42.5278C97.4751 42.6361 98.083 43.3721 98.083 43.3721C96.7258 44.8834 95.5626 44.0491 95.1267 43.4195L95.6025 43.4288L95.7099 43.432L96.6898 43.3721L95.6114 43.3063C95.9661 43.1729 96.4084 42.934 96.6914 42.5278ZM8.12702 42.6137C8.12702 42.6137 7.60649 43.5598 6.77049 43.7432C6.3872 43.3845 5.86895 43.2469 5.4886 43.196L6.75827 42.8736L5.09337 43.0857C5.2657 42.8219 5.73916 42.193 6.4136 42.0649C7.27138 41.9019 8.12702 42.6137 8.12702 42.6137ZM91.8211 42.6137C91.8211 42.6137 92.6767 41.9019 93.5345 42.0649C94.2089 42.193 94.6824 42.8219 94.8547 43.0857L93.1898 42.8736L94.4595 43.196C94.0791 43.2469 93.5609 43.3845 93.1776 43.7432C92.3416 43.5598 91.8211 42.6137 91.8211 42.6137ZM96.6307 40.5199C96.6307 40.5199 96.7808 40.9351 96.7808 41.4302C96.7808 41.7211 96.729 42.0397 96.5643 42.3178C96.2287 42.8845 95.5213 43.1211 95.1936 43.2032C95.1928 43.2029 95.192 43.2026 95.1914 43.2024C95.2177 43.1399 95.2479 43.0624 95.2782 42.9731L95.9209 41.7189L95.4009 42.4862C95.4223 42.358 95.4362 42.2226 95.4362 42.0834C95.4362 41.8324 95.3924 41.6002 95.3063 41.3934C95.2845 41.3412 95.2598 41.2913 95.2332 41.2428C95.7345 40.6615 96.6307 40.5199 96.6307 40.5199ZM3.31737 40.5199C3.31737 40.5199 4.21359 40.6615 4.71489 41.2428C4.68827 41.2913 4.6636 41.3412 4.64182 41.3934C4.55569 41.6002 4.51192 41.8324 4.51192 42.0834C4.51192 42.2226 4.5258 42.358 4.54717 42.4862L4.02719 41.7189L4.66987 42.9731C4.70018 43.0624 4.73041 43.1399 4.75671 43.2024C4.75611 43.2026 4.75527 43.2029 4.75444 43.2032C4.42683 43.1211 3.7194 42.8845 3.38376 42.3178C3.21914 42.0397 3.16733 41.7211 3.16733 41.4302C3.16733 40.9351 3.31737 40.5199 3.31737 40.5199ZM6.24837 40.3499L6.26283 40.3788C6.32246 40.501 6.54607 40.9955 6.54607 41.5352C6.54607 41.6313 6.53846 41.7289 6.52203 41.8261C6.47218 41.8308 6.42225 41.8363 6.37199 41.8459C6.02084 41.9126 5.72167 42.095 5.48234 42.3005L5.71273 41.6361L5.30509 42.4675C5.11877 42.658 4.98269 42.8464 4.9043 42.9671C4.82371 42.7448 4.73494 42.4234 4.73494 42.0833C4.73494 41.8826 4.76577 41.6754 4.84766 41.4791C5.1834 40.6731 6.24837 40.3499 6.24837 40.3499ZM93.6997 40.3499C93.6997 40.3499 94.7647 40.6731 95.1004 41.4791C95.1823 41.6754 95.2131 41.8826 95.2131 42.0833C95.2131 42.4234 95.1244 42.7448 95.0438 42.9671C94.9654 42.8464 94.8293 42.658 94.643 42.4675L94.2354 41.6361L94.4657 42.3005C94.2264 42.095 93.9272 41.9126 93.5761 41.8459C93.5258 41.8363 93.4759 41.8308 93.4261 41.8261C93.4096 41.7289 93.402 41.6313 93.402 41.5352C93.402 40.9125 93.6997 40.3499 93.6997 40.3499ZM56.28 4.95079L56.0679 6.61569L56.3904 5.34602C56.4412 5.72637 56.5788 6.24463 56.9375 6.62792C56.7542 7.46391 55.808 7.98444 55.808 7.98444C55.808 7.98444 55.0963 7.1288 55.2592 6.27102C55.3874 5.59658 56.0162 5.12312 56.28 4.95079ZM43.3708 4.95079L43.1587 6.61569L43.4812 5.34602C43.532 5.72637 43.6696 6.24463 44.0283 6.62792C43.845 7.46391 42.8988 7.98444 42.8988 7.98444C42.8988 7.98444 42.1871 7.1288 42.35 6.27102C42.4782 5.59658 43.107 5.12312 43.3708 4.95079ZM49.8254 4.08376L49.6133 5.74865L49.9358 4.47899C49.9866 4.85933 50.1242 5.37759 50.4829 5.76088C50.2996 6.59688 49.3534 7.11741 49.3534 7.11741C49.3534 7.11741 48.6417 6.26176 48.8046 5.40398C48.9328 4.72954 49.5616 4.25608 49.8254 4.08376ZM43.6788 5.06988C43.7227 5.08736 43.7802 5.10792 43.8443 5.12939L44.9841 6.04452L44.1836 5.2228C44.3602 5.26185 44.56 5.29197 44.7709 5.29197C44.9715 5.29197 45.1585 5.26403 45.3315 5.21181C45.3621 5.23525 45.3937 5.25662 45.4227 5.28282C45.9683 5.77851 46.0151 6.64821 46.0164 6.90679L46.0163 6.9424C46.016 6.9676 46.0154 6.98132 46.0154 6.98132C46.0154 6.98132 45.8786 7.00117 45.6732 7.00117C45.2956 7.00117 44.6862 6.93416 44.2677 6.55393C43.7969 6.1261 43.6981 5.42165 43.6788 5.06988ZM56.588 5.06988C56.6319 5.08736 56.6894 5.10792 56.7535 5.12939L57.8933 6.04452L57.0928 5.2228C57.2694 5.26185 57.4692 5.29197 57.6801 5.29197C57.8807 5.29197 58.0677 5.26403 58.2407 5.21181C58.2713 5.23525 58.303 5.25662 58.3319 5.28282C58.8775 5.77851 58.9243 6.64821 58.9256 6.90679L58.9255 6.9424C58.9253 6.9676 58.9246 6.98132 58.9246 6.98132C58.9246 6.98132 58.7878 7.00117 58.5824 7.00117C58.2048 7.00117 57.5954 6.93416 57.1769 6.55393C56.7061 6.1261 56.6073 5.42165 56.588 5.06988ZM42.3684 4.59236C42.7086 4.59236 43.03 4.68113 43.2522 4.76172C43.1316 4.84011 42.9431 4.97619 42.7527 5.16251L41.9212 5.57016L42.5857 5.33976C42.3801 5.5791 42.1977 5.87826 42.1311 6.22941C42.1215 6.27967 42.1159 6.32961 42.1112 6.37945C42.0141 6.39588 41.9165 6.40349 41.8204 6.40349C41.2807 6.40349 40.7862 6.17988 40.6639 6.12025L40.637 6.10676C40.6351 6.10579 40.9583 5.04082 41.7643 4.70508C41.9606 4.6232 42.1677 4.59236 42.3684 4.59236ZM55.2776 4.59236C55.6178 4.59236 55.9392 4.68113 56.1614 4.76172C56.0408 4.84011 55.8523 4.97619 55.6619 5.16251L54.8304 5.57016L55.4949 5.33976C55.2893 5.5791 55.1069 5.87826 55.0403 6.22941C55.0307 6.27967 55.0251 6.32961 55.0204 6.37945C54.9233 6.39588 54.8257 6.40349 54.7296 6.40349C54.1899 6.40349 53.6954 6.17988 53.5731 6.12025L53.5462 6.10676C53.5443 6.10579 53.8675 5.04082 54.6735 4.70508C54.8698 4.6232 55.0769 4.59236 55.2776 4.59236ZM50.1334 4.20284C50.1773 4.22032 50.2348 4.24089 50.2989 4.26235L51.4387 5.17748L50.6382 4.35577C50.8148 4.39481 51.0146 4.42493 51.2255 4.42493C51.4261 4.42493 51.6131 4.39699 51.7861 4.34477L51.8476 4.39094L51.8773 4.41579C52.5234 5.00279 52.47 6.11429 52.47 6.11429L52.4518 6.11663C52.4082 6.12188 52.2892 6.13414 52.1278 6.13414C51.7502 6.13414 51.1408 6.06712 50.7223 5.68689C50.2515 5.25907 50.1527 4.55461 50.1334 4.20284ZM48.823 3.72533C49.1632 3.72533 49.4846 3.8141 49.7068 3.89468C49.5862 3.97308 49.3977 4.10915 49.2073 4.29547L48.3758 4.70312L49.0403 4.47273C48.8347 4.71206 48.6523 5.01122 48.5857 5.36238C48.5761 5.41264 48.5705 5.46257 48.5658 5.51242C48.4687 5.52885 48.3711 5.53646 48.275 5.53646C47.6522 5.53646 47.0897 5.23875 47.0897 5.23875C47.0897 5.23875 47.4129 4.17379 48.2189 3.83804C48.4152 3.75616 48.6223 3.72533 48.823 3.72533ZM45.4102 3.23358C45.9995 3.23358 46.5235 3.48381 46.5235 3.48381C46.5235 3.48381 46.2444 4.5613 45.4529 4.92982C45.2333 5.03206 44.9973 5.06907 44.7709 5.06907C44.3743 5.06907 44.0115 4.95673 43.8136 4.88245C43.8525 4.85675 43.9023 4.82182 43.96 4.77722L45.2606 4.07204L44.3055 4.44786C44.5235 4.19186 44.7224 3.83331 44.7411 3.36779C44.9571 3.27007 45.1881 3.23369 45.4102 3.23358ZM58.3194 3.23358C58.9087 3.23358 59.4327 3.48381 59.4327 3.48381C59.4327 3.48381 59.1536 4.5613 58.3621 4.92982C58.1425 5.03206 57.9065 5.06907 57.6801 5.06907C57.2835 5.06907 56.9207 4.95673 56.7228 4.88245C56.7617 4.85675 56.8115 4.82182 56.8692 4.77722L58.1698 4.07204L57.2147 4.44786C57.4327 4.19186 57.6316 3.83331 57.6503 3.36779C57.8663 3.27007 58.0973 3.23369 58.3194 3.23358ZM56.5664 1.72251C58.0778 3.07975 57.2434 4.24289 56.6139 4.67885L56.6231 4.20305L56.6264 4.09545L56.5664 3.1157L56.5007 4.19414C56.3673 3.83938 56.1283 3.39709 55.7222 3.11415C55.8304 2.33036 56.5664 1.72251 56.5664 1.72251ZM43.6572 1.72251C45.1685 3.07975 44.3342 4.24289 43.7047 4.67885L43.7139 4.20305L43.7172 4.09545L43.6572 3.1157L43.5915 4.19414C43.4581 3.83938 43.2191 3.39709 42.813 3.11415C42.9212 2.33036 43.6572 1.72251 43.6572 1.72251ZM54.6246 3.02475C54.9155 3.02475 55.2341 3.07656 55.5121 3.24118C56.0789 3.57682 56.3155 4.28425 56.3976 4.61186C56.3973 4.61269 56.397 4.61353 56.3967 4.61413C56.3343 4.58783 56.2568 4.5576 56.1675 4.52729L54.9132 3.88461L55.6806 4.40459C55.5523 4.38322 55.417 4.36934 55.2777 4.36934C55.0268 4.36934 54.7945 4.41311 54.5878 4.49924C54.5356 4.52102 54.4856 4.54569 54.4371 4.57231C53.8559 4.07101 53.7143 3.17479 53.7143 3.17479C53.7143 3.17479 53.7149 3.17457 53.7161 3.17414L53.7303 3.16926C53.8111 3.14216 54.1866 3.02475 54.6246 3.02475ZM41.7154 3.02475C42.0063 3.02475 42.3248 3.07656 42.6029 3.24118C43.1697 3.57682 43.4063 4.28425 43.4884 4.61186C43.4881 4.61269 43.4878 4.61353 43.4875 4.61413C43.425 4.58783 43.3476 4.5576 43.2583 4.52729L42.004 3.88461L42.7714 4.40459C42.6431 4.38322 42.5078 4.36934 42.3685 4.36934C42.1176 4.36934 41.8853 4.41311 41.6786 4.49924C41.6264 4.52102 41.5764 4.54569 41.5279 4.57231C40.9467 4.07101 40.8051 3.17479 40.8051 3.17479C40.8051 3.17479 41.2202 3.02475 41.7154 3.02475ZM51.8648 2.36654C52.4541 2.36654 52.9781 2.61677 52.9781 2.61677C52.9781 2.61677 52.699 3.69426 51.9075 4.06278C51.6879 4.16502 51.4519 4.20203 51.2255 4.20203C50.8289 4.20203 50.4661 4.0897 50.2682 4.01541C50.3071 3.98971 50.3569 3.95479 50.4146 3.91018L51.7152 3.205L50.7601 3.58082C50.9781 3.32483 51.177 2.96627 51.1957 2.50076C51.4117 2.40303 51.6427 2.36665 51.8648 2.36654ZM50.1118 0.855476C51.6231 2.21271 50.7888 3.37585 50.1593 3.81181L50.1685 3.33601L50.1718 3.22841L50.1118 2.24867L50.0461 3.3271C49.9127 2.97234 49.6737 2.53005 49.2676 2.24712C49.3758 1.46333 50.1118 0.855476 50.1118 0.855476ZM48.17 2.15772C48.4609 2.15772 48.7795 2.20952 49.0575 2.37414C49.6243 2.70979 49.8609 3.41721 49.943 3.74482C49.9427 3.74566 49.9424 3.74649 49.9421 3.7471C49.8797 3.7208 49.8022 3.69057 49.7129 3.66025L48.4586 3.01757L49.226 3.53756C49.0977 3.51618 48.9624 3.5023 48.8231 3.5023C48.5722 3.5023 48.3399 3.54607 48.1332 3.6322C48.081 3.65398 48.031 3.67865 47.9825 3.70527C47.4013 3.20398 47.2597 2.30775 47.2597 2.30775C47.2597 2.30775 47.6748 2.15772 48.17 2.15772Z" fill="black"></path> </g> <defs> <clipPath id="clip0_3351_63"> <rect width="100" height="100" rx="10" fill="white"></rect> </clipPath> </defs> </svg> 