<?xml version="1.0" encoding="UTF-8"?> <svg xmlns="http://www.w3.org/2000/svg" width="1785" height="1260" viewBox="0 0 1785 1260" fill="none"><g clip-path="url(#clip0_2082_7764)"><rect width="1260" height="1785" transform="matrix(0 1 -1 0 1785 0)" fill="white"></rect><path d="M573.092 337.364C576.137 334.32 581.088 334.32 584.133 337.364C587.177 340.409 587.177 345.36 584.133 348.405L322.251 610.286C319.206 613.331 314.256 613.331 311.211 610.286C308.167 607.241 308.166 602.29 311.211 599.246L573.092 337.364Z" fill="#2A96FB"></path><path d="M720.139 362.627C723.189 359.589 728.119 359.6 731.159 362.649C734.197 365.698 734.186 370.628 731.137 373.668L346.352 757.311C343.303 760.345 338.372 760.336 335.333 757.289C332.293 754.24 332.306 749.311 335.354 746.27L720.139 362.627Z" fill="#2A96FB"></path><path d="M820.059 437.308C823.108 434.268 828.038 434.282 831.079 437.329C834.118 440.377 834.125 445.308 831.079 448.349L422.161 856.103C419.112 859.142 414.182 859.13 411.142 856.082C408.106 853.032 408.115 848.101 411.163 845.062L820.059 437.308Z" fill="#2A96FB"></path><path d="M878.633 551.019C881.676 547.979 886.608 547.982 889.653 551.019C892.697 554.063 892.697 559.014 889.653 562.059L535.895 915.817C532.85 918.862 527.899 918.862 524.855 915.817C521.818 912.772 521.815 907.84 524.855 904.797L878.633 551.019Z" fill="#2A96FB"></path><path d="M866.017 737.054C869.07 734.026 874.003 734.049 877.036 737.096C880.069 740.152 880.07 745.103 877.015 748.137L720.8 903.189C717.744 906.222 712.793 906.202 709.759 903.146C706.733 900.091 706.752 895.159 709.801 892.127L866.017 737.054Z" fill="#2A96FB"></path><path d="M490.415 506.225C493.46 503.189 498.392 503.185 501.434 506.225C504.479 509.269 504.479 514.22 501.434 517.265L392.321 626.379C389.276 629.424 384.325 629.424 381.28 626.379C378.24 623.336 378.245 618.404 381.28 615.359L490.415 506.225Z" fill="#2A96FB"></path><path d="M642.026 354.596C645.071 351.56 650.003 351.556 653.046 354.596C656.091 357.641 656.091 362.591 653.046 365.636L543.932 474.75C540.887 477.795 535.936 477.795 532.892 474.75C529.852 471.708 529.856 466.775 532.892 463.731L642.026 354.596Z" fill="#2A96FB"></path><path d="M424.919 745.141C427.964 742.096 432.915 742.097 435.96 745.141C439.005 748.186 439.005 753.136 435.96 756.181L379.679 812.462C376.634 815.507 371.684 815.507 368.639 812.462C365.595 809.417 365.594 804.466 368.639 801.421L424.919 745.141Z" fill="#2A96FB"></path><path d="M576.587 593.522C579.648 590.497 584.579 590.525 587.606 593.585C590.631 596.647 590.603 601.577 587.543 604.605L479.571 711.434C476.51 714.455 471.578 714.427 468.552 711.371C465.524 708.31 465.556 703.38 468.615 700.351L576.587 593.522Z" fill="#2A96FB"></path><path d="M728.204 441.899C731.265 438.874 736.196 438.902 739.223 441.962C742.248 445.024 742.22 449.954 739.16 452.981L631.188 559.811C628.127 562.832 623.195 562.804 620.169 559.748C617.141 556.687 617.173 551.757 620.232 548.728L728.204 441.899Z" fill="#2A96FB"></path><path d="M512.173 831.323C515.182 828.252 520.115 828.191 523.192 831.196C526.272 834.205 526.329 839.157 523.319 842.236L473.933 892.764C470.924 895.844 465.973 895.9 462.893 892.891C459.821 889.882 459.763 884.95 462.766 881.872L512.173 831.323Z" fill="#2A96FB"></path><path d="M663.874 679.626C666.935 676.598 671.864 676.629 674.893 679.689C677.921 682.75 677.89 687.68 674.83 690.709L565.716 798.68C562.655 801.705 557.724 801.676 554.697 798.617C551.669 795.556 551.7 790.626 554.76 787.597L663.874 679.626Z" fill="#2A96FB"></path><path d="M815.493 528.023C818.554 524.995 823.484 525.026 826.512 528.087C829.54 531.148 829.509 536.077 826.449 539.106L717.335 647.078C714.274 650.103 709.343 650.074 706.316 647.014C703.289 643.953 703.319 639.023 706.379 635.995L815.493 528.023Z" fill="#2A96FB"></path><path d="M748.818 767.02C751.847 763.96 756.777 763.928 759.837 766.956C762.894 769.983 762.922 774.914 759.901 777.975L653.071 885.947C650.044 889.007 645.113 889.036 642.052 886.01C638.992 882.983 638.963 878.052 641.989 874.991L748.818 767.02Z" fill="#2A96FB"></path><path d="M888.975 627.962C892.018 624.924 896.951 624.924 899.994 627.962C903.039 631.007 903.039 635.957 899.994 639.002L804.67 734.326C801.625 737.371 796.675 737.371 793.63 734.326C790.592 731.283 790.592 726.35 793.63 723.307L888.975 627.962Z" fill="#2A96FB"></path><path d="M605.024 332.775C769.178 332.775 902.272 465.848 902.289 629.999L902.226 637.38C900.629 713.65 869.629 786.472 815.553 840.549C759.738 896.363 683.955 927.572 605.024 927.264C440.863 927.259 307.779 794.181 307.779 630.02C307.785 465.863 440.867 332.781 605.024 332.775ZM323.388 630.02C323.388 785.569 449.476 911.671 605.024 911.677H605.066C679.848 911.973 751.654 882.408 804.533 829.529C857.412 776.65 886.977 704.844 886.681 630.062V630.02C886.675 474.472 760.573 348.384 605.024 348.384C449.479 348.39 323.394 474.475 323.388 630.02Z" fill="black"></path><path d="M605.041 217C833.134 217.004 1018.04 401.909 1018.06 629.999C1018.5 739.683 975.127 845.011 897.569 922.57C820.019 1000.12 714.71 1043.47 605.041 1043.04V1043.06L605.02 1043.04L604.998 1043.06V1043.04C376.908 1043.02 192.003 858.135 191.999 630.042C191.999 401.933 376.932 217 605.041 217ZM207.608 630.042C207.612 849.535 385.547 1027.47 605.041 1027.47H605.062C710.588 1027.89 811.909 986.148 886.528 911.529C961.147 836.91 1002.89 735.589 1002.47 630.063V630.042C1002.47 410.548 824.534 232.613 605.041 232.609C385.544 232.609 207.608 410.545 207.608 630.042Z" fill="black"></path><path d="M1148.44 600.754V531.557H1187.11V600.754H1201.64V519.176H1133.8V600.754H1148.44ZM1229.79 620.484V590.804H1230.07C1233.35 597.531 1240.13 601.715 1248.84 601.715C1263.88 601.715 1273.49 589.899 1273.49 570.791C1273.49 551.626 1263.82 539.81 1248.61 539.81C1239.91 539.81 1233.12 544.22 1229.73 551.174H1229.45V540.828H1215.71V620.484H1229.79ZM1244.32 590.182C1235.56 590.182 1229.73 582.55 1229.68 570.791C1229.73 559.145 1235.56 551.4 1244.32 551.4C1253.42 551.4 1259.07 558.975 1259.07 570.791C1259.07 582.663 1253.42 590.182 1244.32 590.182ZM1310.07 601.941C1324.26 601.941 1334.77 594.139 1336.58 582.832H1323.41C1321.88 587.807 1316.91 591.086 1310.35 591.086C1301.13 591.086 1295.26 584.642 1295.26 575.031V574.183H1337.15V569.604C1337.15 551.4 1326.52 539.584 1309.5 539.584C1292.2 539.584 1281.23 552.078 1281.23 571.017C1281.23 590.125 1292.09 601.941 1310.07 601.941ZM1323.35 564.911H1295.37C1295.93 556.544 1301.64 550.495 1309.56 550.495C1317.64 550.495 1323.07 556.431 1323.35 564.911ZM1360.61 600.754V559.767H1361L1377.91 597.983H1387.86L1404.76 559.767H1405.21V600.754H1418.61V540.828H1400.97L1383.28 582.663H1382.83L1365.13 540.828H1347.21V600.754H1360.61ZM1448.86 601.715C1456.55 601.715 1464.06 597.701 1467.51 591.199H1467.8V600.754H1481.36V559.484C1481.36 547.443 1471.7 539.584 1456.83 539.584C1441.56 539.584 1432.01 547.612 1431.39 558.806H1444.45C1445.35 553.831 1449.59 550.608 1456.26 550.608C1463.22 550.608 1467.46 554.227 1467.46 560.502V564.798L1451.63 565.703C1437.04 566.607 1428.84 572.996 1428.84 583.624C1428.84 594.422 1437.27 601.715 1448.86 601.715ZM1453.1 591.086C1446.99 591.086 1442.92 587.977 1442.92 583.059C1442.92 578.31 1446.82 575.257 1453.61 574.805L1467.46 573.957V578.536C1467.46 585.772 1461.07 591.086 1453.1 591.086ZM1168.96 718.174C1187.73 718.174 1200.84 707.998 1203.95 691.264H1189.48C1186.82 700.252 1179.3 705.51 1169.02 705.51C1154.88 705.51 1145.95 694.034 1145.95 675.717C1145.95 657.513 1154.94 645.98 1168.96 645.98C1179.02 645.98 1187.05 652.029 1189.48 661.414H1203.9C1201.47 644.68 1187.39 633.317 1168.96 633.317C1145.78 633.317 1131.03 649.712 1131.03 675.717C1131.03 701.892 1145.67 718.174 1168.96 718.174ZM1232.33 717.495C1240.02 717.495 1247.54 713.481 1250.99 706.98H1251.27V716.534H1264.84V675.265C1264.84 663.223 1255.17 655.365 1240.3 655.365C1225.04 655.365 1215.49 663.393 1214.86 674.586H1227.92C1228.83 669.611 1233.07 666.389 1239.74 666.389C1246.69 666.389 1250.93 670.007 1250.93 676.282V680.579L1235.1 681.483C1220.52 682.388 1212.32 688.776 1212.32 699.404C1212.32 710.202 1220.74 717.495 1232.33 717.495ZM1236.57 706.867C1230.47 706.867 1226.4 703.758 1226.4 698.839C1226.4 694.09 1230.3 691.038 1237.08 690.585L1250.93 689.737V694.316C1250.93 701.553 1244.54 706.867 1236.57 706.867ZM1291.3 736.264V706.584H1291.58C1294.86 713.312 1301.64 717.495 1310.35 717.495C1325.39 717.495 1335 705.68 1335 686.571C1335 667.407 1325.33 655.591 1310.12 655.591C1301.42 655.591 1294.63 660.001 1291.24 666.954H1290.96V656.609H1277.22V736.264H1291.3ZM1305.83 705.962C1297.06 705.962 1291.24 698.33 1291.18 686.571C1291.24 674.925 1297.06 667.18 1305.83 667.18C1314.93 667.18 1320.58 674.756 1320.58 686.571C1320.58 698.443 1314.93 705.962 1305.83 705.962ZM1371.74 717.721C1389.33 717.721 1400.75 706.019 1400.75 686.571C1400.75 667.18 1389.21 655.365 1371.74 655.365C1354.28 655.365 1342.74 667.237 1342.74 686.571C1342.74 706.019 1354.16 717.721 1371.74 717.721ZM1371.74 706.584C1362.81 706.584 1357.05 699.348 1357.05 686.571C1357.05 673.851 1362.87 666.559 1371.74 666.559C1380.68 666.559 1386.44 673.851 1386.44 686.571C1386.44 699.348 1380.68 706.584 1371.74 706.584ZM1439.7 716.534C1452.98 716.534 1461.24 709.807 1461.24 699.235C1461.24 691.716 1455.92 686.176 1448.07 685.158V684.706C1454 683.688 1458.58 678.091 1458.58 671.816C1458.58 662.319 1451.34 656.609 1439.25 656.609H1410.81V716.534H1439.7ZM1434.89 681.088H1424.6V666.163H1435.97C1441.68 666.163 1444.84 668.82 1444.84 673.512C1444.84 678.487 1441.45 681.088 1434.89 681.088ZM1436.87 706.98H1424.6V690.02H1435.74C1443.32 690.02 1447.22 692.903 1447.22 698.5C1447.22 703.984 1443.54 706.98 1436.87 706.98ZM1489.33 717.495C1497.02 717.495 1504.54 713.481 1507.99 706.98H1508.27V716.534H1521.84V675.265C1521.84 663.223 1512.17 655.365 1497.31 655.365C1482.04 655.365 1472.49 663.393 1471.87 674.586H1484.92C1485.83 669.611 1490.07 666.389 1496.74 666.389C1503.69 666.389 1507.93 670.007 1507.93 676.282V680.579L1492.1 681.483C1477.52 682.388 1469.32 688.776 1469.32 699.404C1469.32 710.202 1477.75 717.495 1489.33 717.495ZM1493.57 706.867C1487.47 706.867 1483.4 703.758 1483.4 698.839C1483.4 694.09 1487.3 691.038 1494.08 690.585L1507.93 689.737V694.316C1507.93 701.553 1501.55 706.867 1493.57 706.867ZM1548.3 736.264V706.584H1548.58C1551.86 713.312 1558.64 717.495 1567.35 717.495C1582.39 717.495 1592 705.68 1592 686.571C1592 667.407 1582.33 655.591 1567.12 655.591C1558.42 655.591 1551.63 660.001 1548.24 666.954H1547.96V656.609H1534.22V736.264H1548.3ZM1562.83 705.962C1554.07 705.962 1548.24 698.33 1548.19 686.571C1548.24 674.925 1554.07 667.18 1562.83 667.18C1571.93 667.18 1577.58 674.756 1577.58 686.571C1577.58 698.443 1571.93 705.962 1562.83 705.962Z" fill="black"></path></g><defs><clipPath id="clip0_2082_7764"><rect width="1260" height="1785" fill="white" transform="matrix(0 1 -1 0 1785 0)"></rect></clipPath></defs></svg> 