<?xml version="1.0" encoding="UTF-8"?> <svg xmlns="http://www.w3.org/2000/svg" width="100" height="100" viewBox="0 0 100 100" fill="none"> <g clip-path="url(#clip0_3351_70)"> <path d="M89.638 54.9902C85.6304 56.5594 83.3725 59.2462 80.776 62.6217C77.728 66.5841 69.4191 78.8667 63.7633 77.0266C66.1114 75.0397 69.7804 73.1996 70.2884 69.858C68.1773 72.7706 63.7746 77.7604 59.7556 75.2203C60.5865 73.1191 62.8824 71.9981 65.0502 72.6351C62.7924 70.3773 59.9588 73.6963 58.5364 75.0849C56.8882 74.1704 56.0867 74.1592 54.0208 72.9286C58.8299 71.7997 61.8554 72.8722 66.1792 68.7855C67.3081 67.7356 77.1974 55.8369 77.4683 54.866C75.5153 56.8755 71.8237 59.6752 69.9384 60.0139C70.6384 59.3365 72.7607 57.2706 72.6591 56.8416C72.5575 56.4126 70.6722 58.0383 69.5659 57.756C69.6336 57.3609 80.5502 46.4669 80.9905 45.9927C92.2119 33.2812 87.5721 32.22 89.0058 29.6912C87.3011 30.1541 90.8121 35.8099 83.6773 40.2353C82.9661 38.9935 85.0433 33.9472 84.1402 31.3394C83.7112 32.9199 84.9304 40.1675 78.665 43.0011C79.3084 40.9352 81.8485 37.6614 81.7695 33.1683C81.7017 29.0477 80.8212 24.5998 79.0714 22.8839C80.6518 25.4578 82.0291 36.0696 78.3714 41.4545C78.6762 39.3886 79.602 39.2644 79.76 34.681C79.839 32.5361 79.3536 28.6865 78.0102 26.948C77.6038 26.3496 78.3714 28.7881 77.4909 29.0139C74.7702 25.0965 75.6959 20.8857 76.599 17.8602C74.8379 19.452 75.4701 21.1792 74.3412 22.5565C73.709 21.4276 72.2866 16.1668 73.4607 13.5252C73.8388 12.6104 74.2958 11.7303 74.8266 10.8948C73.0881 12.1027 73.2687 13.559 72.1511 14.8912C70.1868 11.3012 74.2509 -3.40855 83.3725 2.13442C83.5917 1.95469 83.6809 1.6605 83.5983 1.38934C82.2436 -0.247588 77.4344 -1.43295 73.9122 3.82779C72.9405 5.39502 72.1813 7.08434 71.6544 8.85146C71.1577 10.4207 70.6835 12.7575 70.2094 13.9429C69.6111 13.0397 69.3966 11.8657 68.5725 11.1883C68.7305 12.7575 70.74 14.2251 69.5772 16.7652C68.9337 15.5233 69.0353 15.0153 67.9967 13.9316C67.9967 15.2524 68.6289 15.7378 68.4483 17.6457C68.3354 18.8424 67.9177 20.7615 67.0146 21.563C66.7662 20.4341 67.6693 18.5263 67.1613 17.6231C66.3711 18.594 67.1613 19.96 60.8733 23.6628C58.5251 25.0852 56.6285 26.09 55.2287 28.5736C54.969 29.0252 52.4403 33.9811 52.3838 34.1504C51.921 35.6293 52.7338 38.4855 51.6049 39.795C50.1486 34.7713 52.2258 29.3187 54.1449 24.4982C51.9436 26.677 51.6726 31.633 50.2389 34.1166C48.7826 33.4731 49.8776 28.5962 50.7808 26.756C48.8616 28.0204 48.4326 35.0874 48.7149 39.8514C47.1005 35.0874 46.9086 32.6941 48.7939 28.0317C50.8259 22.9742 51.7178 21.7662 55.8044 18.1086C49.5954 21.6308 48.3762 25.0965 46.8521 30.7411C46.2764 28.4833 48.3762 23.3129 49.5051 21.2131C47.8117 22.9516 46.1184 28.0543 45.8135 30.3686C45.3394 34.681 47.1344 38.8354 47.1682 40.4385C44.3911 36.9388 42.8332 30.1879 43.7815 26.0787C44.9008 20.7727 47.8997 16.0498 52.2258 12.7801C50.6792 13.0623 39.3336 20.3438 43.2848 33.9359C44.2556 37.2549 45.5426 38.9032 46.886 41.6803C46.7542 42.464 46.3553 43.1779 45.7571 43.701C40.6544 40.3143 34.9647 32.4119 34.3438 26.248C33.2149 15.2524 45.6329 15.6927 46.22 11.7979V11.4028C43.1719 15.2863 41.0157 13.7284 37.6176 16.72C29.4894 23.9225 34.2309 33.8908 40.598 40.2691C42.043 41.6577 43.8605 42.9221 45.1023 44.2881C39.4578 47.7426 34.3438 49.9891 35.1566 57.2367C35.5404 60.7138 37.3467 64.586 35.7436 68.2436C35.3564 69.236 34.6898 70.0947 33.8245 70.716C33.4514 71.0436 33.0068 71.2794 32.5262 71.4046C36.5903 67.3179 34.547 63.5925 34.1519 58.7833C34.1359 57.2267 34.2758 55.6723 34.5696 54.1435C28.7669 60.0929 33.7003 65.8052 28.5976 71.8675C28.4734 70.0838 29.2185 70.0047 28.3831 65.8052C27.9993 63.8747 27.3219 61.9443 27.5929 59.9687C29.8507 57.9818 33.7567 55.0805 32.4133 51.7276C31.657 54.6741 32.4133 56.2433 27.2768 59.1446C26.035 55.9159 31.7924 49.752 34.1632 47.8555C31.1489 48.8941 28.4508 53.0597 27.1639 55.8933C26.6784 56.9658 25.7866 59.2801 25.2109 60.409C24.0024 61.6917 23.0247 63.1735 22.3208 64.7892C21.4516 61.933 23.5401 56.5255 25.7979 53.6694C25.6737 53.0597 20.3565 59.043 20.8307 59.3139C21.8128 58.185 22.3999 57.6996 22.524 57.9931C20.4807 62.5991 21.508 68.3565 22.2531 73.7979C23.732 70.6031 21.0677 64.2586 25.0528 61.7298C24.8419 62.3217 24.5285 62.872 24.1271 63.3554C21.0452 66.7422 26.2607 72.8835 20.0291 77.3427C21.1016 71.5852 18.9793 73.1093 18.3019 67.6905C19.3066 68.7629 19.8034 71.4046 20.6839 71.8787C20.1533 70.716 19.8598 69.2822 19.4082 67.9953C18.8144 66.8004 18.6395 65.4406 18.9115 64.1344C19.8598 65.9745 20.5484 69.9483 20.8307 70.5579C21.2822 64.8456 19.0244 64.2699 20.3001 60.1606C18.8803 62.1978 17.8893 64.5022 17.3875 66.9341C17.094 69.7677 19.2276 73.3689 18.268 75.2316C18.052 73.6253 17.7353 72.0342 17.3197 70.4676C15.7844 65.4214 13.6621 61.775 17.3197 56.0401C22.3434 48.1377 35.9243 44.5026 32.3682 38.7677C31.7134 43.7462 21.3726 50.26 17.6923 54.6515C8.09652 66.1664 24.6012 71.0772 10.0947 83.2921C8.31013 84.6434 6.69872 86.2093 5.29681 87.9545L3.21961 90.4945C2.59871 91.0477 3.4341 92.0073 3.99856 91.838C6.92245 88.3609 7.58851 85.7192 12.3074 83.1905C17.9519 80.1424 24.9851 79.8037 30.2458 84.3194C31.5806 85.5616 32.6351 87.0741 33.339 88.756C34.0693 90.3529 33.4986 92.2437 32.0069 93.1701C34.4454 92.4589 33.3503 91.1493 34.5696 90.0317C36.8951 93.4184 43.2509 99.6049 47.7779 100C43.1832 97.6857 41.7607 96.9745 38.7465 93.7119C35.9622 90.5548 33.4045 87.2049 31.0925 83.6872C33.9938 84.7032 37.3918 88.8915 44.6395 87.6835C50.4082 86.724 53.1515 82.4002 56.9221 78.4264C59.3944 78.5055 62.0248 80.4246 68.2112 76.6541C72.1779 74.105 75.7045 70.9291 78.6537 67.2502C82.1081 63.0168 81.1711 60.8154 86.6802 57.6318C89.0735 56.2546 96.3099 53.579 96.355 58.4221C97.9242 56.9432 96.0954 52.4614 89.638 54.9902ZM58.1639 70.6595C54.8787 71.9691 49.6406 72.0481 47.2698 70.7724C50.8033 68.1308 60.0717 71.6191 67.071 66.1777C65.3099 69.8919 61.0426 69.508 58.1639 70.6595ZM52.8918 66.4825C53.8966 63.9651 62.5666 64.5295 65.0615 63.9538C64.181 65.2294 59.417 64.6198 58.0058 65.2746L60.4217 65.8391C58.8067 65.8871 57.2033 66.1297 55.6464 66.5616C54.224 66.8664 51.3226 68.7517 49.8776 68.492C52.3274 66.8664 60.4556 64.5295 52.8918 66.4825ZM70.6835 61.2218C70.4352 63.1184 64.1697 68.2098 56.8769 68.3114C59.3266 66.4261 63.9552 67.8034 70.6835 61.2218ZM70.0852 58.4108C68.866 60.8605 65.7163 61.4589 63.2327 62.0685C62.1038 62.3507 55.5787 64.2021 55.0594 64.0779C57.0575 62.0798 59.6653 62.0233 62.3183 61.4814C64.9374 61.425 66.7775 60.9621 70.0852 58.3656V58.4108ZM62.7021 54.8209C64.112 54.1423 65.6532 53.7801 67.2178 53.7597C62.8714 55.3289 59.925 56.7965 58.2768 59.4042C59.0962 57.3461 60.6828 55.6867 62.7021 54.7757V54.8209ZM62.3634 51.7389C61.8648 51.9197 61.3354 52.0002 60.8055 51.976C56.5495 50.5536 56.9898 40.7433 61.5393 46.2524C61.9115 46.5191 62.3753 46.6249 62.8263 46.5459C64.0907 45.9702 65.5583 45.417 66.134 46.0943C66.9581 47.0539 66.2017 49.1537 62.3634 51.6938V51.7389ZM64.9261 58.1399L67.4661 57.8351C65.8518 58.7382 62.815 59.7655 61.3023 59.5736C62.1133 59.2322 62.8731 58.7801 63.5601 58.2302L59.6202 59.4946C62.2844 57.3609 65.0502 57.2367 68.2451 56.2207C68.917 55.9011 69.6386 55.6987 70.3787 55.6224C68.5386 57.2254 66.6646 57.1125 64.9261 58.0947V58.1399ZM77.6715 33.4618C78.315 32.7393 77.6715 32.1184 77.8183 31.5313C79.4213 33.7892 76.87 37.3001 76.8474 39.2757C76.2829 41.5335 77.9763 38.6548 78.4166 38.5758C78.4166 39.8966 75.0298 44.8412 73.9009 46.0153C73.0365 47.1166 71.8837 47.9567 70.5706 48.4425C72.5575 45.3605 79.1504 38.3726 76.6329 31.5088C75.5595 29.2594 74.6942 26.9165 74.0477 24.5095C73.8445 24.0805 75.8427 26.7786 77.6715 33.4618ZM69.1595 18.5714C69.6901 20.0842 68.5725 23.4257 71.1803 23.6741L70.6045 18.3231C71.6205 19.6213 70.9093 22.1614 72.0608 23.9676C72.7607 25.0965 74.6573 26.0335 74.4993 29.3525C73.3703 27.7608 73.9574 27.2528 72.4446 25.7174C73.1897 29.488 74.7928 28.6526 74.5557 33.4505C74.1267 32.2426 73.4268 28.1672 72.185 27.5124C72.4559 28.6413 73.4832 31.2943 72.9414 32.1974C72.4513 30.423 71.7421 28.7165 70.8303 27.1173C70.4803 27.8059 70.9206 28.4155 70.9319 29.2397C69.3063 28.1898 70.2884 26.9254 69.6223 25.2433C68.6176 26.2706 69.3063 26.7899 68.595 27.7382C67.929 26.5528 68.166 23.945 67.6806 24.0918C66.5517 25.2207 65.8179 28.3027 64.0568 28.6075C64.4971 27.9188 65.3212 27.6253 65.3889 26.5528C64.5845 26.7451 63.8202 27.0776 63.1311 27.535C63.6278 27.0834 68.6966 21.7098 69.1595 18.5714ZM66.2695 20.4793C66.6194 23.5951 61.6071 24.1144 57.6671 27.6027C58.0397 25.3675 63.3795 23.6064 66.2695 20.4793ZM56.7753 37.0517C57.0462 36.8147 57.0688 38.3387 57.9042 38.3839C58.8977 36.555 56.7753 35.6745 57.7688 34.3649C59.1122 34.2182 58.5477 36.3179 59.8685 35.8551C59.9363 34.7262 58.5929 33.8343 59.8685 32.4683C60.9974 32.6716 60.3427 34.0375 61.4039 34.7262C61.9119 33.4392 60.7378 32.5474 61.1781 31.6555C61.5125 31.3399 61.8932 31.0772 62.307 30.8766C63.4359 32.2651 62.6569 32.4571 63.0746 33.8795C64.4068 33.4505 62.894 31.6217 63.5375 30.4927C63.9576 30.259 64.4239 30.1202 64.9035 30.0863C66.0324 31.3056 64.6664 32.4458 65.4002 33.5295C66.1114 32.8635 65.1744 30.9104 66.0888 30.346C66.6807 30.2922 67.2773 30.3653 67.8387 30.5605C68.7418 32.3442 67.0146 32.5022 66.913 34.1391C68.1209 33.8343 67.5451 31.7571 69.2611 31.6217C69.5997 31.9358 69.9095 32.2796 70.1868 32.649C70.0513 33.7102 68.0532 34.3762 68.3128 35.3245C69.8707 35.2568 69.5659 33.0667 71.1125 33.6876C71.3466 33.9033 71.5215 34.1753 71.6205 34.4778C71.6205 36.0018 69.4756 35.4035 69.2837 36.8034C70.4126 36.9953 70.7061 34.8955 72.2414 35.6745C72.2414 35.889 72.6817 36.3857 72.6253 36.5437C72.2527 37.6726 70.4352 37.1872 70.3674 38.4629C71.7221 38.3161 71.4963 37.3904 73.0204 38.0903C72.7043 39.8289 70.7626 38.9935 70.3787 40.7207C71.327 40.2579 71.7899 40.8675 72.6365 39.8176C72.0651 45.4825 68.2876 50.3143 62.9279 52.2356C68.2902 49.2666 70.6384 39.953 64.5987 37.1195C62.8263 36.2841 60.5007 37.1195 58.2881 40.7884C56.0754 44.4574 57.1591 53.3871 61.7764 52.5066C55.5109 55.1257 54.4272 39.1289 56.7753 37.0517ZM56.7753 59.0769C56.2673 58.0608 57.543 56.1304 56.4479 53.5339C56.1883 52.405 55.1948 51.2083 54.9916 50.2149C57.1591 52.1905 58.5364 53.4323 56.7527 59.0769H56.7753ZM52.8918 40.0998C54.2804 43.7801 54.5062 36.7131 54.2917 43.9155L54.5288 45.6541C53.2746 44.0896 52.6866 42.0944 52.8918 40.0998ZM48.5681 47.3023L51.7403 49.4924C51.7629 48.0587 49.8551 46.5459 49.5615 45.2928C52.0339 46.5459 53.7724 49.9327 55.0706 52.3824C56.1205 54.4032 56.6737 56.9884 55.5109 58.9301C55.3303 58.185 55.8157 56.9884 55.3642 55.6224C54.9916 54.4935 53.8966 52.0099 53.1063 51.5018L54.8336 56.7061C53.5015 55.3402 53.016 54.8886 52.3612 54.8321C54.9916 57.9367 54.9352 60.138 51.2323 63.649C51.7291 61.8432 51.5275 59.9166 50.6679 58.2528C49.7083 55.9949 48.4891 54.2903 47.6763 51.5922C49.776 52.7211 49.6406 54.0306 51.7403 54.3016C50.2276 52.5969 48.0714 49.6956 48.5117 47.3136L48.5681 47.3023ZM46.7957 45.9476C47.744 44.3445 47.9246 44.2994 48.4326 44.1187C46.0168 47.5619 45.6103 50.26 47.3037 54.0983C48.3197 56.3562 52.6548 62.7345 48.9068 64.0779C49.2229 62.6329 48.8277 60.0364 47.4166 59.5623C48.2294 61.3008 48.7939 63.7506 47.4843 65.3649C49.2793 60.8493 43.4993 55.9949 43.8492 52.2356C44.5717 53.3646 44.154 53.4549 45.2604 54.4935C46.0393 51.4793 43.7702 50.9487 46.7505 45.9589L46.7957 45.9476ZM44.4363 46.6024C43.4202 48.0022 41.2866 52.7098 41.7156 55.3401C40.2593 53.3871 41.6366 50.8245 42.9235 48.2393C43.2749 47.5873 43.7783 47.0296 44.3911 46.6136L44.4363 46.6024ZM42.6074 46.9072C35.134 59.3252 42.6977 53.7484 43.5557 66.9905C43.0456 67.525 42.4028 67.9145 41.693 68.1195C45.6103 61.1202 31.4425 56.1304 42.5623 46.9185L42.6074 46.9072ZM38.7127 63.9989C39.1078 61.1428 33.7567 54.8434 37.3128 51.1519C35.6082 56.6271 39.0739 58.9075 40.9592 64.0892C42.0881 67.7131 37.8095 70.8627 35.134 71.2917C36.0371 69.8693 39.5029 68.7517 38.7127 63.9989ZM42.5171 79.4538C44.7749 80.2892 47.9133 81.7116 50.2615 81.0907C48.0601 82.4905 44.2105 82.0841 42.0543 80.9326C39.8844 80.065 37.7628 79.0814 35.6985 77.9862C34.6486 77.512 30.449 75.9993 30.1668 75.7848C33.8019 74.3511 39.1304 77.7491 42.5171 79.4651V79.4538ZM31.7811 67.4195C31.9953 65.0136 32.0857 62.5984 32.0521 60.1832L33.102 63.886C33.3503 63.886 33.1923 61.2895 32.8649 58.5688C34.9873 64.4166 34.2422 70.5241 28.1122 74.2156C29.7491 71.5852 31.2506 71.1337 31.7811 67.4195ZM25.5947 62.0233C26.4978 64.157 25.7189 69.3838 24.2626 72.1836C24.2626 70.7385 23.9691 69.35 23.9465 67.8034C23.9013 65.3536 24.1045 63.7619 25.5947 62.0233ZM36.8838 85.0419C30.1103 82.3325 28.8347 79.6795 20.5033 79.1151C25.3802 75.0397 36.7935 83.3485 39.7851 83.2808C36.9967 81.2487 28.496 77.4556 24.161 77.5685C29.9975 74.8365 39.7513 83.5743 43.9847 83.0098C41.9811 82.4277 40.0321 81.6722 38.1595 80.752C36.0259 79.6231 34.9647 79.0812 32.5827 78.0878C31.2405 77.4374 29.8275 76.9449 28.3718 76.6202C32.3795 75.8977 39.74 82.4341 45.6894 82.6712L44.346 82.9421C44.7827 83.1265 45.2494 83.2297 45.7232 83.2469H47.2473C46.2922 83.7704 45.2463 84.1076 44.1653 84.2404C46.3441 85.2902 50.9388 82.8292 52.8128 81.4068C48.3762 85.3806 42.7881 87.4013 36.8838 85.0419ZM53.3547 78.4152C52.4741 78.878 51.3001 78.8667 47.7779 78.5055C49.2035 79.279 50.7861 79.719 52.4064 79.7924C50.1486 81.2939 46.9086 78.4829 44.1089 77.3314C42.1784 76.5299 37.1886 74.8478 35.4162 73.9447C36.7145 73.5608 39.9319 74.7575 40.6205 74.114C39.2491 73.9301 37.894 73.6394 36.5677 73.2447C41.0044 71.5514 49.9567 75.7509 53.8627 77.4217C48.2181 77.0492 44.3572 74.7688 42.472 74.622C45.2378 76.9024 50.3405 77.354 53.3547 78.4152ZM48.173 73.4479C47.0441 72.8496 46.2651 72.7254 45.2152 72.1158C46.6941 71.5401 49.2454 72.8948 50.7808 73.6737C52.5983 74.5881 54.6191 75.3784 56.3125 76.3492C53.6031 77.1169 50.8372 74.8591 48.173 73.4479ZM57.7462 77.3653C58.3558 76.3605 60.0717 76.9589 61.2006 77.1734C60.2185 77.5911 58.5364 77.9072 57.7462 77.3653Z" fill="black"></path> </g> <defs> <clipPath id="clip0_3351_70"> <rect width="100" height="100" fill="white"></rect> </clipPath> </defs> </svg> 