<?xml version="1.0" encoding="UTF-8"?> <svg xmlns="http://www.w3.org/2000/svg" width="1785" height="1260" viewBox="0 0 1785 1260" fill="none"><g clip-path="url(#clip0_2081_3853)"><rect width="1260" height="1785" transform="matrix(0 1 -1 0 1785 0)" fill="white"></rect><path d="M1212.17 629.674L893.003 948.837L573.84 629.674L893.003 310.51L1212.17 629.674ZM602.357 629.674L893.003 920.32L1183.65 629.674L893.003 339.027L602.357 629.674Z" fill="black"></path><path d="M1364.61 629.642L893.003 1101.25L421.394 629.642L893.003 158.032L1364.61 629.642ZM449.911 629.642L893.003 1072.73L1336.1 629.642L893.003 186.55L449.911 629.642Z" fill="black"></path><path d="M1465.04 629.661C1465.04 387.39 1211.43 186.981 893 186.979C574.568 186.979 320.96 387.389 320.96 629.661C320.964 871.93 574.571 1072.32 893 1072.32C1211.43 1072.32 1465.04 871.929 1465.04 629.661ZM1485.2 629.661C1485.2 887.488 1217.55 1092.49 893 1092.49C568.444 1092.49 300.799 887.489 300.795 629.661C300.795 371.83 568.442 166.814 893 166.814C1217.56 166.816 1485.2 371.831 1485.2 629.661Z" fill="black"></path><path d="M1572.84 629.642C1572.84 327.478 1270.52 79.1651 893 79.1649C515.481 79.1649 213.165 327.478 213.165 629.642C213.166 931.805 515.481 1180.12 893 1180.12C1270.52 1180.12 1572.83 931.804 1572.84 629.642ZM1593 629.642C1593 946.652 1277.54 1200.28 893 1200.28C508.459 1200.28 193.001 946.652 193 629.642C193 312.631 508.458 59 893 59C1277.54 59.0003 1593 312.631 1593 629.642Z" fill="black"></path><path d="M965.78 631.296V609.191H943.823V631.296H931.565V579.111H943.823V599.69H965.78V579.111H978.039V631.296H965.78Z" fill="black"></path><path d="M892.624 632.186C882.138 632.186 875.098 625.737 875.098 616.432V616.334C875.098 607.078 882.335 601.515 894.938 600.728L908.575 599.891V596.297C908.575 591.029 905.129 587.829 898.975 587.829C893.166 587.829 889.572 590.537 888.784 594.377L888.686 594.82H877.314L877.363 594.229C878.15 584.974 886.126 578.032 899.369 578.032C912.464 578.032 920.833 584.925 920.833 595.411V631.3H908.575V623.275H908.329C905.276 628.74 899.467 632.186 892.624 632.186ZM887.357 615.94C887.357 620.223 890.852 622.832 896.267 622.832C903.307 622.832 908.575 618.155 908.575 611.952V608.014L896.661 608.752C890.655 609.146 887.357 611.755 887.357 615.891V615.94Z" fill="black"></path><path d="M791.899 631.29V560.25H806.521L828.33 614.502H828.625L850.435 560.25H865.056V631.29H853.635V580.779H853.241L832.81 631.29H824.145L803.715 580.779H803.321V631.29H791.899Z" fill="black"></path><path d="M941.461 739.11L958.298 713.067L941.658 686.926H955.393L965.929 705.24H966.175L976.562 686.926H990.002L973.215 712.723L989.805 739.11H976.415L965.584 720.403H965.338L954.507 739.11H941.461Z" fill="black"></path><path d="M887.31 756.346V686.931H899.568V695.94H899.863C902.817 689.688 908.577 685.848 916.011 685.848C929.303 685.848 937.623 696.186 937.623 713.023V713.072C937.623 729.811 929.254 740.149 916.208 740.149C908.774 740.149 902.817 736.407 899.814 730.303H899.568V756.346H887.31ZM912.368 729.811C920.245 729.811 925.119 723.361 925.119 713.072V713.023C925.119 702.586 920.196 696.186 912.368 696.186C904.786 696.186 899.519 702.783 899.519 713.023V713.072C899.519 723.263 904.836 729.811 912.368 729.811Z" fill="black"></path><path d="M848.415 740.001C837.929 740.001 830.889 733.552 830.889 724.248V724.149C830.889 714.894 838.126 709.331 850.729 708.543L864.365 707.706V704.112C864.365 698.845 860.919 695.645 854.766 695.645C848.956 695.645 845.362 698.352 844.575 702.192L844.476 702.635H833.104L833.153 702.045C833.941 692.789 841.916 685.848 855.159 685.848C868.255 685.848 876.624 692.74 876.624 703.226V739.115H864.365V731.091H864.119C861.067 736.555 855.258 740.001 848.415 740.001ZM843.147 723.755C843.147 728.038 846.642 730.647 852.058 730.647C859.098 730.647 864.365 725.971 864.365 719.768V715.829L852.452 716.568C846.446 716.961 843.147 719.571 843.147 723.706V723.755Z" fill="black"></path><path d="M826.065 696.378H802.926V739.11H790.668V686.926H826.065V696.378Z" fill="black"></path></g><defs><clipPath id="clip0_2081_3853"><rect width="1260" height="1785" fill="white" transform="matrix(0 1 -1 0 1785 0)"></rect></clipPath></defs></svg> 