<?xml version="1.0" encoding="UTF-8"?> <svg xmlns="http://www.w3.org/2000/svg" xmlns:xlink="http://www.w3.org/1999/xlink" width="1000px" height="350px" viewBox="0 0 1000 350"> <title>Group</title> <g id="Page-1" stroke="none" stroke-width="1" fill="none" fill-rule="evenodd"> <g id="Artboard-3-Copy-30" transform="translate(-793.000000, -429.000000)" fill="#FFFFFF"> <g id="Group" transform="translate(793.000000, 429.000000)"> <path d="M82.8032175,198.167424 C62.16813,198.167424 46.3960885,188.186824 38.6415015,171.771365 L37.8528994,171.771365 L37.8528994,195.934921 L0,195.934921 L0,6.43486001 L38.3786341,6.43486001 L38.3786341,79.5821462 L39.1672362,79.5821462 C46.9218232,62.9040397 62.562431,52.9234405 82.6717838,52.9234405 C118.158877,52.9234405 139.976868,80.1074409 139.976868,125.545432 C139.976868,170.852099 118.290311,198.167424 82.8032175,198.167424 Z M69.528416,83.6531801 C50.9962673,83.6531801 38.2472005,100.331287 38.2472005,125.545432 C38.2472005,151.022225 50.8648336,167.30636 69.528416,167.30636 C88.717733,167.30636 100.678198,151.284872 100.678198,125.545432 C100.678198,99.9373157 88.5862994,83.6531801 69.528416,83.6531801 Z M160.480522,195.934921 L160.480522,55.1559429 L198.859156,55.1559429 L198.859156,195.934921 L160.480522,195.934921 Z M179.669839,39.6597495 C168.103675,39.6597495 159.166185,30.8610633 159.166185,19.8298747 C159.166185,8.66736246 168.103675,0 179.669839,0 C191.236002,0 200.173492,8.66736246 200.173492,19.8298747 C200.173492,30.8610633 191.236002,39.6597495 179.669839,39.6597495 Z M225.277325,195.934921 L225.277325,6.43486001 L263.655959,6.43486001 L263.655959,195.934921 L225.277325,195.934921 Z M290.46843,195.934921 L290.46843,6.43486001 L328.847064,6.43486001 L328.847064,195.934921 L290.46843,195.934921 Z M355.396667,195.934921 L355.396667,55.1559429 L393.775301,55.1559429 L393.775301,195.934921 L355.396667,195.934921 Z M374.585984,39.6597495 C363.01982,39.6597495 354.08233,30.8610633 354.08233,19.8298747 C354.08233,8.66736246 363.01982,0 374.585984,0 C386.152148,0 395.089638,8.66736246 395.089638,19.8298747 C395.089638,30.8610633 386.152148,39.6597495 374.585984,39.6597495 Z M483.938804,198.955366 C441.354293,198.955366 414.147521,171.640041 414.147521,125.414108 C414.147521,79.8447936 441.748594,52.1354985 483.938804,52.1354985 C526.129015,52.1354985 553.730088,79.7134699 553.730088,125.414108 C553.730088,171.771365 526.523316,198.955366 483.938804,198.955366 Z M483.938804,169.670186 C502.733821,169.670186 514.694285,153.780022 514.694285,125.545432 C514.694285,97.5734895 502.602387,81.4206777 483.938804,81.4206777 C465.275222,81.4206777 453.05189,97.5734895 453.05189,125.545432 C453.05189,153.780022 465.012355,169.670186 483.938804,169.670186 Z M573.44514,195.934921 L573.44514,55.1559429 L610.509437,55.1559429 L610.509437,80.2387646 L611.298039,80.2387646 C618.789759,62.772716 633.641764,52.5294695 655.328321,52.5294695 C686.609537,52.5294695 704.22165,72.2280205 704.22165,105.190263 L704.22165,195.934921 L665.843016,195.934921 L665.843016,113.201007 C665.843016,94.8156924 657.168393,84.3097985 639.950581,84.3097985 C622.732769,84.3097985 611.823774,96.9168712 611.823774,115.170862 L611.823774,195.934921 L573.44514,195.934921 Z M785.579097,52.1354985 C820.934756,52.1354985 843.93565,69.9955181 844.461385,97.3108422 L809.105725,97.3108422 C808.317123,86.0170063 799.248199,79.0568516 785.053362,79.0568516 C771.778561,79.0568516 763.103938,85.0977405 763.103938,94.159074 C763.103938,101.119229 769.149887,105.846881 781.504653,108.736002 L808.448557,114.514243 C836.706798,120.81778 848.141528,131.980292 848.141528,152.99208 C848.141528,180.701375 822.643394,198.955366 785.447663,198.955366 C747.857631,198.955366 724.725304,180.832699 722.622365,153.386051 L760.080963,153.386051 C761.921035,165.205181 771.252826,172.034013 786.499133,172.034013 C801.088271,172.034013 809.894327,166.255771 809.894327,157.063114 C809.894327,149.971635 805.162715,146.031925 792.545082,143.011481 L766.521213,137.233239 C739.840177,131.19235 726.171074,117.272041 726.171074,96.5229002 C726.171074,69.7328707 749.434835,52.1354985 785.579097,52.1354985 Z M900.636139,59.1691944 L944.140687,118.658819 L944.534988,118.658819 L988.039535,59.1691944 L1000,59.1691944 L950.055202,126.144268 L999.737133,195.745815 L987.908102,195.745815 L944.27212,134.417659 L943.877819,134.417659 L900.110404,195.745815 L888.281373,195.745815 L938.357605,126.406915 L888.544241,59.1691944 L900.636139,59.1691944 Z" id="Combined-Shape-Copy"></path> <path d="M0,301.774169 L17.45105,301.774169 C26.4830167,301.774169 32.7731364,307.999774 32.7731364,317.063998 C32.7731364,326.160479 26.3539886,332.418341 17.2252508,332.418341 L7.22557337,332.418341 L7.22557337,348.321054 L0,348.321054 L0,301.774169 Z M7.22557337,307.870746 L7.22557337,326.354021 L15.5156285,326.354021 C21.8057482,326.354021 25.3862779,322.967033 25.3862779,317.096255 C25.3862779,311.225477 21.8057482,307.870746 15.5478856,307.870746 L7.22557337,307.870746 Z M112.383472,307.838489 L112.383472,324.579885 L122.512177,324.579885 C128.092642,324.579885 131.286088,321.515467 131.286088,316.193058 C131.286088,310.999677 127.8991,307.838489 122.318635,307.838489 L112.383472,307.838489 Z M112.383472,330.418406 L112.383472,348.321054 L105.157898,348.321054 L105.157898,301.774169 L123.189575,301.774169 C132.769911,301.774169 138.73746,307.322377 138.73746,315.999516 C138.73746,322.289636 135.38273,327.386246 129.705493,329.28941 L140.124512,348.321054 L131.8022,348.321054 L122.318635,330.418406 L112.383472,330.418406 Z M231.895745,301 C245.28241,301 253.701494,310.257766 253.701494,325.06374 C253.701494,339.869714 245.28241,349.095223 231.895745,349.095223 C218.476823,349.095223 210.089997,339.869714 210.089997,325.06374 C210.089997,310.257766 218.476823,301 231.895745,301 Z M231.895745,307.354634 C223.057321,307.354634 217.476856,314.193123 217.476856,325.06374 C217.476856,335.9021 223.057321,342.740589 231.895745,342.740589 C240.73417,342.740589 246.282378,335.9021 246.282378,325.06374 C246.282378,314.193123 240.73417,307.354634 231.895745,307.354634 Z M326.634625,301.774169 L343.05345,301.774169 C356.891713,301.774169 365.084997,310.290023 365.084997,324.966969 C365.084997,339.676172 356.92397,348.321054 343.05345,348.321054 L326.634625,348.321054 L326.634625,301.774169 Z M333.860198,307.999774 L333.860198,342.063192 L342.376052,342.063192 C352.246702,342.063192 357.698139,336.031128 357.698139,325.031483 C357.698139,314.064095 352.214445,307.999774 342.376052,307.999774 L333.860198,307.999774 Z M445.243702,301.774169 L445.243702,331.35386 C445.243702,337.998806 449.437115,342.676075 456.85623,342.676075 C464.275346,342.676075 468.501016,337.998806 468.501016,331.35386 L468.501016,301.774169 L475.694332,301.774169 L475.694332,331.966743 C475.694332,341.998677 468.533273,349.095223 456.85623,349.095223 C445.179188,349.095223 438.018128,341.998677 438.018128,331.966743 L438.018128,301.774169 L445.243702,301.774169 Z M569.981613,349.095223 C556.917519,349.095223 548.659721,339.869714 548.659721,325.031483 C548.659721,310.290023 556.982033,301 569.981613,301 C580.52966,301 588.497145,307.483662 589.722912,317.193026 L582.561853,317.193026 C581.271572,311.225477 576.30399,307.322377 569.981613,307.322377 C561.530273,307.322377 556.046579,314.257637 556.046579,325.031483 C556.046579,335.9021 561.465759,342.772846 570.013871,342.772846 C576.497532,342.772846 581.110287,339.450373 582.561853,333.83765 L589.755169,333.83765 C587.981033,343.450244 580.690945,349.095223 569.981613,349.095223 Z M679.139383,348.321054 L671.913809,348.321054 L671.913809,307.999774 L657.656205,307.999774 L657.656205,301.774169 L693.36473,301.774169 L693.36473,307.999774 L679.139383,307.999774 L679.139383,348.321054 Z M772.523467,348.321054 L765.297894,348.321054 L765.297894,301.774169 L772.523467,301.774169 L772.523467,348.321054 Z M867.294603,301 C880.681268,301 889.100352,310.257766 889.100352,325.06374 C889.100352,339.869714 880.681268,349.095223 867.294603,349.095223 C853.875681,349.095223 845.488855,339.869714 845.488855,325.06374 C845.488855,310.257766 853.875681,301 867.294603,301 Z M867.294603,307.354634 C858.456179,307.354634 852.875714,314.193123 852.875714,325.06374 C852.875714,335.9021 858.456179,342.740589 867.294603,342.740589 C876.133028,342.740589 881.681236,335.9021 881.681236,325.06374 C881.681236,314.193123 876.133028,307.354634 867.294603,307.354634 Z M969.065514,348.321054 L962.033483,348.321054 L962.033483,301.774169 L968.581659,301.774169 L992.709913,336.095642 L992.967969,336.095642 L992.967969,301.774169 L1000,301.774169 L1000,348.321054 L993.484081,348.321054 L969.355827,314.031838 L969.065514,314.031838 L969.065514,348.321054 Z" id="PRODUCTION"></path> </g> </g> </g> </svg> 