<?xml version="1.0" encoding="UTF-8"?> <svg xmlns="http://www.w3.org/2000/svg" width="1785" height="1260" viewBox="0 0 1785 1260" fill="none"><g clip-path="url(#clip0_2081_4105)"><rect width="1260" height="1785" transform="matrix(0 1 -1 0 1785 0)" fill="white"></rect><path d="M617.453 304.059C620.844 300.669 626.359 300.669 629.75 304.059C633.141 307.451 633.141 312.965 629.75 316.356L338.072 608.034C334.681 611.425 329.167 611.425 325.775 608.034C322.385 604.643 322.384 599.128 325.775 595.738L617.453 304.059Z" fill="#2A96FB"></path><path d="M781.231 332.196C784.627 328.813 790.118 328.824 793.504 332.22C796.887 335.617 796.876 341.108 793.48 344.493L364.915 771.787C361.518 775.166 356.026 775.156 352.642 771.763C349.256 768.367 349.27 762.876 352.665 759.49L781.231 332.196Z" fill="#2A96FB"></path><path d="M892.521 415.357C895.916 411.971 901.407 411.986 904.794 415.38C908.179 418.775 908.187 424.267 904.794 427.653L449.35 881.802C445.954 885.187 440.463 885.174 437.077 881.778C433.696 878.382 433.706 872.89 437.101 869.505L892.521 415.357Z" fill="#2A96FB"></path><path d="M957.758 542.004C961.147 538.619 966.64 538.622 970.031 542.004C973.422 545.396 973.422 550.91 970.031 554.301L576.023 948.309C572.631 951.7 567.117 951.7 563.726 948.309C560.344 944.918 560.341 939.425 563.726 936.036L957.758 542.004Z" fill="#2A96FB"></path><path d="M943.706 749.232C947.107 745.859 952.6 745.885 955.979 749.279C959.357 752.682 959.358 758.197 955.955 761.576L781.966 934.269C778.562 937.648 773.048 937.626 769.669 934.222C766.299 930.819 766.32 925.326 769.716 921.949L943.706 749.232Z" fill="#2A96FB"></path><path d="M525.363 492.132C528.754 488.751 534.248 488.747 537.636 492.132C541.027 495.524 541.027 501.038 537.636 504.429L416.108 625.957C412.716 629.349 407.202 629.349 403.811 625.957C400.425 622.569 400.43 617.076 403.811 613.684L525.363 492.132Z" fill="#2A96FB"></path><path d="M694.238 323.257C697.629 319.876 703.123 319.872 706.511 323.257C709.902 326.649 709.902 332.163 706.511 335.554L584.983 457.082C581.591 460.474 576.077 460.474 572.686 457.082C569.3 453.694 569.305 448.201 572.686 444.809L694.238 323.257Z" fill="#2A96FB"></path><path d="M452.423 758.208C455.814 754.817 461.328 754.818 464.719 758.208C468.11 761.599 468.11 767.113 464.719 770.505L402.035 833.189C398.644 836.58 393.13 836.58 389.738 833.189C386.348 829.798 386.347 824.283 389.738 820.892L452.423 758.208Z" fill="#2A96FB"></path><path d="M621.344 589.32C624.754 585.95 630.245 585.982 633.617 589.391C636.987 592.8 636.955 598.292 633.546 601.664L513.29 720.648C509.881 724.013 504.388 723.982 501.017 720.577C497.645 717.169 497.68 711.678 501.088 708.304L621.344 589.32Z" fill="#2A96FB"></path><path d="M790.214 420.445C793.624 417.075 799.115 417.107 802.487 420.516C805.857 423.925 805.825 429.417 802.417 432.789L682.16 551.773C678.751 555.138 673.258 555.107 669.887 551.702C666.515 548.294 666.551 542.803 669.958 539.429L790.214 420.445Z" fill="#2A96FB"></path><path d="M549.597 854.22C552.949 850.8 558.443 850.732 561.87 854.079C565.3 857.431 565.364 862.945 562.012 866.375L507.007 922.652C503.655 926.082 498.14 926.145 494.71 922.793C491.288 919.443 491.224 913.949 494.569 910.52L549.597 854.22Z" fill="#2A96FB"></path><path d="M718.564 685.244C721.973 681.871 727.464 681.906 730.837 685.315C734.21 688.724 734.175 694.215 730.766 697.588L609.237 817.845C605.828 821.214 600.336 821.182 596.964 817.774C593.593 814.365 593.626 808.874 597.035 805.501L718.564 685.244Z" fill="#2A96FB"></path><path d="M887.427 516.412C890.836 513.039 896.327 513.074 899.7 516.483C903.073 519.892 903.038 525.383 899.629 528.756L778.101 649.013C774.691 652.382 769.2 652.35 765.828 648.942C762.456 645.533 762.49 640.042 765.898 636.669L887.427 516.412Z" fill="#2A96FB"></path><path d="M813.179 782.576C816.553 779.169 822.044 779.133 825.452 782.505C828.857 785.876 828.888 791.369 825.523 794.778L706.539 915.035C703.167 918.443 697.675 918.475 694.266 915.105C690.857 911.734 690.825 906.242 694.195 902.832L813.179 782.576Z" fill="#2A96FB"></path><path d="M969.277 627.727C972.666 624.343 978.16 624.344 981.55 627.727C984.941 631.118 984.941 636.632 981.55 640.024L875.38 746.193C871.989 749.585 866.475 749.585 863.083 746.193C859.7 742.803 859.7 737.31 863.083 733.92L969.277 627.727Z" fill="#2A96FB"></path><path d="M653.019 298.954C835.851 298.954 984.088 447.168 984.107 629.995L984.037 638.217C982.258 723.164 947.731 804.272 887.502 864.502C825.337 926.666 740.931 961.426 653.019 961.084C470.18 961.078 321.954 812.859 321.954 630.019C321.96 447.184 470.184 298.96 653.019 298.954ZM339.339 630.019C339.339 803.267 479.773 943.716 653.019 943.723H653.066C736.356 944.052 816.333 911.124 875.229 852.229C934.124 793.333 967.052 713.356 966.722 630.066V630.019C966.716 456.773 826.267 316.339 653.019 316.339C479.776 316.345 339.345 456.776 339.339 630.019Z" fill="black"></path><path d="M653.037 170C907.083 170.004 1113.03 375.948 1113.05 629.99C1113.54 752.153 1065.23 869.466 978.849 955.849C892.476 1042.22 775.185 1090.5 653.037 1090.03V1090.05L653.014 1090.03L652.99 1090.05V1090.03C398.948 1090.01 193.004 884.083 193 630.037C193 375.975 398.975 170 653.037 170ZM210.385 630.037C210.389 874.505 408.569 1072.69 653.037 1072.69H653.061C770.594 1073.16 883.443 1026.66 966.552 943.552C1049.66 860.443 1096.16 747.594 1095.69 630.061V630.037C1095.69 385.569 897.505 187.389 653.037 187.385C408.567 187.385 210.385 385.567 210.385 630.037Z" fill="black"></path><path d="M1243.73 653.243V588.765H1244.17L1270.43 652.487H1281.51L1307.76 588.765H1308.21V653.243H1322.81V562.383H1304.05L1276.22 630.953H1275.72L1247.88 562.383H1229.06V653.243H1243.73ZM1345.99 678.051C1361.22 678.051 1368.59 672.447 1374.32 655.887L1398.44 586.499H1381.94L1366.2 639.894H1365.95L1350.2 586.499H1333.08L1356.82 653.305L1356.7 653.939L1356.08 656.387C1355.99 656.729 1355.93 657.02 1355.93 657.02C1354.17 663.191 1350.83 665.647 1344.35 665.647C1343.4 665.647 1340.63 665.584 1339.81 665.395V677.799C1340.63 677.988 1345.1 678.051 1345.99 678.051ZM1422.68 653.243V623.397H1423.18L1447.99 653.243H1467.19L1437.6 617.667L1465.87 586.499H1447.61L1423.18 614.33H1422.68V586.499H1407.06V653.243H1422.68ZM1506.93 653.243V598.588H1527.45V586.499H1470.85V598.588H1491.37V653.243H1506.93ZM1556.79 654.313C1565.36 654.313 1573.73 649.842 1577.57 642.601H1577.89V653.243H1593V607.277C1593 593.866 1582.23 585.113 1565.67 585.113C1548.67 585.113 1538.03 594.055 1537.34 606.522H1551.88C1552.89 600.981 1557.61 597.392 1565.04 597.392C1572.79 597.392 1577.51 601.422 1577.51 608.411V613.196L1559.88 614.204C1543.63 615.211 1534.5 622.326 1534.5 634.164C1534.5 646.19 1543.89 654.313 1556.79 654.313ZM1561.52 642.475C1554.72 642.475 1550.18 639.012 1550.18 633.534C1550.18 628.245 1554.53 624.845 1562.08 624.341L1577.51 623.397V628.497C1577.51 636.557 1570.4 642.475 1561.52 642.475ZM1245.3 782.197V740.765H1245.81L1282.83 782.197H1303.61L1261.23 734.531L1300.15 691.337H1281.38L1245.81 731.068H1245.3V691.337H1229.06V782.197H1245.3ZM1319.35 807.005C1334.59 807.005 1341.96 801.401 1347.69 784.841L1371.8 715.453H1355.3L1339.56 768.848H1339.31L1323.57 715.453H1306.44L1330.18 782.259C1330.24 782.448 1329.3 785.786 1329.3 785.974C1327.54 792.145 1324.2 794.601 1317.71 794.601C1316.77 794.601 1314 794.538 1313.18 794.349V806.753C1314 806.942 1318.47 807.005 1319.35 807.005ZM1396.04 782.197V753.862H1424.25V782.197H1439.87V715.453H1424.25V741.772H1396.04V715.453H1380.43V782.197H1396.04ZM1462.47 799.638V782.197H1509.82V799.638H1524.18V770.107H1514.04V715.453H1463.29L1460.96 750.273C1460.33 759.277 1458.32 767.211 1453.4 770.107H1448.12V799.638H1462.47ZM1498.43 770.107H1469.84V769.603C1472.92 765.196 1474.44 758.647 1474.94 751.091L1476.64 727.479H1498.43V770.107ZM1552.7 783.267C1561.27 783.267 1569.64 778.796 1573.48 771.555H1573.8V782.197H1588.91V736.231C1588.91 722.82 1578.14 714.067 1561.58 714.067C1544.58 714.067 1533.94 723.009 1533.25 735.476H1547.79C1548.8 729.935 1553.52 726.346 1560.95 726.346C1568.7 726.346 1573.42 730.376 1573.42 737.365V742.15L1555.79 743.158C1539.54 744.165 1530.41 751.28 1530.41 763.118C1530.41 775.144 1539.79 783.267 1552.7 783.267ZM1557.42 771.429C1550.62 771.429 1546.09 767.966 1546.09 762.488C1546.09 757.199 1550.44 753.799 1557.99 753.295L1573.42 752.351V757.451C1573.42 765.511 1566.3 771.429 1557.42 771.429Z" fill="black"></path></g><defs><clipPath id="clip0_2081_4105"><rect width="1260" height="1785" fill="white" transform="matrix(0 1 -1 0 1785 0)"></rect></clipPath></defs></svg> 