<?xml version="1.0" encoding="UTF-8"?> <svg xmlns="http://www.w3.org/2000/svg" width="1785" height="1260" viewBox="0 0 1785 1260" fill="none"><g clip-path="url(#clip0_2081_3769)"><rect width="1260" height="1785" transform="matrix(0 1 -1 0 1785 0)" fill="white"></rect><path d="M1109.2 311.137C1112.52 307.82 1117.91 307.821 1121.23 311.137C1124.54 314.454 1124.54 319.848 1121.23 323.165L835.906 608.487C832.588 611.804 827.194 611.804 823.877 608.487C820.561 605.169 820.56 599.775 823.877 596.458L1109.2 311.137Z" fill="#2A96FB"></path><path d="M1269.41 338.685C1272.73 335.375 1278.1 335.387 1281.41 338.708C1284.72 342.031 1284.71 347.402 1281.39 350.714L862.164 768.695C858.842 772.001 853.469 771.991 850.159 768.672C846.847 765.35 846.86 759.979 850.182 756.667L1269.41 338.685Z" fill="#2A96FB"></path><path d="M1378.28 420.027C1381.6 416.715 1386.97 416.73 1390.28 420.05C1393.59 423.371 1393.6 428.743 1390.28 432.056L944.763 876.306C941.441 879.618 936.07 879.605 932.757 876.283C929.449 872.961 929.46 867.589 932.78 864.278L1378.28 420.027Z" fill="#2A96FB"></path><path d="M1442.09 543.939C1445.4 540.628 1450.78 540.631 1454.09 543.939C1457.41 547.257 1457.41 552.651 1454.09 555.968L1068.67 941.389C1065.35 944.707 1059.96 944.707 1056.64 941.389C1053.34 938.072 1053.33 932.699 1056.64 929.384L1442.09 543.939Z" fill="#2A96FB"></path><path d="M1428.34 746.626C1431.67 743.327 1437.05 743.352 1440.35 746.672C1443.65 750.002 1443.66 755.396 1440.33 758.701L1270.13 927.631C1266.8 930.936 1261.41 930.914 1258.1 927.585C1254.8 924.256 1254.82 918.883 1258.15 915.579L1428.34 746.626Z" fill="#2A96FB"></path><path d="M1019.12 495.112C1022.44 491.805 1027.81 491.8 1031.12 495.112C1034.44 498.43 1034.44 503.823 1031.12 507.141L912.244 626.021C908.927 629.338 903.533 629.338 900.216 626.021C896.904 622.706 896.908 617.333 900.216 614.015L1019.12 495.112Z" fill="#2A96FB"></path><path d="M1184.3 329.917C1187.62 326.609 1193 326.605 1196.31 329.917C1199.63 333.234 1199.63 338.628 1196.31 341.945L1077.43 460.826C1074.11 464.143 1068.72 464.143 1065.4 460.826C1062.09 457.511 1062.09 452.137 1065.4 448.82L1184.3 329.917Z" fill="#2A96FB"></path><path d="M947.771 755.412C951.088 752.095 956.482 752.096 959.799 755.412C963.117 758.73 963.117 764.124 959.799 767.441L898.481 828.759C895.164 832.076 889.77 832.076 886.452 828.759C883.136 825.442 883.135 820.048 886.452 816.731L947.771 755.412Z" fill="#2A96FB"></path><path d="M1113.01 590.23C1116.34 586.934 1121.71 586.965 1125.01 590.299C1128.31 593.635 1128.28 599.006 1124.94 602.305L1007.31 718.696C1003.97 721.988 998.599 721.957 995.302 718.627C992.003 715.293 992.038 709.921 995.371 706.622L1113.01 590.23Z" fill="#2A96FB"></path><path d="M1278.19 425.004C1281.53 421.709 1286.9 421.74 1290.2 425.074C1293.49 428.409 1293.46 433.781 1290.13 437.079L1172.49 553.471C1169.16 556.762 1163.78 556.732 1160.49 553.401C1157.19 550.067 1157.22 544.696 1160.56 541.396L1278.19 425.004Z" fill="#2A96FB"></path><path d="M1042.82 849.31C1046.1 845.964 1051.48 845.898 1054.83 849.171C1058.19 852.45 1058.25 857.845 1054.97 861.2L1001.16 916.25C997.883 919.606 992.489 919.668 989.134 916.389C985.786 913.111 985.724 907.737 988.996 904.383L1042.82 849.31Z" fill="#2A96FB"></path><path d="M1208.11 684.039C1211.44 680.74 1216.81 680.774 1220.11 684.108C1223.41 687.443 1223.38 692.814 1220.04 696.114L1101.16 813.75C1097.83 817.046 1092.46 817.014 1089.16 813.681C1085.86 810.346 1085.89 804.974 1089.23 801.675L1208.11 684.039Z" fill="#2A96FB"></path><path d="M1373.29 518.887C1376.63 515.588 1382 515.621 1385.3 518.956C1388.6 522.291 1388.56 527.662 1385.23 530.962L1266.35 648.597C1263.01 651.893 1257.64 651.862 1254.34 648.528C1251.05 645.193 1251.08 639.822 1254.41 636.523L1373.29 518.887Z" fill="#2A96FB"></path><path d="M1300.66 779.226C1303.96 775.893 1309.33 775.858 1312.67 779.157C1316 782.454 1316.03 787.827 1312.74 791.162L1196.34 908.798C1193.05 912.132 1187.67 912.163 1184.34 908.867C1181 905.569 1180.97 900.197 1184.27 896.861L1300.66 779.226Z" fill="#2A96FB"></path><path d="M1453.36 627.775C1456.67 624.465 1462.05 624.466 1465.36 627.775C1468.68 631.093 1468.68 636.486 1465.36 639.804L1361.51 743.66C1358.19 746.977 1352.8 746.977 1349.48 743.66C1346.17 740.344 1346.17 734.97 1349.48 731.654L1453.36 627.775Z" fill="#2A96FB"></path><path d="M1143.99 306.144C1322.84 306.144 1467.84 451.127 1467.86 629.97L1467.79 638.012C1466.05 721.109 1432.28 800.449 1373.36 859.366C1312.55 920.176 1229.99 954.178 1143.99 953.843C965.136 953.837 820.14 808.848 820.14 629.993C820.146 451.143 965.139 306.15 1143.99 306.144ZM837.146 629.993C837.146 799.466 974.519 936.854 1143.99 936.86H1144.04C1225.51 937.183 1303.74 904.972 1361.36 847.36C1418.97 789.748 1451.18 711.515 1450.86 630.039V629.993C1450.85 460.523 1313.46 323.149 1143.99 323.149C974.522 323.155 837.152 460.526 837.146 629.993Z" fill="black"></path><path d="M1144.01 180C1392.52 180.004 1593.98 381.46 1594 629.965C1594.47 749.466 1547.22 864.222 1462.72 948.723C1378.23 1033.21 1263.49 1080.44 1144.01 1079.98V1080L1143.98 1079.98L1143.96 1080V1079.98C895.456 1079.96 694 878.521 693.996 630.012C693.996 381.486 895.482 180 1144.01 180ZM711.002 630.012C711.006 869.151 904.868 1063.02 1144.01 1063.02H1144.03C1259 1063.47 1369.39 1017.99 1450.69 936.694C1531.99 855.396 1577.47 745.006 1577.01 630.035V630.012C1577.01 390.871 1383.15 197.01 1144.01 197.006C904.865 197.006 711.002 390.869 711.002 630.012Z" fill="black"></path><path d="M209.702 652.71V577.319H251.832V652.71H267.662V563.83H193.749V652.71H209.702ZM297.966 652.71L326.36 608.793H326.853V652.71H341.882V587.42H326.853L298.459 631.029H297.966V587.42H282.937V652.71H297.966ZM355.617 653.387C370.954 653.387 375.882 641.192 377.114 622.282L378.653 599.246H397.255V652.71H412.53V587.42H365.411L363.317 621.482C362.701 632.322 360.606 639.96 354.262 639.96C352.538 639.96 351.244 639.652 350.628 639.467V652.648C351.429 652.956 353.215 653.387 355.617 653.387ZM441.232 652.71L469.627 608.793H470.12V652.71H485.149V587.42H470.12L441.725 631.029H441.232V587.42H426.204V652.71H441.232ZM539.782 623.453V609.779H499.315V623.453H539.782ZM207.423 778.853V725.39H234.401V778.853H249.738V713.564H192.148V778.853H207.423ZM292.361 780.147C311.516 780.147 323.958 767.397 323.958 746.209C323.958 725.082 311.393 712.209 292.361 712.209C273.328 712.209 260.763 725.144 260.763 746.209C260.763 767.397 273.205 780.147 292.361 780.147ZM292.361 768.013C282.629 768.013 276.346 760.129 276.346 746.209C276.346 732.35 282.691 724.405 292.361 724.405C302.093 724.405 308.375 732.35 308.375 746.209C308.375 760.129 302.093 768.013 292.361 768.013ZM350.197 778.853V749.658H350.69L374.958 778.853H393.744L364.795 744.053L392.45 713.564H374.588L350.69 740.788H350.197V713.564H334.922V778.853H350.197ZM413.269 778.853L426.82 755.448H427.128L440.678 778.853H457.432L436.675 745.839L457.678 713.564H440.863L427.867 736.477H427.559L414.378 713.564H397.131L418.012 746.27L396.947 778.853H413.269ZM485.888 779.9C494.265 779.9 502.457 775.527 506.214 768.444H506.522V778.853H521.304V733.89C521.304 720.771 510.772 712.209 494.573 712.209C477.942 712.209 467.533 720.955 466.855 733.151H481.084C482.069 727.731 486.689 724.22 493.957 724.22C501.533 724.22 506.152 728.162 506.152 734.999V739.68L488.906 740.665C473.015 741.651 464.084 748.611 464.084 760.19C464.084 771.955 473.261 779.9 485.888 779.9ZM490.507 768.321C483.855 768.321 479.421 764.933 479.421 759.574C479.421 754.401 483.67 751.075 491.062 750.582L506.152 749.658V754.647C506.152 762.531 499.192 768.321 490.507 768.321ZM550.13 800.349V768.013H550.438C554.01 775.342 561.402 779.9 570.887 779.9C587.271 779.9 597.742 767.027 597.742 746.209C597.742 725.328 587.209 712.455 570.641 712.455C561.155 712.455 553.764 717.26 550.068 724.836H549.76V713.564H534.793V800.349H550.13ZM565.96 767.335C556.413 767.335 550.068 759.02 550.007 746.209C550.068 733.52 556.413 725.082 565.96 725.082C575.876 725.082 582.035 733.336 582.035 746.209C582.035 759.143 575.876 767.335 565.96 767.335Z" fill="black"></path></g><defs><clipPath id="clip0_2081_3769"><rect width="1260" height="1785" fill="white" transform="matrix(0 1 -1 0 1785 0)"></rect></clipPath></defs></svg> 