<?xml version="1.0" encoding="UTF-8"?> <svg xmlns="http://www.w3.org/2000/svg" width="806" height="1071" viewBox="0 0 806 1071" fill="none"><path d="M776.413 1067.75L768.877 1011.98L750.79 1067.75H730.1L712.151 1011.85L705.848 1067.75H679.129L689.679 970.466H723.797L741.747 1024.59L759.696 970.466H794.636L805.187 1067.75H776.413Z" fill="white"></path><path d="M618.836 1070.22C609.701 1070.22 601.343 1068.12 593.761 1063.91C586.179 1059.62 580.151 1053.59 575.675 1045.83C571.29 1038.06 569.098 1029.16 569.098 1019.11C569.098 1009.06 571.29 1000.15 575.675 992.389C580.151 984.625 586.179 978.642 593.761 974.44C601.343 970.147 609.701 968 618.836 968C627.97 968 636.328 970.147 643.91 974.44C651.583 978.642 657.612 984.625 661.997 992.389C666.473 1000.15 668.711 1009.06 668.711 1019.11C668.711 1029.16 666.473 1038.06 661.997 1045.83C657.612 1053.59 651.583 1059.62 643.91 1063.91C636.328 1068.12 627.97 1070.22 618.836 1070.22ZM618.836 1041.99C623.951 1041.99 628.244 1040.07 631.716 1036.24C635.187 1032.31 636.922 1026.6 636.922 1019.11C636.922 1011.62 635.187 1005.95 631.716 1002.12C628.244 998.19 623.951 996.226 618.836 996.226C613.72 996.226 609.473 998.19 606.093 1002.12C602.713 1005.95 601.023 1011.62 601.023 1019.11C601.023 1026.6 602.713 1032.31 606.093 1036.24C609.473 1040.07 613.72 1041.99 618.836 1041.99Z" fill="white"></path><path d="M534.012 1070.22C523.416 1070.22 514.373 1068.12 506.883 1063.91C499.392 1059.71 493.683 1053.77 489.755 1046.1C485.827 1038.43 483.863 1029.43 483.863 1019.11C483.863 1008.88 485.873 999.926 489.892 992.252C493.911 984.488 499.666 978.505 507.157 974.303C514.738 970.101 523.69 968 534.012 968C542.69 968 551.414 970.055 560.183 974.166L555.113 1001.43C549.45 998.784 543.604 997.459 537.575 997.459C531.363 997.459 526.157 999.377 521.955 1003.21C517.844 1007.05 515.789 1012.35 515.789 1019.11C515.789 1026.05 517.661 1031.39 521.407 1035.14C525.243 1038.88 530.678 1040.76 537.712 1040.76C541.548 1040.76 544.654 1040.44 547.029 1039.8C549.496 1039.07 552.601 1037.97 556.347 1036.51L561.553 1063.64C557.443 1065.56 553.195 1067.11 548.81 1068.3C544.517 1069.58 539.584 1070.22 534.012 1070.22Z" fill="white"></path><path d="M458.722 1068.85C453.515 1068.85 449.313 1067.43 446.116 1064.6C442.919 1061.77 441.32 1057.88 441.32 1052.95C441.32 1048.02 442.919 1044 446.116 1040.89C449.404 1037.79 453.606 1036.24 458.722 1036.24C463.929 1036.24 468.13 1037.79 471.328 1040.89C474.616 1044 476.26 1048.02 476.26 1052.95C476.26 1057.88 474.662 1061.77 471.465 1064.6C468.267 1067.43 464.02 1068.85 458.722 1068.85Z" fill="white"></path><path d="M395.649 1070.22C385.967 1070.22 377.883 1068.98 371.397 1066.52C364.911 1063.96 359.202 1060.58 354.27 1056.38L364.135 1035.55C370.255 1039.2 375.234 1041.9 379.07 1043.63C382.907 1045.28 387.017 1046.1 391.402 1046.1C394.508 1046.1 396.837 1045.6 398.39 1044.59C400.034 1043.59 400.856 1042.22 400.856 1040.48C400.856 1038.66 399.988 1037.24 398.253 1036.24C396.609 1035.14 393.959 1034.09 390.306 1033.08C383.546 1031.17 378.065 1029.29 373.863 1027.47C369.661 1025.55 365.871 1022.44 362.491 1018.15C359.111 1013.76 357.421 1007.83 357.421 1000.34C357.421 993.029 359.157 986.954 362.628 982.113C366.19 977.272 370.803 973.709 376.467 971.425C382.13 969.142 388.205 968 394.69 968C403.185 968 410.219 969.096 415.791 971.288C421.455 973.389 426.296 976.404 430.315 980.332L420.039 999.926C414.832 997.094 410.539 995.038 407.159 993.76C403.871 992.481 400.491 991.841 397.02 991.841C394.188 991.841 391.904 992.298 390.169 993.212C388.524 994.125 387.702 995.404 387.702 997.048C387.702 998.692 388.57 1000.02 390.306 1001.02C392.133 1002.03 394.919 1003.08 398.664 1004.17C405.972 1006.37 411.726 1008.38 415.928 1010.2C420.13 1011.94 423.967 1014.91 427.438 1019.11C431 1023.22 432.782 1028.75 432.782 1035.69C432.782 1047.01 429.356 1055.6 422.505 1061.45C415.654 1067.29 406.702 1070.22 395.649 1070.22Z" fill="white"></path><path d="M309.633 1068.98C303.97 1068.98 297.393 1068.12 289.902 1066.38L292.095 1041.85C292.643 1041.94 293.876 1042.17 295.794 1042.54C297.712 1042.9 299.585 1043.09 301.412 1043.09C305.523 1043.09 308.491 1041.85 310.318 1039.39C312.145 1036.92 313.059 1033.31 313.059 1028.56V970.466H343.203V1034.87C343.203 1047.11 340.143 1055.88 334.023 1061.17C327.994 1066.38 319.864 1068.98 309.633 1068.98Z" fill="white"></path><path d="M249.324 1050.49H220.687L215.344 1067.75H186.021L220.002 970.466H254.12L287.964 1067.75H254.531L249.324 1050.49ZM243.57 1031.99L234.937 1003.63L226.305 1031.99H243.57Z" fill="white"></path><path d="M133.005 1037.33H128.894V1067.75H98.75V970.466H144.103C156.801 970.466 166.483 973.298 173.152 978.962C179.82 984.534 183.154 992.481 183.154 1002.8C183.154 1010.29 181.418 1016.78 177.947 1022.26C174.567 1027.65 169.543 1031.62 162.875 1034.18L185.62 1067.75H150.954L133.005 1037.33ZM128.894 1017.88H136.978C146.478 1017.88 151.228 1013.9 151.228 1005.95C151.228 1002.3 150.087 999.697 147.803 998.144C145.519 996.5 141.911 995.678 136.978 995.678H128.894V1017.88Z" fill="white"></path><path d="M65.7693 1018.15C71.8895 1019.61 76.5482 1022.12 79.7453 1025.69C82.9424 1029.16 84.541 1034 84.541 1040.21C84.541 1049.16 81.2069 1056.01 74.5386 1060.76C67.8703 1065.42 58.1876 1067.75 45.4905 1067.75H0V970.466H42.7501C55.4472 970.466 64.9929 972.796 71.3871 977.454C77.8727 982.113 81.1155 988.964 81.1155 998.007C81.1155 1003.76 79.8367 1008.24 77.279 1011.44C74.7213 1014.54 70.8847 1016.78 65.7693 1018.15ZM30.1443 992.937V1011.02H40.8318C44.0289 1011.02 46.3582 1010.16 47.8198 1008.42C49.3727 1006.69 50.1491 1004.4 50.1491 1001.57C50.1491 998.829 49.3727 996.728 47.8198 995.267C46.2669 993.714 43.9376 992.937 40.8318 992.937H30.1443ZM42.7501 1045.28C45.8558 1045.28 48.3222 1044.37 50.1491 1042.54C51.976 1040.71 52.8895 1038.43 52.8895 1035.69C52.8895 1033.04 52.0217 1030.98 50.2861 1029.52C48.5506 1027.97 46.0385 1027.19 42.7501 1027.19H30.1443V1045.28H42.7501Z" fill="white"></path><path fill-rule="evenodd" clip-rule="evenodd" d="M402.593 0C624.938 0 805.187 180.25 805.187 402.594C805.187 624.937 624.938 805.187 402.593 805.187C180.249 805.187 0 624.937 0 402.594C0 180.25 180.249 0 402.593 0ZM387.98 317.363C380.743 315.485 373.817 312.561 367.412 308.682C356.203 315.464 343.518 319.27 330.412 319.789L328.197 319.877V302.19L330.222 302.094C337.865 301.724 345.331 299.908 352.263 296.726C345.556 289.952 340.119 281.849 340.119 271.907C340.119 256.664 352.479 244.303 367.723 244.303C382.969 244.303 395.331 256.664 395.331 271.907C395.331 282.554 389.652 289.841 382.594 296.737C389.509 299.908 396.939 301.715 404.542 302.09V263.153H396.795V244.303H405.218C407.24 230.934 418.79 220.862 432.513 220.862C446.241 220.862 457.796 230.946 459.809 244.327C462.159 244.421 463.85 244.848 465.968 246.785C467.928 248.584 468.979 251.08 468.979 253.729C468.979 257.923 466.073 261.741 462.027 262.843C461.47 262.995 460.908 263.086 460.337 263.138C460.337 297.288 460.337 331.438 460.337 365.587V367.717H441.486V263.153H423.395V367.717H404.542V325.463C387.271 348.79 359.974 362.733 330.59 362.733H328.458V344.683H330.59C352.995 344.683 373.958 334.617 387.98 317.363ZM201.642 562.695C166.608 518.783 145.66 463.135 145.66 402.594C145.66 342.05 166.608 286.401 201.642 242.492V242.501C248.718 183.49 321.233 145.663 402.59 145.663C544.486 145.663 659.518 260.695 659.518 402.594C659.518 544.492 544.486 659.524 402.59 659.524C321.233 659.524 248.718 621.698 201.642 562.686V562.695ZM573.67 418.379V551.91H543.009V418.516H520.397V551.91H489.737V516.23C475.785 524.625 455.517 538.328 440.593 538.328C427.33 538.328 415.37 532.345 407.685 521.505C396.693 506 397.484 485.325 409.918 471.051C402.125 464.401 397.601 454.691 397.601 444.34C397.601 434.405 401.779 425.095 408.916 418.516H357.885V551.91H327.228V418.516H305.773V446.128C305.913 448 305.887 450.082 305.887 451.969C305.887 479.433 284.811 494.216 259.746 488.966C271.003 509.92 291.751 524.431 315.555 527.546L317.407 527.786V551.813L315.058 551.574C275.458 547.474 242.126 519.644 230.949 481.492C223.513 456.106 234.878 452.172 257.686 456.903C262.781 457.961 271.527 459.724 274.19 453.677C274.676 452.576 274.931 451.354 275.057 450.161L275.112 439.512V418.516H219.444V389.75H466.102V418.516H463.973C451.025 418.516 423.603 428.642 423.603 444.34C423.603 449.379 427.687 453.461 432.723 453.461C434.347 453.461 435.928 453.033 437.329 452.212C437.394 452.175 437.464 452.136 437.531 452.104L458.792 439.831L471.481 461.807L462.598 467.184C452.166 473.491 425.457 483.307 425.457 497.697C425.457 506.056 432.234 512.832 440.593 512.832C442.159 512.832 443.716 512.595 445.21 512.115C452.218 509.876 462.499 503.361 468.921 499.493C471.473 497.958 474.013 496.408 476.547 494.852C480.927 492.166 485.301 489.415 489.737 486.825V418.516H475.911V389.75H570.227C571.68 389.75 573.198 389.776 574.627 390.04C588.863 392.667 589.54 414.107 575.937 417.928C575.222 418.13 574.448 418.279 573.67 418.379ZM441.639 244.303C440.042 240.799 436.505 238.428 432.5 238.428C428.495 238.428 424.959 240.799 423.36 244.303H441.639ZM367.712 287.565C372.443 283.164 377.749 278.933 377.749 271.907C377.749 266.365 373.258 261.871 367.712 261.871C362.168 261.871 357.674 266.365 357.674 271.907C357.674 278.91 362.989 283.172 367.712 287.565ZM403.876 773.461C408.945 776.98 415.662 786.365 403.494 797.318C403.494 797.318 397.567 792.412 396.696 786.088C399.966 783.805 401.89 780.236 402.965 777.373L403.494 786.075L403.976 778.167L403.95 777.301L403.876 773.461ZM351.904 766.465C356.973 769.983 363.691 779.369 351.522 790.321C351.522 790.321 345.596 785.416 344.725 779.091C347.994 776.808 349.919 773.239 350.993 770.376L351.522 779.078L352.005 771.173L351.979 770.305L351.904 766.465ZM455.848 766.465C460.916 769.983 467.635 779.369 455.465 790.321C455.465 790.321 449.539 785.416 448.668 779.091C451.938 776.808 453.862 773.239 454.936 770.376L455.465 779.078L455.948 771.173L455.922 770.305L455.848 766.465ZM402.127 773.983L402.134 774.002C401.473 776.645 399.568 782.355 395.004 785.063C392.766 786.391 390.201 786.809 387.858 786.809C383.871 786.809 380.529 785.599 380.529 785.599C380.529 785.599 381.669 778.367 386.349 774.322C386.739 774.536 387.142 774.735 387.562 774.911C389.226 775.606 391.097 775.959 393.117 775.959C394.239 775.959 395.328 775.847 396.361 775.675L390.182 779.871L400.282 774.685C401.001 774.44 401.625 774.196 402.127 773.983ZM412.461 770.313C414.284 770.313 416.184 770.611 417.952 771.437C424.325 774.41 426.573 783.105 426.573 783.105C426.573 783.105 422.353 785.124 417.608 785.124C415.82 785.123 413.96 784.829 412.221 784.041C412.07 780.285 410.469 777.391 408.714 775.325L416.404 778.358L405.932 772.668C405.467 772.308 405.066 772.026 404.753 771.818C406.346 771.219 409.268 770.313 412.461 770.313ZM350.156 766.987L350.163 767.006C349.502 769.649 347.597 775.358 343.033 778.067C340.794 779.395 338.229 779.813 335.887 779.813C331.9 779.813 328.557 778.602 328.557 778.602C328.557 778.602 329.697 771.37 334.377 767.325C334.768 767.539 335.17 767.738 335.591 767.914C337.255 768.609 339.125 768.963 341.146 768.963C342.267 768.963 343.357 768.85 344.39 768.678L338.211 772.874L348.31 767.688C349.029 767.443 349.652 767.199 350.156 766.987ZM454.099 766.987L454.106 767.006C453.445 769.649 451.54 775.358 446.976 778.067C444.738 779.395 442.172 779.813 439.83 779.813C436.303 779.813 433.28 778.865 432.629 778.647L432.515 778.607L432.5 778.602C432.5 778.602 433.641 771.37 438.32 767.325C438.711 767.539 439.113 767.738 439.534 767.914C441.198 768.609 443.068 768.963 445.089 768.963C446.21 768.963 447.3 768.85 448.333 768.678L442.154 772.874L452.253 767.688C452.972 767.443 453.596 767.199 454.099 766.987ZM360.489 763.316C362.312 763.316 364.213 763.615 365.981 764.44C372.354 767.413 374.601 776.108 374.601 776.108C374.601 776.108 370.382 778.128 365.637 778.128C363.849 778.126 361.989 777.833 360.249 777.044C360.099 773.288 358.497 770.395 356.742 768.329L364.432 771.362L353.96 765.671C353.495 765.311 353.095 765.03 352.781 764.822C354.375 764.223 357.296 763.316 360.489 763.316ZM464.433 763.316C466.255 763.316 468.156 763.615 469.924 764.44C476.297 767.413 478.544 776.108 478.544 776.108C478.544 776.108 474.325 778.128 469.58 778.128C467.792 778.126 465.932 777.833 464.193 777.044C464.042 773.288 462.44 770.395 460.685 768.329L468.376 771.362L457.903 765.671C457.439 765.311 457.038 765.03 456.724 764.822C458.318 764.223 461.239 763.316 464.433 763.316ZM388.704 759.545C389.478 759.545 390.264 759.606 391.045 759.738C391.083 760.141 391.128 760.544 391.206 760.95C391.742 763.783 393.211 766.197 394.866 768.128L389.516 766.269L396.211 769.559C397.744 771.062 399.261 772.161 400.233 772.793C398.443 773.443 395.856 774.159 393.116 774.159C391.5 774.159 389.833 773.911 388.252 773.25C381.762 770.541 379.16 761.947 379.16 761.947L379.392 761.83C380.377 761.349 384.358 759.545 388.704 759.545ZM397.387 746.787C397.387 746.787 405.006 750.988 406.482 757.734C403.593 760.826 402.485 765.009 402.076 768.078L399.48 757.832L401.188 771.267C399.063 769.877 394 766.056 392.968 760.614C391.657 753.692 397.387 746.787 397.387 746.787ZM419.726 754.722C421.026 754.722 421.984 754.821 422.335 754.863L422.481 754.882C422.481 754.882 422.911 763.851 417.709 768.588C417.476 768.8 417.221 768.971 416.975 769.161C415.582 768.739 414.076 768.514 412.461 768.514C410.763 768.514 409.154 768.757 407.732 769.072L414.178 762.442L405 769.826C404.484 770 404.021 770.165 403.667 770.306C403.823 767.467 404.618 761.783 408.409 758.33C411.779 755.262 416.686 754.722 419.726 754.722ZM440.675 752.548C441.449 752.548 442.235 752.61 443.017 752.742C443.055 753.144 443.1 753.548 443.177 753.953C443.713 756.787 445.182 759.2 446.838 761.132L441.487 759.273L448.182 762.562C449.715 764.066 451.233 765.164 452.204 765.796C450.415 766.447 447.827 767.163 445.088 767.163C443.472 767.163 441.804 766.914 440.224 766.254C433.734 763.544 431.132 754.951 431.132 754.951L431.147 754.943L431.364 754.834C432.348 754.353 436.33 752.548 440.675 752.548ZM336.732 752.548C337.506 752.548 338.292 752.61 339.074 752.742C339.112 753.144 339.157 753.548 339.234 753.953C339.77 756.787 341.239 759.2 342.894 761.132L337.544 759.273L344.239 762.562C345.772 764.066 347.29 765.164 348.261 765.796C346.472 766.447 343.884 767.163 341.145 767.163C339.529 767.163 337.861 766.914 336.281 766.254C329.791 763.544 327.188 754.951 327.188 754.951L327.204 754.943L327.42 754.834C328.405 754.353 332.387 752.548 336.732 752.548ZM345.415 739.791C345.415 739.791 353.034 743.991 354.51 750.737C351.622 753.83 350.514 758.012 350.105 761.081L347.508 750.836L349.216 764.27C347.092 762.88 342.029 759.06 340.997 753.617C339.685 746.695 345.415 739.791 345.415 739.791ZM449.359 739.791C449.359 739.791 456.977 743.991 458.453 750.737C455.565 753.83 454.457 758.012 454.048 761.081L451.451 750.836L453.159 764.27C451.035 762.88 445.972 759.06 444.94 753.617C443.628 746.695 449.359 739.791 449.359 739.791ZM367.755 747.726C369.408 747.726 370.51 747.885 370.51 747.885C370.51 747.885 370.515 747.996 370.517 748.199L370.518 748.487C370.507 750.573 370.131 757.591 365.738 761.591C365.504 761.803 365.25 761.975 365.003 762.164C363.61 761.743 362.105 761.518 360.489 761.518C358.791 761.518 357.182 761.761 355.761 762.075L362.206 755.445L353.028 762.83C352.512 763.003 352.049 763.169 351.696 763.31C351.851 760.471 352.647 754.786 356.438 751.334C359.807 748.266 364.714 747.726 367.755 747.726ZM471.698 747.726C473.352 747.726 474.453 747.885 474.453 747.885C474.453 747.885 474.459 747.996 474.46 748.199L474.461 748.487C474.451 750.573 474.074 757.591 469.681 761.591C469.448 761.803 469.193 761.975 468.946 762.164C467.553 761.743 466.048 761.518 464.433 761.518C462.734 761.518 461.126 761.761 459.704 762.075L466.149 755.445L456.972 762.83C456.456 763.003 455.993 763.169 455.639 763.31C455.794 760.471 456.59 754.786 460.381 751.334C463.751 748.266 468.657 747.726 471.698 747.726ZM402.593 71.3137C585.553 71.3137 733.873 219.635 733.873 402.594C733.873 585.552 585.553 733.874 402.593 733.874C219.635 733.874 71.3137 585.552 71.3137 402.594C71.3137 219.635 219.635 71.3137 402.593 71.3137ZM40.4609 455.419C41.059 457.015 41.9635 459.943 41.9635 463.143C41.9635 464.97 41.6655 466.875 40.8423 468.646C37.875 475.033 29.1992 477.285 29.1992 477.285C29.1992 477.285 27.1844 473.057 27.1844 468.302C27.1853 466.51 27.4781 464.645 28.265 462.902C32.0133 462.751 34.9003 461.147 36.9616 459.387L33.9356 467.094L39.6136 456.599C39.9727 456.134 40.2539 455.732 40.4609 455.419ZM764.308 455.419C764.515 455.732 764.796 456.134 765.155 456.599L770.833 467.094L767.808 459.387C769.868 461.147 772.755 462.751 776.504 462.902C777.29 464.645 777.583 466.51 777.584 468.302C777.584 473.057 775.57 477.285 775.57 477.285C775.57 477.285 766.894 475.033 763.927 468.646C763.103 466.875 762.805 464.97 762.805 463.143C762.805 459.943 763.71 457.015 764.308 455.419ZM41.97 454.33C44.8024 454.487 50.4746 455.283 53.9194 459.082C56.9809 462.46 57.5205 467.377 57.5205 470.424C57.5205 471.726 57.4219 472.687 57.3795 473.039L57.3607 473.185C57.3607 473.185 57.2502 473.191 57.0473 473.193L56.5861 473.192C54.3121 473.16 47.5708 472.69 43.6846 468.403C43.4736 468.169 43.3016 467.914 43.1128 467.666C43.5332 466.271 43.7583 464.761 43.7583 463.143C43.7583 461.442 43.5158 459.829 43.2013 458.403L49.8177 464.864L42.4492 455.666C42.2763 455.148 42.1108 454.684 41.97 454.33ZM762.799 454.33C762.658 454.684 762.493 455.148 762.319 455.666L754.951 464.864L761.567 458.403C761.253 459.829 761.01 461.442 761.01 463.143C761.01 464.761 761.236 466.271 761.656 467.666L761.284 468.163L761.084 468.403C757.198 472.69 750.457 473.16 748.183 473.192L747.721 473.193C747.518 473.191 747.408 473.185 747.408 473.185L747.389 473.039C747.347 472.687 747.248 471.726 747.248 470.424C747.248 467.377 747.787 462.46 750.85 459.082C754.294 455.283 759.967 454.487 762.799 454.33ZM778.546 447.344C784.857 448.218 789.751 454.157 789.751 454.157C778.823 466.352 769.457 459.62 765.948 454.54L769.779 454.614L770.645 454.641L778.533 454.157L769.85 453.626C772.706 452.549 776.268 450.621 778.546 447.344ZM26.2228 447.344C28.501 450.621 32.0621 452.549 34.9186 453.626L26.2352 454.157L34.1258 454.64L34.9904 454.614L38.8215 454.54C35.3112 459.62 25.9458 466.352 15.0175 454.157C15.0175 454.157 19.9118 448.218 26.2228 447.344ZM65.4377 448.037C65.4377 448.037 61.2465 455.671 54.5151 457.151C51.4289 454.257 47.256 453.146 44.1935 452.736L54.4167 450.134L41.0111 451.846C42.3987 449.717 46.211 444.643 51.6415 443.608C58.5482 442.293 65.4377 448.037 65.4377 448.037ZM739.331 448.037C739.331 448.037 746.221 442.293 753.127 443.608C758.558 444.643 762.37 449.717 763.757 451.846L750.352 450.134L760.575 452.736C757.512 453.146 753.34 454.257 750.254 457.151C743.522 455.671 739.331 448.037 739.331 448.037ZM778.058 431.141C778.058 431.141 779.266 434.491 779.266 438.487C779.266 440.834 778.849 443.405 777.523 445.649C774.821 450.223 769.125 452.131 766.486 452.794L766.469 452.787C766.68 452.283 766.923 451.657 767.167 450.937L772.342 440.816L768.155 447.008C768.328 445.973 768.44 444.881 768.44 443.758C768.44 441.732 768.087 439.858 767.394 438.19C767.218 437.768 767.019 437.366 766.805 436.974C770.842 432.284 778.058 431.141 778.058 431.141ZM26.711 431.141C26.711 431.141 33.9273 432.284 37.9637 436.974C37.7493 437.366 37.5507 437.768 37.3753 438.19C36.6818 439.858 36.3294 441.732 36.3294 443.758C36.3294 444.881 36.4411 445.973 36.6132 447.008L32.4264 440.816L37.6012 450.937C37.8452 451.657 38.0886 452.283 38.3004 452.787L38.2821 452.794C35.6442 452.131 29.9481 450.223 27.2456 445.649C25.9201 443.405 25.5029 440.834 25.5029 438.487C25.5029 434.491 26.711 431.141 26.711 431.141ZM50.311 429.77C50.311 429.77 52.7081 434.309 52.7081 439.334C52.7081 440.109 52.6468 440.897 52.5145 441.681C52.1131 441.719 51.7111 441.764 51.3064 441.841C48.479 442.379 46.0701 443.851 44.1431 445.51L45.9981 440.148L42.7159 446.857C41.2157 448.394 40.12 449.915 39.4888 450.888C38.8399 449.095 38.1251 446.502 38.1251 443.757C38.1251 442.137 38.3733 440.465 39.0327 438.881C41.7361 432.377 50.311 429.77 50.311 429.77ZM754.458 429.77C754.458 429.77 763.033 432.377 765.736 438.881C766.395 440.465 766.643 442.137 766.643 443.757C766.643 446.502 765.929 449.095 765.28 450.888C764.649 449.915 763.553 448.394 762.053 446.857L758.771 440.148L760.625 445.51C758.698 443.851 756.289 442.379 753.462 441.841C753.057 441.764 752.656 441.719 752.255 441.681C752.122 440.897 752.061 440.109 752.061 439.334C752.061 434.309 754.458 429.77 754.458 429.77ZM33.4796 403.334C34.0778 404.93 34.9822 407.858 34.9822 411.059C34.9822 412.886 34.6842 414.79 33.861 416.561C30.8937 422.948 22.2179 425.2 22.2179 425.2C22.2179 425.2 20.2031 420.972 20.2031 416.217C20.204 414.425 20.4969 412.56 21.2837 410.817C25.032 410.667 27.9191 409.062 29.9803 407.302L26.9543 415.009L32.6323 404.514C32.9915 404.05 33.2727 403.647 33.4796 403.334ZM771.289 403.334C771.496 403.647 771.777 404.05 772.136 404.514L777.814 415.009L774.789 407.302C776.85 409.062 779.736 410.667 783.485 410.817C784.272 412.56 784.565 414.425 784.566 416.217C784.566 420.972 782.551 425.2 782.551 425.2C782.551 425.2 773.875 422.948 770.908 416.561C770.085 414.79 769.787 412.886 769.787 411.059C769.787 407.858 770.691 404.93 771.289 403.334ZM34.9887 402.245C37.8212 402.402 43.4934 403.198 46.9381 406.997C49.9997 410.375 50.5392 415.293 50.5392 418.339C50.5392 419.997 50.3794 421.1 50.3794 421.1C50.3794 421.1 50.2689 421.106 50.066 421.108L49.7793 421.109C47.6973 421.098 40.6945 420.721 36.7034 416.318C36.4924 416.084 36.3203 415.829 36.1315 415.582C36.552 414.186 36.777 412.677 36.777 411.058C36.777 409.357 36.5345 407.745 36.2201 406.319L42.8364 412.779L35.4679 403.581C35.295 403.064 35.1295 402.6 34.9887 402.245ZM769.78 402.245C769.639 402.6 769.473 403.064 769.301 403.581L761.932 412.779L768.548 406.319C768.234 407.745 767.992 409.357 767.992 411.058C767.992 412.677 768.217 414.186 768.637 415.582C768.449 415.829 768.276 416.084 768.065 416.318C764.074 420.721 757.071 421.098 754.989 421.109L754.702 421.108C754.499 421.106 754.389 421.1 754.389 421.1C754.389 421.1 754.23 419.997 754.23 418.339C754.23 415.293 754.769 410.375 757.83 406.997C761.275 403.198 766.948 402.402 769.78 402.245ZM785.527 395.259C791.838 396.133 796.732 402.072 796.732 402.072C785.804 414.267 776.439 407.535 772.929 402.455L776.76 402.529L777.624 402.555L785.514 402.072L776.831 401.541C779.688 400.464 783.249 398.537 785.527 395.259ZM19.2415 395.259C21.5197 398.537 25.0809 400.464 27.9374 401.541L19.2539 402.072L27.1428 402.554L28.0091 402.529L31.8402 402.455C28.3299 407.535 18.9645 414.267 8.03621 402.072C8.03621 402.072 8.34214 401.701 8.89957 401.13L9.30788 400.722C11.1595 398.915 14.8589 395.866 19.2415 395.259ZM58.4564 395.952C58.4564 395.952 54.2652 403.586 47.5339 405.066C44.4477 402.172 40.2747 401.062 37.2122 400.651L47.4354 398.049L34.0298 399.761C35.4174 397.632 39.2297 392.557 44.6602 391.523C51.5669 390.208 58.4564 395.952 58.4564 395.952ZM746.312 395.952C746.312 395.952 753.201 390.208 760.108 391.523C765.539 392.557 769.351 397.632 770.738 399.761L757.334 398.049L767.556 400.651C764.494 401.062 760.321 402.172 757.235 405.066C750.503 403.586 746.312 395.952 746.312 395.952ZM785.039 379.056C785.039 379.056 786.247 382.407 786.247 386.402C786.247 388.749 785.83 391.32 784.505 393.564C781.802 398.137 776.106 400.046 773.468 400.709L773.45 400.702C773.661 400.198 773.904 399.573 774.148 398.852L779.323 388.731L775.137 394.923C775.309 393.889 775.421 392.796 775.421 391.673C775.421 389.647 775.068 387.774 774.375 386.105C774.199 385.684 774 385.281 773.786 384.89C777.822 380.199 785.039 379.056 785.039 379.056ZM19.7297 379.056C19.7297 379.056 26.9461 380.199 30.9824 384.89C30.768 385.281 30.5694 385.684 30.394 386.105C29.7005 387.774 29.3481 389.647 29.3481 391.673C29.3481 392.796 29.4599 393.889 29.632 394.923L25.4451 388.731L30.6199 398.852C30.864 399.573 31.1073 400.198 31.3192 400.702L31.3008 400.709C28.663 400.046 22.9669 398.137 20.2643 393.564C18.9388 391.32 18.5216 388.749 18.5216 386.402C18.5216 382.867 19.4671 379.838 19.6852 379.186L19.7246 379.071L19.7297 379.056ZM761.439 377.684C761.439 377.684 770.014 380.292 772.718 386.796C773.376 388.38 773.625 390.052 773.625 391.672C773.625 394.417 772.91 397.01 772.261 398.804C771.63 397.83 770.535 396.309 769.034 394.772L765.752 388.063L767.607 393.425C765.679 391.766 763.271 390.294 760.443 389.756C760.039 389.679 759.637 389.634 759.236 389.597C759.103 388.812 759.042 388.025 759.042 387.249C759.042 382.224 761.439 377.684 761.439 377.684ZM43.3298 377.684L43.3376 377.7L43.4462 377.918C43.9263 378.904 45.7269 382.894 45.7269 387.249C45.7269 388.025 45.6656 388.812 45.5333 389.597C45.1319 389.634 44.7299 389.679 44.3252 389.756C41.4977 390.294 39.0889 391.766 37.1619 393.425L39.0169 388.063L35.7346 394.772C34.2344 396.309 33.1387 397.83 32.5075 398.804C31.8587 397.01 31.1439 394.417 31.1439 391.672C31.1439 390.052 31.3921 388.38 32.0514 386.796C34.7548 380.292 43.3298 377.684 43.3298 377.684ZM764.308 351.249C764.515 351.562 764.796 351.965 765.155 352.43L770.833 362.925L767.808 355.218C769.868 356.978 772.755 358.582 776.504 358.733C777.29 360.476 777.583 362.34 777.584 364.133C777.584 368.887 775.57 373.116 775.57 373.116C775.57 373.116 766.894 370.863 763.927 364.476C763.103 362.705 762.805 360.8 762.805 358.974C762.805 355.774 763.71 352.845 764.308 351.249ZM40.4609 351.249C41.059 352.845 41.9635 355.774 41.9635 358.974C41.9635 360.8 41.6655 362.705 40.8423 364.476C37.875 370.863 29.1992 373.116 29.1992 373.116C29.1992 373.116 27.1844 368.887 27.1844 364.133C27.1853 362.34 27.4781 360.476 28.265 358.733C32.0133 358.582 34.9003 356.978 36.9616 355.218L33.9356 362.925L39.6136 352.43C39.9727 351.965 40.2539 351.562 40.4609 351.249ZM762.799 350.161C762.658 350.515 762.493 350.979 762.319 351.496L754.951 360.694L761.567 354.234C761.253 355.66 761.01 357.272 761.01 358.973C761.01 360.592 761.236 362.102 761.656 363.497L761.284 363.994L761.084 364.234C756.358 369.447 747.408 369.016 747.408 369.016L747.389 368.869C747.347 368.518 747.248 367.557 747.248 366.254C747.248 363.207 747.787 358.29 750.85 354.913C754.294 351.113 759.967 350.317 762.799 350.161ZM41.97 350.161C44.8024 350.317 50.4746 351.113 53.9194 354.913C56.9809 358.29 57.5205 363.207 57.5205 366.254C57.5205 367.557 57.4219 368.518 57.3795 368.869L57.3607 369.016C57.3607 369.016 48.411 369.447 43.6846 364.234C43.4736 364 43.3016 363.745 43.1128 363.497C43.5332 362.102 43.7583 360.592 43.7583 358.973C43.7583 357.272 43.5158 355.66 43.2013 354.234L49.8177 360.694L42.4492 351.496C42.2763 350.979 42.1108 350.515 41.97 350.161ZM26.2228 343.174C28.501 346.452 32.0621 348.38 34.9186 349.456L26.2352 349.987L34.1258 350.47L34.9904 350.445L38.8215 350.37C35.3112 355.45 25.9458 362.182 15.0175 349.987C15.0175 349.987 19.9118 344.048 26.2228 343.174ZM778.546 343.174C784.857 344.048 789.751 349.987 789.751 349.987C778.823 362.182 769.457 355.45 765.948 350.37L769.779 350.445L770.643 350.47L778.533 349.987L769.85 349.456C772.706 348.38 776.268 346.452 778.546 343.174ZM65.4377 343.867C65.4377 343.867 61.2465 351.502 54.5151 352.982C51.4289 350.087 47.256 348.977 44.1935 348.566L54.4167 345.964L41.0111 347.676C42.3987 345.547 46.211 340.472 51.6415 339.439C58.5482 338.123 65.4377 343.867 65.4377 343.867ZM739.331 343.867C739.331 343.867 746.221 338.123 753.127 339.439C758.558 340.472 762.37 345.547 763.757 347.676L750.352 345.964L760.575 348.566C757.512 348.977 753.34 350.087 750.254 352.982C743.522 351.502 739.331 343.867 739.331 343.867ZM778.058 326.971C778.058 326.971 779.266 330.322 779.266 334.317C779.266 336.664 778.849 339.235 777.523 341.479C774.821 346.052 769.125 347.962 766.486 348.624L766.469 348.618C766.68 348.113 766.923 347.488 767.167 346.767L772.342 336.647L768.155 342.838C768.328 341.804 768.44 340.711 768.44 339.588C768.44 337.563 768.087 335.689 767.394 334.02C767.218 333.599 767.019 333.196 766.805 332.805C770.842 328.114 778.058 326.971 778.058 326.971ZM26.711 326.971C26.711 326.971 33.9273 328.114 37.9637 332.805C37.7493 333.196 37.5507 333.599 37.3753 334.02C36.6818 335.689 36.3294 337.563 36.3294 339.588C36.3294 340.711 36.4411 341.804 36.6132 342.838L32.4264 336.647L37.6012 346.767C37.8452 347.488 38.0886 348.113 38.3004 348.618L38.2821 348.624C35.6442 347.962 29.9481 346.052 27.2456 341.479C25.9201 339.235 25.5029 336.664 25.5029 334.317C25.5029 330.322 26.711 326.971 26.711 326.971ZM50.311 325.6L50.4275 325.833C50.9076 326.819 52.7081 330.809 52.7081 335.164C52.7081 335.94 52.6468 336.727 52.5145 337.512C52.1131 337.55 51.7111 337.594 51.3064 337.672C48.479 338.21 46.0701 339.682 44.1431 341.34L45.9981 335.979L42.7159 342.687C41.2157 344.225 40.12 345.745 39.4888 346.719C38.8399 344.925 38.1251 342.332 38.1251 339.587C38.1251 337.968 38.3733 336.296 39.0327 334.712C41.7361 328.208 50.311 325.6 50.311 325.6ZM754.458 325.6C754.458 325.6 763.033 328.208 765.736 334.712C766.395 336.296 766.643 337.968 766.643 339.587C766.643 342.332 765.929 344.925 765.28 346.719C764.649 345.745 763.553 344.225 762.053 342.687L758.771 335.979L760.625 341.34C758.698 339.682 756.289 338.21 753.462 337.672C753.057 337.594 752.656 337.55 752.255 337.512C752.122 336.727 752.061 335.94 752.061 335.164C752.061 330.14 754.458 325.6 754.458 325.6ZM453.159 39.9499L451.451 53.3847L454.048 43.1392C454.457 46.2084 455.565 50.3904 458.453 53.4834C456.977 60.2293 449.359 64.4297 449.359 64.4297C449.359 64.4297 443.628 57.5252 444.94 50.6034C445.972 45.1611 451.035 41.3405 453.159 39.9499ZM349.216 39.9499L347.508 53.3847L350.105 43.1392C350.514 46.2084 351.622 50.3904 354.51 53.4834C353.034 60.2293 345.415 64.4297 345.415 64.4297C345.415 64.4297 339.685 57.5252 340.997 50.6034C342.029 45.1611 347.092 41.3405 349.216 39.9499ZM401.188 32.9535L399.48 46.3882L402.076 36.1428C402.485 39.2119 403.593 43.3939 406.482 46.4869C405.006 53.2329 397.387 57.4333 397.387 57.4333C397.387 57.4333 391.657 50.5287 392.968 43.6069C394 38.1646 399.063 34.344 401.188 32.9535ZM351.696 40.9109C352.049 41.052 352.512 41.2179 353.028 41.3911L362.206 48.7757L355.761 42.1449C357.182 42.46 358.791 42.703 360.489 42.703C362.105 42.703 363.61 42.4776 365.003 42.0562C365.25 42.2454 365.504 42.4178 365.738 42.6292C370.131 46.6291 370.507 53.6471 370.518 55.7337L370.517 56.021C370.515 56.2244 370.51 56.3351 370.51 56.3351C370.51 56.3351 369.408 56.4953 367.755 56.4953C364.714 56.4953 359.807 55.9545 356.438 52.8863C352.647 49.434 351.851 43.7495 351.696 40.9109ZM455.639 40.9109C455.993 41.052 456.456 41.2179 456.972 41.3911L466.149 48.7757L459.704 42.1449C461.126 42.46 462.734 42.703 464.433 42.703C466.048 42.703 467.553 42.4776 468.946 42.0562C469.193 42.2454 469.448 42.4178 469.681 42.6292C474.074 46.6291 474.451 53.6471 474.461 55.7337L474.46 56.021C474.459 56.2244 474.453 56.3351 474.453 56.3351C474.453 56.3351 473.352 56.4953 471.698 56.4953C468.657 56.4953 463.751 55.9545 460.381 52.8863C456.59 49.434 455.794 43.7495 455.639 40.9109ZM341.145 37.0576C343.884 37.0576 346.472 37.7739 348.261 38.4242C347.29 39.0568 345.772 40.1549 344.239 41.6584L337.544 44.9479L342.894 43.0887C341.239 45.02 339.77 47.4341 339.234 50.2676C339.157 50.6732 339.112 51.0762 339.074 51.4784C338.292 51.6109 337.506 51.6724 336.732 51.6724C332.387 51.6724 328.405 49.868 327.42 49.3868L327.204 49.2779C327.188 49.2701 329.791 40.6764 336.281 37.9672C337.861 37.3065 339.529 37.0576 341.145 37.0576ZM445.088 37.0576C447.827 37.0576 450.415 37.7739 452.204 38.4242C451.233 39.0568 449.715 40.1549 448.182 41.6584L441.487 44.9479L446.838 43.0887C445.182 45.02 443.713 47.4341 443.177 50.2676C443.1 50.6732 443.055 51.0762 443.017 51.4784C442.235 51.6109 441.449 51.6724 440.675 51.6724C436.33 51.6724 432.348 49.868 431.364 49.3868L431.147 49.2779C431.132 49.2701 433.734 40.6764 440.224 37.9672C441.804 37.3065 443.472 37.0576 445.088 37.0576ZM403.667 33.9144C404.021 34.0555 404.484 34.2215 405 34.3946L414.178 41.7792L407.732 35.1485C409.154 35.4635 410.763 35.7066 412.461 35.7066C414.076 35.7066 415.582 35.4811 416.975 35.0597L417.47 35.4323L417.709 35.6328C422.911 40.3695 422.481 49.3387 422.481 49.3387L422.335 49.3576C421.984 49.3999 421.026 49.4989 419.726 49.4989C416.686 49.4989 411.779 48.958 408.409 45.8898C404.618 42.4376 403.823 36.753 403.667 33.9144ZM393.116 30.0612C395.856 30.0612 398.443 30.7775 400.233 31.4277C399.261 32.0604 397.744 33.1584 396.211 34.6619L389.516 37.9514L394.866 36.0923C393.211 38.0235 391.742 40.4376 391.206 43.2712C391.128 43.6768 391.083 44.0797 391.045 44.4819C390.264 44.6145 389.478 44.6759 388.704 44.6759C383.689 44.6759 379.16 42.2736 379.16 42.2736C379.16 42.2736 381.762 33.68 388.252 30.9707C389.833 30.31 391.5 30.0612 393.116 30.0612ZM365.637 26.0931C370.382 26.0931 374.601 28.1123 374.601 28.1123C374.601 28.1123 372.354 36.807 365.981 39.7807C364.213 40.6057 362.312 40.9044 360.489 40.9044C357.296 40.9044 354.375 39.9979 352.781 39.3985C353.095 39.1911 353.495 38.9092 353.96 38.5493L364.432 32.8589L356.742 35.8916C358.497 33.8258 360.099 30.9325 360.249 27.1761C361.989 26.3875 363.849 26.094 365.637 26.0931ZM469.58 26.0931C474.325 26.0931 478.544 28.1123 478.544 28.1123C478.544 28.1123 476.297 36.807 469.924 39.7807C468.156 40.6057 466.255 40.9044 464.433 40.9044C461.239 40.9044 458.318 39.9979 456.724 39.3985C457.038 39.1911 457.439 38.9092 457.903 38.5493L468.376 32.8589L460.685 35.8916C462.44 33.8258 464.042 30.9325 464.193 27.1761C465.932 26.3875 467.792 26.094 469.58 26.0931ZM455.465 13.8996C467.635 24.8517 460.916 34.2376 455.848 37.7555L455.922 33.9161L455.948 33.0478L455.465 25.1418L454.936 33.8442C453.862 30.9815 451.938 27.4125 448.668 25.1293C449.539 18.8046 455.465 13.8996 455.465 13.8996ZM351.522 13.8996C363.691 24.8517 356.973 34.2376 351.904 37.7555L351.979 33.9161L352.005 33.0478L351.522 25.1418L350.993 33.8442C349.919 30.9815 347.994 27.4125 344.725 25.1293C345.596 18.8046 351.522 13.8996 351.522 13.8996ZM439.83 24.4079C442.172 24.4079 444.738 24.826 446.976 26.1544C451.54 28.8628 453.445 34.5713 454.106 37.215L454.099 37.2333C453.596 37.0211 452.972 36.7771 452.253 36.5325L442.154 31.3465L448.333 35.5424C447.3 35.37 446.21 35.258 445.089 35.258C443.068 35.258 441.198 35.6112 439.534 36.3062C439.113 36.4819 438.711 36.681 438.32 36.8958C433.641 32.8506 432.5 25.6187 432.5 25.6187L432.515 25.6134L432.629 25.574C433.28 25.3554 436.303 24.4079 439.83 24.4079ZM335.887 24.4079C338.229 24.4079 340.794 24.826 343.033 26.1544C347.597 28.8628 349.502 34.5713 350.163 37.215L350.156 37.2333C349.652 37.0211 349.029 36.7771 348.31 36.5325L338.211 31.3465L344.39 35.5424C343.357 35.37 342.267 35.258 341.146 35.258C339.125 35.258 337.255 35.6112 335.591 36.3062C335.17 36.4819 334.768 36.681 334.377 36.8958C329.697 32.8506 328.557 25.6187 328.557 25.6187C328.557 25.6187 331.9 24.4079 335.887 24.4079ZM417.608 19.0966C422.353 19.0966 426.573 21.1158 426.573 21.1158C426.573 21.1158 424.325 29.8105 417.952 32.7842C416.184 33.6092 414.284 33.9079 412.461 33.9079C409.268 33.9079 406.346 33.0014 404.753 32.402C405.066 32.1946 405.467 31.9128 405.932 31.5528L416.404 25.8624L408.714 28.8951C410.469 26.8294 412.07 23.936 412.221 20.1796C413.96 19.391 415.82 19.0975 417.608 19.0966ZM403.494 6.90318C415.662 17.8553 408.945 27.2411 403.876 30.759L403.95 26.9196L403.977 26.0513L403.494 18.1454L402.965 26.8477C401.89 23.985 399.966 20.416 396.696 18.1329C397.567 11.8082 403.494 6.90318 403.494 6.90318ZM387.858 17.4115C390.201 17.4115 392.766 17.8295 395.004 19.1579C399.568 21.8664 401.473 27.5749 402.134 30.2185L402.127 30.2369C401.625 30.0246 401.001 29.7807 400.282 29.536L390.182 24.35L396.361 28.546C395.328 28.3735 394.239 28.2615 393.117 28.2615C391.097 28.2615 389.226 28.6147 387.562 29.3097C387.142 29.4854 386.739 29.6845 386.349 29.8993C381.669 25.8542 380.529 18.6222 380.529 18.6222C380.529 18.6222 383.871 17.4115 387.858 17.4115Z" fill="white"></path></svg> 