<?xml version="1.0" encoding="UTF-8"?> <svg xmlns="http://www.w3.org/2000/svg" xmlns:xlink="http://www.w3.org/1999/xlink" width="702px" height="700px" viewBox="0 0 702 700"> <title>Combined Shape</title> <g id="Page-1" stroke="none" stroke-width="1" fill="none" fill-rule="evenodd"> <g id="Artboard-Copy-36" transform="translate(-189.000000, -542.000000)" fill="#D2AA1B"> <path d="M539.681779,542 C733.356523,542 890.364114,698.666403 890.364114,891.920277 C890.364114,1085.1736 733.356523,1241.84 539.681779,1241.84 C346.007591,1241.84 189,1085.1736 189,891.920277 C189,698.666403 346.007591,542 539.681779,542 Z M526.95286,817.840872 C520.64894,816.20874 514.616061,813.667158 509.037509,810.295378 C499.273376,816.190451 488.223466,819.498498 476.808094,819.949066 L474.878595,820.025546 L474.878595,804.652468 L476.642026,804.568783 C483.300299,804.247899 489.803056,802.66897 495.840933,799.90349 C489.999671,794.016176 485.263123,786.972791 485.263123,778.332189 C485.263123,765.083376 496.029773,754.339568 509.307994,754.339568 C522.588437,754.339568 533.355643,765.083376 533.355643,778.332189 C533.355643,787.586295 528.409704,793.91919 522.261855,799.913466 C528.284737,802.66897 534.756391,804.24014 541.379117,804.566012 L541.379117,770.723515 L534.631423,770.723515 L534.631423,754.339568 L541.968408,754.339568 C543.729618,742.720117 553.789785,733.965349 565.74335,733.965349 C577.701914,733.965349 587.76708,742.730093 589.520513,754.360074 C591.567205,754.441542 593.0396,754.813413 594.884677,756.496532 C596.592012,758.059943 597.507885,760.229654 597.507885,762.531819 C597.507885,766.17793 594.97632,769.495953 591.452234,770.453618 C590.96736,770.586073 590.477487,770.66477 589.979839,770.710769 C589.979839,800.392298 589.979839,830.073828 589.979839,859.755357 L589.979839,861.606954 L573.560211,861.606954 L573.560211,770.723515 L557.801522,770.723515 L557.801522,861.606954 L541.379117,861.606954 L541.379117,824.881486 C526.335243,845.156503 502.558079,857.275292 476.96361,857.275292 L475.105758,857.275292 L475.105758,841.586318 L476.96361,841.586318 C496.479101,841.586318 514.738807,832.837091 526.95286,817.840872 L526.95286,817.840872 Z M364.6422,1031.07437 C334.125119,992.907972 315.878188,944.54033 315.878188,891.920277 C315.878188,839.297453 334.125119,790.929811 364.6422,752.765628 L364.6422,752.773386 C405.647671,701.48287 468.812947,668.605243 539.679558,668.605243 C663.278596,668.605243 763.478151,768.587057 763.478151,891.920277 C763.478151,1015.25294 663.278596,1115.23476 539.679558,1115.23476 C468.812947,1115.23476 405.647671,1082.35768 364.6422,1031.06661 L364.6422,1031.07437 Z M688.699222,905.640163 L688.699222,1021.70056 L661.992263,1021.70056 L661.992263,905.759871 L642.295708,905.759871 L642.295708,1021.70056 L615.589304,1021.70056 L615.589304,990.689492 C603.436347,997.985594 585.781484,1009.89545 572.781524,1009.89545 C561.22841,1009.89545 550.811114,1004.69535 544.117295,995.273317 C534.542557,981.797281 535.231268,963.8272 546.062346,951.420779 C539.273552,945.640426 535.333463,937.201 535.333463,928.204599 C535.333463,919.569539 538.972519,911.477045 545.189239,905.759871 L500.738551,905.759871 L500.738551,1021.70056 L474.03437,1021.70056 L474.03437,905.759871 L455.345886,905.759871 L455.345886,929.758034 C455.468076,931.385178 455.445305,933.195764 455.445305,934.835655 C455.445305,958.706351 437.08618,971.555582 415.253512,966.992262 C425.058745,985.20453 443.131833,997.817116 463.867008,1000.5244 L465.479923,1000.73279 L465.479923,1021.61632 L463.433232,1021.40794 C428.93996,1017.84551 399.905828,993.656148 390.170021,960.496431 C383.692813,938.431334 393.59191,935.011338 413.459533,939.12409 C417.89727,940.042961 425.515293,941.57589 427.835247,936.320369 C428.25847,935.362704 428.480635,934.300848 428.590606,933.264486 L428.638927,924.008162 L428.638927,905.759871 L380.148177,905.759871 L380.148177,880.756382 L595.001869,880.756382 L595.001869,905.759871 L593.146795,905.759871 C581.869166,905.759871 557.982586,914.560639 557.982586,928.204599 C557.982586,932.584477 561.539996,936.13194 565.927191,936.13194 C567.340713,936.13194 568.718689,935.760069 569.938928,935.046807 C569.995025,935.014109 570.05612,934.980857 570.114993,934.952593 L588.634632,924.285819 L599.68732,943.386476 L591.949883,948.059529 C582.862241,953.541719 559.597723,962.072589 559.597723,974.580984 C559.597723,981.846051 565.500635,987.736136 572.781524,987.736136 C574.146725,987.736136 575.501929,987.529418 576.803813,987.112102 C582.907785,985.16629 591.863239,979.502874 597.456787,976.141624 C599.680099,974.807654 601.892303,973.460383 604.100064,972.108124 C607.915185,969.77326 611.725307,967.381868 615.589304,965.130689 L615.589304,905.759871 L603.546318,905.759871 L603.546318,880.756382 L685.700556,880.756382 C686.966338,880.756382 688.288218,880.779104 689.53345,881.008545 C701.933566,883.292422 702.523413,901.927547 690.674265,905.248341 C690.051649,905.424024 689.377935,905.553707 688.699222,905.640163 L688.699222,905.640163 Z M573.692954,754.339568 C572.301648,751.294215 569.221336,749.233682 565.732797,749.233682 C562.244258,749.233682 559.163946,751.294215 557.770974,754.339568 L573.692954,754.339568 Z M509.297997,791.94068 C513.41915,788.116115 518.040728,784.438968 518.040728,778.332189 C518.040728,773.514489 514.128966,769.608456 509.297997,769.608456 C504.46925,769.608456 500.55471,773.514489 500.55471,778.332189 C500.55471,784.418462 505.184065,788.123319 509.297997,791.94068 Z M540.799354,1214.26532 C545.214694,1217.32299 551.066255,1225.48083 540.466441,1235 C540.466441,1235 535.304327,1230.73676 534.545264,1225.23953 C537.393793,1223.25511 539.069591,1220.15308 540.005145,1217.66492 L540.466441,1225.22867 L540.886543,1218.35552 C540.886543,1218.35552 540.887215,1218.35629 540.887215,1218.35706 L540.864169,1217.60241 L540.799354,1214.26532 Z M586.069624,1208.18424 C590.484965,1211.2419 596.336525,1219.39975 585.736711,1228.91892 C585.736711,1228.91892 580.574598,1224.65568 579.815534,1219.15844 C582.664063,1217.17403 584.339861,1214.072 585.275416,1211.58384 L585.736711,1219.14759 L586.156813,1212.27444 L586.157,1212.274 L586.13444,1211.52133 L586.069624,1208.18424 Z M495.529083,1208.18424 C499.944424,1211.2419 505.795984,1219.39975 495.196171,1228.91892 C495.196171,1228.91892 490.034057,1224.65568 489.274993,1219.15844 C492.123523,1217.17403 493.799321,1214.072 494.734875,1211.58384 L495.196171,1219.14759 L495.616608,1212.27492 L495.616608,1212.27492 L495.593899,1211.52133 L495.529083,1208.18424 Z M539.276233,1214.71922 C539.277769,1214.72344 539.279882,1214.7293 539.281994,1214.73516 C538.706143,1217.0329 537.047053,1221.99452 533.071979,1224.34862 C531.121555,1225.50321 528.88719,1225.86656 526.846792,1225.86656 C523.374208,1225.86656 520.462303,1224.81424 520.462303,1224.81424 C520.462303,1224.81424 520.463616,1224.80593 520.466344,1224.78974 L520.478869,1224.71798 C520.623099,1223.91459 521.752141,1218.27276 525.532234,1215.01257 C525.872348,1215.19924 526.222737,1215.37227 526.588778,1215.52505 C528.038921,1216.12913 529.667763,1216.43611 531.427965,1216.43611 C532.404522,1216.43611 533.353807,1216.33875 534.253353,1216.18885 L528.871442,1219.83582 L537.668324,1215.32829 C538.294587,1215.1157 538.837983,1214.90368 539.276233,1214.71922 Z M548.277356,1211.52846 C549.865196,1211.52846 551.520637,1211.78801 553.060273,1212.50511 C557.845873,1214.73327 559.960719,1220.65677 560.453079,1222.24845 L560.504442,1222.41815 C560.54815,1222.56602 560.569099,1222.6469 560.569099,1222.6469 C560.569099,1222.6469 556.894001,1224.40191 552.761161,1224.40191 C551.203568,1224.40115 549.583176,1224.14601 548.068217,1223.4606 C547.936953,1220.19562 546.542408,1217.68086 545.012853,1215.88542 L551.711627,1218.52126 L542.589707,1213.57539 C542.185449,1213.26255 541.835828,1213.01759 541.56341,1212.83736 C542.950946,1212.31633 545.495946,1211.52846 548.277356,1211.52846 Z M494.005963,1208.63814 C494.007499,1208.64236 494.009611,1208.64822 494.011724,1208.65408 C493.435873,1210.95182 491.776783,1215.91343 487.801709,1218.26754 C485.851285,1219.42212 483.61692,1219.78548 481.576522,1219.78548 C478.103937,1219.78548 475.192033,1218.73316 475.192033,1218.73316 L475.19303,1218.72698 L475.208599,1218.6369 C475.352829,1217.83351 476.481871,1212.19168 480.261964,1208.93149 C480.602078,1209.11816 480.952467,1209.29119 481.318508,1209.44396 C482.768651,1210.04805 484.397493,1210.35503 486.157695,1210.35503 C487.134251,1210.35503 488.083537,1210.25767 488.983083,1210.10777 L483.601172,1213.75474 L492.398053,1209.24721 C493.024317,1209.03462 493.567713,1208.8226 494.005963,1208.63814 Z M584.546503,1208.63814 C584.54804,1208.64236 584.550152,1208.64822 584.552265,1208.65408 C583.976413,1210.95182 582.317324,1215.91343 578.342249,1218.26754 C576.391825,1219.42212 574.15746,1219.78548 572.117062,1219.78548 C569.140561,1219.78548 566.575988,1219.01234 565.903998,1218.79145 L565.795273,1218.75503 C565.753967,1218.74089 565.732573,1218.73316 565.732573,1218.73316 L565.733571,1218.72698 L565.741779,1218.67852 C565.850113,1218.05568 566.948292,1212.2556 570.802504,1208.93149 C571.142619,1209.11816 571.493007,1209.29119 571.859048,1209.44396 C573.309191,1210.04805 574.938033,1210.35503 576.698235,1210.35503 C577.674792,1210.35503 578.624078,1210.25767 579.523623,1210.10777 L574.141713,1213.75474 L582.938594,1209.24721 C583.564858,1209.03462 584.108253,1208.8226 584.546503,1208.63814 Z M503.007085,1205.44738 C504.594926,1205.44738 506.250366,1205.70693 507.790003,1206.42403 C512.958451,1208.83044 515.011732,1215.5471 515.270361,1216.4621 L515.291779,1216.53937 C515.296501,1216.55683 515.298829,1216.56582 515.298829,1216.56582 C515.298829,1216.56582 511.623731,1218.32083 507.490891,1218.32083 C505.933298,1218.32007 504.312905,1218.06493 502.797947,1217.37952 C502.666683,1214.11454 501.272137,1211.59978 499.742583,1209.80434 L506.441357,1212.44018 L497.319437,1207.49431 C496.915179,1207.18147 496.565558,1206.93651 496.29314,1206.75627 C497.680676,1206.23525 500.225676,1205.44738 503.007085,1205.44738 Z M593.547626,1205.44738 C595.135466,1205.44738 596.790907,1205.70693 598.330544,1206.42403 C603.116143,1208.65219 605.23099,1214.57569 605.72335,1216.16737 L605.774712,1216.33707 C605.818421,1216.48494 605.839369,1216.56582 605.839369,1216.56582 C605.839369,1216.56582 602.164272,1218.32083 598.031431,1218.32083 C596.473838,1218.32007 594.853446,1218.06493 593.338487,1217.37952 C593.207224,1214.11454 591.812678,1211.59978 590.283124,1209.80434 L596.981897,1212.44018 L587.859977,1207.49431 C587.455719,1207.18147 587.106099,1206.93651 586.833681,1206.75627 C588.221217,1206.23525 590.766217,1205.44738 593.547626,1205.44738 Z M527.583483,1202.16927 C528.25747,1202.16927 528.942019,1202.22266 529.623304,1202.33789 C529.656336,1202.68751 529.695322,1203.0377 529.762346,1203.3902 C530.230075,1205.8531 531.509393,1207.95131 532.951086,1209.62989 L528.290598,1208.01401 L534.122281,1210.8731 C535.457869,1212.17988 536.779725,1213.13426 537.625977,1213.68409 C536.066944,1214.24928 533.813086,1214.8719 531.427293,1214.8719 C530.019688,1214.8719 528.566569,1214.65565 527.189979,1214.08134 C521.536995,1211.72656 519.27027,1204.25729 519.27027,1204.25729 C519.27027,1204.25729 523.215673,1202.16927 527.583483,1202.16927 Z M535.147233,1191.08108 C535.147233,1191.08108 541.783304,1194.73188 543.069055,1200.59526 C540.553438,1203.28352 539.588404,1206.91839 539.231582,1209.58601 L536.969947,1200.681 L538.457539,1212.35801 C536.607363,1211.14936 532.197111,1207.82869 531.298238,1203.09839 C530.271421,1197.69406 534.195348,1192.30181 535.004055,1191.26097 L535.081865,1191.16197 C535.124288,1191.10866 535.147233,1191.08108 535.147233,1191.08108 Z M554.605575,1197.97737 C556.046404,1197.97737 557.005676,1198.11661 557.005676,1198.11661 C557.005676,1198.11661 557.380551,1205.91226 552.849022,1210.02925 C552.645741,1210.21304 552.423927,1210.36293 552.208931,1210.52732 C550.995966,1210.16109 549.684192,1209.96511 548.27726,1209.96511 C546.798214,1209.96511 545.397042,1210.17636 544.158055,1210.45022 L549.772918,1204.687 L541.778118,1211.10538 C541.328538,1211.25595 540.925528,1211.40018 540.617678,1211.5228 C540.753166,1209.05558 541.445782,1204.1148 544.747733,1201.11417 C547.68326,1198.44741 551.95735,1197.97737 554.605575,1197.97737 Z M572.853753,1196.08819 C573.52774,1196.08819 574.21229,1196.14158 574.893575,1196.2568 C574.926607,1196.60643 574.965592,1196.95662 575.032616,1197.30912 C575.500345,1199.77202 576.779663,1201.87023 578.221356,1203.54881 L573.560868,1201.93293 L579.392552,1204.79202 C580.728139,1206.0988 582.049995,1207.05318 582.896248,1207.60301 C581.337214,1208.1682 579.083357,1208.79081 576.697563,1208.79081 C575.289959,1208.79081 573.836839,1208.57457 572.46025,1208.00026 C566.807265,1205.64548 564.540541,1198.17621 564.540541,1198.17621 C564.540541,1198.17621 568.485944,1196.08819 572.853753,1196.08819 Z M482.313212,1196.08819 C482.987199,1196.08819 483.671749,1196.14158 484.353034,1196.2568 C484.386066,1196.60643 484.425051,1196.95662 484.492076,1197.30912 C484.959805,1199.77202 486.239123,1201.87023 487.680816,1203.54881 L483.020327,1201.93293 L488.852011,1204.79202 C490.187598,1206.0988 491.509454,1207.05318 492.355707,1207.60301 C490.796674,1208.1682 488.542816,1208.79081 486.157023,1208.79081 C484.749418,1208.79081 483.296298,1208.57457 481.919709,1208.00026 C476.266725,1205.64548 474,1198.17621 474,1198.17621 C474,1198.17621 474.018341,1198.16651 474.053907,1198.14842 L474.147674,1198.10145 C474.902137,1197.72863 478.441745,1196.08819 482.313212,1196.08819 Z M489.876963,1185 C489.876963,1185 496.513033,1188.6508 497.798785,1194.51417 C495.283168,1197.20244 494.318134,1200.83731 493.961312,1203.50493 L491.699676,1194.59992 L493.187268,1206.27693 C491.337093,1205.06828 486.926841,1201.74761 486.027967,1197.01731 C484.923655,1191.2051 489.545568,1185.40688 489.860188,1185.02045 L489.876963,1185 L489.876963,1185 Z M580.417504,1185 C580.417504,1185 587.053574,1188.6508 588.339325,1194.51417 C585.823708,1197.20244 584.858675,1200.83731 584.501852,1203.50493 L582.240217,1194.59992 L583.727809,1206.27693 C581.877633,1205.06828 577.467382,1201.74761 576.568508,1197.01731 C575.522317,1191.51101 579.615454,1186.01725 580.31672,1185.12565 L580.400728,1185.02045 C580.411767,1185.0069 580.417504,1185 580.417504,1185 Z M509.335305,1191.89629 C510.776134,1191.89629 511.735406,1192.03553 511.735406,1192.03553 C511.735406,1192.03553 511.740185,1192.1349 511.742141,1192.31713 L511.742503,1192.59578 C511.728696,1194.45455 511.379389,1200.49521 507.578752,1203.94817 L507.370232,1204.12245 L507.370232,1204.12245 L506.938661,1204.44624 L506.938661,1204.44624 C505.725695,1204.08001 504.413922,1203.88403 503.006989,1203.88403 C501.527943,1203.88403 500.126772,1204.09528 498.887784,1204.36914 L504.502647,1198.60592 L496.507848,1205.0243 C496.058267,1205.17487 495.655258,1205.31909 495.347407,1205.44172 C495.482896,1202.97449 496.175512,1198.03371 499.477463,1195.03308 C502.41299,1192.36633 506.68708,1191.89629 509.335305,1191.89629 Z M599.875846,1191.89629 C601.316674,1191.89629 602.275947,1192.03553 602.275947,1192.03553 C602.275947,1192.03553 602.282188,1192.16532 602.283325,1192.40025 L602.283044,1192.59578 C602.269236,1194.45455 601.91993,1200.49521 598.119293,1203.94817 C597.916011,1204.13196 597.694198,1204.28185 597.479202,1204.44624 C596.266236,1204.08001 594.954462,1203.88403 593.54753,1203.88403 C592.068484,1203.88403 590.667313,1204.09528 589.428325,1204.36914 L595.043188,1198.60592 L587.048389,1205.0243 C586.598808,1205.17487 586.195798,1205.31909 585.887948,1205.44172 C586.023437,1202.97449 586.716052,1198.03371 590.018004,1195.03308 C592.95353,1192.36633 597.227621,1191.89629 599.875846,1191.89629 Z M539.681779,603.983338 C699.049869,603.983338 828.245789,732.898505 828.245789,891.920277 C828.245789,1050.94149 699.049869,1179.85666 539.681779,1179.85666 C380.314245,1179.85666 251.118325,1050.94149 251.118325,891.920277 C251.118325,732.898505 380.314245,603.983338 539.681779,603.983338 Z M224.243726,937.833681 C224.764748,939.221217 225.552619,941.766217 225.552619,944.547626 C225.552619,946.135466 225.293068,947.790907 224.575966,949.330544 C222.347813,954.116143 216.424306,956.23099 214.832626,956.72335 L214.662931,956.774712 C214.515056,956.818421 214.434183,956.839369 214.434183,956.839369 C214.434183,956.839369 212.679166,953.164272 212.679166,949.031431 C212.679935,947.473838 212.935068,945.853446 213.620482,944.338487 C216.885465,944.207224 219.400217,942.812678 221.19566,941.283124 L218.559822,947.981897 L223.505691,938.859977 C223.818535,938.455719 224.06349,938.106099 224.243726,937.833681 Z M854.756274,937.833681 C854.93651,938.106099 855.181465,938.455719 855.494309,938.859977 L855.494309,938.859977 L860.440178,947.981897 L857.80434,941.283124 C859.599783,942.812678 862.114535,944.207224 865.379518,944.338487 C866.064932,945.853446 866.320065,947.473838 866.320834,949.031431 C866.320834,953.164272 864.565817,956.839369 864.565817,956.839369 C864.565817,956.839369 864.484944,956.818421 864.337069,956.774712 L864.167374,956.72335 C862.575694,956.23099 856.652187,954.116143 854.424034,949.330544 C853.706932,947.790907 853.447381,946.135466 853.447381,944.547626 C853.447381,941.766217 854.235252,939.221217 854.756274,937.833681 Z M225.558284,936.887948 C228.025505,937.023437 232.966285,937.716052 235.966915,941.018004 C238.633673,943.95353 239.103707,948.227621 239.103707,950.875846 C239.103707,952.316674 238.964473,953.275947 238.964473,953.275947 C238.964473,953.275947 238.834681,953.282188 238.599746,953.283325 L238.404217,953.283044 C236.545447,953.269236 230.504794,952.91993 227.051829,949.119293 C226.868041,948.916011 226.718149,948.694198 226.553757,948.479202 C226.91999,947.266236 227.115973,945.954462 227.115973,944.54753 C227.115973,943.068484 226.904722,941.667313 226.630864,940.428325 L232.394083,946.043188 L225.975697,938.048389 C225.825133,937.598808 225.680906,937.195798 225.558284,936.887948 Z M853.441716,936.887948 C853.319094,937.195798 853.174867,937.598808 853.024303,938.048389 L853.024303,938.048389 L846.605917,946.043188 L852.369136,940.428325 C852.095278,941.667313 851.884027,943.068484 851.884027,944.54753 C851.884027,945.954462 852.08001,947.266236 852.446243,948.479202 C852.281851,948.694198 852.131959,948.916011 851.948171,949.119293 C848.495206,952.91993 842.454553,953.269236 840.595783,953.283044 L840.400254,953.283325 C840.165319,953.282188 840.035527,953.275947 840.035527,953.275947 C840.035527,953.275947 839.896293,952.316674 839.896293,950.875846 C839.896293,948.227621 840.366327,943.95353 843.033085,941.018004 C846.033715,937.716052 850.974495,937.023437 853.441716,936.887948 Z M867.158444,930.815534 C872.655679,931.574598 876.918919,936.736711 876.918919,936.736711 C867.399751,947.336525 859.241904,941.484965 856.184236,937.069624 L856.184236,937.069624 L859.521332,937.13444 L860.274922,937.157149 L860.274922,937.157149 L860.274442,937.156813 L867.147594,936.736711 L859.583843,936.275416 C862.071997,935.339861 865.174028,933.664063 867.158444,930.815534 Z M211.841556,930.815534 C213.825972,933.664063 216.928003,935.339861 219.416157,936.275416 L211.852406,936.736711 L218.725558,937.156813 L218.725,937.157 L219.478668,937.13444 L222.815764,937.069624 C219.758096,941.484965 211.600249,947.336525 202.081081,936.736711 C202.081081,936.736711 206.344321,931.574598 211.841556,930.815534 Z M245.874345,931.31672 L245.979545,931.400728 C245.993104,931.411767 246,931.417504 246,931.417504 C246,931.417504 242.349196,938.053574 236.485825,939.339325 C233.797558,936.823708 230.162694,935.858675 227.495073,935.501852 L236.400076,933.240217 L224.723074,934.727809 C225.931718,932.877633 229.252394,928.467382 233.982691,927.568508 C239.488993,926.522317 244.982746,930.615454 245.874345,931.31672 Z M833.125655,931.31672 C834.017254,930.615454 839.511007,926.522317 845.017309,927.568508 C849.747606,928.467382 853.068282,932.877633 854.276926,934.727809 L854.276926,934.727809 L842.599924,933.240217 L851.504927,935.501852 C848.837306,935.858675 845.202442,936.823708 842.514175,939.339325 C836.650804,938.053574 833,931.417504 833,931.417504 C833,931.417504 833.006896,931.411767 833.020455,931.400728 Z M866.733157,916.732573 C866.733157,916.732573 866.740889,916.753967 866.755026,916.795273 L866.791449,916.903998 C867.012344,917.575988 867.785476,920.140561 867.785476,923.117062 C867.785476,925.15746 867.422124,927.391825 866.267541,929.342249 C863.913435,933.317324 858.951818,934.976413 856.654078,935.552265 C856.64822,935.550152 856.642363,935.54804 856.638138,935.546503 C856.822598,935.108253 857.034618,934.564858 857.247213,933.938594 L857.247213,933.938594 L861.754736,925.141713 L858.107774,930.523623 C858.257666,929.624078 858.355033,928.674792 858.355033,927.698235 C858.355033,925.938033 858.048047,924.309191 857.443965,922.859048 C857.291192,922.493007 857.118158,922.142619 856.931489,921.802504 C860.255604,917.948292 866.055677,916.850113 866.678523,916.741779 L866.726978,916.733571 L866.726978,916.733571 Z M212.266843,916.732573 L212.273022,916.733571 L212.321477,916.741779 C212.944323,916.850113 218.744396,917.948292 222.068511,921.802504 C221.881842,922.142619 221.708808,922.493007 221.556035,922.859048 C220.951953,924.309191 220.644967,925.938033 220.644967,927.698235 C220.644967,928.674792 220.742334,929.624078 220.892226,930.523623 L217.245264,925.141713 L221.752787,933.938594 C221.965382,934.564858 222.177402,935.108253 222.361862,935.546503 C222.357637,935.54804 222.35178,935.550152 222.345922,935.552265 C220.048182,934.976413 215.086565,933.317324 212.732459,929.342249 C211.577876,927.391825 211.214524,925.15746 211.214524,923.117062 C211.214524,920.140561 211.987656,917.575988 212.208551,916.903998 L212.244974,916.795273 C212.259111,916.753967 212.266843,916.732573 212.266843,916.732573 Z M232.823787,915.540541 C232.823787,915.540541 234.911812,919.485944 234.911812,923.853753 C234.911812,924.52774 234.858423,925.21229 234.743195,925.893575 C234.393575,925.926607 234.043378,925.965592 233.690876,926.032616 C231.227976,926.500345 229.129772,927.779663 227.45119,929.221356 L229.067069,924.560868 L226.207977,930.392552 C224.901197,931.728139 223.946822,933.049995 223.396993,933.896248 C222.8318,932.337214 222.209185,930.083357 222.209185,927.697563 C222.209185,926.289959 222.42543,924.836839 222.999745,923.46025 C225.354523,917.807265 232.823787,915.540541 232.823787,915.540541 Z M846.176213,915.540541 C846.176213,915.540541 853.645477,917.807265 856.000255,923.46025 C856.57457,924.836839 856.790815,926.289959 856.790815,927.697563 C856.790815,930.083357 856.1682,932.337214 855.603007,933.896248 C855.053178,933.049995 854.098803,931.728139 852.792023,930.392552 L852.792023,930.392552 L849.932931,924.560868 L851.54881,929.221356 C849.870228,927.779663 847.772024,926.500345 845.309124,926.032616 C844.956622,925.965592 844.606425,925.926607 844.256805,925.893575 C844.141577,925.21229 844.088188,924.52774 844.088188,923.853753 C844.088188,919.485944 846.176213,915.540541 846.176213,915.540541 Z M218.162645,892.56341 C218.683667,893.950946 219.471537,896.495946 219.471537,899.277356 C219.471537,900.865196 219.211987,902.520637 218.494885,904.060273 C216.266732,908.845873 210.343225,910.960719 208.751545,911.453079 L208.58185,911.504442 C208.433975,911.54815 208.353102,911.569099 208.353102,911.569099 C208.353102,911.569099 206.598085,907.894001 206.598085,903.761161 C206.598854,902.203568 206.853987,900.583176 207.539401,899.068217 C210.804384,898.936953 213.319136,897.542408 215.114579,896.012853 L212.478741,902.711627 L217.42461,893.589707 C217.737454,893.185449 217.982409,892.835828 218.162645,892.56341 Z M860.837355,892.56341 C861.017591,892.835828 861.262546,893.185449 861.57539,893.589707 L861.57539,893.589707 L866.521259,902.711627 L863.885421,896.012853 C865.680864,897.542408 868.195616,898.936953 871.460599,899.068217 C872.146013,900.583176 872.401146,902.203568 872.401915,903.761161 C872.401915,907.894001 870.646898,911.569099 870.646898,911.569099 C870.646898,911.569099 870.566025,911.54815 870.41815,911.504442 L870.248455,911.453079 C868.656775,910.960719 862.733268,908.845873 860.505115,904.060273 C859.788013,902.520637 859.528463,900.865196 859.528463,899.277356 C859.528463,896.495946 860.316333,893.950946 860.837355,892.56341 Z M219.477203,891.617678 C221.944424,891.753166 226.885204,892.445782 229.885834,895.747733 C232.552592,898.68326 233.022626,902.95735 233.022626,905.605575 C233.022626,907.046404 232.883392,908.005676 232.883392,908.005676 C232.883392,908.005676 225.087745,908.380551 220.970748,903.849022 C220.78696,903.645741 220.637068,903.423927 220.472676,903.208931 C220.838908,901.995966 221.034892,900.684192 221.034892,899.27726 C221.034892,897.798214 220.823641,896.397042 220.549782,895.158055 L226.313001,900.772918 L219.894616,892.778118 C219.744051,892.328538 219.599825,891.925528 219.477203,891.617678 Z M859.522797,891.617678 C859.400175,891.925528 859.255949,892.328538 859.105384,892.778118 L859.105384,892.778118 L852.686999,900.772918 L858.450218,895.158055 C858.176359,896.397042 857.965108,897.798214 857.965108,899.27726 C857.965108,900.684192 858.161092,901.995966 858.527324,903.208931 C858.362932,903.423927 858.21304,903.645741 858.029252,903.849022 C853.912255,908.380551 846.116608,908.005676 846.116608,908.005676 C846.116608,908.005676 845.977374,907.046404 845.977374,905.605575 C845.977374,902.95735 846.447408,898.68326 849.114166,895.747733 C852.114796,892.445782 857.055576,891.753166 859.522797,891.617678 Z M873.239525,885.545264 C878.73676,886.304327 883,891.466441 883,891.466441 C873.480832,902.066255 865.322985,896.214694 862.265317,891.799354 L862.265317,891.799354 L865.602413,891.864169 L866.357059,891.887215 C866.356291,891.887215 866.355523,891.886543 866.355523,891.886543 L866.355523,891.886543 L873.228675,891.466441 L865.664924,891.005145 C868.153078,890.069591 871.255109,888.393793 873.239525,885.545264 Z M205.760475,885.545264 C207.744891,888.393793 210.846922,890.069591 213.335076,891.005145 L205.771325,891.466441 L212.644477,891.886543 C212.644477,891.886543 212.643709,891.887215 212.642941,891.887215 L213.397587,891.864169 L216.734683,891.799354 C213.677015,896.214694 205.519168,902.066255 196,891.466441 C196,891.466441 200.26324,886.304327 205.760475,885.545264 Z M239.739025,886.004055 L239.838033,886.081865 C239.891335,886.124288 239.918919,886.147233 239.918919,886.147233 C239.918919,886.147233 236.268115,892.783304 230.404744,894.069055 C227.716477,891.553438 224.081613,890.588404 221.413992,890.231582 L230.318995,887.969947 L218.641993,889.457539 C219.850637,887.607363 223.171313,883.197111 227.90161,882.298238 C233.305943,881.271421 238.698188,885.195348 239.739025,886.004055 Z M839.260975,886.004055 C840.301812,885.195348 845.694057,881.271421 851.09839,882.298238 C855.828687,883.197111 859.149363,887.607363 860.358007,889.457539 L860.358007,889.457539 L848.681005,887.969947 L857.586008,890.231582 C854.918387,890.588404 851.283523,891.553438 848.595256,894.069055 C842.731885,892.783304 839.081081,886.147233 839.081081,886.147233 C839.081081,886.147233 839.108665,886.124288 839.161967,886.081865 Z M872.814238,871.462303 C872.814238,871.462303 873.866557,874.374208 873.866557,877.846792 C873.866557,879.88719 873.503205,882.121555 872.348622,884.071979 C869.994516,888.047053 865.032899,889.706143 862.735159,890.281994 C862.729301,890.279882 862.723444,890.277769 862.719219,890.276233 C862.90368,889.837983 863.115699,889.294587 863.328294,888.668324 L863.328294,888.668324 L867.835817,879.871442 L864.188855,885.253353 C864.338747,884.353807 864.436114,883.404522 864.436114,882.427965 C864.436114,880.667763 864.129128,879.038921 863.525046,877.588778 C863.372273,877.222737 863.199239,876.872348 863.01257,876.532234 C866.27276,872.752141 871.914594,871.623099 872.717981,871.478869 L872.789739,871.466344 C872.805927,871.463616 872.814238,871.462303 872.814238,871.462303 Z M206.185762,871.462303 C206.185762,871.462303 206.194073,871.463616 206.210261,871.466344 L206.282019,871.478869 C207.085406,871.623099 212.72724,872.752141 215.98743,876.532234 C215.800761,876.872348 215.627727,877.222737 215.474954,877.588778 C214.870872,879.038921 214.563886,880.667763 214.563886,882.427965 C214.563886,883.404522 214.661253,884.353807 214.811145,885.253353 L211.164183,879.871442 L215.671706,888.668324 C215.884301,889.294587 216.09632,889.837983 216.280781,890.276233 C216.276556,890.277769 216.270699,890.279882 216.264841,890.281994 C213.967101,889.706143 209.005484,888.047053 206.651378,884.071979 C205.496795,882.121555 205.133443,879.88719 205.133443,877.846792 C205.133443,874.374208 206.185762,871.462303 206.185762,871.462303 Z M852.257294,870.27027 C852.257294,870.27027 859.726558,872.536995 862.081336,878.189979 C862.655651,879.566569 862.871896,881.019688 862.871896,882.427293 C862.871896,884.813086 862.249281,887.066944 861.684088,888.625977 C861.134259,887.779725 860.179884,886.457869 858.873104,885.122281 L858.873104,885.122281 L856.014012,879.290598 L857.629891,883.951086 C855.951309,882.509393 853.853105,881.230075 851.390205,880.762346 C851.037703,880.695322 850.687507,880.656336 850.337886,880.623304 C850.222658,879.942019 850.169269,879.25747 850.169269,878.583483 C850.169269,874.215673 852.257294,870.27027 852.257294,870.27027 Z M226.742706,870.27027 C226.742706,870.27027 228.830731,874.215673 228.830731,878.583483 C228.830731,879.25747 228.777342,879.942019 228.662114,880.623304 C228.312493,880.656336 227.962297,880.695322 227.609795,880.762346 C225.146895,881.230075 223.048691,882.509393 221.370109,883.951086 L222.985988,879.290598 L220.126896,885.122281 C218.820116,886.457869 217.865741,887.779725 217.315912,888.625977 C216.750719,887.066944 216.128104,884.813086 216.128104,882.427293 C216.128104,881.019688 216.344349,879.566569 216.918664,878.189979 C219.273442,872.536995 226.742706,870.27027 226.742706,870.27027 Z M854.756274,847.29314 C854.93651,847.565558 855.181465,847.915179 855.494309,848.319437 L855.494309,848.319437 L860.440178,857.441357 L857.80434,850.742583 C859.599783,852.272137 862.114535,853.666683 865.379518,853.797947 C866.064932,855.312905 866.320065,856.933298 866.320834,858.490891 C866.320834,862.623731 864.565817,866.298829 864.565817,866.298829 C864.565817,866.298829 864.556831,866.296501 864.539373,866.291779 L864.462096,866.270361 C863.547105,866.011732 856.830439,863.958451 854.424034,858.790003 C853.706932,857.250366 853.447381,855.594926 853.447381,854.007085 C853.447381,851.225676 854.235252,848.680676 854.756274,847.29314 Z M224.243726,847.29314 C224.764748,848.680676 225.552619,851.225676 225.552619,854.007085 C225.552619,855.594926 225.293068,857.250366 224.575966,858.790003 C222.169561,863.958451 215.452895,866.011732 214.537904,866.270361 L214.460627,866.291779 C214.443169,866.296501 214.434183,866.298829 214.434183,866.298829 C214.434183,866.298829 212.679166,862.623731 212.679166,858.490891 C212.679935,856.933298 212.935068,855.312905 213.620482,853.797947 C216.885465,853.666683 219.400217,852.272137 221.19566,850.742583 L218.559822,857.441357 L223.505691,848.319437 C223.818535,847.915179 224.06349,847.565558 224.243726,847.29314 Z M853.441716,846.347407 C853.319094,846.655258 853.174867,847.058267 853.024303,847.507848 L853.024303,847.507848 L846.605917,855.502647 L852.369136,849.887784 C852.095278,851.126772 851.884027,852.527943 851.884027,854.006989 C851.884027,855.413922 852.08001,856.725695 852.446243,857.938661 L852.446243,857.938661 L852.122453,858.370232 L852.122453,858.370232 L851.948171,858.578752 C848.495206,862.379389 842.454553,862.728696 840.595783,862.742503 L840.31713,862.742141 C840.134899,862.740185 840.035527,862.735406 840.035527,862.735406 C840.035527,862.735406 839.896293,861.776134 839.896293,860.335305 C839.896293,857.68708 840.366327,853.41299 843.033085,850.477463 C846.033715,847.175512 850.974495,846.482896 853.441716,846.347407 Z M225.558284,846.347407 C228.025505,846.482896 232.966285,847.175512 235.966915,850.477463 C238.633673,853.41299 239.103707,857.68708 239.103707,860.335305 C239.103707,861.776134 238.964473,862.735406 238.964473,862.735406 C238.964473,862.735406 238.865101,862.740185 238.68287,862.742141 L238.404217,862.742503 C236.545447,862.728696 230.504794,862.379389 227.051829,858.578752 L226.877547,858.370232 L226.877547,858.370232 L226.553757,857.938661 L226.553757,857.938661 C226.91999,856.725695 227.115973,855.413922 227.115973,854.006989 C227.115973,852.527943 226.904722,851.126772 226.630864,849.887784 L232.394083,855.502647 L225.975697,847.507848 C225.825133,847.058267 225.680906,846.655258 225.558284,846.347407 Z M867.158444,840.274993 C872.655679,841.034057 876.918919,846.196171 876.918919,846.196171 C867.399751,856.795984 859.241904,850.944424 856.184236,846.529083 L856.184236,846.529083 L859.521332,846.593899 L860.274922,846.616608 L860.274922,846.616608 L867.147594,846.196171 L859.583843,845.734875 C862.071997,844.799321 865.174028,843.123523 867.158444,840.274993 Z M211.841556,840.274993 C213.825972,843.123523 216.928003,844.799321 219.416157,845.734875 L211.852406,846.196171 L218.725,846.616 L219.478668,846.593899 L222.815764,846.529083 C219.758096,850.944424 211.600249,856.795984 202.081081,846.196171 C202.081081,846.196171 206.344321,841.034057 211.841556,840.274993 Z M245.979545,840.860188 L246,840.876963 L246,840.876963 C246,840.876963 242.349196,847.513033 236.485825,848.798785 C233.797558,846.283168 230.162694,845.318134 227.495073,844.961312 L236.400076,842.699676 L224.723074,844.187268 C225.931718,842.337093 229.252394,837.926841 233.982691,837.027967 C239.794898,835.923655 245.593124,840.545568 245.979545,840.860188 Z M833,840.876963 C833,840.876963 839.001165,835.884907 845.017309,837.027967 C849.747606,837.926841 853.068282,842.337093 854.276926,844.187268 L854.276926,844.187268 L842.599924,842.699676 L851.504927,844.961312 C848.837306,845.318134 845.202442,846.283168 842.514175,848.798785 C836.650804,847.513033 833,840.876963 833,840.876963 Z M866.733157,826.192033 C866.733157,826.192033 867.785476,829.103937 867.785476,832.576522 C867.785476,834.61692 867.422124,836.851285 866.267541,838.801709 C863.913435,842.776783 858.951818,844.435873 856.654078,845.011724 C856.64822,845.009611 856.642363,845.007499 856.638138,845.005963 C856.822598,844.567713 857.034618,844.024317 857.247213,843.398053 L857.247213,843.398053 L861.754736,834.601172 L858.107774,839.983083 C858.257666,839.083537 858.355033,838.134251 858.355033,837.157695 C858.355033,835.397493 858.048047,833.768651 857.443965,832.318508 C857.291192,831.952467 857.118158,831.602078 856.931489,831.261964 C860.191679,827.481871 865.833513,826.352829 866.6369,826.208599 L866.726978,826.19303 L866.726978,826.19303 Z M212.266843,826.192033 L212.273022,826.19303 L212.3631,826.208599 C213.166487,826.352829 218.808321,827.481871 222.068511,831.261964 C221.881842,831.602078 221.708808,831.952467 221.556035,832.318508 C220.951953,833.768651 220.644967,835.397493 220.644967,837.157695 C220.644967,838.134251 220.742334,839.083537 220.892226,839.983083 L217.245264,834.601172 L221.752787,843.398053 C221.965382,844.024317 222.177402,844.567713 222.361862,845.005963 C222.357637,845.007499 222.35178,845.009611 222.345922,845.011724 C220.048182,844.435873 215.086565,842.776783 212.732459,838.801709 C211.577876,836.851285 211.214524,834.61692 211.214524,832.576522 C211.214524,829.103937 212.266843,826.192033 212.266843,826.192033 Z M846.176213,825 C846.176213,825 853.645477,827.266725 856.000255,832.919709 C856.57457,834.296298 856.790815,835.749418 856.790815,837.157023 C856.790815,839.542816 856.1682,841.796674 855.603007,843.355707 C855.053178,842.509454 854.098803,841.187598 852.792023,839.852011 L852.792023,839.852011 L849.932931,834.020327 L851.54881,838.680816 C849.870228,837.239123 847.772024,835.959805 845.309124,835.492076 C844.956622,835.425051 844.606425,835.386066 844.256805,835.353034 C844.141577,834.671749 844.088188,833.987199 844.088188,833.313212 C844.088188,829.441745 845.728625,825.902137 846.101452,825.147674 L846.148417,825.053907 C846.166507,825.018341 846.176213,825 846.176213,825 Z M232.823787,825 C232.823787,825 232.833493,825.018341 232.851583,825.053907 L232.898548,825.147674 C233.271375,825.902137 234.911812,829.441745 234.911812,833.313212 C234.911812,833.987199 234.858423,834.671749 234.743195,835.353034 C234.393575,835.386066 234.043378,835.425051 233.690876,835.492076 C231.227976,835.959805 229.129772,837.239123 227.45119,838.680816 L229.067069,834.020327 L226.207977,839.852011 C224.901197,841.187598 223.946822,842.509454 223.396993,843.355707 C222.8318,841.796674 222.209185,839.542816 222.209185,837.157023 C222.209185,835.749418 222.42543,834.296298 222.999745,832.919709 C225.354523,827.266725 232.823787,825 232.823787,825 Z M583.727809,576.723074 L582.240217,588.400076 L584.501852,579.495073 C584.858675,582.162694 585.823708,585.797558 588.339325,588.485825 C587.053574,594.349196 580.417504,598 580.417504,598 C580.417504,598 580.411767,597.993104 580.400728,597.979545 L580.31672,597.874345 C579.615454,596.982746 575.522317,591.488993 576.568508,585.982691 C577.467382,581.252394 581.877633,577.931718 583.727809,576.723074 L583.727809,576.723074 Z M493.187268,576.723074 L491.699676,588.400076 L493.961312,579.495073 C494.318134,582.162694 495.283168,585.797558 497.798785,588.485825 C496.513033,594.349196 489.876963,598 489.876963,598 C489.876963,598 484.884907,591.998835 486.027967,585.982691 C486.926841,581.252394 491.337093,577.931718 493.187268,576.723074 L493.187268,576.723074 Z M538.457539,570.641993 L536.969947,582.318995 L539.231582,573.413992 C539.588404,576.081613 540.553438,579.716477 543.069055,582.404744 C541.783304,588.268115 535.147233,591.918919 535.147233,591.918919 C535.147233,591.918919 535.124288,591.891335 535.081865,591.838033 L535.004055,591.739025 C534.195348,590.698188 530.271421,585.305943 531.298238,579.90161 C532.197111,575.171313 536.607363,571.850637 538.457539,570.641993 L538.457539,570.641993 Z M585.887948,577.558284 C586.195798,577.680906 586.598808,577.825133 587.048389,577.975697 L587.048389,577.975697 L595.043188,584.394083 L589.428325,578.630864 C590.667313,578.904722 592.068484,579.115973 593.54753,579.115973 C594.954462,579.115973 596.266236,578.91999 597.479202,578.553757 C597.694198,578.718149 597.916011,578.868041 598.119293,579.051829 C601.91993,582.504794 602.269236,588.545447 602.283044,590.404217 L602.283325,590.599746 C602.282188,590.834681 602.275947,590.964473 602.275947,590.964473 C602.275947,590.964473 601.316674,591.103707 599.875846,591.103707 C597.227621,591.103707 592.95353,590.633673 590.018004,587.966915 C586.716052,584.966285 586.023437,580.025505 585.887948,577.558284 Z M495.347407,577.558284 C495.655258,577.680906 496.058267,577.825133 496.507848,577.975697 L496.507848,577.975697 L504.502647,584.394083 L498.887784,578.630864 C500.126772,578.904722 501.527943,579.115973 503.006989,579.115973 C504.413922,579.115973 505.725695,578.91999 506.938661,578.553757 L506.938661,578.553757 L507.370232,578.877547 L507.370232,578.877547 L507.578752,579.051829 C511.379389,582.504794 511.728696,588.545447 511.742503,590.404217 L511.742141,590.68287 C511.740185,590.865101 511.735406,590.964473 511.735406,590.964473 C511.735406,590.964473 510.776134,591.103707 509.335305,591.103707 C506.68708,591.103707 502.41299,590.633673 499.477463,587.966915 C496.175512,584.966285 495.482896,580.025505 495.347407,577.558284 Z M486.157023,574.209185 C488.542816,574.209185 490.796674,574.8318 492.355707,575.396993 C491.509454,575.946822 490.187598,576.901197 488.852011,578.207977 L488.852011,578.207977 L483.020327,581.067069 L487.680816,579.45119 C486.239123,581.129772 484.959805,583.227976 484.492076,585.690876 C484.425051,586.043378 484.386066,586.393575 484.353034,586.743195 C483.671749,586.858423 482.987199,586.911812 482.313212,586.911812 C478.441745,586.911812 474.902137,585.271375 474.147674,584.898548 L474.053907,584.851583 C474.018341,584.833493 474,584.823787 474,584.823787 C474,584.823787 476.266725,577.354523 481.919709,574.999745 C483.296298,574.42543 484.749418,574.209185 486.157023,574.209185 Z M576.697563,574.209185 C579.083357,574.209185 581.337214,574.8318 582.896248,575.396993 C582.049995,575.946822 580.728139,576.901197 579.392552,578.207977 L579.392552,578.207977 L573.560868,581.067069 L578.221356,579.45119 C576.779663,581.129772 575.500345,583.227976 575.032616,585.690876 C574.965592,586.043378 574.926607,586.393575 574.893575,586.743195 C574.21229,586.858423 573.52774,586.911812 572.853753,586.911812 C568.485944,586.911812 564.540541,584.823787 564.540541,584.823787 C564.540541,584.823787 566.807265,577.354523 572.46025,574.999745 C573.836839,574.42543 575.289959,574.209185 576.697563,574.209185 Z M540.617678,571.477203 C540.925528,571.599825 541.328538,571.744051 541.778118,571.894616 L541.778118,571.894616 L549.772918,578.313001 L544.158055,572.549782 C545.397042,572.823641 546.798214,573.034892 548.27726,573.034892 C549.684192,573.034892 550.995966,572.838908 552.208931,572.472676 C552.423927,572.637068 552.645741,572.78696 552.849022,572.970748 C557.380551,577.087745 557.005676,584.883392 557.005676,584.883392 C557.005676,584.883392 556.046404,585.022626 554.605575,585.022626 C551.95735,585.022626 547.68326,584.552592 544.747733,581.885834 C541.445782,578.885204 540.753166,573.944424 540.617678,571.477203 Z M531.427293,568.128104 C533.813086,568.128104 536.066944,568.750719 537.625977,569.315912 C536.779725,569.865741 535.457869,570.820116 534.122281,572.126896 L534.122281,572.126896 L528.290598,574.985988 L532.951086,573.370109 C531.509393,575.048691 530.230075,577.146895 529.762346,579.609795 C529.695322,579.962297 529.656336,580.312493 529.623304,580.662114 C528.942019,580.777342 528.25747,580.830731 527.583483,580.830731 C523.215673,580.830731 519.27027,578.742706 519.27027,578.742706 C519.27027,578.742706 521.536995,571.273442 527.189979,568.918664 C528.566569,568.344349 530.019688,568.128104 531.427293,568.128104 Z M598.031431,564.679166 C602.164272,564.679166 605.839369,566.434183 605.839369,566.434183 C605.839369,566.434183 605.818421,566.515056 605.774712,566.662931 L605.72335,566.832626 C605.23099,568.424306 603.116143,574.347813 598.330544,576.575966 C596.790907,577.293068 595.135466,577.552619 593.547626,577.552619 C590.766217,577.552619 588.221217,576.764748 586.833681,576.243726 C587.106099,576.06349 587.455719,575.818535 587.859977,575.505691 L587.859977,575.505691 L596.981897,570.559822 L590.283124,573.19566 C591.812678,571.400217 593.207224,568.885465 593.338487,565.620482 C594.853446,564.935068 596.473838,564.679935 598.031431,564.679166 Z M507.490891,564.679166 C511.623731,564.679166 515.298829,566.434183 515.298829,566.434183 C515.298829,566.434183 515.296501,566.443169 515.291779,566.460627 L515.270361,566.537904 C515.011732,567.452895 512.958451,574.169561 507.790003,576.575966 C506.250366,577.293068 504.594926,577.552619 503.007085,577.552619 C500.225676,577.552619 497.680676,576.764748 496.29314,576.243726 C496.565558,576.06349 496.915179,575.818535 497.319437,575.505691 L497.319437,575.505691 L506.441357,570.559822 L499.742583,573.19566 C501.272137,571.400217 502.666683,568.885465 502.797947,565.620482 C504.312905,564.935068 505.933298,564.679935 507.490891,564.679166 Z M585.736711,554.081081 C596.336525,563.600249 590.484965,571.758096 586.069624,574.815764 L586.069624,574.815764 L586.13444,571.478668 L586.157485,570.724022 C586.157485,570.72479 586.156813,570.725558 586.156813,570.725558 L586.156813,570.725558 L585.736711,563.852406 L585.275416,571.416157 C584.339861,568.928003 582.664063,565.825972 579.815534,563.841556 C580.574598,558.344321 585.736711,554.081081 585.736711,554.081081 Z M495.196171,554.081081 C505.795984,563.600249 499.944424,571.758096 495.529083,574.815764 L495.529083,574.815764 L495.593899,571.478668 L495.616945,570.724022 L495.616945,570.724022 L495.196171,563.852406 L494.734875,571.416157 C493.799321,568.928003 492.123523,565.825972 489.274993,563.841556 C490.034057,558.344321 495.196171,554.081081 495.196171,554.081081 Z M572.117062,563.214524 C574.15746,563.214524 576.391825,563.577876 578.342249,564.732459 C582.317324,567.086565 583.976413,572.048182 584.552265,574.345922 C584.550152,574.35178 584.54804,574.357637 584.546503,574.361862 C584.108253,574.177402 583.564858,573.965382 582.938594,573.752787 L582.938594,573.752787 L574.141713,569.245264 L579.523623,572.892226 C578.624078,572.742334 577.674792,572.644967 576.698235,572.644967 C574.938033,572.644967 573.309191,572.951953 571.859048,573.556035 C571.493007,573.708808 571.142619,573.881842 570.802504,574.068511 C566.948292,570.744396 565.850113,564.944323 565.741779,564.321477 L565.733571,564.273022 L565.733571,564.273022 C565.732573,564.266843 565.753967,564.259111 565.795273,564.244974 L565.903998,564.208551 C566.575988,563.987656 569.140561,563.214524 572.117062,563.214524 Z M481.576522,563.214524 C483.61692,563.214524 485.851285,563.577876 487.801709,564.732459 C491.776783,567.086565 493.435873,572.048182 494.011724,574.345922 C494.009611,574.35178 494.007499,574.357637 494.005963,574.361862 C493.567713,574.177402 493.024317,573.965382 492.398053,573.752787 L492.398053,573.752787 L483.601172,569.245264 L488.983083,572.892226 C488.083537,572.742334 487.134251,572.644967 486.157695,572.644967 C484.397493,572.644967 482.768651,572.951953 481.318508,573.556035 C480.952467,573.708808 480.602078,573.881842 480.261964,574.068511 C476.481871,570.808321 475.352829,565.166487 475.208599,564.3631 L475.19303,564.273022 L475.19303,564.273022 C475.192033,564.266843 478.103937,563.214524 481.576522,563.214524 Z M552.761161,558.598085 C556.894001,558.598085 560.569099,560.353102 560.569099,560.353102 C560.569099,560.353102 560.54815,560.433975 560.504442,560.58185 L560.453079,560.751545 C559.960719,562.343225 557.845873,568.266732 553.060273,570.494885 C551.520637,571.211987 549.865196,571.471537 548.277356,571.471537 C545.495946,571.471537 542.950946,570.683667 541.56341,570.162645 C541.835828,569.982409 542.185449,569.737454 542.589707,569.42461 L542.589707,569.42461 L551.711627,564.478741 L545.012853,567.114579 C546.542408,565.319136 547.936953,562.804384 548.068217,559.539401 C549.583176,558.853987 551.203568,558.598854 552.761161,558.598085 Z M540.466441,548 C551.066255,557.519168 545.214694,565.677015 540.799354,568.734683 L540.799354,568.734683 L540.864169,565.397587 L540.887215,564.642941 C540.887215,564.643709 540.886543,564.644477 540.886543,564.644477 L540.466441,557.771325 L540.005145,565.335076 C539.069591,562.846922 537.393793,559.744891 534.545264,557.760475 C535.304327,552.26324 540.466441,548 540.466441,548 Z M526.846792,557.133443 C528.88719,557.133443 531.121555,557.496795 533.071979,558.651378 C537.047053,561.005484 538.706143,565.967101 539.281994,568.264841 C539.279882,568.270699 539.277769,568.276556 539.276233,568.280781 C538.837983,568.09632 538.294587,567.884301 537.668324,567.671706 L537.668324,567.671706 L528.871442,563.164183 L534.253353,566.811145 C533.353807,566.661253 532.404522,566.563886 531.427965,566.563886 C529.667763,566.563886 528.038921,566.870872 526.588778,567.474954 C526.222737,567.627727 525.872348,567.800761 525.532234,567.98743 C521.752141,564.72724 520.623099,559.085406 520.478869,558.282019 L520.466344,558.210261 C520.463616,558.194073 520.462303,558.185762 520.462303,558.185762 C520.462303,558.185762 523.374208,557.133443 526.846792,557.133443 Z" id="Combined-Shape"></path> </g> </g> </svg> 