<?xml version="1.0" encoding="UTF-8"?> <svg xmlns="http://www.w3.org/2000/svg" xmlns:xlink="http://www.w3.org/1999/xlink" width="472px" height="110px" viewBox="0 0 472 110"> <title>500кг</title> <defs> <radialGradient cx="75.381116%" cy="-4.33877037%" fx="75.381116%" fy="-4.33877037%" r="203.384755%" gradientTransform="translate(0.753811,-0.043388),scale(0.231887,1.000000),rotate(-26.723480),scale(1.000000,0.891476),translate(-0.753811,0.043388)" id="radialGradient-1"> <stop stop-color="#F8F392" offset="0%"></stop> <stop stop-color="#AA6B08" offset="100%"></stop> </radialGradient> </defs> <g id="Page-1" stroke="none" stroke-width="1" fill="none" fill-rule="evenodd"> <g id="Artboard-Copy-33" transform="translate(-1279.000000, -1593.000000)" fill="url(#radialGradient-1)" fill-rule="nonzero"> <path d="M1321.14795,1702.83105 C1348.3208,1702.83105 1367.72998,1684.95996 1367.72998,1659.98438 C1367.72998,1642.55273 1355.13232,1629.44238 1338.28662,1629.44238 C1328.25244,1629.44238 1321.00146,1632.5918 1315.36182,1638.01172 L1314.77588,1638.01172 L1321.14795,1618.82227 L1369.92725,1618.82227 L1375.12744,1595.31152 L1301.81201,1595.31152 L1284.16064,1655.73633 L1311.77295,1655.73633 C1314.62939,1652.00098 1320.41553,1649.21777 1325.17627,1649.21777 C1333.67236,1649.21777 1339.16553,1654.6377 1339.16553,1663.13379 C1339.16553,1672.21582 1331.98779,1679.39355 1322.90576,1679.39355 C1314.3127,1679.39355 1308.14022,1674.33881 1307.47671,1666.82639 L1307.45166,1666.50293 L1307.45166,1666.50293 L1279.61963,1666.50293 C1279.48211,1668.60005 1279.44142,1669.08346 1279.43692,1669.18781 L1279.43692,1669.21204 C1279.43692,1669.21319 1279.43692,1669.21393 1279.43692,1669.21436 L1279.43978,1669.21401 C1279.45338,1669.20328 1279.47314,1669.22634 1279.47314,1669.87207 C1279.47314,1688.98828 1296.97803,1702.83105 1321.14795,1702.83105 Z M1422.07568,1702.83105 C1454.08252,1702.83105 1477.22705,1674.70605 1477.22705,1635.8877 C1477.22705,1610.47266 1460.60107,1593.48047 1435.62549,1593.48047 C1403.69189,1593.48047 1380.84033,1621.3125 1380.84033,1660.13086 C1380.84033,1685.69238 1397.39307,1702.83105 1422.07568,1702.83105 Z M1423.3208,1679.17383 C1415.99658,1679.17383 1412.18799,1672.3623 1412.18799,1659.39844 C1412.18799,1637.05957 1422.66162,1617.1377 1434.45361,1617.1377 C1441.99756,1617.1377 1445.87939,1623.80273 1445.87939,1636.69336 C1445.87939,1659.03223 1435.18604,1679.17383 1423.3208,1679.17383 Z M1528.42334,1702.83105 C1560.43018,1702.83105 1583.57471,1674.70605 1583.57471,1635.8877 C1583.57471,1610.47266 1566.94873,1593.48047 1541.97314,1593.48047 C1510.03955,1593.48047 1487.18799,1621.3125 1487.18799,1660.13086 C1487.18799,1685.69238 1503.74072,1702.83105 1528.42334,1702.83105 Z M1529.66846,1679.17383 C1522.34424,1679.17383 1518.53564,1672.3623 1518.53564,1659.39844 C1518.53564,1637.05957 1529.00928,1617.1377 1540.80127,1617.1377 C1548.34521,1617.1377 1552.22705,1623.80273 1552.22705,1636.69336 C1552.22705,1659.03223 1541.53369,1679.17383 1529.66846,1679.17383 Z M1612.65186,1701 L1619.24365,1669.87207 L1619.60986,1669.87207 L1634.40479,1701 L1665.75244,1701 L1645.09814,1660.05762 L1683.11084,1620.14062 L1651.03076,1620.14062 L1623.85791,1649.9502 L1623.4917,1649.9502 L1629.86377,1620.14062 L1600.85986,1620.14062 L1583.64795,1701 L1612.65186,1701 Z M1702.81299,1701 L1715.48389,1641.30762 L1746.46533,1641.30762 L1751.00635,1620.14062 L1691.021,1620.14062 L1673.80908,1701 L1702.81299,1701 Z" id="500кг"></path> </g> </g> </svg> 