<?xml version="1.0" encoding="UTF-8"?> <svg xmlns="http://www.w3.org/2000/svg" width="859" height="866" viewBox="0 0 859 866" fill="none"><path d="M766.999 236.025C744.387 271.959 744.562 311.223 721.074 367.315C703.896 365.562 686.718 364.861 669.54 365.562C672.169 352.065 673.396 338.392 673.221 324.72C672.695 297.726 669.89 270.732 664.807 244.263C698.462 237.778 732.643 234.973 766.999 236.025ZM657.094 329.803C657.094 342.074 656.043 354.344 653.764 366.438C607.663 370.119 563.316 385.895 525.103 412.013C557.882 376.43 576.112 329.803 576.287 281.424C576.287 279.847 576.287 278.444 576.112 276.867C598.373 263.896 622.212 254.255 647.103 248.12C652.712 275.114 656.043 302.459 657.094 329.803ZM504.419 434.274C546.839 401.496 597.847 382.214 651.31 378.358C636.06 435.326 594.166 458.113 561.037 458.113C539.652 458.113 519.319 449.524 504.419 434.274ZM564.718 296.148C564.718 356.096 531.063 400.093 501.44 428.49C497.233 418.674 495.129 408.332 495.305 397.639C495.305 361.53 516.339 317.533 564.367 284.579C564.718 288.436 564.718 292.292 564.718 296.148ZM488.819 395.887C488.819 404.651 490.221 413.415 493.201 421.654C484.787 405.527 480.405 387.473 480.405 369.243C480.405 309.821 507.224 254.255 543.158 209.206C553.149 229.014 559.81 250.223 563.14 271.959C517.04 302.985 488.819 346.28 488.819 395.887ZM515.638 449.349C529.135 458.639 545.261 463.723 561.563 464.073C613.273 464.073 652.011 432.171 666.735 377.481C683.037 376.956 699.514 377.657 715.815 379.41C715.815 379.585 715.64 379.585 715.64 379.585C687.244 441.111 634.132 473.714 581.896 473.714C557.531 474.766 533.692 466.001 515.638 449.349ZM647.979 119.985C635.534 157.847 639.215 197.111 645.175 235.149C620.81 241.809 597.497 251.45 575.586 264.071C573.132 239.881 566.471 216.218 555.954 194.131C582.247 164.508 613.448 139.267 647.979 119.985ZM479.353 71.9565C491.098 123.316 517.391 159.775 537.724 198.338C508.802 234.097 488.644 276.166 479.353 321.214H480.405V71.9565H479.353ZM519.319 458.113C538.425 472.837 561.738 480.725 585.752 480.725C642.896 480.725 699.163 447.947 732.468 381.513C760.338 385.895 787.858 393.082 814.151 403.073C754.729 418.849 690.048 490.717 608.715 490.717C571.379 490.717 541.23 478.271 521.422 459.516L519.319 458.113ZM472.342 378.183C482.859 441.286 532.115 500.007 617.129 500.007C715.289 500.007 798.901 408.683 855.344 406.228C859.551 406.053 859.551 404.125 856.22 402.898C818.358 387.122 778.919 375.904 738.427 369.594C762.967 314.028 763.493 265.648 787.157 227.786C789.261 224.456 788.91 223.404 785.054 223.054C744.212 219.548 703.019 222.177 662.879 230.942C656.042 187.996 650.959 145.928 667.436 97.7237C668.663 94.0427 667.962 92.2898 664.106 94.0426C620.985 116.304 582.597 146.629 550.695 183.088C523.876 129.451 484.787 80.0197 474.095 3.41936C473.394 -1.31339 470.94 -0.962815 470.94 3.41936V352.766C470.94 383.441 449.555 397.639 429.221 397.639C408.888 397.639 387.503 383.266 387.503 352.766V3.59464C387.503 -0.787531 385.049 -1.1381 384.348 3.59464C373.655 80.0197 334.566 129.626 307.923 183.088C276.021 146.453 237.458 116.304 194.512 94.0426C190.831 92.2898 189.955 93.8674 191.182 97.7237C207.834 146.103 202.751 187.996 195.739 230.942C155.599 222.177 114.406 219.548 73.5643 223.054C69.8833 223.404 69.5327 224.456 71.4609 227.786C95.1246 265.648 95.8257 314.028 120.191 369.594C79.6994 375.904 40.0845 387.122 2.39786 402.898C-0.932591 404.3 -0.932591 406.228 3.27429 406.228C59.5414 408.507 143.328 500.007 241.489 500.007C326.679 500.007 375.759 441.286 386.276 378.183L384.523 378.533C391.359 393.958 406.083 404.3 422.911 405.527L423.086 404.476C399.948 406.93 381.368 424.458 381.368 446.895C381.368 482.654 416.425 494.223 426.767 521.217C427.468 522.97 427.819 524.898 429.397 524.898C430.974 524.898 431.15 523.145 432.026 521.217C442.543 494.223 477.425 482.654 477.425 446.895C476.373 424.108 458.319 405.703 435.707 404.476L435.882 405.527C452.71 404.3 467.434 393.958 474.27 378.533L472.342 378.183ZM193.811 244.439C188.728 270.907 185.923 297.901 185.397 324.895C185.397 338.568 186.624 352.24 189.078 365.737C171.9 365.036 154.722 365.562 137.544 367.49C114.056 311.398 114.231 272.134 91.6189 236.2C125.8 234.973 159.981 237.778 193.811 244.439ZM211.34 248.295C236.231 254.43 260.07 264.246 282.331 277.042C282.331 278.62 282.156 280.022 282.156 281.6C282.156 329.979 300.561 376.605 333.339 412.188C295.127 386.071 250.779 370.295 204.679 366.614C202.4 354.519 201.348 342.249 201.348 329.979C202.575 302.459 205.906 275.289 211.34 248.295ZM297.581 458.289C264.452 458.289 222.558 435.326 207.308 378.533C260.771 382.214 311.779 401.671 354.199 434.45C339.299 449.524 318.966 458.113 297.581 458.289ZM294.25 284.755C342.279 317.709 363.313 361.706 363.313 397.815C363.489 408.332 361.385 418.849 357.178 428.665C327.555 400.269 293.9 356.272 293.9 296.324C293.9 292.292 293.9 288.436 294.25 284.755ZM295.477 272.134C298.633 250.223 305.469 229.014 315.46 209.381C351.394 254.255 378.213 309.996 378.213 369.418C378.213 387.648 373.831 405.527 365.417 421.829C368.397 413.591 369.799 404.826 369.799 396.062C369.799 346.28 341.578 302.985 295.477 272.134ZM276.722 473.714C224.486 473.714 171.374 441.111 142.978 379.585C142.978 379.41 142.803 379.41 142.803 379.41C159.104 377.657 175.406 376.956 191.883 377.481C206.607 432.171 245.345 464.073 297.055 464.073C313.532 463.898 329.483 458.815 342.98 449.349C325.101 466.001 301.087 474.766 276.722 473.714ZM302.664 194.131C292.147 216.218 285.486 239.881 283.032 264.071C261.121 251.45 237.808 241.809 213.443 235.149C219.403 196.936 223.084 157.847 210.639 119.985C245.345 139.442 276.371 164.508 302.664 194.131ZM378.038 71.9565V321.214H379.089C369.799 276.166 349.816 234.097 320.719 198.338C341.052 159.6 367.345 123.316 379.089 71.9565H378.038ZM337.196 459.34C317.388 478.096 287.239 490.541 249.903 490.541C168.57 490.541 103.889 418.674 44.4667 403.073C70.935 393.082 98.2798 385.895 126.15 381.513C159.455 447.947 215.722 480.725 272.865 480.725C296.88 480.725 320.368 472.662 339.299 458.113L337.196 459.34Z" fill="black"></path><path d="M241.553 618.523C239.975 618.698 239.274 618.523 238.923 617.472C237.17 608.006 228.932 601.17 219.466 601.17C211.228 600.118 203.866 606.078 202.814 614.141C202.814 614.492 202.814 615.017 202.639 615.368C202.639 625.885 211.403 630.443 222.972 634.124C239.624 639.558 250.492 646.394 250.492 662.52C250.492 678.647 237.872 690.04 216.136 690.04C207.898 690.391 199.484 688.638 191.946 685.308C190.194 684.606 188.967 683.204 188.441 681.626C186.513 675.842 185.461 669.707 185.636 663.572C185.636 662.52 186.688 662.17 187.915 661.994C189.142 661.819 190.018 662.17 190.194 663.046C193.699 672.336 201.061 684.782 215.785 684.782C227.354 684.782 234.716 677.945 234.716 668.655C234.716 660.767 231.912 654.282 216.487 649.198C201.061 644.115 188.265 636.052 188.265 620.451C188.265 606.954 199.308 595.385 221.044 595.385C227.004 595.561 232.964 596.262 238.923 597.664C241.027 598.19 241.202 598.541 241.728 599.943C243.305 605.377 244.007 610.986 244.007 616.595C243.831 617.822 243.13 618.348 241.553 618.523Z" fill="black"></path><path d="M490.284 663.917C491.511 664.092 492.212 664.618 492.037 665.319C491.335 671.805 489.407 678.291 486.603 684.075C486.077 685.127 485.2 685.828 483.973 686.178C475.91 688.983 467.496 690.385 458.907 690.561C428.583 690.561 405.27 675.311 405.27 643.058C405.27 611.682 429.985 595.205 458.557 595.205C467.847 595.38 476.962 596.782 485.901 598.886C487.654 599.236 487.83 599.587 488.005 601.164C488.18 605.021 488.531 611.857 489.758 620.095C489.933 620.972 489.407 621.322 488.005 621.673C486.427 621.848 485.726 621.673 485.551 620.796C483.097 608.351 471.703 599.762 459.083 600.814C441.729 600.814 424.201 613.084 424.201 641.13C424.201 670.227 442.43 684.601 460.134 684.601C472.93 684.776 484.324 676.538 488.355 664.443C488.355 663.917 489.057 663.742 490.284 663.917Z" fill="black"></path><path d="M525.516 643.231C526.041 616.413 547.952 595.028 574.771 595.553C600.889 595.904 622.099 617.114 622.449 643.231C621.748 670.05 599.311 691.085 572.492 690.384C546.901 689.682 526.217 668.999 525.516 643.231ZM574.07 684.599C590.547 684.599 603.694 666.895 603.694 643.231C603.694 621.321 593.001 601.513 574.07 601.513C555.139 601.513 544.447 621.496 544.447 643.231C544.271 666.895 557.418 684.599 574.07 684.599Z" fill="black"></path><path d="M116.397 643.054V668.47C116.397 683.019 115.17 683.37 108.685 684.246L105.705 684.597C104.828 684.772 104.653 685.648 104.653 686.7C104.828 687.752 105.004 688.628 105.88 688.453C105.88 688.453 117.8 688.102 124.285 688.102C130.771 688.102 142.69 688.453 142.69 688.453C143.567 688.453 143.917 687.752 143.917 686.7C144.093 685.648 143.742 684.597 142.866 684.597L139.886 684.246C133.4 683.37 132.173 683.019 132.173 668.47V617.637C132.173 603.088 133.4 602.738 139.886 601.861L142.866 601.511C143.742 601.335 143.917 600.459 143.917 599.407C143.917 598.355 143.567 597.654 142.69 597.654C142.69 597.654 130.771 598.005 124.285 598.005C117.8 598.005 105.88 597.654 105.88 597.654C105.004 597.654 104.653 598.355 104.653 599.407C104.478 600.459 104.828 601.511 105.705 601.511L108.685 601.861C115.17 602.738 116.397 603.088 116.397 617.637V643.054Z" fill="black"></path><path d="M350.58 680.74C352.158 682.844 350.931 683.895 349.178 684.246L345.672 684.772C344.796 684.947 344.62 685.648 344.796 686.875C344.971 688.102 345.322 688.803 346.023 688.628C346.023 688.628 357.592 688.278 363.902 688.278C370.388 688.278 381.957 688.628 381.957 688.628C382.833 688.628 383.184 688.102 383.359 686.7C383.534 685.298 383.008 684.597 382.307 684.597C376.698 684.772 371.439 682.318 368.109 677.936C359.345 668.12 341.991 645.858 334.98 636.568C334.103 635.692 334.103 634.114 334.98 633.238L335.155 633.062C339.011 628.855 351.632 616.059 357.241 610.976C362.85 605.367 370.212 602.036 378.1 601.335C378.801 601.16 379.327 600.284 379.152 599.057C378.977 598.005 378.626 597.304 377.75 597.479C377.75 597.479 367.934 597.83 362.675 597.83C357.416 597.83 347.6 597.479 347.6 597.479C346.724 597.479 346.373 598.355 346.373 599.232C346.198 600.459 346.549 601.16 347.25 601.335L350.931 602.387C351.632 602.562 352.158 602.913 352.158 603.614C352.333 605.192 349.353 608.522 345.497 612.904C340.063 619.039 330.598 629.031 325.514 633.939C321.307 637.97 319.554 638.671 317.977 637.795C316.75 637.269 316.224 635.867 316.224 631.66V617.286C316.224 602.738 317.451 602.387 323.937 601.511L326.917 601.16C327.793 600.985 327.968 600.108 327.968 599.057C327.793 598.005 327.618 597.304 326.741 597.304C326.741 597.304 314.822 597.654 308.336 597.654C301.851 597.654 289.931 597.304 289.931 597.304C289.055 597.304 288.704 598.005 288.704 599.057C288.529 600.108 288.879 601.16 289.756 601.16L292.736 601.511C299.221 602.387 300.448 602.738 300.448 617.286V668.12C300.448 682.668 299.221 683.019 292.736 683.895L289.756 684.246C288.879 684.421 288.704 685.298 288.704 686.349C288.704 687.401 289.055 688.278 289.931 688.102C289.931 688.102 301.851 687.752 308.336 687.752C314.822 687.752 326.741 688.102 326.741 688.102C327.618 688.102 327.968 687.401 327.968 686.349C328.144 685.298 327.793 684.246 326.917 684.246L323.937 683.895C317.451 683.019 316.224 682.668 316.224 668.12V647.786C316.224 645.508 317.1 644.105 318.503 643.755C320.08 643.404 321.307 644.105 322.885 645.858C330.422 654.097 344.62 672.677 350.58 680.74Z" fill="black"></path><path d="M672.933 616.77C690.287 634.649 717.106 665.675 737.439 690.04C738.315 691.092 739.192 691.267 740.945 690.566C742.522 689.865 742.697 689.339 742.697 688.112C742.347 681.276 742.172 674.79 742.172 668.655V622.204C742.172 606.077 743.399 602.922 749.884 602.046L752.864 601.695C753.741 601.52 753.916 600.644 753.916 599.592C753.916 598.54 753.565 597.664 752.689 597.839C747.43 598.19 742.347 598.19 738.841 598.19C735.16 598.19 728.674 598.014 723.416 597.839C722.539 597.839 722.189 598.54 722.189 599.592C722.014 600.644 722.539 601.695 723.241 601.695C734.108 602.221 735.511 604.5 735.511 622.204V664.974L736.562 663.922C716.58 643.589 697.999 622.204 680.646 599.592C679.769 598.365 679.594 597.839 678.017 598.014C670.129 598.365 662.241 598.365 654.353 597.839C653.476 597.664 653.126 598.54 653.126 599.592C652.951 600.644 653.301 601.52 654.178 601.695C664.695 603.799 667.675 606.954 667.675 617.822V664.273C667.675 680.399 666.448 683.554 659.962 684.431L656.982 684.781C656.106 684.957 655.93 685.833 655.93 686.885C655.93 687.936 656.281 688.813 657.157 688.638C662.416 688.287 667.499 688.287 671.005 688.287C674.686 688.287 679.594 688.462 684.853 688.638C685.729 688.638 686.08 687.936 686.08 686.885C686.255 685.833 685.905 684.781 685.028 684.781L682.048 684.431C675.563 683.554 674.336 680.399 674.336 664.273V616.069L672.933 616.77Z" fill="black"></path><path d="M753.026 570.396C754.603 570.396 755.83 568.643 755.83 565.839C755.83 563.034 754.603 561.281 753.026 561.281H105.691C104.114 561.281 102.887 563.034 102.887 565.839C102.887 568.643 104.114 570.396 105.691 570.396H753.026Z" fill="black"></path><path d="M753.026 724.828C754.603 724.828 755.83 723.075 755.83 720.27C755.83 717.466 754.603 715.713 753.026 715.713H105.691C104.114 715.713 102.887 717.466 102.887 720.27C102.887 723.075 104.114 724.828 105.691 724.828H753.026Z" fill="black"></path><path d="M811.876 535.607C812.052 546.124 803.813 554.714 793.296 554.889C782.779 555.064 774.19 546.826 774.014 536.308C773.839 525.791 782.078 517.202 792.595 517.027C792.77 517.027 792.945 517.027 792.945 517.027C803.287 517.027 811.876 525.265 811.876 535.607ZM778.572 535.607C779.098 543.495 785.759 549.63 793.822 549.28C801.71 548.754 807.845 542.093 807.494 534.03C807.144 526.317 800.833 520.357 793.121 520.357C784.882 520.708 778.397 527.369 778.572 535.607ZM786.81 531.4C786.81 529.472 786.46 528.596 785.233 528.421H784.707C784.356 527.895 784.356 527.018 784.882 526.843C787.862 526.668 790.491 526.492 792.945 526.492C796.276 526.492 800.307 527.193 800.307 531.4C800.307 533.153 799.256 534.731 797.678 535.432C797.328 535.607 797.328 535.783 797.678 536.484C798.555 538.587 799.782 540.691 801.359 542.268C801.885 542.619 802.236 542.969 802.586 543.145C802.937 543.145 802.937 544.021 802.586 544.196C801.885 544.196 801.184 544.372 800.483 544.372C798.204 544.547 796.101 543.32 795.049 541.392L792.945 537.711C792.77 537.185 792.244 536.834 791.718 536.834C791.017 536.834 790.842 537.185 790.842 537.535V539.639C790.842 541.742 790.842 542.443 792.945 542.619L793.296 542.794C793.647 542.969 793.647 544.021 793.296 544.196C791.894 544.196 790.667 544.021 788.914 544.021C787.336 544.021 785.934 544.196 784.707 544.196C784.356 544.021 784.356 542.969 784.532 542.794L785.058 542.619C786.635 542.268 786.635 541.918 786.635 539.639L786.81 531.4ZM790.842 534.205C790.842 535.257 791.017 535.257 792.595 535.257C794.172 535.432 795.399 534.205 795.575 532.803C795.575 532.627 795.575 532.452 795.575 532.452C795.575 530.173 794.523 528.771 792.77 528.771C791.017 528.771 790.842 529.122 790.842 529.823V534.205Z" fill="black"></path><path d="M638.453 850H630.297V814H630.051L615.391 849.578H609.203L594.543 814H594.297V850H586.105V799.27H596.617L612.156 837.555H612.438L627.977 799.27H638.453V850Z" fill="black"></path><path d="M552.371 836.887H533.703L529.379 850H520.027L538.027 799.27H548.258L566.258 850H556.695L552.371 836.887ZM535.812 829.891H550.227L543.16 808.234H542.914L535.812 829.891Z" fill="black"></path><path d="M458.098 850V799.27H465.973L491.145 834.812H491.461V799.27H500.18V850H492.375L467.168 814.422H466.852V850H458.098Z" fill="black"></path><path d="M382.574 850V806.934H367.176V799.27H407.043V806.934H391.645V850H382.574Z" fill="black"></path><path d="M331.258 865.258C329.898 865.258 328.75 864.777 327.812 863.816C326.852 862.855 326.371 861.707 326.371 860.371C326.371 859.012 326.852 857.863 327.812 856.926C328.75 855.965 329.898 855.484 331.258 855.484C332.617 855.484 333.766 855.965 334.703 856.926C335.664 857.863 336.145 859.012 336.145 860.371C336.145 861.707 335.664 862.855 334.703 863.816C333.766 864.777 332.617 865.258 331.258 865.258ZM334.703 784.75L344.582 795.648H337.445L331.328 788.688H331.188L325.07 795.648H317.934L327.812 784.75H334.703ZM347.676 850H314.84V799.27H347.676V806.934H323.91V820.645H346.375V827.852H323.91V842.336H347.676V850Z" fill="black"></path><path d="M282.441 850V799.27H291.512V850H282.441Z" fill="black"></path><path d="M234.574 850L216.926 799.27H226.91L239.777 840.262H239.988L252.855 799.27H262.629L244.98 850H234.574Z" fill="black"></path></svg> 