<?xml version="1.0" encoding="UTF-8"?> <svg xmlns="http://www.w3.org/2000/svg" width="1785" height="1260" viewBox="0 0 1785 1260" fill="none"><g clip-path="url(#clip0_2081_3685)"><rect width="1260" height="1785" transform="matrix(0 1 -1 0 1785 0)" fill="white"></rect><path d="M1107.79 402.158V844.329H665.614V402.158H1107.79ZM678.983 830.961H1094.42V415.527H678.983V830.961Z" fill="black"></path><path d="M1179.26 330.693V915.807H594.147L594.147 330.693H1179.26ZM607.516 902.439H1165.89V344.062H607.516L607.516 902.439Z" fill="black"></path><path d="M1658.17 629.543C1658.17 506.55 1574 394.015 1435.38 311.867C1296.9 229.807 1105.16 178.835 893.006 178.834C680.854 178.834 489.101 229.806 350.622 311.867C211.999 394.015 127.833 506.55 127.833 629.543C127.833 752.536 211.999 865.07 350.622 947.218C489.101 1029.28 680.854 1080.25 893.006 1080.25C1105.16 1080.25 1296.9 1029.28 1435.38 947.218C1574 865.07 1658.17 752.536 1658.17 629.543ZM1671.53 629.543C1671.53 759.159 1582.92 875.325 1442.19 958.72C1301.32 1042.2 1107.13 1093.62 893.006 1093.62C678.877 1093.62 484.684 1042.2 343.807 958.72C203.079 875.325 114.465 759.159 114.464 629.543C114.464 499.926 203.079 383.761 343.807 300.366C484.684 216.883 678.877 165.465 893.006 165.465C1107.13 165.466 1301.32 216.884 1442.19 300.366C1582.92 383.761 1671.53 499.926 1671.53 629.543Z" fill="black"></path><path d="M1729.63 629.543C1729.63 486.629 1637.25 356.247 1485.77 261.252C1334.38 166.313 1124.82 107.369 893.007 107.369C661.188 107.369 451.631 166.313 300.242 261.252C148.763 356.247 56.3697 486.628 56.3687 629.543C56.3687 772.458 148.762 902.851 300.242 997.847C451.631 1092.78 661.189 1151.72 893.007 1151.72C1124.82 1151.72 1334.38 1092.79 1485.77 997.847C1637.25 902.851 1729.63 772.458 1729.63 629.543ZM1743 629.543C1743 778.708 1646.61 912.752 1492.87 1009.17C1339.04 1105.64 1126.94 1165.08 893.007 1165.09C659.075 1165.09 446.972 1105.64 293.14 1009.17C139.399 912.752 43 778.709 43 629.543C43.001 480.377 139.4 346.333 293.14 249.92C446.972 153.45 659.076 94 893.007 94C1126.94 94.0006 1339.04 153.449 1492.87 249.92C1646.61 346.333 1743 480.378 1743 629.543Z" fill="black"></path><path d="M802.872 620.967V570.611H793.869V613.394H778.131V570.611H769.162V613.394H753.424V570.611H744.421V620.967H802.872ZM820.251 633.146V614.825H820.425C822.449 618.978 826.637 621.56 832.011 621.56C841.293 621.56 847.225 614.267 847.225 602.472C847.225 590.642 841.258 583.348 831.871 583.348C826.497 583.348 822.309 586.07 820.216 590.363H820.041V583.977H811.561V633.146H820.251ZM829.219 614.441C823.81 614.441 820.216 609.73 820.181 602.472C820.216 595.283 823.81 590.502 829.219 590.502C834.837 590.502 838.327 595.178 838.327 602.472C838.327 609.8 834.837 614.441 829.219 614.441ZM862.022 620.967L878.109 596.086H878.388V620.967H886.903V583.977H878.388L862.301 608.683H862.022V583.977H853.507V620.967H862.022ZM899.395 630.633V620.967H925.638V630.633H933.594V614.267H927.976V583.977H899.849L898.558 603.274C898.209 608.264 897.092 612.661 894.37 614.267H891.439V630.633H899.395ZM919.321 614.267H903.478V613.987C905.188 611.545 906.026 607.916 906.305 603.728L907.247 590.642H919.321V614.267ZM945.528 620.967L958.161 604.426H958.405V620.967H966.99V604.426H967.269L979.866 620.967H990.37L975.26 601.285L989.707 583.977H979.657L967.269 599.401H966.99V583.977H958.405V599.401H958.161L945.738 583.977H935.583L950.135 601.39L935.129 620.967H945.528ZM1003.32 620.967L1019.4 596.086H1019.68V620.967H1028.2V583.977H1019.68L1003.6 608.683H1003.32V583.977H994.802V620.967H1003.32ZM764.853 692.434V656.701H765.097L779.649 692.016H785.79L800.342 656.701H800.587V692.434H808.682V642.079H798.283L782.859 680.081H782.58L767.156 642.079H756.722V692.434H764.853ZM828.294 693.028C833.04 693.028 837.681 690.55 839.81 686.537H839.984V692.434H848.36V666.96C848.36 659.527 842.392 654.677 833.215 654.677C823.793 654.677 817.895 659.632 817.511 666.541H825.572C826.131 663.47 828.748 661.481 832.866 661.481C837.158 661.481 839.775 663.715 839.775 667.588V670.24L830.004 670.799C821.001 671.357 815.941 675.3 815.941 681.861C815.941 688.526 821.14 693.028 828.294 693.028ZM830.911 686.467C827.143 686.467 824.63 684.548 824.63 681.512C824.63 678.581 827.038 676.696 831.226 676.417L839.775 675.894V678.72C839.775 683.187 835.832 686.467 830.911 686.467ZM864.621 692.434V676.731H880.255V692.434H888.909V655.444H880.255V670.031H864.621V655.444H855.967V692.434H864.621ZM901.437 702.101V692.434H927.679V702.101H935.635V685.734H930.017V655.444H901.891L900.599 674.742C900.25 679.732 899.134 684.129 896.412 685.734H893.481V702.101H901.437ZM921.363 685.734H905.52V685.455C907.23 683.012 908.067 679.383 908.346 675.196L909.289 662.109H921.363V685.734ZM949.036 692.434L965.123 667.553H965.402V692.434H973.917V655.444H965.402L949.315 680.151H949.036V655.444H940.521V692.434H949.036ZM990.388 704.613V686.293H990.562C992.586 690.445 996.774 693.028 1002.15 693.028C1011.43 693.028 1017.36 685.734 1017.36 673.939C1017.36 662.109 1011.4 654.816 1002.01 654.816C996.634 654.816 992.447 657.538 990.353 661.83H990.178V655.444H981.698V704.613H990.388ZM999.356 685.909C993.947 685.909 990.353 681.198 990.318 673.939C990.353 666.751 993.947 661.97 999.356 661.97C1004.97 661.97 1008.46 666.646 1008.46 673.939C1008.46 681.268 1004.97 685.909 999.356 685.909Z" fill="black"></path></g><defs><clipPath id="clip0_2081_3685"><rect width="1260" height="1785" fill="white" transform="matrix(0 1 -1 0 1785 0)"></rect></clipPath></defs></svg> 