<?xml version="1.0" encoding="UTF-8"?> <svg xmlns="http://www.w3.org/2000/svg" xmlns:xlink="http://www.w3.org/1999/xlink" width="413px" height="110px" viewBox="0 0 413 110"> <title>1008</title> <defs> <radialGradient cx="75.381116%" cy="-4.33877037%" fx="75.381116%" fy="-4.33877037%" r="183.443815%" gradientTransform="translate(0.753811,-0.043388),scale(0.264904,1.000000),rotate(-29.905259),scale(1.000000,0.891476),translate(-0.753811,0.043388)" id="radialGradient-1"> <stop stop-color="#F8F392" offset="0%"></stop> <stop stop-color="#AA6B08" offset="100%"></stop> </radialGradient> </defs> <g id="Page-1" stroke="none" stroke-width="1" fill="none" fill-rule="evenodd"> <g id="Artboard-Copy-33" transform="translate(-1436.000000, -1290.000000)" fill="url(#radialGradient-1)" fill-rule="nonzero"> <path d="M1480.72656,1398 L1503.21191,1292.31152 L1472.15723,1292.31152 C1472.15723,1292.31152 1465.74104,1296.06205 1458.81155,1300.11262 L1457.90528,1300.64237 C1457.60254,1300.81934 1457.29932,1300.99658 1456.99609,1301.17383 L1456.08691,1301.70528 L1456.08691,1301.70528 L1455.18064,1302.23504 C1448.25115,1306.28561 1441.83496,1310.03613 1441.83496,1310.03613 L1436.19531,1336.76953 C1436.19531,1336.76953 1442.73171,1332.96742 1449.66029,1328.93718 L1450.54645,1328.42172 L1450.54645,1328.42172 L1451.43402,1327.90543 L1451.43402,1327.90543 L1452.32018,1327.38997 C1459.24876,1323.35973 1465.78516,1319.55762 1465.78516,1319.55762 L1466.37109,1319.55762 L1449.67188,1398 L1480.72656,1398 Z M1582.31348,1399.83105 C1614.32031,1399.83105 1637.46484,1371.70605 1637.46484,1332.8877 C1637.46484,1307.47266 1620.83887,1290.48047 1595.86328,1290.48047 C1563.92969,1290.48047 1541.07812,1318.3125 1541.07812,1357.13086 C1541.07812,1382.69238 1557.63086,1399.83105 1582.31348,1399.83105 Z M1583.55859,1376.17383 C1576.23438,1376.17383 1572.42578,1369.3623 1572.42578,1356.39844 C1572.42578,1334.05957 1582.89941,1314.1377 1594.69141,1314.1377 C1602.23535,1314.1377 1606.11719,1320.80273 1606.11719,1333.69336 C1606.11719,1356.03223 1595.42383,1376.17383 1583.55859,1376.17383 Z M1688.66113,1399.83105 C1720.66797,1399.83105 1743.8125,1371.70605 1743.8125,1332.8877 C1743.8125,1307.47266 1727.18652,1290.48047 1702.21094,1290.48047 C1670.27734,1290.48047 1647.42578,1318.3125 1647.42578,1357.13086 C1647.42578,1382.69238 1663.97852,1399.83105 1688.66113,1399.83105 Z M1689.90625,1376.17383 C1682.58203,1376.17383 1678.77344,1369.3623 1678.77344,1356.39844 C1678.77344,1334.05957 1689.24707,1314.1377 1701.03906,1314.1377 C1708.58301,1314.1377 1712.46484,1320.80273 1712.46484,1333.69336 C1712.46484,1356.03223 1701.77148,1376.17383 1689.90625,1376.17383 Z M1794.42285,1399.83105 C1822.47461,1399.83105 1842.46973,1386.7207 1842.46973,1368.41016 C1842.46973,1357.13086 1835.51172,1348.3418 1823.71973,1344.82617 L1823.79297,1344.16699 C1839.02734,1342.18945 1848.98828,1332.15527 1848.98828,1318.75195 C1848.98828,1302.8584 1830.9707,1290.48047 1807.75293,1290.48047 C1782.85059,1290.48047 1764.54004,1302.93164 1764.54004,1319.85059 C1764.54004,1328.85938 1770.5459,1336.47656 1779.99414,1339.47949 L1779.84766,1339.99219 C1761.1709,1343.21484 1749.52539,1354.56738 1749.52539,1369.58203 C1749.52539,1387.37988 1767.98242,1399.83105 1794.42285,1399.83105 Z M1805.18945,1333.69336 C1798.6709,1333.69336 1793.83691,1329.37207 1793.83691,1323.43945 C1793.83691,1316.84766 1799.84277,1311.35449 1807.02051,1311.35449 C1813.53906,1311.35449 1818.44629,1315.82227 1818.44629,1321.75488 C1818.44629,1328.2002 1812.36719,1333.69336 1805.18945,1333.69336 Z M1795.74121,1378.44434 C1787.75781,1378.44434 1782.19141,1373.68359 1782.19141,1366.87207 C1782.19141,1359.32812 1788.70996,1353.61523 1797.2793,1353.61523 C1805.33594,1353.61523 1810.97559,1358.37598 1810.97559,1365.26074 C1810.97559,1372.80469 1804.45703,1378.44434 1795.74121,1378.44434 Z" id="1008"></path> </g> </g> </svg> 