<?xml version="1.0" encoding="UTF-8"?> <svg xmlns="http://www.w3.org/2000/svg" xmlns:xlink="http://www.w3.org/1999/xlink" width="500px" height="500px" viewBox="0 0 500 500"> <title>Mahabhava Dhama Water&amp;Electro Copy 27</title> <g id="Mahabhava-Dhama-Water&amp;Electro-Copy-27" stroke="none" stroke-width="1" fill="none" fill-rule="evenodd"> <path d="M23.2257708,445.176991 C20.2512962,425.311405 47.0301484,405.568317 82.1467541,408.078117 C99.3049564,409.188316 138.955678,423.359172 166.429611,447.502509 C180.495347,458.80401 190.254155,472.911579 196.187229,482.787521 C198.931726,488.024871 200.662134,492.512433 201.977854,495.424479 C203.192947,498.361733 203.871735,500 203.871735,500 C203.871735,500 202.317242,499.069793 199.547645,497.393768 C196.748657,495.805809 193.006911,493.337842 188.284759,490.92855 C178.228611,486.566166 165.218368,481.663807 150.578762,480.180539 C136.214828,478.223779 121.181557,478.211207 107.940694,479.141403 L107.940694,479.141403 C94.8427082,479.808284 83.5714555,481.149104 76.7877657,480.503837 C49.7568394,478.508697 26.1252667,464.992162 23.2257708,445.176991 Z M406.675979,376.917091 C427.450104,373.397385 446.711784,376.975765 459.579363,384.027619 C472.59765,391.037424 479.427464,401.40829 477.671849,411.213007 C475.915911,421.043898 468.294692,428.945831 457.656091,435.101052 C446.946696,441.251661 433.421579,445.714123 418.613565,448.223923 C411.063141,449.162497 398.907806,449.99638 384.163079,451.492198 C369.745512,453.570576 352.952013,457.262014 337.242969,463.651825 C334.92319,464.519567 332.748973,465.595434 330.594655,466.68816 L328.750039,467.624451 C327.827236,468.090199 326.901494,468.549008 325.96292,468.98582 C322.33434,470.917459 318.336981,472.39236 315.244729,474.675937 C308.833465,478.999598 302.251113,482.674303 297.445078,486.633904 C287.648942,494.779223 281.363823,499.991687 281.363823,499.991687 C281.363823,499.991687 281.431562,499.786067 281.565191,499.386433 L281.631538,499.188253 C282.388998,496.928284 284.736516,490.009321 288.453434,479.816104 C290.724461,473.527123 294.726003,466.818841 298.744279,458.866063 C300.642344,454.738591 303.57123,451.235619 306.215112,447.18806 C309.001443,443.311911 311.741757,438.954246 315.081256,435.10781 C328.074336,419.310808 345.434197,404.796917 362.621361,394.434847 L362.621361,394.434847 C379.859584,384.689662 396.326567,378.295668 406.675979,376.917091 Z M242.450981,0 C245.610274,11.1749282 248.354771,21.621094 251.459573,31.9705063 C260.430194,62.0091594 273.029609,90.0194204 286.844343,117.367853 C287.322817,118.31442 287.801434,119.260898 288.280117,120.207339 L291.15236,125.885919 L291.15236,125.885919 L294.022368,131.565971 C306.44875,156.186174 318.705334,180.915201 329.403035,206.628906 C343.674077,240.958182 345.559805,275.769081 331.305282,310.70548 C313.052971,355.418065 272.665335,380.595656 229.541354,374.704416 C188.826557,369.110516 154.078731,331.773513 145.891363,284.38358 C141.332469,258.053098 144.722383,232.745929 154.656999,208.635845 C166.753339,179.297636 180.732189,151.177964 195.107922,123.288913 C214.876969,84.962921 231.611687,45.1491555 241.722326,1.85354923 L241.722326,1.85354923 C241.826663,1.47490173 242.006837,1.11459665 242.450981,0 Z M33.132498,332.873414 C33.8275789,321.635414 50.0182457,313.862843 68.2115608,318.203773 C77.1907625,320.337286 96.4395709,330.899728 110.254305,344.362631 C117.280951,350.791057 122.694431,358.060338 126.159645,363.285352 C127.877611,365.958517 129.029879,368.367809 129.884657,369.888835 C130.585949,371.283907 131.030036,372.140494 131.108263,372.290999 L131.120678,372.314861 L131.120678,372.314861 L131.080293,372.294748 C130.669609,372.09063 127.15963,370.355631 122.061778,368.13322 C116.384211,366.013115 108.942125,363.608007 100.675167,362.275553 L100.675167,362.275553 C84.4311892,359.140717 66.2546075,359.542963 58.771117,357.757956 C43.8423226,354.121653 32.436945,344.01509 33.132498,332.873414 Z" id="Combined-Shape" fill="#4E9CF9" fill-rule="nonzero"></path> </g> </svg> 