<?xml version="1.0" encoding="UTF-8"?> <svg xmlns="http://www.w3.org/2000/svg" width="100" height="100" viewBox="0 0 100 100" fill="none"><path d="M28.857 10.5225C28.8704 10.3646 28.6765 10.1901 28.7963 10.0225C28.9605 9.79272 29.2939 9.73866 29.5567 9.75627C29.8837 9.77793 30.24 9.89778 30.5665 9.95953C31.0206 10.0452 31.4411 10.0824 31.8841 10.2407C32.3542 10.4088 32.851 10.706 33.2134 11.0481C33.579 11.3935 33.79 11.7899 34.0183 12.23C34.4145 12.9945 34.8101 13.7472 35.2338 14.4979C35.9985 15.8523 36.8057 17.2097 37.6641 18.5064C38.4957 19.7626 39.2335 20.7911 40.3433 21.9412C41.4924 23.1322 43.0523 23.575 44.6569 23.744C46.7219 23.9627 48.7531 24.3439 50.7608 24.8561C51.273 24.9871 51.7802 25.0195 52.2986 25.0065C52.5462 25 52.8064 24.9751 52.9066 24.7077C53.025 24.3904 52.8242 24.1554 52.5867 24.0147C52.2039 23.7884 51.8018 23.5774 51.3832 23.4312C50.3594 23.0729 49.6765 22.4313 49.4247 21.3476C49.3477 21.0176 49.2325 20.6609 49.0272 20.4016C47.2362 18.1386 48.3051 14.9708 52.164 14.6362C52.6778 14.5916 53.2016 14.6068 53.7168 14.6461C55.154 14.756 56.7127 15.42 57.6478 13.504C58.0636 14.704 57.8428 15.4292 56.9123 15.7535C55.8596 16.1205 55.7725 16.8032 56.1776 17.617C56.8208 18.9083 56.8894 20.2528 56.8303 21.6503C56.7599 23.3173 57.5363 23.905 59.0986 23.2889C61.1057 22.4979 63.0672 21.6197 64.9525 20.6026C66.2417 19.9074 67.3665 19.1868 68.7409 18.6123C69.3337 18.3645 69.9834 18.1224 70.7146 17.877C71.0221 17.7737 71.74 17.5432 71.9356 17.2666C72.0955 17.0401 71.9603 16.5238 71.9176 16.2716C71.7637 15.364 71.6046 14.4924 71.3845 13.5958C71.0545 12.2521 70.6571 10.9234 70.2883 9.59006C70.1836 9.21208 70.086 8.83188 69.9795 8.45471C69.9174 8.23485 69.851 8.02066 69.7578 7.81173C69.5693 7.38922 69.3047 7.00011 69.1323 6.5699C68.9756 6.17856 68.9193 5.78864 68.9818 5.37159C69.0316 5.03957 69.1693 4.62414 69.3975 4.3731C69.5479 4.20769 69.8637 4.02772 70.0724 4.19494C70.2273 4.31884 70.1775 4.56279 70.1775 4.7367C70.1775 4.88631 70.205 5.0511 70.2725 5.18594C70.3403 5.32158 70.4322 5.38474 70.5814 5.41794C70.8448 5.47645 71.1845 5.42078 71.4394 5.34729C71.8409 5.23169 72.2484 5.02277 72.5903 4.78408C72.9647 4.52271 73.2908 4.20183 73.6498 3.92123C73.9899 3.65541 74.3606 3.42664 74.7541 3.24949C75.0183 3.13065 75.4809 2.94905 75.7724 3.01343C76.1207 3.09036 76.128 3.43676 75.9674 3.69772C75.7903 3.98581 75.3785 4.31216 75.127 4.55227C74.7772 4.88611 74.4539 5.25052 74.146 5.62323C73.833 6.00182 73.5169 6.42757 73.1602 6.76324C72.9892 6.92439 72.5697 7.2064 72.4672 7.38678C72.3221 7.64248 72.5318 8.24639 72.6096 8.49966C72.913 9.486 73.2663 10.4594 73.5736 11.4463C73.9022 12.5015 74.1972 13.5781 74.414 14.6621C74.5772 15.4779 74.7102 16.3412 74.762 17.1725C74.7881 17.5917 74.7665 17.9383 74.7448 18.3511C74.6713 19.7499 67.244 23.5094 65.8675 24.2919C64.1536 25.2673 63.4043 26.6466 63.4262 28.6138C63.4598 31.6161 63.4132 34.6325 62.3955 37.5133C61.89 38.9437 61.2824 40.3381 60.7022 41.7411C60.319 42.669 59.9315 43.5935 59.9487 44.6222C59.9703 45.8001 60.7348 46.6414 61.9039 46.7832C63.2195 46.9435 64.3465 46.4637 65.3869 45.7244C66.5291 44.9113 67.7493 44.2975 69.1697 44.1632C69.8204 44.1015 70.4516 44.1351 71.2213 44.526C69.7186 45.8329 68.1757 46.9338 67.1829 48.7603C68.5395 48.9204 69.7186 48.6271 70.8986 48.5469C72.1547 48.4615 73.3845 48.5143 74.594 48.8382C76.7062 49.4045 77.4208 50.8585 76.5657 52.8593C75.5696 55.1891 73.7668 56.9529 72.2219 58.8877C69.3311 62.5116 66.0528 65.7802 62.7289 69.0044C61.1439 70.5418 59.8934 72.2969 59.4452 74.525C59.3207 75.1443 59.2773 75.7647 59.3618 76.3797C59.5664 77.8815 58.8421 79.0476 58.042 80.1896C57.8428 80.4732 57.5753 80.7419 57.1759 80.614C56.7817 80.4872 56.7408 80.1192 56.6979 79.7706C56.5775 78.7962 56.738 77.8369 56.9573 76.9004C57.2917 75.4713 57.1239 74.0963 56.7161 72.717C56.1031 70.6437 56.4228 69.9507 58.2835 68.9491C61.5954 67.167 63.828 64.5555 64.4516 60.7456C64.9008 58.0042 66.2824 55.9439 68.9067 54.7259C65.0241 54.7312 59.979 56.1745 57.1152 58.7047C55.1761 60.4187 54.54 62.5181 54.1422 64.8653C53.6221 67.9336 53.1095 71.0301 51.1564 73.5928C49.7763 75.4029 48.3051 77.1472 46.8142 78.8686C43.3621 82.8539 42.0658 87.5841 41.9253 92.727C41.8941 93.866 41.939 95.0072 41.9038 96.1462C41.8797 96.9291 41.7335 97.6923 40.816 97.9414C39.9024 98.1894 39.378 97.6112 38.9571 96.9528C37.6983 94.9856 37.6979 92.844 38.171 90.6569C38.7832 87.8247 40.1036 85.277 41.3908 82.7164C41.6232 82.2542 41.8791 81.7951 42.037 81.3057C43.3171 77.3452 45.1428 73.6328 47.1232 69.9873C47.7206 68.8884 48.0739 67.7093 48.2217 66.2727C46.6454 67.8296 45.3801 69.5229 43.2537 70.1855C47.9561 63.2125 48.515 59.142 48.5395 51.1529C48.052 52.2008 47.9514 55.736 47.6192 57.2809C46.6608 61.7362 43.5882 68.5181 38.1651 68.0798C35.6689 67.8784 33.2545 68.16 31.2757 69.9551C31.1858 70.0363 31.0421 70.059 30.9137 70.1132C30.64 68.8497 31.086 67.8071 32.1805 67.1012C32.9123 66.6292 33.7325 66.3509 34.5451 66.0598C35.3679 65.7652 35.9694 65.2694 36.2508 64.3946C36.5075 63.5967 36.3303 63.2068 35.4347 63.2264C32.4835 63.2892 31.002 59.9058 32.1629 57.2683C32.2408 57.0908 32.4131 56.9553 32.5265 56.8191C33.0532 56.8472 33.1616 57.2728 33.3596 57.5661C34.027 58.5525 34.8555 59.3667 35.8315 60.0445C38.4757 61.883 41.0616 61.3623 42.845 58.6446C44.1401 56.6709 44.809 54.4482 45.27 52.1854C46.1591 47.8199 47.654 43.7286 50.5529 40.2987C54.5374 35.5836 51.4536 29.0235 46.4496 27.5653C44.8883 27.1106 43.3011 26.7933 41.7232 26.4285C39.6845 25.9576 38.1935 24.8034 37.0448 23.094C35.6404 21.0024 34.5627 18.1422 33.1559 15.8124C32.673 15.0129 32.1398 14.2416 31.5681 13.503C31.2658 13.1127 30.9431 12.6827 30.4704 12.4936C30.0161 12.3118 29.3929 12.2873 28.9016 12.2715C28.3092 12.2525 27.7703 12.2436 27.1866 12.1021C26.5511 11.948 25.8517 11.6512 25.3042 11.2925C25.0022 11.0945 24.7185 10.8582 24.4774 10.5888C24.2792 10.3673 23.9361 10.0103 24.0104 9.68278C24.128 9.1643 24.9036 9.46839 25.2004 9.58945C25.8004 9.83381 26.3973 10.1393 27.0269 10.3021C27.269 10.3646 28.5698 10.5995 28.857 10.5234V10.5225Z" fill="black"></path><path d="M51.9875 8.38475C56.384 7.71768 61.011 10.8648 62.0081 15.1991C62.1066 15.6313 62.1911 16.0736 61.8684 16.7355C61.3746 13.7916 60.071 11.5744 57.5647 10.2228C55.8398 9.29254 53.9643 9.02308 52.0436 9.27067C49.4561 9.60411 47.3745 10.8674 45.812 12.9595C44.2754 15.0168 43.917 17.3792 44.0581 19.8858C43.4558 18.4332 43.6621 16.9743 43.9541 15.428C45.2093 11.3719 47.8498 9.01255 51.9873 8.38475H51.9875Z" fill="black"></path></svg> 