<?xml version="1.0" encoding="UTF-8"?> <svg xmlns="http://www.w3.org/2000/svg" width="1785" height="1260" viewBox="0 0 1785 1260" fill="none"><g clip-path="url(#clip0_2089_12200)"><rect width="1260" height="1785" transform="matrix(0 1 -1 0 1785 0)" fill="white"></rect><path d="M578.337 315.335C705.718 187.955 897.328 149.936 1063.69 219.032C1230.06 288.129 1338.35 450.71 1338.01 630.853C1337.54 875.96 1138.96 1074.54 893.855 1075.01C713.712 1075.35 551.131 967.056 482.034 800.691C412.938 634.326 450.957 442.716 578.337 315.335ZM1059.75 228.533C897.226 161.035 710.045 198.171 585.609 322.607C461.173 447.043 424.037 634.224 491.535 796.743C559.035 959.263 717.855 1065.06 893.835 1064.72C1133.28 1064.26 1327.27 870.275 1327.72 630.833C1328.06 454.853 1222.27 296.033 1059.75 228.533Z" fill="black"></path><path d="M539.454 276.454C682.573 133.335 897.863 90.6247 1084.78 168.258C1271.7 245.892 1393.38 428.562 1393 630.964C1392.47 906.353 1169.35 1129.47 893.964 1130C691.562 1130.38 508.892 1008.7 431.258 821.783C353.625 634.863 396.335 419.573 539.454 276.454ZM1080.84 177.76C897.761 101.724 686.911 143.561 546.736 283.736C406.561 423.911 364.724 634.761 440.76 817.836C516.797 1000.91 695.706 1120.09 893.944 1119.71C1163.67 1119.2 1382.2 900.668 1382.71 630.944C1383.09 432.706 1263.91 253.797 1080.84 177.76Z" fill="black"></path><path d="M759.615 651.978V639.171H767.455C775.294 639.171 780.798 633.936 780.798 626.204C780.798 618.472 775.455 613.236 767.75 613.236H752.688V651.978H759.615ZM765.898 633.587H759.615V618.901H765.924C770.891 618.901 773.764 621.559 773.764 626.204C773.764 630.902 770.864 633.587 765.898 633.587ZM794.249 652.434C797.9 652.434 801.471 650.528 803.108 647.44H803.243V651.978H809.686V632.379C809.686 626.66 805.095 622.928 798.034 622.928C790.785 622.928 786.248 626.741 785.953 632.057H792.155C792.584 629.694 794.598 628.164 797.766 628.164C801.068 628.164 803.082 629.882 803.082 632.862V634.902L795.564 635.332C788.638 635.762 784.745 638.795 784.745 643.843C784.745 648.971 788.745 652.434 794.249 652.434ZM796.262 647.387C793.363 647.387 791.43 645.91 791.43 643.574C791.43 641.319 793.282 639.869 796.504 639.654L803.082 639.252V641.426C803.082 644.863 800.048 647.387 796.262 647.387ZM827.996 652.541C834.95 652.541 839.675 648.595 840.48 642.635H834.144C833.393 645.48 831.272 647.145 828.05 647.145C823.835 647.145 821.123 643.628 821.123 637.748C821.123 631.976 823.808 628.352 828.023 628.352C831.352 628.352 833.393 630.338 834.091 632.889H840.427C839.648 627.331 835.111 622.928 827.942 622.928C819.673 622.928 814.384 628.727 814.384 637.748C814.384 646.903 819.673 652.541 827.996 652.541ZM853.367 652.434C857.019 652.434 860.589 650.528 862.227 647.44H862.361V651.978H868.805V632.379C868.805 626.66 864.214 622.928 857.153 622.928C849.904 622.928 845.367 626.741 845.071 632.057H851.273C851.703 629.694 853.716 628.164 856.884 628.164C860.187 628.164 862.2 629.882 862.2 632.862V634.902L854.683 635.332C847.756 635.762 843.863 638.795 843.863 643.843C843.863 648.971 847.863 652.434 853.367 652.434ZM855.381 647.387C852.481 647.387 850.548 645.91 850.548 643.574C850.548 641.319 852.401 639.869 855.622 639.654L862.2 639.252V641.426C862.2 644.863 859.166 647.387 855.381 647.387ZM887.115 652.541C894.068 652.541 898.793 648.595 899.599 642.635H893.263C892.511 645.48 890.39 647.145 887.168 647.145C882.953 647.145 880.242 643.628 880.242 637.748C880.242 631.976 882.927 628.352 887.142 628.352C890.471 628.352 892.511 630.338 893.209 632.889H899.545C898.767 627.331 894.229 622.928 887.061 622.928C878.792 622.928 873.503 628.727 873.503 637.748C873.503 646.903 878.792 652.541 887.115 652.541ZM917.614 651.978V628.674H926.366V623.519H902.23V628.674H910.982V651.978H917.614ZM935.575 651.978L941.481 641.775H941.616L947.522 651.978H954.825L945.777 637.587L954.932 623.519H947.603L941.938 633.506H941.803L936.058 623.519H928.541L937.642 637.775L928.46 651.978H935.575ZM967.228 652.434C970.879 652.434 974.45 650.528 976.088 647.44H976.222V651.978H982.666V632.379C982.666 626.66 978.075 622.928 971.014 622.928C963.765 622.928 959.228 626.741 958.932 632.057H965.134C965.564 629.694 967.577 628.164 970.745 628.164C974.047 628.164 976.061 629.882 976.061 632.862V634.902L968.544 635.332C961.617 635.762 957.724 638.795 957.724 643.843C957.724 648.971 961.724 652.434 967.228 652.434ZM969.242 647.387C966.342 647.387 964.409 645.91 964.409 643.574C964.409 641.319 966.262 639.869 969.483 639.654L976.061 639.252V641.426C976.061 644.863 973.027 647.387 969.242 647.387ZM988.545 652.273C995.23 652.273 997.378 646.957 997.915 638.715L998.586 628.674H1006.69V651.978H1013.35V623.519H992.814L991.901 638.366C991.633 643.091 990.72 646.42 987.955 646.42C987.203 646.42 986.639 646.286 986.371 646.205V651.951C986.72 652.085 987.498 652.273 988.545 652.273ZM1025.86 651.978L1038.24 632.835H1038.46V651.978H1045.01V623.519H1038.46L1026.08 642.527H1025.86V623.519H1019.31V651.978H1025.86Z" fill="black"></path></g><defs><clipPath id="clip0_2089_12200"><rect width="1260" height="1785" fill="white" transform="matrix(0 1 -1 0 1785 0)"></rect></clipPath></defs></svg> 