<?xml version="1.0" encoding="UTF-8"?> <svg xmlns="http://www.w3.org/2000/svg" xmlns:xlink="http://www.w3.org/1999/xlink" width="699px" height="816px" viewBox="0 0 699 816"> <!-- Generator: Sketch 51.2 (57519) - http://www.bohemiancoding.com/sketch --> <title>Group 3</title> <desc>Created with Sketch.</desc> <defs> <radialGradient cx="50%" cy="50%" fx="50%" fy="50%" r="50%" id="radialGradient-1"> <stop stop-color="#54C7FD" offset="0%"></stop> <stop stop-color="#2A96FB" offset="100%"></stop> </radialGradient> <linearGradient x1="50%" y1="0%" x2="50%" y2="100%" id="linearGradient-2"> <stop stop-color="#FFF40C" offset="0%"></stop> <stop stop-color="#FEE605" offset="100%"></stop> </linearGradient> <linearGradient x1="50%" y1="0%" x2="50%" y2="100%" id="linearGradient-3"> <stop stop-color="#F21805" offset="0%"></stop> <stop stop-color="#E00A02" offset="100%"></stop> </linearGradient> </defs> <g id="Page-1" stroke="none" stroke-width="1" fill="none" fill-rule="evenodd"> <g id="Artboard-Copy-16" transform="translate(-191.000000, -542.000000)"> <g id="Group-3" transform="translate(191.000000, 542.000000)"> <path d="M183.746825,815.869548 L177.805794,815.869548 L177.805794,794.358155 L177.629109,794.358155 L168.971546,815.560349 L164.775279,815.560349 L156.117716,794.358155 L155.941031,794.358155 L155.941031,815.869548 L150,815.869548 L150,784 L157.729967,784 L166.78507,806.593588 L166.961755,806.593588 L176.016859,784 L183.746825,784 L183.746825,815.869548 Z M224.995399,815.869548 L222.565981,808.139581 L211.368572,808.139581 L208.939154,815.869548 L202.092612,815.869548 L213.157507,784 L220.997902,784 L232.084882,815.869548 L224.995399,815.869548 Z M216.889977,790.095631 L212.804137,803.148231 L221.130416,803.148231 L217.044576,790.095631 L216.889977,790.095631 Z M278.10395,815.869548 L271.434093,815.869548 L271.434093,802.441492 L257.078441,802.441492 L257.078441,815.869548 L250.408584,815.869548 L250.408584,784 L257.078441,784 L257.078441,796.942172 L271.434093,796.942172 L271.434093,784 L278.10395,784 L278.10395,815.869548 Z M319.352523,815.869548 L316.923105,808.139581 L305.725697,808.139581 L303.296279,815.869548 L296.449737,815.869548 L307.514632,784 L315.355026,784 L326.442007,815.869548 L319.352523,815.869548 Z M311.247101,790.095631 L307.161262,803.148231 L315.48754,803.148231 L311.401701,790.095631 L311.247101,790.095631 Z M358.878419,815.869548 L344.765708,815.869548 L344.765708,784 L358.635477,784 C364.62068,784 368.375235,787.069901 368.375235,791.950823 C368.375235,795.44035 365.769132,798.355652 362.390032,798.863621 L362.390032,799.040306 C366.718813,799.371591 369.899142,802.529834 369.899142,806.748187 C369.899142,812.357934 365.680789,815.869548 358.878419,815.869548 Z M351.435565,788.969264 L351.435565,797.251371 L356.228144,797.251371 C359.783929,797.251371 361.815806,795.683292 361.815806,792.988847 C361.815806,790.426915 360.026871,788.969264 356.912799,788.969264 L351.435565,788.969264 Z M351.435565,810.900283 L357.177826,810.900283 C361.020724,810.900283 363.096772,809.265948 363.096772,806.218132 C363.096772,803.236574 360.954467,801.646409 357.023227,801.646409 L351.435565,801.646409 L351.435565,810.900283 Z M416.47035,815.869548 L409.800493,815.869548 L409.800493,802.441492 L395.444841,802.441492 L395.444841,815.869548 L388.774984,815.869548 L388.774984,784 L395.444841,784 L395.444841,796.942172 L409.800493,796.942172 L409.800493,784 L416.47035,784 L416.47035,815.869548 Z M457.718924,815.869548 L455.289506,808.139581 L444.092097,808.139581 L441.662679,815.869548 L434.816137,815.869548 L445.881032,784 L453.721427,784 L464.808407,815.869548 L457.718924,815.869548 Z M449.613502,790.095631 L445.527662,803.148231 L453.85394,803.148231 L449.768101,790.095631 L449.613502,790.095631 Z M496.427651,815.869548 L488.388486,815.869548 L477.676961,784 L485.1419,784 L492.430154,809.00092 L492.584754,809.00092 L499.873008,784 L507.139176,784 L496.427651,815.869548 Z M542.910516,815.869548 L540.481098,808.139581 L529.28369,808.139581 L526.854272,815.869548 L520.00773,815.869548 L531.072625,784 L538.913019,784 L550,815.869548 L542.910516,815.869548 Z M534.805094,790.095631 L530.719255,803.148231 L539.045533,803.148231 L534.959694,790.095631 L534.805094,790.095631 Z" id="MAHABHAVA" fill="#919195"></path> <g id="Group-2"> <circle id="Oval" fill="#1834E6" cx="349.174083" cy="349.174083" r="349.174083"></circle> <circle id="Oval" fill="url(#radialGradient-1)" cx="348.889156" cy="348.92" r="292.995735"></circle> <circle id="Oval" fill="url(#linearGradient-2)" cx="348.889156" cy="343.751457" r="222.912699"></circle> <path d="M336.005252,273.759484 C329.623518,272.101261 323.514973,269.52213 317.869085,266.102872 C307.984375,272.083636 296.79688,275.438269 285.237791,275.89652 L283.284349,275.974364 L283.284349,260.377672 L285.071822,260.291015 C291.810463,259.966421 298.393415,258.362542 304.506367,255.557223 C298.594634,249.585272 293.797686,242.436849 293.797686,233.672798 C293.797686,220.227829 304.697305,209.328211 318.142273,209.328211 C331.587241,209.328211 342.488329,220.227829 342.488329,233.672798 C342.488329,243.059601 337.481349,249.486865 331.255303,255.567504 C337.353567,258.362542 343.907145,259.957608 350.613473,260.289546 L350.613473,225.951561 L343.779363,225.951561 L343.779363,209.328211 L351.208318,209.328211 C352.989916,197.537059 363.177189,188.656976 375.278248,188.656976 C387.385182,188.656976 397.57833,197.54734 399.349647,209.348773 C401.423527,209.429555 402.91578,209.807024 404.781097,211.518122 C406.508351,213.101438 407.438072,215.301631 407.438072,217.639886 C407.438072,221.341145 404.873628,224.70459 401.306027,225.676904 C400.815463,225.810561 400.317556,225.892811 399.816711,225.938343 C399.816711,256.053662 399.816711,286.17045 399.816711,316.285769 L399.816711,318.162836 L383.190422,318.162836 L383.190422,225.951561 L367.236823,225.951561 L367.236823,318.162836 L350.613473,318.162836 L350.613473,280.902031 C335.381031,301.47486 311.308164,313.768326 285.394948,313.768326 L283.516412,313.768326 L283.516412,297.851445 L285.394948,297.851445 C305.154087,297.851445 323.638348,288.975769 336.005252,273.759484 Z M499.76244,362.842313 L499.76244,480.599615 L472.722691,480.599615 L472.722691,362.96422 L452.782895,362.96422 L452.782895,480.599615 L425.746083,480.599615 L425.746083,449.133043 C413.439398,456.538497 395.56467,468.621931 382.404639,468.621931 C370.707488,468.621931 360.161838,463.3447 353.382073,453.784585 C343.689769,440.114897 344.388896,421.878855 355.35314,409.291639 C348.482311,403.426906 344.491709,394.862606 344.491709,385.735772 C344.491709,376.976127 348.173873,368.764327 354.46895,362.96422 L309.466347,362.96422 L309.466347,480.599615 L282.428066,480.599615 L282.428066,362.96422 L263.509054,362.96422 L263.509054,387.310276 C263.63096,388.964092 263.608929,390.800034 263.608929,392.462662 C263.608929,416.683874 245.021855,429.720529 222.920054,425.08955 C232.84589,443.569405 251.14215,456.366653 272.135042,459.111753 L273.769765,459.324722 L273.769765,480.515896 L271.698823,480.301458 C236.773336,476.688325 207.380644,452.145456 197.52384,418.500722 C190.967325,396.112515 200.98716,392.643319 221.101738,396.814579 C225.597592,397.745768 233.310016,399.304116 235.657084,393.971072 C236.084491,392.998757 236.310679,391.92363 236.422304,390.869065 L236.470773,381.479325 L236.470773,362.96422 L187.376223,362.96422 L187.376223,337.592974 L404.900066,337.592974 L404.900066,362.96422 L403.022999,362.96422 C391.606379,362.96422 367.420417,371.892772 367.420417,385.735772 C367.420417,390.178751 371.021801,393.778666 375.463311,393.778666 C376.895345,393.778666 378.290661,393.404133 379.524414,392.680038 C379.583164,392.644788 379.643383,392.613944 379.703602,392.584569 L398.453708,381.759857 L409.645608,401.141526 L401.811278,405.879725 C392.611007,411.443362 369.05514,420.101663 369.05514,432.790224 C369.05514,440.161897 375.031497,446.138255 382.404639,446.138255 C383.786736,446.138255 385.158552,445.926754 386.474555,445.506691 C392.656538,443.531217 401.723153,437.785454 407.386666,434.375009 C409.636796,433.020818 411.875176,431.653409 414.113556,430.280124 C417.97344,427.913963 421.833324,425.487582 425.746083,423.203671 L425.746083,362.96422 L413.551023,362.96422 L413.551023,337.592974 L496.726527,337.592974 C498.00728,337.592974 499.346783,337.617943 500.606973,337.850006 C513.160408,340.167699 513.75966,359.07643 501.761413,362.442812 C501.131318,362.620531 500.448348,362.752719 499.76244,362.842313 Z M383.325548,209.328211 C381.918482,206.236485 378.79885,204.147918 375.266498,204.147918 C371.734146,204.147918 368.615983,206.236485 367.207448,209.328211 L383.325548,209.328211 Z M318.131992,247.477611 C322.30472,243.597164 326.984168,239.865062 326.984168,233.672798 C326.984168,228.781849 323.022941,224.820621 318.131992,224.820621 C313.241043,224.820621 309.279815,228.781849 309.279815,233.672798 C309.279815,239.8445 313.968076,243.605977 318.131992,247.477611 Z" id="Shape" fill="url(#linearGradient-3)"></path> <g id="Group" transform="translate(251.000000, 23.000000)" fill="#FFFFFF" fill-rule="nonzero"> <path d="M9.26770636,38.5813966 C3.23438163,33.3778778 1.76420816,24.0749271 1.76420816,24.0749271 C1.76420816,24.0749271 6.07382734,22.5174954 11.2132525,22.5174954 C14.2330414,22.5174954 17.5399014,23.0552563 20.426529,24.7640398 C26.3096389,28.2481164 28.7650915,35.5913096 29.6173515,38.9919651 C29.614225,39.000634 29.6110985,39.009303 29.6088246,39.0155561 C28.9602145,38.7425543 28.1559891,38.4287657 27.229119,38.1141244 L14.2097346,31.4429903 L22.1749625,36.8404952 C20.8436348,36.6186546 19.4386918,36.4745506 17.9933884,36.4745506 C15.3882893,36.4745506 12.9776028,36.9288903 10.8313911,37.822932 C10.289651,38.049036 9.77107557,38.3051262 9.26770636,38.5813966 Z M13.3500846,48.9392625 L20.247607,46.5477614 C18.1139014,49.0320632 16.2205113,52.1374049 15.528272,55.7824972 C15.4290762,56.3041992 15.3713777,56.8224904 15.3224904,57.3399289 C14.3141887,57.5104662 13.3010551,57.5894818 12.3035542,57.5894818 C5.83919646,57.5894818 0,54.4992042 0,54.4992042 C0,54.4992042 3.35475252,43.4446934 11.7211694,39.959622 C13.7585214,39.1096358 15.9091386,38.7895942 17.9923936,38.7895942 C21.523368,38.7895942 24.8590772,39.7110639 27.1664466,40.5475493 C25.9139924,41.3612963 23.9576455,42.7737714 21.9809763,44.7078062 L13.3500846,48.9392625 Z M26.195521,59.7921129 L29.5427415,46.6127077 C30.0708386,50.5607878 31.4990883,55.9403863 35.2222013,59.919021 C33.3192895,68.5968105 23.4979055,74 23.4979055,74 C23.4979055,74 16.109662,65.1182763 17.8013918,56.2143829 C19.1317247,49.2135433 25.658897,44.2989431 28.3971573,42.5101492 L26.195521,59.7921129 Z M49.696553,45.9567076 C56.4032157,52.0498625 55.8484011,63.58742 55.8484011,63.58742 C55.8484011,63.58742 54.4286782,63.7934859 52.2962517,63.7934859 C48.3768786,63.7934859 42.0512246,63.0978359 37.7066453,59.1510348 C32.8197574,54.7101019 31.7946862,47.3977476 31.5941628,43.7462602 C32.0497816,43.9277403 32.6462357,44.1411961 33.3116153,44.3640315 L45.1439182,53.8632422 L36.8339207,45.3336781 C38.6676228,45.7389883 40.7413562,46.05164 42.9303443,46.05164 C45.0126045,46.05164 46.9540293,45.7615845 48.7492184,45.2195602 C49.0674125,45.46286 49.3956968,45.6847006 49.696553,45.9567076 Z M48.0132079,33.3885364 L38.0990231,37.2895767 C40.3627634,34.6323216 42.4266908,30.9104876 42.6209612,26.0783138 C44.8631001,25.0639012 47.2612806,24.6863032 49.5665183,24.6851663 C55.6831221,24.6851663 61.1222665,27.2825912 61.1222665,27.2825912 C61.1222665,27.2825912 58.2251223,38.4671366 50.0092046,42.2924299 C47.7305424,43.3537402 45.2804901,43.7378755 42.9304864,43.7378755 C38.8140007,43.7378755 35.0474006,42.5718268 32.9938475,41.8007141 C33.3970261,41.5339653 33.9144646,41.1714315 34.5127662,40.7084228 L48.0132079,33.3885364 Z M30.6876151,34.6559126 C29.3029945,30.9734443 26.822814,26.3824386 22.6069903,23.4455024 C23.7304046,15.3095951 31.3703326,9 31.3703326,9 C47.058057,23.0883689 38.3977476,35.161982 31.8630433,39.6873308 L31.9589705,34.7484291 L31.9930779,33.631552 C31.9930779,33.6326889 31.9920831,33.6338259 31.9920831,33.6338259 L31.3703326,23.4615613 L30.6876151,34.6559126 Z" id="Combined-Shape"></path> <path d="M76.2677064,29.5813966 C70.2343816,24.3778778 68.7642082,15.0749271 68.7642082,15.0749271 C68.7642082,15.0749271 73.0738273,13.5174954 78.2132525,13.5174954 C81.2330414,13.5174954 84.5399014,14.0552563 87.426529,15.7640398 C93.3096389,19.2481164 95.7650915,26.5913096 96.6173515,29.9919651 C96.614225,30.000634 96.6110985,30.009303 96.6088246,30.0155561 C95.9602145,29.7425543 95.1559891,29.4287657 94.229119,29.1141244 L81.2097346,22.4429903 L89.1749625,27.8404952 C87.8436348,27.6186546 86.4386918,27.4745506 84.9933884,27.4745506 C82.3882893,27.4745506 79.9776028,27.9288903 77.8313911,28.822932 C77.289651,29.049036 76.7710756,29.3051262 76.2677064,29.5813966 Z M80.3500846,39.9392625 L87.247607,37.5477614 C85.1139014,40.0320632 83.2205113,43.1374049 82.528272,46.7824972 C82.4290762,47.3041992 82.3713777,47.8224904 82.3224904,48.3399289 C81.3141887,48.5104662 80.3010551,48.5894818 79.3035542,48.5894818 C72.8391965,48.5894818 67,45.4992042 67,45.4992042 C67,45.4992042 70.3547525,34.4446934 78.7211694,30.959622 C80.7585214,30.1096358 82.9091386,29.7895942 84.9923936,29.7895942 C88.523368,29.7895942 91.8590772,30.7110639 94.1664466,31.5475493 C92.9139924,32.3612963 90.9576455,33.7737714 88.9809763,35.7078062 L80.3500846,39.9392625 Z M93.195521,50.7921129 L96.5427415,37.6127077 C97.0708386,41.5607878 98.4990883,46.9403863 102.222201,50.919021 C100.31929,59.5968105 90.4979055,65 90.4979055,65 C90.4979055,65 83.109662,56.1182763 84.8013918,47.2143829 C86.1317247,40.2135433 92.658897,35.2989431 95.3971573,33.5101492 L93.195521,50.7921129 Z M116.696553,36.9567076 C123.403216,43.0498625 122.848401,54.58742 122.848401,54.58742 C122.848401,54.58742 121.428678,54.7934859 119.296252,54.7934859 C115.376879,54.7934859 109.051225,54.0978359 104.706645,50.1510348 C99.8197574,45.7101019 98.7946862,38.3977476 98.5941628,34.7462602 C99.0497816,34.9277403 99.6462357,35.1411961 100.311615,35.3640315 L112.143918,44.8632422 L103.833921,36.3336781 C105.667623,36.7389883 107.741356,37.05164 109.930344,37.05164 C112.012604,37.05164 113.954029,36.7615845 115.749218,36.2195602 C116.067413,36.46286 116.395697,36.6847006 116.696553,36.9567076 Z M115.013208,24.3885364 L105.099023,28.2895767 C107.362763,25.6323216 109.426691,21.9104876 109.620961,17.0783138 C111.8631,16.0639012 114.261281,15.6863032 116.566518,15.6851663 C122.683122,15.6851663 128.122266,18.2825912 128.122266,18.2825912 C128.122266,18.2825912 125.225122,29.4671366 117.009205,33.2924299 C114.730542,34.3537402 112.28049,34.7378755 109.930486,34.7378755 C105.814001,34.7378755 102.047401,33.5718268 99.9938475,32.8007141 C100.397026,32.5339653 100.914465,32.1714315 101.512766,31.7084228 L115.013208,24.3885364 Z M97.6876151,25.6559126 C96.3029945,21.9734443 93.822814,17.3824386 89.6069903,14.4455024 C90.7304046,6.30959513 98.3703326,0 98.3703326,0 C114.058057,14.0883689 105.397748,26.161982 98.8630433,30.6873308 L98.9589705,25.7484291 L98.9930779,24.631552 C98.9930779,24.6326889 98.9920831,24.6338259 98.9920831,24.6338259 L98.3703326,14.4615613 L97.6876151,25.6559126 Z" id="Combined-Shape"></path> <path d="M143.267706,38.5813966 C137.234382,33.3778778 135.764208,24.0749271 135.764208,24.0749271 C135.764208,24.0749271 140.073827,22.5174954 145.213252,22.5174954 C148.233041,22.5174954 151.539901,23.0552563 154.426529,24.7640398 C160.309639,28.2481164 162.765091,35.5913096 163.617352,38.9919651 C163.614225,39.000634 163.611098,39.009303 163.608825,39.0155561 C162.960215,38.7425543 162.155989,38.4287657 161.229119,38.1141244 L148.209735,31.4429903 L156.174963,36.8404952 C154.843635,36.6186546 153.438692,36.4745506 151.993388,36.4745506 C149.388289,36.4745506 146.977603,36.9288903 144.831391,37.822932 C144.289651,38.049036 143.771076,38.3051262 143.267706,38.5813966 Z M147.350085,48.9392625 L154.247607,46.5477614 C152.113901,49.0320632 150.220511,52.1374049 149.528272,55.7824972 C149.429076,56.3041992 149.371378,56.8224904 149.32249,57.3399289 C148.314189,57.5104662 147.301055,57.5894818 146.303554,57.5894818 C139.839196,57.5894818 134,54.4992042 134,54.4992042 C134,54.4992042 137.354753,43.4446934 145.721169,39.959622 C147.758521,39.1096358 149.909139,38.7895942 151.992394,38.7895942 C155.523368,38.7895942 158.859077,39.7110639 161.166447,40.5475493 C159.913992,41.3612963 157.957646,42.7737714 155.980976,44.7078062 L147.350085,48.9392625 Z M160.195521,59.7921129 L163.542741,46.6127077 C164.070839,50.5607878 165.499088,55.9403863 169.222201,59.919021 C167.31929,68.5968105 157.497905,74 157.497905,74 C157.497905,74 150.109662,65.1182763 151.801392,56.2143829 C153.131725,49.2135433 159.658897,44.2989431 162.397157,42.5101492 L160.195521,59.7921129 Z M183.696553,45.9567076 C190.403216,52.0498625 189.848401,63.58742 189.848401,63.58742 C189.848401,63.58742 188.428678,63.7934859 186.296252,63.7934859 C182.376879,63.7934859 176.051225,63.0978359 171.706645,59.1510348 C166.819757,54.7101019 165.794686,47.3977476 165.594163,43.7462602 C166.049782,43.9277403 166.646236,44.1411961 167.311615,44.3640315 L179.143918,53.8632422 L170.833921,45.3336781 C172.667623,45.7389883 174.741356,46.05164 176.930344,46.05164 C179.012604,46.05164 180.954029,45.7615845 182.749218,45.2195602 C183.067413,45.46286 183.395697,45.6847006 183.696553,45.9567076 Z M182.013208,33.3885364 L172.099023,37.2895767 C174.362763,34.6323216 176.426691,30.9104876 176.620961,26.0783138 C178.8631,25.0639012 181.261281,24.6863032 183.566518,24.6851663 C189.683122,24.6851663 195.122266,27.2825912 195.122266,27.2825912 C195.122266,27.2825912 192.225122,38.4671366 184.009205,42.2924299 C181.730542,43.3537402 179.28049,43.7378755 176.930486,43.7378755 C172.814001,43.7378755 169.047401,42.5718268 166.993848,41.8007141 C167.397026,41.5339653 167.914465,41.1714315 168.512766,40.7084228 L182.013208,33.3885364 Z M164.687615,34.6559126 C163.302994,30.9734443 160.822814,26.3824386 156.60699,23.4455024 C157.730405,15.3095951 165.370333,9 165.370333,9 C181.058057,23.0883689 172.397748,35.161982 165.863043,39.6873308 L165.95897,34.7484291 L165.993078,33.631552 C165.993078,33.6326889 165.992083,33.6338259 165.992083,33.6338259 L165.370333,23.4615613 L164.687615,34.6559126 Z" id="Combined-Shape"></path> </g> <g id="Group" transform="translate(349.000000, 638.000000) scale(1, -1) translate(-349.000000, -638.000000) translate(251.000000, 601.000000)" fill="#FFFFFF" fill-rule="nonzero"> <path d="M9.26770636,38.5813966 C3.23438163,33.3778778 1.76420816,24.0749271 1.76420816,24.0749271 C1.76420816,24.0749271 6.07382734,22.5174954 11.2132525,22.5174954 C14.2330414,22.5174954 17.5399014,23.0552563 20.426529,24.7640398 C26.3096389,28.2481164 28.7650915,35.5913096 29.6173515,38.9919651 C29.614225,39.000634 29.6110985,39.009303 29.6088246,39.0155561 C28.9602145,38.7425543 28.1559891,38.4287657 27.229119,38.1141244 L14.2097346,31.4429903 L22.1749625,36.8404952 C20.8436348,36.6186546 19.4386918,36.4745506 17.9933884,36.4745506 C15.3882893,36.4745506 12.9776028,36.9288903 10.8313911,37.822932 C10.289651,38.049036 9.77107557,38.3051262 9.26770636,38.5813966 Z M13.3500846,48.9392625 L20.247607,46.5477614 C18.1139014,49.0320632 16.2205113,52.1374049 15.528272,55.7824972 C15.4290762,56.3041992 15.3713777,56.8224904 15.3224904,57.3399289 C14.3141887,57.5104662 13.3010551,57.5894818 12.3035542,57.5894818 C5.83919646,57.5894818 0,54.4992042 0,54.4992042 C0,54.4992042 3.35475252,43.4446934 11.7211694,39.959622 C13.7585214,39.1096358 15.9091386,38.7895942 17.9923936,38.7895942 C21.523368,38.7895942 24.8590772,39.7110639 27.1664466,40.5475493 C25.9139924,41.3612963 23.9576455,42.7737714 21.9809763,44.7078062 L13.3500846,48.9392625 Z M26.195521,59.7921129 L29.5427415,46.6127077 C30.0708386,50.5607878 31.4990883,55.9403863 35.2222013,59.919021 C33.3192895,68.5968105 23.4979055,74 23.4979055,74 C23.4979055,74 16.109662,65.1182763 17.8013918,56.2143829 C19.1317247,49.2135433 25.658897,44.2989431 28.3971573,42.5101492 L26.195521,59.7921129 Z M49.696553,45.9567076 C56.4032157,52.0498625 55.8484011,63.58742 55.8484011,63.58742 C55.8484011,63.58742 54.4286782,63.7934859 52.2962517,63.7934859 C48.3768786,63.7934859 42.0512246,63.0978359 37.7066453,59.1510348 C32.8197574,54.7101019 31.7946862,47.3977476 31.5941628,43.7462602 C32.0497816,43.9277403 32.6462357,44.1411961 33.3116153,44.3640315 L45.1439182,53.8632422 L36.8339207,45.3336781 C38.6676228,45.7389883 40.7413562,46.05164 42.9303443,46.05164 C45.0126045,46.05164 46.9540293,45.7615845 48.7492184,45.2195602 C49.0674125,45.46286 49.3956968,45.6847006 49.696553,45.9567076 Z M48.0132079,33.3885364 L38.0990231,37.2895767 C40.3627634,34.6323216 42.4266908,30.9104876 42.6209612,26.0783138 C44.8631001,25.0639012 47.2612806,24.6863032 49.5665183,24.6851663 C55.6831221,24.6851663 61.1222665,27.2825912 61.1222665,27.2825912 C61.1222665,27.2825912 58.2251223,38.4671366 50.0092046,42.2924299 C47.7305424,43.3537402 45.2804901,43.7378755 42.9304864,43.7378755 C38.8140007,43.7378755 35.0474006,42.5718268 32.9938475,41.8007141 C33.3970261,41.5339653 33.9144646,41.1714315 34.5127662,40.7084228 L48.0132079,33.3885364 Z M30.6876151,34.6559126 C29.3029945,30.9734443 26.822814,26.3824386 22.6069903,23.4455024 C23.7304046,15.3095951 31.3703326,9 31.3703326,9 C47.058057,23.0883689 38.3977476,35.161982 31.8630433,39.6873308 L31.9589705,34.7484291 L31.9930779,33.631552 C31.9930779,33.6326889 31.9920831,33.6338259 31.9920831,33.6338259 L31.3703326,23.4615613 L30.6876151,34.6559126 Z" id="Combined-Shape"></path> <path d="M76.2677064,29.5813966 C70.2343816,24.3778778 68.7642082,15.0749271 68.7642082,15.0749271 C68.7642082,15.0749271 73.0738273,13.5174954 78.2132525,13.5174954 C81.2330414,13.5174954 84.5399014,14.0552563 87.426529,15.7640398 C93.3096389,19.2481164 95.7650915,26.5913096 96.6173515,29.9919651 C96.614225,30.000634 96.6110985,30.009303 96.6088246,30.0155561 C95.9602145,29.7425543 95.1559891,29.4287657 94.229119,29.1141244 L81.2097346,22.4429903 L89.1749625,27.8404952 C87.8436348,27.6186546 86.4386918,27.4745506 84.9933884,27.4745506 C82.3882893,27.4745506 79.9776028,27.9288903 77.8313911,28.822932 C77.289651,29.049036 76.7710756,29.3051262 76.2677064,29.5813966 Z M80.3500846,39.9392625 L87.247607,37.5477614 C85.1139014,40.0320632 83.2205113,43.1374049 82.528272,46.7824972 C82.4290762,47.3041992 82.3713777,47.8224904 82.3224904,48.3399289 C81.3141887,48.5104662 80.3010551,48.5894818 79.3035542,48.5894818 C72.8391965,48.5894818 67,45.4992042 67,45.4992042 C67,45.4992042 70.3547525,34.4446934 78.7211694,30.959622 C80.7585214,30.1096358 82.9091386,29.7895942 84.9923936,29.7895942 C88.523368,29.7895942 91.8590772,30.7110639 94.1664466,31.5475493 C92.9139924,32.3612963 90.9576455,33.7737714 88.9809763,35.7078062 L80.3500846,39.9392625 Z M93.195521,50.7921129 L96.5427415,37.6127077 C97.0708386,41.5607878 98.4990883,46.9403863 102.222201,50.919021 C100.31929,59.5968105 90.4979055,65 90.4979055,65 C90.4979055,65 83.109662,56.1182763 84.8013918,47.2143829 C86.1317247,40.2135433 92.658897,35.2989431 95.3971573,33.5101492 L93.195521,50.7921129 Z M116.696553,36.9567076 C123.403216,43.0498625 122.848401,54.58742 122.848401,54.58742 C122.848401,54.58742 121.428678,54.7934859 119.296252,54.7934859 C115.376879,54.7934859 109.051225,54.0978359 104.706645,50.1510348 C99.8197574,45.7101019 98.7946862,38.3977476 98.5941628,34.7462602 C99.0497816,34.9277403 99.6462357,35.1411961 100.311615,35.3640315 L112.143918,44.8632422 L103.833921,36.3336781 C105.667623,36.7389883 107.741356,37.05164 109.930344,37.05164 C112.012604,37.05164 113.954029,36.7615845 115.749218,36.2195602 C116.067413,36.46286 116.395697,36.6847006 116.696553,36.9567076 Z M115.013208,24.3885364 L105.099023,28.2895767 C107.362763,25.6323216 109.426691,21.9104876 109.620961,17.0783138 C111.8631,16.0639012 114.261281,15.6863032 116.566518,15.6851663 C122.683122,15.6851663 128.122266,18.2825912 128.122266,18.2825912 C128.122266,18.2825912 125.225122,29.4671366 117.009205,33.2924299 C114.730542,34.3537402 112.28049,34.7378755 109.930486,34.7378755 C105.814001,34.7378755 102.047401,33.5718268 99.9938475,32.8007141 C100.397026,32.5339653 100.914465,32.1714315 101.512766,31.7084228 L115.013208,24.3885364 Z M97.6876151,25.6559126 C96.3029945,21.9734443 93.822814,17.3824386 89.6069903,14.4455024 C90.7304046,6.30959513 98.3703326,0 98.3703326,0 C114.058057,14.0883689 105.397748,26.161982 98.8630433,30.6873308 L98.9589705,25.7484291 L98.9930779,24.631552 C98.9930779,24.6326889 98.9920831,24.6338259 98.9920831,24.6338259 L98.3703326,14.4615613 L97.6876151,25.6559126 Z" id="Combined-Shape"></path> <path d="M143.267706,38.5813966 C137.234382,33.3778778 135.764208,24.0749271 135.764208,24.0749271 C135.764208,24.0749271 140.073827,22.5174954 145.213252,22.5174954 C148.233041,22.5174954 151.539901,23.0552563 154.426529,24.7640398 C160.309639,28.2481164 162.765091,35.5913096 163.617352,38.9919651 C163.614225,39.000634 163.611098,39.009303 163.608825,39.0155561 C162.960215,38.7425543 162.155989,38.4287657 161.229119,38.1141244 L148.209735,31.4429903 L156.174963,36.8404952 C154.843635,36.6186546 153.438692,36.4745506 151.993388,36.4745506 C149.388289,36.4745506 146.977603,36.9288903 144.831391,37.822932 C144.289651,38.049036 143.771076,38.3051262 143.267706,38.5813966 Z M147.350085,48.9392625 L154.247607,46.5477614 C152.113901,49.0320632 150.220511,52.1374049 149.528272,55.7824972 C149.429076,56.3041992 149.371378,56.8224904 149.32249,57.3399289 C148.314189,57.5104662 147.301055,57.5894818 146.303554,57.5894818 C139.839196,57.5894818 134,54.4992042 134,54.4992042 C134,54.4992042 137.354753,43.4446934 145.721169,39.959622 C147.758521,39.1096358 149.909139,38.7895942 151.992394,38.7895942 C155.523368,38.7895942 158.859077,39.7110639 161.166447,40.5475493 C159.913992,41.3612963 157.957646,42.7737714 155.980976,44.7078062 L147.350085,48.9392625 Z M160.195521,59.7921129 L163.542741,46.6127077 C164.070839,50.5607878 165.499088,55.9403863 169.222201,59.919021 C167.31929,68.5968105 157.497905,74 157.497905,74 C157.497905,74 150.109662,65.1182763 151.801392,56.2143829 C153.131725,49.2135433 159.658897,44.2989431 162.397157,42.5101492 L160.195521,59.7921129 Z M183.696553,45.9567076 C190.403216,52.0498625 189.848401,63.58742 189.848401,63.58742 C189.848401,63.58742 188.428678,63.7934859 186.296252,63.7934859 C182.376879,63.7934859 176.051225,63.0978359 171.706645,59.1510348 C166.819757,54.7101019 165.794686,47.3977476 165.594163,43.7462602 C166.049782,43.9277403 166.646236,44.1411961 167.311615,44.3640315 L179.143918,53.8632422 L170.833921,45.3336781 C172.667623,45.7389883 174.741356,46.05164 176.930344,46.05164 C179.012604,46.05164 180.954029,45.7615845 182.749218,45.2195602 C183.067413,45.46286 183.395697,45.6847006 183.696553,45.9567076 Z M182.013208,33.3885364 L172.099023,37.2895767 C174.362763,34.6323216 176.426691,30.9104876 176.620961,26.0783138 C178.8631,25.0639012 181.261281,24.6863032 183.566518,24.6851663 C189.683122,24.6851663 195.122266,27.2825912 195.122266,27.2825912 C195.122266,27.2825912 192.225122,38.4671366 184.009205,42.2924299 C181.730542,43.3537402 179.28049,43.7378755 176.930486,43.7378755 C172.814001,43.7378755 169.047401,42.5718268 166.993848,41.8007141 C167.397026,41.5339653 167.914465,41.1714315 168.512766,40.7084228 L182.013208,33.3885364 Z M164.687615,34.6559126 C163.302994,30.9734443 160.822814,26.3824386 156.60699,23.4455024 C157.730405,15.3095951 165.370333,9 165.370333,9 C181.058057,23.0883689 172.397748,35.161982 165.863043,39.6873308 L165.95897,34.7484291 L165.993078,33.631552 C165.993078,33.6326889 165.992083,33.6338259 165.992083,33.6338259 L165.370333,23.4615613 L164.687615,34.6559126 Z" id="Combined-Shape"></path> </g> <path d="M612.206573,278.64253 C606.173248,273.439011 604.703075,264.13606 604.703075,264.13606 C604.703075,264.13606 609.012694,262.578629 614.152119,262.578629 C617.171908,262.578629 620.478768,263.11639 623.365396,264.825173 C629.248506,268.30925 631.703958,275.652443 632.556218,279.053098 C632.553092,279.061767 632.549965,279.070436 632.547691,279.076689 C631.899081,278.803688 631.094856,278.489899 630.167986,278.175258 L617.148601,271.504124 L625.113829,276.901628 C623.782502,276.679788 622.377559,276.535684 620.932255,276.535684 C618.327156,276.535684 615.91647,276.990024 613.770258,277.884065 C613.228518,278.110169 612.709942,278.366259 612.206573,278.64253 Z M616.288951,289.000396 L623.186474,286.608895 C621.052768,289.093196 619.159378,292.198538 618.467139,295.84363 C618.367943,296.365332 618.310244,296.883624 618.261357,297.401062 C617.253055,297.571599 616.239922,297.650615 615.242421,297.650615 C608.778063,297.650615 602.938867,294.560337 602.938867,294.560337 C602.938867,294.560337 606.293619,283.505827 614.660036,280.020755 C616.697388,279.170769 618.848005,278.850727 620.93126,278.850727 C624.462235,278.850727 627.797944,279.772197 630.105313,280.608683 C628.852859,281.42243 626.896512,282.834905 624.919843,284.768939 L616.288951,289.000396 Z M629.134388,299.853246 L632.481608,286.673841 C633.009705,290.621921 634.437955,296.00152 638.161068,299.980154 C636.258156,308.657944 626.436772,314.061133 626.436772,314.061133 C626.436772,314.061133 619.048529,305.17941 620.740259,296.275516 C622.070592,289.274677 628.597764,284.360076 631.336024,282.571282 L629.134388,299.853246 Z M652.63542,286.017841 C659.342082,292.110996 658.787268,303.648553 658.787268,303.648553 C658.787268,303.648553 657.367545,303.854619 655.235118,303.854619 C651.315745,303.854619 644.990091,303.158969 640.645512,299.212168 C635.758624,294.771235 634.733553,287.458881 634.53303,283.807393 C634.988648,283.988874 635.585102,284.202329 636.250482,284.425165 L648.082785,293.924375 L639.772787,285.394811 C641.60649,285.800122 643.680223,286.112773 645.869211,286.112773 C647.951471,286.112773 649.892896,285.822718 651.688085,285.280693 C652.006279,285.523993 652.334564,285.745834 652.63542,286.017841 Z M650.952075,273.44967 L641.03789,277.35071 C643.30163,274.693455 645.365558,270.971621 645.559828,266.139447 C647.801967,265.125034 650.200147,264.747436 652.505385,264.7463 C658.621989,264.7463 664.061133,267.343724 664.061133,267.343724 C664.061133,267.343724 661.163989,278.52827 652.948071,282.353563 C650.669409,283.414873 648.219357,283.799009 645.869353,283.799009 C641.752867,283.799009 637.986267,282.63296 635.932714,281.861847 C636.335893,281.595099 636.853331,281.232565 637.451633,280.769556 L650.952075,273.44967 Z M633.626482,274.717046 C632.241861,271.034578 629.761681,266.443572 625.545857,263.506636 C626.669271,255.370728 634.309199,249.061133 634.309199,249.061133 C649.996924,263.149502 641.336614,275.223115 634.80191,279.748464 L634.897837,274.809562 L634.931945,273.692685 C634.931945,273.693822 634.93095,273.694959 634.93095,273.694959 L634.309199,263.522695 L633.626482,274.717046 Z" id="Combined-Shape" fill="#FFFFFF" fill-rule="nonzero" transform="translate(633.500000, 281.561133) rotate(90.000000) translate(-633.500000, -281.561133) "></path> <path d="M621.206573,345.64253 C615.173248,340.439011 613.703075,331.13606 613.703075,331.13606 C613.703075,331.13606 618.012694,329.578629 623.152119,329.578629 C626.171908,329.578629 629.478768,330.11639 632.365396,331.825173 C638.248506,335.30925 640.703958,342.652443 641.556218,346.053098 C641.553092,346.061767 641.549965,346.070436 641.547691,346.076689 C640.899081,345.803688 640.094856,345.489899 639.167986,345.175258 L626.148601,338.504124 L634.113829,343.901628 C632.782502,343.679788 631.377559,343.535684 629.932255,343.535684 C627.327156,343.535684 624.91647,343.990024 622.770258,344.884065 C622.228518,345.110169 621.709942,345.366259 621.206573,345.64253 Z M625.288951,356.000396 L632.186474,353.608895 C630.052768,356.093196 628.159378,359.198538 627.467139,362.84363 C627.367943,363.365332 627.310244,363.883624 627.261357,364.401062 C626.253055,364.571599 625.239922,364.650615 624.242421,364.650615 C617.778063,364.650615 611.938867,361.560337 611.938867,361.560337 C611.938867,361.560337 615.293619,350.505827 623.660036,347.020755 C625.697388,346.170769 627.848005,345.850727 629.93126,345.850727 C633.462235,345.850727 636.797944,346.772197 639.105313,347.608683 C637.852859,348.42243 635.896512,349.834905 633.919843,351.768939 L625.288951,356.000396 Z M638.134388,366.853246 L641.481608,353.673841 C642.009705,357.621921 643.437955,363.00152 647.161068,366.980154 C645.258156,375.657944 635.436772,381.061133 635.436772,381.061133 C635.436772,381.061133 628.048529,372.17941 629.740259,363.275516 C631.070592,356.274677 637.597764,351.360076 640.336024,349.571282 L638.134388,366.853246 Z M661.63542,353.017841 C668.342082,359.110996 667.787268,370.648553 667.787268,370.648553 C667.787268,370.648553 666.367545,370.854619 664.235118,370.854619 C660.315745,370.854619 653.990091,370.158969 649.645512,366.212168 C644.758624,361.771235 643.733553,354.458881 643.53303,350.807393 C643.988648,350.988874 644.585102,351.202329 645.250482,351.425165 L657.082785,360.924375 L648.772787,352.394811 C650.60649,352.800122 652.680223,353.112773 654.869211,353.112773 C656.951471,353.112773 658.892896,352.822718 660.688085,352.280693 C661.006279,352.523993 661.334564,352.745834 661.63542,353.017841 Z M659.952075,340.44967 L650.03789,344.35071 C652.30163,341.693455 654.365558,337.971621 654.559828,333.139447 C656.801967,332.125034 659.200147,331.747436 661.505385,331.7463 C667.621989,331.7463 673.061133,334.343724 673.061133,334.343724 C673.061133,334.343724 670.163989,345.52827 661.948071,349.353563 C659.669409,350.414873 657.219357,350.799009 654.869353,350.799009 C650.752867,350.799009 646.986267,349.63296 644.932714,348.861847 C645.335893,348.595099 645.853331,348.232565 646.451633,347.769556 L659.952075,340.44967 Z M642.626482,341.717046 C641.241861,338.034578 638.761681,333.443572 634.545857,330.506636 C635.669271,322.370728 643.309199,316.061133 643.309199,316.061133 C658.996924,330.149502 650.336614,342.223115 643.80191,346.748464 L643.897837,341.809562 L643.931945,340.692685 C643.931945,340.693822 643.93095,340.694959 643.93095,340.694959 L643.309199,330.522695 L642.626482,341.717046 Z" id="Combined-Shape" fill="#FFFFFF" fill-rule="nonzero" transform="translate(642.500000, 348.561133) rotate(90.000000) translate(-642.500000, -348.561133) "></path> <path d="M612.206573,412.64253 C606.173248,407.439011 604.703075,398.13606 604.703075,398.13606 C604.703075,398.13606 609.012694,396.578629 614.152119,396.578629 C617.171908,396.578629 620.478768,397.11639 623.365396,398.825173 C629.248506,402.30925 631.703958,409.652443 632.556218,413.053098 C632.553092,413.061767 632.549965,413.070436 632.547691,413.076689 C631.899081,412.803688 631.094856,412.489899 630.167986,412.175258 L617.148601,405.504124 L625.113829,410.901628 C623.782502,410.679788 622.377559,410.535684 620.932255,410.535684 C618.327156,410.535684 615.91647,410.990024 613.770258,411.884065 C613.228518,412.110169 612.709942,412.366259 612.206573,412.64253 Z M616.288951,423.000396 L623.186474,420.608895 C621.052768,423.093196 619.159378,426.198538 618.467139,429.84363 C618.367943,430.365332 618.310244,430.883624 618.261357,431.401062 C617.253055,431.571599 616.239922,431.650615 615.242421,431.650615 C608.778063,431.650615 602.938867,428.560337 602.938867,428.560337 C602.938867,428.560337 606.293619,417.505827 614.660036,414.020755 C616.697388,413.170769 618.848005,412.850727 620.93126,412.850727 C624.462235,412.850727 627.797944,413.772197 630.105313,414.608683 C628.852859,415.42243 626.896512,416.834905 624.919843,418.768939 L616.288951,423.000396 Z M629.134388,433.853246 L632.481608,420.673841 C633.009705,424.621921 634.437955,430.00152 638.161068,433.980154 C636.258156,442.657944 626.436772,448.061133 626.436772,448.061133 C626.436772,448.061133 619.048529,439.17941 620.740259,430.275516 C622.070592,423.274677 628.597764,418.360076 631.336024,416.571282 L629.134388,433.853246 Z M652.63542,420.017841 C659.342082,426.110996 658.787268,437.648553 658.787268,437.648553 C658.787268,437.648553 657.367545,437.854619 655.235118,437.854619 C651.315745,437.854619 644.990091,437.158969 640.645512,433.212168 C635.758624,428.771235 634.733553,421.458881 634.53303,417.807393 C634.988648,417.988874 635.585102,418.202329 636.250482,418.425165 L648.082785,427.924375 L639.772787,419.394811 C641.60649,419.800122 643.680223,420.112773 645.869211,420.112773 C647.951471,420.112773 649.892896,419.822718 651.688085,419.280693 C652.006279,419.523993 652.334564,419.745834 652.63542,420.017841 Z M650.952075,407.44967 L641.03789,411.35071 C643.30163,408.693455 645.365558,404.971621 645.559828,400.139447 C647.801967,399.125034 650.200147,398.747436 652.505385,398.7463 C658.621989,398.7463 664.061133,401.343724 664.061133,401.343724 C664.061133,401.343724 661.163989,412.52827 652.948071,416.353563 C650.669409,417.414873 648.219357,417.799009 645.869353,417.799009 C641.752867,417.799009 637.986267,416.63296 635.932714,415.861847 C636.335893,415.595099 636.853331,415.232565 637.451633,414.769556 L650.952075,407.44967 Z M633.626482,408.717046 C632.241861,405.034578 629.761681,400.443572 625.545857,397.506636 C626.669271,389.370728 634.309199,383.061133 634.309199,383.061133 C649.996924,397.149502 641.336614,409.223115 634.80191,413.748464 L634.897837,408.809562 L634.931945,407.692685 C634.931945,407.693822 634.93095,407.694959 634.93095,407.694959 L634.309199,397.522695 L633.626482,408.717046 Z" id="Combined-Shape" fill="#FFFFFF" fill-rule="nonzero" transform="translate(633.500000, 415.561133) rotate(90.000000) translate(-633.500000, -415.561133) "></path> <g id="Group" transform="translate(60.000000, 349.000000) scale(1, -1) rotate(-90.000000) translate(-60.000000, -349.000000) translate(-38.000000, 312.000000)" fill="#FFFFFF" fill-rule="nonzero"> <path d="M9.26770636,38.5813966 C3.23438163,33.3778778 1.76420816,24.0749271 1.76420816,24.0749271 C1.76420816,24.0749271 6.07382734,22.5174954 11.2132525,22.5174954 C14.2330414,22.5174954 17.5399014,23.0552563 20.426529,24.7640398 C26.3096389,28.2481164 28.7650915,35.5913096 29.6173515,38.9919651 C29.614225,39.000634 29.6110985,39.009303 29.6088246,39.0155561 C28.9602145,38.7425543 28.1559891,38.4287657 27.229119,38.1141244 L14.2097346,31.4429903 L22.1749625,36.8404952 C20.8436348,36.6186546 19.4386918,36.4745506 17.9933884,36.4745506 C15.3882893,36.4745506 12.9776028,36.9288903 10.8313911,37.822932 C10.289651,38.049036 9.77107557,38.3051262 9.26770636,38.5813966 Z M13.3500846,48.9392625 L20.247607,46.5477614 C18.1139014,49.0320632 16.2205113,52.1374049 15.528272,55.7824972 C15.4290762,56.3041992 15.3713777,56.8224904 15.3224904,57.3399289 C14.3141887,57.5104662 13.3010551,57.5894818 12.3035542,57.5894818 C5.83919646,57.5894818 0,54.4992042 0,54.4992042 C0,54.4992042 3.35475252,43.4446934 11.7211694,39.959622 C13.7585214,39.1096358 15.9091386,38.7895942 17.9923936,38.7895942 C21.523368,38.7895942 24.8590772,39.7110639 27.1664466,40.5475493 C25.9139924,41.3612963 23.9576455,42.7737714 21.9809763,44.7078062 L13.3500846,48.9392625 Z M26.195521,59.7921129 L29.5427415,46.6127077 C30.0708386,50.5607878 31.4990883,55.9403863 35.2222013,59.919021 C33.3192895,68.5968105 23.4979055,74 23.4979055,74 C23.4979055,74 16.109662,65.1182763 17.8013918,56.2143829 C19.1317247,49.2135433 25.658897,44.2989431 28.3971573,42.5101492 L26.195521,59.7921129 Z M49.696553,45.9567076 C56.4032157,52.0498625 55.8484011,63.58742 55.8484011,63.58742 C55.8484011,63.58742 54.4286782,63.7934859 52.2962517,63.7934859 C48.3768786,63.7934859 42.0512246,63.0978359 37.7066453,59.1510348 C32.8197574,54.7101019 31.7946862,47.3977476 31.5941628,43.7462602 C32.0497816,43.9277403 32.6462357,44.1411961 33.3116153,44.3640315 L45.1439182,53.8632422 L36.8339207,45.3336781 C38.6676228,45.7389883 40.7413562,46.05164 42.9303443,46.05164 C45.0126045,46.05164 46.9540293,45.7615845 48.7492184,45.2195602 C49.0674125,45.46286 49.3956968,45.6847006 49.696553,45.9567076 Z M48.0132079,33.3885364 L38.0990231,37.2895767 C40.3627634,34.6323216 42.4266908,30.9104876 42.6209612,26.0783138 C44.8631001,25.0639012 47.2612806,24.6863032 49.5665183,24.6851663 C55.6831221,24.6851663 61.1222665,27.2825912 61.1222665,27.2825912 C61.1222665,27.2825912 58.2251223,38.4671366 50.0092046,42.2924299 C47.7305424,43.3537402 45.2804901,43.7378755 42.9304864,43.7378755 C38.8140007,43.7378755 35.0474006,42.5718268 32.9938475,41.8007141 C33.3970261,41.5339653 33.9144646,41.1714315 34.5127662,40.7084228 L48.0132079,33.3885364 Z M30.6876151,34.6559126 C29.3029945,30.9734443 26.822814,26.3824386 22.6069903,23.4455024 C23.7304046,15.3095951 31.3703326,9 31.3703326,9 C47.058057,23.0883689 38.3977476,35.161982 31.8630433,39.6873308 L31.9589705,34.7484291 L31.9930779,33.631552 C31.9930779,33.6326889 31.9920831,33.6338259 31.9920831,33.6338259 L31.3703326,23.4615613 L30.6876151,34.6559126 Z" id="Combined-Shape"></path> <path d="M76.2677064,29.5813966 C70.2343816,24.3778778 68.7642082,15.0749271 68.7642082,15.0749271 C68.7642082,15.0749271 73.0738273,13.5174954 78.2132525,13.5174954 C81.2330414,13.5174954 84.5399014,14.0552563 87.426529,15.7640398 C93.3096389,19.2481164 95.7650915,26.5913096 96.6173515,29.9919651 C96.614225,30.000634 96.6110985,30.009303 96.6088246,30.0155561 C95.9602145,29.7425543 95.1559891,29.4287657 94.229119,29.1141244 L81.2097346,22.4429903 L89.1749625,27.8404952 C87.8436348,27.6186546 86.4386918,27.4745506 84.9933884,27.4745506 C82.3882893,27.4745506 79.9776028,27.9288903 77.8313911,28.822932 C77.289651,29.049036 76.7710756,29.3051262 76.2677064,29.5813966 Z M80.3500846,39.9392625 L87.247607,37.5477614 C85.1139014,40.0320632 83.2205113,43.1374049 82.528272,46.7824972 C82.4290762,47.3041992 82.3713777,47.8224904 82.3224904,48.3399289 C81.3141887,48.5104662 80.3010551,48.5894818 79.3035542,48.5894818 C72.8391965,48.5894818 67,45.4992042 67,45.4992042 C67,45.4992042 70.3547525,34.4446934 78.7211694,30.959622 C80.7585214,30.1096358 82.9091386,29.7895942 84.9923936,29.7895942 C88.523368,29.7895942 91.8590772,30.7110639 94.1664466,31.5475493 C92.9139924,32.3612963 90.9576455,33.7737714 88.9809763,35.7078062 L80.3500846,39.9392625 Z M93.195521,50.7921129 L96.5427415,37.6127077 C97.0708386,41.5607878 98.4990883,46.9403863 102.222201,50.919021 C100.31929,59.5968105 90.4979055,65 90.4979055,65 C90.4979055,65 83.109662,56.1182763 84.8013918,47.2143829 C86.1317247,40.2135433 92.658897,35.2989431 95.3971573,33.5101492 L93.195521,50.7921129 Z M116.696553,36.9567076 C123.403216,43.0498625 122.848401,54.58742 122.848401,54.58742 C122.848401,54.58742 121.428678,54.7934859 119.296252,54.7934859 C115.376879,54.7934859 109.051225,54.0978359 104.706645,50.1510348 C99.8197574,45.7101019 98.7946862,38.3977476 98.5941628,34.7462602 C99.0497816,34.9277403 99.6462357,35.1411961 100.311615,35.3640315 L112.143918,44.8632422 L103.833921,36.3336781 C105.667623,36.7389883 107.741356,37.05164 109.930344,37.05164 C112.012604,37.05164 113.954029,36.7615845 115.749218,36.2195602 C116.067413,36.46286 116.395697,36.6847006 116.696553,36.9567076 Z M115.013208,24.3885364 L105.099023,28.2895767 C107.362763,25.6323216 109.426691,21.9104876 109.620961,17.0783138 C111.8631,16.0639012 114.261281,15.6863032 116.566518,15.6851663 C122.683122,15.6851663 128.122266,18.2825912 128.122266,18.2825912 C128.122266,18.2825912 125.225122,29.4671366 117.009205,33.2924299 C114.730542,34.3537402 112.28049,34.7378755 109.930486,34.7378755 C105.814001,34.7378755 102.047401,33.5718268 99.9938475,32.8007141 C100.397026,32.5339653 100.914465,32.1714315 101.512766,31.7084228 L115.013208,24.3885364 Z M97.6876151,25.6559126 C96.3029945,21.9734443 93.822814,17.3824386 89.6069903,14.4455024 C90.7304046,6.30959513 98.3703326,0 98.3703326,0 C114.058057,14.0883689 105.397748,26.161982 98.8630433,30.6873308 L98.9589705,25.7484291 L98.9930779,24.631552 C98.9930779,24.6326889 98.9920831,24.6338259 98.9920831,24.6338259 L98.3703326,14.4615613 L97.6876151,25.6559126 Z" id="Combined-Shape"></path> <path d="M143.267706,38.5813966 C137.234382,33.3778778 135.764208,24.0749271 135.764208,24.0749271 C135.764208,24.0749271 140.073827,22.5174954 145.213252,22.5174954 C148.233041,22.5174954 151.539901,23.0552563 154.426529,24.7640398 C160.309639,28.2481164 162.765091,35.5913096 163.617352,38.9919651 C163.614225,39.000634 163.611098,39.009303 163.608825,39.0155561 C162.960215,38.7425543 162.155989,38.4287657 161.229119,38.1141244 L148.209735,31.4429903 L156.174963,36.8404952 C154.843635,36.6186546 153.438692,36.4745506 151.993388,36.4745506 C149.388289,36.4745506 146.977603,36.9288903 144.831391,37.822932 C144.289651,38.049036 143.771076,38.3051262 143.267706,38.5813966 Z M147.350085,48.9392625 L154.247607,46.5477614 C152.113901,49.0320632 150.220511,52.1374049 149.528272,55.7824972 C149.429076,56.3041992 149.371378,56.8224904 149.32249,57.3399289 C148.314189,57.5104662 147.301055,57.5894818 146.303554,57.5894818 C139.839196,57.5894818 134,54.4992042 134,54.4992042 C134,54.4992042 137.354753,43.4446934 145.721169,39.959622 C147.758521,39.1096358 149.909139,38.7895942 151.992394,38.7895942 C155.523368,38.7895942 158.859077,39.7110639 161.166447,40.5475493 C159.913992,41.3612963 157.957646,42.7737714 155.980976,44.7078062 L147.350085,48.9392625 Z M160.195521,59.7921129 L163.542741,46.6127077 C164.070839,50.5607878 165.499088,55.9403863 169.222201,59.919021 C167.31929,68.5968105 157.497905,74 157.497905,74 C157.497905,74 150.109662,65.1182763 151.801392,56.2143829 C153.131725,49.2135433 159.658897,44.2989431 162.397157,42.5101492 L160.195521,59.7921129 Z M183.696553,45.9567076 C190.403216,52.0498625 189.848401,63.58742 189.848401,63.58742 C189.848401,63.58742 188.428678,63.7934859 186.296252,63.7934859 C182.376879,63.7934859 176.051225,63.0978359 171.706645,59.1510348 C166.819757,54.7101019 165.794686,47.3977476 165.594163,43.7462602 C166.049782,43.9277403 166.646236,44.1411961 167.311615,44.3640315 L179.143918,53.8632422 L170.833921,45.3336781 C172.667623,45.7389883 174.741356,46.05164 176.930344,46.05164 C179.012604,46.05164 180.954029,45.7615845 182.749218,45.2195602 C183.067413,45.46286 183.395697,45.6847006 183.696553,45.9567076 Z M182.013208,33.3885364 L172.099023,37.2895767 C174.362763,34.6323216 176.426691,30.9104876 176.620961,26.0783138 C178.8631,25.0639012 181.261281,24.6863032 183.566518,24.6851663 C189.683122,24.6851663 195.122266,27.2825912 195.122266,27.2825912 C195.122266,27.2825912 192.225122,38.4671366 184.009205,42.2924299 C181.730542,43.3537402 179.28049,43.7378755 176.930486,43.7378755 C172.814001,43.7378755 169.047401,42.5718268 166.993848,41.8007141 C167.397026,41.5339653 167.914465,41.1714315 168.512766,40.7084228 L182.013208,33.3885364 Z M164.687615,34.6559126 C163.302994,30.9734443 160.822814,26.3824386 156.60699,23.4455024 C157.730405,15.3095951 165.370333,9 165.370333,9 C181.058057,23.0883689 172.397748,35.161982 165.863043,39.6873308 L165.95897,34.7484291 L165.993078,33.631552 C165.993078,33.6326889 165.992083,33.6338259 165.992083,33.6338259 L165.370333,23.4615613 L164.687615,34.6559126 Z" id="Combined-Shape"></path> </g> </g> </g> </g> </g> </svg> 