<?xml version="1.0" encoding="UTF-8"?> <svg xmlns="http://www.w3.org/2000/svg" width="1920" height="1080" viewBox="0 0 1920 1080" fill="none"><rect width="1920" height="1080" rx="50" fill="white"></rect><path d="M1298 351.025C1275.39 386.959 1275.56 426.223 1252.07 482.315C1234.9 480.562 1217.72 479.861 1200.54 480.562C1203.17 467.065 1204.4 453.393 1204.22 439.72C1203.69 412.726 1200.89 385.732 1195.81 359.263C1229.46 352.778 1263.64 349.973 1298 351.025ZM1188.09 444.803C1188.09 457.074 1187.04 469.344 1184.76 481.438C1138.66 485.119 1094.32 500.895 1056.1 527.013C1088.88 491.43 1107.11 444.803 1107.29 396.424C1107.29 394.847 1107.29 393.444 1107.11 391.867C1129.37 378.896 1153.21 369.255 1178.1 363.12C1183.71 390.114 1187.04 417.459 1188.09 444.803ZM1035.42 549.274C1077.84 516.496 1128.85 497.214 1182.31 493.358C1167.06 550.326 1125.17 573.113 1092.04 573.113C1070.65 573.113 1050.32 564.524 1035.42 549.274ZM1095.72 411.148C1095.72 471.096 1062.06 515.093 1032.44 543.49C1028.23 533.674 1026.13 523.332 1026.3 512.639C1026.3 476.53 1047.34 432.533 1095.37 399.579C1095.72 403.436 1095.72 407.292 1095.72 411.148ZM1019.82 510.887C1019.82 519.651 1021.22 528.415 1024.2 536.654C1015.79 520.527 1011.41 502.473 1011.41 484.243C1011.41 424.821 1038.22 369.255 1074.16 324.206C1084.15 344.014 1090.81 365.223 1094.14 386.959C1048.04 417.985 1019.82 461.28 1019.82 510.887ZM1046.64 564.349C1060.13 573.639 1076.26 578.723 1092.56 579.073C1144.27 579.073 1183.01 547.171 1197.74 492.481C1214.04 491.956 1230.51 492.657 1246.82 494.41C1246.82 494.585 1246.64 494.585 1246.64 494.585C1218.24 556.111 1165.13 588.714 1112.9 588.714C1088.53 589.766 1064.69 581.001 1046.64 564.349ZM1178.98 234.985C1166.53 272.847 1170.21 312.111 1176.17 350.149C1151.81 356.809 1128.5 366.45 1106.59 379.071C1104.13 354.881 1097.47 331.218 1086.95 309.131C1113.25 279.508 1144.45 254.267 1178.98 234.985ZM1010.35 186.957C1022.1 238.316 1048.39 274.775 1068.72 313.338C1039.8 349.097 1019.64 391.166 1010.35 436.214H1011.41V186.957H1010.35ZM1050.32 573.113C1069.43 587.837 1092.74 595.725 1116.75 595.725C1173.9 595.725 1230.16 562.947 1263.47 496.513C1291.34 500.895 1318.86 508.082 1345.15 518.073C1285.73 533.849 1221.05 605.717 1139.72 605.717C1102.38 605.717 1072.23 593.271 1052.42 574.516L1050.32 573.113ZM1003.34 493.183C1013.86 556.286 1063.11 615.007 1148.13 615.007C1246.29 615.007 1329.9 523.683 1386.34 521.228C1390.55 521.053 1390.55 519.125 1387.22 517.898C1349.36 502.122 1309.92 490.904 1269.43 484.594C1293.97 429.028 1294.49 380.648 1318.16 342.787C1320.26 339.456 1319.91 338.404 1316.05 338.054C1275.21 334.548 1234.02 337.177 1193.88 345.942C1187.04 302.996 1181.96 260.928 1198.44 212.724C1199.66 209.043 1198.96 207.29 1195.11 209.043C1151.99 231.304 1113.6 261.629 1081.7 298.088C1054.88 244.451 1015.79 195.02 1005.09 118.419C1004.39 113.687 1001.94 114.037 1001.94 118.419V467.766C1001.94 498.441 980.555 512.639 960.221 512.639C939.888 512.639 918.503 498.266 918.503 467.766V118.595C918.503 114.212 916.049 113.862 915.348 118.595C904.655 195.02 865.566 244.626 838.923 298.088C807.021 261.453 768.458 231.304 725.512 209.043C721.831 207.29 720.955 208.867 722.182 212.724C738.834 261.103 733.751 302.996 726.739 345.942C686.599 337.177 645.406 334.548 604.564 338.054C600.883 338.404 600.533 339.456 602.461 342.787C626.125 380.648 626.826 429.028 651.191 484.594C610.699 490.904 571.085 502.122 533.398 517.898C530.067 519.3 530.067 521.228 534.274 521.228C590.541 523.507 674.328 615.007 772.489 615.007C857.679 615.007 906.759 556.286 917.276 493.183L915.523 493.533C922.359 508.958 937.083 519.3 953.911 520.527L954.086 519.476C930.948 521.93 912.368 539.458 912.368 561.895C912.368 597.654 947.425 609.222 957.767 636.217C958.468 637.97 958.819 639.898 960.397 639.898C961.974 639.898 962.15 638.145 963.026 636.217C973.543 609.222 1008.43 597.654 1008.43 561.895C1007.37 539.108 989.319 520.703 966.707 519.476L966.882 520.527C983.71 519.3 998.434 508.958 1005.27 493.533L1003.34 493.183ZM724.811 359.439C719.728 385.907 716.923 412.901 716.397 439.895C716.397 453.568 717.624 467.24 720.078 480.737C702.9 480.036 685.722 480.562 668.544 482.49C645.056 426.398 645.231 387.134 622.619 351.2C656.8 349.973 690.981 352.778 724.811 359.439ZM742.34 363.295C767.231 369.43 791.07 379.246 813.331 392.042C813.331 393.62 813.156 395.022 813.156 396.6C813.156 444.979 831.561 491.605 864.339 527.188C826.127 501.071 781.779 485.295 735.679 481.614C733.4 469.519 732.348 457.249 732.348 444.979C733.575 417.459 736.906 390.289 742.34 363.295ZM828.581 573.289C795.452 573.289 753.558 550.326 738.308 493.533C791.771 497.214 842.779 516.671 885.199 549.45C870.299 564.524 849.966 573.113 828.581 573.289ZM825.25 399.755C873.279 432.709 894.313 476.706 894.313 512.815C894.489 523.332 892.385 533.849 888.178 543.665C858.555 515.269 824.9 471.272 824.9 411.324C824.9 407.292 824.9 403.436 825.25 399.755ZM826.477 387.134C829.633 365.223 836.469 344.014 846.46 324.381C882.394 369.255 909.213 424.996 909.213 484.418C909.213 502.648 904.831 520.527 896.417 536.829C899.397 528.591 900.799 519.826 900.799 511.062C900.799 461.28 872.578 417.985 826.477 387.134ZM807.722 588.714C755.486 588.714 702.374 556.111 673.978 494.585C673.978 494.41 673.803 494.41 673.803 494.41C690.104 492.657 706.406 491.956 722.883 492.481C737.607 547.171 776.345 579.073 828.055 579.073C844.532 578.898 860.483 573.815 873.98 564.349C856.101 581.001 832.087 589.766 807.722 588.714ZM833.664 309.131C823.147 331.218 816.486 354.881 814.032 379.071C792.121 366.45 768.808 356.809 744.443 350.149C750.403 311.936 754.084 272.847 741.639 234.985C776.345 254.442 807.371 279.508 833.664 309.131ZM909.038 186.957V436.214H910.089C900.799 391.166 880.816 349.097 851.719 313.338C872.052 274.6 898.345 238.316 910.089 186.957H909.038ZM868.196 574.34C848.388 593.096 818.239 605.541 780.903 605.541C699.57 605.541 634.889 533.674 575.467 518.073C601.935 508.082 629.28 500.895 657.15 496.513C690.455 562.947 746.722 595.725 803.865 595.725C827.88 595.725 851.368 587.662 870.299 573.113L868.196 574.34Z" fill="black"></path><path d="M772.55 733.521C770.972 733.696 770.271 733.521 769.92 732.469C768.168 723.003 759.929 716.167 750.464 716.167C742.225 715.116 734.863 721.075 733.811 729.138C733.811 729.489 733.811 730.015 733.636 730.366C733.636 740.883 742.4 745.44 753.969 749.121C770.622 754.555 781.489 761.391 781.489 777.518C781.489 793.644 768.869 805.038 747.133 805.038C738.895 805.388 730.481 803.635 722.943 800.305C721.191 799.604 719.964 798.201 719.438 796.624C717.51 790.839 716.458 784.704 716.633 778.569C716.633 777.518 717.685 777.167 718.912 776.992C720.139 776.817 721.015 777.167 721.191 778.044C724.696 787.334 732.058 799.779 746.783 799.779C758.351 799.779 765.713 792.943 765.713 783.653C765.713 775.765 762.909 769.279 747.484 764.196C732.058 759.113 719.262 751.049 719.262 735.449C719.262 721.952 730.306 710.383 752.041 710.383C758.001 710.558 763.961 711.259 769.92 712.662C772.024 713.187 772.199 713.538 772.725 714.94C774.303 720.374 775.004 725.983 775.004 731.593C774.828 732.82 774.127 733.345 772.55 733.521Z" fill="black"></path><path d="M1021.28 778.916C1022.51 779.091 1023.21 779.617 1023.03 780.318C1022.33 786.803 1020.4 793.289 1017.6 799.074C1017.07 800.125 1016.2 800.826 1014.97 801.177C1006.91 803.982 998.493 805.384 989.904 805.559C959.58 805.559 936.267 790.309 936.267 758.056C936.267 726.68 960.982 710.203 989.554 710.203C998.844 710.378 1007.96 711.781 1016.9 713.884C1018.65 714.235 1018.83 714.585 1019 716.163C1019.18 720.019 1019.53 726.855 1020.75 735.094C1020.93 735.97 1020.4 736.321 1019 736.671C1017.42 736.847 1016.72 736.671 1016.55 735.795C1014.09 723.35 1002.7 714.761 990.08 715.812C972.726 715.812 955.198 728.082 955.198 756.128C955.198 785.226 973.427 799.599 991.131 799.599C1003.93 799.775 1015.32 791.536 1019.35 779.441C1019.35 778.916 1020.05 778.74 1021.28 778.916Z" fill="black"></path><path d="M1056.51 758.23C1057.04 731.412 1078.95 710.027 1105.77 710.552C1131.89 710.903 1153.1 732.113 1153.45 758.23C1152.75 785.049 1130.31 806.084 1103.49 805.383C1077.9 804.681 1057.21 783.998 1056.51 758.23ZM1105.07 799.598C1121.55 799.598 1134.69 781.894 1134.69 758.23C1134.69 736.32 1124 716.512 1105.07 716.512C1086.14 716.512 1075.44 736.495 1075.44 758.23C1075.27 781.894 1088.42 799.598 1105.07 799.598Z" fill="black"></path><path d="M647.394 758.052V783.468C647.394 798.017 646.167 798.368 639.682 799.244L636.702 799.595C635.826 799.77 635.65 800.646 635.65 801.698C635.826 802.75 636.001 803.626 636.877 803.451C636.877 803.451 648.797 803.1 655.282 803.1C661.768 803.1 673.688 803.451 673.688 803.451C674.564 803.451 674.915 802.75 674.915 801.698C675.09 800.646 674.739 799.595 673.863 799.595L670.883 799.244C664.397 798.368 663.17 798.017 663.17 783.468V732.635C663.17 718.086 664.397 717.736 670.883 716.859L673.863 716.509C674.739 716.333 674.915 715.457 674.915 714.405C674.915 713.353 674.564 712.652 673.688 712.652C673.688 712.652 661.768 713.003 655.282 713.003C648.797 713.003 636.877 712.652 636.877 712.652C636.001 712.652 635.65 713.353 635.65 714.405C635.475 715.457 635.826 716.509 636.702 716.509L639.682 716.859C646.167 717.736 647.394 718.086 647.394 732.635V758.052Z" fill="black"></path><path d="M881.578 795.737C883.156 797.841 881.929 798.892 880.176 799.243L876.67 799.769C875.794 799.944 875.619 800.645 875.794 801.872C875.969 803.099 876.32 803.8 877.021 803.625C877.021 803.625 888.59 803.275 894.9 803.275C901.386 803.275 912.955 803.625 912.955 803.625C913.831 803.625 914.182 803.099 914.357 801.697C914.532 800.295 914.006 799.594 913.305 799.594C907.696 799.769 902.437 797.315 899.107 792.933C890.343 783.117 872.989 760.855 865.978 751.565C865.101 750.689 865.101 749.111 865.978 748.235L866.153 748.059C870.009 743.852 882.63 731.056 888.239 725.973C893.848 720.364 901.21 717.034 909.098 716.332C909.799 716.157 910.325 715.281 910.15 714.054C909.975 713.002 909.624 712.301 908.748 712.476C908.748 712.476 898.932 712.827 893.673 712.827C888.414 712.827 878.598 712.476 878.598 712.476C877.722 712.476 877.371 713.352 877.371 714.229C877.196 715.456 877.547 716.157 878.248 716.332L881.929 717.384C882.63 717.559 883.156 717.91 883.156 718.611C883.331 720.189 880.351 723.519 876.495 727.901C871.061 734.036 861.596 744.028 856.512 748.936C852.305 752.967 850.553 753.668 848.975 752.792C847.748 752.266 847.222 750.864 847.222 746.657V732.283C847.222 717.735 848.449 717.384 854.935 716.508L857.915 716.157C858.791 715.982 858.966 715.105 858.966 714.054C858.791 713.002 858.616 712.301 857.739 712.301C857.739 712.301 845.82 712.651 839.334 712.651C832.849 712.651 820.929 712.301 820.929 712.301C820.053 712.301 819.702 713.002 819.702 714.054C819.527 715.105 819.877 716.157 820.754 716.157L823.734 716.508C830.219 717.384 831.446 717.735 831.446 732.283V783.117C831.446 797.665 830.219 798.016 823.734 798.892L820.754 799.243C819.877 799.418 819.702 800.295 819.702 801.346C819.702 802.398 820.053 803.275 820.929 803.099C820.929 803.099 832.849 802.749 839.334 802.749C845.82 802.749 857.739 803.099 857.739 803.099C858.616 803.099 858.966 802.398 858.966 801.346C859.142 800.295 858.791 799.243 857.915 799.243L854.935 798.892C848.449 798.016 847.222 797.665 847.222 783.117V762.783C847.222 760.505 848.098 759.102 849.501 758.752C851.078 758.401 852.305 759.102 853.883 760.855C861.42 769.094 875.619 787.674 881.578 795.737Z" fill="black"></path><path d="M1203.93 731.77C1221.28 749.649 1248.1 780.675 1268.44 805.04C1269.31 806.091 1270.19 806.267 1271.94 805.566C1273.52 804.864 1273.7 804.339 1273.7 803.112C1273.34 796.275 1273.17 789.79 1273.17 783.655V737.204C1273.17 721.077 1274.4 717.922 1280.88 717.046L1283.86 716.695C1284.74 716.52 1284.91 715.643 1284.91 714.592C1284.91 713.54 1284.56 712.664 1283.69 712.839C1278.43 713.189 1273.34 713.189 1269.84 713.189C1266.16 713.189 1259.67 713.014 1254.41 712.839C1253.54 712.839 1253.19 713.54 1253.19 714.592C1253.01 715.643 1253.54 716.695 1254.24 716.695C1265.11 717.221 1266.51 719.5 1266.51 737.204V779.974L1267.56 778.922C1247.58 758.589 1229 737.204 1211.64 714.592C1210.77 713.365 1210.59 712.839 1209.01 713.014C1201.13 713.365 1193.24 713.365 1185.35 712.839C1184.47 712.664 1184.12 713.54 1184.12 714.592C1183.95 715.643 1184.3 716.52 1185.18 716.695C1195.69 718.799 1198.67 721.954 1198.67 732.822V779.273C1198.67 795.399 1197.45 798.554 1190.96 799.431L1187.98 799.781C1187.1 799.956 1186.93 800.833 1186.93 801.885C1186.93 802.936 1187.28 803.813 1188.16 803.637C1193.41 803.287 1198.5 803.287 1202 803.287C1205.68 803.287 1210.59 803.462 1215.85 803.637C1216.73 803.637 1217.08 802.936 1217.08 801.885C1217.25 800.833 1216.9 799.781 1216.03 799.781L1213.05 799.431C1206.56 798.554 1205.33 795.399 1205.33 779.273V731.069L1203.93 731.77Z" fill="black"></path><path d="M1284.02 685.396C1285.6 685.396 1286.83 683.643 1286.83 680.839C1286.83 678.034 1285.6 676.281 1284.02 676.281H636.69C635.113 676.281 633.886 678.034 633.886 680.839C633.886 683.643 635.113 685.396 636.69 685.396H1284.02Z" fill="black"></path><path d="M1284.02 839.83C1285.6 839.83 1286.83 838.077 1286.83 835.272C1286.83 832.468 1285.6 830.715 1284.02 830.715H636.69C635.113 830.715 633.886 832.468 633.886 835.272C633.886 838.077 635.113 839.83 636.69 839.83H1284.02Z" fill="black"></path><path d="M1342.87 650.608C1343.05 661.125 1334.81 669.714 1324.29 669.889C1313.78 670.065 1305.19 661.826 1305.01 651.309C1304.84 640.792 1313.08 632.203 1323.59 632.027C1323.77 632.027 1323.94 632.027 1323.94 632.027C1334.29 632.027 1342.87 640.266 1342.87 650.608ZM1309.57 650.608C1310.1 658.496 1316.76 664.631 1324.82 664.28C1332.71 663.754 1338.84 657.093 1338.49 649.03C1338.14 641.318 1331.83 635.358 1324.12 635.358C1315.88 635.708 1309.39 642.369 1309.57 650.608ZM1317.81 646.401C1317.81 644.473 1317.46 643.596 1316.23 643.421H1315.71C1315.35 642.895 1315.35 642.019 1315.88 641.843C1318.86 641.668 1321.49 641.493 1323.94 641.493C1327.27 641.493 1331.31 642.194 1331.31 646.401C1331.31 648.154 1330.25 649.731 1328.68 650.432C1328.33 650.608 1328.33 650.783 1328.68 651.484C1329.55 653.588 1330.78 655.691 1332.36 657.269C1332.88 657.619 1333.23 657.97 1333.58 658.145C1333.93 658.145 1333.93 659.021 1333.58 659.197C1332.88 659.197 1332.18 659.372 1331.48 659.372C1329.2 659.547 1327.1 658.32 1326.05 656.392L1323.94 652.711C1323.77 652.185 1323.24 651.835 1322.72 651.835C1322.02 651.835 1321.84 652.185 1321.84 652.536V654.639C1321.84 656.743 1321.84 657.444 1323.94 657.619L1324.29 657.795C1324.64 657.97 1324.64 659.021 1324.29 659.197C1322.89 659.197 1321.66 659.022 1319.91 659.022C1318.33 659.022 1316.93 659.197 1315.71 659.197C1315.35 659.021 1315.35 657.97 1315.53 657.795L1316.06 657.619C1317.63 657.269 1317.63 656.918 1317.63 654.639L1317.81 646.401ZM1321.84 649.205C1321.84 650.257 1322.02 650.257 1323.59 650.257C1325.17 650.432 1326.4 649.205 1326.57 647.803C1326.57 647.628 1326.57 647.453 1326.57 647.453C1326.57 645.174 1325.52 643.772 1323.77 643.772C1322.02 643.772 1321.84 644.122 1321.84 644.823V649.205Z" fill="black"></path><path d="M1205.05 957.157V964.139H1172.08V912.203H1205.05V919.15H1180.14V934.338H1203.72V941.032H1180.14V957.157H1205.05Z" fill="black"></path><path d="M1125.67 964.139H1116.86L1098.32 912.203H1107.07L1121.21 955.069H1121.43L1135.61 912.203H1144.21L1125.67 964.139Z" fill="black"></path><path d="M1049.82 911.34C1064.76 911.34 1074.15 921.669 1074.15 938.19C1074.15 954.71 1064.76 965.003 1049.82 965.003C1034.85 965.003 1025.49 954.71 1025.49 938.19C1025.49 921.669 1034.85 911.34 1049.82 911.34ZM1049.82 918.43C1039.96 918.43 1033.74 926.06 1033.74 938.19C1033.74 950.283 1039.96 957.913 1049.82 957.913C1059.69 957.913 1065.88 950.283 1065.88 938.19C1065.88 926.06 1059.69 918.43 1049.82 918.43Z" fill="black"></path><path d="M1000.5 957.157V964.139H968.254V912.203H976.316V957.157H1000.5Z" fill="black"></path><path d="M900.776 957.157V964.139H867.808V912.203H900.776V919.15H875.87V934.338H899.444V941.032H875.87V957.157H900.776Z" fill="black"></path><path d="M801.569 964.139H793.723V912.203H801.029L827.951 950.498H828.239V912.203H836.085V964.139H828.815L801.893 925.88H801.569V964.139Z" fill="black"></path><path d="M739.576 911.34C754.513 911.34 763.907 921.669 763.907 938.19C763.907 954.71 754.513 965.003 739.576 965.003C724.604 965.003 715.246 954.71 715.246 938.19C715.246 921.669 724.604 911.34 739.576 911.34ZM739.576 918.43C729.715 918.43 723.488 926.06 723.488 938.19C723.488 950.283 729.715 957.913 739.576 957.913C749.438 957.913 755.629 950.283 755.629 938.19C755.629 926.06 749.438 918.43 739.576 918.43Z" fill="black"></path></svg> 