<?xml version="1.0" encoding="UTF-8"?> <svg xmlns="http://www.w3.org/2000/svg" width="1920" height="1920" viewBox="0 0 1920 1920" fill="none"><path d="M760.032 960C760.032 849.548 849.548 759.984 960 759.984C1070.45 759.984 1160.02 849.548 1160.02 960C1160.02 1070.45 1070.45 1160.02 960 1160.02C849.548 1160.02 760.032 1070.45 760.032 960ZM651.906 960C651.906 1130.16 789.838 1268.09 960 1268.09C1130.16 1268.09 1268.09 1130.16 1268.09 960C1268.09 789.838 1130.16 651.906 960 651.906C789.838 651.906 651.906 789.838 651.906 960ZM1208.29 639.693C1208.29 679.435 1240.52 711.712 1280.31 711.712C1320.05 711.712 1352.33 679.435 1352.33 639.693C1352.33 599.952 1320.1 567.722 1280.31 567.722C1240.52 567.722 1208.29 599.952 1208.29 639.693ZM717.577 1448.38C659.079 1445.72 627.286 1435.98 606.155 1427.74C578.142 1416.83 558.174 1403.84 537.141 1382.86C516.155 1361.87 503.118 1341.91 492.262 1313.89C484.023 1292.76 474.281 1260.97 471.616 1202.47C468.708 1139.22 468.126 1120.23 468.126 960C468.126 799.774 468.756 780.824 471.616 717.528C474.281 659.031 484.071 627.286 492.262 606.107C503.166 578.094 516.155 558.126 537.141 537.092C558.126 516.107 578.094 503.069 606.155 492.213C627.286 483.974 659.079 474.233 717.577 471.567C780.824 468.659 799.822 468.078 960 468.078C1120.23 468.078 1139.18 468.708 1202.47 471.567C1260.97 474.233 1292.71 484.023 1313.89 492.213C1341.91 503.069 1361.87 516.107 1382.91 537.092C1403.89 558.078 1416.88 578.094 1427.79 606.107C1436.03 627.237 1445.77 659.031 1448.43 717.528C1451.34 780.824 1451.92 799.774 1451.92 960C1451.92 1120.18 1451.34 1139.18 1448.43 1202.47C1445.77 1260.97 1435.98 1292.76 1427.79 1313.89C1416.88 1341.91 1403.89 1361.87 1382.91 1382.86C1361.92 1403.84 1341.91 1416.83 1313.89 1427.74C1292.76 1435.98 1260.97 1445.72 1202.47 1448.38C1139.22 1451.29 1120.23 1451.87 960 1451.87C799.822 1451.87 780.824 1451.29 717.577 1448.38ZM712.633 363.635C648.756 366.543 605.137 376.672 566.995 391.502C527.544 406.817 494.103 427.367 460.711 460.711C427.367 494.055 406.817 527.496 391.502 566.995C376.672 605.137 366.543 648.756 363.635 712.633C360.679 776.607 360 797.06 360 960C360 1122.94 360.679 1143.39 363.635 1207.37C366.543 1271.24 376.672 1314.86 391.502 1353C406.817 1392.46 427.318 1425.95 460.711 1459.29C494.055 1492.63 527.496 1513.13 566.995 1528.5C605.186 1543.33 648.756 1553.46 712.633 1556.37C776.656 1559.27 797.06 1560 960 1560C1122.99 1560 1143.39 1559.32 1207.37 1556.37C1271.24 1553.46 1314.86 1543.33 1353 1528.5C1392.46 1513.13 1425.9 1492.63 1459.29 1459.29C1492.63 1425.95 1513.13 1392.46 1528.5 1353C1543.33 1314.86 1553.51 1271.24 1556.37 1207.37C1559.27 1143.34 1559.95 1122.94 1559.95 960C1559.95 797.06 1559.27 776.607 1556.37 712.633C1553.46 648.756 1543.33 605.137 1528.5 566.995C1513.13 527.544 1492.63 494.103 1459.29 460.711C1425.95 427.367 1392.46 406.817 1353.05 391.502C1314.86 376.672 1271.24 366.494 1207.42 363.635C1143.44 360.727 1122.99 360 960.048 360C797.06 360 776.656 360.679 712.633 363.635Z" fill="black"></path></svg> 