<?xml version="1.0" encoding="UTF-8"?> <svg xmlns="http://www.w3.org/2000/svg" width="1920" height="1920" viewBox="0 0 1920 1920" fill="none"><path fill-rule="evenodd" clip-rule="evenodd" d="M739.798 1339.61C788.397 1380.39 860.409 1420.86 954.536 1420.86C992.427 1420.86 1033.93 1414.31 1078.94 1398.51C1082.21 1397.43 1405.8 1284.79 1312.05 928.925C1295.12 864.606 1266.71 803.073 1227.6 745.983C1163.96 653.119 1070.99 480.603 1063.58 387.739C1053.23 258.225 1090.76 190.344 1091.15 189.672C1096.23 180.741 1094.22 169.489 1086.35 162.879C1078.42 156.323 1066.96 156.373 1059.06 163.033C1037.31 181.617 526.626 623.022 597.476 1083.26C613.07 1184.65 663.608 1275.66 739.798 1339.61ZM893.071 399.481C913.962 373.751 934.26 350.12 953.652 328.56L940.68 732.56C940.498 738.497 942.822 744.277 947.107 748.408C951.367 752.539 957.043 754.345 963.134 754.345L1071.15 747.582L1008.22 1042.28L1017.8 827.28C1018.06 821.5 1015.91 815.82 1011.89 811.639C1007.84 807.458 1002.72 804.05 996.454 805.187L875.921 806.478L893.071 399.481ZM848.338 457.148L832.74 826.969C832.483 832.749 834.625 838.378 838.678 842.559C842.705 846.74 847.866 848.547 854.086 849.012L974.569 847.721L954.643 1294.6C954.153 1305.59 962.154 1315.09 973.07 1316.48C973.975 1316.64 974.876 1316.69 975.781 1316.69C985.613 1316.69 994.34 1309.82 996.429 1299.97L1118.33 729.151C1119.72 722.649 1117.99 715.935 1113.66 710.928C1109.37 705.921 1103.02 703.753 1096.34 703.6L983.703 710.671L997.491 281.259C1008.27 270.061 1018.53 259.602 1027.79 250.425C1021 285.991 1016.77 332.967 1021.41 391.141C1029.93 497.374 1131 679.851 1192.71 769.929C1229.08 822.942 1255.46 880.086 1271.18 939.654C1354.67 1256.76 1077.34 1354.42 1065.24 1358.5C954.303 1397.53 853.928 1380.13 766.977 1307.19C698.659 1249.89 653.311 1168.07 639.294 1076.86C604.49 850.768 724.107 624.18 848.338 457.148ZM793.201 1234.26C809.153 1243.96 825.67 1248.76 841.439 1248.76C861.082 1248.76 879.559 1241.28 894.273 1226.62C915.798 1205.19 920.701 1164.05 904.753 1138.66C884.777 1106.7 860.206 1091.27 834.808 1075.32C801.073 1054.15 776.401 1021.17 765.353 982.556C762.671 973.264 754.849 964.644 744.369 967.277C734.716 967.534 726.457 974.348 724.365 983.794C722.713 991.33 684.822 1168.28 793.201 1234.26ZM813.949 1112.17L813.99 1112.2C835.497 1125.71 854.067 1137.38 868.926 1161.06C874.863 1170.61 871.326 1189.81 864.408 1196.68C846.883 1214.23 824.117 1203.54 815.162 1198.12C769.245 1170.19 758.998 1110.26 758.998 1062.36C773.869 1081.71 792.346 1098.6 813.949 1112.17ZM269.827 1512.38C252.044 1503.09 236.689 1495.09 204.142 1495.09C192.475 1495.09 183 1485.59 183 1473.93C183 1462.26 192.471 1452.76 204.138 1452.76C247.086 1452.76 269.594 1464.53 289.441 1474.96C307.224 1484.25 322.553 1492.25 355.101 1492.25C387.673 1492.25 403.031 1484.25 420.815 1474.96C440.69 1464.53 463.194 1452.76 506.142 1452.76C549.116 1452.76 571.62 1464.53 591.495 1474.96C609.279 1484.25 624.662 1492.25 657.234 1492.25C689.807 1492.25 705.19 1484.25 722.998 1474.96C742.845 1464.53 765.352 1452.76 808.326 1452.76C851.274 1452.76 873.757 1464.53 893.604 1474.96C911.362 1484.25 926.716 1492.25 959.239 1492.25C991.811 1492.25 1007.19 1484.25 1024.98 1474.96C1044.85 1464.53 1067.36 1452.76 1110.33 1452.76C1153.3 1452.76 1175.83 1464.53 1195.71 1474.96C1213.49 1484.25 1228.87 1492.25 1261.45 1492.25C1294.04 1492.25 1309.43 1484.25 1327.24 1474.91C1347.08 1464.53 1369.62 1452.76 1412.59 1452.76C1455.59 1452.76 1478.15 1464.52 1498.05 1474.9L1498.07 1474.91C1515.9 1484.25 1531.32 1492.25 1563.99 1492.25C1596.66 1492.25 1612.07 1484.25 1629.91 1474.91L1629.92 1474.9C1649.82 1464.53 1672.37 1452.76 1715.39 1452.76C1727.05 1452.76 1736.53 1462.26 1736.53 1473.93C1736.53 1485.59 1727.05 1495.09 1715.39 1495.09C1682.71 1495.09 1667.3 1503.09 1649.47 1512.43L1649.46 1512.44C1629.56 1522.81 1607 1534.58 1563.99 1534.58C1520.98 1534.58 1498.43 1522.82 1478.53 1512.45L1478.51 1512.43C1460.67 1503.09 1445.27 1495.09 1412.59 1495.09C1379.99 1495.09 1364.61 1503.09 1346.8 1512.43C1326.95 1522.81 1304.42 1534.58 1261.45 1534.58C1218.48 1534.58 1195.97 1522.81 1176.13 1512.44L1176.12 1512.43C1158.31 1503.09 1142.93 1495.09 1110.33 1495.09C1077.76 1495.09 1062.37 1503.09 1044.57 1512.38C1024.72 1522.81 1002.21 1534.58 959.239 1534.58C916.319 1534.58 893.836 1522.81 873.989 1512.38C856.231 1503.09 840.877 1495.09 808.329 1495.09C775.757 1495.09 760.374 1503.09 742.566 1512.38C722.719 1522.81 700.211 1534.58 657.238 1534.58C614.264 1534.58 591.757 1522.81 571.91 1512.38C554.102 1503.09 538.719 1495.09 506.146 1495.09C473.574 1495.09 458.215 1503.09 440.432 1512.38C420.557 1522.81 398.053 1534.58 355.104 1534.58C312.181 1534.58 289.673 1522.81 269.827 1512.38ZM1629.94 1588.53C1649.81 1578.15 1672.37 1566.38 1715.39 1566.38C1727.06 1566.38 1736.53 1575.88 1736.53 1587.54C1736.53 1599.21 1727.06 1608.71 1715.39 1608.71C1682.71 1608.71 1667.31 1616.71 1649.44 1626C1629.57 1636.37 1607.01 1648.14 1563.99 1648.14C1520.96 1648.14 1498.41 1636.37 1478.53 1626C1460.67 1616.71 1445.26 1608.71 1412.59 1608.71C1379.99 1608.71 1364.6 1616.71 1346.8 1626L1346.75 1626.02C1326.89 1636.39 1304.38 1648.14 1261.44 1648.14C1218.54 1648.14 1196.04 1636.4 1176.18 1626.03L1176.12 1626C1158.31 1616.71 1142.92 1608.71 1110.33 1608.71C1077.73 1608.71 1062.37 1616.71 1044.56 1626C1024.72 1636.37 1002.18 1648.14 959.235 1648.14C916.319 1648.14 893.84 1636.38 874.021 1626L874.011 1626C856.228 1616.71 840.873 1608.71 808.326 1608.71C775.728 1608.71 760.37 1616.71 742.562 1626C722.715 1636.37 700.182 1648.14 657.234 1648.14C614.286 1648.14 591.753 1636.37 571.906 1626C554.098 1616.71 538.74 1608.71 506.142 1608.71C473.57 1608.71 458.212 1616.71 440.404 1626L440.383 1626.01C420.538 1636.38 398.034 1648.14 355.101 1648.14C312.213 1648.14 289.732 1636.39 269.896 1626.02L269.852 1626C252.069 1616.71 236.71 1608.71 204.138 1608.71C192.471 1608.71 183 1599.21 183 1587.54C183 1575.88 192.471 1566.38 204.138 1566.38C247.054 1566.38 269.535 1578.13 289.371 1588.5L289.416 1588.53C307.199 1597.82 322.553 1605.82 355.101 1605.82C387.673 1605.82 403.031 1597.82 420.84 1588.53L420.86 1588.51C440.706 1578.14 463.209 1566.38 506.142 1566.38C549.091 1566.38 571.624 1578.15 591.47 1588.53C609.279 1597.82 624.637 1605.82 657.234 1605.82C689.832 1605.82 705.19 1597.82 722.998 1588.53C742.845 1578.15 765.378 1566.38 808.326 1566.38C851.242 1566.38 873.749 1578.15 893.594 1588.52L893.604 1588.53C911.362 1597.82 926.716 1605.82 959.239 1605.82C991.836 1605.82 1007.19 1597.82 1025 1588.53C1044.85 1578.15 1067.38 1566.38 1110.33 1566.38C1153.26 1566.38 1175.76 1578.13 1195.62 1588.49L1195.68 1588.53C1213.49 1597.82 1228.87 1605.82 1261.45 1605.82C1294.04 1605.82 1309.43 1597.82 1327.24 1588.53L1327.29 1588.5C1347.15 1578.13 1369.65 1566.38 1412.59 1566.38C1455.61 1566.38 1478.17 1578.15 1498.05 1588.53C1515.91 1597.82 1531.32 1605.82 1563.99 1605.82C1596.67 1605.82 1612.08 1597.82 1629.94 1588.53ZM1715.39 1679.99C1672.37 1679.99 1649.81 1691.77 1629.94 1702.14C1612.08 1711.43 1596.67 1719.43 1563.99 1719.43C1531.32 1719.43 1515.91 1711.43 1498.05 1702.14C1478.17 1691.77 1455.61 1679.99 1412.59 1679.99C1369.65 1679.99 1347.14 1691.75 1327.28 1702.12L1327.24 1702.14C1309.43 1711.43 1294.04 1719.43 1261.45 1719.43C1228.87 1719.43 1213.49 1711.43 1195.68 1702.14L1195.62 1702.11C1175.76 1691.74 1153.26 1679.99 1110.33 1679.99C1067.38 1679.99 1044.85 1691.77 1025 1702.14C1007.19 1711.43 991.836 1719.43 959.239 1719.43C926.716 1719.43 911.362 1711.43 893.604 1702.14L893.594 1702.14C873.75 1691.76 851.242 1679.99 808.326 1679.99C765.378 1679.99 742.845 1691.77 722.998 1702.14C705.19 1711.43 689.832 1719.43 657.234 1719.43C624.637 1719.43 609.279 1711.43 591.47 1702.14C571.624 1691.77 549.091 1679.99 506.142 1679.99C463.209 1679.99 440.705 1691.76 420.86 1702.13L420.84 1702.14C403.031 1711.43 387.673 1719.43 355.101 1719.43C322.553 1719.43 307.199 1711.43 289.416 1702.14L289.371 1702.12C269.536 1691.75 247.054 1679.99 204.138 1679.99C192.471 1679.99 183 1689.49 183 1701.16C183 1712.82 192.471 1722.32 204.138 1722.32C236.71 1722.32 252.069 1730.32 269.852 1739.61L269.896 1739.64C289.732 1750.01 312.213 1761.76 355.101 1761.76C398.034 1761.76 420.538 1750 440.383 1739.62L440.404 1739.61C458.212 1730.32 473.57 1722.32 506.142 1722.32C538.74 1722.32 554.098 1730.32 571.906 1739.61C591.753 1749.99 614.286 1761.76 657.234 1761.76C700.182 1761.76 722.715 1749.99 742.562 1739.61C760.37 1730.32 775.728 1722.32 808.326 1722.32C840.873 1722.32 856.228 1730.32 874.011 1739.61L874.021 1739.62C893.84 1749.99 916.319 1761.76 959.235 1761.76C1002.18 1761.76 1024.72 1749.99 1044.56 1739.61C1062.37 1730.32 1077.73 1722.32 1110.33 1722.32C1142.92 1722.32 1158.31 1730.32 1176.12 1739.61L1176.18 1739.64C1196.04 1750.01 1218.54 1761.76 1261.44 1761.76C1304.38 1761.76 1326.89 1750.01 1346.75 1739.64L1346.8 1739.61C1364.6 1730.32 1379.99 1722.32 1412.59 1722.32C1445.26 1722.32 1460.67 1730.32 1478.53 1739.61C1498.41 1749.99 1520.96 1761.76 1563.99 1761.76C1607.01 1761.76 1629.57 1749.99 1649.44 1739.61C1667.31 1730.32 1682.71 1722.32 1715.39 1722.32C1727.06 1722.32 1736.53 1712.82 1736.53 1701.16C1736.54 1689.49 1727.06 1679.99 1715.39 1679.99Z" fill="#D2AA1B"></path></svg> 