<?xml version="1.0" encoding="UTF-8"?> <svg xmlns="http://www.w3.org/2000/svg" xmlns:xlink="http://www.w3.org/1999/xlink" width="1202px" height="332px" viewBox="0 0 1202 332" version="1.1"><title>Govardhana</title><defs><filter x="-7.1%" y="-41.2%" width="114.3%" height="182.4%" filterUnits="objectBoundingBox" id="filter-1"><feGaussianBlur stdDeviation="25" in="SourceGraphic"></feGaussianBlur></filter></defs><g id="Page-1" stroke="none" stroke-width="1" fill="none" fill-rule="evenodd"><g id="Mahabhava-Dhama-ISKCON-Copy" transform="translate(-210.000000, -7.000000)"><g id="Group-4" transform="translate(0.000000, 26.000000)"><g id="Govardhana" transform="translate(285.000000, 30.000000)"><ellipse id="Oval" fill="#D2AA1B" opacity="0.500139509" filter="url(#filter-1)" cx="526" cy="117" rx="526" ry="91"></ellipse><g id="Group-2" transform="translate(8.000000, 8.000000)" stroke="#D2AA1B" stroke-linecap="round" stroke-linejoin="round"><polyline id="Shape" points="869.49309 186.611297 879.86592 185.157485 890.23875 183.471063 900.498831 181.435726 910.815287 179.225932 921.018995 176.725376 931.166328 173.992209 941.257288 170.96828 951.179125 167.769894 961.157336 164.222593 970.966425 160.500835 980.662766 156.546466 990.359107 152.301336 999.886326 147.823595 1009.35717 143.055092"></polyline><polyline id="Shape" points="680.132571 201.382026 703.866057 200.626043 727.599543 199.521146 751.276654 198.125487 775.01014 196.439065 798.630877 194.403728 822.307989 192.135782 845.928727 189.51892 869.49309 186.611297"></polyline><path d="M1001.97217,50.3600445 C925.865344,21.4597377 845.507801,6.27391932 764.411814,5.46633278" id="Shape"></path><path d="M1009.35717,142.996939 C1027.52668,134.19274 1038.48261,114.672027 1036.83736,94.0341438 C1035.19211,73.3962608 1021.2919,55.9840692 1001.97217,50.3600445" id="Shape"></path><polyline id="Shape" points="29.4066208 162.826934 38.9902135 167.130217 48.6865545 171.20089 58.4956436 175.038954 68.3047327 178.644407 78.2265699 182.017251 88.2611553 185.099332 98.3521148 187.948804 108.499448 190.507513 118.703156 192.833612 128.963238 194.927101 139.279693 196.78798 149.596149 198.358097 160.025353 199.637451 170.398183 200.684196"></polyline><path d="M278.523659,14.0728993 C194.307883,18.0928182 111.383358,36.9750621 33.352806,69.8992766" id="Shape"></path><path d="M33.352806,69.8992766 C14.2052045,76.238661 0.91311117,94.2115162 0.0450632686,114.936218 C-0.822984633,135.660921 10.916805,154.749422 29.4629948,162.768781" id="Shape"></path><polyline id="Shape" points="170.398183 200.684196 193.229683 202.603228 216.117558 204.173344 239.005432 205.569004 261.893307 206.615748 284.837556 207.313578 307.72543 207.83695 330.669679 208.011408 353.557553 207.953255 376.501802 207.604341"></polyline><polyline id="Shape" points="764.411814 5.46633278 734.026187 3.83806344 703.640561 2.44240401 673.311308 1.39565943 642.869307 0.63967724 612.483681 0.174457429 582.098054 0 551.656054 0.0581524763 521.270427 0.523372287 490.828427 1.221202 460.4428 2.15164162 430.113548 3.4309961 399.727921 4.94296049 369.398669 6.80383973 339.013042 8.95548136 308.740164 11.3978854 278.467285 14.1310518"></polyline><polyline id="Shape" points="376.501802 207.604341 404.125099 208.30217 431.692022 208.825543 459.315319 209 486.994989 209 514.561912 208.651085 542.185209 208.127713 569.808506 207.313578 597.375429 206.208681 624.998726 204.871174 652.565648 203.301057 680.132571 201.382026"></polyline></g><g id="Group-16" transform="translate(1.000000, 0.000000)" stroke="#D2AA1B" stroke-linecap="round" stroke-linejoin="round"><polyline id="Shape" points="877.195963 201.872417 887.734722 200.41968 898.329838 198.676395 908.81224 196.642562 919.181929 194.376291 929.551617 191.819473 939.921305 189.030217 950.121922 186.008523 960.266182 182.696281 970.354085 179.151601 980.329274 175.374483 990.191749 171.306818 999.997867 167.006715 1009.74763 162.474174 1019.38468 157.651085"></polyline><polyline id="Shape" points="775.471578 212.274019 801.001299 210.182076 826.418306 207.799587 851.835313 205.010331 877.25232 201.872417"></polyline><path d="M1011.26927,51.6012397 C951.223594,27.7272096 888.034453,13.3094654 823.825884,8.83264463" id="Shape"></path><path d="M1019.2156,157.651085 C1040.10446,147.586414 1052.71004,125.178724 1050.81191,101.485452 C1048.91378,77.7921802 1032.91311,57.8209591 1010.7057,51.4269112" id="Shape"></path><polyline id="Shape" points="177.242019 215.993027 202.602669 217.852531 227.963319 219.421488 253.323969 220.758006 278.740976 221.862087 304.101627 222.733729 329.574991 223.256715 354.991998 223.605372"></polyline><path d="M268.484002,15.9220041 C189.222554,21.5027797 111.342967,40.1606345 37.8147999,71.1841426" id="Shape"></path><path d="M38.2656559,71.009814 C16.3983915,78.3242786 1.19372093,98.8162081 0.0669296512,122.491732 C-1.05986163,146.167256 12.1258918,168.095714 33.1935259,177.582645" id="Shape"></path><polyline id="Shape" points="33.1935259 177.524535 42.9996439 181.998967 52.862119 186.124742 62.8936651 190.018079 72.9815681 193.678977 83.1258282 197.107438 93.3264453 200.245351 103.696133 203.092717 114.009464 205.765754 124.435509 208.148244 134.917912 210.240186 145.456671 212.041581 155.99543 213.668647 166.646903 214.947056 177.242019 215.993027"></polyline><polyline id="Shape" points="823.769527 8.83264463 794.576601 6.79881198 765.327318 4.99741736 736.134391 3.48657025 706.828751 2.26627066 677.635825 1.3365186 648.330185 0.522985537 619.137259 0.116219008 589.831618 0 560.582335 0.0581095041 531.333052 0.464876033 502.083769 1.10408058 472.778129 2.03383264 443.585202 3.19602273 414.335919 4.59065083 385.142993 6.33393595 355.950067 8.3677686 326.700784 10.5759298 297.564215 13.0746384 268.427645 15.8638946"></polyline><polyline id="Shape" points="354.991998 223.605372 387.284559 224.360795 419.689834 224.825671 452.09511 225 484.444028 224.94189 516.792946 224.593233 549.198221 223.954029 581.547139 223.140496 613.952415 221.920196 646.244976 220.525568 678.593894 218.898502 710.886455 216.922779 743.235373 214.772727 775.471578 212.274019"></polyline></g><path d="M111.668493,119.374216 L111.668493,112.568739 L115.121118,112.568739 L115.121118,111.142613 L110,111.142613 L110,119.374216 L111.668493,119.374216 Z M203.991796,119.516828 C206.343105,119.516828 207.824375,117.879635 207.824375,115.261266 C207.824375,112.637193 206.343105,111 203.991796,111 C201.63498,111 200.159217,112.637193 200.159217,115.261266 C200.159217,117.879635 201.63498,119.516828 203.991796,119.516828 Z M203.991796,118.073588 C202.686737,118.073588 201.855243,116.984027 201.855243,115.261266 C201.855243,113.532801 202.692243,112.437536 203.991796,112.437536 C205.291349,112.437536 206.122842,113.532801 206.122842,115.261266 C206.122842,116.984027 205.291349,118.073588 203.991796,118.073588 Z M297.102539,119.374216 C298.798566,119.374216 299.850322,118.467199 299.850322,117.018254 C299.850322,115.928694 299.057375,115.112949 297.978086,115.027382 L297.978086,114.981746 C298.820592,114.850542 299.470368,114.097547 299.470368,113.196235 C299.470368,111.935539 298.53425,111.142613 297.041967,111.142613 L293.583836,111.142613 L293.583836,119.374216 L297.102539,119.374216 Z M296.44175,114.565317 L295.246822,114.565317 L295.246822,112.426127 L296.612454,112.426127 C297.388882,112.426127 297.834914,112.802624 297.834914,113.464347 C297.834914,114.160297 297.328309,114.565317 296.44175,114.565317 Z M296.678533,118.090702 L295.246822,118.090702 L295.246822,115.700513 L296.639987,115.700513 C297.620158,115.700513 298.154296,116.111238 298.154296,116.881346 C298.154296,117.668568 297.636678,118.090702 296.678533,118.090702 Z M386.551408,119.374216 L387.157132,117.377638 L389.948967,117.377638 L390.554691,119.374216 L392.322303,119.374216 L389.558,111.142613 L387.603164,111.142613 L384.844368,119.374216 L386.551408,119.374216 Z M389.591039,116.08842 L387.515059,116.08842 L388.533776,112.717056 L388.572322,112.717056 L389.591039,116.08842 Z M479.485941,119.374216 L479.485941,116.778665 L480.972717,116.778665 C482.646717,116.778665 483.808605,115.649173 483.808605,113.960639 C483.808605,112.2664 482.685263,111.142613 481.055316,111.142613 L477.822954,111.142613 L477.822954,119.374216 L479.485941,119.374216 Z M480.609283,115.432402 L479.485941,115.432402 L479.485941,112.50599 L480.614789,112.50599 C481.567428,112.50599 482.118086,113.030804 482.118086,113.966343 C482.118086,114.907587 481.561921,115.432402 480.609283,115.432402 Z M570.052645,121 L570.052645,119.374216 L575.278388,119.374216 L575.278388,121 L576.781684,121 L576.781684,117.948089 L575.7905,117.948089 L575.7905,111.142613 L570.15727,111.142613 L569.881941,115.791786 C569.815862,116.909869 569.656171,117.554478 569.100007,117.948089 L568.543842,117.948089 L568.543842,121 L570.052645,121 Z M574.127513,117.948089 L570.884138,117.948089 L570.884138,117.902453 C571.236559,117.474615 571.352197,116.841415 571.41277,115.922989 L571.62202,112.55733 L574.127513,112.55733 L574.127513,117.948089 Z M663.669993,119.374216 L665.421086,116.49344 L665.465138,116.49344 L667.205217,119.374216 L669.09948,119.374216 L666.533414,115.27838 L666.533414,115.238448 L669.13252,111.142613 L667.276803,111.142613 L665.57527,114.108956 L665.531217,114.108956 L663.846204,111.142613 L661.891368,111.142613 L664.396862,115.204221 L664.396862,115.249857 L661.874849,119.374216 L663.669993,119.374216 Z M755.839112,119.374216 L756.444836,117.377638 L759.236671,117.377638 L759.842395,119.374216 L761.610007,119.374216 L758.845704,111.142613 L756.890868,111.142613 L754.132072,119.374216 L755.839112,119.374216 Z M758.878743,116.08842 L756.802763,116.08842 L757.82148,112.717056 L757.860026,112.717056 L758.878743,116.08842 Z M848.773645,119.374216 L848.773645,115.905876 L852.352921,115.905876 L852.352921,119.374216 L854.015908,119.374216 L854.015908,111.142613 L852.352921,111.142613 L852.352921,114.485454 L848.773645,114.485454 L848.773645,111.142613 L847.110658,111.142613 L847.110658,119.374216 L848.773645,119.374216 Z M941.229105,119.374216 L941.834829,117.377638 L944.626664,117.377638 L945.232388,119.374216 L947,119.374216 L944.235697,111.142613 L942.280862,111.142613 L939.522066,119.374216 L941.229105,119.374216 Z M944.268737,116.08842 L942.192757,116.08842 L943.211474,112.717056 L943.25002,112.717056 L944.268737,116.08842 Z" id="ГОВАРДХАНА" fill="#656564" fill-rule="nonzero"></path></g></g></g></g></svg> 