<?xml version="1.0" encoding="UTF-8"?> <svg xmlns="http://www.w3.org/2000/svg" width="394" height="50" viewBox="0 0 394 50" fill="none"><path d="M379.788 48.7935L376.102 21.5147L367.255 48.7935H357.134L348.354 21.4477L345.271 48.7935H332.201L337.362 1.20642H354.051L362.831 27.681L371.611 1.20642H388.703L393.863 48.7935H379.788Z" fill="black"></path><path d="M302.71 50C298.241 50 294.153 48.9723 290.444 46.9169C286.736 44.8168 283.786 41.8677 281.597 38.0697C279.452 34.2717 278.38 29.9151 278.38 25C278.38 20.0849 279.452 15.7283 281.597 11.9303C283.786 8.13226 286.736 5.20554 290.444 3.15013C294.153 1.05004 298.241 0 302.71 0C307.178 0 311.266 1.05004 314.975 3.15013C318.728 5.20554 321.677 8.13226 323.822 11.9303C326.012 15.7283 327.106 20.0849 327.106 25C327.106 29.9151 326.012 34.2717 323.822 38.0697C321.677 41.8677 318.728 44.8168 314.975 46.9169C311.266 48.9723 307.178 50 302.71 50ZM302.71 36.193C305.212 36.193 307.312 35.2547 309.01 33.378C310.708 31.4567 311.557 28.664 311.557 25C311.557 21.336 310.708 18.5657 309.01 16.689C307.312 14.7677 305.212 13.807 302.71 13.807C300.207 13.807 298.13 14.7677 296.476 16.689C294.823 18.5657 293.997 21.336 293.997 25C293.997 28.664 294.823 31.4567 296.476 33.378C298.13 35.2547 300.207 36.193 302.71 36.193Z" fill="black"></path><path d="M261.217 50C256.034 50 251.611 48.9723 247.947 46.9169C244.283 44.8615 241.49 41.9571 239.569 38.2038C237.647 34.4504 236.687 30.0492 236.687 25C236.687 19.9955 237.67 15.6166 239.636 11.8633C241.602 8.06524 244.417 5.13852 248.081 3.08311C251.789 1.0277 256.168 0 261.217 0C265.462 0 269.729 1.00536 274.019 3.01609L271.539 16.3539C268.769 15.0581 265.909 14.4102 262.96 14.4102C259.922 14.4102 257.375 15.3485 255.319 17.2252C253.309 19.1019 252.303 21.6935 252.303 25C252.303 28.3959 253.219 31.0098 255.051 32.8418C256.928 34.6738 259.586 35.5898 263.027 35.5898C264.904 35.5898 266.423 35.4334 267.585 35.1206C268.791 34.7632 270.31 34.227 272.142 33.5121L274.689 46.7828C272.678 47.7212 270.601 48.4808 268.456 49.0617C266.356 49.6872 263.943 50 261.217 50Z" fill="black"></path><path d="M224.386 49.3298C221.839 49.3298 219.784 48.6372 218.22 47.252C216.656 45.8669 215.874 43.9679 215.874 41.555C215.874 39.1421 216.656 37.1761 218.22 35.6569C219.828 34.1377 221.884 33.3781 224.386 33.3781C226.933 33.3781 228.988 34.1377 230.552 35.6569C232.161 37.1761 232.965 39.1421 232.965 41.555C232.965 43.9679 232.183 45.8669 230.619 47.252C229.055 48.6372 226.978 49.3298 224.386 49.3298Z" fill="black"></path><path d="M193.535 50C188.799 50 184.844 49.3968 181.672 48.1903C178.499 46.9392 175.707 45.286 173.294 43.2306L178.12 33.0429C181.113 34.8302 183.549 36.1483 185.425 36.9973C187.302 37.8016 189.313 38.2038 191.457 38.2038C192.977 38.2038 194.116 37.958 194.876 37.4665C195.68 36.975 196.082 36.3047 196.082 35.4558C196.082 34.5621 195.658 33.8695 194.809 33.378C194.004 32.8418 192.709 32.328 190.921 31.8365C187.615 30.8981 184.934 29.9821 182.878 29.0885C180.823 28.1501 178.969 26.6309 177.315 24.5308C175.662 22.3861 174.835 19.4817 174.835 15.8177C174.835 12.2431 175.684 9.27167 177.382 6.90349C179.125 4.5353 181.382 2.79267 184.152 1.67561C186.922 0.558537 189.894 0 193.066 0C197.222 0 200.662 0.536193 203.388 1.60858C206.158 2.63628 208.526 4.11081 210.492 6.03217L205.466 15.6166C202.919 14.2315 200.819 13.2261 199.165 12.6005C197.557 11.975 195.903 11.6622 194.205 11.6622C192.82 11.6622 191.703 11.8856 190.854 12.3324C190.05 12.7793 189.648 13.4048 189.648 14.2091C189.648 15.0134 190.072 15.6613 190.921 16.1528C191.815 16.6443 193.178 17.1582 195.01 17.6944C198.584 18.7668 201.399 19.7498 203.455 20.6434C205.51 21.4924 207.387 22.9446 209.085 25C210.827 27.0107 211.699 29.714 211.699 33.1099C211.699 38.6506 210.023 42.8508 206.672 45.7105C203.321 48.5702 198.942 50 193.535 50Z" fill="black"></path><path d="M151.46 49.3968C148.69 49.3968 145.473 48.9723 141.809 48.1233L142.881 36.126C143.149 36.1707 143.752 36.2824 144.691 36.4611C145.629 36.6398 146.545 36.7292 147.439 36.7292C149.449 36.7292 150.902 36.126 151.795 34.9196C152.689 33.7131 153.136 31.9482 153.136 29.6247V1.20642H167.881V32.7078C167.881 38.6953 166.384 42.9848 163.39 45.5764C160.441 48.1233 156.465 49.3968 151.46 49.3968Z" fill="black"></path><path d="M121.96 40.3485H107.952L105.338 48.7935H90.9951L107.617 1.20642H124.306L140.861 48.7935H124.507L121.96 40.3485ZM119.145 31.3003L114.923 17.4263L110.7 31.3003H119.145Z" fill="black"></path><path d="M65.0607 33.9142H63.05V48.7935H48.3047V1.20642H70.4897C76.7006 1.20642 81.437 2.59159 84.6988 5.36192C87.9606 8.08757 89.5916 11.975 89.5916 17.0241C89.5916 20.6881 88.7426 23.8606 87.0447 26.5415C85.3914 29.1778 82.9338 31.1215 79.672 32.3726L90.798 48.7935H73.8409L65.0607 33.9142ZM63.05 24.3968H67.0044C71.6514 24.3968 73.9749 22.4531 73.9749 18.5657C73.9749 16.7784 73.4164 15.5049 72.2993 14.7453C71.1823 13.941 69.4173 13.5389 67.0044 13.5389H63.05V24.3968Z" fill="black"></path><path d="M32.1716 24.5308C35.1653 25.2457 37.4442 26.4745 39.0081 28.2171C40.572 29.9151 41.3539 32.2833 41.3539 35.3217C41.3539 39.7006 39.723 43.0518 36.4612 45.3753C33.1993 47.6541 28.4629 48.7935 22.252 48.7935H0V1.20642H20.9115C27.1225 1.20642 31.7918 2.34583 34.9196 4.62465C38.0921 6.90347 39.6783 10.2547 39.6783 14.6783C39.6783 17.4933 39.0528 19.6827 37.8016 21.2466C36.5505 22.7658 34.6738 23.8606 32.1716 24.5308ZM14.7453 12.1984V21.0456H19.9732C21.5371 21.0456 22.6765 20.6211 23.3914 19.7721C24.151 18.9231 24.5308 17.8061 24.5308 16.4209C24.5308 15.0804 24.151 14.0527 23.3914 13.3378C22.6318 12.5782 21.4924 12.1984 19.9732 12.1984H14.7453ZM20.9115 37.8016C22.4308 37.8016 23.6372 37.3548 24.5308 36.4611C25.4245 35.5675 25.8713 34.4504 25.8713 33.1099C25.8713 31.8141 25.4468 30.8087 24.5979 30.0938C23.7489 29.3342 22.5201 28.9544 20.9115 28.9544H14.7453V37.8016H20.9115Z" fill="black"></path></svg> 