<?xml version="1.0" encoding="UTF-8"?> <svg xmlns="http://www.w3.org/2000/svg" xmlns:xlink="http://www.w3.org/1999/xlink" width="701px" height="700px" viewBox="0 0 701 700"> <title>Combined Shape</title> <g id="Page-1" stroke="none" stroke-width="1" fill="none" fill-rule="evenodd"> <g id="Artboard-Copy-34" transform="translate(0.000000, -1.000000)" fill="#919195"> <path d="M350.681779,1 C544.356523,1 701.364114,157.666403 701.364114,350.920277 C701.364114,544.173597 544.356523,700.84 350.681779,700.84 C157.007591,700.84 2.72848411e-12,544.173597 2.72848411e-12,350.920277 C2.72848411e-12,157.666403 157.007591,1 350.681779,1 Z M337.95286,276.840872 C331.64894,275.20874 325.616061,272.667158 320.037509,269.295378 C310.273376,275.190451 299.223466,278.498498 287.808094,278.949066 L285.878595,279.025546 L285.878595,263.652468 L287.642026,263.568783 C294.300299,263.247899 300.803056,261.66897 306.840933,258.90349 C300.999671,253.016176 296.263123,245.972791 296.263123,237.332189 C296.263123,224.083376 307.029773,213.339568 320.307994,213.339568 C333.588437,213.339568 344.355643,224.083376 344.355643,237.332189 C344.355643,246.586295 339.409704,252.91919 333.261855,258.913466 C339.284737,261.66897 345.756391,263.24014 352.379117,263.566012 L352.379117,229.723515 L345.631423,229.723515 L345.631423,213.339568 L352.968408,213.339568 C354.729618,201.720117 364.789785,192.965349 376.74335,192.965349 C388.701914,192.965349 398.76708,201.730093 400.520513,213.360074 C402.567205,213.441542 404.0396,213.813413 405.884677,215.496532 C407.592012,217.059943 408.507885,219.229654 408.507885,221.531819 C408.507885,225.17793 405.97632,228.495953 402.452234,229.453618 C401.96736,229.586073 401.477487,229.66477 400.979839,229.710769 C400.979839,259.392298 400.979839,289.073828 400.979839,318.755357 L400.979839,320.606954 L384.560211,320.606954 L384.560211,229.723515 L368.801522,229.723515 L368.801522,320.606954 L352.379117,320.606954 L352.379117,283.881486 C337.335243,304.156503 313.558079,316.275292 287.96361,316.275292 L286.105758,316.275292 L286.105758,300.586318 L287.96361,300.586318 C307.479101,300.586318 325.738807,291.837091 337.95286,276.840872 L337.95286,276.840872 Z M175.6422,490.074372 C145.125119,451.907972 126.878188,403.54033 126.878188,350.920277 C126.878188,298.297453 145.125119,249.929811 175.6422,211.765628 L175.6422,211.773386 C216.647671,160.48287 279.812947,127.605243 350.679558,127.605243 C474.278596,127.605243 574.478151,227.587057 574.478151,350.920277 C574.478151,474.252943 474.278596,574.234757 350.679558,574.234757 C279.812947,574.234757 216.647671,541.357684 175.6422,490.066614 L175.6422,490.074372 Z M499.699222,364.640163 L499.699222,480.700558 L472.992263,480.700558 L472.992263,364.759871 L453.295708,364.759871 L453.295708,480.700558 L426.589304,480.700558 L426.589304,449.689492 C414.436347,456.985594 396.781484,468.895448 383.781524,468.895448 C372.22841,468.895448 361.811114,463.695347 355.117295,454.273317 C345.542557,440.797281 346.231268,422.8272 357.062346,410.420779 C350.273552,404.640426 346.333463,396.201 346.333463,387.204599 C346.333463,378.569539 349.972519,370.477045 356.189239,364.759871 L311.738551,364.759871 L311.738551,480.700558 L285.03437,480.700558 L285.03437,364.759871 L266.345886,364.759871 L266.345886,388.758034 C266.468076,390.385178 266.445305,392.195764 266.445305,393.835655 C266.445305,417.706351 248.08618,430.555582 226.253512,425.992262 C236.058745,444.20453 254.131833,456.817116 274.867008,459.524404 L276.479923,459.732785 L276.479923,480.616319 L274.433232,480.407938 C239.93996,476.845511 210.905828,452.656148 201.170021,419.496431 C194.692813,397.431334 204.59191,394.011338 224.459533,398.12409 C228.89727,399.042961 236.515293,400.57589 238.835247,395.320369 C239.25847,394.362704 239.480635,393.300848 239.590606,392.264486 L239.638927,383.008162 L239.638927,364.759871 L191.148177,364.759871 L191.148177,339.756382 L406.001869,339.756382 L406.001869,364.759871 L404.146795,364.759871 C392.869166,364.759871 368.982586,373.560639 368.982586,387.204599 C368.982586,391.584477 372.539996,395.13194 376.927191,395.13194 C378.340713,395.13194 379.718689,394.760069 380.938928,394.046807 C380.995025,394.014109 381.05612,393.980857 381.114993,393.952593 L399.634632,383.285819 L410.68732,402.386476 L402.949883,407.059529 C393.862241,412.541719 370.597723,421.072589 370.597723,433.580984 C370.597723,440.846051 376.500635,446.736136 383.781524,446.736136 C385.146725,446.736136 386.501929,446.529418 387.803813,446.112102 C393.907785,444.16629 402.863239,438.502874 408.456787,435.141624 C410.680099,433.807654 412.892303,432.460383 415.100064,431.108124 C418.915185,428.77326 422.725307,426.381868 426.589304,424.130689 L426.589304,364.759871 L414.546318,364.759871 L414.546318,339.756382 L496.700556,339.756382 C497.966338,339.756382 499.288218,339.779104 500.53345,340.008545 C512.933566,342.292422 513.523413,360.927547 501.674265,364.248341 C501.051649,364.424024 500.377935,364.553707 499.699222,364.640163 L499.699222,364.640163 Z M384.692954,213.339568 C383.301648,210.294215 380.221336,208.233682 376.732797,208.233682 C373.244258,208.233682 370.163946,210.294215 368.770974,213.339568 L384.692954,213.339568 Z M320.297997,250.94068 C324.41915,247.116115 329.040728,243.438968 329.040728,237.332189 C329.040728,232.514489 325.128966,228.608456 320.297997,228.608456 C315.46925,228.608456 311.55471,232.514489 311.55471,237.332189 C311.55471,243.418462 316.184065,247.123319 320.297997,250.94068 Z M351.799354,673.265317 C356.214694,676.322985 362.066255,684.480832 351.466441,694 C351.466441,694 346.304327,689.73676 345.545264,684.239525 C348.393793,682.255109 350.069591,679.153078 351.005145,676.664924 L351.466441,684.228675 L351.886543,677.355523 C351.886543,677.355523 351.887215,677.356291 351.887215,677.357059 L351.864169,676.602413 L351.799354,673.265317 Z M397.069624,667.184236 C401.484965,670.241904 407.336525,678.399751 396.736711,687.918919 C396.736711,687.918919 391.574598,683.655679 390.815534,678.158444 C393.664063,676.174028 395.339861,673.071997 396.275416,670.583843 L396.736711,678.147594 L397.156813,671.274442 L397.157,671.274 L397.13444,670.521332 L397.069624,667.184236 Z M306.529083,667.184236 C310.944424,670.241904 316.795984,678.399751 306.196171,687.918919 C306.196171,687.918919 301.034057,683.655679 300.274993,678.158444 C303.123523,676.174028 304.799321,673.071997 305.734875,670.583843 L306.196171,678.147594 L306.616608,671.274922 L306.616608,671.274922 L306.593899,670.521332 L306.529083,667.184236 Z M350.276233,673.719219 C350.277769,673.723444 350.279882,673.729301 350.281994,673.735159 C349.706143,676.032899 348.047053,680.994516 344.071979,683.348622 C342.121555,684.503205 339.88719,684.866557 337.846792,684.866557 C334.374208,684.866557 331.462303,683.814238 331.462303,683.814238 C331.462303,683.814238 331.463616,683.805927 331.466344,683.789739 L331.478869,683.717981 C331.623099,682.914594 332.752141,677.27276 336.532234,674.01257 C336.872348,674.199239 337.222737,674.372273 337.588778,674.525046 C339.038921,675.129128 340.667763,675.436114 342.427965,675.436114 C343.404522,675.436114 344.353807,675.338747 345.253353,675.188855 L339.871442,678.835817 L348.668324,674.328294 C349.294587,674.115699 349.837983,673.90368 350.276233,673.719219 Z M359.277356,670.528463 C360.865196,670.528463 362.520637,670.788013 364.060273,671.505115 C368.845873,673.733268 370.960719,679.656775 371.453079,681.248455 L371.504442,681.41815 C371.54815,681.566025 371.569099,681.646898 371.569099,681.646898 C371.569099,681.646898 367.894001,683.401915 363.761161,683.401915 C362.203568,683.401146 360.583176,683.146013 359.068217,682.460599 C358.936953,679.195616 357.542408,676.680864 356.012853,674.885421 L362.711627,677.521259 L353.589707,672.57539 C353.185449,672.262546 352.835828,672.017591 352.56341,671.837355 C353.950946,671.316333 356.495946,670.528463 359.277356,670.528463 Z M305.005963,667.638138 C305.007499,667.642363 305.009611,667.64822 305.011724,667.654078 C304.435873,669.951818 302.776783,674.913435 298.801709,677.267541 C296.851285,678.422124 294.61692,678.785476 292.576522,678.785476 C289.103937,678.785476 286.192033,677.733157 286.192033,677.733157 L286.19303,677.726978 L286.208599,677.6369 C286.352829,676.833513 287.481871,671.191679 291.261964,667.931489 C291.602078,668.118158 291.952467,668.291192 292.318508,668.443965 C293.768651,669.048047 295.397493,669.355033 297.157695,669.355033 C298.134251,669.355033 299.083537,669.257666 299.983083,669.107774 L294.601172,672.754736 L303.398053,668.247213 C304.024317,668.034618 304.567713,667.822598 305.005963,667.638138 Z M395.546503,667.638138 C395.54804,667.642363 395.550152,667.64822 395.552265,667.654078 C394.976413,669.951818 393.317324,674.913435 389.342249,677.267541 C387.391825,678.422124 385.15746,678.785476 383.117062,678.785476 C380.140561,678.785476 377.575988,678.012344 376.903998,677.791449 L376.795273,677.755026 C376.753967,677.740889 376.732573,677.733157 376.732573,677.733157 L376.733571,677.726978 L376.741779,677.678523 C376.850113,677.055677 377.948292,671.255604 381.802504,667.931489 C382.142619,668.118158 382.493007,668.291192 382.859048,668.443965 C384.309191,669.048047 385.938033,669.355033 387.698235,669.355033 C388.674792,669.355033 389.624078,669.257666 390.523623,669.107774 L385.141713,672.754736 L393.938594,668.247213 C394.564858,668.034618 395.108253,667.822598 395.546503,667.638138 Z M314.007085,664.447381 C315.594926,664.447381 317.250366,664.706932 318.790003,665.424034 C323.958451,667.830439 326.011732,674.547105 326.270361,675.462096 L326.291779,675.539373 C326.296501,675.556831 326.298829,675.565817 326.298829,675.565817 C326.298829,675.565817 322.623731,677.320834 318.490891,677.320834 C316.933298,677.320065 315.312905,677.064932 313.797947,676.379518 C313.666683,673.114535 312.272137,670.599783 310.742583,668.80434 L317.441357,671.440178 L308.319437,666.494309 C307.915179,666.181465 307.565558,665.93651 307.29314,665.756274 C308.680676,665.235252 311.225676,664.447381 314.007085,664.447381 Z M404.547626,664.447381 C406.135466,664.447381 407.790907,664.706932 409.330544,665.424034 C414.116143,667.652187 416.23099,673.575694 416.72335,675.167374 L416.774712,675.337069 C416.818421,675.484944 416.839369,675.565817 416.839369,675.565817 C416.839369,675.565817 413.164272,677.320834 409.031431,677.320834 C407.473838,677.320065 405.853446,677.064932 404.338487,676.379518 C404.207224,673.114535 402.812678,670.599783 401.283124,668.80434 L407.981897,671.440178 L398.859977,666.494309 C398.455719,666.181465 398.106099,665.93651 397.833681,665.756274 C399.221217,665.235252 401.766217,664.447381 404.547626,664.447381 Z M338.583483,661.169269 C339.25747,661.169269 339.942019,661.222658 340.623304,661.337886 C340.656336,661.687507 340.695322,662.037703 340.762346,662.390205 C341.230075,664.853105 342.509393,666.951309 343.951086,668.629891 L339.290598,667.014012 L345.122281,669.873104 C346.457869,671.179884 347.779725,672.134259 348.625977,672.684088 C347.066944,673.249281 344.813086,673.871896 342.427293,673.871896 C341.019688,673.871896 339.566569,673.655651 338.189979,673.081336 C332.536995,670.726558 330.27027,663.257294 330.27027,663.257294 C330.27027,663.257294 334.215673,661.169269 338.583483,661.169269 Z M346.147233,650.081081 C346.147233,650.081081 352.783304,653.731885 354.069055,659.595256 C351.553438,662.283523 350.588404,665.918387 350.231582,668.586008 L347.969947,659.681005 L349.457539,671.358007 C347.607363,670.149363 343.197111,666.828687 342.298238,662.09839 C341.271421,656.694057 345.195348,651.301812 346.004055,650.260975 L346.081865,650.161967 C346.124288,650.108665 346.147233,650.081081 346.147233,650.081081 Z M365.605575,656.977374 C367.046404,656.977374 368.005676,657.116608 368.005676,657.116608 C368.005676,657.116608 368.380551,664.912255 363.849022,669.029252 C363.645741,669.21304 363.423927,669.362932 363.208931,669.527324 C361.995966,669.161092 360.684192,668.965108 359.27726,668.965108 C357.798214,668.965108 356.397042,669.176359 355.158055,669.450218 L360.772918,663.686999 L352.778118,670.105384 C352.328538,670.255949 351.925528,670.400175 351.617678,670.522797 C351.753166,668.055576 352.445782,663.114796 355.747733,660.114166 C358.68326,657.447408 362.95735,656.977374 365.605575,656.977374 Z M383.853753,655.088188 C384.52774,655.088188 385.21229,655.141577 385.893575,655.256805 C385.926607,655.606425 385.965592,655.956622 386.032616,656.309124 C386.500345,658.772024 387.779663,660.870228 389.221356,662.54881 L384.560868,660.932931 L390.392552,663.792023 C391.728139,665.098803 393.049995,666.053178 393.896248,666.603007 C392.337214,667.1682 390.083357,667.790815 387.697563,667.790815 C386.289959,667.790815 384.836839,667.57457 383.46025,667.000255 C377.807265,664.645477 375.540541,657.176213 375.540541,657.176213 C375.540541,657.176213 379.485944,655.088188 383.853753,655.088188 Z M293.313212,655.088188 C293.987199,655.088188 294.671749,655.141577 295.353034,655.256805 C295.386066,655.606425 295.425051,655.956622 295.492076,656.309124 C295.959805,658.772024 297.239123,660.870228 298.680816,662.54881 L294.020327,660.932931 L299.852011,663.792023 C301.187598,665.098803 302.509454,666.053178 303.355707,666.603007 C301.796674,667.1682 299.542816,667.790815 297.157023,667.790815 C295.749418,667.790815 294.296298,667.57457 292.919709,667.000255 C287.266725,664.645477 285,657.176213 285,657.176213 C285,657.176213 285.018341,657.166507 285.053907,657.148417 L285.147674,657.101452 C285.902137,656.728625 289.441745,655.088188 293.313212,655.088188 Z M300.876963,644 C300.876963,644 307.513033,647.650804 308.798785,653.514175 C306.283168,656.202442 305.318134,659.837306 304.961312,662.504927 L302.699676,653.599924 L304.187268,665.276926 C302.337093,664.068282 297.926841,660.747606 297.027967,656.017309 C295.923655,650.205102 300.545568,644.406876 300.860188,644.020455 L300.876963,644 L300.876963,644 Z M391.417504,644 C391.417504,644 398.053574,647.650804 399.339325,653.514175 C396.823708,656.202442 395.858675,659.837306 395.501852,662.504927 L393.240217,653.599924 L394.727809,665.276926 C392.877633,664.068282 388.467382,660.747606 387.568508,656.017309 C386.522317,650.511007 390.615454,645.017254 391.31672,644.125655 L391.400728,644.020455 C391.411767,644.006896 391.417504,644 391.417504,644 Z M320.335305,650.896293 C321.776134,650.896293 322.735406,651.035527 322.735406,651.035527 C322.735406,651.035527 322.740185,651.134899 322.742141,651.31713 L322.742503,651.595783 C322.728696,653.454553 322.379389,659.495206 318.578752,662.948171 L318.370232,663.122453 L318.370232,663.122453 L317.938661,663.446243 L317.938661,663.446243 C316.725695,663.08001 315.413922,662.884027 314.006989,662.884027 C312.527943,662.884027 311.126772,663.095278 309.887784,663.369136 L315.502647,657.605917 L307.507848,664.024303 C307.058267,664.174867 306.655258,664.319094 306.347407,664.441716 C306.482896,661.974495 307.175512,657.033715 310.477463,654.033085 C313.41299,651.366327 317.68708,650.896293 320.335305,650.896293 Z M410.875846,650.896293 C412.316674,650.896293 413.275947,651.035527 413.275947,651.035527 C413.275947,651.035527 413.282188,651.165319 413.283325,651.400254 L413.283044,651.595783 C413.269236,653.454553 412.91993,659.495206 409.119293,662.948171 C408.916011,663.131959 408.694198,663.281851 408.479202,663.446243 C407.266236,663.08001 405.954462,662.884027 404.54753,662.884027 C403.068484,662.884027 401.667313,663.095278 400.428325,663.369136 L406.043188,657.605917 L398.048389,664.024303 C397.598808,664.174867 397.195798,664.319094 396.887948,664.441716 C397.023437,661.974495 397.716052,657.033715 401.018004,654.033085 C403.95353,651.366327 408.227621,650.896293 410.875846,650.896293 Z M350.681779,62.9833378 C510.049869,62.9833378 639.245789,191.898505 639.245789,350.920277 C639.245789,509.941495 510.049869,638.856662 350.681779,638.856662 C191.314245,638.856662 62.1183254,509.941495 62.1183254,350.920277 C62.1183254,191.898505 191.314245,62.9833378 350.681779,62.9833378 Z M35.2437257,396.833681 C35.7647478,398.221217 36.5526186,400.766217 36.5526186,403.547626 C36.5526186,405.135466 36.2930677,406.790907 35.5759661,408.330544 C33.347813,413.116143 27.4243064,415.23099 25.8326262,415.72335 L25.662931,415.774712 C25.5150562,415.818421 25.4341832,415.839369 25.4341832,415.839369 C25.4341832,415.839369 23.6791664,412.164272 23.6791664,408.031431 C23.6799346,406.473838 23.9350684,404.853446 24.6204823,403.338487 C27.8854646,403.207224 30.4002173,401.812678 32.1956599,400.283124 L29.5598219,406.981897 L34.5056911,397.859977 C34.8185348,397.455719 35.0634901,397.106099 35.2437257,396.833681 Z M665.756274,396.833681 C665.93651,397.106099 666.181465,397.455719 666.494309,397.859977 L666.494309,397.859977 L671.440178,406.981897 L668.80434,400.283124 C670.599783,401.812678 673.114535,403.207224 676.379518,403.338487 C677.064932,404.853446 677.320065,406.473838 677.320834,408.031431 C677.320834,412.164272 675.565817,415.839369 675.565817,415.839369 C675.565817,415.839369 675.484944,415.818421 675.337069,415.774712 L675.167374,415.72335 C673.575694,415.23099 667.652187,413.116143 665.424034,408.330544 C664.706932,406.790907 664.447381,405.135466 664.447381,403.547626 C664.447381,400.766217 665.235252,398.221217 665.756274,396.833681 Z M36.5582839,395.887948 C39.0255051,396.023437 43.9662851,396.716052 46.9669154,400.018004 C49.6336729,402.95353 50.1037067,407.227621 50.1037067,409.875846 C50.1037067,411.316674 49.964473,412.275947 49.964473,412.275947 C49.964473,412.275947 49.8346807,412.282188 49.5997465,412.283325 L49.4042168,412.283044 C47.5454467,412.269236 41.5047943,411.91993 38.0518294,408.119293 C37.868041,407.916011 37.7181487,407.694198 37.5537569,407.479202 C37.9199895,406.266236 38.115973,404.954462 38.115973,403.54753 C38.115973,402.068484 37.9047218,400.667313 37.6308635,399.428325 L43.3940826,405.043188 L36.975697,397.048389 C36.8251325,396.598808 36.6809056,396.195798 36.5582839,395.887948 Z M664.441716,395.887948 C664.319094,396.195798 664.174867,396.598808 664.024303,397.048389 L664.024303,397.048389 L657.605917,405.043188 L663.369136,399.428325 C663.095278,400.667313 662.884027,402.068484 662.884027,403.54753 C662.884027,404.954462 663.08001,406.266236 663.446243,407.479202 C663.281851,407.694198 663.131959,407.916011 662.948171,408.119293 C659.495206,411.91993 653.454553,412.269236 651.595783,412.283044 L651.400254,412.283325 C651.165319,412.282188 651.035527,412.275947 651.035527,412.275947 C651.035527,412.275947 650.896293,411.316674 650.896293,409.875846 C650.896293,407.227621 651.366327,402.95353 654.033085,400.018004 C657.033715,396.716052 661.974495,396.023437 664.441716,395.887948 Z M678.158444,389.815534 C683.655679,390.574598 687.918919,395.736711 687.918919,395.736711 C678.399751,406.336525 670.241904,400.484965 667.184236,396.069624 L667.184236,396.069624 L670.521332,396.13444 L671.274922,396.157149 L671.274922,396.157149 L671.274442,396.156813 L678.147594,395.736711 L670.583843,395.275416 C673.071997,394.339861 676.174028,392.664063 678.158444,389.815534 Z M22.8415557,389.815534 C24.825972,392.664063 27.9280029,394.339861 30.4161572,395.275416 L22.8524063,395.736711 L29.725558,396.156813 L29.725,396.157 L30.4786683,396.13444 L33.8157641,396.069624 C30.7580959,400.484965 22.6002493,406.336525 13.0810811,395.736711 C13.0810811,395.736711 17.344321,390.574598 22.8415557,389.815534 Z M56.8743451,390.31672 L56.9795454,390.400728 C56.9931041,390.411767 57,390.417504 57,390.417504 C57,390.417504 53.3491963,397.053574 47.485825,398.339325 C44.7975583,395.823708 41.1626945,394.858675 38.4950727,394.501852 L47.4000763,392.240217 L35.7230738,393.727809 C36.9317183,391.877633 40.2523941,387.467382 44.9826911,386.568508 C50.4889926,385.522317 55.9827459,389.615454 56.8743451,390.31672 Z M644.125655,390.31672 C645.017254,389.615454 650.511007,385.522317 656.017309,386.568508 C660.747606,387.467382 664.068282,391.877633 665.276926,393.727809 L665.276926,393.727809 L653.599924,392.240217 L662.504927,394.501852 C659.837306,394.858675 656.202442,395.823708 653.514175,398.339325 C647.650804,397.053574 644,390.417504 644,390.417504 C644,390.417504 644.006896,390.411767 644.020455,390.400728 Z M677.733157,375.732573 C677.733157,375.732573 677.740889,375.753967 677.755026,375.795273 L677.791449,375.903998 C678.012344,376.575988 678.785476,379.140561 678.785476,382.117062 C678.785476,384.15746 678.422124,386.391825 677.267541,388.342249 C674.913435,392.317324 669.951818,393.976413 667.654078,394.552265 C667.64822,394.550152 667.642363,394.54804 667.638138,394.546503 C667.822598,394.108253 668.034618,393.564858 668.247213,392.938594 L668.247213,392.938594 L672.754736,384.141713 L669.107774,389.523623 C669.257666,388.624078 669.355033,387.674792 669.355033,386.698235 C669.355033,384.938033 669.048047,383.309191 668.443965,381.859048 C668.291192,381.493007 668.118158,381.142619 667.931489,380.802504 C671.255604,376.948292 677.055677,375.850113 677.678523,375.741779 L677.726978,375.733571 L677.726978,375.733571 Z M23.2668426,375.732573 L23.273022,375.733571 L23.3214775,375.741779 C23.9443228,375.850113 29.744396,376.948292 33.0685112,380.802504 C32.881842,381.142619 32.7088081,381.493007 32.5560351,381.859048 C31.9519529,383.309191 31.6449666,384.938033 31.6449666,386.698235 C31.6449666,387.674792 31.7423342,388.624078 31.8922265,389.523623 L28.2452637,384.141713 L32.7527868,392.938594 C32.9653822,393.564858 33.1774016,394.108253 33.3618622,394.546503 C33.3576372,394.54804 33.3517798,394.550152 33.3459223,394.552265 C31.0481822,393.976413 26.0865652,392.317324 23.7324593,388.342249 C22.5778759,386.391825 22.2145239,384.15746 22.2145239,382.117062 C22.2145239,379.140561 22.987656,376.575988 23.2085509,375.903998 L23.244974,375.795273 C23.2591113,375.753967 23.2668426,375.732573 23.2668426,375.732573 Z M43.8237866,374.540541 C43.8237866,374.540541 45.911812,378.485944 45.911812,382.853753 C45.911812,383.52774 45.8584231,384.21229 45.7431952,384.893575 C45.3935746,384.926607 45.0433778,384.965592 44.6908765,385.032616 C42.2279763,385.500345 40.1297724,386.779663 38.4511901,388.221356 L40.0670693,383.560868 L37.2079772,389.392552 C35.9011969,390.728139 34.9468219,392.049995 34.3969928,392.896248 C33.8318,391.337214 33.2091852,389.083357 33.2091852,386.697563 C33.2091852,385.289959 33.4254296,383.836839 33.9997446,382.46025 C36.3545226,376.807265 43.8237866,374.540541 43.8237866,374.540541 Z M657.176213,374.540541 C657.176213,374.540541 664.645477,376.807265 667.000255,382.46025 C667.57457,383.836839 667.790815,385.289959 667.790815,386.697563 C667.790815,389.083357 667.1682,391.337214 666.603007,392.896248 C666.053178,392.049995 665.098803,390.728139 663.792023,389.392552 L663.792023,389.392552 L660.932931,383.560868 L662.54881,388.221356 C660.870228,386.779663 658.772024,385.500345 656.309124,385.032616 C655.956622,384.965592 655.606425,384.926607 655.256805,384.893575 C655.141577,384.21229 655.088188,383.52774 655.088188,382.853753 C655.088188,378.485944 657.176213,374.540541 657.176213,374.540541 Z M29.1626446,351.56341 C29.6836668,352.950946 30.4715375,355.495946 30.4715375,358.277356 C30.4715375,359.865196 30.2119866,361.520637 29.4948851,363.060273 C27.2667319,367.845873 21.3432253,369.960719 19.7515451,370.453079 L19.58185,370.504442 C19.4339751,370.54815 19.3531022,370.569099 19.3531022,370.569099 C19.3531022,370.569099 17.5980853,366.894001 17.5980853,362.761161 C17.5988535,361.203568 17.8539873,359.583176 18.5394012,358.068217 C21.8043835,357.936953 24.3191362,356.542408 26.1145788,355.012853 L23.4787408,361.711627 L28.42461,352.589707 C28.7374537,352.185449 28.982409,351.835828 29.1626446,351.56341 Z M671.837355,351.56341 C672.017591,351.835828 672.262546,352.185449 672.57539,352.589707 L672.57539,352.589707 L677.521259,361.711627 L674.885421,355.012853 C676.680864,356.542408 679.195616,357.936953 682.460599,358.068217 C683.146013,359.583176 683.401146,361.203568 683.401915,362.761161 C683.401915,366.894001 681.646898,370.569099 681.646898,370.569099 C681.646898,370.569099 681.566025,370.54815 681.41815,370.504442 L681.248455,370.453079 C679.656775,369.960719 673.733268,367.845873 671.505115,363.060273 C670.788013,361.520637 670.528463,359.865196 670.528463,358.277356 C670.528463,355.495946 671.316333,352.950946 671.837355,351.56341 Z M30.4772028,350.617678 C32.9444241,350.753166 37.885204,351.445782 40.8858343,354.747733 C43.5525918,357.68326 44.0226256,361.95735 44.0226256,364.605575 C44.0226256,366.046404 43.8833919,367.005676 43.8833919,367.005676 C43.8833919,367.005676 36.0877449,367.380551 31.9707484,362.849022 C31.7869599,362.645741 31.6370676,362.423927 31.4726758,362.208931 C31.8389085,360.995966 32.0348919,359.684192 32.0348919,358.27726 C32.0348919,356.798214 31.8236408,355.397042 31.5497825,354.158055 L37.3130015,359.772918 L30.8946159,351.778118 C30.7440514,351.328538 30.5998245,350.925528 30.4772028,350.617678 Z M670.522797,350.617678 C670.400175,350.925528 670.255949,351.328538 670.105384,351.778118 L670.105384,351.778118 L663.686999,359.772918 L669.450218,354.158055 C669.176359,355.397042 668.965108,356.798214 668.965108,358.27726 C668.965108,359.684192 669.161092,360.995966 669.527324,362.208931 C669.362932,362.423927 669.21304,362.645741 669.029252,362.849022 C664.912255,367.380551 657.116608,367.005676 657.116608,367.005676 C657.116608,367.005676 656.977374,366.046404 656.977374,364.605575 C656.977374,361.95735 657.447408,357.68326 660.114166,354.747733 C663.114796,351.445782 668.055576,350.753166 670.522797,350.617678 Z M684.239525,344.545264 C689.73676,345.304327 694,350.466441 694,350.466441 C684.480832,361.066255 676.322985,355.214694 673.265317,350.799354 L673.265317,350.799354 L676.602413,350.864169 L677.357059,350.887215 C677.356291,350.887215 677.355523,350.886543 677.355523,350.886543 L677.355523,350.886543 L684.228675,350.466441 L676.664924,350.005145 C679.153078,349.069591 682.255109,347.393793 684.239525,344.545264 Z M16.7604746,344.545264 C18.7448909,347.393793 21.8469218,349.069591 24.3350761,350.005145 L16.7713252,350.466441 L23.6444769,350.886543 C23.6444769,350.886543 23.6437087,350.887215 23.6429406,350.887215 L24.3975872,350.864169 L27.734683,350.799354 C24.6770149,355.214694 16.5191682,361.066255 7,350.466441 C7,350.466441 11.26324,345.304327 16.7604746,344.545264 Z M50.7390251,345.004055 L50.8380334,345.081865 C50.8913353,345.124288 50.9189189,345.147233 50.9189189,345.147233 C50.9189189,345.147233 47.2681152,351.783304 41.4047439,353.069055 C38.7164772,350.553438 35.0816134,349.588404 32.4139917,349.231582 L41.3189952,346.969947 L29.6419927,348.457539 C30.8506372,346.607363 34.171313,342.197111 38.90161,341.298238 C44.305943,340.271421 49.6981881,344.195348 50.7390251,345.004055 Z M650.260975,345.004055 C651.301812,344.195348 656.694057,340.271421 662.09839,341.298238 C666.828687,342.197111 670.149363,346.607363 671.358007,348.457539 L671.358007,348.457539 L659.681005,346.969947 L668.586008,349.231582 C665.918387,349.588404 662.283523,350.553438 659.595256,353.069055 C653.731885,351.783304 650.081081,345.147233 650.081081,345.147233 C650.081081,345.147233 650.108665,345.124288 650.161967,345.081865 Z M683.814238,330.462303 C683.814238,330.462303 684.866557,333.374208 684.866557,336.846792 C684.866557,338.88719 684.503205,341.121555 683.348622,343.071979 C680.994516,347.047053 676.032899,348.706143 673.735159,349.281994 C673.729301,349.279882 673.723444,349.277769 673.719219,349.276233 C673.90368,348.837983 674.115699,348.294587 674.328294,347.668324 L674.328294,347.668324 L678.835817,338.871442 L675.188855,344.253353 C675.338747,343.353807 675.436114,342.404522 675.436114,341.427965 C675.436114,339.667763 675.129128,338.038921 674.525046,336.588778 C674.372273,336.222737 674.199239,335.872348 674.01257,335.532234 C677.27276,331.752141 682.914594,330.623099 683.717981,330.478869 L683.789739,330.466344 C683.805927,330.463616 683.814238,330.462303 683.814238,330.462303 Z M17.1857615,330.462303 C17.1857615,330.462303 17.1940733,330.463616 17.2102614,330.466344 L17.2820193,330.478869 C18.0854058,330.623099 23.7272402,331.752141 26.9874301,335.532234 C26.8007609,335.872348 26.627727,336.222737 26.4749541,336.588778 C25.8708718,338.038921 25.5638855,339.667763 25.5638855,341.427965 C25.5638855,342.404522 25.6612531,343.353807 25.8111454,344.253353 L22.1641826,338.871442 L26.6717057,347.668324 C26.8843012,348.294587 27.0963205,348.837983 27.2807811,349.276233 C27.2765561,349.277769 27.2706987,349.279882 27.2648413,349.281994 C24.9671011,348.706143 20.0054841,347.047053 17.6513782,343.071979 C16.4967948,341.121555 16.1334428,338.88719 16.1334428,336.846792 C16.1334428,333.374208 17.1857615,330.462303 17.1857615,330.462303 Z M663.257294,329.27027 C663.257294,329.27027 670.726558,331.536995 673.081336,337.189979 C673.655651,338.566569 673.871896,340.019688 673.871896,341.427293 C673.871896,343.813086 673.249281,346.066944 672.684088,347.625977 C672.134259,346.779725 671.179884,345.457869 669.873104,344.122281 L669.873104,344.122281 L667.014012,338.290598 L668.629891,342.951086 C666.951309,341.509393 664.853105,340.230075 662.390205,339.762346 C662.037703,339.695322 661.687507,339.656336 661.337886,339.623304 C661.222658,338.942019 661.169269,338.25747 661.169269,337.583483 C661.169269,333.215673 663.257294,329.27027 663.257294,329.27027 Z M37.7427055,329.27027 C37.7427055,329.27027 39.8307309,333.215673 39.8307309,337.583483 C39.8307309,338.25747 39.777342,338.942019 39.6621141,339.623304 C39.3124935,339.656336 38.9622967,339.695322 38.6097954,339.762346 C36.1468952,340.230075 34.0486913,341.509393 32.370109,342.951086 L33.9859882,338.290598 L31.1268961,344.122281 C29.8201158,345.457869 28.8657408,346.779725 28.3159117,347.625977 C27.7507189,346.066944 27.1281042,343.813086 27.1281042,341.427293 C27.1281042,340.019688 27.3443485,338.566569 27.9186635,337.189979 C30.2734415,331.536995 37.7427055,329.27027 37.7427055,329.27027 Z M665.756274,306.29314 C665.93651,306.565558 666.181465,306.915179 666.494309,307.319437 L666.494309,307.319437 L671.440178,316.441357 L668.80434,309.742583 C670.599783,311.272137 673.114535,312.666683 676.379518,312.797947 C677.064932,314.312905 677.320065,315.933298 677.320834,317.490891 C677.320834,321.623731 675.565817,325.298829 675.565817,325.298829 C675.565817,325.298829 675.556831,325.296501 675.539373,325.291779 L675.462096,325.270361 C674.547105,325.011732 667.830439,322.958451 665.424034,317.790003 C664.706932,316.250366 664.447381,314.594926 664.447381,313.007085 C664.447381,310.225676 665.235252,307.680676 665.756274,306.29314 Z M35.2437257,306.29314 C35.7647478,307.680676 36.5526186,310.225676 36.5526186,313.007085 C36.5526186,314.594926 36.2930677,316.250366 35.5759661,317.790003 C33.1695608,322.958451 26.4528951,325.011732 25.5379039,325.270361 L25.4606271,325.291779 C25.4431691,325.296501 25.4341832,325.298829 25.4341832,325.298829 C25.4341832,325.298829 23.6791664,321.623731 23.6791664,317.490891 C23.6799346,315.933298 23.9350684,314.312905 24.6204823,312.797947 C27.8854646,312.666683 30.4002173,311.272137 32.1956599,309.742583 L29.5598219,316.441357 L34.5056911,307.319437 C34.8185348,306.915179 35.0634901,306.565558 35.2437257,306.29314 Z M664.441716,305.347407 C664.319094,305.655258 664.174867,306.058267 664.024303,306.507848 L664.024303,306.507848 L657.605917,314.502647 L663.369136,308.887784 C663.095278,310.126772 662.884027,311.527943 662.884027,313.006989 C662.884027,314.413922 663.08001,315.725695 663.446243,316.938661 L663.446243,316.938661 L663.122453,317.370232 L663.122453,317.370232 L662.948171,317.578752 C659.495206,321.379389 653.454553,321.728696 651.595783,321.742503 L651.31713,321.742141 C651.134899,321.740185 651.035527,321.735406 651.035527,321.735406 C651.035527,321.735406 650.896293,320.776134 650.896293,319.335305 C650.896293,316.68708 651.366327,312.41299 654.033085,309.477463 C657.033715,306.175512 661.974495,305.482896 664.441716,305.347407 Z M36.5582839,305.347407 C39.0255051,305.482896 43.9662851,306.175512 46.9669154,309.477463 C49.6336729,312.41299 50.1037067,316.68708 50.1037067,319.335305 C50.1037067,320.776134 49.964473,321.735406 49.964473,321.735406 C49.964473,321.735406 49.8651008,321.740185 49.6828702,321.742141 L49.4042168,321.742503 C47.5454467,321.728696 41.5047943,321.379389 38.0518294,317.578752 L37.8775473,317.370232 L37.8775473,317.370232 L37.5537569,316.938661 L37.5537569,316.938661 C37.9199895,315.725695 38.115973,314.413922 38.115973,313.006989 C38.115973,311.527943 37.9047218,310.126772 37.6308635,308.887784 L43.3940826,314.502647 L36.975697,306.507848 C36.8251325,306.058267 36.6809056,305.655258 36.5582839,305.347407 Z M678.158444,299.274993 C683.655679,300.034057 687.918919,305.196171 687.918919,305.196171 C678.399751,315.795984 670.241904,309.944424 667.184236,305.529083 L667.184236,305.529083 L670.521332,305.593899 L671.274922,305.616608 L671.274922,305.616608 L678.147594,305.196171 L670.583843,304.734875 C673.071997,303.799321 676.174028,302.123523 678.158444,299.274993 Z M22.8415557,299.274993 C24.825972,302.123523 27.9280029,303.799321 30.4161572,304.734875 L22.8524063,305.196171 L29.725,305.616 L30.4786683,305.593899 L33.8157641,305.529083 C30.7580959,309.944424 22.6002493,315.795984 13.0810811,305.196171 C13.0810811,305.196171 17.344321,300.034057 22.8415557,299.274993 Z M56.9795454,299.860188 L57,299.876963 L57,299.876963 C57,299.876963 53.3491963,306.513033 47.485825,307.798785 C44.7975583,305.283168 41.1626945,304.318134 38.4950727,303.961312 L47.4000763,301.699676 L35.7230738,303.187268 C36.9317183,301.337093 40.2523941,296.926841 44.9826911,296.027967 C50.7948983,294.923655 56.5931242,299.545568 56.9795454,299.860188 Z M644,299.876963 C644,299.876963 650.001165,294.884907 656.017309,296.027967 C660.747606,296.926841 664.068282,301.337093 665.276926,303.187268 L665.276926,303.187268 L653.599924,301.699676 L662.504927,303.961312 C659.837306,304.318134 656.202442,305.283168 653.514175,307.798785 C647.650804,306.513033 644,299.876963 644,299.876963 Z M677.733157,285.192033 C677.733157,285.192033 678.785476,288.103937 678.785476,291.576522 C678.785476,293.61692 678.422124,295.851285 677.267541,297.801709 C674.913435,301.776783 669.951818,303.435873 667.654078,304.011724 C667.64822,304.009611 667.642363,304.007499 667.638138,304.005963 C667.822598,303.567713 668.034618,303.024317 668.247213,302.398053 L668.247213,302.398053 L672.754736,293.601172 L669.107774,298.983083 C669.257666,298.083537 669.355033,297.134251 669.355033,296.157695 C669.355033,294.397493 669.048047,292.768651 668.443965,291.318508 C668.291192,290.952467 668.118158,290.602078 667.931489,290.261964 C671.191679,286.481871 676.833513,285.352829 677.6369,285.208599 L677.726978,285.19303 L677.726978,285.19303 Z M23.2668426,285.192033 L23.273022,285.19303 L23.3631004,285.208599 C24.1664869,285.352829 29.8083213,286.481871 33.0685112,290.261964 C32.881842,290.602078 32.7088081,290.952467 32.5560351,291.318508 C31.9519529,292.768651 31.6449666,294.397493 31.6449666,296.157695 C31.6449666,297.134251 31.7423342,298.083537 31.8922265,298.983083 L28.2452637,293.601172 L32.7527868,302.398053 C32.9653822,303.024317 33.1774016,303.567713 33.3618622,304.005963 C33.3576372,304.007499 33.3517798,304.009611 33.3459223,304.011724 C31.0481822,303.435873 26.0865652,301.776783 23.7324593,297.801709 C22.5778759,295.851285 22.2145239,293.61692 22.2145239,291.576522 C22.2145239,288.103937 23.2668426,285.192033 23.2668426,285.192033 Z M657.176213,284 C657.176213,284 664.645477,286.266725 667.000255,291.919709 C667.57457,293.296298 667.790815,294.749418 667.790815,296.157023 C667.790815,298.542816 667.1682,300.796674 666.603007,302.355707 C666.053178,301.509454 665.098803,300.187598 663.792023,298.852011 L663.792023,298.852011 L660.932931,293.020327 L662.54881,297.680816 C660.870228,296.239123 658.772024,294.959805 656.309124,294.492076 C655.956622,294.425051 655.606425,294.386066 655.256805,294.353034 C655.141577,293.671749 655.088188,292.987199 655.088188,292.313212 C655.088188,288.441745 656.728625,284.902137 657.101452,284.147674 L657.148417,284.053907 C657.166507,284.018341 657.176213,284 657.176213,284 Z M43.8237866,284 C43.8237866,284 43.8334933,284.018341 43.8515831,284.053907 L43.898548,284.147674 C44.2713747,284.902137 45.911812,288.441745 45.911812,292.313212 C45.911812,292.987199 45.8584231,293.671749 45.7431952,294.353034 C45.3935746,294.386066 45.0433778,294.425051 44.6908765,294.492076 C42.2279763,294.959805 40.1297724,296.239123 38.4511901,297.680816 L40.0670693,293.020327 L37.2079772,298.852011 C35.9011969,300.187598 34.9468219,301.509454 34.3969928,302.355707 C33.8318,300.796674 33.2091852,298.542816 33.2091852,296.157023 C33.2091852,294.749418 33.4254296,293.296298 33.9997446,291.919709 C36.3545226,286.266725 43.8237866,284 43.8237866,284 Z M394.727809,35.7230738 L393.240217,47.4000763 L395.501852,38.4950727 C395.858675,41.1626945 396.823708,44.7975583 399.339325,47.485825 C398.053574,53.3491963 391.417504,57 391.417504,57 C391.417504,57 391.411767,56.9931041 391.400728,56.9795454 L391.31672,56.8743451 C390.615454,55.9827459 386.522317,50.4889926 387.568508,44.9826911 C388.467382,40.2523941 392.877633,36.9317183 394.727809,35.7230738 L394.727809,35.7230738 Z M304.187268,35.7230738 L302.699676,47.4000763 L304.961312,38.4950727 C305.318134,41.1626945 306.283168,44.7975583 308.798785,47.485825 C307.513033,53.3491963 300.876963,57 300.876963,57 C300.876963,57 295.884907,50.9988354 297.027967,44.9826911 C297.926841,40.2523941 302.337093,36.9317183 304.187268,35.7230738 L304.187268,35.7230738 Z M349.457539,29.6419927 L347.969947,41.3189952 L350.231582,32.4139917 C350.588404,35.0816134 351.553438,38.7164772 354.069055,41.4047439 C352.783304,47.2681152 346.147233,50.9189189 346.147233,50.9189189 C346.147233,50.9189189 346.124288,50.8913353 346.081865,50.8380334 L346.004055,50.7390251 C345.195348,49.6981881 341.271421,44.305943 342.298238,38.90161 C343.197111,34.171313 347.607363,30.8506372 349.457539,29.6419927 L349.457539,29.6419927 Z M396.887948,36.5582839 C397.195798,36.6809056 397.598808,36.8251325 398.048389,36.975697 L398.048389,36.975697 L406.043188,43.3940826 L400.428325,37.6308635 C401.667313,37.9047218 403.068484,38.115973 404.54753,38.115973 C405.954462,38.115973 407.266236,37.9199895 408.479202,37.5537569 C408.694198,37.7181487 408.916011,37.868041 409.119293,38.0518294 C412.91993,41.5047943 413.269236,47.5454467 413.283044,49.4042168 L413.283325,49.5997465 C413.282188,49.8346807 413.275947,49.964473 413.275947,49.964473 C413.275947,49.964473 412.316674,50.1037067 410.875846,50.1037067 C408.227621,50.1037067 403.95353,49.6336729 401.018004,46.9669154 C397.716052,43.9662851 397.023437,39.0255051 396.887948,36.5582839 Z M306.347407,36.5582839 C306.655258,36.6809056 307.058267,36.8251325 307.507848,36.975697 L307.507848,36.975697 L315.502647,43.3940826 L309.887784,37.6308635 C311.126772,37.9047218 312.527943,38.115973 314.006989,38.115973 C315.413922,38.115973 316.725695,37.9199895 317.938661,37.5537569 L317.938661,37.5537569 L318.370232,37.8775473 L318.370232,37.8775473 L318.578752,38.0518294 C322.379389,41.5047943 322.728696,47.5454467 322.742503,49.4042168 L322.742141,49.6828702 C322.740185,49.8651008 322.735406,49.964473 322.735406,49.964473 C322.735406,49.964473 321.776134,50.1037067 320.335305,50.1037067 C317.68708,50.1037067 313.41299,49.6336729 310.477463,46.9669154 C307.175512,43.9662851 306.482896,39.0255051 306.347407,36.5582839 Z M297.157023,33.2091852 C299.542816,33.2091852 301.796674,33.8318 303.355707,34.3969928 C302.509454,34.9468219 301.187598,35.9011969 299.852011,37.2079772 L299.852011,37.2079772 L294.020327,40.0670693 L298.680816,38.4511901 C297.239123,40.1297724 295.959805,42.2279763 295.492076,44.6908765 C295.425051,45.0433778 295.386066,45.3935746 295.353034,45.7431952 C294.671749,45.8584231 293.987199,45.911812 293.313212,45.911812 C289.441745,45.911812 285.902137,44.2713747 285.147674,43.898548 L285.053907,43.8515831 C285.018341,43.8334933 285,43.8237866 285,43.8237866 C285,43.8237866 287.266725,36.3545226 292.919709,33.9997446 C294.296298,33.4254296 295.749418,33.2091852 297.157023,33.2091852 Z M387.697563,33.2091852 C390.083357,33.2091852 392.337214,33.8318 393.896248,34.3969928 C393.049995,34.9468219 391.728139,35.9011969 390.392552,37.2079772 L390.392552,37.2079772 L384.560868,40.0670693 L389.221356,38.4511901 C387.779663,40.1297724 386.500345,42.2279763 386.032616,44.6908765 C385.965592,45.0433778 385.926607,45.3935746 385.893575,45.7431952 C385.21229,45.8584231 384.52774,45.911812 383.853753,45.911812 C379.485944,45.911812 375.540541,43.8237866 375.540541,43.8237866 C375.540541,43.8237866 377.807265,36.3545226 383.46025,33.9997446 C384.836839,33.4254296 386.289959,33.2091852 387.697563,33.2091852 Z M351.617678,30.4772028 C351.925528,30.5998245 352.328538,30.7440514 352.778118,30.8946159 L352.778118,30.8946159 L360.772918,37.3130015 L355.158055,31.5497825 C356.397042,31.8236408 357.798214,32.0348919 359.27726,32.0348919 C360.684192,32.0348919 361.995966,31.8389085 363.208931,31.4726758 C363.423927,31.6370676 363.645741,31.7869599 363.849022,31.9707484 C368.380551,36.0877449 368.005676,43.8833919 368.005676,43.8833919 C368.005676,43.8833919 367.046404,44.0226256 365.605575,44.0226256 C362.95735,44.0226256 358.68326,43.5525918 355.747733,40.8858343 C352.445782,37.885204 351.753166,32.9444241 351.617678,30.4772028 Z M342.427293,27.1281042 C344.813086,27.1281042 347.066944,27.7507189 348.625977,28.3159117 C347.779725,28.8657408 346.457869,29.8201158 345.122281,31.1268961 L345.122281,31.1268961 L339.290598,33.9859882 L343.951086,32.370109 C342.509393,34.0486913 341.230075,36.1468952 340.762346,38.6097954 C340.695322,38.9622967 340.656336,39.3124935 340.623304,39.6621141 C339.942019,39.777342 339.25747,39.8307309 338.583483,39.8307309 C334.215673,39.8307309 330.27027,37.7427055 330.27027,37.7427055 C330.27027,37.7427055 332.536995,30.2734415 338.189979,27.9186635 C339.566569,27.3443485 341.019688,27.1281042 342.427293,27.1281042 Z M409.031431,23.6791664 C413.164272,23.6791664 416.839369,25.4341832 416.839369,25.4341832 C416.839369,25.4341832 416.818421,25.5150562 416.774712,25.662931 L416.72335,25.8326262 C416.23099,27.4243064 414.116143,33.347813 409.330544,35.5759661 C407.790907,36.2930677 406.135466,36.5526186 404.547626,36.5526186 C401.766217,36.5526186 399.221217,35.7647478 397.833681,35.2437257 C398.106099,35.0634901 398.455719,34.8185348 398.859977,34.5056911 L398.859977,34.5056911 L407.981897,29.5598219 L401.283124,32.1956599 C402.812678,30.4002173 404.207224,27.8854646 404.338487,24.6204823 C405.853446,23.9350684 407.473838,23.6799346 409.031431,23.6791664 Z M318.490891,23.6791664 C322.623731,23.6791664 326.298829,25.4341832 326.298829,25.4341832 C326.298829,25.4341832 326.296501,25.4431691 326.291779,25.4606271 L326.270361,25.5379039 C326.011732,26.4528951 323.958451,33.1695608 318.790003,35.5759661 C317.250366,36.2930677 315.594926,36.5526186 314.007085,36.5526186 C311.225676,36.5526186 308.680676,35.7647478 307.29314,35.2437257 C307.565558,35.0634901 307.915179,34.8185348 308.319437,34.5056911 L308.319437,34.5056911 L317.441357,29.5598219 L310.742583,32.1956599 C312.272137,30.4002173 313.666683,27.8854646 313.797947,24.6204823 C315.312905,23.9350684 316.933298,23.6799346 318.490891,23.6791664 Z M396.736711,13.0810811 C407.336525,22.6002493 401.484965,30.7580959 397.069624,33.8157641 L397.069624,33.8157641 L397.13444,30.4786683 L397.157485,29.7240216 C397.157485,29.7247898 397.156813,29.725558 397.156813,29.725558 L397.156813,29.725558 L396.736711,22.8524063 L396.275416,30.4161572 C395.339861,27.9280029 393.664063,24.825972 390.815534,22.8415557 C391.574598,17.344321 396.736711,13.0810811 396.736711,13.0810811 Z M306.196171,13.0810811 C316.795984,22.6002493 310.944424,30.7580959 306.529083,33.8157641 L306.529083,33.8157641 L306.593899,30.4786683 L306.616945,29.7240216 L306.616945,29.7240216 L306.196171,22.8524063 L305.734875,30.4161572 C304.799321,27.9280029 303.123523,24.825972 300.274993,22.8415557 C301.034057,17.344321 306.196171,13.0810811 306.196171,13.0810811 Z M383.117062,22.2145239 C385.15746,22.2145239 387.391825,22.5778759 389.342249,23.7324593 C393.317324,26.0865652 394.976413,31.0481822 395.552265,33.3459223 C395.550152,33.3517798 395.54804,33.3576372 395.546503,33.3618622 C395.108253,33.1774016 394.564858,32.9653822 393.938594,32.7527868 L393.938594,32.7527868 L385.141713,28.2452637 L390.523623,31.8922265 C389.624078,31.7423342 388.674792,31.6449666 387.698235,31.6449666 C385.938033,31.6449666 384.309191,31.9519529 382.859048,32.5560351 C382.493007,32.7088081 382.142619,32.881842 381.802504,33.0685112 C377.948292,29.744396 376.850113,23.9443228 376.741779,23.3214775 L376.733571,23.273022 L376.733571,23.273022 C376.732573,23.2668426 376.753967,23.2591113 376.795273,23.244974 L376.903998,23.2085509 C377.575988,22.987656 380.140561,22.2145239 383.117062,22.2145239 Z M292.576522,22.2145239 C294.61692,22.2145239 296.851285,22.5778759 298.801709,23.7324593 C302.776783,26.0865652 304.435873,31.0481822 305.011724,33.3459223 C305.009611,33.3517798 305.007499,33.3576372 305.005963,33.3618622 C304.567713,33.1774016 304.024317,32.9653822 303.398053,32.7527868 L303.398053,32.7527868 L294.601172,28.2452637 L299.983083,31.8922265 C299.083537,31.7423342 298.134251,31.6449666 297.157695,31.6449666 C295.397493,31.6449666 293.768651,31.9519529 292.318508,32.5560351 C291.952467,32.7088081 291.602078,32.881842 291.261964,33.0685112 C287.481871,29.8083213 286.352829,24.1664869 286.208599,23.3631004 L286.19303,23.273022 L286.19303,23.273022 C286.192033,23.2668426 289.103937,22.2145239 292.576522,22.2145239 Z M363.761161,17.5980853 C367.894001,17.5980853 371.569099,19.3531022 371.569099,19.3531022 C371.569099,19.3531022 371.54815,19.4339751 371.504442,19.58185 L371.453079,19.7515451 C370.960719,21.3432253 368.845873,27.2667319 364.060273,29.4948851 C362.520637,30.2119866 360.865196,30.4715375 359.277356,30.4715375 C356.495946,30.4715375 353.950946,29.6836668 352.56341,29.1626446 C352.835828,28.982409 353.185449,28.7374537 353.589707,28.42461 L353.589707,28.42461 L362.711627,23.4787408 L356.012853,26.1145788 C357.542408,24.3191362 358.936953,21.8043835 359.068217,18.5394012 C360.583176,17.8539873 362.203568,17.5988535 363.761161,17.5980853 Z M351.466441,7 C362.066255,16.5191682 356.214694,24.6770149 351.799354,27.734683 L351.799354,27.734683 L351.864169,24.3975872 L351.887215,23.6429406 C351.887215,23.6437087 351.886543,23.6444769 351.886543,23.6444769 L351.466441,16.7713252 L351.005145,24.3350761 C350.069591,21.8469218 348.393793,18.7448909 345.545264,16.7604746 C346.304327,11.26324 351.466441,7 351.466441,7 Z M337.846792,16.1334428 C339.88719,16.1334428 342.121555,16.4967948 344.071979,17.6513782 C348.047053,20.0054841 349.706143,24.9671011 350.281994,27.2648413 C350.279882,27.2706987 350.277769,27.2765561 350.276233,27.2807811 C349.837983,27.0963205 349.294587,26.8843012 348.668324,26.6717057 L348.668324,26.6717057 L339.871442,22.1641826 L345.253353,25.8111454 C344.353807,25.6612531 343.404522,25.5638855 342.427965,25.5638855 C340.667763,25.5638855 339.038921,25.8708718 337.588778,26.4749541 C337.222737,26.627727 336.872348,26.8007609 336.532234,26.9874301 C332.752141,23.7272402 331.623099,18.0854058 331.478869,17.2820193 L331.466344,17.2102614 C331.463616,17.1940733 331.462303,17.1857615 331.462303,17.1857615 C331.462303,17.1857615 334.374208,16.1334428 337.846792,16.1334428 Z" id="Combined-Shape"></path> </g> </g> </svg> 