<?xml version="1.0" encoding="UTF-8"?> <svg xmlns="http://www.w3.org/2000/svg" xmlns:xlink="http://www.w3.org/1999/xlink" width="592px" height="110px" viewBox="0 0 592 110"> <title>3500м</title> <defs> <radialGradient cx="75.381116%" cy="-4.33877037%" fx="75.381116%" fy="-4.33877037%" r="245.532242%" gradientTransform="translate(0.753811,-0.043388),scale(0.184869,1.000000),rotate(-21.869461),scale(1.000000,0.891476),translate(-0.753811,0.043388)" id="radialGradient-1"> <stop stop-color="#F8F392" offset="0%"></stop> <stop stop-color="#AA6B08" offset="100%"></stop> </radialGradient> </defs> <g id="Page-1" stroke="none" stroke-width="1" fill="none" fill-rule="evenodd"> <g id="Artboard-Copy-33" transform="translate(-461.000000, -1320.000000)" fill="url(#radialGradient-1)" fill-rule="nonzero"> <path d="M504.478027,1429.83105 C530.112793,1429.83105 548.789551,1416.13477 548.789551,1397.23828 C548.789551,1386.39844 541.978027,1378.3418 530.552246,1375.55859 L530.625488,1374.97266 C545.42041,1373.06836 555.820801,1362.375 555.820801,1349.11816 C555.820801,1332.3457 539.414551,1320.48047 516.196777,1320.48047 C492.83252,1320.48047 475.840332,1332.56543 471.812012,1352.04785 L499.717285,1352.04785 C501.401855,1346.9209 506.675293,1343.84473 513.633301,1343.84473 C521.470215,1343.84473 526.523926,1347.50684 526.523926,1353.07324 C526.523926,1359.51855 520.664551,1363.25391 510.703613,1363.25391 L498.398926,1363.25391 L494.004395,1384.71387 L505.430176,1384.71387 C513.779785,1384.71387 518.906738,1388.52246 518.906738,1394.6748 C518.906738,1401.41309 513.047363,1406.24707 504.844238,1406.24707 C495.432196,1406.24707 488.811312,1399.80594 490.287498,1392.15884 L490.342285,1391.8916 L490.342285,1391.8916 L461.924316,1391.8916 C461.484863,1394.16211 461.338379,1396.06641 461.338379,1397.89746 C461.338379,1417.2334 478.11084,1429.83105 504.478027,1429.83105 Z M635.874512,1429.83105 C663.047363,1429.83105 682.456543,1411.95996 682.456543,1386.98438 C682.456543,1369.55273 669.858887,1356.44238 653.013184,1356.44238 C642.979004,1356.44238 635.728027,1359.5918 630.088379,1365.01172 L629.502441,1365.01172 L635.874512,1345.82227 L684.653809,1345.82227 L689.854004,1322.31152 L616.538574,1322.31152 L598.887207,1382.73633 L626.499512,1382.73633 C629.355957,1379.00098 635.14209,1376.21777 639.902832,1376.21777 C648.398926,1376.21777 653.89209,1381.6377 653.89209,1390.13379 C653.89209,1399.21582 646.714355,1406.39355 637.632324,1406.39355 C629.039262,1406.39355 622.866781,1401.33881 622.203277,1393.82639 L622.178223,1393.50293 L622.178223,1393.50293 L594.346191,1393.50293 C594.208675,1395.60005 594.167982,1396.08346 594.163481,1396.18781 L594.163481,1396.21204 C594.163481,1396.21319 594.163481,1396.21393 594.163481,1396.21436 C594.166787,1396.2136 594.167274,1396.21309 594.167794,1396.21257 C594.180805,1396.20805 594.195653,1396.25019 594.199015,1396.67908 L594.199707,1396.87207 L594.199707,1396.87207 C594.199707,1415.98828 611.70459,1429.83105 635.874512,1429.83105 Z M736.802246,1429.83105 C768.809082,1429.83105 791.953613,1401.70605 791.953613,1362.8877 C791.953613,1337.47266 775.327637,1320.48047 750.352051,1320.48047 C718.418457,1320.48047 695.566895,1348.3125 695.566895,1387.13086 C695.566895,1412.69238 712.119629,1429.83105 736.802246,1429.83105 Z M738.047363,1406.17383 C730.723145,1406.17383 726.914551,1399.3623 726.914551,1386.39844 C726.914551,1364.05957 737.388184,1344.1377 749.180176,1344.1377 C756.724121,1344.1377 760.605957,1350.80273 760.605957,1363.69336 C760.605957,1386.03223 749.912598,1406.17383 738.047363,1406.17383 Z M843.149902,1429.83105 C875.156738,1429.83105 898.30127,1401.70605 898.30127,1362.8877 C898.30127,1337.47266 881.675293,1320.48047 856.699707,1320.48047 C824.766113,1320.48047 801.914551,1348.3125 801.914551,1387.13086 C801.914551,1412.69238 818.467285,1429.83105 843.149902,1429.83105 Z M844.39502,1406.17383 C837.070801,1406.17383 833.262207,1399.3623 833.262207,1386.39844 C833.262207,1364.05957 843.73584,1344.1377 855.527832,1344.1377 C863.071777,1344.1377 866.953613,1350.80273 866.953613,1363.69336 C866.953613,1386.03223 856.260254,1406.17383 844.39502,1406.17383 Z M955.210449,1428 L965.977051,1377.31641 L967.222168,1377.31641 L973.740723,1421.70117 L993.07666,1421.70117 L1018.41846,1377.31641 L1019.73682,1377.31641 L1008.97021,1428 L1035.63037,1428 L1052.84229,1347.14062 L1014.39014,1347.14062 L990.659668,1390.86621 L989.194824,1390.86621 L984.287598,1347.14062 L945.762207,1347.14062 L928.550293,1428 L955.210449,1428 Z" id="3500м"></path> </g> </g> </svg> 