<?xml version="1.0" encoding="UTF-8"?> <svg xmlns="http://www.w3.org/2000/svg" width="1501" height="231" viewBox="0 0 1501 231" fill="none"><path d="M1052.63 230.053H1043.18L1055.45 193.69H1067.15L1079.42 230.053H1069.97L1061.43 202.852H1061.15L1052.63 230.053ZM1051.37 215.742H1071.11V222.418H1051.37V215.742Z" fill="black"></path><path d="M1013.83 230.053H1000.39V193.69H1013.81C1017.52 193.69 1020.71 194.418 1023.38 195.874C1026.07 197.318 1028.14 199.401 1029.59 202.124C1031.05 204.834 1031.78 208.078 1031.78 211.854C1031.78 215.642 1031.05 218.897 1029.59 221.619C1028.15 224.342 1026.09 226.431 1023.4 227.887C1020.71 229.331 1017.52 230.053 1013.83 230.053ZM1009.18 222.56H1013.49C1015.53 222.56 1017.25 222.217 1018.66 221.53C1020.08 220.832 1021.15 219.702 1021.87 218.139C1022.6 216.565 1022.97 214.47 1022.97 211.854C1022.97 209.238 1022.6 207.154 1021.87 205.604C1021.14 204.041 1020.05 202.917 1018.62 202.23C1017.2 201.532 1015.45 201.182 1013.37 201.182H1009.18V222.56Z" fill="black"></path><path d="M959.677 230.053H950.23L962.5 193.69H974.201L986.47 230.053H977.024L968.483 202.851H968.199L959.677 230.053ZM958.416 215.742H978.16V222.418H958.416V215.742ZM977.113 184.599V188.896H959.588V184.599H977.113Z" fill="black"></path><path d="M913.59 230.053V193.69H928.611C931.334 193.69 933.683 194.222 935.66 195.288C937.649 196.341 939.182 197.815 940.259 199.709C941.336 201.591 941.875 203.781 941.875 206.278C941.875 208.788 941.324 210.984 940.223 212.866C939.134 214.736 937.578 216.186 935.554 217.216C933.529 218.246 931.127 218.761 928.345 218.761H919.076V211.836H926.711C928.037 211.836 929.144 211.605 930.032 211.143C930.931 210.682 931.612 210.037 932.073 209.208C932.535 208.368 932.766 207.391 932.766 206.278C932.766 205.154 932.535 204.183 932.073 203.366C931.612 202.538 930.931 201.899 930.032 201.449C929.132 200.999 928.025 200.774 926.711 200.774H922.379V230.053H913.59Z" fill="black"></path><path d="M889.308 193.69H898.079V217.145C898.079 219.856 897.434 222.217 896.144 224.229C894.854 226.23 893.054 227.78 890.746 228.881C888.438 229.97 885.757 230.515 882.703 230.515C879.613 230.515 876.914 229.97 874.606 228.881C872.298 227.78 870.505 226.23 869.226 224.229C867.948 222.217 867.309 219.856 867.309 217.145V193.69H876.098V216.381C876.098 217.636 876.37 218.755 876.914 219.737C877.471 220.72 878.246 221.489 879.24 222.045C880.235 222.602 881.389 222.88 882.703 222.88C884.017 222.88 885.165 222.602 886.147 222.045C887.142 221.489 887.917 220.72 888.473 219.737C889.03 218.755 889.308 217.636 889.308 216.381V193.69Z" fill="black"></path><path d="M819.906 230.053V193.69H828.695V208.285H843.024V193.69H851.795V230.053H843.024V215.44H828.695V230.053H819.906Z" fill="black"></path><path d="M776.703 230.053V193.69H791.866C794.589 193.69 796.868 194.074 798.702 194.844C800.549 195.613 801.934 196.69 802.857 198.075C803.792 199.46 804.26 201.064 804.26 202.887C804.26 204.272 803.97 205.509 803.39 206.598C802.81 207.675 802.011 208.569 800.993 209.279C799.975 209.989 798.797 210.486 797.46 210.771V211.126C798.927 211.197 800.283 211.593 801.526 212.315C802.78 213.037 803.786 214.043 804.544 215.334C805.302 216.612 805.68 218.127 805.68 219.879C805.68 221.832 805.183 223.578 804.189 225.117C803.195 226.644 801.756 227.852 799.874 228.739C797.992 229.615 795.708 230.053 793.021 230.053H776.703ZM785.492 222.969H790.925C792.831 222.969 794.234 222.608 795.134 221.886C796.045 221.164 796.501 220.157 796.501 218.867C796.501 217.932 796.282 217.127 795.844 216.452C795.406 215.766 794.784 215.239 793.979 214.872C793.174 214.493 792.21 214.304 791.085 214.304H785.492V222.969ZM785.492 208.64H790.357C791.316 208.64 792.168 208.48 792.914 208.16C793.66 207.841 794.24 207.379 794.654 206.776C795.08 206.172 795.293 205.444 795.293 204.592C795.293 203.372 794.861 202.414 793.997 201.715C793.133 201.017 791.967 200.668 790.499 200.668H785.492V208.64Z" fill="black"></path><path d="M735.997 230.053H726.551L738.82 193.69H750.521L762.79 230.053H753.344L744.804 202.852H744.52L735.997 230.053ZM734.736 215.742H754.48V222.418H734.736V215.742Z" fill="black"></path><path d="M685.023 230.053V193.69H700.045C702.767 193.69 705.117 194.181 707.094 195.163C709.082 196.134 710.615 197.531 711.692 199.354C712.77 201.165 713.308 203.313 713.308 205.799C713.308 208.32 712.758 210.463 711.657 212.227C710.556 213.978 708.994 215.316 706.969 216.239C704.945 217.151 702.548 217.606 699.778 217.606H690.279V210.682H698.145C699.471 210.682 700.577 210.51 701.465 210.167C702.365 209.812 703.045 209.279 703.507 208.569C703.969 207.847 704.2 206.923 704.2 205.799C704.2 204.674 703.969 203.745 703.507 203.011C703.045 202.266 702.365 201.709 701.465 201.342C700.566 200.963 699.459 200.774 698.145 200.774H693.812V230.053H685.023ZM705.496 213.434L714.551 230.053H704.963L696.085 213.434H705.496Z" fill="black"></path><path d="M642.406 230.053V193.69H657.428C660.15 193.69 662.5 194.222 664.477 195.288C666.465 196.341 667.998 197.815 669.075 199.709C670.152 201.591 670.691 203.781 670.691 206.278C670.691 208.788 670.141 210.984 669.04 212.866C667.951 214.736 666.394 216.186 664.37 217.216C662.346 218.246 659.943 218.761 657.161 218.761H647.893V211.836H655.528C656.853 211.836 657.96 211.605 658.848 211.143C659.748 210.682 660.428 210.037 660.89 209.208C661.352 208.368 661.582 207.391 661.582 206.278C661.582 205.154 661.352 204.183 660.89 203.366C660.428 202.538 659.748 201.899 658.848 201.449C657.948 200.999 656.842 200.774 655.528 200.774H651.195V230.053H642.406Z" fill="black"></path><path d="M580.958 230.053H571.512L583.781 193.69H595.482L607.751 230.053H598.305L589.765 202.852H589.48L580.958 230.053ZM579.697 215.742H599.441V222.418H579.697V215.742Z" fill="black"></path><path d="M534.137 230.053V193.69H542.926V222.915H558.054V230.053H534.137Z" fill="black"></path><path d="M518.62 193.69V230.053H509.831V193.69H518.62ZM523.005 184.599V188.896H505.48V184.599H523.005Z" fill="black"></path><path d="M466.723 230.053V193.69H481.744C484.466 193.69 486.816 194.181 488.793 195.163C490.782 196.134 492.315 197.531 493.392 199.354C494.469 201.165 495.007 203.313 495.007 205.799C495.007 208.32 494.457 210.463 493.356 212.227C492.255 213.978 490.693 215.316 488.669 216.239C486.645 217.151 484.248 217.606 481.478 217.606H471.978V210.682H479.844C481.17 210.682 482.277 210.51 483.164 210.167C484.064 209.812 484.745 209.279 485.206 208.569C485.668 207.847 485.899 206.923 485.899 205.799C485.899 204.674 485.668 203.745 485.206 203.011C484.745 202.266 484.064 201.709 483.164 201.342C482.265 200.963 481.158 200.774 479.844 200.774H475.512V230.053H466.723ZM487.195 213.434L496.25 230.053H486.662L477.784 213.434H487.195Z" fill="black"></path><path d="M443.371 204.592C443.253 203.29 442.726 202.277 441.791 201.555C440.868 200.822 439.548 200.455 437.831 200.455C436.695 200.455 435.748 200.603 434.99 200.898C434.233 201.194 433.665 201.603 433.286 202.124C432.907 202.633 432.712 203.219 432.7 203.881C432.676 204.426 432.783 204.905 433.02 205.32C433.268 205.734 433.623 206.101 434.085 206.42C434.558 206.728 435.127 207.001 435.789 207.237C436.452 207.474 437.198 207.681 438.027 207.859L441.152 208.569C442.951 208.96 444.537 209.48 445.91 210.131C447.295 210.782 448.455 211.558 449.39 212.457C450.337 213.357 451.053 214.393 451.539 215.565C452.024 216.737 452.273 218.05 452.284 219.506C452.273 221.803 451.693 223.774 450.544 225.419C449.396 227.064 447.745 228.325 445.591 229.201C443.448 230.077 440.862 230.515 437.831 230.515C434.789 230.515 432.138 230.059 429.877 229.148C427.616 228.236 425.858 226.851 424.603 224.993C423.349 223.135 422.703 220.785 422.668 217.944H431.084C431.155 219.116 431.469 220.092 432.025 220.874C432.582 221.655 433.345 222.247 434.316 222.649C435.298 223.052 436.435 223.253 437.725 223.253C438.908 223.253 439.915 223.093 440.743 222.773C441.584 222.454 442.229 222.01 442.679 221.442C443.128 220.874 443.359 220.223 443.371 219.489C443.359 218.802 443.146 218.216 442.732 217.731C442.318 217.234 441.678 216.808 440.814 216.452C439.962 216.085 438.873 215.748 437.547 215.44L433.747 214.553C430.599 213.831 428.119 212.665 426.308 211.055C424.497 209.433 423.597 207.243 423.609 204.485C423.597 202.236 424.201 200.265 425.42 198.572C426.639 196.88 428.326 195.56 430.48 194.613C432.635 193.666 435.091 193.193 437.849 193.193C440.666 193.193 443.111 193.672 445.182 194.631C447.265 195.578 448.881 196.909 450.029 198.626C451.178 200.342 451.764 202.331 451.787 204.592H443.371ZM434.511 190.227L438.098 182.219H445.786L440.424 190.227H434.511Z" fill="black"></path><path d="M1231.02 133.69V170.053H1223.33V133.69H1231.02Z" fill="black"></path><path d="M1167.58 133.69H1177.06L1187.07 158.121H1187.5L1197.51 133.69H1207V170.053H1199.54V146.385H1199.24L1189.83 169.876H1184.75L1175.34 146.296H1175.04V170.053H1167.58V133.69Z" fill="black"></path><path d="M1126.44 170.053H1118.2L1130.76 133.69H1140.66L1153.2 170.053H1144.96L1135.85 141.999H1135.57L1126.44 170.053ZM1125.93 155.76H1145.39V161.761H1125.93V155.76Z" fill="black"></path><path d="M1070.21 170.053L1059.81 133.69H1068.21L1074.23 158.956H1074.53L1081.17 133.69H1088.36L1094.98 159.009H1095.3L1101.32 133.69H1109.72L1099.31 170.053H1091.82L1084.9 146.278H1084.61L1077.71 170.053H1070.21Z" fill="black"></path><path d="M1038.99 144.148C1038.85 142.715 1038.24 141.603 1037.16 140.81C1036.09 140.016 1034.62 139.62 1032.78 139.62C1031.52 139.62 1030.46 139.797 1029.6 140.153C1028.74 140.496 1028.07 140.975 1027.61 141.591C1027.16 142.206 1026.94 142.905 1026.94 143.686C1026.91 144.337 1027.05 144.905 1027.34 145.391C1027.65 145.876 1028.07 146.296 1028.61 146.651C1029.14 146.994 1029.75 147.296 1030.45 147.557C1031.15 147.805 1031.9 148.018 1032.69 148.196L1035.96 148.977C1037.54 149.332 1039 149.806 1040.32 150.398C1041.65 150.989 1042.8 151.717 1043.77 152.582C1044.74 153.446 1045.49 154.464 1046.02 155.636C1046.57 156.807 1046.85 158.151 1046.86 159.666C1046.85 161.891 1046.28 163.821 1045.15 165.454C1044.04 167.076 1042.43 168.337 1040.32 169.236C1038.23 170.124 1035.7 170.568 1032.74 170.568C1029.81 170.568 1027.25 170.118 1025.07 169.219C1022.91 168.319 1021.21 166.987 1019.99 165.224C1018.79 163.448 1018.15 161.252 1018.09 158.636H1025.53C1025.62 159.855 1025.97 160.873 1026.58 161.69C1027.21 162.495 1028.04 163.105 1029.08 163.519C1030.14 163.922 1031.33 164.123 1032.65 164.123C1033.96 164.123 1035.09 163.933 1036.04 163.555C1037.02 163.176 1037.77 162.649 1038.3 161.974C1038.83 161.3 1039.1 160.524 1039.1 159.648C1039.1 158.832 1038.86 158.145 1038.37 157.589C1037.9 157.032 1037.2 156.559 1036.28 156.168C1035.36 155.778 1034.25 155.422 1032.92 155.103L1028.96 154.109C1025.89 153.363 1023.47 152.197 1021.7 150.611C1019.92 149.025 1019.04 146.888 1019.05 144.201C1019.04 141.999 1019.63 140.076 1020.81 138.43C1022.01 136.785 1023.65 135.501 1025.73 134.577C1027.81 133.654 1030.18 133.192 1032.83 133.192C1035.53 133.192 1037.89 133.654 1039.9 134.577C1041.92 135.501 1043.5 136.785 1044.62 138.43C1045.75 140.076 1046.33 141.981 1046.36 144.148H1038.99Z" fill="black"></path><path d="M956.559 170.053H948.32L960.874 133.69H970.781L983.317 170.053H975.078L965.969 141.999H965.685L956.559 170.053ZM956.044 155.76H975.504V161.761H956.044V155.76Z" fill="black"></path><path d="M909.953 140.028V133.69H939.818V140.028H928.685V170.053H921.086V140.028H909.953Z" fill="black"></path><path d="M894.986 133.69V170.053H888.345L872.525 147.166H872.258V170.053H864.57V133.69H871.317L887.013 156.559H887.333V133.69H894.986Z" fill="black"></path><path d="M823.434 170.053H815.195L827.749 133.69H837.656L850.192 170.053H841.953L832.844 141.999H832.56L823.434 170.053ZM822.919 155.76H842.379V161.761H822.919V155.76Z" fill="black"></path><path d="M785.73 170.053H772.84V133.69H785.837C789.495 133.69 792.643 134.418 795.283 135.874C797.923 137.318 799.953 139.395 801.373 142.106C802.806 144.816 803.522 148.06 803.522 151.836C803.522 155.624 802.806 158.879 801.373 161.602C799.953 164.324 797.911 166.413 795.247 167.869C792.596 169.325 789.424 170.053 785.73 170.053ZM780.528 163.466H785.411C787.684 163.466 789.595 163.063 791.146 162.258C792.708 161.442 793.88 160.181 794.662 158.477C795.455 156.76 795.851 154.547 795.851 151.836C795.851 149.149 795.455 146.953 794.662 145.249C793.88 143.544 792.714 142.289 791.164 141.484C789.613 140.679 787.701 140.277 785.429 140.277H780.528V163.466Z" fill="black"></path><path d="M732.227 170.053V133.69H756.729V140.028H739.915V148.693H755.469V155.032H739.915V163.714H756.8V170.053H732.227Z" fill="black"></path><path d="M691.392 133.69L700.181 161.317H700.518L709.325 133.69H717.848L705.312 170.053H695.405L682.852 133.69H691.392Z" fill="black"></path><path d="M668.497 133.69V170.053H660.809V133.69H668.497Z" fill="black"></path><path d="M616.027 140.028V133.69H645.892V140.028H634.76V170.053H627.16V140.028H616.027Z" fill="black"></path><path d="M572.938 170.053V133.69H580.626V149.723H581.105L594.191 133.69H603.406L589.912 149.972L603.566 170.053H594.369L584.408 155.103L580.626 159.719V170.053H572.938Z" fill="black"></path><path d="M531.805 170.053H523.566L536.12 133.69H546.027L558.563 170.053H550.324L541.216 141.999H540.931L531.805 170.053ZM531.29 155.76H550.75V161.761H531.29V155.76Z" fill="black"></path><path d="M478.23 170.053V133.69H485.919V148.693H501.526V133.69H509.196V170.053H501.526V155.032H485.919V170.053H478.23Z" fill="black"></path><path d="M435.176 170.053V133.69H449.735C452.411 133.69 454.642 134.086 456.429 134.879C458.217 135.672 459.56 136.773 460.46 138.182C461.359 139.579 461.809 141.188 461.809 143.011C461.809 144.432 461.525 145.681 460.957 146.758C460.389 147.823 459.608 148.699 458.613 149.386C457.631 150.06 456.506 150.54 455.24 150.824V151.179C456.625 151.238 457.921 151.629 459.128 152.351C460.347 153.073 461.336 154.085 462.093 155.387C462.851 156.677 463.23 158.216 463.23 160.003C463.23 161.933 462.75 163.655 461.792 165.17C460.845 166.674 459.442 167.863 457.583 168.739C455.725 169.615 453.435 170.053 450.712 170.053H435.176ZM442.864 163.768H449.132C451.274 163.768 452.837 163.359 453.819 162.543C454.802 161.714 455.293 160.613 455.293 159.24C455.293 158.234 455.05 157.346 454.565 156.577C454.08 155.807 453.387 155.204 452.488 154.766C451.6 154.328 450.54 154.109 449.309 154.109H442.864V163.768ZM442.864 148.906H448.564C449.617 148.906 450.552 148.723 451.369 148.356C452.198 147.977 452.849 147.444 453.322 146.758C453.807 146.071 454.05 145.249 454.05 144.29C454.05 142.976 453.583 141.916 452.647 141.111C451.724 140.307 450.41 139.904 448.706 139.904H442.864V148.906Z" fill="black"></path><path d="M394.699 170.515C393.527 170.515 392.521 170.101 391.68 169.272C390.852 168.431 390.438 167.425 390.438 166.253C390.438 165.093 390.852 164.099 391.68 163.27C392.521 162.442 393.527 162.028 394.699 162.028C395.835 162.028 396.83 162.442 397.682 163.27C398.534 164.099 398.96 165.093 398.96 166.253C398.96 167.035 398.759 167.751 398.357 168.402C397.966 169.041 397.451 169.556 396.812 169.947C396.173 170.325 395.468 170.515 394.699 170.515Z" fill="black"></path><path d="M374.903 146.42H367.126C366.984 145.414 366.694 144.521 366.256 143.739C365.818 142.946 365.256 142.271 364.57 141.715C363.883 141.159 363.09 140.733 362.19 140.437C361.303 140.141 360.338 139.993 359.296 139.993C357.414 139.993 355.775 140.46 354.378 141.396C352.981 142.319 351.898 143.668 351.129 145.444C350.359 147.208 349.974 149.35 349.974 151.871C349.974 154.464 350.359 156.642 351.129 158.405C351.91 160.169 352.999 161.501 354.396 162.4C355.792 163.3 357.408 163.75 359.243 163.75C360.273 163.75 361.226 163.614 362.102 163.342C362.989 163.069 363.777 162.673 364.463 162.152C365.15 161.619 365.718 160.974 366.168 160.217C366.629 159.459 366.949 158.595 367.126 157.624L374.903 157.66C374.702 159.329 374.199 160.939 373.394 162.489C372.601 164.028 371.53 165.407 370.18 166.626C368.843 167.834 367.245 168.793 365.386 169.503C363.54 170.201 361.451 170.55 359.119 170.55C355.875 170.55 352.975 169.816 350.418 168.349C347.873 166.881 345.861 164.756 344.381 161.974C342.914 159.193 342.18 155.825 342.18 151.871C342.18 147.906 342.925 144.532 344.417 141.751C345.908 138.969 347.933 136.85 350.489 135.394C353.046 133.926 355.923 133.192 359.119 133.192C361.226 133.192 363.179 133.488 364.978 134.08C366.789 134.672 368.393 135.536 369.79 136.672C371.187 137.797 372.323 139.176 373.199 140.81C374.087 142.443 374.655 144.313 374.903 146.42Z" fill="black"></path><path d="M322.207 170.515C321.035 170.515 320.029 170.101 319.188 169.272C318.36 168.431 317.945 167.425 317.945 166.253C317.945 165.093 318.36 164.099 319.188 163.27C320.029 162.442 321.035 162.028 322.207 162.028C323.343 162.028 324.337 162.442 325.19 163.27C326.042 164.099 326.468 165.093 326.468 166.253C326.468 167.035 326.267 167.751 325.864 168.402C325.474 169.041 324.959 169.556 324.32 169.947C323.68 170.325 322.976 170.515 322.207 170.515Z" fill="black"></path><path d="M276.793 170.053H268.555L281.108 133.69H291.016L303.551 170.053H295.312L286.204 141.999H285.92L276.793 170.053ZM276.278 155.76H295.739V161.761H276.278V155.76Z" fill="black"></path><path d="M1500.27 73.6896V110.053H1493.69V73.6896H1500.27Z" fill="black"></path><path d="M1452.18 110.053H1445.14L1457.95 73.6895H1466.08L1478.9 110.053H1471.87L1462.15 81.1469H1461.87L1452.18 110.053ZM1452.41 95.7953H1471.58V101.087H1452.41V95.7953ZM1459.67 70.1029L1454.22 61.9885H1460.52L1464.48 70.1029H1459.67Z" fill="black"></path><path d="M1425.24 85.3018C1424.95 84.343 1424.54 83.4848 1424.02 82.7272C1423.51 81.9578 1422.9 81.3008 1422.17 80.7563C1421.46 80.2118 1420.65 79.8034 1419.72 79.5312C1418.8 79.2471 1417.79 79.105 1416.7 79.105C1414.75 79.105 1413.01 79.5963 1411.48 80.5787C1409.96 81.5612 1408.76 83.0054 1407.88 84.9111C1407.02 86.8051 1406.58 89.1133 1406.58 91.8358C1406.58 94.5821 1407.02 96.9081 1407.88 98.8138C1408.74 100.72 1409.95 102.17 1411.48 103.164C1413.02 104.146 1414.81 104.638 1416.85 104.638C1418.69 104.638 1420.29 104.283 1421.64 103.572C1423 102.862 1424.05 101.856 1424.78 100.554C1425.52 99.24 1425.88 97.7011 1425.88 95.9374L1427.38 96.1682H1417.5V91.0191H1432.26V95.387C1432.26 98.5001 1431.6 101.193 1430.27 103.466C1428.94 105.739 1427.12 107.49 1424.8 108.722C1422.48 109.941 1419.82 110.55 1416.81 110.55C1413.46 110.55 1410.52 109.799 1407.99 108.295C1405.47 106.78 1403.49 104.632 1402.07 101.85C1400.67 99.0565 1399.96 95.7421 1399.96 91.9069C1399.96 88.9713 1400.38 86.3493 1401.2 84.0411C1402.04 81.7329 1403.22 79.7738 1404.72 78.164C1406.22 76.5423 1407.99 75.3112 1410.01 74.4708C1412.03 73.6185 1414.24 73.1924 1416.62 73.1924C1418.63 73.1924 1420.5 73.4883 1422.24 74.0802C1423.98 74.6602 1425.53 75.4888 1426.88 76.566C1428.24 77.6431 1429.36 78.9215 1430.23 80.4012C1431.11 81.8808 1431.68 83.5144 1431.96 85.3018H1425.24Z" fill="black"></path><path d="M1383.71 73.6896V110.053H1377.85L1360.71 85.284H1360.41V110.053H1353.82V73.6896H1359.72L1376.84 98.4765H1377.16V73.6896H1383.71Z" fill="black"></path><path d="M1289.91 110.053H1282.88L1295.68 73.6896H1303.81L1316.63 110.053H1309.6L1299.89 81.147H1299.6L1289.91 110.053ZM1290.14 95.7954H1309.32V101.087H1290.14V95.7954Z" fill="black"></path><path d="M1261.49 73.6895H1268.08V97.4466C1268.08 100.051 1267.46 102.341 1266.23 104.318C1265.01 106.295 1263.3 107.84 1261.08 108.952C1258.87 110.053 1256.28 110.604 1253.33 110.604C1250.35 110.604 1247.76 110.053 1245.55 108.952C1243.33 107.84 1241.62 106.295 1240.4 104.318C1239.18 102.341 1238.57 100.051 1238.57 97.4466V73.6895H1245.16V96.8962C1245.16 98.4114 1245.49 99.7608 1246.15 100.945C1246.83 102.128 1247.77 103.057 1248.99 103.732C1250.21 104.395 1251.66 104.726 1253.33 104.726C1254.99 104.726 1256.44 104.395 1257.66 103.732C1258.89 103.057 1259.84 102.128 1260.5 100.945C1261.16 99.7608 1261.49 98.4114 1261.49 96.8962V73.6895ZM1255.79 69.8543H1250.89L1250.64 66.4452C1251.9 66.3979 1252.79 66.2381 1253.31 65.9658C1253.83 65.6817 1254.08 65.2911 1254.07 64.7939C1254.08 64.1547 1253.74 63.7109 1253.04 63.4623C1252.34 63.2137 1251.48 63.0894 1250.45 63.0894L1250.61 59.9111C1253.54 59.9111 1255.77 60.3373 1257.28 61.1895C1258.8 62.0418 1259.55 63.2019 1259.54 64.6697C1259.55 65.7942 1259.17 66.6346 1258.39 67.191C1257.6 67.7355 1256.74 68.0787 1255.79 68.2208V69.8543Z" fill="black"></path><path d="M1222.54 85.9587H1215.9C1215.71 84.8697 1215.36 83.905 1214.85 83.0645C1214.34 82.2123 1213.71 81.4902 1212.95 80.8983C1212.19 80.3065 1211.33 79.8626 1210.36 79.5667C1209.4 79.2589 1208.36 79.105 1207.25 79.105C1205.27 79.105 1203.52 79.6022 1201.99 80.5965C1200.47 81.579 1199.27 83.0231 1198.41 84.9289C1197.54 86.8228 1197.11 89.137 1197.11 91.8714C1197.11 94.6531 1197.54 96.9968 1198.41 98.9026C1199.28 100.797 1200.48 102.229 1201.99 103.199C1203.52 104.158 1205.27 104.638 1207.23 104.638C1208.32 104.638 1209.34 104.496 1210.29 104.212C1211.24 103.916 1212.1 103.484 1212.86 102.915C1213.63 102.347 1214.27 101.649 1214.8 100.82C1215.33 99.9916 1215.7 99.0447 1215.9 97.9793L1222.54 98.0148C1222.29 99.743 1221.75 101.365 1220.92 102.88C1220.1 104.395 1219.03 105.733 1217.71 106.893C1216.38 108.041 1214.83 108.94 1213.06 109.592C1211.28 110.231 1209.31 110.55 1207.14 110.55C1203.95 110.55 1201.09 109.811 1198.58 108.331C1196.08 106.851 1194.1 104.715 1192.65 101.921C1191.21 99.1275 1190.49 95.7776 1190.49 91.8714C1190.49 87.9533 1191.22 84.6034 1192.67 81.8216C1194.13 79.0281 1196.11 76.8915 1198.62 75.4118C1201.13 73.9322 1203.97 73.1924 1207.14 73.1924C1209.17 73.1924 1211.05 73.4765 1212.79 74.0447C1214.53 74.6128 1216.08 75.4474 1217.44 76.5482C1218.8 77.6372 1219.92 78.9748 1220.8 80.561C1221.69 82.1353 1222.27 83.9346 1222.54 85.9587Z" fill="black"></path><path d="M1151.83 73.6896V110.053H1145.97L1128.84 85.284H1128.54V110.053H1121.95V73.6896H1127.84L1144.96 98.4765H1145.28V73.6896H1151.83Z" fill="black"></path><path d="M1080.44 110.053H1073.41L1086.21 73.6895H1094.34L1107.16 110.053H1100.13L1090.42 81.1469H1090.13L1080.44 110.053ZM1080.67 95.7953H1099.84V101.087H1080.67V95.7953ZM1093.88 70.4225L1090.27 65.877L1086.67 70.4225H1081.04V70.1739L1087.77 62.5034H1092.8L1099.51 70.1739V70.4225H1093.88Z" fill="black"></path><path d="M1006.16 110.053V73.6896H1012.74V89.0838H1029.59V73.6896H1036.2V110.053H1029.59V94.6058H1012.74V110.053H1006.16Z" fill="black"></path><path d="M988.98 73.6896V110.053H983.121L965.987 85.284H965.685V110.053H959.098V73.6896H964.992L982.109 98.4765H982.429V73.6896H988.98Z" fill="black"></path><path d="M917.586 110.053H910.555L923.357 73.6895H931.489L944.308 110.053H937.277L927.565 81.1469H927.281L917.586 110.053ZM917.817 95.7953H936.993V101.087H917.817V95.7953ZM924.955 70.1029L928.932 61.9885H935.217L929.766 70.1029H924.955Z" fill="black"></path><path d="M865.707 110.053V73.6896H872.294V89.0838H889.145V73.6896H895.75V110.053H889.145V94.6058H872.294V110.053H865.707Z" fill="black"></path><path d="M821.102 79.2116V73.6896H850.114V79.2116H838.875V110.053H832.341V79.2116H821.102Z" fill="black"></path><path d="M784.264 85.9587H777.623C777.434 84.8697 777.085 83.905 776.576 83.0645C776.067 82.2123 775.433 81.4902 774.676 80.8983C773.918 80.3065 773.054 79.8626 772.083 79.5667C771.125 79.2589 770.089 79.105 768.976 79.105C766.999 79.105 765.248 79.6022 763.721 80.5965C762.194 81.579 760.998 83.0231 760.134 84.9289C759.27 86.8228 758.838 89.137 758.838 91.8714C758.838 94.6531 759.27 96.9968 760.134 98.9026C761.01 100.797 762.205 102.229 763.721 103.199C765.248 104.158 766.994 104.638 768.958 104.638C770.048 104.638 771.065 104.496 772.012 104.212C772.971 103.916 773.829 103.484 774.587 102.915C775.356 102.347 776.002 101.649 776.522 100.82C777.055 99.9916 777.422 99.0447 777.623 97.9793L784.264 98.0148C784.015 99.743 783.477 101.365 782.648 102.88C781.831 104.395 780.76 105.733 779.434 106.893C778.109 108.041 776.558 108.94 774.782 109.592C773.007 110.231 771.036 110.55 768.87 110.55C765.674 110.55 762.821 109.811 760.311 108.331C757.802 106.851 755.825 104.715 754.381 101.921C752.937 99.1275 752.215 95.7776 752.215 91.8714C752.215 87.9533 752.943 84.6034 754.399 81.8216C755.855 79.0281 757.838 76.8915 760.347 75.4118C762.856 73.9322 765.697 73.1924 768.87 73.1924C770.894 73.1924 772.776 73.4765 774.516 74.0447C776.256 74.6128 777.807 75.4474 779.168 76.5482C780.529 77.6372 781.648 78.9748 782.524 80.561C783.412 82.1353 783.992 83.9346 784.264 85.9587Z" fill="black"></path><path d="M734.565 72.0915H739.199C739.199 74.4708 738.867 76.4949 738.205 78.164C737.542 79.833 736.429 81.1114 734.866 81.9992C733.304 82.8751 731.179 83.3131 728.492 83.3131V79.4779C730.256 79.4779 731.57 79.1879 732.434 78.6078C733.298 78.0278 733.866 77.1874 734.138 76.0865C734.423 74.9857 734.565 73.654 734.565 72.0915ZM724.266 73.6895H730.854V97.4466C730.854 100.051 730.238 102.341 729.007 104.318C727.788 106.295 726.071 107.84 723.858 108.952C721.644 110.053 719.058 110.604 716.099 110.604C713.128 110.604 710.535 110.053 708.322 108.952C706.108 107.84 704.392 106.295 703.173 104.318C701.953 102.341 701.344 100.051 701.344 97.4466V73.6895H707.931V96.8962C707.931 98.4113 708.263 99.7608 708.925 100.944C709.6 102.128 710.547 103.057 711.766 103.732C712.986 104.395 714.43 104.726 716.099 104.726C717.768 104.726 719.212 104.395 720.431 103.732C721.662 103.057 722.609 102.128 723.272 100.944C723.935 99.7608 724.266 98.4113 724.266 96.8962V73.6895ZM713.631 70.1029L717.608 61.9885H723.893L718.442 70.1029H713.631Z" fill="black"></path><path d="M667.434 110.053H658.218V104.354H667.114C669.647 104.354 671.76 103.892 673.453 102.969C675.145 102.034 676.418 100.643 677.27 98.7961C678.122 96.9377 678.549 94.6176 678.549 91.8359C678.549 89.0542 678.122 86.7459 677.27 84.9112C676.418 83.0646 675.157 81.6856 673.488 80.7741C671.831 79.8508 669.771 79.3892 667.309 79.3892H658.023V73.6896H667.682C671.292 73.6896 674.394 74.4176 676.986 75.8735C679.59 77.3177 681.591 79.3951 682.988 82.1058C684.384 84.8165 685.083 88.0598 685.083 91.8359C685.083 95.6238 684.378 98.879 682.97 101.602C681.573 104.324 679.555 106.413 676.915 107.869C674.287 109.325 671.127 110.053 667.434 110.053ZM661.698 73.6896V110.053H655.111V73.6896H661.698ZM649.855 93.0433V88.995H666.883V93.0433H649.855Z" fill="black"></path><path d="M591.199 110.053H584.168L596.97 73.6896H605.102L617.922 110.053H610.89L601.178 81.147H600.894L591.199 110.053ZM591.43 95.7954H610.606V101.087H591.43V95.7954Z" fill="black"></path><path d="M542.547 73.6896H549.987L558.882 89.7762H559.237L568.133 73.6896H575.572L562.344 96.4879V110.053H555.775V96.4879L542.547 73.6896Z" fill="black"></path><path d="M503.93 110.053V73.6896H517.566C520.36 73.6896 522.703 74.1749 524.597 75.1455C526.503 76.1162 527.941 77.4775 528.912 79.2293C529.894 80.9694 530.386 82.9995 530.386 85.3195C530.386 87.6515 529.889 89.6756 528.894 91.392C527.912 93.0965 526.462 94.4164 524.544 95.3515C522.626 96.2748 520.271 96.7365 517.477 96.7365H507.765V91.2677H516.59C518.223 91.2677 519.561 91.0428 520.602 90.593C521.644 90.1313 522.413 89.4625 522.91 88.5866C523.419 87.6988 523.674 86.6098 523.674 85.3195C523.674 84.0293 523.419 82.9284 522.91 82.017C522.401 81.0937 521.626 80.3953 520.585 79.9218C519.543 79.4365 518.199 79.1938 516.554 79.1938H510.517V110.053H503.93ZM522.715 93.5759L531.717 110.053H524.366L515.524 93.5759H522.715Z" fill="black"></path><path d="M462.418 110.053H455.387L468.189 73.6895H476.321L489.14 110.053H482.109L472.397 81.1469H472.113L462.418 110.053ZM462.649 95.7954H481.825V101.087H462.649V95.7954ZM480.795 64.5986V68.5226H463.714V64.5986H480.795Z" fill="black"></path><path d="M442.154 85.9587H435.514C435.324 84.8697 434.975 83.905 434.466 83.0645C433.957 82.2123 433.324 81.4902 432.566 80.8983C431.809 80.3065 430.945 79.8626 429.974 79.5667C429.015 79.2589 427.98 79.105 426.867 79.105C424.89 79.105 423.138 79.6022 421.611 80.5965C420.084 81.579 418.889 83.0231 418.025 84.9289C417.16 86.8228 416.728 89.137 416.728 91.8714C416.728 94.6531 417.16 96.9968 418.025 98.9026C418.9 100.797 420.096 102.229 421.611 103.199C423.138 104.158 424.884 104.638 426.849 104.638C427.938 104.638 428.956 104.496 429.903 104.212C430.862 103.916 431.72 103.484 432.478 102.915C433.247 102.347 433.892 101.649 434.413 100.82C434.946 99.9916 435.313 99.0447 435.514 97.9793L442.154 98.0148C441.906 99.743 441.367 101.365 440.539 102.88C439.722 104.395 438.651 105.733 437.325 106.893C435.999 108.041 434.449 108.94 432.673 109.592C430.897 110.231 428.926 110.55 426.76 110.55C423.564 110.55 420.712 109.811 418.202 108.331C415.693 106.851 413.716 104.715 412.272 101.921C410.828 99.1275 410.105 95.7776 410.105 91.8714C410.105 87.9533 410.833 84.6034 412.289 81.8216C413.745 79.0281 415.728 76.8915 418.238 75.4118C420.747 73.9322 423.588 73.1924 426.76 73.1924C428.784 73.1924 430.667 73.4765 432.407 74.0447C434.147 74.6128 435.697 75.4474 437.059 76.5482C438.42 77.6372 439.538 78.9748 440.414 80.561C441.302 82.1353 441.882 83.9346 442.154 85.9587Z" fill="black"></path><path d="M371.227 110.053H364.195L376.997 73.6895H385.129L397.949 110.053H390.918L381.205 81.1469H380.921L371.227 110.053ZM371.457 95.7954H390.634V101.087H371.457V95.7954ZM389.604 64.5986V68.5226H372.523V64.5986H389.604Z" fill="black"></path><path d="M349.511 89.2258V94.517H333.141V89.2258H349.511Z" fill="black"></path><path d="M292.457 110.053V73.6896H306.093C308.887 73.6896 311.231 74.2104 313.125 75.2521C315.03 76.2937 316.469 77.726 317.439 79.549C318.422 81.36 318.913 83.4197 318.913 85.7279C318.913 88.0598 318.422 90.1313 317.439 91.9424C316.457 93.7535 315.007 95.1799 313.089 96.2215C311.172 97.2514 308.81 97.7663 306.005 97.7663H296.967V92.3508H305.117C306.75 92.3508 308.088 92.0667 309.13 91.4985C310.171 90.9303 310.941 90.1491 311.438 89.1548C311.947 88.1605 312.201 87.0182 312.201 85.7279C312.201 84.4377 311.947 83.3013 311.438 82.3188C310.941 81.3364 310.165 80.5729 309.112 80.0284C308.07 79.472 306.727 79.1938 305.081 79.1938H299.044V110.053H292.457Z" fill="black"></path><path d="M250.945 110.053H243.914L256.716 73.6895H264.848L277.668 110.053H270.636L260.924 81.1469H260.64L250.945 110.053ZM251.176 95.7953H270.352V101.087H251.176V95.7953ZM264.386 70.4225L260.782 65.877L257.178 70.4225H251.549V70.1739L258.278 62.5034H263.303L270.015 70.1739V70.4225H264.386ZM260.8 119.872C259.77 119.872 258.888 119.529 258.154 118.842C257.432 118.156 257.071 117.333 257.071 116.374C257.071 115.415 257.432 114.593 258.154 113.906C258.888 113.22 259.764 112.876 260.782 112.876C261.812 112.876 262.688 113.22 263.41 113.906C264.144 114.593 264.511 115.415 264.511 116.374C264.511 117.333 264.144 118.156 263.41 118.842C262.688 119.529 261.818 119.872 260.8 119.872Z" fill="black"></path><path d="M206.586 110.053V73.6896H213.173V104.531H229.189V110.053H206.586Z" fill="black"></path><path d="M160.8 85.3018C160.504 84.343 160.095 83.4848 159.575 82.7272C159.066 81.9578 158.45 81.3008 157.728 80.7563C157.018 80.2118 156.201 79.8034 155.278 79.5312C154.354 79.2471 153.348 79.105 152.259 79.105C150.306 79.105 148.566 79.5963 147.039 80.5787C145.512 81.5612 144.311 83.0054 143.435 84.9111C142.571 86.8051 142.139 89.1133 142.139 91.8358C142.139 94.5821 142.571 96.9081 143.435 98.8138C144.299 100.72 145.5 102.17 147.039 103.164C148.578 104.146 150.365 104.638 152.401 104.638C154.248 104.638 155.846 104.283 157.195 103.572C158.557 102.862 159.604 101.856 160.338 100.554C161.072 99.24 161.439 97.7011 161.439 95.9374L162.93 96.1682H153.058V91.0191H167.813V95.387C167.813 98.5001 167.15 101.193 165.825 103.466C164.499 105.739 162.676 107.49 160.356 108.722C158.036 109.941 155.372 110.55 152.366 110.55C149.016 110.55 146.074 109.799 143.541 108.295C141.02 106.78 139.049 104.632 137.629 101.85C136.22 99.0565 135.516 95.7421 135.516 91.9069C135.516 88.9713 135.93 86.3493 136.759 84.0411C137.599 81.7329 138.771 79.7738 140.274 78.164C141.777 76.5423 143.541 75.3112 145.565 74.4708C147.59 73.6185 149.791 73.1924 152.17 73.1924C154.183 73.1924 156.059 73.4883 157.799 74.0802C159.539 74.6602 161.084 75.4888 162.433 76.566C163.795 77.6431 164.913 78.9215 165.789 80.4012C166.665 81.8808 167.239 83.5144 167.511 85.3018H160.8Z" fill="black"></path><path d="M119.262 73.6896V110.053H113.402L96.2681 85.284H95.9663V110.053H89.3789V73.6896H95.2738L112.39 98.4765H112.71V73.6896H119.262Z" fill="black"></path><path d="M47.8672 110.053H40.8359L53.6378 73.6895H61.7699L74.5895 110.053H67.5582L57.8459 81.1469H57.5618L47.8672 110.053ZM48.098 95.7953H67.2741V101.087H48.098V95.7953ZM55.2358 70.1029L59.2131 61.9885H65.4986L60.0476 70.1029H55.2358Z" fill="black"></path><path d="M21.076 83.686C20.9103 82.1353 20.2119 80.9279 18.9808 80.0638C17.7616 79.1997 16.1754 78.7677 14.2223 78.7677C12.8492 78.7677 11.6714 78.9748 10.6889 79.3891C9.70644 79.8034 8.95478 80.3657 8.43395 81.0759C7.91312 81.7861 7.64678 82.597 7.63494 83.5084C7.63494 84.266 7.80658 84.923 8.14986 85.4793C8.50497 86.0357 8.98438 86.5091 9.58807 86.8998C10.1918 87.2786 10.8606 87.5982 11.5945 87.8586C12.3284 88.119 13.0682 88.338 13.8139 88.5155L17.223 89.3678C18.5961 89.6874 19.916 90.1195 21.1825 90.664C22.4609 91.2085 23.6032 91.895 24.6094 92.7236C25.6274 93.5522 26.4323 94.5525 27.0241 95.7243C27.616 96.8962 27.9119 98.2693 27.9119 99.8437C27.9119 101.974 27.3674 103.851 26.2784 105.472C25.1894 107.082 23.6151 108.343 21.5554 109.254C19.5076 110.154 17.0277 110.604 14.1158 110.604C11.2867 110.604 8.83049 110.166 6.74716 109.29C4.67566 108.414 3.05398 107.135 1.8821 105.454C0.722064 103.774 0.094697 101.726 0 99.311H6.48082C6.57552 100.578 6.96615 101.631 7.6527 102.471C8.33925 103.312 9.23295 103.939 10.3338 104.354C11.4465 104.768 12.6894 104.975 14.0625 104.975C15.4948 104.975 16.7495 104.762 17.8267 104.336C18.9157 103.898 19.768 103.294 20.3835 102.525C20.9991 101.744 21.3127 100.832 21.3246 99.7904C21.3127 98.8434 21.0346 98.0622 20.4901 97.4466C19.9455 96.8193 19.1821 96.2984 18.1996 95.8841C17.2289 95.458 16.0926 95.0792 14.7905 94.7478L10.6534 93.6824C7.65862 92.913 5.29119 91.7471 3.55114 90.1846C1.82292 88.6102 0.958807 86.521 0.958807 83.9168C0.958807 81.7743 1.53883 79.8981 2.69886 78.2883C3.87074 76.6784 5.46283 75.4296 7.47514 74.5418C9.48745 73.6422 11.7661 73.1924 14.3111 73.1924C16.8916 73.1924 19.1525 73.6422 21.0938 74.5418C23.0469 75.4296 24.5798 76.6666 25.6925 78.2527C26.8052 79.8271 27.3793 81.6382 27.4148 83.686H21.076Z" fill="black"></path><path d="M1287.71 50.0532H1281.88L1294.97 13.6896H1301.31L1314.39 50.0532H1308.57L1298.29 20.2947H1298.01L1287.71 50.0532ZM1288.68 35.8132H1307.58V40.4296H1288.68V35.8132Z" fill="black"></path><path d="M1266.63 13.6896V50.0532H1261.59L1243.11 23.3842H1242.77V50.0532H1237.28V13.6896H1242.36L1260.86 40.3941H1261.2V13.6896H1266.63Z" fill="black"></path><path d="M1190.17 50.0532V13.6896H1195.66V29.4921H1213.79V13.6896H1219.29V50.0532H1213.79V34.1974H1195.66V50.0532H1190.17Z" fill="black"></path><path d="M1167.83 23.2421C1167.64 21.5612 1166.86 20.2591 1165.49 19.3358C1164.11 18.4007 1162.38 17.9332 1160.3 17.9332C1158.81 17.9332 1157.52 18.1699 1156.43 18.6434C1155.34 19.105 1154.5 19.7442 1153.89 20.561C1153.3 21.3659 1153 22.2833 1153 23.3131C1153 24.1772 1153.21 24.923 1153.61 25.5503C1154.02 26.1777 1154.56 26.7045 1155.22 27.1306C1155.9 27.5449 1156.62 27.8941 1157.39 28.1782C1158.16 28.4504 1158.9 28.6753 1159.61 28.8529L1163.16 29.7762C1164.32 30.0603 1165.51 30.445 1166.73 30.9303C1167.95 31.4156 1169.08 32.0548 1170.12 32.8479C1171.16 33.641 1172 34.6235 1172.64 35.7954C1173.29 36.9672 1173.62 38.3699 1173.62 40.0035C1173.62 42.0631 1173.09 43.892 1172.02 45.49C1170.97 47.088 1169.43 48.3486 1167.42 49.2719C1165.42 50.1952 1163 50.6569 1160.16 50.6569C1157.44 50.6569 1155.08 50.2248 1153.09 49.3607C1151.1 48.4966 1149.55 47.2715 1148.42 45.6853C1147.3 44.0873 1146.68 42.1933 1146.56 40.0035H1152.06C1152.17 41.3174 1152.6 42.4123 1153.34 43.2883C1154.1 44.1524 1155.06 44.7975 1156.24 45.2236C1157.42 45.6379 1158.72 45.8451 1160.12 45.8451C1161.67 45.8451 1163.05 45.6024 1164.26 45.1171C1165.48 44.6199 1166.44 43.9334 1167.14 43.0574C1167.84 42.1697 1168.19 41.1339 1168.19 39.9502C1168.19 38.873 1167.88 37.9912 1167.26 37.3046C1166.66 36.618 1165.84 36.0499 1164.79 35.6001C1163.76 35.1502 1162.6 34.7537 1161.3 34.4104L1157 33.2385C1154.09 32.4455 1151.78 31.2795 1150.07 29.7407C1148.38 28.2019 1147.54 26.1659 1147.54 23.6327C1147.54 21.5376 1148.1 19.7087 1149.24 18.1462C1150.38 16.5837 1151.91 15.3704 1153.86 14.5063C1155.8 13.6304 1157.99 13.1924 1160.43 13.1924C1162.89 13.1924 1165.06 13.6244 1166.94 14.4885C1168.84 15.3527 1170.33 16.5423 1171.42 18.0574C1172.51 19.5608 1173.07 21.289 1173.12 23.2421H1167.83Z" fill="black"></path><path d="M1130.01 13.6896V50.0532H1124.52V13.6896H1130.01Z" fill="black"></path><path d="M1082.29 50.0532V13.6896H1095.25C1098.07 13.6896 1100.41 14.1749 1102.27 15.1455C1104.14 16.1162 1105.54 17.4597 1106.46 19.1761C1107.38 20.8806 1107.84 22.8515 1107.84 25.0887C1107.84 27.3141 1107.38 29.2731 1106.44 30.9659C1105.52 32.6467 1104.12 33.9547 1102.25 34.8899C1100.39 35.825 1098.05 36.2926 1095.24 36.2926H1085.42V31.5695H1094.74C1096.52 31.5695 1097.96 31.315 1099.07 30.8061C1100.2 30.2971 1101.02 29.5572 1101.54 28.5866C1102.06 27.6159 1102.32 26.45 1102.32 25.0887C1102.32 23.7156 1102.06 22.526 1101.52 21.5198C1101 20.5137 1100.18 19.7443 1099.05 19.2116C1097.94 18.6671 1096.48 18.3948 1094.67 18.3948H1087.78V50.0532H1082.29ZM1100.24 33.647L1109.23 50.0532H1102.98L1094.17 33.647H1100.24Z" fill="black"></path><path d="M1039.09 50.0532V13.6896H1044.58V31.0546H1045.02L1060.27 13.6896H1067.18L1052.51 30.0603L1067.23 50.0532H1060.63L1048.87 33.8068L1044.58 38.7428V50.0532H1039.09Z" fill="black"></path><path d="M999.292 25.5148H993.752C993.539 24.3311 993.143 23.2894 992.563 22.3898C991.983 21.4902 991.273 20.7267 990.432 20.0993C989.592 19.472 988.651 18.9985 987.609 18.6789C986.579 18.3593 985.484 18.1995 984.324 18.1995C982.229 18.1995 980.353 18.7262 978.696 19.7797C977.05 20.8332 975.748 22.378 974.789 24.414C973.842 26.45 973.369 28.9358 973.369 31.8714C973.369 34.8306 973.842 37.3283 974.789 39.3643C975.748 41.4002 977.056 42.9391 978.713 43.9807C980.371 45.0224 982.235 45.5432 984.306 45.5432C985.455 45.5432 986.544 45.3894 987.573 45.0816C988.615 44.762 989.556 44.2944 990.397 43.6789C991.237 43.0634 991.947 42.3117 992.527 41.4239C993.119 40.5243 993.528 39.4945 993.752 38.3344L999.292 38.3522C998.996 40.1396 998.422 41.785 997.57 43.2883C996.73 44.7797 995.646 46.07 994.321 47.159C993.007 48.2362 991.503 49.0707 989.811 49.6626C988.118 50.2544 986.271 50.5503 984.271 50.5503C981.122 50.5503 978.317 49.8046 975.855 48.3131C973.393 46.8098 971.451 44.6614 970.031 41.8678C968.622 39.0742 967.918 35.7421 967.918 31.8714C967.918 27.9888 968.628 24.6566 970.049 21.8749C971.469 19.0814 973.41 16.9388 975.872 15.4474C978.335 13.944 981.134 13.1924 984.271 13.1924C986.2 13.1924 988 13.4706 989.669 14.0269C991.35 14.5714 992.859 15.3763 994.196 16.4417C995.534 17.4952 996.641 18.7854 997.517 20.3124C998.393 21.8276 998.984 23.5617 999.292 25.5148Z" fill="black"></path><path d="M950.052 11.7897H954.438C954.438 14.1453 954.095 16.1339 953.408 17.7556C952.733 19.3773 951.621 20.6143 950.07 21.4665C948.531 22.307 946.465 22.7272 943.873 22.7272V19.0695C945.578 19.0695 946.874 18.7913 947.762 18.235C948.661 17.6668 949.265 16.8441 949.573 15.767C949.892 14.6779 950.052 13.3522 950.052 11.7897ZM940.677 13.6895H946.181V37.6064C946.181 40.1514 945.584 42.4064 944.388 44.3714C943.193 46.3245 941.512 47.8633 939.346 48.9878C937.179 50.1005 934.64 50.6569 931.728 50.6569C928.828 50.6569 926.295 50.1005 924.129 48.9878C921.963 47.8633 920.282 46.3245 919.086 44.3714C917.891 42.4064 917.293 40.1514 917.293 37.6064V13.6895H922.779V37.1626C922.779 38.8079 923.14 40.2698 923.863 41.5482C924.596 42.8266 925.632 43.8328 926.97 44.5667C928.307 45.2887 929.894 45.6498 931.728 45.6498C933.575 45.6498 935.167 45.2887 936.505 44.5667C937.854 43.8328 938.884 42.8266 939.594 41.5482C940.316 40.2698 940.677 38.8079 940.677 37.1626V13.6895ZM929.544 10.0496L933.699 1.86426H939.292L933.788 10.0496H929.544Z" fill="black"></path><path d="M870.184 50.0532V13.6896H875.67V29.4921H893.799V13.6896H899.303V50.0532H893.799V34.1974H875.67V50.0532H870.184Z" fill="black"></path><path d="M825.82 18.4126V13.6896H853.963V18.4126H842.617V50.0532H837.148V18.4126H825.82Z" fill="black"></path><path d="M757.348 13.6895H763.58L773.079 30.2201H773.47L782.969 13.6895H789.201L776.009 35.7776V50.0532H770.54V35.7776L757.348 13.6895ZM771.091 10.0496L775.245 1.86426H780.838L775.334 10.0496H771.091Z" fill="black"></path><path d="M696.797 50.0532V13.6896H719.595V18.4126H702.283V29.4921H718.405V34.1974H702.283V45.3302H719.808V50.0532H696.797ZM710.131 4.3501L717.375 10.5113H712.137L708.196 6.99569L704.236 10.5113H699.016L706.172 4.3501H710.131ZM697.205 0.0532227L700.863 6.56956H697.045L691.754 0.0532227H697.205Z" fill="black"></path><path d="M654.962 13.6896L665.082 43.3061H665.491L675.612 13.6896H681.542L668.456 50.0532H662.117L649.031 13.6896H654.962Z" fill="black"></path><path d="M588.426 50.0533V13.6896H611.224V18.4126H593.912V29.4922H610.034V34.1974H593.912V45.3303H611.437V50.0533H588.426ZM590.627 10.4226L597.836 4.26136H601.796L609.022 10.4226H603.802L599.86 6.90696L595.883 10.4226H590.627ZM607.122 6.48082L610.833 0H616.249L611.011 6.48082H607.122Z" fill="black"></path><path d="M544.062 18.4126V13.6896H572.205V18.4126H560.859V50.0532H555.391V18.4126H544.062Z" fill="black"></path><path d="M506.058 25.5148H500.518C500.305 24.3311 499.909 23.2894 499.328 22.3898C498.748 21.4902 498.038 20.7267 497.198 20.0993C496.357 19.472 495.416 18.9985 494.375 18.6789C493.345 18.3593 492.25 18.1995 491.09 18.1995C488.995 18.1995 487.119 18.7262 485.461 19.7797C483.816 20.8332 482.514 22.378 481.555 24.414C480.608 26.45 480.135 28.9358 480.135 31.8714C480.135 34.8306 480.608 37.3283 481.555 39.3643C482.514 41.4002 483.822 42.9391 485.479 43.9807C487.136 45.0224 489.001 45.5432 491.072 45.5432C492.22 45.5432 493.309 45.3894 494.339 45.0816C495.381 44.762 496.322 44.2944 497.162 43.6789C498.003 43.0634 498.713 42.3117 499.293 41.4239C499.885 40.5243 500.293 39.4945 500.518 38.3344L506.058 38.3522C505.762 40.1396 505.188 41.785 504.336 43.2883C503.495 44.7797 502.412 46.07 501.086 47.159C499.772 48.2362 498.269 49.0707 496.576 49.6626C494.884 50.2544 493.037 50.5503 491.037 50.5503C487.888 50.5503 485.083 49.8046 482.62 48.3131C480.158 46.8098 478.217 44.6614 476.797 41.8678C475.388 39.0742 474.684 35.7421 474.684 31.8714C474.684 27.9888 475.394 24.6566 476.814 21.8749C478.235 19.0814 480.176 16.9388 482.638 15.4474C485.1 13.944 487.9 13.1924 491.037 13.1924C492.966 13.1924 494.765 13.4706 496.434 14.0269C498.115 14.5714 499.624 15.3763 500.962 16.4417C502.3 17.4952 503.406 18.7854 504.282 20.3124C505.158 21.8276 505.75 23.5617 506.058 25.5148Z" fill="black"></path><path d="M459.017 31.8715C459.017 35.754 458.307 39.0921 456.886 41.8857C455.466 44.6674 453.519 46.8099 451.045 48.3132C448.583 49.8047 445.783 50.5504 442.646 50.5504C439.498 50.5504 436.686 49.8047 434.212 48.3132C431.75 46.8099 429.809 44.6615 428.388 41.8679C426.968 39.0743 426.258 35.7422 426.258 31.8715C426.258 27.9889 426.968 24.6567 428.388 21.875C429.809 19.0814 431.75 16.9389 434.212 15.4474C436.686 13.9441 439.498 13.1925 442.646 13.1925C445.783 13.1925 448.583 13.9441 451.045 15.4474C453.519 16.9389 455.466 19.0814 456.886 21.875C458.307 24.6567 459.017 27.9889 459.017 31.8715ZM453.584 31.8715C453.584 28.9122 453.104 26.4205 452.146 24.3963C451.199 22.3603 449.897 20.8215 448.239 19.7798C446.594 18.7263 444.73 18.1996 442.646 18.1996C440.551 18.1996 438.681 18.7263 437.036 19.7798C435.39 20.8215 434.088 22.3603 433.129 24.3963C432.182 26.4205 431.709 28.9122 431.709 31.8715C431.709 34.8307 432.182 37.3284 433.129 39.3643C434.088 41.3885 435.39 42.9273 437.036 43.9808C438.681 45.0225 440.551 45.5433 442.646 45.5433C444.73 45.5433 446.594 45.0225 448.239 43.9808C449.897 42.9273 451.199 41.3885 452.146 39.3643C453.104 37.3284 453.584 34.8307 453.584 31.8715ZM433.449 10.4226L440.658 4.26136H444.617L451.844 10.4226H446.624L442.682 6.90696L438.705 10.4226H433.449ZM449.944 6.48082L453.655 0H459.07L453.832 6.48082H449.944Z" fill="black"></path><path d="M403.947 13.6896H409.451V37.6065C409.451 40.1515 408.853 42.4064 407.658 44.3714C406.462 46.3245 404.781 47.8633 402.615 48.9879C400.449 50.1006 397.91 50.6569 394.998 50.6569C392.098 50.6569 389.565 50.1006 387.398 48.9879C385.232 47.8633 383.551 46.3245 382.356 44.3714C381.16 42.4064 380.562 40.1515 380.562 37.6065V13.6896H386.049V37.1626C386.049 38.8079 386.41 40.2698 387.132 41.5482C387.866 42.8267 388.902 43.8328 390.239 44.5667C391.577 45.2888 393.163 45.6498 394.998 45.6498C396.844 45.6498 398.437 45.2888 399.774 44.5667C401.124 43.8328 402.153 42.8267 402.864 41.5482C403.586 40.2698 403.947 38.8079 403.947 37.1626V13.6896Z" fill="black"></path><path d="M345.507 38.2634H350.904L354.704 43.2172L356.498 45.4189L362.552 53.3202H356.941L352.893 48.0468L351.508 46.1292L345.507 38.2634ZM363.724 31.8714C363.724 35.7539 363.014 39.092 361.593 41.8856C360.173 44.6673 358.226 46.8098 355.752 48.3131C353.29 49.8046 350.49 50.5503 347.353 50.5503C344.205 50.5503 341.393 49.8046 338.919 48.3131C336.457 46.8098 334.516 44.6614 333.096 41.8678C331.675 39.0742 330.965 35.7421 330.965 31.8714C330.965 27.9888 331.675 24.6566 333.096 21.8749C334.516 19.0814 336.457 16.9388 338.919 15.4474C341.393 13.944 344.205 13.1924 347.353 13.1924C350.49 13.1924 353.29 13.944 355.752 15.4474C358.226 16.9388 360.173 19.0814 361.593 21.8749C363.014 24.6566 363.724 27.9888 363.724 31.8714ZM358.291 31.8714C358.291 28.9121 357.811 26.4204 356.853 24.3962C355.906 22.3602 354.604 20.8214 352.946 19.7797C351.301 18.7262 349.437 18.1995 347.353 18.1995C345.258 18.1995 343.388 18.7262 341.743 19.7797C340.097 20.8214 338.795 22.3602 337.836 24.3962C336.889 26.4204 336.416 28.9121 336.416 31.8714C336.416 34.8306 336.889 37.3283 337.836 39.3643C338.795 41.3884 340.097 42.9272 341.743 43.9807C343.388 45.0224 345.258 45.5432 347.353 45.5432C349.437 45.5432 351.301 45.0224 352.946 43.9807C354.604 42.9272 355.906 41.3884 356.853 39.3643C357.811 37.3283 358.291 34.8306 358.291 31.8714Z" fill="black"></path><path d="M290.912 13.6896V50.0532H285.426V13.6896H290.912Z" fill="black"></path><path d="M268.587 31.8714C268.587 35.754 267.877 39.0921 266.457 41.8856C265.036 44.6673 263.089 46.8099 260.615 48.3132C258.153 49.8047 255.353 50.5504 252.217 50.5504C249.068 50.5504 246.257 49.8047 243.783 48.3132C241.321 46.8099 239.379 44.6614 237.959 41.8679C236.538 39.0743 235.828 35.7422 235.828 31.8714C235.828 27.9888 236.538 24.6567 237.959 21.875C239.379 19.0814 241.321 16.9389 243.783 15.4474C246.257 13.9441 249.068 13.1924 252.217 13.1924C255.353 13.1924 258.153 13.9441 260.615 15.4474C263.089 16.9389 265.036 19.0814 266.457 21.875C267.877 24.6567 268.587 27.9888 268.587 31.8714ZM263.154 31.8714C263.154 28.9121 262.675 26.4204 261.716 24.3963C260.769 22.3603 259.467 20.8215 257.81 19.7798C256.164 18.7263 254.3 18.1995 252.217 18.1995C250.121 18.1995 248.251 18.7263 246.606 19.7798C244.96 20.8215 243.658 22.3603 242.7 24.3963C241.753 26.4204 241.279 28.9121 241.279 31.8714C241.279 34.8307 241.753 37.3283 242.7 39.3643C243.658 41.3885 244.96 42.9273 246.606 43.9808C248.251 45.0225 250.121 45.5433 252.217 45.5433C254.3 45.5433 256.164 45.0225 257.81 43.9808C259.467 42.9273 260.769 41.3885 261.716 39.3643C262.675 37.3283 263.154 34.8307 263.154 31.8714ZM255.857 10.4226L252.217 5.66403L248.559 10.4226H243.765V10.1562L249.997 2.62781H254.418L260.668 10.1562V10.4226H255.857ZM252.199 59.4637C251.287 59.4637 250.5 59.156 249.837 58.5405C249.174 57.9249 248.843 57.1792 248.843 56.3032C248.843 55.4273 249.174 54.6815 249.837 54.066C250.5 53.4505 251.287 53.1427 252.199 53.1427C253.122 53.1427 253.909 53.4505 254.56 54.066C255.223 54.6815 255.555 55.4273 255.555 56.3032C255.555 57.1792 255.223 57.9249 254.56 58.5405C253.909 59.156 253.122 59.4637 252.199 59.4637Z" fill="black"></path><path d="M189.891 50.0532V13.6896H195.377V29.4921H213.506V13.6896H219.01V50.0532H213.506V34.1974H195.377V50.0532H189.891Z" fill="black"></path></svg> 