<?xml version="1.0" encoding="UTF-8"?> <svg xmlns="http://www.w3.org/2000/svg" width="1785" height="1260" viewBox="0 0 1785 1260" fill="none"><g clip-path="url(#clip0_2068_18)"><rect width="1260" height="1785" transform="matrix(0 1 -1 0 1785 0)" fill="white"></rect><path d="M1058.34 509.927V637.939H930.324V509.927H1058.34ZM934.195 634.068H1054.47V513.797H934.195V634.068Z" fill="black"></path><path d="M1079.03 489.237V658.632H909.634V489.237H1079.03ZM913.504 654.762H1075.16V493.108H913.504V654.762Z" fill="black"></path><path d="M1217.68 575.756C1217.68 540.149 1193.31 507.569 1153.18 483.787C1113.09 460.03 1057.57 445.273 996.156 445.273C934.736 445.273 879.223 460.03 839.132 483.787C798.999 507.569 774.633 540.149 774.633 575.756C774.633 611.364 798.999 643.943 839.132 667.726C879.223 691.483 934.736 706.24 996.156 706.24C1057.57 706.24 1113.09 691.483 1153.18 667.726C1193.31 643.943 1217.68 611.364 1217.68 575.756ZM1221.55 575.756C1221.55 613.281 1195.89 646.912 1155.15 671.055C1114.36 695.224 1058.15 710.11 996.156 710.11C934.164 710.11 877.944 695.224 837.159 671.055C796.417 646.912 770.763 613.281 770.762 575.756C770.762 538.231 796.417 504.601 837.159 480.457C877.944 456.288 934.164 441.402 996.156 441.402C1058.15 441.403 1114.36 456.289 1155.15 480.457C1195.89 504.601 1221.55 538.231 1221.55 575.756Z" fill="black"></path><path d="M1238.36 575.756C1238.36 534.382 1211.62 496.635 1167.77 469.134C1123.94 441.648 1063.27 424.583 996.156 424.583C929.043 424.583 868.374 441.648 824.546 469.134C780.692 496.635 753.943 534.382 753.943 575.756C753.943 617.132 780.692 654.881 824.546 682.383C868.374 709.868 929.043 726.93 996.156 726.93C1063.27 726.93 1123.94 709.869 1167.77 682.383C1211.62 654.881 1238.36 617.132 1238.36 575.756ZM1242.24 575.756C1242.24 618.941 1214.33 657.748 1169.82 685.66C1125.29 713.589 1063.88 730.8 996.156 730.8C928.431 730.8 867.026 713.589 822.49 685.66C777.981 657.748 750.073 618.941 750.073 575.756C750.073 532.572 777.981 493.765 822.49 465.853C867.026 437.924 928.431 420.713 996.156 420.713C1063.88 420.713 1125.29 437.924 1169.82 465.853C1214.33 493.765 1242.23 532.572 1242.24 575.756Z" fill="black"></path><path d="M970.061 573.274V558.695H967.455V571.081H962.898V558.695H960.302V571.081H955.746V558.695H953.139V573.274H970.061ZM975.092 576.799V571.495H975.143C975.729 572.698 976.941 573.445 978.497 573.445C981.184 573.445 982.902 571.334 982.902 567.919C982.902 564.494 981.174 562.383 978.457 562.383C976.901 562.383 975.688 563.171 975.082 564.413H975.032V562.565H972.577V576.799H975.092ZM977.689 571.384C976.123 571.384 975.082 570.02 975.072 567.919C975.082 565.838 976.123 564.454 977.689 564.454C979.315 564.454 980.326 565.808 980.326 567.919C980.326 570.041 979.315 571.384 977.689 571.384ZM987.185 573.274L991.843 566.07H991.924V573.274H994.389V562.565H991.924L987.266 569.717H987.185V562.565H984.72V573.274H987.185ZM998.005 576.072V573.274H1005.6V576.072H1007.91V571.334H1006.28V562.565H998.137L997.763 568.151C997.662 569.596 997.339 570.869 996.551 571.334H995.702V576.072H998.005ZM1003.77 571.334H999.187V571.253C999.682 570.546 999.925 569.495 1000.01 568.283L1000.28 564.494H1003.77V571.334ZM1011.36 573.274L1015.02 568.485H1015.09V573.274H1017.57V568.485H1017.66L1021.3 573.274H1024.34L1019.97 567.576L1024.15 562.565H1021.24L1017.66 567.03H1017.57V562.565H1015.09V567.03H1015.02L1011.42 562.565H1008.48L1012.69 567.606L1008.35 573.274H1011.36ZM1028.09 573.274L1032.75 566.07H1032.83V573.274H1035.29V562.565H1032.83L1028.17 569.717H1028.09V562.565H1025.63V573.274H1028.09ZM959.054 593.964V583.619H959.125L963.338 593.843H965.116L969.329 583.619H969.4V593.964H971.743V579.386H968.733L964.267 590.388H964.187L959.721 579.386H956.7V593.964H959.054ZM977.421 594.136C978.795 594.136 980.139 593.418 980.755 592.257H980.806V593.964H983.23V586.589C983.23 584.437 981.503 583.033 978.846 583.033C976.118 583.033 974.41 584.467 974.299 586.468H976.633C976.795 585.579 977.552 585.003 978.745 585.003C979.987 585.003 980.745 585.649 980.745 586.771V587.539L977.916 587.7C975.31 587.862 973.845 589.004 973.845 590.903C973.845 592.832 975.35 594.136 977.421 594.136ZM978.179 592.236C977.088 592.236 976.36 591.681 976.36 590.802C976.36 589.953 977.057 589.408 978.27 589.327L980.745 589.175V589.994C980.745 591.287 979.603 592.236 978.179 592.236ZM987.938 593.964V589.418H992.464V593.964H994.97V583.255H992.464V587.478H987.938V583.255H985.433V593.964H987.938ZM998.596 596.762V593.964H1006.19V596.762H1008.5V592.024H1006.87V583.255H998.728L998.354 588.842C998.253 590.287 997.93 591.56 997.142 592.024H996.293V596.762H998.596ZM1004.37 592.024H999.778V591.943C1000.27 591.236 1000.52 590.186 1000.6 588.973L1000.87 585.185H1004.37V592.024ZM1012.38 593.964L1017.03 586.761H1017.11V593.964H1019.58V583.255H1017.11L1012.46 590.408H1012.38V583.255H1009.91V593.964H1012.38ZM1024.35 597.49V592.186H1024.4C1024.98 593.388 1026.2 594.136 1027.75 594.136C1030.44 594.136 1032.16 592.024 1032.16 588.61C1032.16 585.185 1030.43 583.073 1027.71 583.073C1026.16 583.073 1024.94 583.861 1024.34 585.104H1024.29V583.255H1021.83V597.49H1024.35ZM1026.94 592.075C1025.38 592.075 1024.34 590.711 1024.33 588.61C1024.34 586.528 1025.38 585.144 1026.94 585.144C1028.57 585.144 1029.58 586.498 1029.58 588.61C1029.58 590.731 1028.57 592.075 1026.94 592.075Z" fill="black"></path><path d="M768.462 932.869L754.909 1018.43L669.343 1004.88L682.896 919.316L768.462 932.869ZM673.772 1001.67L751.692 1014.01L764.034 936.086L686.113 923.745L673.772 1001.67Z" fill="black"></path><path d="M792.133 915.67L772.108 1042.11L645.672 1022.08L665.698 895.645L792.133 915.67ZM650.1 1018.86L768.891 1037.68L787.705 918.887L668.915 900.073L650.1 1018.86Z" fill="black"></path><path d="M1537.43 861.29L1476.17 922.548L1414.91 861.29L1476.17 800.031L1537.43 861.29ZM1420.39 861.29L1476.17 917.075L1531.96 861.29L1476.17 805.505L1420.39 861.29Z" fill="black"></path><path d="M1566.69 861.284L1476.17 951.802L1385.65 861.284L1476.17 770.766L1566.69 861.284ZM1391.13 861.284L1476.17 946.328L1561.22 861.284L1476.17 776.239L1391.13 861.284Z" fill="black"></path><path d="M1585.97 861.287C1585.97 814.787 1537.29 776.322 1476.17 776.321C1415.05 776.321 1366.38 814.787 1366.38 861.287C1366.38 907.787 1415.06 946.249 1476.17 946.249C1537.29 946.249 1585.97 907.787 1585.97 861.287ZM1589.84 861.287C1589.84 910.773 1538.47 950.119 1476.17 950.12C1413.88 950.12 1362.51 910.773 1362.51 861.287C1362.51 811.801 1413.88 772.451 1476.17 772.451C1538.47 772.452 1589.84 811.801 1589.84 861.287Z" fill="black"></path><path d="M1606.66 861.283C1606.66 803.288 1548.63 755.628 1476.17 755.628C1403.71 755.628 1345.69 803.288 1345.69 861.283C1345.69 919.279 1403.71 966.939 1476.17 966.939C1548.63 966.939 1606.66 919.279 1606.66 861.283ZM1610.53 861.283C1610.53 922.129 1549.98 970.809 1476.17 970.809C1402.37 970.809 1341.82 922.129 1341.82 861.283C1341.82 800.438 1402.37 751.758 1476.17 751.758C1549.98 751.758 1610.53 800.438 1610.53 861.283Z" fill="black"></path><path d="M1490.14 861.601V857.358H1485.93V861.601H1483.57V851.585H1485.93V855.535H1490.14V851.585H1492.49V861.601H1490.14Z" fill="black"></path><path d="M1476.1 861.772C1474.09 861.772 1472.74 860.534 1472.74 858.748V858.729C1472.74 856.953 1474.12 855.885 1476.54 855.734L1479.16 855.573V854.884C1479.16 853.872 1478.5 853.258 1477.32 853.258C1476.2 853.258 1475.51 853.778 1475.36 854.515L1475.34 854.6H1473.16L1473.17 854.487C1473.32 852.71 1474.85 851.378 1477.39 851.378C1479.91 851.378 1481.51 852.701 1481.51 854.713V861.602H1479.16V860.062H1479.11C1478.53 861.11 1477.41 861.772 1476.1 861.772ZM1475.09 858.654C1475.09 859.476 1475.76 859.977 1476.8 859.977C1478.15 859.977 1479.16 859.079 1479.16 857.888V857.132L1476.87 857.274C1475.72 857.35 1475.09 857.851 1475.09 858.644V858.654Z" fill="black"></path><path d="M1456.77 861.6V847.965H1459.57L1463.76 858.378H1463.82L1468 847.965H1470.81V861.6H1468.62V851.905H1468.54L1464.62 861.6H1462.96L1459.03 851.905H1458.96V861.6H1456.77Z" fill="black"></path><path d="M1485.47 882.294L1488.7 877.296L1485.51 872.278H1488.15L1490.17 875.793H1490.22L1492.21 872.278H1494.79L1491.57 877.23L1494.75 882.294H1492.18L1490.1 878.704H1490.06L1487.98 882.294H1485.47Z" fill="black"></path><path d="M1475.08 885.602V872.279H1477.43V874.008H1477.49C1478.06 872.808 1479.16 872.071 1480.59 872.071C1483.14 872.071 1484.74 874.056 1484.74 877.287V877.297C1484.74 880.509 1483.13 882.494 1480.63 882.494C1479.2 882.494 1478.06 881.775 1477.48 880.604H1477.43V885.602H1475.08ZM1479.89 880.509C1481.4 880.509 1482.34 879.271 1482.34 877.297V877.287C1482.34 875.284 1481.39 874.056 1479.89 874.056C1478.43 874.056 1477.42 875.322 1477.42 877.287V877.297C1477.42 879.253 1478.44 880.509 1479.89 880.509Z" fill="black"></path><path d="M1467.61 882.465C1465.6 882.465 1464.25 881.227 1464.25 879.442V879.423C1464.25 877.646 1465.64 876.578 1468.06 876.427L1470.68 876.267V875.577C1470.68 874.566 1470.01 873.952 1468.83 873.952C1467.72 873.952 1467.03 874.471 1466.88 875.208L1466.86 875.293H1464.68L1464.69 875.18C1464.84 873.404 1466.37 872.071 1468.91 872.071C1471.42 872.071 1473.03 873.394 1473.03 875.407V882.295H1470.68V880.755H1470.63C1470.04 881.804 1468.93 882.465 1467.61 882.465ZM1466.6 879.347C1466.6 880.169 1467.27 880.67 1468.31 880.67C1469.66 880.67 1470.68 879.772 1470.68 878.582V877.826L1468.39 877.967C1467.24 878.043 1466.6 878.544 1466.6 879.338V879.347Z" fill="black"></path><path d="M1463.32 874.093H1458.88V882.294H1456.53V872.278H1463.32V874.093Z" fill="black"></path><path d="M275.656 726.325C323.589 678.392 395.692 664.085 458.295 690.086C520.898 716.087 561.649 777.266 561.52 845.054C561.343 937.288 486.619 1012.01 394.385 1012.19C326.598 1012.32 265.419 971.567 239.417 908.964C213.417 846.361 227.723 774.258 275.656 726.325ZM456.809 693.662C395.654 668.262 325.218 682.236 278.393 729.061C231.568 775.887 217.593 846.322 242.993 907.478C268.393 968.634 328.157 1008.44 394.378 1008.32C484.48 1008.15 557.477 935.148 557.65 845.047C557.776 778.826 517.966 719.062 456.809 693.662Z" fill="black"></path><path d="M261.025 711.694C314.88 657.839 395.893 641.767 466.231 670.98C536.569 700.194 582.358 768.933 582.213 845.096C582.014 948.725 498.055 1032.68 394.426 1032.88C318.263 1033.03 249.524 987.239 220.311 916.901C191.097 846.563 207.169 765.55 261.025 711.694ZM464.746 674.556C395.855 645.944 316.512 661.687 263.765 714.435C211.017 767.182 195.274 846.525 223.886 915.416C252.499 984.307 319.822 1029.15 394.419 1029.01C495.916 1028.82 578.148 946.585 578.342 845.088C578.484 770.492 533.637 703.169 464.746 674.556Z" fill="black"></path><path d="M359.515 853.007V848.188H362.465C365.415 848.188 367.486 846.218 367.486 843.308C367.486 840.399 365.476 838.429 362.576 838.429H356.909V853.007H359.515ZM361.879 846.087H359.515V840.56H361.889C363.758 840.56 364.839 841.561 364.839 843.308C364.839 845.076 363.748 846.087 361.879 846.087ZM372.548 853.179C373.922 853.179 375.265 852.461 375.882 851.3H375.932V853.007H378.357V845.632C378.357 843.48 376.629 842.076 373.972 842.076C371.245 842.076 369.537 843.51 369.426 845.511H371.76C371.921 844.622 372.679 844.046 373.871 844.046C375.114 844.046 375.872 844.692 375.872 845.814V846.582L373.043 846.743C370.436 846.905 368.971 848.047 368.971 849.946C368.971 851.875 370.477 853.179 372.548 853.179ZM373.306 851.279C372.214 851.279 371.487 850.724 371.487 849.845C371.487 848.996 372.184 848.451 373.396 848.37L375.872 848.218V849.037C375.872 850.33 374.73 851.279 373.306 851.279ZM385.247 853.219C387.864 853.219 389.642 851.734 389.945 849.491H387.561C387.278 850.562 386.48 851.188 385.267 851.188C383.681 851.188 382.661 849.865 382.661 847.653C382.661 845.48 383.671 844.117 385.257 844.117C386.51 844.117 387.278 844.864 387.54 845.824H389.925C389.632 843.733 387.924 842.076 385.227 842.076C382.115 842.076 380.125 844.258 380.125 847.653C380.125 851.098 382.115 853.219 385.247 853.219ZM396.38 853.219C399.522 853.219 401.563 851.128 401.563 847.653C401.563 844.187 399.502 842.076 396.38 842.076C393.258 842.076 391.198 844.197 391.198 847.653C391.198 851.128 393.238 853.219 396.38 853.219ZM396.38 851.229C394.784 851.229 393.754 849.936 393.754 847.653C393.754 845.379 394.794 844.076 396.38 844.076C397.976 844.076 399.007 845.379 399.007 847.653C399.007 849.936 397.976 851.229 396.38 851.229ZM404.563 856.987C407.008 856.987 408.19 856.088 409.11 853.431L412.979 842.298H410.332L407.806 850.865H407.766L405.24 842.298H402.492L406.301 853.017C406.311 853.047 406.16 853.583 406.16 853.613C405.877 854.603 405.341 854.997 404.301 854.997C404.149 854.997 403.705 854.987 403.573 854.957V856.947C403.705 856.977 404.422 856.987 404.563 856.987ZM414.373 853.118C416.889 853.118 417.697 851.118 417.899 848.016L418.152 844.238H421.203V853.007H423.708V842.298H415.98L415.636 847.885C415.535 849.663 415.192 850.916 414.151 850.916C413.868 850.916 413.656 850.865 413.555 850.835V852.997C413.686 853.047 413.979 853.118 414.373 853.118ZM428.416 853.007L433.073 845.804H433.154V853.007H435.619V842.298H433.154L428.497 849.451H428.416V842.298H425.951V853.007H428.416Z" fill="black"></path><path d="M181.45 401.384C181.994 400.84 182.879 400.84 183.423 401.384C183.967 401.928 183.967 402.812 183.423 403.357L136.624 450.156C136.08 450.7 135.195 450.7 134.651 450.156C134.107 449.612 134.107 448.727 134.651 448.183L181.45 401.384Z" fill="#2A96FB"></path><path d="M207.728 405.898C208.273 405.355 209.154 405.357 209.697 405.902C210.24 406.447 210.238 407.328 209.694 407.871L140.931 476.43C140.386 476.972 139.505 476.97 138.962 476.426C138.419 475.881 138.421 475 138.966 474.457L207.728 405.898Z" fill="#2A96FB"></path><path d="M225.584 419.241C226.129 418.698 227.01 418.7 227.553 419.245C228.097 419.789 228.098 420.671 227.553 421.214L154.478 494.081C153.933 494.624 153.052 494.622 152.509 494.077C151.967 493.532 151.968 492.651 152.513 492.108L225.584 419.241Z" fill="#2A96FB"></path><path d="M236.052 439.561C236.595 439.018 237.477 439.019 238.021 439.561C238.565 440.106 238.565 440.99 238.021 441.534L174.803 504.752C174.259 505.296 173.374 505.296 172.83 504.752C172.288 504.208 172.287 503.327 172.83 502.783L236.052 439.561Z" fill="#2A96FB"></path><path d="M233.797 472.811C234.343 472.269 235.224 472.274 235.766 472.818C236.308 473.364 236.309 474.249 235.763 474.791L207.846 502.499C207.3 503.042 206.416 503.038 205.873 502.492C205.333 501.946 205.336 501.065 205.881 500.523L233.797 472.811Z" fill="#2A96FB"></path><path d="M166.675 431.559C167.219 431.017 168.1 431.016 168.644 431.559C169.188 432.104 169.188 432.988 168.644 433.532L149.145 453.031C148.601 453.576 147.716 453.576 147.172 453.031C146.629 452.488 146.63 451.606 147.172 451.062L166.675 431.559Z" fill="#2A96FB"></path><path d="M193.77 404.464C194.314 403.921 195.196 403.921 195.739 404.464C196.283 405.008 196.283 405.893 195.739 406.437L176.24 425.936C175.696 426.48 174.812 426.48 174.267 425.936C173.724 425.392 173.725 424.511 174.267 423.967L193.77 404.464Z" fill="#2A96FB"></path><path d="M154.972 474.251C155.516 473.707 156.401 473.707 156.945 474.251C157.489 474.795 157.489 475.68 156.945 476.224L146.887 486.281C146.343 486.825 145.458 486.825 144.914 486.281C144.37 485.737 144.37 484.852 144.914 484.308L154.972 474.251Z" fill="#2A96FB"></path><path d="M182.075 447.153C182.622 446.613 183.503 446.618 184.044 447.164C184.585 447.712 184.58 448.593 184.033 449.134L164.738 468.224C164.191 468.764 163.309 468.759 162.769 468.213C162.228 467.666 162.233 466.785 162.78 466.244L182.075 447.153Z" fill="#2A96FB"></path><path d="M209.169 420.057C209.716 419.517 210.597 419.522 211.138 420.069C211.679 420.616 211.674 421.497 211.127 422.038L191.832 441.129C191.285 441.669 190.404 441.664 189.863 441.117C189.322 440.571 189.328 439.689 189.874 439.148L209.169 420.057Z" fill="#2A96FB"></path><path d="M170.563 489.656C171.101 489.107 171.983 489.096 172.532 489.633C173.083 490.171 173.093 491.056 172.555 491.606L163.73 500.636C163.192 501.186 162.307 501.196 161.757 500.658C161.208 500.121 161.198 499.239 161.734 498.689L170.563 489.656Z" fill="#2A96FB"></path><path d="M197.673 462.544C198.22 462.003 199.101 462.008 199.643 462.555C200.184 463.102 200.178 463.983 199.631 464.525L180.132 483.819C179.585 484.36 178.704 484.355 178.163 483.808C177.622 483.261 177.627 482.38 178.174 481.839L197.673 462.544Z" fill="#2A96FB"></path><path d="M224.768 435.455C225.315 434.914 226.195 434.92 226.737 435.466C227.278 436.013 227.272 436.894 226.725 437.436L207.226 456.731C206.679 457.271 205.798 457.266 205.257 456.719C204.716 456.172 204.722 455.291 205.269 454.75L224.768 435.455Z" fill="#2A96FB"></path><path d="M212.854 478.161C213.395 477.614 214.276 477.608 214.823 478.149C215.37 478.69 215.374 479.572 214.835 480.119L195.744 499.413C195.203 499.96 194.322 499.965 193.775 499.425C193.228 498.884 193.223 498.003 193.763 497.456L212.854 478.161Z" fill="#2A96FB"></path><path d="M237.9 453.315C238.444 452.772 239.325 452.773 239.869 453.315C240.413 453.859 240.413 454.744 239.869 455.288L222.834 472.323C222.29 472.867 221.406 472.867 220.861 472.323C220.319 471.779 220.319 470.898 220.861 470.354L237.9 453.315Z" fill="#2A96FB"></path><path d="M187.157 400.564C216.492 400.564 240.276 424.345 240.279 453.679L240.268 454.998C239.983 468.628 234.443 481.642 224.779 491.305C214.805 501.28 201.262 506.857 187.157 506.802C157.821 506.801 134.038 483.019 134.038 453.683C134.039 424.348 157.821 400.565 187.157 400.564ZM136.828 453.683C136.828 481.48 159.36 504.015 187.157 504.016H187.164C200.528 504.069 213.36 498.786 222.81 489.336C232.26 479.887 237.543 467.054 237.49 453.691V453.683C237.489 425.886 214.954 403.354 187.157 403.354C159.36 403.355 136.829 425.887 136.828 453.683Z" fill="black"></path><path d="M187.16 379.874C227.921 379.875 260.965 412.918 260.968 453.679C261.046 473.279 253.296 492.102 239.436 505.962C225.577 519.82 206.758 527.566 187.16 527.491V527.494L187.156 527.491L187.152 527.494V527.491C146.392 527.487 113.348 494.447 113.348 453.686C113.348 412.922 146.396 379.874 187.16 379.874ZM116.137 453.686C116.138 492.91 147.935 524.709 187.16 524.709H187.164C206.021 524.784 224.128 517.324 237.463 503.989C250.797 490.654 258.257 472.548 258.182 453.69V453.686C258.182 414.462 226.384 382.664 187.16 382.663C147.935 382.663 116.137 414.461 116.137 453.686Z" fill="black"></path><path d="M111.103 165.51C111.647 164.965 112.532 164.966 113.076 165.51C113.62 166.054 113.62 166.938 113.076 167.483L66.2766 214.282C65.7325 214.826 64.8478 214.826 64.3036 214.282C63.7597 213.738 63.7596 212.853 64.3036 212.309L111.103 165.51Z" fill="#2A96FB"></path><path d="M137.381 170.024C137.926 169.481 138.807 169.483 139.35 170.028C139.893 170.573 139.891 171.454 139.346 171.997L70.5834 240.556C70.0385 241.098 69.1572 241.096 68.6143 240.552C68.071 240.007 68.0733 239.126 68.618 238.583L137.381 170.024Z" fill="#2A96FB"></path><path d="M155.237 183.37C155.781 182.827 156.662 182.829 157.206 183.374C157.749 183.918 157.75 184.799 157.206 185.343L84.1307 258.21C83.5858 258.753 82.7048 258.751 82.1615 258.206C81.619 257.661 81.6207 256.78 82.1653 256.237L155.237 183.37Z" fill="#2A96FB"></path><path d="M165.704 203.69C166.247 203.147 167.129 203.148 167.673 203.69C168.217 204.234 168.217 205.119 167.673 205.663L104.455 268.881C103.911 269.425 103.026 269.425 102.482 268.881C101.939 268.337 101.939 267.456 102.482 266.912L165.704 203.69Z" fill="#2A96FB"></path><path d="M163.45 236.936C163.995 236.394 164.877 236.399 165.419 236.943C165.961 237.489 165.961 238.374 165.415 238.916L137.499 266.624C136.953 267.167 136.068 267.163 135.526 266.617C134.985 266.071 134.988 265.19 135.533 264.648L163.45 236.936Z" fill="#2A96FB"></path><path d="M96.3274 195.685C96.8716 195.143 97.753 195.142 98.2966 195.685C98.8407 196.23 98.8407 197.114 98.2966 197.658L78.7976 217.157C78.2535 217.702 77.3688 217.702 76.8246 217.157C76.2814 216.614 76.2821 215.732 76.8246 215.188L96.3274 195.685Z" fill="#2A96FB"></path><path d="M123.422 168.589C123.966 168.046 124.848 168.046 125.391 168.589C125.935 169.133 125.935 170.018 125.391 170.562L105.892 190.061C105.348 190.605 104.463 190.605 103.919 190.061C103.376 189.517 103.377 188.636 103.919 188.092L123.422 168.589Z" fill="#2A96FB"></path><path d="M84.6243 238.381C85.1684 237.837 86.0531 237.837 86.5972 238.381C87.1414 238.925 87.1414 239.81 86.5972 240.354L76.5397 250.411C75.9956 250.955 75.1108 250.955 74.5667 250.411C74.0227 249.867 74.0226 248.982 74.5667 248.438L84.6243 238.381Z" fill="#2A96FB"></path><path d="M111.727 211.286C112.274 210.745 113.156 210.75 113.697 211.297C114.237 211.844 114.232 212.725 113.685 213.266L94.3902 232.357C93.8433 232.897 92.9619 232.892 92.4211 232.346C91.88 231.799 91.8857 230.918 92.4324 230.377L111.727 211.286Z" fill="#2A96FB"></path><path d="M138.822 184.19C139.369 183.65 140.25 183.655 140.791 184.202C141.332 184.749 141.327 185.63 140.78 186.171L121.485 205.262C120.938 205.801 120.057 205.797 119.516 205.25C118.975 204.703 118.98 203.822 119.527 203.281L138.822 184.19Z" fill="#2A96FB"></path><path d="M100.216 253.782C100.754 253.233 101.636 253.222 102.185 253.759C102.736 254.297 102.746 255.182 102.208 255.732L93.3827 264.762C92.8449 265.312 91.9601 265.322 91.4098 264.784C90.8607 264.247 90.8505 263.365 91.3871 262.815L100.216 253.782Z" fill="#2A96FB"></path><path d="M127.325 226.673C127.872 226.132 128.753 226.137 129.295 226.684C129.836 227.231 129.83 228.112 129.283 228.653L109.784 247.948C109.237 248.489 108.356 248.484 107.815 247.937C107.274 247.39 107.279 246.509 107.826 245.968L127.325 226.673Z" fill="#2A96FB"></path><path d="M154.42 199.581C154.967 199.04 155.848 199.045 156.389 199.592C156.93 200.139 156.925 201.02 156.378 201.562L136.879 220.857C136.332 221.397 135.451 221.392 134.91 220.845C134.369 220.298 134.374 219.417 134.921 218.876L154.42 199.581Z" fill="#2A96FB"></path><path d="M142.506 242.291C143.047 241.744 143.928 241.738 144.475 242.279C145.021 242.82 145.026 243.701 144.487 244.248L125.396 263.543C124.855 264.09 123.974 264.095 123.427 263.555C122.88 263.014 122.875 262.133 123.415 261.585L142.506 242.291Z" fill="#2A96FB"></path><path d="M167.552 217.44C168.096 216.897 168.977 216.898 169.521 217.44C170.065 217.984 170.065 218.869 169.521 219.413L152.486 236.448C151.942 236.992 151.057 236.992 150.513 236.448C149.971 235.904 149.97 235.023 150.513 234.479L167.552 217.44Z" fill="#2A96FB"></path><path d="M116.809 164.689C146.144 164.689 169.929 188.47 169.932 217.804L169.92 219.123C169.635 232.753 164.095 245.767 154.432 255.43C144.457 265.405 130.915 270.982 116.809 270.927C87.4732 270.926 63.6906 247.144 63.6906 217.808C63.6915 188.473 87.4738 164.69 116.809 164.689ZM66.4799 217.808C66.4799 245.605 89.0122 268.14 116.809 268.141H116.817C130.181 268.194 143.013 262.911 152.462 253.461C161.912 244.012 167.195 231.179 167.142 217.816V217.808C167.141 190.011 144.607 167.479 116.809 167.479C89.0128 167.48 66.4809 190.012 66.4799 217.808Z" fill="black"></path><path d="M116.812 144C157.573 144.001 190.617 177.044 190.62 217.805C190.698 237.405 182.948 256.228 169.088 270.088C155.23 283.946 136.41 291.692 116.812 291.617V291.62L116.808 291.617L116.805 291.62V291.617C76.044 291.613 43.0007 258.573 43 217.812C43 177.048 76.0482 144 116.812 144ZM45.7894 217.812C45.79 257.036 77.5877 288.835 116.812 288.835H116.816C135.674 288.91 153.78 281.45 167.115 268.115C180.45 254.78 187.91 236.674 187.835 217.816V217.812C187.835 178.588 156.036 146.79 116.812 146.789C77.5873 146.789 45.7894 178.587 45.7894 217.812Z" fill="black"></path><path d="M1526.33 372.413C1526.87 371.869 1527.76 371.869 1528.3 372.413C1528.84 372.957 1528.84 373.842 1528.3 374.386L1481.5 421.185C1480.96 421.729 1480.07 421.729 1479.53 421.185C1478.98 420.641 1478.98 419.756 1479.53 419.212L1526.33 372.413Z" fill="#2A96FB"></path><path d="M1552.61 376.931C1553.15 376.388 1554.03 376.39 1554.57 376.935C1555.12 377.48 1555.12 378.361 1554.57 378.904L1485.81 447.463C1485.26 448.005 1484.38 448.003 1483.84 447.459C1483.3 446.914 1483.3 446.033 1483.84 445.49L1552.61 376.931Z" fill="#2A96FB"></path><path d="M1570.46 390.274C1571.01 389.731 1571.89 389.733 1572.43 390.278C1572.97 390.823 1572.98 391.704 1572.43 392.247L1499.36 465.114C1498.81 465.657 1497.93 465.655 1497.39 465.111C1496.84 464.566 1496.85 463.684 1497.39 463.141L1570.46 390.274Z" fill="#2A96FB"></path><path d="M1580.93 410.598C1581.47 410.054 1582.35 410.055 1582.9 410.598C1583.44 411.142 1583.44 412.026 1582.9 412.571L1519.68 475.788C1519.14 476.332 1518.25 476.332 1517.71 475.788C1517.17 475.244 1517.16 474.363 1517.71 473.819L1580.93 410.598Z" fill="#2A96FB"></path><path d="M1578.67 443.843C1579.22 443.302 1580.1 443.306 1580.64 443.85C1581.19 444.396 1581.19 445.281 1580.64 445.823L1552.72 473.532C1552.18 474.074 1551.29 474.07 1550.75 473.524C1550.21 472.978 1550.21 472.097 1550.76 471.555L1578.67 443.843Z" fill="#2A96FB"></path><path d="M1511.55 402.589C1512.1 402.046 1512.98 402.046 1513.52 402.589C1514.07 403.133 1514.07 404.018 1513.52 404.562L1494.02 424.061C1493.48 424.605 1492.59 424.605 1492.05 424.061C1491.51 423.517 1491.51 422.636 1492.05 422.092L1511.55 402.589Z" fill="#2A96FB"></path><path d="M1538.65 375.493C1539.19 374.951 1540.07 374.95 1540.62 375.493C1541.16 376.037 1541.16 376.922 1540.62 377.466L1521.12 396.965C1520.57 397.509 1519.69 397.509 1519.14 396.965C1518.6 396.421 1518.6 395.54 1519.14 394.996L1538.65 375.493Z" fill="#2A96FB"></path><path d="M1499.85 445.284C1500.39 444.74 1501.28 444.74 1501.82 445.284C1502.37 445.828 1502.37 446.713 1501.82 447.257L1491.77 457.315C1491.22 457.859 1490.34 457.859 1489.79 457.315C1489.25 456.77 1489.25 455.886 1489.79 455.342L1499.85 445.284Z" fill="#2A96FB"></path><path d="M1526.95 418.19C1527.5 417.65 1528.38 417.655 1528.92 418.202C1529.46 418.749 1529.46 419.63 1528.91 420.171L1509.62 439.262C1509.07 439.801 1508.19 439.797 1507.65 439.25C1507.11 438.703 1507.11 437.822 1507.66 437.281L1526.95 418.19Z" fill="#2A96FB"></path><path d="M1554.05 391.09C1554.59 390.549 1555.47 390.554 1556.02 391.101C1556.56 391.648 1556.55 392.529 1556 393.07L1536.71 412.161C1536.16 412.701 1535.28 412.696 1534.74 412.15C1534.2 411.603 1534.2 410.722 1534.75 410.18L1554.05 391.09Z" fill="#2A96FB"></path><path d="M1515.44 460.685C1515.98 460.136 1516.86 460.126 1517.41 460.662C1517.96 461.2 1517.97 462.085 1517.43 462.635L1508.61 471.665C1508.07 472.215 1507.18 472.225 1506.63 471.688C1506.09 471.15 1506.08 470.269 1506.61 469.718L1515.44 460.685Z" fill="#2A96FB"></path><path d="M1542.55 433.577C1543.1 433.036 1543.98 433.042 1544.52 433.589C1545.06 434.136 1545.06 435.017 1544.51 435.558L1525.01 454.853C1524.46 455.393 1523.58 455.388 1523.04 454.841C1522.5 454.294 1522.5 453.413 1523.05 452.872L1542.55 433.577Z" fill="#2A96FB"></path><path d="M1569.65 406.488C1570.19 405.947 1571.07 405.953 1571.61 406.5C1572.16 407.047 1572.15 407.928 1571.6 408.469L1552.1 427.764C1551.56 428.304 1550.68 428.299 1550.13 427.752C1549.59 427.205 1549.6 426.324 1550.15 425.783L1569.65 406.488Z" fill="#2A96FB"></path><path d="M1557.73 449.19C1558.27 448.643 1559.15 448.638 1559.7 449.179C1560.25 449.719 1560.25 450.601 1559.71 451.148L1540.62 470.443C1540.08 470.99 1539.2 470.995 1538.65 470.454C1538.11 469.913 1538.1 469.032 1538.64 468.485L1557.73 449.19Z" fill="#2A96FB"></path><path d="M1582.78 424.349C1583.32 423.806 1584.2 423.806 1584.75 424.349C1585.29 424.893 1585.29 425.777 1584.75 426.322L1567.71 443.356C1567.17 443.9 1566.28 443.9 1565.74 443.356C1565.2 442.812 1565.2 441.931 1565.74 441.387L1582.78 424.349Z" fill="#2A96FB"></path><path d="M1532.03 371.594C1561.37 371.594 1585.15 395.374 1585.16 424.709L1585.15 426.028C1584.86 439.657 1579.32 452.671 1569.66 462.335C1559.68 472.309 1546.14 477.886 1532.03 477.831C1502.7 477.83 1478.92 454.049 1478.92 424.712C1478.92 395.377 1502.7 371.595 1532.03 371.594ZM1481.7 424.712C1481.7 452.51 1504.24 475.045 1532.03 475.046H1532.04C1545.41 475.098 1558.24 469.815 1567.69 460.366C1577.14 450.916 1582.42 438.084 1582.37 424.72V424.712C1582.37 396.915 1559.83 374.383 1532.03 374.383C1504.24 374.384 1481.71 396.916 1481.7 424.712Z" fill="black"></path><path d="M1532.04 350.903C1572.8 350.904 1605.84 383.947 1605.85 424.708C1605.92 444.309 1598.17 463.131 1584.31 476.991C1570.45 490.85 1551.64 498.596 1532.04 498.52V498.524L1532.03 498.52L1532.03 498.524V498.52C1491.27 498.517 1458.23 465.477 1458.23 424.715C1458.23 383.952 1491.27 350.903 1532.04 350.903ZM1461.01 424.715C1461.02 463.94 1492.81 495.738 1532.04 495.738H1532.04C1550.9 495.813 1569.01 488.353 1582.34 475.018C1595.67 461.684 1603.13 443.577 1603.06 424.719V424.715C1603.06 385.491 1571.26 353.693 1532.04 353.693C1492.81 353.693 1461.01 385.491 1461.01 424.715Z" fill="black"></path><path d="M816.726 985.822V982.943H826.707V985.822H829.072L829.072 980.74H827.253V968.364H817.393L816.867 976.942C816.756 978.891 816.423 980.094 815.392 980.74H814.352V985.822H816.726ZM824.657 980.74H818.292V980.659C818.969 979.861 819.171 978.74 819.282 977.103L819.696 970.557H824.657V980.74ZM833.84 983.114C835.214 983.114 836.558 982.397 837.174 981.235H837.224V982.943H839.649V975.568C839.649 973.416 837.922 972.011 835.264 972.011C832.537 972.011 830.829 973.446 830.718 975.446H833.052C833.214 974.557 833.971 973.981 835.163 973.981C836.406 973.981 837.164 974.628 837.164 975.749V976.517L834.335 976.679C831.729 976.841 830.264 977.982 830.264 979.881C830.264 981.811 831.769 983.114 833.84 983.114ZM834.598 981.215C833.507 981.215 832.779 980.659 832.779 979.78C832.779 978.932 833.476 978.386 834.689 978.305L837.164 978.154V978.972C837.164 980.265 836.022 981.215 834.598 981.215ZM846.761 983.155C849.974 983.155 851.954 981.084 851.954 977.719C851.954 974.578 850.095 972.587 847.196 972.587C845.488 972.587 844.226 973.294 843.559 974.578H843.478C843.852 971.678 844.781 970.405 847.549 970.314L848.59 970.284C849.974 970.233 851.025 969.961 851.247 969.758V967.748C850.853 967.96 849.681 968.182 848.438 968.233L847.357 968.263C843.357 968.405 841.488 970.779 841.488 976.76C841.488 980.973 843.367 983.155 846.761 983.155ZM846.731 981.114C845.044 981.114 844.064 979.912 844.064 977.77C844.064 975.719 845.054 974.547 846.731 974.547C848.398 974.547 849.378 975.719 849.378 977.77C849.378 979.912 848.398 981.114 846.731 981.114ZM855.682 982.943L857.905 979.104H857.955L860.178 982.943H862.926L859.521 977.528L862.966 972.234H860.208L858.076 975.992H858.026L855.864 972.234H853.035L856.46 977.598L853.005 982.943H855.682ZM867.593 983.114C868.967 983.114 870.311 982.397 870.927 981.235H870.978V982.943H873.402V975.568C873.402 973.416 871.675 972.011 869.018 972.011C866.29 972.011 864.583 973.446 864.472 975.446H866.805C866.967 974.557 867.725 973.981 868.917 973.981C870.159 973.981 870.917 974.628 870.917 975.749V976.517L868.088 976.679C865.482 976.841 864.017 977.982 864.017 979.881C864.017 981.811 865.522 983.114 867.593 983.114ZM868.351 981.215C867.26 981.215 866.532 980.659 866.532 979.78C866.532 978.932 867.23 978.386 868.442 978.305L870.917 978.154V978.972C870.917 980.265 869.775 981.215 868.351 981.215ZM878.13 986.468V981.164H878.181C878.767 982.367 879.979 983.114 881.535 983.114C884.222 983.114 885.94 981.003 885.94 977.588C885.94 974.163 884.212 972.052 881.495 972.052C879.939 972.052 878.726 972.84 878.12 974.082H878.07V972.234H875.615V986.468H878.13ZM880.727 981.053C879.161 981.053 878.12 979.689 878.11 977.588C878.12 975.507 879.161 974.123 880.727 974.123C882.353 974.123 883.364 975.477 883.364 977.588C883.364 979.71 882.353 981.053 880.727 981.053ZM890.92 983.114C892.294 983.114 893.638 982.397 894.254 981.235H894.305V982.943H896.73V975.568C896.73 973.416 895.002 972.011 892.345 972.011C889.617 972.011 887.91 973.446 887.799 975.446H890.132C890.294 974.557 891.052 973.981 892.244 973.981C893.487 973.981 894.244 974.628 894.244 975.749V976.517L891.416 976.679C888.809 976.841 887.344 977.982 887.344 979.881C887.344 981.811 888.849 983.114 890.92 983.114ZM891.678 981.215C890.587 981.215 889.86 980.659 889.86 979.78C889.86 978.932 890.557 978.386 891.769 978.305L894.244 978.154V978.972C894.244 980.265 893.103 981.215 891.678 981.215ZM901.458 986.468V981.164H901.508C902.094 982.367 903.306 983.114 904.862 983.114C907.55 983.114 909.267 981.003 909.267 977.588C909.267 974.163 907.539 972.052 904.822 972.052C903.266 972.052 902.054 972.84 901.448 974.082H901.397V972.234H898.942V986.468H901.458ZM904.054 981.053C902.488 981.053 901.448 979.689 901.437 977.588C901.448 975.507 902.488 974.123 904.054 974.123C905.681 974.123 906.691 975.477 906.691 977.588C906.691 979.71 905.681 981.053 904.054 981.053ZM915.834 983.155C918.976 983.155 921.017 981.063 921.017 977.588C921.017 974.123 918.956 972.011 915.834 972.011C912.712 972.011 910.651 974.133 910.651 977.588C910.651 981.063 912.692 983.155 915.834 983.155ZM915.834 981.164C914.238 981.164 913.207 979.871 913.207 977.588C913.207 975.315 914.248 974.012 915.834 974.012C917.43 974.012 918.461 975.315 918.461 977.588C918.461 979.871 917.43 981.164 915.834 981.164Z" fill="black"></path><path d="M1378.79 428.439V416.073H1385.7V428.439H1388.3V413.86H1376.17V428.439H1378.79ZM1393.27 428.439L1397.92 421.235H1398.01V428.439H1400.47V417.73H1398.01L1393.35 424.882H1393.27V417.73H1390.8V428.439H1393.27ZM1402.72 428.55C1405.24 428.55 1406.05 426.549 1406.25 423.448L1406.5 419.669H1409.55V428.439H1412.06V417.73H1404.33L1403.99 423.317C1403.89 425.095 1403.54 426.347 1402.5 426.347C1402.22 426.347 1402.01 426.297 1401.91 426.267V428.429C1402.04 428.479 1402.33 428.55 1402.72 428.55ZM1416.77 428.439L1421.42 421.235H1421.5V428.439H1423.97V417.73H1421.5L1416.85 424.882H1416.77V417.73H1414.3V428.439H1416.77ZM1432.93 423.64V421.397H1426.29V423.64H1432.93ZM1378.42 449.129V440.36H1382.84V449.129H1385.36V438.42H1375.91V449.129H1378.42ZM1392.35 449.341C1395.49 449.341 1397.53 447.25 1397.53 443.775C1397.53 440.309 1395.47 438.198 1392.35 438.198C1389.23 438.198 1387.17 440.319 1387.17 443.775C1387.17 447.25 1389.21 449.341 1392.35 449.341ZM1392.35 447.351C1390.75 447.351 1389.72 446.058 1389.72 443.775C1389.72 441.501 1390.76 440.198 1392.35 440.198C1393.94 440.198 1394.97 441.501 1394.97 443.775C1394.97 446.058 1393.94 447.351 1392.35 447.351ZM1401.83 449.129V444.34H1401.92L1405.9 449.129H1408.98L1404.23 443.421L1408.76 438.42H1405.83L1401.92 442.886H1401.83V438.42H1399.33V449.129H1401.83ZM1412.18 449.129L1414.4 445.29H1414.45L1416.68 449.129H1419.42L1416.02 443.714L1419.46 438.42H1416.71L1414.57 442.178H1414.52L1412.36 438.42H1409.53L1412.96 443.785L1409.5 449.129H1412.18ZM1424.09 449.301C1425.46 449.301 1426.81 448.583 1427.42 447.422H1427.48V449.129H1429.9V441.754C1429.9 439.602 1428.17 438.198 1425.52 438.198C1422.79 438.198 1421.08 439.632 1420.97 441.633H1423.3C1423.46 440.744 1424.22 440.168 1425.41 440.168C1426.66 440.168 1427.41 440.814 1427.41 441.936V442.704L1424.59 442.865C1421.98 443.027 1420.51 444.169 1420.51 446.068C1420.51 447.998 1422.02 449.301 1424.09 449.301ZM1424.85 447.401C1423.76 447.401 1423.03 446.846 1423.03 445.967C1423.03 445.118 1423.73 444.573 1424.94 444.492L1427.41 444.34V445.159C1427.41 446.452 1426.27 447.401 1424.85 447.401ZM1434.63 452.655V447.351H1434.68C1435.26 448.553 1436.48 449.301 1438.03 449.301C1440.72 449.301 1442.44 447.189 1442.44 443.775C1442.44 440.35 1440.71 438.238 1437.99 438.238C1436.44 438.238 1435.22 439.026 1434.62 440.269H1434.57V438.42H1432.11V452.655H1434.63ZM1437.22 447.24C1435.66 447.24 1434.62 445.876 1434.61 443.775C1434.62 441.693 1435.66 440.309 1437.22 440.309C1438.85 440.309 1439.86 441.663 1439.86 443.775C1439.86 445.896 1438.85 447.24 1437.22 447.24Z" fill="black"></path><path d="M281.935 457.409V447.064H282.005L286.218 457.288H287.996L292.209 447.064H292.28V457.409H294.624V442.831H291.613L287.148 453.833H287.067L282.601 442.831H279.581V457.409H281.935ZM298.341 461.39C300.786 461.39 301.968 460.491 302.888 457.834L306.757 446.7H304.11L301.584 455.268H301.544L299.018 446.7H296.27L300.079 457.419L300.061 457.521L299.961 457.914C299.947 457.969 299.938 458.015 299.938 458.015C299.655 459.006 299.119 459.4 298.079 459.4C297.927 459.4 297.483 459.389 297.351 459.359V461.349C297.483 461.38 298.2 461.39 298.341 461.39ZM310.647 457.409V452.621H310.727L314.708 457.409H317.789L313.041 451.701L317.577 446.7H314.647L310.727 451.166H310.647V446.7H308.141V457.409H310.647ZM324.164 457.409V448.64H327.458V446.7H318.375V448.64H321.669V457.409H324.164ZM332.165 457.581C333.539 457.581 334.883 456.864 335.499 455.702H335.55V457.409H337.975V450.034C337.975 447.882 336.247 446.478 333.59 446.478C330.862 446.478 329.155 447.913 329.044 449.913H331.377C331.539 449.024 332.297 448.448 333.489 448.448C334.732 448.448 335.489 449.095 335.489 450.216V450.984L332.66 451.146C330.054 451.307 328.589 452.449 328.589 454.348C328.589 456.278 330.094 457.581 332.165 457.581ZM332.923 455.682C331.832 455.682 331.105 455.126 331.105 454.247C331.105 453.399 331.802 452.853 333.014 452.772L335.489 452.621V453.439C335.489 454.732 334.348 455.682 332.923 455.682ZM282.187 478.1V471.452H282.268L288.208 478.1H291.542L284.743 470.452L290.987 463.521H287.976L282.268 469.896H282.187V463.521H279.581V478.1H282.187ZM294.068 482.08C296.513 482.08 297.695 481.181 298.614 478.524L302.484 467.391H299.837L297.311 475.958H297.271L294.745 467.391H291.997L295.806 478.11C295.816 478.14 295.664 478.676 295.664 478.706C295.381 479.696 294.846 480.09 293.805 480.09C293.654 480.09 293.209 480.08 293.078 480.05V482.04C293.209 482.07 293.927 482.08 294.068 482.08ZM306.373 478.1V473.553H310.899V478.1H313.405V467.391H310.899V471.614H306.373V467.391H303.868V478.1H306.373ZM317.032 480.898V478.1H324.629V480.898H326.932V476.16H325.306V467.391H317.163L316.789 472.978C316.688 474.422 316.365 475.695 315.577 476.16H314.728V480.898H317.032ZM322.8 476.16H318.214V476.079C318.709 475.372 318.951 474.321 319.032 473.109L319.305 469.32H322.8V476.16ZM331.509 478.271C332.883 478.271 334.226 477.554 334.843 476.392H334.893V478.1H337.318V470.725C337.318 468.573 335.59 467.169 332.933 467.169C330.206 467.169 328.498 468.603 328.387 470.603H330.721C330.882 469.714 331.64 469.139 332.832 469.139C334.075 469.139 334.833 469.785 334.833 470.907V471.674L332.004 471.836C329.397 471.998 327.932 473.139 327.932 475.039C327.932 476.968 329.438 478.271 331.509 478.271ZM332.266 476.372C331.175 476.372 330.448 475.817 330.448 474.938C330.448 474.089 331.145 473.543 332.357 473.463L334.833 473.311V474.129C334.833 475.423 333.691 476.372 332.266 476.372Z" fill="black"></path><path d="M213.919 192.572L213.919 180.207H220.83V192.572H223.426V177.994H211.303V192.572H213.919ZM228.457 196.098V190.794H228.508C229.094 191.997 230.306 192.744 231.862 192.744C234.549 192.744 236.267 190.633 236.267 187.218C236.267 183.793 234.539 181.682 231.821 181.682C230.266 181.682 229.053 182.47 228.447 183.712H228.397V181.863H225.942V196.098H228.457ZM231.054 190.683C229.488 190.683 228.447 189.319 228.437 187.218C228.447 185.137 229.488 183.753 231.054 183.753C232.68 183.753 233.69 185.106 233.69 187.218C233.69 189.34 232.68 190.683 231.054 190.683ZM242.803 192.785C245.339 192.785 247.218 191.39 247.541 189.37H245.187C244.915 190.259 244.026 190.845 242.854 190.845C241.207 190.845 240.156 189.693 240.156 187.976V187.824H247.642V187.006C247.642 183.753 245.743 181.641 242.702 181.641C239.611 181.641 237.651 183.874 237.651 187.258C237.651 190.673 239.59 192.785 242.803 192.785ZM245.177 186.167H240.176C240.277 184.672 241.298 183.591 242.712 183.591C244.157 183.591 245.127 184.652 245.177 186.167ZM251.835 192.572V185.248H251.906L254.926 192.077H256.704L259.725 185.248H259.806V192.572H262.2V181.863H259.048L255.886 189.34H255.805L252.643 181.863H249.441V192.572H251.835ZM267.605 192.744C268.979 192.744 270.323 192.027 270.939 190.865H270.99V192.572H273.414V185.197C273.414 183.046 271.687 181.641 269.03 181.641C266.302 181.641 264.595 183.076 264.484 185.076H266.817C266.979 184.187 267.737 183.611 268.929 183.611C270.171 183.611 270.929 184.258 270.929 185.379V186.147L268.1 186.309C265.494 186.47 264.029 187.612 264.029 189.511C264.029 191.441 265.534 192.744 267.605 192.744ZM268.363 190.845C267.272 190.845 266.545 190.289 266.545 189.41C266.545 188.562 267.242 188.016 268.454 187.935L270.929 187.784V188.602C270.929 189.895 269.788 190.845 268.363 190.845ZM217.587 213.556C220.941 213.556 223.285 211.737 223.84 208.747H221.254C220.779 210.353 219.435 211.293 217.597 211.293C215.071 211.293 213.475 209.242 213.475 205.969C213.475 202.716 215.081 200.655 217.587 200.655C219.385 200.655 220.82 201.736 221.254 203.413H223.83C223.396 200.422 220.88 198.392 217.587 198.392C213.445 198.392 210.808 201.321 210.808 205.969C210.808 210.646 213.424 213.556 217.587 213.556ZM228.912 213.435C230.286 213.435 231.629 212.717 232.246 211.555H232.296V213.263H234.721V205.888C234.721 203.736 232.993 202.332 230.336 202.332C227.609 202.332 225.901 203.766 225.79 205.767H228.124C228.285 204.878 229.043 204.302 230.235 204.302C231.478 204.302 232.236 204.948 232.236 206.07V206.837L229.407 206.999C226.8 207.161 225.335 208.302 225.335 210.202C225.335 212.131 226.841 213.435 228.912 213.435ZM229.67 211.535C228.578 211.535 227.851 210.98 227.851 210.101C227.851 209.252 228.548 208.706 229.76 208.626L232.236 208.474V209.292C232.236 210.586 231.094 211.535 229.67 211.535ZM239.449 216.789V211.485H239.5C240.085 212.687 241.298 213.435 242.854 213.435C245.541 213.435 247.258 211.323 247.258 207.908C247.258 204.484 245.531 202.372 242.813 202.372C241.257 202.372 240.045 203.16 239.439 204.403H239.388V202.554H236.933V216.789H239.449ZM242.045 211.374C240.479 211.374 239.439 210.01 239.429 207.908C239.439 205.827 240.479 204.443 242.045 204.443C243.672 204.443 244.682 205.797 244.682 207.908C244.682 210.03 243.672 211.374 242.045 211.374ZM253.825 213.475C256.967 213.475 259.008 211.384 259.008 207.908C259.008 204.443 256.947 202.332 253.825 202.332C250.703 202.332 248.643 204.453 248.643 207.908C248.643 211.384 250.683 213.475 253.825 213.475ZM253.825 211.485C252.229 211.485 251.199 210.192 251.199 207.908C251.199 205.635 252.239 204.332 253.825 204.332C255.421 204.332 256.452 205.635 256.452 207.908C256.452 210.192 255.421 211.485 253.825 211.485ZM265.969 213.263C268.343 213.263 269.818 212.061 269.818 210.171C269.818 208.828 268.868 207.838 267.464 207.656V207.575C268.525 207.393 269.343 206.393 269.343 205.272C269.343 203.574 268.05 202.554 265.888 202.554H260.806V213.263H265.969ZM265.11 206.928H263.271V204.261H265.302C266.322 204.261 266.888 204.736 266.888 205.575C266.888 206.464 266.282 206.928 265.11 206.928ZM265.464 211.555H263.271V208.525H265.262C266.615 208.525 267.312 209.04 267.312 210.04C267.312 211.02 266.656 211.555 265.464 211.555ZM274.839 213.435C276.213 213.435 277.557 212.717 278.173 211.555H278.223V213.263H280.648V205.888C280.648 203.736 278.92 202.332 276.263 202.332C273.536 202.332 271.828 203.766 271.717 205.767H274.051C274.213 204.878 274.97 204.302 276.162 204.302C277.405 204.302 278.163 204.948 278.163 206.07V206.837L275.334 206.999C272.727 207.161 271.263 208.302 271.263 210.202C271.263 212.131 272.768 213.435 274.839 213.435ZM275.597 211.535C274.506 211.535 273.778 210.98 273.778 210.101C273.778 209.252 274.475 208.706 275.688 208.626L278.163 208.474V209.292C278.163 210.586 277.021 211.535 275.597 211.535ZM285.376 216.789V211.485H285.427C286.013 212.687 287.225 213.435 288.781 213.435C291.468 213.435 293.185 211.323 293.185 207.908C293.185 204.484 291.458 202.372 288.74 202.372C287.184 202.372 285.972 203.16 285.366 204.403H285.315V202.554H282.86V216.789H285.376ZM287.972 211.374C286.407 211.374 285.366 210.01 285.356 207.908C285.366 205.827 286.407 204.443 287.972 204.443C289.599 204.443 290.609 205.797 290.609 207.908C290.609 210.03 289.599 211.374 287.972 211.374Z" fill="black"></path><path d="M68.9578 706.663C72.1097 705.515 73.6902 703.005 73.1895 700.005L70.7592 700.889C70.8624 702.561 69.9211 703.904 68.1933 704.533C65.82 705.396 63.6186 704.015 62.499 700.939C61.3864 697.882 62.191 695.396 64.5454 694.539C66.2352 693.924 67.953 694.45 68.9348 695.877L71.3556 694.996C69.9246 692.334 66.8662 691.286 63.7714 692.413C59.879 693.83 58.4033 697.485 59.9928 701.852C61.5926 706.247 65.0465 708.086 68.9578 706.663ZM79.5586 702.675C80.8497 702.205 81.867 701.072 82.0487 699.769L82.0962 699.752L82.6801 701.356L84.9586 700.527L82.4362 693.597C81.7002 691.575 79.5965 690.846 77.0997 691.755C74.5365 692.688 73.4227 694.62 74.0025 696.537L76.1955 695.739C76.0433 694.849 76.5583 694.048 77.6786 693.641C78.8463 693.215 79.7794 693.564 80.163 694.618L80.4256 695.339L77.8227 696.459C75.4287 697.502 74.4425 699.076 75.0922 700.861C75.7521 702.674 77.6124 703.384 79.5586 702.675ZM79.621 700.631C78.5957 701.005 77.7221 700.731 77.4215 699.905C77.1312 699.108 77.5997 698.357 78.7113 697.866L80.9853 696.877L81.2652 697.646C81.7075 698.861 80.9595 700.144 79.621 700.631ZM89.3825 698.917L87.8276 694.645L92.0807 693.097L93.6356 697.369L95.99 696.512L92.3273 686.449L89.9729 687.306L91.4173 691.274L87.1642 692.822L85.7199 688.854L83.3655 689.711L87.0281 699.774L89.3825 698.917ZM100.461 694.884L98.8236 690.385L98.8995 690.357L104.278 693.495L107.173 692.442L100.759 688.702L103.311 682.451L100.558 683.453L98.4019 688.99L98.326 689.018L96.7987 684.821L94.4444 685.678L98.107 695.741L100.461 694.884ZM112.885 690.588C115.268 689.721 116.557 687.768 116.169 685.759L113.958 686.564C114.005 687.493 113.37 688.348 112.269 688.748C110.722 689.312 109.34 688.589 108.753 686.975L108.701 686.832L115.736 684.272L115.456 683.503C114.343 680.446 111.836 679.112 108.979 680.152C106.074 681.209 104.996 683.977 106.153 687.158C107.321 690.367 109.866 691.687 112.885 690.588ZM112.853 683.558L108.153 685.269C107.737 683.829 108.326 682.464 109.655 681.98C111.013 681.486 112.287 682.151 112.853 683.558ZM123.834 686.377L120.835 678.137L123.93 677.011L123.267 675.188L114.732 678.294L115.395 680.117L118.49 678.991L121.489 687.231L123.834 686.377Z" fill="black"></path><path d="M854.404 836.456C860.628 836.456 864.406 833.304 864.406 828.172C864.406 824.313 861.638 821.464 857.678 821.08V820.918C860.668 820.433 862.992 817.706 862.992 814.574C862.992 810.149 859.577 807.3 854.283 807.3H842.18V836.456H854.404ZM852.162 819.585H847.393V811.361H852.97C856.082 811.361 857.839 812.796 857.839 815.342C857.839 818.049 855.799 819.585 852.162 819.585ZM853.212 832.395H847.393V823.282H852.99C856.991 823.282 859.092 824.838 859.092 827.808C859.092 830.799 857.051 832.395 853.212 832.395ZM888.801 836.456L891.286 828.92H902.015L904.5 836.456H909.996L899.651 807.3H893.771L883.426 836.456H888.801ZM900.783 824.899H892.498L896.58 812.452H896.721L900.783 824.899ZM935.967 836.456V826.818H941.867C947.767 826.818 951.909 822.878 951.909 817.059C951.909 811.24 947.888 807.3 942.089 807.3H930.754V836.456H935.967ZM940.695 822.616H935.967V811.563H940.716C944.454 811.563 946.616 813.564 946.616 817.059C946.616 820.595 944.433 822.616 940.695 822.616ZM1007.32 836.456V807.3H1002.11V832.072H992.994V807.3H987.801V832.072H978.688V807.3H973.475V836.456H1007.32ZM1033.45 836.456L1035.94 828.92H1046.67L1049.15 836.456H1054.65L1044.3 807.3H1038.42L1028.08 836.456H1033.45ZM1045.43 824.899H1037.15L1041.23 812.452H1041.37L1045.43 824.899ZM1080.62 836.456V823.808H1094.8V836.456H1100V807.3H1094.8V819.423H1080.62V807.3H1075.41V836.456H1080.62ZM1126.13 836.456L1128.61 828.92H1139.34L1141.83 836.456H1147.32L1136.98 807.3H1131.1L1120.75 836.456H1126.13ZM1138.11 824.899H1129.83L1133.91 812.452H1134.05L1138.11 824.899Z" fill="#D2AA1B"></path><path d="M837.069 222.602C961.122 218.146 1088.37 212.142 1208.42 214.914C1328.46 217.686 1441.47 229.234 1537.06 259.937C1604.04 281.449 1653.68 324.215 1687.47 388.032C1721.24 451.785 1739.16 536.483 1742.94 641.901C1743.02 644.002 1743.02 646.803 1742.94 650.288C1742.94 764.677 1716.11 864.424 1671 935.978C1626.59 1006.43 1564.36 1049.68 1492.56 1052.31L1489.14 1052.4C1448.67 1053.18 1346.5 1062.56 1226.54 1073.49C1106.65 1084.41 969.079 1096.86 857.947 1103.74C815.872 1106.34 654.999 1125.03 501.79 1112.01C425.485 1105.53 351.081 1091.14 292.532 1075.2C263.259 1067.23 237.918 1058.86 218.27 1050.89C198.721 1042.96 184.534 1035.32 177.825 1028.7C126.973 978.541 107.263 899.616 100.184 825.711C93.1033 751.794 98.6227 682.236 98.6228 650.897V639.172C98.6227 591.159 91.3194 516.764 104.787 445.97C118.285 375.022 152.705 307.218 236.371 272.406C256.083 264.204 286.694 257.629 325.574 252.208C364.497 246.78 411.865 242.49 465.185 238.911C571.823 231.754 702.401 227.439 837.069 222.602ZM102.493 650.897C102.493 682.665 96.9803 751.658 104.039 825.345C111.099 899.046 130.705 976.786 180.542 1025.95C186.645 1031.97 200.164 1039.37 219.725 1047.31C239.192 1055.2 264.378 1063.52 293.549 1071.46C351.889 1087.35 426.06 1101.7 502.116 1108.16C654.95 1121.14 815.352 1102.5 857.709 1099.88C968.774 1093 1106.28 1080.56 1226.19 1069.64C1346.04 1058.72 1448.41 1049.31 1489.07 1048.53C1560.65 1047.21 1623.1 1004.72 1667.73 933.914C1712.37 863.1 1739.07 764.094 1739.07 650.246V650.205C1739.15 646.752 1739.15 644.035 1739.07 642.041C1735.3 536.927 1717.44 452.878 1684.05 389.842C1650.71 326.871 1601.85 284.809 1535.88 263.622C1440.81 233.088 1328.24 221.553 1208.33 218.785C1088.42 216.016 961.333 222.01 837.209 226.469C702.509 231.306 572.008 235.622 465.446 242.774C412.166 246.35 364.902 250.631 326.11 256.04C287.275 261.455 257.084 267.979 237.86 275.978C155.794 310.123 121.937 376.533 108.59 446.695C95.2128 517.012 102.493 590.627 102.493 639.172V650.897Z" fill="#D2AA1B"></path></g><defs><clipPath id="clip0_2068_18"><rect width="1260" height="1785" fill="white" transform="matrix(0 1 -1 0 1785 0)"></rect></clipPath></defs></svg> 