<?xml version="1.0" encoding="UTF-8"?> <svg xmlns="http://www.w3.org/2000/svg" width="1096" height="242" viewBox="0 0 1096 242" fill="none"><path d="M1054.19 204.25V195.9H1063.24V198.65H1068.84C1070.69 198.65 1071.59 198.25 1071.59 197.5V192.7H1080.64V197.1H1087.64C1093.44 197.1 1095.69 199.45 1095.69 203.5V226.4H1086.64V205.75C1086.64 203.35 1085.94 202.7 1083.49 202.7H1079.14C1078.24 203.75 1076.84 204.25 1074.84 204.25H1054.19ZM1054.19 226.4V206.3H1063.24V218.2L1067.44 215.25L1071.59 218.15V206.3H1080.64V226.4H1073.09L1067.44 222.6L1061.79 226.4H1054.19Z" fill="black"></path><path d="M1000.16 193.2V183.45H1005.96V193.2H1000.16ZM1008.16 193.2V183.45H1013.96V193.2H1008.16Z" fill="black"></path><path d="M983.911 207.2C982.761 205.6 981.461 203.8 981.461 202.85C981.461 201.5 982.661 200.6 985.761 197.1H1017.41C1023.21 197.1 1025.46 199.45 1025.46 203.5V226.4H1016.41V205.75C1016.41 203.35 1015.71 202.7 1013.26 202.7H988.411C988.011 202.9 987.811 203.25 987.811 203.6C987.811 204.25 991.211 206.8 992.961 207.7V218.5C992.961 220.05 993.811 221.3 996.011 221.3C998.261 221.3 1001.36 218.9 1001.36 216.9V204.95H1010.41V228.4H1001.36V224.25H1001.31C999.311 225.65 997.461 226.9 993.411 226.9C988.811 226.9 983.911 224.15 983.911 218.5V207.2Z" fill="black"></path><path d="M952.247 240.5C946.697 240.5 943.547 238.5 943.547 234.5V229.1H950.597V233.25C950.597 234.7 951.147 235.45 952.247 235.45C953.297 235.45 953.847 234.7 953.847 233.25V229.1H960.897V234.5C960.897 238.5 957.797 240.5 952.247 240.5Z" fill="black"></path><path d="M928.414 193.2V187.6H939.264L941.664 190.1L944.064 187.6H954.864V193.2H928.414Z" fill="black"></path><path d="M908.917 202.75L912.017 205.9V218.5C912.017 220.05 913.217 220.8 915.567 220.8C917.917 220.8 919.117 220.05 919.117 218.5V205C919.117 199.35 923.217 197.1 931.667 197.1C939.867 197.1 943.967 199.75 943.967 205V226.4H935.067V205C935.067 203.45 933.967 202.7 931.567 202.7C929.267 202.7 928.117 203.45 928.117 205V218.5C928.117 224.15 923.967 226.4 915.567 226.4C907.167 226.4 902.967 224.15 902.967 218.5V205.1C900.967 202.45 900.867 202.3 900.867 201.85C900.867 201.2 901.967 199.8 904.067 197.1H912.417V202.7H908.917V202.75Z" fill="black"></path><path d="M880.677 202.75L883.777 205.9V218.5C883.777 223.75 879.377 226.4 870.527 226.4C861.727 226.4 857.327 223.75 857.327 218.5V205.1C855.327 202.45 855.227 202.3 855.227 201.85C855.227 201.2 856.327 199.8 858.427 197.1H866.777V202.7H863.277V202.75L866.377 205.9V218C866.377 219.55 867.777 220.8 870.527 220.8C873.377 220.8 874.727 219.55 874.727 218V205.1C872.727 202.45 872.627 202.3 872.627 201.85C872.627 201.2 873.727 199.8 875.827 197.1H884.177V202.7H880.677V202.75Z" fill="black"></path><path d="M829.469 226.4V205.75C829.469 203.35 828.769 202.7 826.319 202.7H823.419C823.469 203.05 823.469 203.45 823.469 203.85V226.4H814.419V203.85C814.419 203.3 814.069 203 813.719 203C812.669 203 811.719 206.05 810.169 206.05C808.719 206.05 807.569 203 806.669 203C806.319 203 806.019 203.3 806.019 203.85V214.35C809.969 214.4 812.219 216.05 812.219 220.3C812.219 223.95 809.469 226.4 804.819 226.4H801.769C798.069 226.4 796.969 225.45 796.969 222.9V203.85C796.969 200.35 798.819 197.1 803.919 197.1C806.269 197.1 808.369 198.1 810.169 200.15H810.319C812.169 198.15 814.169 197.1 816.569 197.1C818.419 197.1 819.869 197.55 820.919 198.25V197.1H830.469C836.269 197.1 838.519 199.45 838.519 203.5V226.4H829.469ZM806.019 222.4C806.669 222.4 807.419 221.5 807.419 220.25C807.419 218.9 806.769 218.2 806.019 218.2V222.4Z" fill="black"></path><path d="M778.683 202.75L781.783 205.9V231.15C781.783 232.55 782.433 233.8 784.433 233.8C786.433 233.8 787.083 232.55 787.083 231.15V228.85H796.083V230.75C796.083 235.3 792.933 238.6 784.433 238.6C775.933 238.6 772.733 235.3 772.733 230.75V205.1C770.733 202.45 770.633 202.3 770.633 201.85C770.633 201.2 771.733 199.8 773.833 197.1H782.183V202.7H778.683V202.75Z" fill="black"></path><path d="M714.703 193.2C711.653 193.2 710.203 192 710.203 189.55C710.203 185 714.203 182.55 719.003 182.55C722.003 182.55 724.703 183.5 727.353 185.1V181.9H733.103V193.2H714.703ZM716.303 189.25H724.303C723.453 188.45 721.203 187.65 719.203 187.65C717.103 187.65 716.303 188.35 716.303 189.25Z" fill="black"></path><path d="M722.419 202.75L725.519 205.9V218.5C725.519 223.75 721.119 226.4 712.269 226.4C703.469 226.4 699.069 223.75 699.069 218.5V205.1C697.069 202.45 696.969 202.3 696.969 201.85C696.969 201.2 698.069 199.8 700.169 197.1H708.519V202.7H705.019V202.75L708.119 205.9V208.95H716.469V205.1C714.469 202.45 714.369 202.3 714.369 201.85C714.369 201.2 715.469 199.8 717.569 197.1H725.919V202.7H722.419V202.75ZM708.119 218C708.119 219.55 709.519 220.8 712.269 220.8C715.119 220.8 716.469 219.55 716.469 218V214.55H708.119V218Z" fill="black"></path><path d="M650.688 239.6C646.338 239.6 641.188 238.45 641.188 233.95V232.5C647.888 231.6 652.738 230.65 656.388 228.6H665.138V229.95C665.138 236.45 657.988 239.6 650.688 239.6ZM651.788 235.7C653.788 235.7 656.588 235.05 656.588 232.95C655.138 233.75 652.288 234.6 650.038 235.15C650.288 235.55 651.038 235.7 651.788 235.7Z" fill="black"></path><path d="M661.216 226.4V205.75C661.216 203.35 660.516 202.7 658.066 202.7H652.416V202.75L655.516 205.9V218.5C655.516 223.75 651.366 226.4 643.116 226.4C634.816 226.4 630.666 223.75 630.666 218.5V212.3C630.666 210.75 629.466 209.95 627.116 209.95C624.766 209.95 623.566 210.75 623.566 212.3V214.35C627.516 214.4 629.766 216.05 629.766 220.3C629.766 223.95 627.016 226.4 622.366 226.4H619.316C615.616 226.4 614.516 225.45 614.516 222.9V212.3C614.516 208.9 616.016 206.95 618.416 205.85C615.966 202.75 615.716 202.3 615.716 201.7C615.716 200.85 616.816 199.8 618.916 197.1H632.816V202.7H624.566V202.75L626.116 204.5C626.416 204.5 626.766 204.5 627.116 204.5C636.466 204.5 639.666 207.05 639.666 212.3V218.5C639.666 220.05 640.816 220.8 643.116 220.8C645.466 220.8 646.466 220.05 646.466 218.5V205.1C644.466 202.45 644.366 202.3 644.366 201.85C644.366 201.2 645.466 199.8 647.566 197.1H662.216C668.016 197.1 670.266 199.45 670.266 203.5V226.4H661.216ZM623.566 222.4C624.216 222.4 624.966 221.5 624.966 220.25C624.966 218.9 624.316 218.2 623.566 218.2V222.4Z" fill="black"></path><path d="M534.555 202.7V197.1H568.055C573.855 197.1 576.105 199.45 576.105 203.5V226.4H567.055V205.75C567.055 203.35 566.355 202.7 563.905 202.7H534.555ZM547.755 210.75C545.005 210.75 543.605 211.55 543.605 213.1V214.35C547.555 214.4 549.805 216.05 549.805 220.3C549.805 223.95 547.055 226.4 542.405 226.4H539.355C535.655 226.4 534.555 225.45 534.555 222.9V213.1C534.555 207.85 538.955 205.2 547.755 205.2C556.605 205.2 561.055 207.85 561.055 213.1V226.4H552.005V213.1C552.005 211.55 550.505 210.75 547.755 210.75ZM543.605 222.4C544.255 222.4 545.005 221.5 545.005 220.25C545.005 218.9 544.355 218.2 543.605 218.2V222.4Z" fill="black"></path><path d="M498.875 193.2V183.45H505.625V193.2H498.875Z" fill="black"></path><path d="M479.398 226.4V214.1H488.448V218.65C489.498 218.8 490.648 219.25 491.698 219.75C492.848 220.3 493.898 220.8 494.948 220.8C496.348 220.8 497.348 219.7 497.348 217.75C497.348 215.9 495.998 214.8 494.048 214.3C486.698 212.4 479.398 209.95 479.398 204.65C479.398 199.4 484.048 197.1 492.598 197.1C501.448 197.1 505.498 198.9 505.498 203.35C505.498 205.75 504.498 208.3 497.598 208.3H495.598V204.65C496.148 204.55 496.548 204.2 496.548 203.85C496.548 203 495.298 202.7 492.998 202.7C490.598 202.7 488.448 203.55 488.448 205.1C488.448 207.35 492.298 208.55 495.698 209.35C502.648 211.05 506.348 213.9 506.348 218.5C506.348 223.65 501.598 226.4 497.348 226.4C494.698 226.4 492.898 225.7 491.748 225.25C490.698 224.85 489.298 224.15 488.448 224.05V226.4H479.398Z" fill="black"></path><path d="M419.203 204.25V195.9H428.253V198.65H433.853C435.703 198.65 436.603 198.25 436.603 197.5V192.7H445.653V197.1H452.653C458.453 197.1 460.703 199.45 460.703 203.5V226.4H451.653V205.75C451.653 203.35 450.953 202.7 448.503 202.7H444.153C443.253 203.75 441.853 204.25 439.853 204.25H419.203ZM419.203 226.4V206.3H428.253V218.2L432.453 215.25L436.603 218.15V206.3H445.653V226.4H438.103L432.453 222.6L426.803 226.4H419.203Z" fill="black"></path><path d="M396.38 202.75L399.73 205.9V220.95C399.73 224.3 398.73 226.4 394.73 226.4H390.98C387.73 226.4 385.18 224.9 385.18 220.7C385.18 217 388.03 214.95 390.68 214.95V206.7C388.33 204.7 386.53 203.15 386.53 201.95C386.53 201.05 388.03 199.2 389.73 197.1H390.88C391.63 197.1 392.68 196.7 392.68 195.45V192.7H401.68V198.3C401.68 201.1 400.98 202.7 398.28 202.7H396.38V202.75ZM390.68 222.55V218.85C390.28 218.9 389.28 219.35 389.28 220.65C389.28 222.15 390.23 222.55 390.68 222.55Z" fill="black"></path><path d="M366.472 202.75L369.572 205.9V219.65C369.572 220.5 369.722 220.8 370.572 220.8H371.772V226.4H364.172C361.822 226.4 360.522 225.55 360.522 223.9V205.1C358.522 202.45 358.422 202.3 358.422 201.85C358.422 201.2 359.522 199.8 361.622 197.1H369.972V202.7H366.472V202.75Z" fill="black"></path><path d="M322.188 193.2C319.138 193.2 317.688 192 317.688 189.55C317.688 185 321.687 182.55 326.487 182.55C329.487 182.55 332.187 183.5 334.837 185.1V181.9H340.587V193.2H322.188ZM323.788 189.25H331.788C330.938 188.45 328.688 187.65 326.688 187.65C324.588 187.65 323.788 188.35 323.788 189.25Z" fill="black"></path><path d="M319.12 226.4C311.27 226.4 307.37 223.75 307.37 218.5V215.5H316.42V218.5C316.42 220.05 317.22 220.8 319.12 220.8C321.07 220.8 321.87 220.05 321.87 218.5V215.55C311.87 213.75 306.07 210.35 306.07 205.2C306.07 199.6 310.72 197.1 319.27 197.1C328.07 197.1 332.52 198.95 332.52 204.5V205.7H323.52V205.15C323.52 203.1 321.62 202.7 319.27 202.7C316.82 202.7 315.12 203.55 315.12 205C315.12 207.45 318.22 208.65 322.22 210C323.12 208.4 324.72 207.05 327.27 207.05C330.12 207.05 332.72 209.2 332.72 211.95C332.72 214.15 332.02 215.1 330.92 215.9V218.5C330.92 223.75 326.97 226.4 319.12 226.4Z" fill="black"></path><path d="M262.125 202.7V197.1H288.575V202.7H262.125ZM262.125 226.4V213.1C262.125 207.7 266.775 204.4 275.325 204.4C283.925 204.4 288.575 207.7 288.575 213.1V226.4H279.525V213.1C279.525 211.45 277.925 210 275.325 210C272.725 210 271.175 211.45 271.175 213.1V226.4H262.125Z" fill="black"></path><path d="M208.027 241.6C205.327 241.6 203.227 240.25 203.227 237.75V230.6H210.877V235.55C210.877 235.85 211.077 236.15 211.377 236.15H211.627C211.927 236.15 212.127 235.85 212.127 235.55V234.45C212.127 231.85 213.977 230.6 216.827 230.6H222.427C225.277 230.6 227.077 231.85 227.077 234.45V241.6H219.477V236.75C219.477 236.45 219.277 236.15 218.977 236.15H218.777C218.477 236.15 218.277 236.45 218.277 236.75V237.75C218.277 240.25 216.477 241.6 213.527 241.6H208.027Z" fill="black"></path><path d="M191.856 207.2C190.706 205.6 189.406 203.8 189.406 202.85C189.406 201.5 190.606 200.6 193.706 197.1H225.356C231.156 197.1 233.406 199.45 233.406 203.5V226.4H224.356V205.75C224.356 203.35 223.656 202.7 221.206 202.7H196.356C195.956 202.9 195.756 203.25 195.756 203.6C195.756 204.25 199.156 206.8 200.906 207.7V218.5C200.906 220.05 201.756 221.3 203.956 221.3C206.206 221.3 209.306 218.9 209.306 216.9V204.95H218.356V226.9H209.306V224.25H209.256C207.256 225.65 205.406 226.9 201.356 226.9C196.756 226.9 191.856 224.15 191.856 218.5V207.2Z" fill="black"></path><path d="M143.438 226.4V205.75C143.438 203.35 142.738 202.7 140.288 202.7H134.338V202.75L137.438 205.9V218.5C137.438 223.75 133.288 226.4 125.038 226.4C116.738 226.4 112.588 223.75 112.588 218.5V205.5C112.588 203.95 111.388 202.7 109.038 202.7C106.688 202.7 105.488 203.95 105.488 205.5V214.35C109.438 214.4 111.688 216.05 111.688 220.3C111.688 223.95 108.938 226.4 104.288 226.4H101.238C97.5375 226.4 96.4375 225.45 96.4375 222.9V205C96.4375 199.75 100.638 197.1 109.038 197.1C117.388 197.1 121.588 199.75 121.588 205V217.5C121.588 219.05 122.738 220.8 125.038 220.8C127.338 220.8 128.388 219.05 128.388 217.5V205.1C126.388 202.45 126.288 202.3 126.288 201.85C126.288 201.2 127.388 199.8 129.488 197.1H144.438C150.238 197.1 152.488 199.45 152.488 203.5V226.4H143.438ZM105.488 222.4C106.138 222.4 106.888 221.5 106.888 220.25C106.888 218.9 106.238 218.2 105.488 218.2V222.4Z" fill="black"></path><path d="M57.7031 193.2C54.6531 193.2 53.2031 192 53.2031 189.55C53.2031 185 57.2031 182.55 62.0031 182.55C65.0031 182.55 67.7031 183.5 70.3531 185.1V181.9H76.1031V193.2H57.7031ZM59.3031 189.25H67.3031C66.4531 188.45 64.2031 187.65 62.2031 187.65C60.1031 187.65 59.3031 188.35 59.3031 189.25Z" fill="black"></path><path d="M39.2328 209.95C36.8828 209.95 35.6828 210.75 35.6828 212.3V214.35C39.6328 214.4 41.8828 216.05 41.8828 220.3C41.8828 223.95 39.1328 226.4 34.4828 226.4H31.4328C27.7328 226.4 26.6328 225.45 26.6328 222.9V212.3C26.6328 208.9 28.1328 206.95 30.5328 205.85C28.0828 202.75 27.8328 202.3 27.8328 201.7C27.8328 200.85 28.9328 199.8 31.0328 197.1H44.9328V202.7H36.6828V202.75L38.2328 204.5C38.5328 204.5 38.8828 204.5 39.2328 204.5C48.5828 204.5 51.7828 207.05 51.7828 212.3V218.5C51.7828 220.05 52.9328 220.8 55.2328 220.8C57.5828 220.8 58.5828 220.05 58.5828 218.5V205.1C56.5828 202.45 56.4828 202.3 56.4828 201.85C56.4828 201.2 57.5828 199.8 59.6828 197.1H68.0328V202.7H64.5328V202.75L67.6328 205.9V218.5C67.6328 223.75 63.4828 226.4 55.2328 226.4C46.9328 226.4 42.7828 223.75 42.7828 218.5V212.3C42.7828 210.75 41.5828 209.95 39.2328 209.95ZM35.6828 222.4C36.3328 222.4 37.0828 221.5 37.0828 220.25C37.0828 218.9 36.4328 218.2 35.6828 218.2V222.4Z" fill="black"></path><path d="M8.05 202.75L11.15 205.9V231.15C11.15 232.55 11.8 233.8 13.8 233.8C15.8 233.8 16.45 232.55 16.45 231.15V228.85H25.45V230.75C25.45 235.3 22.3 238.6 13.8 238.6C5.3 238.6 2.1 235.3 2.1 230.75V205.1C0.1 202.45 0 202.3 0 201.85C0 201.2 1.1 199.8 3.2 197.1H11.55V202.7H8.05V202.75Z" fill="black"></path><path d="M984.552 179.6C984.852 179.2 985.052 178.95 985.052 178.65C985.052 178.4 984.852 178.2 984.452 178.25L975.502 178.95C971.552 179.25 970.352 177.4 970.352 175.65C970.352 174.05 971.352 172.65 974.952 172.3L982.102 171.7C983.952 171.6 985.302 171.25 985.452 170.7H984.252V168.6H991.602V169.45C991.602 171.85 990.402 172.55 987.252 173.05L977.902 174.5C977.252 174.6 976.852 174.8 976.852 175.3C976.902 175.8 977.352 175.9 978.002 175.8L991.602 173.75V177.55C991.602 178.95 990.952 179.6 989.652 179.6H984.552Z" fill="black"></path><path d="M958.641 166.4V154.1H965.941V158.35C968.041 158.45 969.441 159.3 970.591 160.1C971.741 160.8 972.841 161.7 973.991 161.7C975.341 161.7 976.541 160.55 976.541 158.2C976.541 156.05 975.141 154.8 972.641 154.25C964.841 152.55 958.641 149.95 958.641 144.8C958.641 139.85 962.591 137.1 970.991 137.1C976.441 137.1 979.841 138 981.641 139.75V137.1H991.041C996.541 137.1 998.391 139.35 998.391 143.5V166.4H991.041V144.85C991.041 142.5 990.341 141.8 987.591 141.8H982.891C983.041 142.35 983.141 142.85 983.141 143.45C983.141 145.95 981.841 148.5 975.691 148.5H974.341V145.1C975.341 145.05 975.891 144.45 975.891 143.7C975.891 142.6 974.491 141.8 971.341 141.8C967.941 141.8 965.941 142.95 965.941 145.05C965.941 147.65 969.441 149.1 973.741 149.95C980.591 151.4 983.841 154.2 983.841 158.7C983.841 163.65 979.591 166.4 975.491 166.4C972.891 166.4 971.291 165.5 969.891 164.65C968.641 163.8 967.341 163 965.941 162.95V166.4H958.641Z" fill="black"></path><path d="M927.272 130.2C925.672 130.2 924.672 129.25 924.672 126.8C924.672 122.8 927.822 120.25 932.222 120.25C936.372 120.25 940.772 123.1 943.922 126.55V130.2H927.272ZM929.772 126.55H937.272C935.572 124.9 933.872 124.25 932.472 124.25C930.722 124.25 929.822 125.05 929.772 126.55Z" fill="black"></path><path d="M924.716 141.85L929.116 145.9V161.75C929.116 164.75 928.016 166.4 924.716 166.4H922.066C919.016 166.4 916.266 165.1 916.266 160.8C916.266 157 919.216 155.2 921.816 155.15V146.7C918.716 143.9 917.466 142.8 917.466 141.85C917.466 141.1 918.616 139.7 920.666 137.1H922.316C923.216 137.1 924.066 136.7 924.066 135.65V132.7H931.366V137.35C931.366 140.25 930.116 141.8 926.816 141.8H924.716V141.85ZM921.816 162.75V158.85C921.216 158.9 920.066 159.35 920.066 160.75C920.066 162.3 921.116 162.75 921.816 162.75Z" fill="black"></path><path d="M892.584 166.4V144.85C892.584 142.5 891.834 141.8 889.134 141.8H881.134V141.85L885.084 146.15V161.75C885.084 164.75 883.984 166.4 880.684 166.4H878.034C874.984 166.4 872.234 165.1 872.234 160.8C872.234 157 875.184 155.2 877.784 155.15V147.35C874.784 144.2 873.834 143.25 873.834 142.6C873.834 141.9 874.784 140.75 877.634 137.1H892.534C898.084 137.1 899.884 139.35 899.884 143.5V166.4H892.584ZM877.784 162.75V158.85C877.184 158.9 876.034 159.35 876.034 160.75C876.034 162.3 877.084 162.75 877.784 162.75Z" fill="black"></path><path d="M848.47 166.4V144.85C848.47 142.5 847.72 141.8 845.02 141.8H840.37C840.77 142.75 840.97 143.8 840.97 145V166.4H833.67V145C833.67 142.9 832.22 141.8 829.42 141.8C826.57 141.8 825.12 142.9 825.12 145V166.4H818.47L813.57 162.75L808.67 166.4H801.97V145C801.97 142.9 800.52 141.8 797.67 141.8C794.82 141.8 793.37 142.9 793.37 145V154.8C796.97 154.8 799.22 156.45 799.22 160.5C799.22 164.05 796.67 166.4 792.72 166.4H790.27C787.32 166.4 786.07 165.45 786.07 163.1V145C786.07 139.75 789.92 137.1 797.67 137.1C805.32 137.1 809.32 139.75 809.32 145V159.8L813.57 156.45L817.82 159.75V145C817.82 139.75 821.72 137.1 829.42 137.1C833.97 137.1 837.17 138.05 839.07 139.85V137.1H848.47C853.97 137.1 855.77 139.35 855.77 143.5V166.4H848.47ZM793.37 162.65C794.37 162.65 795.12 161.75 795.12 160.45C795.12 159.15 794.42 158.45 793.37 158.45V162.65Z" fill="black"></path><path d="M764.158 141.85L768.108 146.15V161.75C768.108 164.75 767.008 166.4 763.708 166.4H761.058C758.008 166.4 755.258 165.1 755.258 160.8C755.258 157 758.208 155.2 760.808 155.15V147.35C757.808 144.2 756.858 143.25 756.858 142.6C756.858 141.9 757.808 140.75 760.658 137.1H768.908V141.8H764.158V141.85ZM760.808 162.75V158.85C760.208 158.9 759.058 159.35 759.058 160.75C759.058 162.3 760.108 162.75 760.808 162.75Z" fill="black"></path><path d="M733.473 144.6C736.673 144.6 738.673 145.9 738.673 147.9V158.5C738.673 163.75 734.473 166.4 726.273 166.4C718.073 166.4 713.973 163.75 713.973 158.5V147.2C712.573 145.35 711.523 143.85 711.523 143.1C711.523 141.6 712.373 141.05 715.623 137.1H738.673V141.8H717.273C716.873 142.15 716.673 142.5 716.673 142.7C716.673 143.25 717.773 144.6 721.273 147.2V157.7C721.273 160.6 722.823 161.7 726.273 161.7C729.773 161.7 731.323 160.6 731.323 157.7V155.2C727.923 155.2 725.723 153.3 725.723 150.35C725.723 146.85 728.573 144.6 733.473 144.6ZM731.323 151.55V148.6C730.423 148.6 729.723 149.1 729.723 150.1C729.723 151.1 730.423 151.55 731.323 151.55Z" fill="black"></path><path d="M655.684 179.6C653.284 179.6 651.484 178.25 651.484 175.85V168.6H657.734V174.1C657.734 174.65 658.034 175 658.584 175H658.984C659.534 175 659.834 174.6 659.834 174.05V172.45C659.834 169.75 661.584 168.6 664.384 168.6H669.134C671.834 168.6 673.484 169.85 673.484 172.6V179.6H667.234V174.2C667.234 173.65 666.934 173.25 666.334 173.25H666.084C665.484 173.25 665.184 173.65 665.184 174.2V175.9C665.184 178.25 663.734 179.6 661.034 179.6H655.684Z" fill="black"></path><path d="M661.027 141.85L664.777 145.9V158.5C664.777 163.75 660.677 166.4 652.427 166.4C644.177 166.4 640.077 163.75 640.077 158.5V145.7C637.627 142.6 637.477 142.4 637.477 141.85C637.477 141.25 638.327 140.15 640.677 137.1H648.127V141.8H643.627V141.85L647.427 145.9V158.2C647.427 160.3 649.077 161.7 652.427 161.7C655.827 161.7 657.477 160.3 657.477 158.2V145.7C655.027 142.6 654.827 142.4 654.827 141.85C654.827 141.25 655.727 140.15 658.027 137.1H665.477V141.8H661.027V141.85Z" fill="black"></path><path d="M610.469 134.65V130.7H616.969C618.769 130.7 619.269 130 619.269 129.2C619.269 128.35 618.769 127.8 617.719 127.8C616.719 127.8 616.169 128.35 615.919 128.95H610.469V124.95C610.469 124.15 610.069 123.8 609.219 123.8V120H613.219C615.469 120 615.919 121.25 615.919 122.75V125.1C616.769 124.4 617.969 124 619.369 124C622.719 124 624.569 126.25 624.569 129.15C624.569 132.65 621.869 134.65 617.669 134.65H610.469ZM617.719 141.85L621.519 145.9V160.3C621.519 161.35 621.769 161.7 622.719 161.7H624.369V166.4H617.869C615.469 166.4 614.169 165.55 614.169 163.9V145.7C611.719 142.6 611.569 142.4 611.569 141.85C611.569 141.25 612.419 140.15 614.769 137.1H622.219V141.8H617.719V141.85Z" fill="black"></path><path d="M590.894 141.85L594.694 145.9V163.9C594.694 165.55 592.994 166.4 589.644 166.4H584.744V161.7C586.494 161.7 587.344 161.3 587.344 160.3V154.1H577.394V163.9C577.394 165.55 575.594 166.4 572.244 166.4H567.344V161.7C569.094 161.7 570.094 161.3 570.094 160.3V145.7C567.644 142.6 567.444 142.4 567.444 141.85C567.444 141.25 568.294 140.15 570.644 137.1H578.094V141.8H573.594V141.85L577.394 145.9V149.4H587.344V145.7C584.894 142.6 584.744 142.4 584.744 141.85C584.744 141.25 585.594 140.15 587.944 137.1H595.394V141.8H590.894V141.85Z" fill="black"></path><path d="M514.041 142.1C513.391 142.1 512.991 142.7 512.991 143.85V154.8C516.591 154.8 518.841 156.45 518.841 160.5C518.841 164.05 516.241 166.4 512.291 166.4H509.891C506.941 166.4 505.641 165.45 505.641 163.1V143.85C505.641 140.3 507.391 137.1 512.141 137.1C514.241 137.1 516.191 138.1 517.991 140.15H518.141C519.991 138.15 521.791 137.1 524.241 137.1C528.791 137.1 530.391 140.3 530.391 143.85V166.4H523.091V143.85C523.091 142.7 522.641 142.1 521.941 142.1C520.541 142.1 519.591 145.15 517.991 145.15C516.491 145.15 515.341 142.1 514.041 142.1ZM512.991 162.65C513.941 162.65 514.691 161.75 514.691 160.45C514.691 159.15 514.041 158.45 512.991 158.45V162.65Z" fill="black"></path><path d="M447.239 141.8V137.1H479.389C484.939 137.1 486.739 139.35 486.739 143.5V166.4H479.439V144.85C479.439 142.5 478.689 141.8 475.989 141.8H447.239ZM449.739 166.7C446.989 166.7 444.439 165.05 443.539 161.4L447.189 159.8C447.539 160.8 448.039 161.45 448.589 161.45C448.989 161.45 449.289 161.15 449.239 160.5C449.139 159.35 447.539 155.75 447.539 152.35C447.539 147.9 451.639 144.2 459.639 144.2C467.939 144.2 471.939 147.15 471.939 152.55V166.4H464.639V153.15C464.639 150.25 463.089 148.95 459.839 148.95C456.739 148.95 454.839 150.35 454.839 152.55C454.839 154.65 456.189 156.85 456.189 160.6C456.189 164.75 453.939 166.7 449.739 166.7Z" fill="black"></path><path d="M423.864 141.85L428.264 145.9V161.75C428.264 164.75 427.164 166.4 423.864 166.4H421.214C418.164 166.4 415.414 165.1 415.414 160.8C415.414 157 418.364 155.2 420.964 155.15V146.7C417.864 143.9 416.614 142.8 416.614 141.85C416.614 141.1 417.764 139.7 419.814 137.1H421.464C422.364 137.1 423.214 136.7 423.214 135.65V132.7H430.514V137.35C430.514 140.25 429.264 141.8 425.964 141.8H423.864V141.85ZM420.964 162.75V158.85C420.364 158.9 419.214 159.35 419.214 160.75C419.214 162.3 420.264 162.75 420.964 162.75Z" fill="black"></path><path d="M387.033 166.4C379.783 166.4 376.133 163.75 376.133 158.5V155.2H383.433V158.5C383.433 160.6 384.583 161.7 387.033 161.7C389.533 161.7 390.683 160.6 390.683 158.5V155.2C380.183 153.45 374.883 150.4 374.883 145.1C374.883 139.95 378.833 137.1 387.183 137.1C395.733 137.1 399.583 139.6 399.583 144.5V145.7H392.283V144.9C392.283 142.75 390.483 141.8 387.183 141.8C383.883 141.8 382.183 142.95 382.183 145C382.183 147.95 385.383 149.2 390.983 150.5C391.683 149 393.083 147.9 395.183 147.9C397.633 147.9 399.683 149.8 399.683 152C399.683 153.9 398.983 154.9 397.983 155.5V158.5C397.983 163.75 394.333 166.4 387.033 166.4Z" fill="black"></path><path d="M353.806 141.85L357.606 145.9V160.3C357.606 161.35 357.856 161.7 358.856 161.7H360.506V166.4H353.956C351.556 166.4 350.306 165.55 350.306 163.9V145.7C347.856 142.6 347.656 142.4 347.656 141.85C347.656 141.25 348.556 140.15 350.856 137.1H358.306V141.8H353.806V141.85Z" fill="black"></path><path d="M307.078 130.2V124.75C307.078 120.65 309.478 118.7 314.478 118.7H317.828C321.228 118.7 323.178 117.7 323.178 116.15H329.528V116.8C329.528 120.1 326.728 122.95 322.628 122.95H315.028C314.128 122.95 313.428 123.3 313.428 124.6V125.75L318.178 124.15L322.928 125.8V124.3H329.278V130.2H322.828L318.128 128.1L313.578 130.2H307.078Z" fill="black"></path><path d="M296.57 143.7V135.9H303.87V139H311.22C313.07 139 313.97 138.6 313.97 137.8V132.7H321.27V137.8C321.27 141.75 319.77 143.7 315.22 143.7H296.57ZM296.57 166.4V146.3H303.87V159.8L308.97 155.75L313.97 159.75V146.3H321.27V166.4H314.62L308.97 162.05L303.27 166.4H296.57Z" fill="black"></path><path d="M233.913 141.8C231.063 141.8 229.613 142.9 229.613 145V154.8C233.213 154.8 235.463 156.45 235.463 160.5C235.463 164.05 232.913 166.4 228.963 166.4H226.513C223.563 166.4 222.312 165.45 222.312 163.1V145C222.312 139.75 226.163 137.1 233.913 137.1C241.563 137.1 245.562 139.75 245.562 145V159.8L249.812 156.45L254.063 159.75V145C254.063 139.75 257.963 137.1 265.663 137.1C273.313 137.1 277.213 139.75 277.213 145V166.4H269.913V145C269.913 142.9 268.463 141.8 265.663 141.8C262.813 141.8 261.363 142.9 261.363 145V166.4H254.713L249.812 162.75L244.913 166.4H238.213V145C238.213 142.9 236.763 141.8 233.913 141.8ZM229.613 162.65C230.613 162.65 231.363 161.75 231.363 160.45C231.363 159.15 230.663 158.45 229.613 158.45V162.65Z" fill="black"></path><path d="M187.867 179.6V173.05H185.867V169.1H195.217V179.6H187.867Z" fill="black"></path><path d="M168.328 141.8V137.1H193.028V141.8H168.328ZM168.328 166.4V152.55C168.328 147.25 172.578 144.1 180.678 144.1C188.778 144.1 193.028 147.25 193.028 152.55V166.4H185.728V152.55C185.728 150.4 183.928 148.85 180.678 148.85C177.428 148.85 175.628 150.35 175.628 152.55V156.9C176.578 155.75 177.828 155.3 179.728 155.3H181.928V160H179.378C177.078 160 176.128 161.2 175.628 162.6V166.4H168.328Z" fill="black"></path><path d="M143.566 148.7C140.216 148.7 137.516 145.95 137.516 142.6C137.516 139.25 140.216 136.5 143.566 136.5C146.916 136.5 149.666 139.25 149.666 142.6C149.666 145.95 146.916 148.7 143.566 148.7ZM143.566 144.65C144.716 144.65 145.616 143.75 145.616 142.6C145.616 141.45 144.716 140.5 143.566 140.5C142.416 140.5 141.516 141.4 141.516 142.6C141.516 143.75 142.416 144.65 143.566 144.65ZM143.566 167C140.216 167 137.516 164.25 137.516 160.9C137.516 157.55 140.216 154.8 143.566 154.8C146.916 154.8 149.666 157.55 149.666 160.9C149.666 164.25 146.916 167 143.566 167ZM143.566 162.95C144.716 162.95 145.616 162.05 145.616 160.9C145.616 159.75 144.716 158.8 143.566 158.8C142.416 158.8 141.516 159.7 141.516 160.9C141.516 162.05 142.416 162.95 143.566 162.95Z" fill="black"></path><path d="M102.673 142.1C102.023 142.1 101.623 142.7 101.623 143.85V154.8C105.223 154.8 107.473 156.45 107.473 160.5C107.473 164.05 104.873 166.4 100.923 166.4H98.5234C95.5734 166.4 94.2734 165.45 94.2734 163.1V143.85C94.2734 140.3 96.0234 137.1 100.773 137.1C102.873 137.1 104.823 138.1 106.623 140.15H106.773C108.623 138.15 110.423 137.1 112.873 137.1C117.423 137.1 119.023 140.3 119.023 143.85V166.4H111.723V143.85C111.723 142.7 111.273 142.1 110.573 142.1C109.173 142.1 108.223 145.15 106.623 145.15C105.123 145.15 103.973 142.1 102.673 142.1ZM101.623 162.65C102.573 162.65 103.323 161.75 103.323 160.45C103.323 159.15 102.673 158.45 101.623 158.45V162.65Z" fill="black"></path><path d="M73.5484 141.85L77.3484 145.9V171.2C77.3484 173 78.5984 174.35 80.8484 174.35C83.1484 174.35 84.3984 173 84.3984 171.2V168.85H91.6484V171.05C91.6484 175.8 87.9484 178.6 80.8484 178.6C73.7484 178.6 70.0484 175.8 70.0484 171.05V145.7C67.5984 142.6 67.3984 142.4 67.3984 141.85C67.3984 141.25 68.2484 140.15 70.5984 137.1H78.0484V141.8H73.5484V141.85Z" fill="black"></path><path d="M726.75 81.3V77.1H750.45V81.3H726.75ZM726.75 106.4V92.25C726.75 86.95 730.8 84.05 738.6 84.05C746.4 84.05 750.45 86.95 750.45 92.25V106.4H744.15V92.25C744.15 89.8 742.25 88.25 738.6 88.25C734.95 88.25 733.05 89.8 733.05 92.25V106.4H726.75Z" fill="black"></path><path d="M687.555 73.2C685.355 73.2 684.305 72 684.305 69.55C684.305 65.8 687.505 63.1 692.355 63.1C697.355 63.1 702.005 66 705.905 69.55V73.2H687.555ZM688.955 69.75H699.655C697.055 67.85 694.405 67 692.455 67C690.155 67 688.955 67.8 688.955 69.75Z" fill="black"></path><path d="M673.641 106.4V94.1H679.941V98.15C682.691 98.2 684.191 99.35 685.441 100.3C686.541 101.1 687.691 102.2 688.941 102.2C690.241 102.2 691.591 101.05 691.591 98.5C691.591 96.1 690.141 94.75 687.341 94.25C679.191 92.65 673.691 89.9 673.691 84.85C673.691 80.1 677.241 77.1 685.491 77.1C693.891 77.1 697.241 79.65 697.241 83.5C697.241 86.1 695.741 88.65 690.041 88.65H689.091V85.4C690.291 85.35 690.941 84.6 690.941 83.6C690.941 82.35 689.441 81.3 685.841 81.3C681.841 81.3 679.941 82.6 679.941 85.05C679.941 87.8 683.241 89.4 688.091 90.3C694.841 91.6 697.841 94.4 697.841 98.85C697.841 103.65 693.891 106.4 689.841 106.4C687.341 106.4 685.791 105.4 684.291 104.25C682.891 103.2 681.691 102.3 679.941 102.3V106.4H673.641Z" fill="black"></path><path d="M649.939 81.35L654.139 85.9V98.5C654.139 103.75 650.189 106.4 642.289 106.4C634.389 106.4 630.489 103.75 630.489 98.5V86.1C627.739 82.7 627.539 82.4 627.539 81.85C627.539 81.25 628.289 80.35 630.739 77.1H637.639V81.3H632.589V81.35L636.789 85.9V98.3C636.789 100.75 638.589 102.2 642.289 102.2C646.039 102.2 647.839 100.75 647.839 98.3V86.1C645.139 82.7 644.889 82.4 644.889 81.85C644.889 81.25 645.639 80.35 648.089 77.1H655.039V81.3H649.939V81.35Z" fill="black"></path><path d="M574.219 119.6C574.219 112.25 577.219 108.7 582.819 108.7C585.969 108.7 588.519 110.05 590.819 112.4C593.719 115.35 594.169 115.75 597.719 115.75V119.6C591.619 119.6 589.969 118.15 587.869 115.85C585.719 113.6 584.969 112.65 583.019 112.65C581.569 112.65 580.169 113.75 580.169 115.9H583.369V119.6H574.219Z" fill="black"></path><path d="M594.734 106.4V84.35C594.734 82 593.984 81.3 591.134 81.3H582.334V81.35L586.484 85.9V98.5C586.484 103.75 582.834 106.4 575.434 106.4C568.084 106.4 564.384 103.75 564.384 98.5V91.95C564.384 89.5 562.734 88.3 559.434 88.3C556.134 88.3 554.534 89.5 554.534 91.95V95.05C557.934 95.05 560.184 96.65 560.184 100.6C560.184 104.1 557.684 106.4 554.134 106.4H552.084C549.584 106.4 548.234 105.4 548.234 103.2V91.95C548.234 88.7 549.534 86.65 551.784 85.45C549.684 82.8 549.434 82.4 549.434 81.8C549.434 81.15 550.184 80.35 552.634 77.1H566.534V81.3H554.784V81.35L557.234 84.15C557.934 84.1 558.684 84.1 559.434 84.1C567.284 84.1 570.634 86.7 570.634 91.95V98.5C570.634 100.95 572.234 102.2 575.434 102.2C578.684 102.2 580.234 100.95 580.234 98.5V86.1C577.484 82.7 577.284 82.4 577.284 81.85C577.284 81.25 577.984 80.35 580.484 77.1H594.134C599.484 77.1 601.034 79.35 601.034 83.5V106.4H594.734ZM554.534 102.8C555.684 102.8 556.434 101.95 556.434 100.6C556.434 99.35 555.734 98.65 554.534 98.6V102.8Z" fill="black"></path><path d="M514.688 94.8033V89.3834H530.435V94.8033H514.688Z" fill="black"></path><path d="M492.567 81.35L496.767 85.9V111.25C496.767 116.1 492.517 118.6 486.217 118.6C479.867 118.6 476.117 116.05 476.117 111.25V108.85H481.867V111.25C481.867 113.3 483.367 114.7 486.117 114.7C488.617 114.7 490.467 113.3 490.467 111.25V86.1C487.767 82.7 487.517 82.4 487.517 81.85C487.517 81.25 488.267 80.35 490.717 77.1H497.667V81.3H492.567V81.35Z" fill="black"></path><path d="M469.417 81.35L473.717 86.05V102.2C473.717 105 472.567 106.4 469.667 106.4H467.667C464.767 106.4 461.867 105.2 461.867 100.9C461.867 97.05 464.867 95.4 467.417 95.25V87.1C464.367 83.7 463.667 82.95 463.667 82.3C463.667 81.7 464.417 80.7 467.267 77.1H474.617V81.3H469.417V81.35ZM467.417 102.85V98.85C466.667 98.85 465.467 99.35 465.467 100.85C465.467 102.4 466.617 102.85 467.417 102.85Z" fill="black"></path><path d="M439.269 106.4V84.35C439.269 82 438.469 81.3 435.619 81.3H409.069C408.619 81.7 408.469 82.05 408.469 82.2C408.469 82.9 409.519 84.15 412.719 86.9V98C412.719 100.95 414.469 102.2 418.219 102.2C422.019 102.2 423.769 100.95 423.769 98V94.8C420.369 94.8 418.169 93 418.169 90.05C418.169 86.65 420.969 84.55 425.319 84.55C428.219 84.55 430.069 85.75 430.069 87.7V98.5C430.069 103.75 426.119 106.4 418.219 106.4C410.369 106.4 406.419 103.75 406.419 98.5V87.2C404.919 85.25 403.969 83.9 403.969 83.1C403.969 81.65 404.619 81.3 407.969 77.1H438.619C443.969 77.1 445.519 79.35 445.519 83.5V106.4H439.269ZM423.769 91.25V88.3C422.669 88.3 421.919 88.8 421.919 89.8C421.919 90.8 422.669 91.25 423.769 91.25Z" fill="black"></path><path d="M381.173 106.4V84.35C381.173 82 380.423 81.3 377.573 81.3H368.673V81.35L372.873 85.9V103.9C372.873 105.55 371.373 106.4 368.323 106.4H363.623V102.2C365.623 102.2 366.573 101.8 366.573 100.8V93.85H355.523V103.9C355.523 105.55 353.973 106.4 350.923 106.4H346.273V102.2C348.223 102.2 349.223 101.8 349.223 100.8V86.1C346.523 82.7 346.323 82.4 346.323 81.85C346.323 81.25 347.023 80.35 349.523 77.1H356.423V81.3H351.373V81.35L355.523 85.9V89.65H366.573V86.1C363.823 82.7 363.623 82.4 363.623 81.85C363.623 81.25 364.373 80.35 366.823 77.1H380.573C385.923 77.1 387.473 79.35 387.473 83.5V106.4H381.173Z" fill="black"></path><path d="M902.109 59.6V53.2C902.109 50.15 905.209 48.6 910.009 48.6C914.509 48.6 917.459 50.1 917.459 53V55.7L921.509 53.65L925.559 55.7V53C925.559 50.1 928.509 48.6 933.009 48.6C937.809 48.6 940.959 50.15 940.959 53.2V59.6H936.059V53.6C936.059 52.35 934.859 51.75 933.259 51.75C931.959 51.75 930.409 52.35 930.409 53.6V59.6H925.959L921.509 57.05L917.059 59.6H912.609V53.6C912.609 52.35 911.059 51.75 909.809 51.75C908.159 51.75 907.009 52.35 907.009 53.6V56.7H908.759V59.6H902.109Z" fill="black"></path><path d="M931.208 46.4V23.9C931.208 21.6 930.408 20.85 927.408 20.85H917.608V20.9L922.108 25.9V38.5C922.108 43.75 918.608 46.4 911.508 46.4C904.408 46.4 900.908 43.75 900.908 38.5V31.85C900.908 29.1 899.058 27.75 895.508 27.75C891.908 27.75 890.158 29.1 890.158 31.85V35.25C893.358 35.25 895.608 36.85 895.608 40.65C895.608 44.15 893.208 46.4 890.008 46.4H888.308C886.158 46.4 884.758 45.4 884.758 43.3V31.85C884.758 28.6 885.958 26.55 888.208 25.35C886.158 22.8 885.958 22.45 885.958 21.8C885.958 21.2 886.558 20.5 889.158 17.1H903.058V20.85H890.158V20.9L892.958 24.1C893.758 24 894.608 23.95 895.508 23.95C902.808 23.95 906.258 26.6 906.258 31.85V38.5C906.258 41.25 908.008 42.65 911.508 42.65C915.008 42.65 916.708 41.25 916.708 38.5V26.4C913.808 22.8 913.508 22.45 913.508 21.85C913.508 21.3 914.108 20.5 916.708 17.1H930.058C935.258 17.1 936.608 19.3 936.608 23.5V46.4H931.208ZM890.158 42.95C891.508 42.95 892.208 42.05 892.208 40.7C892.208 39.45 891.508 38.75 890.158 38.75V42.95Z" fill="black"></path><path d="M846.042 13.2001C844.142 13.2001 843.242 12.0001 843.242 9.55005C843.242 6.05005 846.192 3.30005 851.042 3.30005C852.292 3.30005 853.492 3.45005 854.692 3.80005C855.692 2.05005 857.592 0.800049 859.742 0.800049C862.542 0.800049 864.492 2.70005 864.492 5.15005C864.492 6.60005 863.842 7.95005 863.392 8.65005C863.692 8.95005 864.042 9.25005 864.392 9.55005V13.2001H846.042ZM859.742 3.80005C858.792 3.80005 858.192 4.25005 857.642 4.90005C858.742 5.40005 859.892 6.05005 860.942 6.80005C861.142 6.50005 861.392 5.95005 861.392 5.35005C861.392 4.50005 860.742 3.80005 859.742 3.80005ZM847.392 9.90005H858.992C855.842 7.65005 853.042 6.80005 851.092 6.80005C848.692 6.80005 847.392 7.60005 847.392 9.90005Z" fill="black"></path><path d="M832.289 20.85V17.1H855.089V20.85H832.289ZM832.289 46.4V32C832.289 26.7 836.139 23.95 843.639 23.95C851.239 23.95 855.089 26.7 855.089 32V46.4H849.689V32C849.689 29.25 847.639 27.7 843.639 27.7C839.689 27.7 837.689 29.25 837.689 32V46.4H832.289Z" fill="black"></path><path d="M808.73 20.9L813.28 25.9V51.25C813.28 53.5 815.13 55 817.73 55C820.28 55 822.23 53.5 822.23 51.25V48.85H827.63V51.4C827.63 56.35 823.28 58.6 817.73 58.6C812.18 58.6 807.88 56.35 807.88 51.4V26.4C804.93 22.8 804.68 22.45 804.68 21.85C804.68 21.3 805.28 20.5 807.88 17.1H814.33V20.85H808.73V20.9Z" fill="black"></path><path d="M769.558 13.2001C767.658 13.2001 766.758 12.0001 766.758 9.55007C766.758 6.05007 769.708 3.30007 774.558 3.30007C777.908 3.30007 781.208 4.65007 784.108 6.55007V2.20007H787.908V13.2001H769.558ZM770.908 9.90007H782.508C779.358 7.65007 776.558 6.80007 774.608 6.80007C772.208 6.80007 770.908 7.60007 770.908 9.90007Z" fill="black"></path><path d="M755.711 20.85V17.1H778.461V20.85H755.711ZM767.061 27.9C763.061 27.9 761.111 29.25 761.111 32V35.25C764.311 35.25 766.561 36.85 766.561 40.65C766.561 44.15 764.161 46.4 760.961 46.4H759.261C757.111 46.4 755.711 45.4 755.711 43.3V32C755.711 26.75 759.461 24.1 767.061 24.1C774.661 24.1 778.461 26.75 778.461 32V46.4H773.061V32C773.061 29.25 771.061 27.9 767.061 27.9ZM761.111 42.95C762.461 42.95 763.161 42.05 763.161 40.7C763.161 39.45 762.461 38.75 761.111 38.75V42.95Z" fill="black"></path><path d="M733.228 20.9L737.828 25.95V42.6C737.828 45.2 736.628 46.4 734.078 46.4H732.678C729.828 46.4 726.828 45.3 726.828 40.95C726.828 37.05 729.928 35.5 732.428 35.35V26.9C729.328 23.25 728.828 22.7 728.828 22.05C728.828 21.5 729.428 20.7 732.228 17.1H738.878V20.85H733.228V20.9ZM732.428 42.95V38.85C731.578 38.85 730.328 39.35 730.328 40.9C730.328 42.5 731.478 42.95 732.428 42.95Z" fill="black"></path><path d="M694.484 59.6C692.284 59.6 691.084 58.05 690.784 56.65H675.734V53.15H690.784V48.6H695.634V53.15C697.184 53.5 697.984 54.8 697.984 56.2C697.984 58.05 696.634 59.6 694.484 59.6Z" fill="black"></path><path d="M695.255 46.4V23.9C695.255 21.6 694.455 20.85 691.455 20.85H681.655V20.9L686.155 25.9V38.5C686.155 43.75 682.655 46.4 675.555 46.4C668.455 46.4 664.955 43.75 664.955 38.5V31.85C664.955 29.1 663.105 27.75 659.555 27.75C655.955 27.75 654.205 29.1 654.205 31.85V35.25C657.405 35.25 659.655 36.85 659.655 40.65C659.655 44.15 657.255 46.4 654.055 46.4H652.355C650.205 46.4 648.805 45.4 648.805 43.3V31.85C648.805 28.6 650.005 26.55 652.255 25.35C650.205 22.8 650.005 22.45 650.005 21.8C650.005 21.2 650.605 20.5 653.205 17.1H667.105V20.85H654.205V20.9L657.005 24.1C657.805 24 658.655 23.95 659.555 23.95C666.855 23.95 670.305 26.6 670.305 31.85V38.5C670.305 41.25 672.055 42.65 675.555 42.65C679.055 42.65 680.755 41.25 680.755 38.5V26.4C677.855 22.8 677.555 22.45 677.555 21.85C677.555 21.3 678.155 20.5 680.755 17.1H694.105C699.305 17.1 700.655 19.3 700.655 23.5V46.4H695.255ZM654.205 42.95C655.555 42.95 656.255 42.05 656.255 40.7C656.255 39.45 655.555 38.75 654.205 38.75V42.95Z" fill="black"></path><path d="M606.383 46.4V34.1H611.783V38C615.083 38 616.683 39.35 618.033 40.5C619.083 41.35 620.233 42.65 621.533 42.65C622.833 42.65 624.283 41.5 624.283 38.75C624.283 36.2 622.783 34.75 619.733 34.2C611.333 32.75 606.433 29.9 606.433 24.95C606.433 20.3 609.583 17.1 617.783 17.1C626.033 17.1 629.133 19.9 629.133 23.55C629.133 26.2 627.483 28.75 622.183 28.75H621.533V25.65C622.983 25.6 623.733 24.75 623.733 23.5C623.733 22.15 622.133 20.85 618.083 20.85C613.533 20.85 611.783 22.3 611.783 25C611.783 27.95 614.883 29.65 620.233 30.6C626.883 31.8 629.683 34.55 629.683 38.95C629.683 43.65 625.983 46.4 621.983 46.4C619.533 46.4 618.083 45.3 616.483 43.95C614.933 42.65 613.833 41.75 611.783 41.7V46.4H606.383Z" fill="black"></path><path d="M577.888 14.65V11.25H583.188C585.687 11.25 586.188 10.35 586.188 9.35C586.188 8.3 585.588 7.65 584.338 7.65C583.038 7.65 582.538 8.3 582.138 9H577.888V4.15C577.888 3.35 577.488 3 576.688 3V0H579.537C581.637 0 582.138 0.9 582.138 2.55V5.45C582.788 4.85 583.938 4.4 585.388 4.4C588.588 4.4 590.537 6.45 590.537 9.5C590.537 12.7 588.338 14.65 583.938 14.65H577.888ZM582.438 20.9L586.987 25.9V41C586.987 42.25 587.337 42.65 588.487 42.65H590.588V46.4H585.287C582.837 46.4 581.588 45.55 581.588 43.9V26.4C578.638 22.8 578.388 22.45 578.388 21.85C578.388 21.3 578.988 20.5 581.588 17.1H588.037V20.85H582.438V20.9Z" fill="black"></path><path d="M542.917 13.2C541.017 13.2 540.117 12.0001 540.117 9.55005C540.117 6.05005 543.067 3.30005 547.917 3.30005C552.817 3.30005 557.517 6.15005 561.267 9.55005V13.2H542.917ZM544.267 9.90005H555.867C552.717 7.65005 549.917 6.80005 547.967 6.80005C545.567 6.80005 544.267 7.60005 544.267 9.90005Z" fill="black"></path><path d="M529.07 20.85V17.1H551.82V20.85H529.07ZM540.42 27.9C536.42 27.9 534.47 29.25 534.47 32V35.25C537.67 35.25 539.92 36.85 539.92 40.65C539.92 44.15 537.52 46.4 534.32 46.4H532.62C530.47 46.4 529.07 45.4 529.07 43.3V32C529.07 26.75 532.82 24.1 540.42 24.1C548.02 24.1 551.82 26.75 551.82 32V46.4H546.42V32C546.42 29.25 544.42 27.9 540.42 27.9ZM534.47 42.95C535.82 42.95 536.52 42.05 536.52 40.7C536.52 39.45 535.82 38.75 534.47 38.75V42.95Z" fill="black"></path><path d="M472.145 46.4001V27.2001C470.495 25.1001 469.695 23.9001 469.695 23.0501C469.695 21.7001 470.295 21.4001 473.645 17.1001H487.695C488.745 17.1001 489.495 16.7001 489.495 15.9001V12.7001H494.895V15.9001C494.895 16.3501 494.895 16.7501 494.845 17.1001H502.895C508.095 17.1001 509.445 19.3001 509.445 23.5001V46.4001H504.045V23.9001C504.045 21.6001 503.245 20.8501 500.245 20.8501H488.945H474.195C473.795 21.3001 473.595 21.6501 473.595 21.8001C473.595 22.6001 475.045 24.0001 477.545 26.6501V41.6001L483.545 36.2501L489.495 41.5501V24.1001H494.895V46.4001H489.195L483.545 41.4501L477.845 46.4001H472.145Z" fill="black"></path><path d="M449.517 20.9L454.117 25.95V42.6C454.117 45.2 452.917 46.4 450.367 46.4H448.967C446.117 46.4 443.117 45.3 443.117 40.95C443.117 37.05 446.217 35.5 448.717 35.35V26.9C445.617 23.25 445.117 22.7 445.117 22.05C445.117 21.5 445.717 20.7 448.517 17.1H455.167V20.85H449.517V20.9ZM448.717 42.95V38.85C447.867 38.85 446.617 39.35 446.617 40.9C446.617 42.5 447.767 42.95 448.717 42.95Z" fill="black"></path><path d="M408.523 59.6C406.373 59.6 405.273 58.7 405.273 56.8V54.3C405.273 50.95 408.123 48.6 415.473 48.6C422.773 48.6 425.623 50.95 425.623 54.3V59.6H420.723V54.3C420.723 52.3 419.273 51.3 415.473 51.3C411.673 51.3 410.173 52.3 410.173 54.25V56C410.173 56.55 410.673 56.75 411.473 56.75H414.323V59.6H408.523Z" fill="black"></path><path d="M394.094 46.4V34.1H399.494V38C402.794 38 404.394 39.35 405.744 40.5C406.794 41.35 407.944 42.65 409.244 42.65C410.544 42.65 411.994 41.5 411.994 38.75C411.994 36.2 410.494 34.75 407.444 34.2C399.044 32.75 394.144 29.9 394.144 24.95C394.144 20.3 397.294 17.1 405.494 17.1C413.744 17.1 416.844 19.9 416.844 23.55C416.844 26.2 415.194 28.75 409.894 28.75H409.244V25.65C410.694 25.6 411.444 24.75 411.444 23.5C411.444 22.15 409.844 20.85 405.794 20.85C401.244 20.85 399.494 22.3 399.494 25C399.494 27.95 402.594 29.65 407.944 30.6C414.594 31.8 417.394 34.55 417.394 38.95C417.394 43.65 413.694 46.4 409.694 46.4C407.244 46.4 405.794 45.3 404.194 43.95C402.644 42.65 401.544 41.75 399.494 41.7V46.4H394.094Z" fill="black"></path><path d="M370.33 20.9L374.88 25.9V43.9C374.88 45.55 373.53 46.4 370.83 46.4H366.28V42.65C368.43 42.65 369.48 42.25 369.48 41.25V33.65H357.53V43.9C357.53 45.55 356.13 46.4 353.43 46.4H348.93V42.65C351.03 42.65 352.13 42.25 352.13 41.25V26.4C349.18 22.8 348.93 22.45 348.93 21.85C348.93 21.3 349.53 20.5 352.13 17.1H358.58V20.85H353.03V20.9L357.53 25.9V29.85H369.48V26.4C366.53 22.8 366.28 22.45 366.28 21.85C366.28 21.3 366.88 20.5 369.48 17.1H375.93V20.85H370.33V20.9Z" fill="black"></path><path d="M327.306 20.9L331.856 25.9V38.5C331.856 43.75 328.056 46.4 320.456 46.4C312.906 46.4 309.106 43.75 309.106 38.5V26.4C306.156 22.8 305.906 22.45 305.906 21.85C305.906 21.3 306.506 20.5 309.106 17.1H315.556V20.85H309.956V20.9L314.506 25.9V29.9H326.456V26.4C323.506 22.8 323.256 22.45 323.256 21.85C323.256 21.3 323.856 20.5 326.456 17.1H332.906V20.85H327.306V20.9ZM314.506 38.4C314.506 41.15 316.456 42.65 320.456 42.65C324.506 42.65 326.456 41.15 326.456 38.4V33.65H314.506V38.4Z" fill="black"></path><path d="M266.688 20.85V17.1H289.438V20.85H266.688ZM266.688 46.4V32C266.688 26.7 270.488 23.95 278.038 23.95C285.588 23.95 289.438 26.7 289.438 32V46.4H284.038V32C284.038 29.25 282.038 27.75 278.038 27.75C274.088 27.75 272.038 29.2 272.038 32V38.1C273.138 36.85 274.537 36.25 276.438 36.25H279.288V40H276.737C273.687 40 272.688 41.45 272.038 43.8V46.4H266.688Z" fill="black"></path><path d="M241.611 46.4V23.9C241.611 21.6 240.861 20.85 237.861 20.85H227.861V20.9L232.411 25.9V38.5C232.411 43.75 228.611 46.4 221.011 46.4C213.461 46.4 209.661 43.75 209.661 38.5V26.4C206.711 22.8 206.461 22.45 206.461 21.85C206.461 21.3 207.061 20.5 209.661 17.1H216.111V20.85H210.511V20.9L215.061 25.9V29.9H227.011V26.4C224.061 22.8 223.811 22.45 223.811 21.85C223.811 21.3 224.411 20.5 227.011 17.1H240.511C245.661 17.1 247.011 19.3 247.011 23.5V46.4H241.611ZM215.061 38.4C215.061 41.15 217.011 42.65 221.011 42.65C225.061 42.65 227.011 41.15 227.011 38.4V33.65H215.061V38.4Z" fill="black"></path><path d="M163.344 27.75C159.744 27.75 157.994 29.1 157.994 31.85V35.25C161.194 35.25 163.444 36.85 163.444 40.65C163.444 44.15 161.044 46.4 157.844 46.4H156.144C153.994 46.4 152.594 45.4 152.594 43.3V31.85C152.594 28.6 153.794 26.55 156.044 25.35C153.994 22.8 153.794 22.45 153.794 21.8C153.794 21.2 154.394 20.5 156.994 17.1H170.894V20.85H157.994V20.9L160.794 24.1C161.594 24 162.444 23.95 163.344 23.95C170.644 23.95 174.094 26.6 174.094 31.85V38.5C174.094 41.25 175.844 42.65 179.344 42.65C182.844 42.65 184.544 41.25 184.544 38.5V26.4C181.644 22.8 181.344 22.45 181.344 21.85C181.344 21.3 181.944 20.5 184.544 17.1H191.044V20.85H185.444V20.9L189.944 25.9V38.5C189.944 43.75 186.444 46.4 179.344 46.4C172.244 46.4 168.744 43.75 168.744 38.5V31.85C168.744 29.1 166.894 27.75 163.344 27.75ZM157.994 42.95C159.344 42.95 160.044 42.05 160.044 40.7C160.044 39.45 159.344 38.75 157.994 38.75V42.95Z" fill="black"></path></svg> 