<?xml version="1.0" encoding="UTF-8"?> <svg xmlns="http://www.w3.org/2000/svg" xmlns:xlink="http://www.w3.org/1999/xlink" width="1426px" height="53px" viewBox="0 0 1426 53"> <title>MAHABHAVADHAMA</title> <g id="Page-1" stroke="none" stroke-width="1" fill="none" fill-rule="evenodd"> <g id="Artboard-3-Copy-10" transform="translate(-569.000000, -201.000000)" fill="#D2AA1B" fill-rule="nonzero"> <path d="M579.245605,254 L579.245605,218.331055 L579.538574,218.331055 L593.894043,253.487305 L600.852051,253.487305 L615.20752,218.331055 L615.500488,218.331055 L615.500488,254 L625.351562,254 L625.351562,201.155762 L612.53418,201.155762 L597.519531,238.619141 L597.226562,238.619141 L582.211914,201.155762 L569.394531,201.155762 L569.394531,254 L579.245605,254 Z M690.124023,254 L694.152344,241.182617 L712.719238,241.182617 L716.747559,254 L728.50293,254 L710.119141,201.155762 L697.118652,201.155762 L678.771484,254 L690.124023,254 Z M710.338867,232.90625 L696.532715,232.90625 L703.307617,211.263184 L703.563965,211.263184 L710.338867,232.90625 Z M792.945801,254 L792.945801,231.734375 L816.749512,231.734375 L816.749512,254 L827.809082,254 L827.809082,201.155762 L816.749512,201.155762 L816.749512,222.615723 L792.945801,222.615723 L792.945801,201.155762 L781.88623,201.155762 L781.88623,254 L792.945801,254 Z M892.581543,254 L896.609863,241.182617 L915.176758,241.182617 L919.205078,254 L930.960449,254 L912.57666,201.155762 L899.576172,201.155762 L881.229004,254 L892.581543,254 Z M912.796387,232.90625 L898.990234,232.90625 L905.765137,211.263184 L906.021484,211.263184 L912.796387,232.90625 Z M1007.74463,254 C1019.02393,254 1026.01855,248.177246 1026.01855,238.875488 C1026.01855,231.880859 1020.74512,226.644043 1013.56738,226.094727 L1013.56738,225.801758 C1019.17041,224.959473 1023.4917,220.125488 1023.4917,214.339355 C1023.4917,206.246094 1017.26611,201.155762 1007.3418,201.155762 L984.34375,201.155762 L984.34375,254 L1007.74463,254 Z M1003.3501,223.128418 L995.40332,223.128418 L995.40332,209.395508 L1004.48535,209.395508 C1009.64893,209.395508 1012.61523,211.8125 1012.61523,216.060547 C1012.61523,220.52832 1009.24609,223.128418 1003.3501,223.128418 Z M1004.9248,245.760254 L995.40332,245.760254 L995.40332,230.416016 L1004.66846,230.416016 C1011.18701,230.416016 1014.73926,233.052734 1014.73926,237.996582 C1014.73926,243.050293 1011.29688,245.760254 1004.9248,245.760254 Z M1091.37695,254 L1091.37695,231.734375 L1115.18066,231.734375 L1115.18066,254 L1126.24023,254 L1126.24023,201.155762 L1115.18066,201.155762 L1115.18066,222.615723 L1091.37695,222.615723 L1091.37695,201.155762 L1080.31738,201.155762 L1080.31738,254 L1091.37695,254 Z M1191.0127,254 L1195.04102,241.182617 L1213.60791,241.182617 L1217.63623,254 L1229.3916,254 L1211.00781,201.155762 L1198.00732,201.155762 L1179.66016,254 L1191.0127,254 Z M1211.22754,232.90625 L1197.42139,232.90625 L1204.19629,211.263184 L1204.45264,211.263184 L1211.22754,232.90625 Z M1304.8208,254 L1322.58203,201.155762 L1310.53369,201.155762 L1298.44873,242.61084 L1298.19238,242.61084 L1286.10742,201.155762 L1273.72949,201.155762 L1291.49072,254 L1304.8208,254 Z M1378.27246,254 L1382.30078,241.182617 L1400.86768,241.182617 L1404.896,254 L1416.65137,254 L1398.26758,201.155762 L1385.26709,201.155762 L1366.91992,254 L1378.27246,254 Z M1398.4873,232.90625 L1384.68115,232.90625 L1391.45605,211.263184 L1391.7124,211.263184 L1398.4873,232.90625 Z M1553.04443,254 C1568.90137,254 1578.23975,244.148926 1578.23975,227.376465 C1578.23975,210.604004 1568.90137,201.155762 1553.04443,201.155762 L1532.86621,201.155762 L1532.86621,254 L1553.04443,254 Z M1551.72607,244.844727 L1543.92578,244.844727 L1543.92578,210.274414 L1551.72607,210.274414 C1561.46729,210.274414 1566.96045,216.353516 1566.96045,227.413086 C1566.96045,238.838867 1561.61377,244.844727 1551.72607,244.844727 Z M1644.40381,254 L1644.40381,231.734375 L1668.20752,231.734375 L1668.20752,254 L1679.26709,254 L1679.26709,201.155762 L1668.20752,201.155762 L1668.20752,222.615723 L1644.40381,222.615723 L1644.40381,201.155762 L1633.34424,201.155762 L1633.34424,254 L1644.40381,254 Z M1744.03955,254 L1748.06787,241.182617 L1766.63477,241.182617 L1770.66309,254 L1782.41846,254 L1764.03467,201.155762 L1751.03418,201.155762 L1732.68701,254 L1744.03955,254 Z M1764.25439,232.90625 L1750.44824,232.90625 L1757.22314,211.263184 L1757.47949,211.263184 L1764.25439,232.90625 Z M1845.65283,254 L1845.65283,218.331055 L1845.9458,218.331055 L1860.30127,253.487305 L1867.25928,253.487305 L1881.61475,218.331055 L1881.90771,218.331055 L1881.90771,254 L1891.75879,254 L1891.75879,201.155762 L1878.94141,201.155762 L1863.92676,238.619141 L1863.63379,238.619141 L1848.61914,201.155762 L1835.80176,201.155762 L1835.80176,254 L1845.65283,254 Z M1956.53125,254 L1960.55957,241.182617 L1979.12646,241.182617 L1983.15479,254 L1994.91016,254 L1976.52637,201.155762 L1963.52588,201.155762 L1945.17871,254 L1956.53125,254 Z M1976.74609,232.90625 L1962.93994,232.90625 L1969.71484,211.263184 L1969.97119,211.263184 L1976.74609,232.90625 Z" id="MAHABHAVADHAMA"></path> </g> </g> </svg> 