<?xml version="1.0" encoding="UTF-8"?> <svg xmlns="http://www.w3.org/2000/svg" width="1920" height="1920" viewBox="0 0 1920 1920" fill="none"><path d="M1335.97 584.147C1238.15 484.34 1103.95 428.347 964.209 429.006H963.318C675.535 429.007 438.718 665.825 438.718 953.608C438.718 954.958 438.747 956.28 438.747 957.631C439.831 1049.13 463.517 1138.94 507.698 1219.07L433 1492L711.39 1420.18C788.295 1462.4 874.755 1484.16 962.485 1483.38C1251.33 1481.8 1488.12 1243.63 1487.95 954.758C1488.64 815.965 1433.91 682.488 1335.97 584.147ZM964.209 1394.32C886.443 1394.72 810.045 1373.86 743.279 1333.99L726.041 1325.37L560.272 1368.46L603.366 1204.7L591.874 1187.47C549.188 1118.54 526.573 1039.08 526.572 958.004C526.572 718.917 723.312 522.176 962.4 522.176C1201.49 522.176 1398.23 718.917 1398.23 958.004C1398.23 1108.55 1320.23 1248.8 1192.32 1328.24C1124.67 1371.57 1045.98 1394.51 965.646 1394.32M1218.18 1075.42L1186.58 1061.06C1186.58 1061.06 1140.61 1040.95 1111.88 1026.58C1109.01 1026.58 1106.13 1023.71 1103.26 1023.71C1096.18 1023.88 1089.26 1025.86 1083.15 1029.45C1077.03 1033.05 1080.28 1032.33 1040.05 1078.29C1037.33 1083.67 1031.72 1087.03 1025.69 1086.91H1022.82C1018.5 1086.19 1014.5 1084.19 1011.33 1081.17L996.961 1075.42C966.139 1062.37 937.917 1043.88 913.645 1020.84C907.899 1015.09 899.28 1009.34 893.534 1003.6C872.266 983.223 853.899 960.023 838.949 934.647L836.075 928.901C833.579 925.389 831.641 921.513 830.329 917.409C829.578 912.433 830.594 907.35 833.202 903.045C835.817 898.735 844.694 888.679 853.313 880.061C861.932 871.442 861.932 865.697 867.678 859.95C870.631 855.849 872.671 851.163 873.663 846.208C874.654 841.252 874.572 836.142 873.423 831.22C860.034 794.045 844.691 757.604 827.456 722.049C822.837 714.864 815.64 709.723 807.346 707.684H775.743C769.997 707.684 764.252 710.556 758.505 710.556L755.632 713.429C749.887 716.302 744.141 722.049 738.395 724.921C732.649 727.794 729.776 736.414 724.03 742.159C703.946 767.539 692.833 798.857 692.428 831.22C692.746 853.986 697.63 876.456 706.792 897.299L709.665 905.917C735.462 961.071 771.54 1010.8 815.965 1052.44L827.456 1063.93C835.819 1070.86 843.514 1078.55 850.44 1086.91C909.967 1138.71 980.671 1176.06 1057.01 1196.09C1065.62 1198.96 1077.12 1198.96 1085.73 1201.83H1114.46C1129.48 1201.09 1144.17 1197.17 1157.56 1190.34C1164.6 1187.15 1171.32 1183.3 1177.67 1178.85L1183.42 1173.1C1189.16 1167.36 1194.91 1164.48 1200.65 1158.74C1206.27 1153.73 1211.11 1147.93 1215.02 1141.5C1220.53 1128.63 1224.41 1115.13 1226.51 1101.28V1081.17C1223.93 1078.85 1221.03 1076.91 1217.89 1075.42" fill="white"></path></svg> 