<?xml version="1.0" encoding="UTF-8"?> <svg xmlns="http://www.w3.org/2000/svg" width="1270" height="1315" viewBox="0 0 1270 1315" fill="none"><path d="M649.759 1314.3H636.34V1299.5H631.654V1291.94H649.759V1314.3ZM619.881 1268.41L629.892 1262.77H642.032V1286.2H629.892V1271.82L619.881 1277.14L609.764 1271.82V1279.38H613.704V1286.2H597.623V1262.77H609.764L619.881 1268.41ZM506.104 1209.65C522.718 1209.65 531.345 1215.83 531.345 1227.12V1257.25H517.926V1227.12C517.926 1221.9 513.879 1218.59 506.104 1218.59C498.33 1218.59 494.283 1221.9 494.283 1227.12V1257.25H480.865V1227.12C480.865 1215.83 489.491 1209.65 506.104 1209.65ZM588.212 1203.79H577.456V1203.9L586.402 1213.59V1221.58H609.938V1214.02C604.187 1206.77 603.654 1206.14 603.654 1204.96C603.654 1203.69 605.252 1201.77 610.47 1194.85H625.273V1203.79H614.41V1203.9L623.356 1213.59V1240.43C623.356 1251.61 614.943 1257.25 598.116 1257.25C581.29 1257.25 572.983 1251.61 572.983 1240.43V1214.02C567.127 1206.77 566.7 1206.14 566.7 1204.96C566.7 1203.69 568.297 1201.77 573.516 1194.85H588.212V1203.79ZM758.823 1192.29C758.823 1193.25 758.717 1194.1 758.717 1194.85H775.331C786.619 1194.85 790.027 1199.64 790.027 1208.48V1257.25H776.608V1210.29C776.608 1205.28 775.011 1203.79 768.94 1203.79H713.988C713.136 1204.75 712.711 1205.39 712.711 1205.71C712.711 1207.31 716.757 1211.03 721.763 1215.72V1245.22L733.584 1235.1L745.405 1245.11V1210.29H758.823V1257.25H745.618L733.584 1247.14L721.55 1257.25H708.345V1216.36C705.043 1211.99 703.126 1209.22 703.126 1207.41C703.126 1204.54 704.936 1203.15 711.752 1194.85H741.997C744.021 1194.85 745.405 1193.99 745.405 1192.29V1185.47H758.823V1192.29ZM586.402 1240C586.402 1245.22 590.236 1248.31 598.116 1248.31C606.103 1248.31 609.937 1245.22 609.938 1240V1230.52H586.402V1240ZM531.345 1203.79H480.865V1194.85H531.345V1203.79ZM1113.81 1058.63C1116.14 1058.63 1117.96 1061.22 1117.96 1065.37C1117.96 1069.52 1116.14 1072.11 1113.81 1072.11H156.324C153.991 1072.11 152.176 1069.52 152.176 1065.37C152.176 1061.22 153.991 1058.63 156.324 1058.63H1113.81ZM1113.31 884.276C1114.61 884.017 1115.13 885.314 1115.13 886.869C1115.13 888.425 1114.87 889.721 1113.57 889.98L1109.16 890.499C1099.57 891.795 1097.76 896.463 1097.76 920.315V989.021C1097.76 998.096 1098.02 1007.69 1098.53 1017.8C1098.53 1019.62 1098.27 1020.39 1095.94 1021.43C1093.35 1022.47 1092.05 1022.21 1090.76 1020.65C1061.48 985.572 1023.11 941.156 997.419 914.428V982.54C997.419 1006.39 999.233 1011.06 1008.83 1012.36L1013.23 1012.88C1014.53 1012.88 1015.05 1014.43 1014.79 1015.99C1014.79 1017.54 1014.27 1018.58 1012.97 1018.58C1005.2 1018.32 997.937 1018.06 992.492 1018.06C987.307 1018.06 979.788 1018.06 972.01 1018.58C970.714 1018.84 970.195 1017.54 970.195 1015.99C970.195 1014.43 970.455 1013.13 971.751 1012.88L976.158 1012.36C985.751 1011.06 987.566 1006.39 987.566 982.54V913.833C987.566 897.759 983.159 893.092 967.603 889.98C966.306 889.721 965.788 888.425 966.047 886.869C966.047 885.314 966.565 884.017 967.861 884.276C979.529 885.054 991.196 885.055 1002.86 884.536C1005.2 884.277 1005.46 885.054 1006.75 886.869C1031.97 919.727 1058.94 950.832 1087.9 980.433V920.315C1087.9 894.129 1085.83 890.758 1069.75 889.98C1068.72 889.98 1067.94 888.425 1068.2 886.869C1068.2 885.314 1068.72 884.276 1070.01 884.276C1077.79 884.536 1087.39 884.795 1092.83 884.795C1098.02 884.795 1105.53 884.795 1113.31 884.276ZM678.256 880.38C691.997 880.639 705.479 882.713 718.701 885.824C721.294 886.343 721.553 886.862 721.812 889.195C722.072 894.899 722.59 905.011 724.405 917.196C724.665 918.493 723.887 919.012 721.812 919.53C719.479 919.789 718.442 919.53 718.183 918.233C714.553 899.825 697.701 887.121 679.033 888.677C653.365 888.677 627.439 906.826 627.438 948.309C627.438 991.348 654.403 1012.61 680.589 1012.61C699.516 1012.87 716.368 1000.68 722.331 982.792C722.331 982.014 723.369 981.754 725.184 982.014C726.998 982.273 728.035 983.051 727.776 984.088C726.739 993.681 723.887 1003.27 719.738 1011.83C718.96 1013.39 717.664 1014.42 715.85 1014.94C703.923 1019.09 691.479 1021.16 678.774 1021.42C633.921 1021.42 599.438 998.867 599.438 951.161C599.438 904.752 635.995 880.38 678.256 880.38ZM777.29 951.418C778.068 911.75 810.477 880.119 850.146 880.896C888.777 881.415 920.148 912.787 920.667 951.418C919.63 991.086 886.443 1022.2 846.774 1021.16C808.921 1020.12 778.327 989.531 777.29 951.418ZM326.939 880.647C335.755 880.907 344.57 881.943 353.385 884.018C356.496 884.795 356.755 885.315 357.533 887.389C359.867 895.426 360.904 903.723 360.904 912.02C360.645 913.834 359.608 914.612 357.274 914.871C354.941 915.13 353.903 914.871 353.385 913.315C350.792 899.315 338.607 889.203 324.606 889.203C312.421 887.648 301.531 896.463 299.976 908.39C299.976 908.908 299.975 909.686 299.716 910.204C299.716 925.76 312.679 932.502 329.791 937.946C354.422 945.984 370.497 956.095 370.497 979.948C370.497 1003.8 351.829 1020.65 319.68 1020.65C307.494 1021.17 295.049 1018.58 283.9 1013.65C281.308 1012.62 279.493 1010.54 278.715 1008.21C275.863 999.652 274.307 990.578 274.566 981.504C274.566 979.948 276.123 979.429 277.938 979.17C279.752 978.911 281.048 979.43 281.308 980.726C286.493 994.467 297.383 1012.87 319.161 1012.88C336.273 1012.88 347.163 1002.76 347.163 989.022C347.163 977.355 343.014 967.762 320.198 960.243C297.383 952.724 278.456 940.798 278.456 917.723C278.456 897.759 294.79 880.647 326.939 880.647ZM483.284 883.485C484.58 883.485 484.84 884.522 485.1 886.077C485.1 887.633 484.84 888.929 483.544 889.188L479.136 889.707C469.543 891.003 467.729 891.523 467.729 913.042V934.302C467.729 940.524 468.506 942.598 470.32 943.376C472.654 944.672 475.247 943.636 481.47 937.673C488.989 930.413 502.989 915.634 511.026 906.56C516.73 900.078 521.138 895.152 520.879 892.818C520.879 891.781 520.1 891.263 519.063 891.004L513.619 889.448C512.582 889.189 512.063 888.152 512.322 886.337C512.322 885.041 512.841 883.744 514.138 883.744C514.206 883.747 528.675 884.263 536.435 884.263C544.213 884.263 558.732 883.744 558.732 883.744C560.028 883.485 560.547 884.522 560.807 886.077C561.066 887.892 560.288 889.189 559.251 889.448C547.584 890.485 536.694 895.411 528.397 903.708C520.101 911.227 501.434 930.153 495.729 936.376L495.47 936.636C494.174 937.932 494.174 940.265 495.47 941.562C505.84 955.303 531.508 988.23 544.472 1002.75C549.398 1009.23 557.176 1012.86 565.473 1012.6C566.51 1012.6 567.288 1013.64 567.028 1015.71C566.769 1017.79 566.25 1018.56 564.954 1018.56C564.857 1018.56 547.816 1018.05 538.25 1018.05C528.916 1018.05 511.804 1018.56 511.804 1018.56C510.767 1018.82 510.249 1017.79 509.989 1015.97C509.73 1014.16 509.989 1013.12 511.285 1012.86L516.471 1012.08C519.063 1011.56 520.878 1010.01 518.545 1006.9C509.73 994.971 488.729 967.488 477.58 955.303C475.247 952.71 473.432 951.673 471.099 952.191C469.025 952.71 467.729 954.784 467.729 958.154V988.23C467.729 1009.75 469.543 1010.27 479.136 1011.56L483.544 1012.08C484.84 1012.08 485.359 1013.64 485.1 1015.19C485.1 1016.75 484.581 1017.79 483.284 1017.79C483.239 1017.79 465.641 1017.27 456.061 1017.27C446.495 1017.27 428.939 1017.78 428.838 1017.79C427.542 1018.05 427.022 1016.75 427.022 1015.19C427.022 1013.64 427.282 1012.34 428.578 1012.08L432.985 1011.56C442.578 1010.27 444.394 1009.75 444.394 988.23V913.042C444.394 891.523 442.578 891.003 432.985 889.707L428.578 889.188C427.282 889.188 426.763 887.633 427.022 886.077C427.023 884.522 427.542 883.485 428.838 883.485C428.941 883.488 446.496 884.003 456.061 884.003C465.64 884.003 483.234 883.487 483.284 883.485ZM211.045 884.004C212.341 884.004 212.859 885.04 212.859 886.596C212.859 888.151 212.601 889.448 211.305 889.707L206.896 890.226C197.304 891.522 195.488 892.041 195.488 913.561V988.749C195.488 1010.27 197.304 1010.79 206.896 1012.08L211.305 1012.6C212.601 1012.6 213.119 1014.16 212.859 1015.71C212.859 1017.27 212.341 1018.31 211.045 1018.31C211.017 1018.3 193.407 1017.79 183.821 1017.79C174.228 1017.79 156.598 1018.31 156.598 1018.31C155.302 1018.56 155.042 1017.27 154.783 1015.71C154.783 1014.16 155.043 1012.86 156.339 1012.6L160.746 1012.08C170.339 1010.79 172.154 1010.27 172.154 988.749V913.561C172.154 892.041 170.339 891.522 160.746 890.226L156.339 889.707C155.043 889.707 154.524 888.151 154.783 886.596C154.783 885.041 155.302 884.004 156.598 884.004C156.598 884.004 174.228 884.522 183.821 884.522C193.405 884.522 211.011 884.005 211.045 884.004ZM849.108 889.711C821.107 889.711 805.291 919.268 805.291 951.418C805.032 986.419 824.478 1012.61 849.108 1012.61C873.48 1012.61 892.925 986.419 892.925 951.418C892.925 919.009 877.109 889.711 849.108 889.711ZM1113.81 830.203C1116.14 830.203 1117.96 832.796 1117.96 836.944C1117.96 841.093 1116.14 843.686 1113.81 843.686H156.324C153.991 843.685 152.176 841.092 152.176 836.944C152.176 832.796 153.991 830.203 156.324 830.203H1113.81ZM1172.86 764.746C1188.15 764.746 1200.86 776.932 1200.86 792.229C1201.12 807.784 1188.93 820.489 1173.38 820.748C1157.82 821.007 1145.11 808.822 1144.86 793.266C1144.6 777.709 1156.78 765.005 1172.34 764.746H1172.86ZM1173.12 769.672C1160.93 770.19 1151.34 780.043 1151.6 792.229C1152.37 803.896 1162.23 812.97 1174.15 812.451C1185.82 811.673 1194.89 801.821 1194.38 789.895C1193.86 778.487 1184.52 769.672 1173.12 769.672ZM1172.86 778.746C1177.78 778.746 1183.75 779.784 1183.75 786.006C1183.75 788.598 1182.19 790.932 1179.86 791.969C1179.34 792.228 1179.34 792.487 1179.86 793.524C1181.15 796.636 1182.97 799.748 1185.3 802.081C1186.08 802.6 1186.6 803.118 1187.12 803.377C1187.64 803.377 1187.64 804.673 1187.12 804.933C1186.08 804.933 1185.04 805.191 1184.01 805.191C1180.64 805.451 1177.52 803.636 1175.97 800.784L1172.86 795.34C1172.6 794.562 1171.82 794.043 1171.04 794.043C1170.01 794.043 1169.75 794.562 1169.75 795.08V798.191C1169.75 801.303 1169.75 802.339 1172.86 802.599L1173.38 802.858C1173.89 803.118 1173.89 804.673 1173.38 804.933C1171.3 804.933 1169.49 804.673 1166.89 804.673C1164.56 804.673 1162.49 804.933 1160.67 804.933C1160.15 804.673 1160.15 803.118 1160.41 802.858L1161.19 802.599C1163.52 802.08 1163.52 801.562 1163.52 798.191L1163.78 786.006C1163.78 783.154 1163.26 781.858 1161.45 781.599H1160.67C1160.15 780.821 1160.15 779.524 1160.93 779.265C1165.34 779.005 1169.23 778.746 1172.86 778.746ZM1172.6 782.117C1170.01 782.117 1169.75 782.636 1169.75 783.673V790.154C1169.75 791.71 1170.01 791.71 1172.34 791.71C1174.67 791.969 1176.49 790.154 1176.75 788.08V787.562C1176.75 784.191 1175.19 782.117 1172.6 782.117ZM696.577 5.05762C696.577 -1.42412 700.207 -1.94268 701.244 5.05762C717.06 118.359 774.877 191.473 814.545 270.81C861.732 216.881 918.513 172.028 982.293 139.101C987.997 136.508 989.034 139.101 987.22 144.545C962.848 215.844 970.367 278.07 980.479 341.591C1039.85 328.627 1100.78 324.738 1161.19 329.924C1166.89 330.442 1167.41 331.998 1164.3 336.924C1129.3 392.926 1128.52 464.485 1092.22 546.674C1152.12 556.008 1210.45 572.601 1266.45 595.936C1271.38 597.75 1271.38 600.602 1265.16 600.861C1181.67 604.491 1058 739.571 912.809 739.571C789.17 739.571 716.665 655.603 699.482 564.065C689.705 582.6 671.921 595.459 651.347 599.011C681.507 603.906 704.722 629.654 706.17 661.012C706.17 713.903 654.575 731.016 639.019 770.943C637.722 773.795 637.463 776.388 635.13 776.388C632.797 776.388 632.278 773.536 631.241 770.943C615.944 731.016 564.09 713.903 564.09 661.012C564.09 629.804 588.394 605.015 619.752 599.152C598.687 595.788 580.453 582.682 570.587 563.697C553.537 655.377 481.251 739.571 357.191 739.571C212 739.571 88.0685 604.232 4.84277 600.861C-1.37936 600.861 -1.37915 598.01 3.54688 595.936C59.29 572.601 117.885 556.008 177.776 546.674C141.738 464.485 140.701 392.926 105.699 336.924C102.847 331.998 103.366 330.442 108.811 329.924C169.221 324.738 230.149 328.627 289.522 341.591C299.893 278.07 307.412 216.104 282.781 144.545C280.966 138.841 282.263 136.508 287.707 139.101C351.228 172.028 408.268 216.622 455.455 270.81C494.864 191.732 552.681 118.359 568.497 5.31738C569.534 -1.68292 573.164 -1.16438 573.164 5.31738V521.784C573.164 566.897 604.796 588.157 634.871 588.157C664.946 588.157 696.577 567.156 696.577 521.784V5.05762ZM1083.41 564.305C1034.15 662.568 950.921 711.052 866.399 711.052C832.689 711.052 799.913 700.542 772.504 680.854C801.813 707.94 845.922 725.83 900.363 725.83C1020.66 725.83 1116.34 619.529 1204.23 596.194C1165.34 581.416 1124.63 570.786 1083.41 564.305ZM186.592 564.305C145.368 570.786 104.921 581.416 65.7715 596.194C153.664 619.269 249.335 725.57 369.637 725.57C423.323 725.57 466.96 708.171 496.267 681.715C469.3 700.637 436.791 711.052 403.602 711.052C319.079 711.052 235.853 662.568 186.592 564.305ZM283.818 558.341C259.447 557.563 235.335 558.601 211.223 561.193C211.23 561.193 211.481 561.197 211.481 561.452C253.483 652.456 332.043 700.681 409.306 700.681C445.344 702.236 480.864 689.272 507.31 664.642C487.346 678.642 463.752 686.162 439.381 686.421C362.896 686.421 305.597 639.233 283.818 558.341ZM1058.78 561.193C1034.67 558.601 1010.29 557.563 986.183 558.341C964.404 639.233 907.105 686.421 830.62 686.421C806.508 685.902 782.655 678.383 762.691 664.642C789.396 689.272 824.657 702.236 860.695 700.681C937.958 700.681 1016.52 652.456 1058.52 561.452C1058.52 561.452 1058.78 561.452 1058.78 561.193ZM306.634 559.896C329.19 643.9 391.156 677.865 440.158 677.865C471.789 677.606 501.865 664.901 523.903 642.604C461.16 594.12 385.711 565.341 306.634 559.896ZM963.366 559.638C884.289 565.342 808.841 593.861 746.098 642.345C768.136 664.901 798.211 677.605 829.842 677.605C878.844 677.605 940.81 643.9 963.366 559.638ZM435.232 421.187C434.714 426.631 434.714 432.336 434.714 438.299C434.714 526.969 484.494 592.046 528.311 634.048C534.533 619.529 537.644 603.972 537.385 588.416C537.385 535.006 506.272 469.929 435.232 421.187ZM834.769 420.928C763.728 469.671 732.615 534.747 732.615 588.157C732.356 603.973 735.468 619.27 741.69 633.789C785.507 591.787 835.287 526.71 835.287 438.039C835.287 432.335 835.287 426.631 834.769 420.928ZM466.604 309.7C451.826 338.738 441.714 370.111 437.047 402.52C505.235 448.151 546.977 512.191 546.978 585.823C546.978 598.787 544.904 611.751 540.496 623.937C552.941 599.824 559.423 573.379 559.423 546.415C559.423 458.522 519.755 376.073 466.604 309.7ZM803.396 309.441C750.246 376.074 710.578 458.263 710.578 546.155C710.578 573.119 717.059 599.824 729.504 623.677C725.096 611.491 723.022 598.528 723.022 585.564C723.022 512.191 764.765 448.151 832.953 402.26C828.027 370.11 818.175 338.739 803.396 309.441ZM312.598 367.259C304.56 407.186 299.634 447.374 297.819 488.079C297.819 506.228 299.375 524.377 302.745 542.267C370.933 547.711 436.529 571.045 493.05 609.677C444.566 557.045 417.343 488.078 417.343 416.52C417.343 414.186 417.602 412.112 417.602 409.779C384.674 390.853 349.414 376.333 312.598 367.259ZM957.144 366.999C920.327 376.073 885.067 390.334 852.14 409.52C852.399 411.853 852.398 413.927 852.398 416.261C852.139 487.819 825.175 556.785 776.691 609.417C833.212 570.786 898.808 547.452 966.996 542.007C970.367 524.117 971.923 505.968 971.923 487.819C970.367 447.373 965.44 406.927 957.144 366.999ZM286.67 361.555C236.631 351.702 186.073 347.554 135.516 349.369C168.961 402.52 168.702 460.596 203.444 543.562C228.853 540.711 254.261 539.933 279.67 540.97C276.04 521.006 274.226 500.783 274.226 480.56C275.003 440.632 279.151 400.704 286.67 361.555ZM1134.49 349.109C1083.67 347.554 1033.11 351.702 983.33 361.295C990.849 400.445 994.998 440.373 995.775 480.301C996.035 500.524 994.22 520.747 990.331 540.711C1015.74 539.674 1041.15 540.711 1066.56 543.304C1101.3 460.337 1101.04 402.26 1134.49 349.109ZM559.164 112.941C541.114 185.493 503.591 237.718 474.382 293.366C515.864 344.345 544.82 403.995 559.164 467.904V112.941ZM710.578 467.904C724.939 403.995 754.127 344.345 795.359 293.366C766.151 237.971 728.629 185.51 710.578 112.946V467.904ZM311.561 177.473C329.969 233.475 324.524 291.293 315.709 347.813C351.747 357.666 386.23 371.925 418.639 390.593C422.268 354.814 432.122 319.813 447.678 287.145C408.787 243.328 362.896 206.252 311.561 177.473ZM958.44 177.473C907.364 205.992 861.214 243.328 822.323 287.145C837.879 319.812 847.732 354.814 851.361 390.593C883.77 371.925 918.253 357.666 954.292 347.813C945.477 291.552 940.032 233.475 958.44 177.473Z" fill="black"></path></svg> 