<?xml version="1.0" encoding="UTF-8"?> <svg xmlns="http://www.w3.org/2000/svg" xmlns:xlink="http://www.w3.org/1999/xlink" width="569px" height="110px" viewBox="0 0 569 110"> <title>1000м</title> <defs> <radialGradient cx="75.381116%" cy="-4.33877037%" fx="75.381116%" fy="-4.33877037%" r="237.333319%" gradientTransform="translate(0.753811,-0.043388),scale(0.192347,1.000000),rotate(-22.666175),scale(1.000000,0.891476),translate(-0.753811,0.043388)" id="radialGradient-1"> <stop stop-color="#F8F392" offset="0%"></stop> <stop stop-color="#AA6B08" offset="100%"></stop> </radialGradient> </defs> <g id="Page-1" stroke="none" stroke-width="1" fill="none" fill-rule="evenodd"> <g id="Artboard-Copy-33" transform="translate(-1462.000000, -690.000000)" fill="url(#radialGradient-1)" fill-rule="nonzero"> <path d="M1506.9209,798 L1529.40625,692.311523 L1498.35156,692.311523 C1498.35156,692.311523 1491.65337,696.22689 1484.55329,700.377178 L1483.6452,700.907994 L1483.6452,700.907994 L1482.73566,701.439662 C1475.30967,705.780454 1468.0293,710.036133 1468.0293,710.036133 L1462.38965,736.769531 C1462.38965,736.769531 1468.92604,732.967419 1475.85463,728.937181 L1476.74078,728.421719 L1476.74078,728.421719 L1477.62836,727.90543 L1477.62836,727.90543 L1478.51452,727.389968 C1485.4431,723.359729 1491.97949,719.557617 1491.97949,719.557617 L1492.56543,719.557617 L1475.86621,798 L1506.9209,798 Z M1608.50781,799.831055 C1640.51465,799.831055 1663.65918,771.706055 1663.65918,732.887695 C1663.65918,707.472656 1647.0332,690.480469 1622.05762,690.480469 C1590.12402,690.480469 1567.27246,718.3125 1567.27246,757.130859 C1567.27246,782.692383 1583.8252,799.831055 1608.50781,799.831055 Z M1609.75293,776.173828 C1602.42871,776.173828 1598.62012,769.362305 1598.62012,756.398438 C1598.62012,734.05957 1609.09375,714.137695 1620.88574,714.137695 C1628.42969,714.137695 1632.31152,720.802734 1632.31152,733.693359 C1632.31152,756.032227 1621.61816,776.173828 1609.75293,776.173828 Z M1714.85547,799.831055 C1746.8623,799.831055 1770.00684,771.706055 1770.00684,732.887695 C1770.00684,707.472656 1753.38086,690.480469 1728.40527,690.480469 C1696.47168,690.480469 1673.62012,718.3125 1673.62012,757.130859 C1673.62012,782.692383 1690.17285,799.831055 1714.85547,799.831055 Z M1716.10059,776.173828 C1708.77637,776.173828 1704.96777,769.362305 1704.96777,756.398438 C1704.96777,734.05957 1715.44141,714.137695 1727.2334,714.137695 C1734.77734,714.137695 1738.65918,720.802734 1738.65918,733.693359 C1738.65918,756.032227 1727.96582,776.173828 1716.10059,776.173828 Z M1821.20312,799.831055 C1853.20996,799.831055 1876.35449,771.706055 1876.35449,732.887695 C1876.35449,707.472656 1859.72852,690.480469 1834.75293,690.480469 C1802.81934,690.480469 1779.96777,718.3125 1779.96777,757.130859 C1779.96777,782.692383 1796.52051,799.831055 1821.20312,799.831055 Z M1822.44824,776.173828 C1815.12402,776.173828 1811.31543,769.362305 1811.31543,756.398438 C1811.31543,734.05957 1821.78906,714.137695 1833.58105,714.137695 C1841.125,714.137695 1845.00684,720.802734 1845.00684,733.693359 C1845.00684,756.032227 1834.31348,776.173828 1822.44824,776.173828 Z M1933.26367,798 L1944.03027,747.316406 L1945.27539,747.316406 L1951.79395,791.701172 L1971.12988,791.701172 L1996.47168,747.316406 L1997.79004,747.316406 L1987.02344,798 L2013.68359,798 L2030.89551,717.140625 L1992.44336,717.140625 L1968.71289,760.866211 L1967.24805,760.866211 L1962.34082,717.140625 L1923.81543,717.140625 L1906.60352,798 L1933.26367,798 Z" id="1000м"></path> </g> </g> </svg> 