<?xml version="1.0" encoding="UTF-8"?> <svg xmlns="http://www.w3.org/2000/svg" xmlns:xlink="http://www.w3.org/1999/xlink" width="72px" height="7px" viewBox="0 0 72 7"> <!-- Generator: Sketch 51.2 (57519) - http://www.bohemiancoding.com/sketch --> <title>MAHABHAVA</title> <desc>Created with Sketch.</desc> <defs></defs> <g id="Page-1" stroke="none" stroke-width="1" fill="none" fill-rule="evenodd"> <g id="Artboard-Copy-10" transform="translate(-216.000000, -681.000000)" fill="#919195"> <path d="M222.074577,687.275917 L221.016701,687.275917 L221.016701,683.44554 L220.98524,683.44554 L219.443651,687.22086 L218.696453,687.22086 L217.154864,683.44554 L217.123403,683.44554 L217.123403,687.275917 L216.065527,687.275917 L216.065527,681.60114 L217.441946,681.60114 L219.054322,685.624214 L219.085783,685.624214 L220.698159,681.60114 L222.074577,681.60114 L222.074577,687.275917 Z M229.419409,687.275917 L228.98682,685.899498 L226.992979,685.899498 L226.560391,687.275917 L225.341277,687.275917 L227.311522,681.60114 L228.707604,681.60114 L230.681781,687.275917 L229.419409,687.275917 Z M227.976135,682.686544 L227.2486,685.010725 L228.731199,685.010725 L228.003664,682.686544 L227.976135,682.686544 Z M238.876059,687.275917 L237.688407,687.275917 L237.688407,684.884881 L235.132201,684.884881 L235.132201,687.275917 L233.944548,687.275917 L233.944548,681.60114 L235.132201,681.60114 L235.132201,683.905657 L237.688407,683.905657 L237.688407,681.60114 L238.876059,681.60114 L238.876059,687.275917 Z M246.220891,687.275917 L245.788302,685.899498 L243.794462,685.899498 L243.361873,687.275917 L242.142759,687.275917 L244.113004,681.60114 L245.509086,681.60114 L247.483263,687.275917 L246.220891,687.275917 Z M244.777618,682.686544 L244.050082,685.010725 L245.532682,685.010725 L244.805146,682.686544 L244.777618,682.686544 Z M253.258978,687.275917 L250.746031,687.275917 L250.746031,681.60114 L253.215719,681.60114 C254.28146,681.60114 254.950006,682.147774 254.950006,683.016884 C254.950006,683.638239 254.485956,684.157345 253.884265,684.247796 L253.884265,684.279257 C254.655059,684.338246 255.221357,684.900611 255.221357,685.651743 C255.221357,686.650629 254.470226,687.275917 253.258978,687.275917 Z M251.933683,682.48598 L251.933683,683.960714 L252.787063,683.960714 C253.420215,683.960714 253.782017,683.681498 253.782017,683.201718 C253.782017,682.745533 253.463474,682.48598 252.908974,682.48598 L251.933683,682.48598 Z M251.933683,686.391076 L252.956166,686.391076 C253.640442,686.391076 254.010109,686.100062 254.010109,685.55736 C254.010109,685.026455 253.628644,684.743306 252.928637,684.743306 L251.933683,684.743306 L251.933683,686.391076 Z M263.513951,687.275917 L262.326299,687.275917 L262.326299,684.884881 L259.770093,684.884881 L259.770093,687.275917 L258.58244,687.275917 L258.58244,681.60114 L259.770093,681.60114 L259.770093,683.905657 L262.326299,683.905657 L262.326299,681.60114 L263.513951,681.60114 L263.513951,687.275917 Z M270.858783,687.275917 L270.426194,685.899498 L268.432353,685.899498 L267.999765,687.275917 L266.780651,687.275917 L268.750896,681.60114 L270.146978,681.60114 L272.121155,687.275917 L270.858783,687.275917 Z M269.41551,682.686544 L268.687974,685.010725 L270.170573,685.010725 L269.443038,682.686544 L269.41551,682.686544 Z M277.751362,687.275917 L276.319887,687.275917 L274.412564,681.60114 L275.741791,681.60114 L277.039557,686.05287 L277.067086,686.05287 L278.364852,681.60114 L279.658685,681.60114 L277.751362,687.275917 Z M286.028226,687.275917 L285.595637,685.899498 L283.601797,685.899498 L283.169208,687.275917 L281.950094,687.275917 L283.920339,681.60114 L285.316421,681.60114 L287.290598,687.275917 L286.028226,687.275917 Z M284.584953,682.686544 L283.857417,685.010725 L285.340017,685.010725 L284.612481,682.686544 L284.584953,682.686544 Z" id="MAHABHAVA"></path> </g> </g> </svg> 