<?xml version="1.0" encoding="UTF-8"?> <svg xmlns="http://www.w3.org/2000/svg" xmlns:xlink="http://www.w3.org/1999/xlink" width="512px" height="256px" viewBox="0 0 512 256"> <!-- Generator: Sketch 51.2 (57519) - http://www.bohemiancoding.com/sketch --> <title>Combined Shape</title> <desc>Created with Sketch.</desc> <defs></defs> <g id="Page-1" stroke="none" stroke-width="1" fill="none" fill-rule="evenodd"> <path d="M263.38,253.039 C259.255,256.977 252.755,256.977 248.63,253.039 L3.297,18.372 C1.109,16.268 0.005,13.477 0.005,10.664 C0.005,8.018 0.984,5.352 2.963,3.289 C7.036,-0.961 13.786,-1.107 18.046,2.956 L256.005,230.56 L493.963,2.957 C498.223,-1.106 504.973,-0.96 509.046,3.29 C513.13,7.54 512.942,14.29 508.713,18.373 L263.38,253.039 Z M260.324219,148.265039 C257.907226,150.572461 254.098633,150.572461 251.68164,148.265039 L107.931836,10.764843 C106.649805,9.532031 106.00293,7.896679 106.00293,6.248437 C106.00293,4.698047 106.576562,3.135937 107.736133,1.927148 C110.122656,-0.563086 114.077734,-0.648633 116.573828,1.732031 L256.00293,135.09375 L395.431445,1.732617 C397.927539,-0.648047 401.882617,-0.5625 404.26914,1.927734 C406.662109,4.417968 406.551953,8.373047 404.074023,10.765429 L260.324219,148.265039 Z" id="Combined-Shape" fill="#888888" fill-rule="nonzero"></path> </g> </svg> 