<?xml version="1.0" encoding="UTF-8"?> <svg xmlns="http://www.w3.org/2000/svg" width="1846" height="439" viewBox="0 0 1846 439" fill="none"><path d="M230.727 58H225.375V6.47656H206.781V1.63281H249.359V6.47656H230.727V58ZM315.75 58H310.398V31.5547H277.43V58H272.117V1.63281H277.43V26.7109H310.398V1.63281H315.75V58ZM376.359 53.1562V58H342.336V1.63281H376.359V6.47656H347.648V26.75H374.914V31.5156H347.648V53.1562H376.359ZM439.18 58H433.867V1.63281H439.18V58ZM471 58H465.727V1.63281H471L504.047 48.7031H504.32V1.63281H509.594V58H504.438L471.273 10.8906H471V58ZM556.336 58H550.984V6.47656H532.391V1.63281H574.969V6.47656H556.336V58ZM631.75 53.1562V58H597.727V1.63281H631.75V6.47656H603.039V26.75H630.305V31.5156H603.039V53.1562H631.75ZM662.164 6.39844V30.1875H676.305C684.508 30.1875 689.273 25.8125 689.273 18.2734C689.273 10.8125 684.312 6.39844 676.109 6.39844H662.164ZM662.164 34.9141V58H656.852V1.63281H676.734C687.75 1.63281 694.781 8.07812 694.781 18.1172C694.781 26.0859 690.25 32.1016 682.711 34.0547L696.383 58H690.133L677.164 34.9141C676.969 34.9141 676.578 34.9141 676.305 34.9141H662.164ZM724.766 58H719.492V1.63281H724.766L757.812 48.7031H758.086V1.63281H763.359V58H758.203L725.039 10.8906H724.766V58ZM827.406 58L821.156 40.7344H797.484L791.234 58H785.57L806.664 1.63281H811.977L833.031 58H827.406ZM809.203 8.23438L799.086 36.125H819.555L809.438 8.23438H809.203ZM867.43 58H862.078V6.47656H843.484V1.63281H886.062V6.47656H867.43V58ZM914.133 58H908.82V1.63281H914.133V58ZM964 0.734375C979.703 0.734375 989.625 11.9844 989.625 29.8359C989.625 47.6875 979.742 58.8984 964 58.8984C948.297 58.8984 938.414 47.6875 938.414 29.8359C938.414 11.9844 948.297 0.734375 964 0.734375ZM964 5.69531C951.656 5.69531 943.883 15.0312 943.883 29.8359C943.883 44.6016 951.656 53.9375 964 53.9375C976.344 53.9375 984.156 44.6016 984.156 29.8359C984.156 15.0312 976.344 5.69531 964 5.69531ZM1019.22 58H1013.95V1.63281H1019.22L1052.27 48.7031H1052.54V1.63281H1057.81V58H1052.66L1019.49 10.8906H1019.22V58ZM1121.86 58L1115.61 40.7344H1091.94L1085.69 58H1080.02L1101.12 1.63281H1106.43L1127.48 58H1121.86ZM1103.66 8.23438L1093.54 36.125H1114.01L1103.89 8.23438H1103.66ZM1183.25 53.1562V58H1149.7V1.63281H1155.01V53.1562H1183.25ZM1236.46 42.6875H1241.81C1242.4 49.4453 1248.77 54.0547 1257.59 54.0547C1266.03 54.0547 1272.09 49.4453 1272.09 43.1172C1272.09 37.8438 1268.45 34.7188 1260.09 32.6094L1253.1 30.8125C1242.67 28.1562 1238.02 23.7422 1238.02 16.3203C1238.02 7.21875 1246.23 0.734375 1257.32 0.734375C1268.3 0.734375 1276.34 7.21875 1276.66 16.1641H1271.3C1270.8 9.79688 1265.17 5.57812 1257.16 5.57812C1249.35 5.57812 1243.57 9.91406 1243.57 16.125C1243.57 20.9688 1247.09 23.8203 1255.37 25.9297L1261.46 27.4922C1272.79 30.3438 1277.55 34.6797 1277.55 42.5312C1277.55 52.4141 1269.59 58.8984 1257.12 58.8984C1245.33 58.8984 1237.05 52.375 1236.46 42.6875ZM1324.69 0.734375C1340.39 0.734375 1350.31 11.9844 1350.31 29.8359C1350.31 47.6875 1340.43 58.8984 1324.69 58.8984C1308.98 58.8984 1299.1 47.6875 1299.1 29.8359C1299.1 11.9844 1308.98 0.734375 1324.69 0.734375ZM1324.69 5.69531C1312.34 5.69531 1304.57 15.0312 1304.57 29.8359C1304.57 44.6016 1312.34 53.9375 1324.69 53.9375C1337.03 53.9375 1344.84 44.6016 1344.84 29.8359C1344.84 15.0312 1337.03 5.69531 1324.69 5.69531ZM1397.48 58.8984C1382.13 58.8984 1372.37 47.5312 1372.37 29.6797C1372.37 12.0234 1382.17 0.734375 1397.48 0.734375C1409.4 0.734375 1418.81 8.50781 1420.34 19.5234H1414.98C1413.42 11.3984 1406.23 5.69531 1397.48 5.69531C1385.53 5.69531 1377.84 15.0312 1377.84 29.6797C1377.84 44.5234 1385.53 53.9375 1397.52 53.9375C1406.51 53.9375 1413.3 49.1328 1414.98 41.3203H1420.34C1418.34 52.2969 1409.71 58.8984 1397.48 58.8984ZM1449.54 58H1444.23V1.63281H1449.54V58ZM1510.11 53.1562V58H1476.09V1.63281H1510.11V6.47656H1481.4V26.75H1508.66V31.5156H1481.4V53.1562H1510.11ZM1555.37 58H1550.02V6.47656H1531.42V1.63281H1574V6.47656H1555.37V58ZM1618.12 58H1612.77V33.625L1592.58 1.63281H1598.67L1615.35 28.3906H1615.55L1632.23 1.63281H1638.32L1618.12 33.625V58ZM181.039 153H175.727V96.6328H209.164V101.477H181.039V122.648H206.898V127.414H181.039V153ZM256.531 95.7344C272.234 95.7344 282.156 106.984 282.156 124.836C282.156 142.688 272.273 153.898 256.531 153.898C240.828 153.898 230.945 142.688 230.945 124.836C230.945 106.984 240.828 95.7344 256.531 95.7344ZM256.531 100.695C244.188 100.695 236.414 110.031 236.414 124.836C236.414 139.602 244.188 148.938 256.531 148.938C268.875 148.938 276.688 139.602 276.688 124.836C276.688 110.031 268.875 100.695 256.531 100.695ZM311.789 101.398V125.188H325.93C334.133 125.188 338.898 120.812 338.898 113.273C338.898 105.812 333.938 101.398 325.734 101.398H311.789ZM311.789 129.914V153H306.477V96.6328H326.359C337.375 96.6328 344.406 103.078 344.406 113.117C344.406 121.086 339.875 127.102 332.336 129.055L346.008 153H339.758L326.789 129.914C326.594 129.914 326.203 129.914 325.93 129.914H311.789ZM406.836 153H401.523V96.6328H406.836V125.852H407.148L433.945 96.6328H440.703L417.539 121.555L443.008 153H436.172L413.789 125.344L406.836 132.883V153ZM470.102 101.398V125.188H484.242C492.445 125.188 497.211 120.812 497.211 113.273C497.211 105.812 492.25 101.398 484.047 101.398H470.102ZM470.102 129.914V153H464.789V96.6328H484.672C495.688 96.6328 502.719 103.078 502.719 113.117C502.719 121.086 498.188 127.102 490.648 129.055L504.32 153H498.07L485.102 129.914C484.906 129.914 484.516 129.914 484.242 129.914H470.102ZM532.742 153H527.43V96.6328H532.742V153ZM556.555 137.688H561.906C562.492 144.445 568.859 149.055 577.688 149.055C586.125 149.055 592.18 144.445 592.18 138.117C592.18 132.844 588.547 129.719 580.188 127.609L573.195 125.812C562.766 123.156 558.117 118.742 558.117 111.32C558.117 102.219 566.32 95.7344 577.414 95.7344C588.391 95.7344 596.438 102.219 596.75 111.164H591.398C590.891 104.797 585.266 100.578 577.258 100.578C569.445 100.578 563.664 104.914 563.664 111.125C563.664 115.969 567.18 118.82 575.461 120.93L581.555 122.492C592.883 125.344 597.648 129.68 597.648 137.531C597.648 147.414 589.68 153.898 577.219 153.898C565.422 153.898 557.141 147.375 556.555 137.688ZM665.094 153H659.742V126.555H626.773V153H621.461V96.6328H626.773V121.711H659.742V96.6328H665.094V153ZM696.953 153H691.68V96.6328H696.953L730 143.703H730.273V96.6328H735.547V153H730.391L697.227 105.891H696.953V153ZM799.594 153L793.344 135.734H769.672L763.422 153H757.758L778.852 96.6328H784.164L805.219 153H799.594ZM781.391 103.234L771.273 131.125H791.742L781.625 103.234H781.391ZM882.688 153.898C867.336 153.898 857.57 142.531 857.57 124.68C857.57 107.023 867.375 95.7344 882.688 95.7344C894.602 95.7344 904.016 103.508 905.539 114.523H900.188C898.625 106.398 891.438 100.695 882.688 100.695C870.734 100.695 863.039 110.031 863.039 124.68C863.039 139.523 870.734 148.938 882.727 148.938C891.711 148.938 898.508 144.133 900.188 136.32H905.539C903.547 147.297 894.914 153.898 882.688 153.898ZM952.75 95.7344C968.453 95.7344 978.375 106.984 978.375 124.836C978.375 142.688 968.492 153.898 952.75 153.898C937.047 153.898 927.164 142.688 927.164 124.836C927.164 106.984 937.047 95.7344 952.75 95.7344ZM952.75 100.695C940.406 100.695 932.633 110.031 932.633 124.836C932.633 139.602 940.406 148.938 952.75 148.938C965.094 148.938 972.906 139.602 972.906 124.836C972.906 110.031 965.094 100.695 952.75 100.695ZM1007.97 153H1002.7V96.6328H1007.97L1041.02 143.703H1041.29V96.6328H1046.56V153H1041.41L1008.24 105.891H1007.97V153ZM1070.41 137.688H1075.77C1076.35 144.445 1082.72 149.055 1091.55 149.055C1099.98 149.055 1106.04 144.445 1106.04 138.117C1106.04 132.844 1102.41 129.719 1094.05 127.609L1087.05 125.812C1076.62 123.156 1071.98 118.742 1071.98 111.32C1071.98 102.219 1080.18 95.7344 1091.27 95.7344C1102.25 95.7344 1110.3 102.219 1110.61 111.164H1105.26C1104.75 104.797 1099.12 100.578 1091.12 100.578C1083.3 100.578 1077.52 104.914 1077.52 111.125C1077.52 115.969 1081.04 118.82 1089.32 120.93L1095.41 122.492C1106.74 125.344 1111.51 129.68 1111.51 137.531C1111.51 147.414 1103.54 153.898 1091.08 153.898C1079.28 153.898 1071 147.375 1070.41 137.688ZM1158.17 153.898C1142.82 153.898 1133.05 142.531 1133.05 124.68C1133.05 107.023 1142.86 95.7344 1158.17 95.7344C1170.09 95.7344 1179.5 103.508 1181.02 114.523H1175.67C1174.11 106.398 1166.92 100.695 1158.17 100.695C1146.22 100.695 1138.52 110.031 1138.52 124.68C1138.52 139.523 1146.22 148.938 1158.21 148.938C1167.2 148.938 1173.99 144.133 1175.67 136.32H1181.02C1179.03 147.297 1170.4 153.898 1158.17 153.898ZM1210.23 153H1204.91V96.6328H1210.23V153ZM1260.09 95.7344C1275.8 95.7344 1285.72 106.984 1285.72 124.836C1285.72 142.688 1275.84 153.898 1260.09 153.898C1244.39 153.898 1234.51 142.688 1234.51 124.836C1234.51 106.984 1244.39 95.7344 1260.09 95.7344ZM1260.09 100.695C1247.75 100.695 1239.98 110.031 1239.98 124.836C1239.98 139.602 1247.75 148.938 1260.09 148.938C1272.44 148.938 1280.25 139.602 1280.25 124.836C1280.25 110.031 1272.44 100.695 1260.09 100.695ZM1315.35 96.6328V133C1315.35 142.453 1321.52 148.938 1331.84 148.938C1342.19 148.938 1348.32 142.453 1348.32 133V96.6328H1353.67V133.312C1353.67 145.461 1345.39 153.898 1331.84 153.898C1318.28 153.898 1310.04 145.461 1310.04 133.312V96.6328H1315.35ZM1377.45 137.688H1382.8C1383.38 144.445 1389.75 149.055 1398.58 149.055C1407.02 149.055 1413.07 144.445 1413.07 138.117C1413.07 132.844 1409.44 129.719 1401.08 127.609L1394.09 125.812C1383.66 123.156 1379.01 118.742 1379.01 111.32C1379.01 102.219 1387.21 95.7344 1398.3 95.7344C1409.28 95.7344 1417.33 102.219 1417.64 111.164H1412.29C1411.78 104.797 1406.16 100.578 1398.15 100.578C1390.34 100.578 1384.55 104.914 1384.55 111.125C1384.55 115.969 1388.07 118.82 1396.35 120.93L1402.45 122.492C1413.77 125.344 1418.54 129.68 1418.54 137.531C1418.54 147.414 1410.57 153.898 1398.11 153.898C1386.31 153.898 1378.03 147.375 1377.45 137.688ZM1447.62 153H1442.35V96.6328H1447.62L1480.67 143.703H1480.95V96.6328H1486.22V153H1481.06L1447.9 105.891H1447.62V153ZM1546.83 148.156V153H1512.8V96.6328H1546.83V101.477H1518.12V121.75H1545.38V126.516H1518.12V148.156H1546.83ZM1568.34 137.688H1573.69C1574.27 144.445 1580.64 149.055 1589.47 149.055C1597.91 149.055 1603.96 144.445 1603.96 138.117C1603.96 132.844 1600.33 129.719 1591.97 127.609L1584.98 125.812C1574.55 123.156 1569.9 118.742 1569.9 111.32C1569.9 102.219 1578.1 95.7344 1589.2 95.7344C1600.17 95.7344 1608.22 102.219 1608.53 111.164H1603.18C1602.67 104.797 1597.05 100.578 1589.04 100.578C1581.23 100.578 1575.45 104.914 1575.45 111.125C1575.45 115.969 1578.96 118.82 1587.24 120.93L1593.34 122.492C1604.66 125.344 1609.43 129.68 1609.43 137.531C1609.43 147.414 1601.46 153.898 1589 153.898C1577.2 153.898 1568.92 147.375 1568.34 137.688ZM1630.51 137.688H1635.86C1636.45 144.445 1642.81 149.055 1651.64 149.055C1660.08 149.055 1666.13 144.445 1666.13 138.117C1666.13 132.844 1662.5 129.719 1654.14 127.609L1647.15 125.812C1636.72 123.156 1632.07 118.742 1632.07 111.32C1632.07 102.219 1640.27 95.7344 1651.37 95.7344C1662.34 95.7344 1670.39 102.219 1670.7 111.164H1665.35C1664.84 104.797 1659.22 100.578 1651.21 100.578C1643.4 100.578 1637.62 104.914 1637.62 111.125C1637.62 115.969 1641.13 118.82 1649.41 120.93L1655.51 122.492C1666.84 125.344 1671.6 129.68 1671.6 137.531C1671.6 147.414 1663.63 153.898 1651.17 153.898C1639.38 153.898 1631.09 147.375 1630.51 137.688ZM9.25 248H0.5V191.633H35.6953V199.172H9.25V217.023H33.4688V224.406H9.25V248ZM83.6875 190.695C99.8984 190.695 110.094 201.906 110.094 219.836C110.094 237.766 99.8984 248.938 83.6875 248.938C67.4375 248.938 57.2812 237.766 57.2812 219.836C57.2812 201.906 67.4375 190.695 83.6875 190.695ZM83.6875 198.391C72.9844 198.391 66.2266 206.672 66.2266 219.836C66.2266 232.961 72.9844 241.242 83.6875 241.242C94.3906 241.242 101.109 232.961 101.109 219.836C101.109 206.672 94.3906 198.391 83.6875 198.391ZM143.203 191.633V227.453C143.203 235.5 148.281 241.164 157.266 241.164C166.25 241.164 171.367 235.5 171.367 227.453V191.633H180.078V228.195C180.078 240.344 171.406 248.938 157.266 248.938C143.125 248.938 134.453 240.344 134.453 228.195V191.633H143.203ZM214.984 248H206.469V191.633H214.398L243.617 233.195H243.93V191.633H252.445V248H244.555L215.336 206.477H214.984V248ZM278.875 191.633H298.758C315.516 191.633 325.438 201.945 325.438 219.719C325.438 237.531 315.555 248 298.758 248H278.875V191.633ZM287.625 199.172V240.422H297.938C309.891 240.422 316.492 233.117 316.492 219.797C316.492 206.516 309.852 199.172 297.938 199.172H287.625ZM385.578 240.422V248H349.797V191.633H385.578V199.172H358.547V215.656H384.133V222.922H358.547V240.422H385.578ZM419.312 198.977V219.25H431.578C438.336 219.25 442.203 215.539 442.203 209.094C442.203 202.805 438.102 198.977 431.344 198.977H419.312ZM419.312 226.32V248H410.562V191.633H432.398C444 191.633 451.227 198.352 451.227 208.859C451.227 216.477 447.164 222.648 440.289 224.953L452.906 248H442.828L431.344 226.32H419.312ZM500.664 228.938H475.039V221.32H500.664V228.938ZM561.703 248L556.547 232.766H535.062L529.906 248H520.805L541.156 191.633H550.609L570.961 248H561.703ZM545.688 201.008L537.289 225.734H554.32L545.922 201.008H545.688ZM549.75 187.102H542.68L551.352 175.578H560.023L549.75 187.102ZM614.93 248.938C599.109 248.938 589.109 237.766 589.109 219.797C589.109 201.945 599.188 190.695 614.93 190.695C627.703 190.695 637.352 198.547 638.836 210.305H630.164C628.602 203.078 622.586 198.352 614.93 198.352C604.695 198.352 598.055 206.75 598.055 219.797C598.055 232.961 604.617 241.281 614.969 241.281C622.82 241.281 628.406 237.258 630.164 230.461H638.875C636.727 242.102 627.898 248.938 614.93 248.938ZM698.781 248L693.625 232.766H672.141L666.984 248H657.883L678.234 191.633H687.688L708.039 248H698.781ZM682.766 201.008L674.367 225.734H691.398L683 201.008H682.766ZM686.828 187.102H679.758L688.43 175.578H697.102L686.828 187.102ZM739 198.977V219.25H751.266C758.023 219.25 761.891 215.539 761.891 209.094C761.891 202.805 757.789 198.977 751.031 198.977H739ZM739 226.32V248H730.25V191.633H752.086C763.688 191.633 770.914 198.352 770.914 208.859C770.914 216.477 766.852 222.648 759.977 224.953L772.594 248H762.516L751.031 226.32H739ZM819.336 248H810.586V224.914L790.742 191.633H800.508L814.883 216.516H815.156L829.531 191.633H839.219L819.336 224.914V248ZM890.844 248L885.688 232.766H864.203L859.047 248H849.945L870.297 191.633H879.75L900.102 248H890.844ZM874.828 201.008L866.43 225.734H883.461L875.062 201.008H874.828ZM1001.01 248H992.258V223.039H963.312V248H954.562V191.633H963.312V215.461H992.258V191.633H1001.01V248ZM1036.11 248H1027.36V191.633H1036.11V248ZM1060 232.297H1068.63C1069.26 237.883 1074.69 241.555 1082.11 241.555C1089.22 241.555 1094.34 237.883 1094.34 232.844C1094.34 228.469 1091.25 225.852 1083.95 224.055L1076.64 222.297C1066.29 219.797 1061.48 214.953 1061.48 207.102C1061.48 197.375 1069.96 190.695 1081.99 190.695C1093.91 190.695 1102.07 197.375 1102.34 207.102H1093.83C1093.32 201.477 1088.67 198.078 1081.88 198.078C1075.08 198.078 1070.43 201.516 1070.43 206.516C1070.43 210.5 1073.4 212.844 1080.66 214.641L1086.88 216.164C1098.44 218.898 1103.24 223.547 1103.24 231.789C1103.24 242.336 1094.84 248.938 1081.48 248.938C1068.98 248.938 1060.55 242.492 1060 232.297ZM1159.34 191.633H1179.23C1195.98 191.633 1205.91 201.945 1205.91 219.719C1205.91 237.531 1196.02 248 1179.23 248H1159.34V191.633ZM1168.09 199.172V240.422H1178.41C1190.36 240.422 1196.96 233.117 1196.96 219.797C1196.96 206.516 1190.32 199.172 1178.41 199.172H1168.09ZM1239.02 248H1230.27V191.633H1239.02V248ZM1290.91 248H1281.34L1261.23 191.633H1270.72L1286.07 238.156H1286.3L1301.7 191.633H1311.03L1290.91 248ZM1342.03 248H1333.28V191.633H1342.03V248ZM1376.94 248H1368.42V191.633H1376.35L1405.57 233.195H1405.88V191.633H1414.4V248H1406.51L1377.29 206.477H1376.94V248ZM1476.61 240.422V248H1440.83V191.633H1476.61V199.172H1449.58V215.656H1475.16V222.922H1449.58V240.422H1476.61ZM1582.4 224.562C1582.4 239.836 1573.38 248.938 1558.1 248.938C1541.97 248.938 1531.81 237.648 1531.81 219.562C1531.81 201.789 1541.93 190.695 1557.98 190.695C1570.52 190.695 1580.02 198.117 1581.97 209.367H1572.98C1570.88 202.375 1565.37 198.352 1558.02 198.352C1547.24 198.352 1540.76 206.242 1540.76 219.484C1540.76 232.961 1547.44 241.281 1558.18 241.281C1567.32 241.281 1573.65 235.422 1573.77 226.867V225.891H1559.2V218.82H1582.4V224.562ZM1615.7 198.977V219.25H1627.97C1634.73 219.25 1638.59 215.539 1638.59 209.094C1638.59 202.805 1634.49 198.977 1627.73 198.977H1615.7ZM1615.7 226.32V248H1606.95V191.633H1628.79C1640.39 191.633 1647.62 198.352 1647.62 208.859C1647.62 216.477 1643.55 222.648 1636.68 224.953L1649.3 248H1639.22L1627.73 226.32H1615.7ZM1708.81 248L1703.66 232.766H1682.17L1677.02 248H1667.91L1688.27 191.633H1697.72L1718.07 248H1708.81ZM1692.8 201.008L1684.4 225.734H1701.43L1693.03 201.008H1692.8ZM1762.04 248.938C1746.22 248.938 1736.22 237.766 1736.22 219.797C1736.22 201.945 1746.3 190.695 1762.04 190.695C1774.81 190.695 1784.46 198.547 1785.95 210.305H1777.27C1775.71 203.078 1769.7 198.352 1762.04 198.352C1751.8 198.352 1745.16 206.75 1745.16 219.797C1745.16 232.961 1751.73 241.281 1762.08 241.281C1769.93 241.281 1775.52 237.258 1777.27 230.461H1785.98C1783.84 242.102 1775.01 248.938 1762.04 248.938ZM1845.66 240.422V248H1809.88V191.633H1845.66V199.172H1818.62V215.656H1844.21V222.922H1818.62V240.422H1845.66ZM216.227 343L212.672 330.617H194.234L190.641 343H176.031L194.977 286.633H212.516L231.461 343H216.227ZM203.297 298.586L197.008 320.305H209.859L203.609 298.586H203.297ZM260.234 343.508C256.211 343.508 253.008 340.266 253.008 336.242C253.008 332.219 256.211 328.977 260.234 328.977C264.258 328.977 267.5 332.219 267.5 336.242C267.5 340.266 264.258 343.508 260.234 343.508ZM314.789 343.977C297.914 343.977 287.406 333.234 287.406 314.797C287.406 296.398 297.992 285.656 314.789 285.656C329.047 285.656 339.867 294.836 340.297 308.156H326.508C325.805 301.516 321.078 297.141 314.789 297.141C306.977 297.141 302.016 303.82 302.016 314.758C302.016 325.812 306.938 332.492 314.828 332.492C321.117 332.492 325.688 328.352 326.586 321.75H340.375C339.711 335.148 329.32 343.977 314.789 343.977ZM368.641 343.508C364.617 343.508 361.414 340.266 361.414 336.242C361.414 332.219 364.617 328.977 368.641 328.977C372.664 328.977 375.906 332.219 375.906 336.242C375.906 340.266 372.664 343.508 368.641 343.508ZM453.883 343H426.969V286.633H453.18C464.273 286.633 470.953 291.984 470.953 300.695C470.953 307.023 466.188 312.062 459.938 312.922V313.234C467.555 313.586 473.57 319.25 473.57 326.75C473.57 336.633 465.953 343 453.883 343ZM441.305 296.789V309.602H448.688C453.883 309.602 457.008 307.141 457.008 303.078C457.008 299.133 454.195 296.789 449.391 296.789H441.305ZM441.305 332.844H449.82C455.719 332.844 459 330.266 459 325.5C459 320.891 455.641 318.312 449.742 318.312H441.305V332.844ZM546.719 343H532.422V320.305H509.961V343H495.625V286.633H509.961V308.742H532.422V286.633H546.719V343ZM608.383 343L604.828 330.617H586.391L582.797 343H568.188L587.133 286.633H604.672L623.617 343H608.383ZM595.453 298.586L589.164 320.305H602.016L595.766 298.586H595.453ZM659.383 343H645.047V286.633H659.383V311.398H659.695L678.875 286.633H694.266L674.617 311.672L695.398 343H678.562L664.188 320.969L659.383 327.062V343ZM743.195 343H728.898V298.195H713.352V286.633H758.742V298.195H743.195V343ZM795.133 343H780.797V286.633H795.133V343ZM852.578 343H834.531L816.562 286.633H832.852L843.711 328.977H844.023L854.844 286.633H870.547L852.578 343ZM930.57 331.438V343H891.938V286.633H930.57V298.195H906.273V309.406H929.125V319.953H906.273V331.438H930.57ZM954.656 286.633H977.547C994.578 286.633 1004.58 296.516 1004.58 314.484C1004.58 332.492 994.539 343 977.547 343H954.656V286.633ZM968.992 298.195V331.438H975.672C985.008 331.438 990.008 325.773 990.008 314.523C990.008 303.938 984.734 298.195 975.672 298.195H968.992ZM1061.79 343L1058.23 330.617H1039.8L1036.2 343H1021.59L1040.54 286.633H1058.08L1077.02 343H1061.79ZM1048.86 298.586L1042.57 320.305H1055.42L1049.17 298.586H1048.86ZM1112.05 343H1098.45V286.633H1109.9L1133.8 319.406H1134.12V286.633H1147.71V343H1136.38L1112.36 309.914H1112.05V343ZM1199.65 343H1185.35V298.195H1169.8V286.633H1215.2V298.195H1199.65V343ZM1266.82 343L1263.27 330.617H1244.83L1241.23 343H1226.62L1245.57 286.633H1263.11L1282.05 343H1266.82ZM1253.89 298.586L1247.6 320.305H1260.45L1254.2 298.586H1253.89ZM1333.23 326.672H1346.87C1347.38 330.539 1351.71 333.117 1357.02 333.117C1362.61 333.117 1366.24 330.617 1366.24 327.219C1366.24 324.094 1363.86 322.57 1357.45 321.242L1350.07 319.797C1339.68 317.805 1334.33 312.18 1334.33 303.625C1334.33 292.688 1343.7 285.656 1356.75 285.656C1370.85 285.656 1379.17 292.492 1379.33 303.078H1366.12C1365.85 298.977 1362.06 296.516 1356.91 296.516C1351.91 296.516 1348.59 298.781 1348.59 302.219C1348.59 305.266 1351.09 306.945 1356.98 308.156L1364.29 309.523C1375.42 311.672 1380.42 316.711 1380.42 325.617C1380.42 336.828 1371.16 343.977 1356.63 343.977C1342.26 343.977 1333.39 337.609 1333.23 326.672ZM1437.28 307.805L1427.79 343H1414.27L1399.55 286.633H1414.35L1421.97 324.719H1422.28L1431.7 286.633H1443.18L1452.59 324.719H1452.91L1460.52 286.633H1475.33L1460.6 343H1447.09L1437.59 307.805H1437.28ZM1528.87 343L1525.31 330.617H1506.88L1503.28 343H1488.67L1507.62 286.633H1525.16L1544.1 343H1528.87ZM1515.94 298.586L1509.65 320.305H1522.5L1516.25 298.586H1515.94ZM1627.41 343H1614.79V307.805H1614.52L1600.57 342.414H1592.37L1578.46 307.805H1578.15V343H1565.53V286.633H1582.09L1596.31 322.844H1596.62L1610.84 286.633H1627.41V343ZM1666.26 343H1651.92V286.633H1666.26V343ZM387.336 421.672H400.969C401.477 425.539 405.812 428.117 411.125 428.117C416.711 428.117 420.344 425.617 420.344 422.219C420.344 419.094 417.961 417.57 411.555 416.242L404.172 414.797C393.781 412.805 388.43 407.18 388.43 398.625C388.43 387.688 397.805 380.656 410.852 380.656C424.953 380.656 433.273 387.492 433.43 398.078H420.227C419.953 393.977 416.164 391.516 411.008 391.516C406.008 391.516 402.688 393.781 402.688 397.219C402.688 400.266 405.188 401.945 411.086 403.156L418.391 404.523C429.523 406.672 434.523 411.711 434.523 420.617C434.523 431.828 425.266 438.977 410.734 438.977C396.359 438.977 387.492 432.609 387.336 421.672ZM508.336 438H494.039V415.305H471.578V438H457.242V381.633H471.578V403.742H494.039V381.633H508.336V438ZM547.266 392.453V408.469H555.664C560.938 408.469 564.062 405.383 564.062 400.5C564.062 395.695 560.742 392.453 555.625 392.453H547.266ZM547.266 418.273V438H532.93V381.633H557.07C571.133 381.633 578.711 388.586 578.711 400.227C578.711 407.141 575.234 413.469 569.062 416.164L580.352 438H564.258L554.57 418.273H547.266ZM616.234 438H601.898V381.633H616.234V438ZM678.445 426.438V438H640.789V381.633H655.125V426.438H678.445ZM738.078 438L734.523 425.617H716.086L712.492 438H697.883L716.828 381.633H734.367L753.312 438H738.078ZM725.148 393.586L718.859 415.305H731.711L725.461 393.586H725.148ZM806.289 381.633H830.703C842.812 381.633 851.016 389.484 851.016 401.594C851.016 413.625 842.383 421.477 829.844 421.477H820.625V438H806.289V381.633ZM820.625 392.609V410.695H826.836C832.93 410.695 836.523 407.531 836.523 401.633C836.523 395.773 832.93 392.609 826.914 392.609H820.625ZM887.719 392.453V408.469H896.117C901.391 408.469 904.516 405.383 904.516 400.5C904.516 395.695 901.195 392.453 896.078 392.453H887.719ZM887.719 418.273V438H873.383V381.633H897.523C911.586 381.633 919.164 388.586 919.164 400.227C919.164 407.141 915.688 413.469 909.516 416.164L920.805 438H904.711L895.023 418.273H887.719ZM979.422 438L975.867 425.617H957.43L953.836 438H939.227L958.172 381.633H975.711L994.656 438H979.422ZM966.492 393.586L960.203 415.305H973.055L966.805 393.586H966.492ZM1043 438H1016.09V381.633H1042.3C1053.39 381.633 1060.07 386.984 1060.07 395.695C1060.07 402.023 1055.3 407.062 1049.05 407.922V408.234C1056.67 408.586 1062.69 414.25 1062.69 421.75C1062.69 431.633 1055.07 438 1043 438ZM1030.42 391.789V404.602H1037.8C1043 404.602 1046.12 402.141 1046.12 398.078C1046.12 394.133 1043.31 391.789 1038.51 391.789H1030.42ZM1030.42 427.844H1038.94C1044.84 427.844 1048.12 425.266 1048.12 420.5C1048.12 415.891 1044.76 413.312 1038.86 413.312H1030.42V427.844ZM1135.84 438H1121.54V415.305H1099.08V438H1084.74V381.633H1099.08V403.742H1121.54V381.633H1135.84V438ZM1174.77 381.633V416.477C1174.77 423.039 1178.32 426.945 1184.73 426.945C1191.09 426.945 1194.65 423.039 1194.65 416.477V381.633H1208.98V418C1208.98 430.656 1199.38 438.977 1184.73 438.977C1170.04 438.977 1160.43 430.656 1160.43 418V381.633H1174.77ZM1233.54 381.633H1257.95C1270.06 381.633 1278.27 389.484 1278.27 401.594C1278.27 413.625 1269.63 421.477 1257.09 421.477H1247.88V438H1233.54V381.633ZM1247.88 392.609V410.695H1254.09C1260.18 410.695 1263.77 407.531 1263.77 401.633C1263.77 395.773 1260.18 392.609 1254.16 392.609H1247.88ZM1331.92 438L1328.37 425.617H1309.93L1306.34 438H1291.73L1310.67 381.633H1328.21L1347.16 438H1331.92ZM1318.99 393.586L1312.7 415.305H1325.55L1319.3 393.586H1318.99ZM1368.59 381.633H1391.48C1408.51 381.633 1418.51 391.516 1418.51 409.484C1418.51 427.492 1408.47 438 1391.48 438H1368.59V381.633ZM1382.92 393.195V426.438H1389.6C1398.94 426.438 1403.94 420.773 1403.94 409.523C1403.94 398.938 1398.66 393.195 1389.6 393.195H1382.92ZM1475.72 438L1472.16 425.617H1453.73L1450.13 438H1435.52L1454.47 381.633H1472.01L1490.95 438H1475.72ZM1462.79 393.586L1456.5 415.305H1469.35L1463.1 393.586H1462.79Z" fill="black"></path></svg> 