<?xml version="1.0" encoding="UTF-8"?> <svg xmlns="http://www.w3.org/2000/svg" width="1400" height="1386" viewBox="0 0 1400 1386" fill="none"><path d="M1250.61 384.845C1213.74 443.436 1214.03 507.458 1175.73 598.917C1147.72 596.059 1119.71 594.916 1091.7 596.059C1095.99 574.051 1097.99 551.758 1097.7 529.465C1096.85 485.45 1092.27 441.436 1083.99 398.278C1138.86 387.703 1194.59 383.13 1250.61 384.845ZM1071.41 537.754C1071.41 557.76 1069.7 577.767 1065.98 597.488C990.812 603.49 918.502 629.213 856.195 671.798C909.642 613.779 939.366 537.754 939.652 458.87C939.652 456.298 939.652 454.011 939.366 451.439C975.664 430.289 1014.53 414.569 1055.12 404.566C1064.26 448.581 1069.7 493.167 1071.41 537.754ZM822.469 708.096C891.635 654.65 974.806 623.211 1061.98 616.923C1037.11 709.811 968.804 746.966 914.786 746.966C879.917 746.966 846.763 732.962 822.469 708.096ZM920.788 482.878C920.788 580.625 865.913 652.363 817.611 698.665C810.751 682.659 807.322 665.796 807.607 648.362C807.607 589.485 841.905 517.747 920.217 464.015C920.788 470.302 920.788 476.59 920.788 482.878ZM797.032 645.504C797.032 659.794 799.319 674.085 804.178 687.518C790.459 661.223 783.314 631.785 783.314 602.061C783.314 505.171 827.042 414.569 885.633 341.116C901.925 373.413 912.785 407.996 918.216 443.436C843.048 494.025 797.032 564.62 797.032 645.504ZM840.761 732.676C862.769 747.824 889.063 756.112 915.644 756.684C999.957 756.684 1063.12 704.667 1087.13 615.494C1113.71 614.636 1140.58 615.78 1167.16 618.638C1167.16 618.924 1166.87 618.924 1166.87 618.924C1120.57 719.243 1033.97 772.404 948.798 772.404C909.07 774.118 870.2 759.828 840.761 732.676ZM1056.55 195.639C1036.26 257.374 1042.26 321.395 1051.97 383.416C1012.25 394.277 974.235 409.996 938.508 430.575C934.507 391.133 923.646 352.549 906.498 316.537C949.369 268.235 1000.24 227.078 1056.55 195.639ZM781.599 117.327C800.748 201.069 843.619 260.518 876.773 323.396C829.615 381.701 796.747 450.296 781.599 523.749H783.314V117.327H781.599ZM846.763 746.966C877.917 770.974 915.929 783.836 955.085 783.836C1048.26 783.836 1140 730.389 1194.31 622.067C1239.75 629.213 1284.62 640.931 1327.5 657.222C1230.61 682.945 1125.14 800.127 992.526 800.127C931.649 800.127 882.49 779.835 850.193 749.253L846.763 746.966ZM770.166 616.637C787.315 719.529 867.628 815.275 1006.25 815.275C1166.3 815.275 1302.63 666.368 1394.66 662.367C1401.52 662.081 1401.52 658.937 1396.09 656.936C1334.36 631.213 1270.05 612.922 1204.03 602.632C1244.04 512.031 1244.9 433.147 1283.48 371.412C1286.91 365.982 1286.34 364.267 1280.05 363.695C1213.46 357.979 1146.29 362.266 1080.84 376.557C1069.7 306.533 1061.41 237.939 1088.27 159.341C1090.27 153.339 1089.13 150.481 1082.84 153.339C1012.53 189.637 949.941 239.082 897.923 298.531C854.194 211.073 790.459 130.474 773.024 5.57535C771.881 -2.14152 767.88 -1.5699 767.88 5.57535V575.195C767.88 625.211 733.011 648.362 699.857 648.362C666.703 648.362 631.834 624.926 631.834 575.195V5.86116C631.834 -1.28409 627.833 -1.85571 626.69 5.86116C609.255 130.474 545.52 211.359 502.077 298.531C450.059 238.796 387.181 189.637 317.158 153.339C311.155 150.481 309.726 153.053 311.727 159.341C338.879 238.225 330.591 306.533 319.158 376.557C253.708 362.266 186.542 357.979 119.949 363.695C113.947 364.267 113.375 365.982 116.519 371.412C155.103 433.147 156.246 512.031 195.974 602.632C129.952 612.922 65.3589 631.213 3.90977 656.936C-1.52061 659.223 -1.52062 662.367 5.33882 662.367C97.0838 666.082 233.701 815.275 393.755 815.275C532.658 815.275 612.685 719.529 629.834 616.637L626.976 617.209C638.122 642.36 662.13 659.223 689.568 661.223L689.854 659.509C652.127 663.51 621.831 692.091 621.831 728.675C621.831 786.98 678.993 805.843 695.856 849.858C696.999 852.716 697.571 855.86 700.143 855.86C702.715 855.86 703.001 853.002 704.43 849.858C721.579 805.843 778.455 786.98 778.455 728.675C776.74 691.519 747.302 661.509 710.432 659.509L710.718 661.223C738.156 659.223 762.164 642.36 773.31 617.209L770.166 616.637ZM316.014 398.564C307.726 441.721 303.153 485.736 302.295 529.751C302.295 552.044 304.296 574.337 308.297 596.345C280.288 595.201 252.279 596.059 224.269 599.203C185.971 507.743 186.257 443.722 149.387 385.131C205.12 383.13 260.853 387.703 316.014 398.564ZM344.595 404.852C385.18 414.855 424.05 430.861 460.348 451.725C460.348 454.297 460.063 456.583 460.063 459.156C460.063 538.039 490.073 614.065 543.519 672.084C481.212 629.499 408.902 603.776 333.734 597.774C330.019 578.053 328.304 558.046 328.304 538.039C330.305 493.167 335.735 448.867 344.595 404.852ZM485.214 747.252C431.196 747.252 362.887 709.811 338.022 617.209C425.194 623.211 508.364 654.936 577.53 708.382C553.237 732.962 520.083 746.966 485.214 747.252ZM479.783 464.3C558.095 518.033 592.392 589.771 592.392 648.648C592.678 665.796 589.249 682.945 582.389 698.95C534.087 652.649 479.212 580.911 479.212 483.164C479.212 476.59 479.212 470.302 479.783 464.3ZM481.784 443.722C486.929 407.996 498.075 373.413 514.366 341.402C572.957 414.569 616.686 505.457 616.686 602.347C616.686 632.071 609.541 661.223 595.822 687.804C600.681 674.371 602.967 660.08 602.967 645.79C602.967 564.62 556.952 494.025 481.784 443.722ZM451.202 772.404C366.031 772.404 279.431 719.243 233.129 618.924C233.129 618.638 232.844 618.638 232.844 618.638C259.424 615.78 286.004 614.636 312.87 615.494C336.878 704.667 400.042 756.684 484.356 756.684C511.222 756.398 537.231 748.11 559.239 732.676C530.086 759.828 490.93 774.118 451.202 772.404ZM493.502 316.537C476.354 352.549 465.493 391.133 461.492 430.575C425.765 409.996 387.753 394.277 348.025 383.416C357.743 321.11 363.745 257.374 343.452 195.639C400.042 227.364 450.631 268.235 493.502 316.537ZM616.401 117.327V523.749H618.115C602.967 450.296 570.385 381.701 522.941 323.396C556.095 260.232 598.966 201.069 618.115 117.327H616.401ZM549.807 748.967C517.51 779.549 468.351 799.841 407.473 799.841C274.858 799.841 169.394 682.659 72.5042 657.222C115.661 640.931 160.248 629.213 205.692 622.067C259.996 730.389 351.741 783.836 444.915 783.836C484.071 783.836 522.369 770.689 553.237 746.966L549.807 748.967Z" fill="black"></path><path d="M393.855 1008.52C391.282 1008.8 390.139 1008.52 389.567 1006.8C386.709 991.367 373.276 980.221 357.843 980.221C344.409 978.506 332.405 988.223 330.691 1001.37C330.691 1001.94 330.691 1002.8 330.405 1003.37C330.405 1020.52 344.695 1027.95 363.559 1033.95C390.711 1042.81 408.431 1053.96 408.431 1080.25C408.431 1106.55 387.853 1125.13 352.412 1125.13C338.979 1125.7 325.26 1122.84 312.97 1117.41C310.112 1116.27 308.112 1113.98 307.254 1111.41C304.11 1101.98 302.395 1091.97 302.681 1081.97C302.681 1080.25 304.396 1079.68 306.397 1079.4C308.397 1079.11 309.826 1079.68 310.112 1081.11C315.828 1096.26 327.833 1116.55 351.841 1116.55C370.704 1116.55 382.708 1105.41 382.708 1090.26C382.708 1077.4 378.135 1066.82 352.984 1058.53C327.832 1050.24 306.968 1037.1 306.968 1011.66C306.968 989.652 324.974 970.789 360.415 970.789C370.132 971.075 379.85 972.218 389.567 974.505C392.997 975.362 393.283 975.934 394.14 978.22C396.713 987.08 397.856 996.226 397.856 1005.37C397.57 1007.37 396.427 1008.23 393.855 1008.52Z" fill="black"></path><path d="M799.419 1082.53C801.42 1082.82 802.563 1083.68 802.277 1084.82C801.134 1095.4 797.99 1105.97 793.417 1115.4C792.56 1117.12 791.131 1118.26 789.13 1118.83C775.983 1123.4 762.264 1125.69 748.259 1125.98C698.814 1125.98 660.801 1101.11 660.801 1048.52C660.801 997.362 701.1 970.496 747.687 970.496C762.835 970.782 777.698 973.068 792.274 976.498C795.132 977.07 795.418 977.641 795.704 980.214C795.989 986.501 796.561 997.648 798.562 1011.08C798.848 1012.51 797.99 1013.08 795.704 1013.65C793.131 1013.94 791.988 1013.65 791.702 1012.22C787.701 991.932 769.123 977.927 748.545 979.642C720.25 979.642 691.669 999.649 691.669 1045.38C691.669 1092.82 721.393 1116.26 750.26 1116.26C771.124 1116.55 789.702 1103.11 796.275 1083.39C796.275 1082.53 797.418 1082.25 799.419 1082.53Z" fill="black"></path><path d="M856.867 1048.81C857.724 1005.08 893.451 970.209 937.18 971.066C979.765 971.638 1014.35 1006.22 1014.92 1048.81C1013.78 1092.54 977.193 1126.83 933.464 1125.69C891.736 1124.55 858.01 1090.82 856.867 1048.81ZM936.036 1116.26C962.902 1116.26 984.338 1087.39 984.338 1048.81C984.338 1013.08 966.904 980.784 936.036 980.784C905.169 980.784 887.734 1013.37 887.734 1048.81C887.449 1087.39 908.884 1116.26 936.036 1116.26Z" fill="black"></path><path d="M189.786 1048.51V1089.96C189.786 1113.68 187.786 1114.25 177.211 1115.68L172.352 1116.25C170.923 1116.54 170.637 1117.96 170.637 1119.68C170.923 1121.39 171.209 1122.82 172.638 1122.54C172.638 1122.54 192.073 1121.97 202.648 1121.97C213.223 1121.97 232.658 1122.54 232.658 1122.54C234.087 1122.54 234.659 1121.39 234.659 1119.68C234.944 1117.96 234.373 1116.25 232.944 1116.25L228.085 1115.68C217.51 1114.25 215.509 1113.68 215.509 1089.96V1007.07C215.509 983.348 217.51 982.777 228.085 981.348L232.944 980.776C234.373 980.49 234.659 979.061 234.659 977.346C234.659 975.632 234.087 974.488 232.658 974.488C232.658 974.488 213.223 975.06 202.648 975.06C192.073 975.06 172.638 974.488 172.638 974.488C171.209 974.488 170.637 975.632 170.637 977.346C170.351 979.061 170.923 980.776 172.352 980.776L177.211 981.348C187.786 982.777 189.786 983.348 189.786 1007.07V1048.51Z" fill="black"></path><path d="M571.629 1109.96C574.201 1113.39 572.2 1115.11 569.342 1115.68L563.626 1116.54C562.197 1116.82 561.911 1117.97 562.197 1119.97C562.483 1121.97 563.054 1123.11 564.197 1122.82C564.197 1122.82 583.061 1122.25 593.35 1122.25C603.925 1122.25 622.789 1122.82 622.789 1122.82C624.218 1122.82 624.789 1121.97 625.075 1119.68C625.361 1117.39 624.503 1116.25 623.36 1116.25C614.214 1116.54 605.64 1112.54 600.21 1105.39C585.919 1089.39 557.624 1053.09 546.191 1037.94C544.762 1036.51 544.762 1033.94 546.191 1032.51L546.477 1032.22C552.765 1025.36 573.343 1004.5 582.489 996.211C591.635 987.065 603.639 981.635 616.501 980.492C617.644 980.206 618.501 978.777 618.216 976.776C617.93 975.061 617.358 973.918 615.929 974.204C615.929 974.204 599.924 974.775 591.349 974.775C582.775 974.775 566.77 974.204 566.77 974.204C565.341 974.204 564.769 975.633 564.769 977.062C564.483 979.062 565.055 980.206 566.198 980.492L572.2 982.206C573.343 982.492 574.201 983.064 574.201 984.207C574.487 986.779 569.628 992.21 563.34 999.355C554.48 1009.36 539.046 1025.65 530.758 1033.65C523.898 1040.23 521.04 1041.37 518.468 1039.94C516.467 1039.08 515.61 1036.8 515.61 1029.94V1006.5C515.61 982.778 517.61 982.206 528.185 980.777L533.044 980.206C534.473 979.92 534.759 978.491 534.759 976.776C534.473 975.061 534.187 973.918 532.758 973.918C532.758 973.918 513.323 974.49 502.748 974.49C492.173 974.49 472.738 973.918 472.738 973.918C471.309 973.918 470.738 975.061 470.738 976.776C470.452 978.491 471.023 980.206 472.452 980.206L477.311 980.777C487.886 982.206 489.887 982.778 489.887 1006.5V1089.39C489.887 1113.11 487.886 1113.68 477.311 1115.11L472.452 1115.68C471.023 1115.97 470.738 1117.39 470.738 1119.11C470.738 1120.82 471.309 1122.25 472.738 1121.97C472.738 1121.97 492.173 1121.4 502.748 1121.4C513.323 1121.4 532.758 1121.97 532.758 1121.97C534.187 1121.97 534.759 1120.82 534.759 1119.11C535.045 1117.39 534.473 1115.68 533.044 1115.68L528.185 1115.11C517.61 1113.68 515.61 1113.11 515.61 1089.39V1056.23C515.61 1052.52 517.039 1050.23 519.325 1049.66C521.898 1049.09 523.898 1050.23 526.471 1053.09C538.76 1066.52 561.911 1096.82 571.629 1109.96Z" fill="black"></path><path d="M1097.23 1005.66C1125.53 1034.81 1169.26 1085.4 1202.41 1125.13C1203.84 1126.84 1205.27 1127.13 1208.13 1125.98C1210.7 1124.84 1210.99 1123.98 1210.99 1121.98C1210.41 1110.84 1210.13 1100.26 1210.13 1090.26V1014.52C1210.13 988.224 1212.13 983.079 1222.7 981.65L1227.56 981.078C1228.99 980.793 1229.28 979.363 1229.28 977.649C1229.28 975.934 1228.71 974.505 1227.28 974.791C1218.7 975.362 1210.41 975.362 1204.7 975.362C1198.7 975.362 1188.12 975.076 1179.55 974.791C1178.12 974.791 1177.55 975.934 1177.55 977.649C1177.26 979.363 1178.12 981.078 1179.26 981.078C1196.98 981.936 1199.27 985.651 1199.27 1014.52V1084.26L1200.98 1082.54C1168.4 1049.39 1138.1 1014.52 1109.81 977.649C1108.38 975.648 1108.09 974.791 1105.52 975.076C1092.66 975.648 1079.8 975.648 1066.94 974.791C1065.51 974.505 1064.94 975.934 1064.94 977.649C1064.65 979.363 1065.22 980.793 1066.65 981.078C1083.8 984.508 1088.66 989.653 1088.66 1007.37V1083.11C1088.66 1109.41 1086.66 1114.55 1076.08 1115.98L1071.22 1116.55C1069.8 1116.84 1069.51 1118.27 1069.51 1119.98C1069.51 1121.7 1070.08 1123.13 1071.51 1122.84C1080.08 1122.27 1088.37 1122.27 1094.09 1122.27C1100.09 1122.27 1108.09 1122.55 1116.67 1122.84C1118.1 1122.84 1118.67 1121.7 1118.67 1119.98C1118.95 1118.27 1118.38 1116.55 1116.95 1116.55L1112.1 1115.98C1101.52 1114.55 1099.52 1109.41 1099.52 1083.11V1004.51L1097.23 1005.66Z" fill="black"></path><path d="M1227.83 930.046C1230.4 930.046 1232.4 927.188 1232.4 922.615C1232.4 918.042 1230.4 915.184 1227.83 915.184H172.332C169.76 915.184 167.759 918.042 167.759 922.615C167.759 927.188 169.76 930.046 172.332 930.046H1227.83Z" fill="black"></path><path d="M1227.83 1181.85C1230.4 1181.85 1232.4 1178.99 1232.4 1174.42C1232.4 1169.85 1230.4 1166.99 1227.83 1166.99H172.332C169.76 1166.99 167.759 1169.85 167.759 1174.42C167.759 1178.99 169.76 1181.85 172.332 1181.85H1227.83Z" fill="black"></path><path d="M1323.78 873.315C1324.07 890.464 1310.64 904.469 1293.49 904.754C1276.34 905.04 1262.33 891.607 1262.05 874.459C1261.76 857.31 1275.2 843.305 1292.34 843.02C1292.63 843.02 1292.92 843.02 1292.92 843.02C1309.78 843.02 1323.78 856.453 1323.78 873.315ZM1269.48 873.315C1270.34 886.177 1281.2 896.18 1294.34 895.609C1307.21 894.751 1317.21 883.89 1316.64 870.743C1316.07 858.167 1305.78 848.45 1293.2 848.45C1279.77 849.022 1269.19 859.882 1269.48 873.315ZM1282.91 866.456C1282.91 863.312 1282.34 861.883 1280.34 861.597H1279.48C1278.91 860.74 1278.91 859.311 1279.77 859.025C1284.63 858.739 1288.91 858.453 1292.92 858.453C1298.35 858.453 1304.92 859.597 1304.92 866.456C1304.92 869.314 1303.2 871.886 1300.63 873.03C1300.06 873.315 1300.06 873.601 1300.63 874.744C1302.06 878.174 1304.06 881.604 1306.63 884.176C1307.49 884.748 1308.06 885.319 1308.64 885.605C1309.21 885.605 1309.21 887.034 1308.64 887.32C1307.49 887.32 1306.35 887.606 1305.21 887.606C1301.49 887.892 1298.06 885.891 1296.35 882.747L1292.92 876.745C1292.63 875.888 1291.77 875.316 1290.92 875.316C1289.77 875.316 1289.49 875.888 1289.49 876.459V879.889C1289.49 883.319 1289.49 884.462 1292.92 884.748L1293.49 885.034C1294.06 885.319 1294.06 887.034 1293.49 887.32C1291.2 887.32 1289.2 887.034 1286.34 887.034C1283.77 887.034 1281.48 887.32 1279.48 887.32C1278.91 887.034 1278.91 885.319 1279.2 885.034L1280.05 884.748C1282.63 884.176 1282.63 883.605 1282.63 879.889L1282.91 866.456ZM1289.49 871.029C1289.49 872.744 1289.77 872.744 1292.34 872.744C1294.92 873.03 1296.92 871.029 1297.2 868.742C1297.2 868.457 1297.2 868.171 1297.2 868.171C1297.2 864.455 1295.49 862.169 1292.63 862.169C1289.77 862.169 1289.49 862.74 1289.49 863.884V871.029Z" fill="black"></path><path d="M1099.06 1373.15V1384.54H1045.3V1299.86H1099.06V1311.18H1058.44V1335.95H1096.88V1346.86H1058.44V1373.15H1099.06Z" fill="black"></path><path d="M969.63 1384.54H955.252L925.029 1299.86H939.29L962.353 1369.75H962.705L985.827 1299.86H999.853L969.63 1384.54Z" fill="black"></path><path d="M845.957 1298.45C870.311 1298.45 885.628 1315.29 885.628 1342.23C885.628 1369.17 870.311 1385.95 845.957 1385.95C821.544 1385.95 806.285 1369.17 806.285 1342.23C806.285 1315.29 821.544 1298.45 845.957 1298.45ZM845.957 1310.01C829.877 1310.01 819.724 1322.45 819.724 1342.23C819.724 1361.95 829.877 1374.39 845.957 1374.39C862.037 1374.39 872.13 1361.95 872.13 1342.23C872.13 1322.45 862.037 1310.01 845.957 1310.01Z" fill="black"></path><path d="M765.534 1373.15V1384.54H712.952V1299.86H726.098V1373.15H765.534Z" fill="black"></path><path d="M602.928 1373.15V1384.54H549.172V1299.86H602.928V1311.18H562.318V1335.95H600.757V1346.86H562.318V1373.15H602.928Z" fill="black"></path><path d="M441.168 1384.54H428.374V1299.86H440.288L484.184 1362.3H484.654V1299.86H497.447V1384.54H485.593L441.696 1322.16H441.168V1384.54Z" fill="black"></path><path d="M340.088 1298.45C364.443 1298.45 379.759 1315.29 379.759 1342.23C379.759 1369.17 364.443 1385.95 340.088 1385.95C315.675 1385.95 300.417 1369.17 300.417 1342.23C300.417 1315.29 315.675 1298.45 340.088 1298.45ZM340.088 1310.01C324.008 1310.01 313.856 1322.45 313.856 1342.23C313.856 1361.95 324.008 1374.39 340.088 1374.39C356.168 1374.39 366.262 1361.95 366.262 1342.23C366.262 1322.45 356.168 1310.01 340.088 1310.01Z" fill="black"></path></svg> 