<?xml version="1.0" encoding="UTF-8"?> <svg xmlns="http://www.w3.org/2000/svg" xmlns:xlink="http://www.w3.org/1999/xlink" width="676px" height="110px" viewBox="0 0 676 110"> <title>10000м</title> <defs> <radialGradient cx="75.381116%" cy="-4.33877037%" fx="75.381116%" fy="-4.33877037%" r="275.589617%" gradientTransform="translate(0.753811,-0.043388),scale(0.162036,1.000000),rotate(-19.382132),scale(1.000000,0.891476),translate(-0.753811,0.043388)" id="radialGradient-1"> <stop stop-color="#F8F392" offset="0%"></stop> <stop stop-color="#AA6B08" offset="100%"></stop> </radialGradient> </defs> <g id="Page-1" stroke="none" stroke-width="1" fill="none" fill-rule="evenodd"> <g id="Artboard-Copy-33" transform="translate(-513.000000, -655.000000)" fill="url(#radialGradient-1)" fill-rule="nonzero"> <path d="M557.74707,763 L580.232422,657.311523 L549.177734,657.311523 C549.177734,657.311523 542.479546,661.22689 535.379466,665.377178 L534.471375,665.907994 L534.471375,665.907994 L533.561828,666.439662 C526.135845,670.780454 518.855469,675.036133 518.855469,675.036133 L513.21582,701.769531 C513.21582,701.769531 519.752217,697.967419 526.680797,693.937181 L527.566954,693.421719 L527.566954,693.421719 L528.454531,692.90543 L528.454531,692.90543 L529.340687,692.389968 C536.269268,688.359729 542.805664,684.557617 542.805664,684.557617 L543.391602,684.557617 L526.692383,763 L557.74707,763 Z M629.158203,764.831055 C661.165039,764.831055 684.30957,736.706055 684.30957,697.887695 C684.30957,672.472656 667.683594,655.480469 642.708008,655.480469 C610.774414,655.480469 587.922852,683.3125 587.922852,722.130859 C587.922852,747.692383 604.475586,764.831055 629.158203,764.831055 Z M630.40332,741.173828 C623.079102,741.173828 619.270508,734.362305 619.270508,721.398438 C619.270508,699.05957 629.744141,679.137695 641.536133,679.137695 C649.080078,679.137695 652.961914,685.802734 652.961914,698.693359 C652.961914,721.032227 642.268555,741.173828 630.40332,741.173828 Z M765.681641,764.831055 C797.688477,764.831055 820.833008,736.706055 820.833008,697.887695 C820.833008,672.472656 804.207031,655.480469 779.231445,655.480469 C747.297852,655.480469 724.446289,683.3125 724.446289,722.130859 C724.446289,747.692383 740.999023,764.831055 765.681641,764.831055 Z M766.926758,741.173828 C759.602539,741.173828 755.793945,734.362305 755.793945,721.398438 C755.793945,699.05957 766.267578,679.137695 778.05957,679.137695 C785.603516,679.137695 789.485352,685.802734 789.485352,698.693359 C789.485352,721.032227 778.791992,741.173828 766.926758,741.173828 Z M872.029297,764.831055 C904.036133,764.831055 927.180664,736.706055 927.180664,697.887695 C927.180664,672.472656 910.554688,655.480469 885.579102,655.480469 C853.645508,655.480469 830.793945,683.3125 830.793945,722.130859 C830.793945,747.692383 847.34668,764.831055 872.029297,764.831055 Z M873.274414,741.173828 C865.950195,741.173828 862.141602,734.362305 862.141602,721.398438 C862.141602,699.05957 872.615234,679.137695 884.407227,679.137695 C891.951172,679.137695 895.833008,685.802734 895.833008,698.693359 C895.833008,721.032227 885.139648,741.173828 873.274414,741.173828 Z M978.376953,764.831055 C1010.38379,764.831055 1033.52832,736.706055 1033.52832,697.887695 C1033.52832,672.472656 1016.90234,655.480469 991.926758,655.480469 C959.993164,655.480469 937.141602,683.3125 937.141602,722.130859 C937.141602,747.692383 953.694336,764.831055 978.376953,764.831055 Z M979.62207,741.173828 C972.297852,741.173828 968.489258,734.362305 968.489258,721.398438 C968.489258,699.05957 978.962891,679.137695 990.754883,679.137695 C998.298828,679.137695 1002.18066,685.802734 1002.18066,698.693359 C1002.18066,721.032227 991.487305,741.173828 979.62207,741.173828 Z M1090.4375,763 L1101.2041,712.316406 L1102.44922,712.316406 L1108.96777,756.701172 L1128.30371,756.701172 L1153.64551,712.316406 L1154.96387,712.316406 L1144.19727,763 L1170.85742,763 L1188.06934,682.140625 L1149.61719,682.140625 L1125.88672,725.866211 L1124.42188,725.866211 L1119.51465,682.140625 L1080.98926,682.140625 L1063.77734,763 L1090.4375,763 Z" id="10000м"></path> </g> </g> </svg> 