<?xml version="1.0" encoding="UTF-8"?> <svg xmlns="http://www.w3.org/2000/svg" xmlns:xlink="http://www.w3.org/1999/xlink" width="139px" height="197px" viewBox="0 0 139 197"> <title>Mahabhava Dhama Water&amp;Electro Copy 26</title> <g id="Mahabhava-Dhama-Water&amp;Electro-Copy-26" stroke="none" stroke-width="1" fill="none" fill-rule="evenodd"> <g id="Group"> <g id="Group-5" transform="translate(61.492900, 58.790187) scale(-1, -1) rotate(50.000000) translate(-61.492900, -58.790187) translate(29.767707, 5.137505)" stroke-linecap="round" stroke-linejoin="round"> <g id="Radha-Kunda-Water" transform="translate(0.001016, 0.276863)" stroke="#2A96FB" stroke-width="0.73"> <line x1="15.4775617" y1="21.2156431" x2="34.5073507" y2="2.12156431" id="Shape"></line> <polyline id="Shape" points="2.45272836 47.1835903 36.7063486 12.6445233 40.7660369 8.57111983"></polyline> <polyline id="Shape" points="0 62.4588534 45.6714936 16.6330642 46.4326852 15.6995759"></polyline> <line x1="1.2686526" y1="73.8304381" x2="51.4227187" y2="23.5069326" id="Shape"></line> <line x1="4.56714936" y1="83.4199088" x2="56.4127523" y2="31.3991518" id="Shape"></line> <line x1="9.3034524" y1="91.4818532" x2="60.3032869" y2="40.2248594" id="Shape"></line> <line x1="15.2238312" y1="98.270859" x2="62.6714384" y2="50.5780932" id="Shape"></line> <line x1="22.4128626" y1="103.956651" x2="63.0943226" y2="63.0528914" id="Shape"></line> <line x1="32.223776" y1="106.841979" x2="59.5420954" y2="79.4313679" id="Shape"></line> <line x1="18.0148669" y1="12.305073" x2="20.7213258" y2="9.5894707" id="Shape"></line> <line x1="23.8506689" y1="6.44955551" x2="30.3630856" y2="0" id="Shape"></line> <line x1="8.54226084" y1="34.6239296" x2="15.9004459" y2="27.1560232" id="Shape"></line> <line x1="19.029789" y1="24.016108" x2="27.0645888" y2="15.9541636" id="Shape"></line> <polyline id="Shape" points="30.1939319 12.8142485 30.5322392 12.5596607 37.7212706 5.2614795"></polyline> <line x1="3.12934308" y1="52.8693827" x2="11.079566" y2="44.8074383" id="Shape"></line> <line x1="14.293486" y1="41.6675231" x2="22.2437089" y2="33.6055787" id="Shape"></line> <line x1="25.4576288" y1="30.4656635" x2="33.4078518" y2="22.4037192" id="Shape"></line> <polyline id="Shape" points="36.6217717 19.263804 41.6118053 14.1720496 43.7262263 12.0504853"></polyline> <line x1="0.25373052" y1="68.3992335" x2="6.25868616" y2="62.4588534" id="Shape"></line> <line x1="9.55718292" y1="59.2340756" x2="17.422829" y2="51.2569938" id="Shape"></line> <line x1="20.7213258" y1="48.0322161" x2="28.5869719" y2="40.0551342" id="Shape"></line> <line x1="31.8854687" y1="36.8303565" x2="39.7511148" y2="28.8532747" id="Shape"></line> <polyline id="Shape" points="43.0496116 25.6284969 48.8854135 19.6881168 49.139144 19.5183917"></polyline> <line x1="4.73630304" y1="76.8854907" x2="12.686526" y2="68.8235463" id="Shape"></line> <line x1="15.9004459" y1="65.5987686" x2="23.8506689" y2="57.6216868" id="Shape"></line> <line x1="27.0645888" y1="54.396909" x2="35.0148118" y2="46.4198272" id="Shape"></line> <line x1="38.2287317" y1="43.1950494" x2="46.1789546" y2="35.2179676" id="Shape"></line> <line x1="49.3928746" y1="31.9931899" x2="54.0446008" y2="27.3257484" id="Shape"></line> <line x1="6.7661472" y1="87.9344209" x2="8.22069265" y2="86.4749614" id="Shape"></line> <line x1="11.079566" y1="83.1653211" x2="19.029789" y2="75.2731019" id="Shape"></line> <line x1="22.2437089" y1="71.9634615" x2="30.1939319" y2="64.0712423" id="Shape"></line> <line x1="33.4078518" y1="60.7616019" x2="41.3580748" y2="52.8693827" id="Shape"></line> <line x1="44.5719947" y1="49.5597424" x2="52.5222176" y2="41.6675231" id="Shape"></line> <line x1="55.7361376" y1="38.3578828" x2="58.5271733" y2="35.6422805" id="Shape"></line> <line x1="12.179065" y1="95.0460813" x2="14.293486" y2="92.8396544" id="Shape"></line> <line x1="17.422829" y1="89.6148766" x2="25.4576288" y2="81.6377948" id="Shape"></line> <line x1="28.5869719" y1="78.413017" x2="36.6217717" y2="70.4359352" id="Shape"></line> <line x1="39.7511148" y1="67.2111575" x2="47.7859146" y2="59.2340756" id="Shape"></line> <line x1="50.9152577" y1="56.0092979" x2="58.9500575" y2="48.0322161" id="Shape"></line> <line x1="18.6914816" y1="101.241049" x2="20.7213258" y2="99.2892099" id="Shape"></line> <line x1="23.8506689" y1="96.0644321" x2="31.8854687" y2="88.0873503" id="Shape"></line> <line x1="35.0148118" y1="84.8625726" x2="43.0496116" y2="76.8854907" id="Shape"></line> <line x1="46.1789546" y1="73.660713" x2="54.2137544" y2="65.5987686" id="Shape"></line> <line x1="57.3430975" y1="62.4588534" x2="63.1788995" y2="56.5184733" id="Shape"></line> <line x1="26.8108583" y1="106.152824" x2="27.2472219" y2="105.56904" id="Shape"></line> <line x1="30.1939319" y1="102.429125" x2="38.2287317" y2="94.3671807" id="Shape"></line> <line x1="41.3580748" y1="91.2272655" x2="49.3928746" y2="83.1653211" id="Shape"></line> <line x1="52.5222176" y1="80.0254059" x2="60.5570174" y2="71.9634615" id="Shape"></line> <line x1="40.5123064" y1="104.975002" x2="44.5719947" y2="100.816736" id="Shape"></line> <line x1="47.7859146" y1="97.676821" x2="51.9301798" y2="93.3488298" id="Shape"></line> </g> <g id="Group-9" stroke="#545454"> <path d="M8.88158458,34.3916176 C-6.67732028,56.728594 -1.26502817,87.4892043 20.9760727,103.130301" id="Shape"></path> <path d="M51.5928888,23.6989334 C47.3145352,16.1658338 41.9572801,9.30367981 35.6924429,3.33191602" id="Shape"></path> <path d="M8.88158458,34.3916176 C14.1961118,26.6195148 17.5882989,17.6885772 18.7770749,8.3388078" id="Shape"></path> <path d="M21.1452264,103.300026 C27.0297175,107.667335 34.8890547,108.261251 41.3590911,104.827553" id="Shape"></path> <path d="M35.607866,3.4167786 C33.1260388,0.528186339 29.2046592,-0.662121151 25.5432221,0.361725983 C21.9241343,1.45964742 19.2785872,4.57866705 18.7770749,8.3388078" id="Shape"></path> <path d="M41.443668,104.74269 C66.2311045,84.9937576 70.7402649,48.9871215 51.5928888,23.6989334" id="Shape"></path> </g> </g> <g id="Group-5-Copy" transform="translate(77.292312, 138.326545) rotate(50.000000) translate(-77.292312, -138.326545) translate(45.567119, 84.673864)" stroke-linecap="round" stroke-linejoin="round"> <g id="Radha-Kunda-Water" transform="translate(0.001016, 0.276863)" stroke="#2A96FB" stroke-width="0.73"> <line x1="15.4775617" y1="21.2156431" x2="34.5073507" y2="2.12156431" id="Shape"></line> <polyline id="Shape" points="2.45272836 47.1835903 36.7063486 12.6445233 40.7660369 8.57111983"></polyline> <polyline id="Shape" points="0 62.4588534 45.6714936 16.6330642 46.4326852 15.6995759"></polyline> <line x1="1.2686526" y1="73.8304381" x2="51.4227187" y2="23.5069326" id="Shape"></line> <line x1="4.56714936" y1="83.4199088" x2="56.4127523" y2="31.3991518" id="Shape"></line> <line x1="9.3034524" y1="91.4818532" x2="60.3032869" y2="40.2248594" id="Shape"></line> <line x1="15.2238312" y1="98.270859" x2="62.6714384" y2="50.5780932" id="Shape"></line> <line x1="22.4128626" y1="103.956651" x2="63.0943226" y2="63.0528914" id="Shape"></line> <line x1="32.223776" y1="106.841979" x2="59.5420954" y2="79.4313679" id="Shape"></line> <line x1="18.0148669" y1="12.305073" x2="20.7213258" y2="9.5894707" id="Shape"></line> <line x1="23.8506689" y1="6.44955551" x2="30.3630856" y2="0" id="Shape"></line> <line x1="8.54226084" y1="34.6239296" x2="15.9004459" y2="27.1560232" id="Shape"></line> <line x1="19.029789" y1="24.016108" x2="27.0645888" y2="15.9541636" id="Shape"></line> <polyline id="Shape" points="30.1939319 12.8142485 30.5322392 12.5596607 37.7212706 5.2614795"></polyline> <line x1="3.12934308" y1="52.8693827" x2="11.079566" y2="44.8074383" id="Shape"></line> <line x1="14.293486" y1="41.6675231" x2="22.2437089" y2="33.6055787" id="Shape"></line> <line x1="25.4576288" y1="30.4656635" x2="33.4078518" y2="22.4037192" id="Shape"></line> <polyline id="Shape" points="36.6217717 19.263804 41.6118053 14.1720496 43.7262263 12.0504853"></polyline> <line x1="0.25373052" y1="68.3992335" x2="6.25868616" y2="62.4588534" id="Shape"></line> <line x1="9.55718292" y1="59.2340756" x2="17.422829" y2="51.2569938" id="Shape"></line> <line x1="20.7213258" y1="48.0322161" x2="28.5869719" y2="40.0551342" id="Shape"></line> <line x1="31.8854687" y1="36.8303565" x2="39.7511148" y2="28.8532747" id="Shape"></line> <polyline id="Shape" points="43.0496116 25.6284969 48.8854135 19.6881168 49.139144 19.5183917"></polyline> <line x1="4.73630304" y1="76.8854907" x2="12.686526" y2="68.8235463" id="Shape"></line> <line x1="15.9004459" y1="65.5987686" x2="23.8506689" y2="57.6216868" id="Shape"></line> <line x1="27.0645888" y1="54.396909" x2="35.0148118" y2="46.4198272" id="Shape"></line> <line x1="38.2287317" y1="43.1950494" x2="46.1789546" y2="35.2179676" id="Shape"></line> <line x1="49.3928746" y1="31.9931899" x2="54.0446008" y2="27.3257484" id="Shape"></line> <line x1="6.7661472" y1="87.9344209" x2="8.22069265" y2="86.4749614" id="Shape"></line> <line x1="11.079566" y1="83.1653211" x2="19.029789" y2="75.2731019" id="Shape"></line> <line x1="22.2437089" y1="71.9634615" x2="30.1939319" y2="64.0712423" id="Shape"></line> <line x1="33.4078518" y1="60.7616019" x2="41.3580748" y2="52.8693827" id="Shape"></line> <line x1="44.5719947" y1="49.5597424" x2="52.5222176" y2="41.6675231" id="Shape"></line> <line x1="55.7361376" y1="38.3578828" x2="58.5271733" y2="35.6422805" id="Shape"></line> <line x1="12.179065" y1="95.0460813" x2="14.293486" y2="92.8396544" id="Shape"></line> <line x1="17.422829" y1="89.6148766" x2="25.4576288" y2="81.6377948" id="Shape"></line> <line x1="28.5869719" y1="78.413017" x2="36.6217717" y2="70.4359352" id="Shape"></line> <line x1="39.7511148" y1="67.2111575" x2="47.7859146" y2="59.2340756" id="Shape"></line> <line x1="50.9152577" y1="56.0092979" x2="58.9500575" y2="48.0322161" id="Shape"></line> <line x1="18.6914816" y1="101.241049" x2="20.7213258" y2="99.2892099" id="Shape"></line> <line x1="23.8506689" y1="96.0644321" x2="31.8854687" y2="88.0873503" id="Shape"></line> <line x1="35.0148118" y1="84.8625726" x2="43.0496116" y2="76.8854907" id="Shape"></line> <line x1="46.1789546" y1="73.660713" x2="54.2137544" y2="65.5987686" id="Shape"></line> <line x1="57.3430975" y1="62.4588534" x2="63.1788995" y2="56.5184733" id="Shape"></line> <line x1="26.8108583" y1="106.152824" x2="27.2472219" y2="105.56904" id="Shape"></line> <line x1="30.1939319" y1="102.429125" x2="38.2287317" y2="94.3671807" id="Shape"></line> <line x1="41.3580748" y1="91.2272655" x2="49.3928746" y2="83.1653211" id="Shape"></line> <line x1="52.5222176" y1="80.0254059" x2="60.5570174" y2="71.9634615" id="Shape"></line> <line x1="40.5123064" y1="104.975002" x2="44.5719947" y2="100.816736" id="Shape"></line> <line x1="47.7859146" y1="97.676821" x2="51.9301798" y2="93.3488298" id="Shape"></line> </g> <g id="Group-9" transform="translate(0.000000, 0.000000)" stroke="#545454"> <path d="M8.88158458,34.3916176 C-6.67732028,56.728594 -1.26502817,87.4892043 20.9760727,103.130301" id="Shape"></path> <path d="M51.5928888,23.6989334 C47.3145352,16.1658338 41.9572801,9.30367981 35.6924429,3.33191602" id="Shape"></path> <path d="M8.88158458,34.3916176 C14.1961118,26.6195148 17.5882989,17.6885772 18.7770749,8.3388078" id="Shape"></path> <path d="M21.1452264,103.300026 C27.0297175,107.667335 34.8890547,108.261251 41.3590911,104.827553" id="Shape"></path> <path d="M35.607866,3.4167786 C33.1260388,0.528186339 29.2046592,-0.662121151 25.5432221,0.361725983 C21.9241343,1.45964742 19.2785872,4.57866705 18.7770749,8.3388078" id="Shape"></path> <path d="M41.443668,104.74269 C66.2311045,84.9937576 70.7402649,48.9871215 51.5928888,23.6989334" id="Shape"></path> </g> </g> <path d="M11.8808304,158.734413 L11.8808304,155.211464 L11.2509476,155.211464 L11.2509476,158.204628 L10.1498734,158.204628 L10.1498734,155.211464 L9.52243201,155.211464 L9.52243201,158.204628 L8.42135779,158.204628 L8.42135779,155.211464 L7.79147498,155.211464 L7.79147498,158.734413 L11.8808304,158.734413 Z M13.5922562,158.734413 C14.1952836,158.734413 14.5834672,158.382851 14.5834672,157.828651 C14.5834672,157.274452 14.1952836,156.92289 13.5922562,156.92289 L13.0917679,156.92289 L13.0917679,156.146522 L12.4862992,156.146522 L12.4862992,158.734413 L13.5922562,158.734413 Z M13.5141312,158.268104 L13.0917679,158.268104 L13.0917679,157.384315 L13.5141312,157.384315 C13.7948929,157.384315 13.9804398,157.560097 13.9804398,157.82621 C13.9804398,158.089882 13.7973344,158.268104 13.5141312,158.268104 Z M15.52585,158.734413 L16.1288773,157.867714 L16.475557,157.867714 L16.475557,158.734413 L17.0712601,158.734413 L17.0712601,156.146522 L15.9799515,156.146522 C15.3647172,156.146522 14.9667679,156.485878 14.9667679,157.030312 C14.9667679,157.396522 15.1840531,157.662636 15.5429398,157.772499 L14.847139,158.734413 L15.52585,158.734413 Z M16.475557,157.423378 L16.0263383,157.423378 C15.7480179,157.423378 15.5697953,157.257362 15.5697953,157.02787 C15.5697953,156.771522 15.7480179,156.61039 16.0263383,156.61039 L16.475557,156.61039 L16.475557,157.423378 Z M18.1918656,158.734413 L18.1918656,156.964394 L18.2089554,156.964394 L18.9389359,158.614784 L19.3686234,158.614784 L20.0986039,156.964394 L20.1181351,156.964394 L20.1181351,158.734413 L20.6967484,158.734413 L20.6967484,156.146522 L19.9350297,156.146522 L19.1708695,157.953163 L19.1513383,157.953163 L18.3871781,156.146522 L17.6132523,156.146522 L17.6132523,158.734413 L18.1918656,158.734413 Z M22.0029008,158.775917 C22.334932,158.775917 22.659639,158.602577 22.8085648,158.321815 L22.8207719,158.321815 L22.8207719,158.734413 L23.4067094,158.734413 L23.4067094,156.952187 C23.4067094,156.432167 22.9892289,156.092812 22.347139,156.092812 C21.6879594,156.092812 21.2753617,156.439491 21.2485062,156.92289 L21.8124711,156.92289 C21.8515336,156.708046 22.034639,156.568886 22.322725,156.568886 C22.6230179,156.568886 22.8061234,156.725136 22.8061234,156.996132 L22.8061234,157.181679 L22.1225297,157.220741 C21.4926469,157.259804 21.1386429,157.535683 21.1386429,157.994667 C21.1386429,158.460976 21.5024125,158.775917 22.0029008,158.775917 Z M22.1860062,158.316933 C21.9223344,158.316933 21.7465531,158.182655 21.7465531,157.970253 C21.7465531,157.765175 21.9150101,157.633339 22.2079789,157.613808 L22.8061234,157.577187 L22.8061234,157.77494 C22.8061234,158.08744 22.5302445,158.316933 22.1860062,158.316933 Z M8.42135779,163.734413 L8.42135779,162.127968 L8.44088904,162.127968 L9.87643592,163.734413 L10.6821,163.734413 L9.03903357,161.886269 L10.5478226,160.211464 L9.82028357,160.211464 L8.44088904,161.751991 L8.42135779,161.751991 L8.42135779,160.211464 L7.79147498,160.211464 L7.79147498,163.734413 L8.42135779,163.734413 Z M11.2924515,164.696327 C11.8832719,164.696327 12.1689164,164.479042 12.3910844,163.836952 L13.3261429,161.146522 L12.6864945,161.146522 L12.0761429,163.216835 L12.0663773,163.216835 L11.4560258,161.146522 L10.7919633,161.146522 L11.7123734,163.736854 C11.7148148,163.744179 11.6781937,163.873573 11.6781937,163.880897 C11.6098344,164.120155 11.4804398,164.21537 11.228975,164.21537 C11.1923539,164.21537 11.084932,164.212929 11.0531937,164.205604 L11.0531937,164.686562 C11.084932,164.693886 11.2582719,164.696327 11.2924515,164.696327 Z M14.2660844,163.734413 L14.2660844,162.63578 L15.3598344,162.63578 L15.3598344,163.734413 L15.9653031,163.734413 L15.9653031,161.146522 L15.3598344,161.146522 L15.3598344,162.16703 L14.2660844,162.16703 L14.2660844,161.146522 L13.6606156,161.146522 L13.6606156,163.734413 L14.2660844,163.734413 Z M16.8417679,164.410683 L16.8417679,163.734413 L18.6777054,163.734413 L18.6777054,164.410683 L19.2343461,164.410683 L19.2343461,163.265663 L18.8412797,163.265663 L18.8412797,161.146522 L16.8735062,161.146522 L16.7831742,162.49662 C16.7587601,162.845741 16.6806351,163.153358 16.4902054,163.265663 L16.2851273,163.265663 L16.2851273,164.410683 L16.8417679,164.410683 Z M18.2358109,163.265663 L17.1274125,163.265663 L17.1274125,163.246132 C17.2470414,163.075233 17.3056351,162.821327 17.3251664,162.528358 L17.3910844,161.612831 L18.2358109,161.612831 L18.2358109,163.265663 Z M20.3403031,163.775917 C20.6723344,163.775917 20.9970414,163.602577 21.1459672,163.321815 L21.1581742,163.321815 L21.1581742,163.734413 L21.7441117,163.734413 L21.7441117,161.952187 C21.7441117,161.432167 21.3266312,161.092812 20.6845414,161.092812 C20.0253617,161.092812 19.612764,161.439491 19.5859086,161.92289 L20.1498734,161.92289 C20.1889359,161.708046 20.3720414,161.568886 20.6601273,161.568886 C20.9604203,161.568886 21.1435258,161.725136 21.1435258,161.996132 L21.1435258,162.181679 L20.459932,162.220741 C19.8300492,162.259804 19.4760453,162.535683 19.4760453,162.994667 C19.4760453,163.460976 19.8398148,163.775917 20.3403031,163.775917 Z M20.5234086,163.316933 C20.2597367,163.316933 20.0839554,163.182655 20.0839554,162.970253 C20.0839554,162.765175 20.2524125,162.633339 20.5453812,162.613808 L21.1435258,162.577187 L21.1435258,162.77494 C21.1435258,163.08744 20.8676469,163.316933 20.5234086,163.316933 Z" id="ШьямаКунда" fill="#919195" fill-rule="nonzero"></path> <path d="M116.421358,39.7344131 L116.421358,38.5698623 L117.134248,38.5698623 C117.847139,38.5698623 118.347627,38.0937881 118.347627,37.3906631 C118.347627,36.6875381 117.861787,36.2114639 117.161104,36.2114639 L115.791475,36.2114639 L115.791475,39.7344131 L116.421358,39.7344131 Z M116.992647,38.0620498 L116.421358,38.0620498 L116.421358,36.7266006 L116.995088,36.7266006 C117.446748,36.7266006 117.707979,36.9682998 117.707979,37.3906631 C117.707979,37.8179092 117.444307,38.0620498 116.992647,38.0620498 Z M119.570772,39.775917 C119.902803,39.775917 120.22751,39.6025771 120.376436,39.3218154 L120.388643,39.3218154 L120.388643,39.7344131 L120.97458,39.7344131 L120.97458,37.9521865 C120.97458,37.432167 120.5571,37.0928115 119.91501,37.0928115 C119.25583,37.0928115 118.843233,37.4394912 118.816377,37.9228896 L119.380342,37.9228896 C119.419405,37.7080459 119.60251,37.5688857 119.890596,37.5688857 C120.190889,37.5688857 120.373995,37.7251357 120.373995,37.9961318 L120.373995,38.1816787 L119.690401,38.2207412 C119.060518,38.2598037 118.706514,38.5356826 118.706514,38.994667 C118.706514,39.4609756 119.070284,39.775917 119.570772,39.775917 Z M119.753877,39.3169326 C119.490205,39.3169326 119.314424,39.1826553 119.314424,38.9702529 C119.314424,38.7651748 119.482881,38.6333389 119.77585,38.6138076 L120.373995,38.5771865 L120.373995,38.7749404 C120.373995,39.0874404 120.098116,39.3169326 119.753877,39.3169326 Z M121.838838,40.4106826 L121.838838,39.7344131 L123.674776,39.7344131 L123.674776,40.4106826 L124.231416,40.4106826 L124.231416,39.2656631 L123.83835,39.2656631 L123.83835,37.1465224 L121.870577,37.1465224 L121.780245,38.4966201 C121.75583,38.8457412 121.677705,39.1533584 121.487276,39.2656631 L121.282198,39.2656631 L121.282198,40.4106826 L121.838838,40.4106826 Z M123.232881,39.2656631 L122.124483,39.2656631 L122.124483,39.2461318 C122.244112,39.0752334 122.302705,38.8213271 122.322237,38.5283584 L122.388155,37.612831 L123.232881,37.612831 L123.232881,39.2656631 Z M125.03708,39.7344131 L125.57419,38.8066787 L125.586397,38.8066787 L126.123506,39.7344131 L126.787569,39.7344131 L125.964815,38.4258193 L126.797334,37.1465224 L126.13083,37.1465224 L125.615694,38.0547256 L125.603487,38.0547256 L125.081026,37.1465224 L124.397432,37.1465224 L125.225069,38.4429092 L124.390108,39.7344131 L125.03708,39.7344131 Z M127.915498,39.775917 C128.24753,39.775917 128.572237,39.6025771 128.721162,39.3218154 L128.73337,39.3218154 L128.73337,39.7344131 L129.319307,39.7344131 L129.319307,37.9521865 C129.319307,37.432167 128.901827,37.0928115 128.259737,37.0928115 C127.600557,37.0928115 127.187959,37.4394912 127.161104,37.9228896 L127.725069,37.9228896 C127.764131,37.7080459 127.947237,37.5688857 128.235323,37.5688857 C128.535616,37.5688857 128.718721,37.7251357 128.718721,37.9961318 L128.718721,38.1816787 L128.035127,38.2207412 C127.405245,38.2598037 127.051241,38.5356826 127.051241,38.994667 C127.051241,39.4609756 127.41501,39.775917 127.915498,39.775917 Z M128.098604,39.3169326 C127.834932,39.3169326 127.659151,39.1826553 127.659151,38.9702529 C127.659151,38.7651748 127.827608,38.6333389 128.120577,38.6138076 L128.718721,38.5771865 L128.718721,38.7749404 C128.718721,39.0874404 128.442842,39.3169326 128.098604,39.3169326 Z M116.421358,44.7344131 L116.421358,43.1279678 L116.440889,43.1279678 L117.876436,44.7344131 L118.6821,44.7344131 L117.039034,42.8862685 L118.547823,41.2114639 L117.820284,41.2114639 L116.440889,42.7519912 L116.421358,42.7519912 L116.421358,41.2114639 L115.791475,41.2114639 L115.791475,44.7344131 L116.421358,44.7344131 Z M119.292452,45.6963271 C119.883272,45.6963271 120.168916,45.479042 120.391084,44.8369521 L121.326143,42.1465224 L120.686495,42.1465224 L120.076143,44.2168349 L120.066377,44.2168349 L119.456026,42.1465224 L118.791963,42.1465224 L119.712373,44.7368545 C119.714815,44.7441787 119.678194,44.8735732 119.678194,44.8808974 C119.609834,45.1201553 119.48044,45.2153701 119.228975,45.2153701 C119.192354,45.2153701 119.084932,45.2129287 119.053194,45.2056045 L119.053194,45.6865615 C119.084932,45.6938857 119.258272,45.6963271 119.292452,45.6963271 Z M122.266084,44.7344131 L122.266084,43.6357803 L123.359834,43.6357803 L123.359834,44.7344131 L123.965303,44.7344131 L123.965303,42.1465224 L123.359834,42.1465224 L123.359834,43.1670303 L122.266084,43.1670303 L122.266084,42.1465224 L121.660616,42.1465224 L121.660616,44.7344131 L122.266084,44.7344131 Z M124.841768,45.4106826 L124.841768,44.7344131 L126.677705,44.7344131 L126.677705,45.4106826 L127.234346,45.4106826 L127.234346,44.2656631 L126.84128,44.2656631 L126.84128,42.1465224 L124.873506,42.1465224 L124.783174,43.4966201 C124.75876,43.8457412 124.680635,44.1533584 124.490205,44.2656631 L124.285127,44.2656631 L124.285127,45.4106826 L124.841768,45.4106826 Z M126.235811,44.2656631 L125.127412,44.2656631 L125.127412,44.2461318 C125.247041,44.0752334 125.305635,43.8213271 125.325166,43.5283584 L125.391084,42.612831 L126.235811,42.612831 L126.235811,44.2656631 Z M128.340303,44.775917 C128.672334,44.775917 128.997041,44.6025771 129.145967,44.3218154 L129.158174,44.3218154 L129.158174,44.7344131 L129.744112,44.7344131 L129.744112,42.9521865 C129.744112,42.432167 129.326631,42.0928115 128.684541,42.0928115 C128.025362,42.0928115 127.612764,42.4394912 127.585909,42.9228896 L128.149873,42.9228896 C128.188936,42.7080459 128.372041,42.5688857 128.660127,42.5688857 C128.96042,42.5688857 129.143526,42.7251357 129.143526,42.9961318 L129.143526,43.1816787 L128.459932,43.2207412 C127.830049,43.2598037 127.476045,43.5356826 127.476045,43.994667 C127.476045,44.4609756 127.839815,44.775917 128.340303,44.775917 Z M128.523409,44.3169326 C128.259737,44.3169326 128.083955,44.1826553 128.083955,43.9702529 C128.083955,43.7651748 128.252412,43.6333389 128.545381,43.6138076 L129.143526,43.5771865 L129.143526,43.7749404 C129.143526,44.0874404 128.867647,44.3169326 128.523409,44.3169326 Z" id="РадхаКунда" fill="#919195" fill-rule="nonzero"></path> </g> </g> </svg> 