<?xml version="1.0" encoding="UTF-8"?> <svg xmlns="http://www.w3.org/2000/svg" width="100" height="100" viewBox="0 0 100 100" fill="none"> <path d="M43.4282 97.5866C27.5078 94.9312 13.5578 82.9218 7.93805 67.0334C6.54679 63.0999 7.05609 62.3036 9.21337 65.0393C12.1205 68.7259 18.4242 70.7721 28.1722 71.1936C36.5965 71.5578 36.919 71.5098 36.919 69.8921C36.919 67.535 36.3127 67.3751 31.0362 68.3407C21.3516 70.1129 13.6794 66.3056 11.7811 58.7852C10.3484 53.1098 11.393 48.9775 15.2757 44.9611C19.3363 40.7606 25.2353 39.1406 32.0021 40.3674C34.5057 40.8213 36.3244 40.8243 36.6028 40.375C37.5025 38.923 36.177 37.42 33.5159 36.8747C25.6028 35.253 21.519 31.1848 22.6496 26.0498C23.57 21.8697 25.7742 20.6364 32.3247 20.6364H38.1395L38.5463 43.7678C38.9894 68.9637 39.406 71.3837 43.7931 74.2511C45.7274 75.5153 45.8077 75.7672 44.6747 77.0159C42.7481 79.1395 43.1896 83.7003 45.8686 89.3491C47.2108 92.1791 48.3092 95.3164 48.3095 96.3208C48.3102 98.1867 47.8076 98.317 43.4282 97.5866ZM52.3791 96.0277C52.3795 95.1845 53.4779 92.1791 54.8201 89.3491C57.5408 83.6124 57.937 79.1356 55.9206 76.9131C54.6652 75.5293 54.7174 75.3292 56.7506 73.7339C61.5443 69.9726 61.7121 69.0073 61.9948 43.5649L62.2541 20.2306H67.7128C74.069 20.2306 76.2361 21.3782 77.5862 25.459C79.3159 30.6867 75.9367 34.4114 67.554 36.517C64.7232 37.228 63.7697 37.8536 63.7697 39.0001C63.7697 40.4008 64.2423 40.4893 69.2619 40.0292C75.8053 39.4293 80.6077 40.546 84.1033 43.48C87.7098 46.5071 88.9931 49.5226 88.9931 54.9703C88.9931 65.3847 81.3092 70.0086 67.6345 67.8232C63.8232 67.2141 63.7697 67.236 63.7697 69.4024V71.5992L71.7257 71.1619C81.9334 70.6009 85.7764 69.4082 90.3682 65.3764C94.4815 61.7648 94.4829 61.771 91.4022 69.9682C87.7128 79.785 79.84 88.0145 68.993 93.3927C61.0479 97.3321 52.378 98.7072 52.3791 96.0277ZM45.5754 70.8487C44.3967 69.673 42.9957 67.2077 42.462 65.3702C41.2835 61.3126 41.1423 46.8562 42.118 30.173L42.842 17.7957H34.9724C23.6007 17.7957 18.895 20.2468 17.7947 26.7434C17.1668 30.4507 18.7555 33.9908 21.7691 35.5996C24.1284 36.8592 23.8533 38.0826 21.2081 38.0943C17.6561 38.1101 11.0436 41.9361 8.48947 45.4531C6.18027 48.6329 6 48.7316 6 46.8158C6 40.9556 12.2206 25.9683 17.2901 19.6141C20.399 15.7175 29.2029 8.05789 30.5742 8.05667C30.8884 8.05639 30.5397 9.68664 29.7992 11.6794C29.0588 13.6723 28.6694 15.5187 28.934 15.7825C29.1985 16.0464 30.4626 15.2806 31.7431 14.0807C35.0671 10.9658 38.6291 9.67941 43.9305 9.67941H48.5533L48.0032 33.4196C47.7006 46.4766 47.2357 59.4424 46.9701 62.2324L46.4873 67.3051H50.3389H54.1905L53.6448 64.6673C53.3447 63.2165 52.8964 50.2507 52.6487 35.8544L52.1982 9.67941H56.7105C62.1477 9.67941 64.5962 10.5336 68.8959 13.9306C72.1225 16.4797 72.1552 16.4865 71.6923 14.515C71.4347 13.4178 70.9686 11.6983 70.6566 10.6939C70.3445 9.68956 70.4132 8.86779 70.8092 8.86779C72.2357 8.86779 79.7022 15.6336 82.7791 19.7144C88.2735 27.0014 93.875 39.7746 93.875 45.0166C93.875 46.5356 93.3325 46.2413 89.9934 42.9105C86.698 39.6234 85.3523 38.8821 81.0823 38.0024L76.0528 36.9661L78.4104 35.536C84.9796 31.551 84.6184 24.0423 77.6242 19.1911C76.027 18.0833 73.8152 17.7957 66.8913 17.7957C62.0946 17.7957 57.9529 18.1462 57.6875 18.5746C57.4221 19.003 57.7972 26.399 58.5211 35.0101C60.3398 56.6426 59.2169 67.1419 54.6771 70.9523C51.5195 73.6027 48.2994 73.566 45.5754 70.8487ZM37.8495 5.76942C36.1693 4.6177 44.3812 2.91107 51.158 3.00361C54.2906 3.04639 58.5012 3.61675 60.5151 4.27109L64.1765 5.46078L57.5866 5.54103C53.9621 5.58516 48.2869 5.82481 44.9749 6.07357C41.6629 6.32234 38.4565 6.18547 37.8495 5.76942Z" fill="black"></path> </svg> 