<?xml version="1.0" encoding="UTF-8"?> <svg xmlns="http://www.w3.org/2000/svg" width="1920" height="1920" viewBox="0 0 1920 1920" fill="none"><path d="M423.171 905.807C423.171 905.807 893.31 712.85 1056.36 644.905C1118.87 617.729 1330.84 530.759 1330.84 530.759C1330.84 530.759 1428.67 492.713 1420.52 585.114C1417.8 623.164 1396.06 756.331 1374.32 900.371C1341.71 1104.2 1306.38 1327.05 1306.38 1327.05C1306.38 1327.05 1300.94 1389.56 1254.75 1400.43C1208.55 1411.3 1132.45 1362.39 1118.87 1351.51C1107.99 1343.36 915.049 1221.06 844.393 1161.27C825.369 1144.97 803.63 1112.36 847.109 1074.31C944.943 984.622 1061.8 873.196 1132.45 802.535C1165.07 769.921 1197.67 693.825 1061.8 786.226C868.852 919.396 678.622 1044.41 678.622 1044.41C678.622 1044.41 635.14 1071.59 553.614 1047.13C472.084 1022.67 376.969 990.057 376.969 990.057C376.969 990.057 311.751 949.292 423.171 905.807Z" fill="#007AFF"></path></svg> 