<?xml version="1.0" encoding="UTF-8"?> <svg xmlns="http://www.w3.org/2000/svg" width="1920" height="1080" viewBox="0 0 1920 1080" fill="none"><rect width="1920" height="1080" rx="30" fill="white"></rect><path d="M1170.75 504.794H1193.93V519.219H1194.41C1195.89 514.41 1198.56 510.591 1202.43 507.76C1206.29 504.928 1210.76 503.513 1215.84 503.513C1221.41 503.513 1226.02 504.884 1229.66 507.625C1233.3 510.411 1235.66 514.343 1236.74 519.421H1237.21C1238.69 514.568 1241.52 510.703 1245.7 507.827C1249.93 504.951 1254.82 503.513 1260.4 503.513C1267.72 503.513 1273.65 505.85 1278.19 510.523C1282.73 515.242 1285 521.398 1285 528.993V579.817H1261.14V535.059C1261.14 526.97 1257.54 522.926 1250.35 522.926C1246.98 522.926 1244.31 524.049 1242.33 526.296C1240.31 528.543 1239.3 531.554 1239.3 535.329V579.817H1216.52V534.722C1216.52 530.947 1215.57 528.026 1213.68 525.959C1211.84 523.937 1209.19 522.926 1205.73 522.926C1202.4 522.926 1199.71 524.072 1197.64 526.364C1195.62 528.656 1194.61 531.689 1194.61 535.464V579.817H1170.75V504.794Z" fill="black"></path><path d="M1122.89 581.435C1110.98 581.435 1101.65 577.997 1094.91 571.121C1088.08 564.201 1084.67 554.584 1084.67 542.271C1084.67 530.183 1088.13 520.634 1095.05 513.624C1101.88 506.658 1111.16 503.176 1122.89 503.176C1134.66 503.176 1143.96 506.636 1150.79 513.556C1157.67 520.522 1161.11 530.093 1161.11 542.271C1161.11 554.629 1157.69 564.268 1150.86 571.189C1144.12 578.019 1134.8 581.435 1122.89 581.435ZM1122.89 563.842C1127.29 563.842 1130.71 561.977 1133.13 558.247C1135.65 554.472 1136.91 549.147 1136.91 542.271C1136.91 535.576 1135.65 530.296 1133.13 526.431C1130.62 522.656 1127.2 520.769 1122.89 520.769C1118.53 520.769 1115.11 522.656 1112.64 526.431C1110.13 530.251 1108.87 535.531 1108.87 542.271C1108.87 549.147 1110.1 554.472 1112.57 558.247C1115.05 561.977 1118.48 563.842 1122.89 563.842Z" fill="black"></path><path d="M1055.88 534.183C1055.48 530.273 1054.13 527.172 1051.84 524.881C1049.5 522.544 1046.54 521.376 1042.94 521.376C1038.54 521.376 1035.08 523.195 1032.56 526.835C1030.09 530.52 1028.85 535.666 1028.85 542.271C1028.85 548.967 1030.09 554.135 1032.56 557.775C1035.03 561.37 1038.49 563.167 1042.94 563.167C1046.58 563.167 1049.55 562.089 1051.84 559.932C1054.09 557.82 1055.43 554.809 1055.88 550.9H1077.86C1077.5 560.336 1074.17 567.774 1067.88 573.211C1061.55 578.693 1053.14 581.435 1042.67 581.435C1030.94 581.435 1021.69 577.952 1014.9 570.987C1008.12 564.021 1004.72 554.45 1004.72 542.271C1004.72 530.228 1008.12 520.701 1014.9 513.691C1021.69 506.681 1030.9 503.176 1042.54 503.176C1052.96 503.176 1061.37 506.029 1067.75 511.736C1074.08 517.354 1077.43 524.836 1077.79 534.183H1055.88Z" fill="black"></path><path d="M981.873 580.693C978.412 580.693 975.469 579.48 973.042 577.053C970.616 574.582 969.402 571.616 969.402 568.156C969.402 564.695 970.616 561.73 973.042 559.258C975.469 556.831 978.412 555.618 981.873 555.618C985.378 555.618 988.344 556.831 990.77 559.258C993.197 561.73 994.41 564.695 994.41 568.156C994.41 571.616 993.197 574.582 990.77 577.053C988.344 579.48 985.378 580.693 981.873 580.693Z" fill="black"></path><path d="M890.471 527.509C890.471 520.05 893.46 514.141 899.436 509.782C905.458 505.378 913.569 503.176 923.77 503.176C933.881 503.176 941.902 505.423 947.834 509.916C953.766 514.41 956.777 520.499 956.867 528.184H935.027C934.937 525.487 933.859 523.33 931.791 521.713C929.679 520.14 926.916 519.353 923.5 519.353C920.49 519.353 918.063 519.96 916.221 521.173C914.378 522.387 913.457 523.982 913.457 525.959C913.457 528.97 916.333 531.082 922.085 532.295L937.588 535.531C945.093 537.104 950.508 539.508 953.833 542.743C957.204 545.979 958.889 550.428 958.889 556.09C958.889 563.774 955.676 569.931 949.25 574.559C942.914 579.143 934.51 581.435 924.04 581.435C913.389 581.435 904.941 579.143 898.695 574.559C892.538 570.11 889.213 564.021 888.719 556.292H911.907C912.266 559.123 913.569 561.325 915.816 562.898C918.018 564.471 920.917 565.257 924.512 565.257C927.837 565.257 930.466 564.673 932.398 563.505C934.285 562.381 935.229 560.808 935.229 558.786C935.229 555.865 932.466 553.82 926.938 552.652L912.85 549.686C897.931 546.541 890.471 539.148 890.471 527.509Z" fill="black"></path><path d="M879.686 580.761C879.686 588.355 877.237 594.197 872.339 598.286C867.396 602.331 860.341 604.353 851.173 604.353C848.252 604.353 845.938 604.263 844.23 604.083V587.029C845.129 587.119 846.073 587.164 847.062 587.164C850.162 587.164 852.387 586.603 853.735 585.479C855.083 584.356 855.757 582.491 855.757 579.884V504.794H879.686V580.761ZM867.688 498.592C864.273 498.592 861.397 497.469 859.06 495.222C856.633 492.975 855.42 490.166 855.42 486.796C855.42 483.471 856.633 480.662 859.06 478.37C861.397 476.123 864.273 475 867.688 475C871.103 475 874.002 476.123 876.383 478.37C878.81 480.662 880.023 483.471 880.023 486.796C880.023 490.166 878.81 492.975 876.383 495.222C874.047 497.469 871.148 498.592 867.688 498.592Z" fill="black"></path><path d="M806.009 564.246C809.963 564.246 813.289 563.19 815.985 561.078C818.816 558.921 820.232 556.157 820.232 552.787V547.597L806.413 548.54C799.403 549.035 795.898 551.686 795.898 556.494C795.898 558.876 796.819 560.763 798.662 562.156C800.459 563.549 802.908 564.246 806.009 564.246ZM797.583 580.828C790.438 580.828 784.461 578.716 779.653 574.492C774.71 570.223 772.238 564.763 772.238 558.112C772.238 544.047 782.372 536.385 802.639 535.126L820.232 534.048V529.734C820.232 526.723 819.221 524.386 817.198 522.724C815.221 521.106 812.525 520.297 809.11 520.297C805.919 520.297 803.268 521.061 801.156 522.589C799.133 524.072 797.943 526.004 797.583 528.386H776.08C776.395 520.791 779.631 514.702 785.787 510.119C791.988 505.49 800.145 503.176 810.255 503.176C820.232 503.176 828.275 505.49 834.387 510.119C840.499 514.792 843.554 520.904 843.554 528.453V579.817H820.366V569.032H819.895C817.917 572.717 814.839 575.615 810.66 577.727C806.616 579.794 802.257 580.828 797.583 580.828Z" fill="black"></path><path d="M721.82 504.794H745.008V518.882H745.48C748.221 508.815 754.13 503.782 763.208 503.782C765.365 503.782 767.387 504.097 769.274 504.726V525.218C767.207 524.319 764.646 523.87 761.59 523.87C756.467 523.87 752.535 525.263 749.794 528.049C747.053 530.88 745.682 534.924 745.682 540.182V579.817H721.82V504.794Z" fill="black"></path><path d="M682.319 580.828C670.995 580.828 663.288 576.2 659.199 566.942H658.727V579.817H635V477.696H658.862V517.938H659.401C663.49 508.501 671.062 503.783 682.117 503.783C691.599 503.783 698.969 507.153 704.226 513.894C709.484 520.634 712.113 530.094 712.113 542.272C712.113 554.45 709.507 563.909 704.294 570.65C699.036 577.435 691.711 580.828 682.319 580.828ZM673.287 522.589C668.928 522.589 665.423 524.386 662.771 527.981C660.12 531.576 658.794 536.362 658.794 542.339C658.794 548.316 660.098 553.102 662.704 556.697C665.355 560.247 668.883 562.022 673.287 562.022C677.691 562.022 681.196 560.247 683.802 556.697C686.409 553.102 687.712 548.293 687.712 542.272C687.712 536.295 686.386 531.532 683.735 527.981C681.128 524.386 677.646 522.589 673.287 522.589Z" fill="black"></path></svg> 