<?xml version="1.0" encoding="UTF-8"?> <svg xmlns="http://www.w3.org/2000/svg" width="1785" height="1260" viewBox="0 0 1785 1260" fill="none"><g clip-path="url(#clip0_2089_11980)"><rect width="1260" height="1785" transform="matrix(0 1 -1 0 1785 0)" fill="white"></rect><path d="M559.94 347.914C562.871 344.983 567.638 344.983 570.57 347.914C573.502 350.846 573.502 355.613 570.57 358.544L318.415 610.7C315.483 613.631 310.716 613.631 307.785 610.7C304.854 607.768 304.853 603.001 307.785 600.069L559.94 347.914Z" fill="#2A96FB"></path><path d="M701.524 372.219C704.46 369.294 709.208 369.304 712.134 372.239C715.059 375.175 715.049 379.923 712.114 382.849L341.619 752.244C338.683 755.165 333.935 755.157 331.01 752.223C328.082 749.288 328.095 744.541 331.03 741.613L701.524 372.219Z" fill="#2A96FB"></path><path d="M797.734 444.108C800.669 441.181 805.416 441.194 808.344 444.128C811.271 447.063 811.277 451.81 808.344 454.738L414.613 847.348C411.677 850.275 406.931 850.263 404.003 847.328C401.08 844.392 401.089 839.644 404.024 836.718L797.734 444.108Z" fill="#2A96FB"></path><path d="M854.135 553.612C857.064 550.685 861.813 550.688 864.745 553.612C867.676 556.543 867.676 561.31 864.745 564.242L524.125 904.861C521.194 907.793 516.427 907.793 513.495 904.861C510.571 901.93 510.569 897.181 513.495 894.251L854.135 553.612Z" fill="#2A96FB"></path><path d="M841.986 732.763C844.926 729.847 849.675 729.87 852.596 732.804C855.516 735.746 855.517 740.513 852.576 743.434L702.162 892.728C699.22 895.649 694.453 895.63 691.532 892.687C688.618 889.745 688.636 884.996 691.573 882.077L841.986 732.763Z" fill="#2A96FB"></path><path d="M480.33 510.484C483.262 507.561 488.011 507.557 490.94 510.484C493.872 513.416 493.872 518.182 490.94 521.114L385.879 626.175C382.947 629.107 378.18 629.107 375.248 626.175C372.321 623.246 372.325 618.497 375.248 615.565L480.33 510.484Z" fill="#2A96FB"></path><path d="M626.317 364.488C629.249 361.565 633.998 361.561 636.927 364.488C639.859 367.419 639.859 372.186 636.927 375.118L531.866 480.179C528.934 483.111 524.167 483.111 521.235 480.179C518.308 477.25 518.312 472.501 521.235 469.569L626.317 364.488Z" fill="#2A96FB"></path><path d="M417.274 740.527C420.205 737.595 424.972 737.596 427.904 740.527C430.836 743.458 430.836 748.225 427.904 751.157L373.714 805.347C370.782 808.279 366.015 808.279 363.083 805.347C360.152 802.416 360.152 797.649 363.083 794.717L417.274 740.527Z" fill="#2A96FB"></path><path d="M563.305 594.499C566.253 591.586 571 591.614 573.915 594.56C576.828 597.508 576.801 602.255 573.854 605.17L469.893 708.032C466.945 710.941 462.197 710.914 459.283 707.971C456.367 705.024 456.398 700.277 459.344 697.361L563.305 594.499Z" fill="#2A96FB"></path><path d="M709.29 448.526C712.237 445.613 716.985 445.641 719.9 448.587C722.813 451.535 722.785 456.282 719.839 459.197L615.877 562.059C612.93 564.968 608.181 564.941 605.267 561.998C602.352 559.051 602.383 554.304 605.328 551.388L709.29 448.526Z" fill="#2A96FB"></path><path d="M501.283 823.527C504.181 820.57 508.93 820.512 511.893 823.405C514.858 826.302 514.913 831.07 512.015 834.035L464.464 882.686C461.566 885.651 456.799 885.706 453.833 882.808C450.875 879.912 450.82 875.162 453.711 872.198L501.283 823.527Z" fill="#2A96FB"></path><path d="M647.349 677.448C650.296 674.533 655.043 674.562 657.959 677.51C660.875 680.457 660.845 685.203 657.898 688.12L552.837 792.081C549.889 794.994 545.142 794.966 542.227 792.02C539.312 789.073 539.341 784.326 542.288 781.41L647.349 677.448Z" fill="#2A96FB"></path><path d="M793.336 531.471C796.283 528.555 801.03 528.585 803.946 531.532C806.862 534.479 806.832 539.226 803.885 542.142L698.824 646.104C695.876 649.016 691.129 648.989 688.214 646.043C685.299 643.095 685.328 638.348 688.275 635.433L793.336 531.471Z" fill="#2A96FB"></path><path d="M729.141 761.574C732.057 758.629 736.804 758.598 739.751 761.513C742.694 764.427 742.721 769.176 739.812 772.123L636.95 876.085C634.035 879.031 629.288 879.059 626.34 876.146C623.394 873.231 623.366 868.483 626.279 865.536L729.141 761.574Z" fill="#2A96FB"></path><path d="M864.089 627.72C867.02 624.795 871.769 624.795 874.699 627.72C877.631 630.652 877.631 635.419 874.699 638.35L782.916 730.134C779.984 733.066 775.217 733.066 772.286 730.134C769.361 727.203 769.36 722.454 772.286 719.524L864.089 627.72Z" fill="#2A96FB"></path><path d="M590.686 343.477C748.744 343.477 876.895 471.607 876.912 629.661L876.851 636.768C875.313 710.205 845.465 780.323 793.396 832.391C739.655 886.132 666.687 916.182 590.686 915.886C432.623 915.881 304.481 787.746 304.481 629.682C304.487 471.621 432.626 343.482 590.686 343.477ZM319.511 629.682C319.511 779.454 440.915 900.872 590.686 900.878H590.727C662.732 901.163 731.871 872.696 782.786 821.781C833.701 770.866 862.168 701.727 861.883 629.722V629.682C861.877 479.91 740.459 358.506 590.686 358.506C440.918 358.511 319.516 479.914 319.511 629.682Z" fill="black"></path><path d="M590.701 232C810.324 232.004 988.364 410.042 988.383 629.661C988.801 735.27 947.043 836.687 872.365 911.365C797.696 986.035 696.298 1027.77 590.701 1027.36V1027.38L590.681 1027.36L590.661 1027.38V1027.36C371.042 1027.34 193.004 849.324 193 629.701C193 410.065 371.065 232 590.701 232ZM208.029 629.701C208.033 841.043 379.359 1012.37 590.701 1012.37H590.722C692.329 1012.78 789.887 972.582 861.735 900.735C933.582 828.887 973.776 731.329 973.374 629.722V629.701C973.374 418.359 802.043 247.033 590.701 247.029C379.357 247.029 208.029 418.357 208.029 629.701Z" fill="black"></path><path d="M1165.91 602.725L1165.91 536.098H1203.14V602.725H1217.13V524.177H1151.81V602.725H1165.91ZM1247.67 603.65C1255.07 603.65 1262.31 599.785 1265.63 593.525H1265.91V602.725H1278.97V562.988C1278.97 551.394 1269.66 543.827 1255.35 543.827C1240.65 543.827 1231.45 551.557 1230.85 562.335H1243.43C1244.3 557.545 1248.38 554.442 1254.8 554.442C1261.5 554.442 1265.58 557.926 1265.58 563.968V568.105L1250.34 568.976C1236.3 569.847 1228.4 575.998 1228.4 586.231C1228.4 596.628 1236.51 603.65 1247.67 603.65ZM1251.75 593.417C1245.88 593.417 1241.96 590.423 1241.96 585.687C1241.96 581.115 1245.71 578.175 1252.24 577.74L1265.58 576.923V581.332C1265.58 588.3 1259.43 593.417 1251.75 593.417ZM1318.65 602.725C1331.45 602.725 1339.39 596.247 1339.39 586.068C1339.39 578.828 1334.28 573.494 1326.71 572.514V572.079C1332.43 571.099 1336.83 565.71 1336.83 559.668C1336.83 550.523 1329.87 545.025 1318.22 545.025H1290.84V602.725H1318.65ZM1314.03 568.595H1304.12V554.224H1315.06C1320.56 554.224 1323.61 556.783 1323.61 561.301C1323.61 566.091 1320.34 568.595 1314.03 568.595ZM1315.93 593.525H1304.12V577.195H1314.84C1322.14 577.195 1325.89 579.971 1325.89 585.36C1325.89 590.64 1322.35 593.525 1315.93 593.525ZM1366.45 603.65C1373.85 603.65 1381.09 599.785 1384.41 593.525H1384.68V602.725H1397.75V562.988C1397.75 551.394 1388.44 543.827 1374.12 543.827C1359.42 543.827 1350.23 551.557 1349.63 562.335H1362.2C1363.07 557.545 1367.15 554.442 1373.58 554.442C1380.27 554.442 1384.36 557.926 1384.36 563.968V568.105L1369.11 568.976C1355.07 569.847 1347.18 575.998 1347.18 586.231C1347.18 596.628 1355.29 603.65 1366.45 603.65ZM1370.53 593.417C1364.65 593.417 1360.73 590.423 1360.73 585.687C1360.73 581.115 1364.49 578.175 1371.02 577.74L1384.36 576.923V581.332C1384.36 588.3 1378.2 593.417 1370.53 593.417ZM1423.11 602.725V578.23H1447.5V602.725H1461V545.025H1447.5V567.778H1423.11V545.025H1409.61V602.725H1423.11ZM1490.17 603.65C1497.58 603.65 1504.82 599.785 1508.14 593.525H1508.41V602.725H1521.47V562.988C1521.47 551.394 1512.17 543.827 1497.85 543.827C1483.15 543.827 1473.95 551.557 1473.35 562.335H1485.93C1486.8 557.545 1490.88 554.442 1497.31 554.442C1504 554.442 1508.08 557.926 1508.08 563.968V568.105L1492.84 568.976C1478.8 569.847 1470.9 575.998 1470.9 586.231C1470.9 596.628 1479.02 603.65 1490.17 603.65ZM1494.26 593.417C1488.38 593.417 1484.46 590.423 1484.46 585.687C1484.46 581.115 1488.21 578.175 1494.75 577.74L1508.08 576.923V581.332C1508.08 588.3 1501.93 593.417 1494.26 593.417ZM1185.67 715.784C1203.74 715.784 1216.37 705.986 1219.37 689.873H1205.43C1202.87 698.528 1195.63 703.591 1185.73 703.591C1172.12 703.591 1163.52 692.541 1163.52 674.904C1163.52 657.376 1172.17 646.272 1185.67 646.272C1195.36 646.272 1203.09 652.096 1205.43 661.132H1219.31C1216.97 645.02 1203.42 634.079 1185.67 634.079C1163.35 634.079 1149.15 649.865 1149.15 674.904C1149.15 700.107 1163.24 715.784 1185.67 715.784ZM1246.69 715.131C1254.09 715.131 1261.33 711.266 1264.66 705.006H1264.93V714.205H1277.99V674.469C1277.99 662.874 1268.68 655.308 1254.37 655.308C1239.67 655.308 1230.47 663.037 1229.87 673.815H1242.45C1243.32 669.025 1247.4 665.922 1253.82 665.922C1260.52 665.922 1264.6 669.406 1264.6 675.448V679.585L1249.36 680.456C1235.32 681.327 1227.42 687.478 1227.42 697.712C1227.42 708.109 1235.53 715.131 1246.69 715.131ZM1250.77 704.897C1244.9 704.897 1240.98 701.903 1240.98 697.168C1240.98 692.595 1244.73 689.656 1251.26 689.22L1264.6 688.404V692.813C1264.6 699.78 1258.45 704.897 1250.77 704.897ZM1303.47 733.203V704.625H1303.74C1306.9 711.103 1313.43 715.131 1321.81 715.131C1336.29 715.131 1345.54 703.754 1345.54 685.355C1345.54 666.902 1336.24 655.526 1321.59 655.526C1313.21 655.526 1306.68 659.771 1303.41 666.467H1303.14V656.505H1289.91V733.203H1303.47ZM1317.46 704.026C1309.02 704.026 1303.41 696.678 1303.36 685.355C1303.41 674.142 1309.02 666.685 1317.46 666.685C1326.22 666.685 1331.66 673.979 1331.66 685.355C1331.66 696.786 1326.22 704.026 1317.46 704.026ZM1380.93 715.348C1397.85 715.348 1408.85 704.081 1408.85 685.355C1408.85 666.685 1397.75 655.308 1380.93 655.308C1364.11 655.308 1353 666.739 1353 685.355C1353 704.081 1364 715.348 1380.93 715.348ZM1380.93 704.625C1372.33 704.625 1366.77 697.657 1366.77 685.355C1366.77 673.108 1372.38 666.086 1380.93 666.086C1389.53 666.086 1395.08 673.108 1395.08 685.355C1395.08 697.657 1389.53 704.625 1380.93 704.625ZM1446.36 714.205C1459.15 714.205 1467.09 707.728 1467.09 697.549C1467.09 690.309 1461.98 684.974 1454.41 683.995V683.559C1460.13 682.579 1464.54 677.19 1464.54 671.148C1464.54 662.003 1457.57 656.505 1445.92 656.505H1418.54V714.205H1446.36ZM1441.73 680.075H1431.82V665.705H1442.76C1448.26 665.705 1451.31 668.263 1451.31 672.781C1451.31 677.571 1448.04 680.075 1441.73 680.075ZM1443.63 705.006H1431.82V688.676H1442.54C1449.84 688.676 1453.59 691.452 1453.59 696.841C1453.59 702.121 1450.06 705.006 1443.63 705.006ZM1494.15 715.131C1501.55 715.131 1508.79 711.266 1512.11 705.006H1512.38V714.205H1525.45V674.469C1525.45 662.874 1516.14 655.308 1501.82 655.308C1487.13 655.308 1477.93 663.037 1477.33 673.815H1489.9C1490.77 669.025 1494.86 665.922 1501.28 665.922C1507.97 665.922 1512.06 669.406 1512.06 675.448V679.585L1496.82 680.456C1482.77 681.327 1474.88 687.478 1474.88 697.712C1474.88 708.109 1482.99 715.131 1494.15 715.131ZM1498.23 704.897C1492.35 704.897 1488.43 701.903 1488.43 697.168C1488.43 692.595 1492.19 689.656 1498.72 689.22L1512.06 688.404V692.813C1512.06 699.78 1505.91 704.897 1498.23 704.897ZM1550.92 733.203V704.625H1551.19C1554.35 711.103 1560.88 715.131 1569.27 715.131C1583.75 715.131 1593 703.754 1593 685.355C1593 666.902 1583.69 655.526 1569.05 655.526C1560.67 655.526 1554.13 659.771 1550.87 666.467H1550.6V656.505H1537.37V733.203H1550.92ZM1564.91 704.026C1556.47 704.026 1550.87 696.678 1550.81 685.355C1550.87 674.142 1556.47 666.685 1564.91 666.685C1573.68 666.685 1579.12 673.979 1579.12 685.355C1579.12 696.786 1573.68 704.026 1564.91 704.026Z" fill="black"></path></g><defs><clipPath id="clip0_2089_11980"><rect width="1260" height="1785" fill="white" transform="matrix(0 1 -1 0 1785 0)"></rect></clipPath></defs></svg> 