<?xml version="1.0" encoding="UTF-8"?> <svg xmlns="http://www.w3.org/2000/svg" width="1785" height="1260" viewBox="0 0 1785 1260" fill="none"><g clip-path="url(#clip0_2081_3937)"><rect width="1260" height="1785" transform="matrix(0 1 -1 0 1785 0)" fill="white"></rect><path d="M810.923 433.788L737.094 899.928L270.955 826.098L344.784 359.959L810.923 433.788ZM295.078 808.572L719.568 875.804L786.8 451.315L362.311 384.082L295.078 808.572Z" fill="black"></path><path d="M939.879 340.093L830.786 1028.88L142 919.786L251.093 231L939.879 340.093ZM166.123 902.26L813.259 1004.76L915.756 357.62L268.619 255.123L166.123 902.26Z" fill="black"></path><path d="M1073.85 722.261V706.575H1128.23V722.261H1141.11V694.577H1131.2V627.157H1077.49L1074.62 673.883C1074.02 684.506 1072.2 691.055 1066.59 694.577H1060.92V722.261H1073.85ZM1117.06 694.577H1082.38V694.137C1086.07 689.789 1087.17 683.68 1087.78 674.764L1090.03 639.1H1117.06V694.577ZM1167.09 707.511C1174.57 707.511 1181.89 703.603 1185.25 697.274H1185.52V706.575H1198.73V666.398C1198.73 654.676 1189.32 647.025 1174.85 647.025C1159.99 647.025 1150.69 654.841 1150.08 665.738H1162.79C1163.67 660.895 1167.8 657.758 1174.3 657.758C1181.07 657.758 1185.19 661.28 1185.19 667.389V671.572L1169.78 672.452C1155.58 673.333 1147.6 679.552 1147.6 689.899C1147.6 700.411 1155.8 707.511 1167.09 707.511ZM1171.21 697.164C1165.27 697.164 1161.31 694.137 1161.31 689.349C1161.31 684.726 1165.1 681.754 1171.71 681.313L1185.19 680.488V684.946C1185.19 691.991 1178.97 697.164 1171.21 697.164ZM1237.48 707.731C1254.98 707.731 1265.77 696.449 1265.77 678.121C1265.77 661.005 1255.64 650.162 1239.84 650.162C1230.54 650.162 1223.66 654.015 1220.03 661.005H1219.59C1221.63 645.209 1226.69 638.275 1241.77 637.779L1247.44 637.614C1254.98 637.339 1260.7 635.853 1261.91 634.752V623.8C1259.77 624.956 1253.38 626.166 1246.61 626.442L1240.73 626.607C1218.93 627.377 1208.75 640.311 1208.75 672.893C1208.75 695.843 1218.99 707.731 1237.48 707.731ZM1237.31 696.614C1228.12 696.614 1222.78 690.064 1222.78 678.396C1222.78 667.224 1228.18 660.84 1237.31 660.84C1246.39 660.84 1251.73 667.224 1251.73 678.396C1251.73 690.064 1246.39 696.614 1237.31 696.614ZM1286.08 706.575L1298.18 685.661H1298.46L1310.57 706.575H1325.54L1306.99 677.076L1325.76 648.236H1310.73L1299.12 668.71H1298.84L1287.07 648.236H1271.66L1290.31 677.461L1271.49 706.575H1286.08ZM1350.96 707.511C1358.45 707.511 1365.77 703.603 1369.13 697.274H1369.4V706.575H1382.61V666.398C1382.61 654.676 1373.2 647.025 1358.72 647.025C1343.86 647.025 1334.56 654.841 1333.96 665.738H1346.67C1347.55 660.895 1351.68 657.758 1358.17 657.758C1364.94 657.758 1369.07 661.28 1369.07 667.389V671.572L1353.66 672.452C1339.46 673.333 1331.48 679.552 1331.48 689.899C1331.48 700.411 1339.68 707.511 1350.96 707.511ZM1355.09 697.164C1349.15 697.164 1345.19 694.137 1345.19 689.349C1345.19 684.726 1348.98 681.754 1355.59 681.313L1369.07 680.488V684.946C1369.07 691.991 1362.85 697.164 1355.09 697.164ZM1408.37 725.783V696.889H1408.64C1411.84 703.438 1418.44 707.511 1426.92 707.511C1441.56 707.511 1450.91 696.008 1450.91 677.406C1450.91 658.748 1441.5 647.246 1426.7 647.246C1418.22 647.246 1411.62 651.538 1408.31 658.308H1408.04V648.236H1394.66V725.783H1408.37ZM1422.51 696.283C1413.98 696.283 1408.31 688.853 1408.26 677.406C1408.31 666.068 1413.98 658.528 1422.51 658.528C1431.37 658.528 1436.88 665.903 1436.88 677.406C1436.88 688.964 1431.37 696.283 1422.51 696.283ZM1478.04 707.511C1485.53 707.511 1492.85 703.603 1496.21 697.274H1496.48V706.575H1509.69V666.398C1509.69 654.676 1500.28 647.025 1485.8 647.025C1470.94 647.025 1461.64 654.841 1461.04 665.738H1473.75C1474.63 660.895 1478.76 657.758 1485.25 657.758C1492.02 657.758 1496.15 661.28 1496.15 667.389V671.572L1480.74 672.452C1466.54 673.333 1458.56 679.552 1458.56 689.899C1458.56 700.411 1466.76 707.511 1478.04 707.511ZM1482.17 697.164C1476.23 697.164 1472.27 694.137 1472.27 689.349C1472.27 684.726 1476.06 681.754 1482.67 681.313L1496.15 680.488V684.946C1496.15 691.991 1489.93 697.164 1482.17 697.164ZM1535.45 725.783V696.889H1535.72C1538.92 703.438 1545.52 707.511 1554 707.511C1568.64 707.511 1577.99 696.008 1577.99 677.406C1577.99 658.748 1568.58 647.246 1553.78 647.246C1545.3 647.246 1538.7 651.538 1535.39 658.308H1535.12V648.236H1521.74V725.783H1535.45ZM1549.59 696.283C1541.06 696.283 1535.39 688.853 1535.34 677.406C1535.39 666.068 1541.06 658.528 1549.59 658.528C1558.45 658.528 1563.96 665.903 1563.96 677.406C1563.96 688.964 1558.45 696.283 1549.59 696.283ZM1613.77 707.731C1630.88 707.731 1642 696.338 1642 677.406C1642 658.528 1630.77 647.025 1613.77 647.025C1596.76 647.025 1585.53 658.583 1585.53 677.406C1585.53 696.338 1596.65 707.731 1613.77 707.731ZM1613.77 696.889C1605.07 696.889 1599.46 689.844 1599.46 677.406C1599.46 665.022 1605.12 657.923 1613.77 657.923C1622.46 657.923 1628.08 665.022 1628.08 677.406C1628.08 689.844 1622.46 696.889 1613.77 696.889Z" fill="black"></path></g><defs><clipPath id="clip0_2081_3937"><rect width="1260" height="1785" fill="white" transform="matrix(0 1 -1 0 1785 0)"></rect></clipPath></defs></svg> 