<?xml version="1.0" encoding="UTF-8"?> <svg xmlns="http://www.w3.org/2000/svg" width="1400" height="1182" viewBox="0 0 1400 1182" fill="none"><path d="M1250.61 384.845C1213.74 443.436 1214.03 507.458 1175.73 598.917C1147.72 596.059 1119.71 594.916 1091.7 596.059C1095.99 574.051 1097.99 551.758 1097.7 529.465C1096.85 485.45 1092.27 441.436 1083.99 398.278C1138.86 387.703 1194.59 383.13 1250.61 384.845ZM1071.41 537.754C1071.41 557.76 1069.7 577.767 1065.98 597.488C990.812 603.49 918.502 629.213 856.195 671.798C909.642 613.779 939.366 537.754 939.652 458.87C939.652 456.298 939.652 454.011 939.366 451.439C975.664 430.289 1014.53 414.569 1055.12 404.566C1064.26 448.581 1069.7 493.167 1071.41 537.754ZM822.469 708.096C891.635 654.65 974.806 623.211 1061.98 616.923C1037.11 709.811 968.804 746.966 914.786 746.966C879.917 746.966 846.763 732.962 822.469 708.096ZM920.788 482.878C920.788 580.625 865.913 652.363 817.611 698.665C810.751 682.659 807.322 665.796 807.607 648.362C807.607 589.485 841.905 517.747 920.216 464.015C920.788 470.302 920.788 476.59 920.788 482.878ZM797.032 645.504C797.032 659.794 799.319 674.085 804.178 687.518C790.459 661.223 783.314 631.785 783.314 602.061C783.314 505.171 827.042 414.569 885.633 341.116C901.925 373.413 912.785 407.996 918.216 443.436C843.048 494.025 797.032 564.62 797.032 645.504ZM840.761 732.676C862.769 747.824 889.063 756.112 915.644 756.684C999.957 756.684 1063.12 704.667 1087.13 615.494C1113.71 614.636 1140.58 615.78 1167.16 618.638C1167.16 618.924 1166.87 618.924 1166.87 618.924C1120.57 719.243 1033.97 772.404 948.798 772.404C909.07 774.118 870.2 759.828 840.761 732.676ZM1056.55 195.639C1036.26 257.374 1042.26 321.395 1051.97 383.416C1012.25 394.277 974.235 409.996 938.508 430.575C934.507 391.133 923.646 352.549 906.498 316.537C949.369 268.235 1000.24 227.078 1056.55 195.639ZM781.599 117.327C800.748 201.069 843.619 260.518 876.773 323.396C829.615 381.701 796.747 450.296 781.599 523.749H783.314V117.327H781.599ZM846.763 746.966C877.917 770.974 915.929 783.836 955.085 783.836C1048.26 783.836 1140 730.389 1194.31 622.068C1239.75 629.213 1284.62 640.931 1327.5 657.222C1230.61 682.945 1125.14 800.127 992.526 800.127C931.649 800.127 882.49 779.835 850.193 749.253L846.763 746.966ZM770.166 616.637C787.315 719.529 867.628 815.275 1006.25 815.275C1166.3 815.275 1302.63 666.368 1394.66 662.367C1401.52 662.081 1401.52 658.937 1396.09 656.936C1334.36 631.213 1270.05 612.922 1204.03 602.632C1244.04 512.031 1244.9 433.147 1283.48 371.412C1286.91 365.982 1286.34 364.267 1280.05 363.695C1213.46 357.979 1146.29 362.266 1080.84 376.557C1069.7 306.533 1061.41 237.939 1088.27 159.341C1090.27 153.339 1089.13 150.481 1082.84 153.339C1012.53 189.637 949.941 239.082 897.923 298.531C854.194 211.073 790.459 130.474 773.024 5.57535C771.881 -2.14152 767.88 -1.5699 767.88 5.57535V575.195C767.88 625.211 733.011 648.362 699.857 648.362C666.703 648.362 631.834 624.926 631.834 575.195V5.86116C631.834 -1.28409 627.833 -1.85571 626.69 5.86116C609.255 130.474 545.52 211.359 502.077 298.531C450.059 238.796 387.181 189.637 317.158 153.339C311.155 150.481 309.726 153.053 311.727 159.341C338.879 238.225 330.591 306.533 319.158 376.557C253.708 362.266 186.542 357.979 119.949 363.695C113.947 364.267 113.375 365.982 116.519 371.412C155.103 433.147 156.246 512.031 195.974 602.632C129.952 612.922 65.3589 631.213 3.90977 656.936C-1.52061 659.223 -1.52062 662.367 5.33882 662.367C97.0838 666.082 233.701 815.275 393.755 815.275C532.658 815.275 612.685 719.529 629.834 616.637L626.976 617.209C638.122 642.36 662.13 659.223 689.568 661.223L689.854 659.509C652.127 663.51 621.831 692.091 621.831 728.675C621.831 786.98 678.993 805.843 695.856 849.858C696.999 852.716 697.571 855.86 700.143 855.86C702.715 855.86 703.001 853.002 704.43 849.858C721.579 805.843 778.455 786.98 778.455 728.675C776.74 691.519 747.302 661.509 710.432 659.509L710.718 661.223C738.156 659.223 762.164 642.36 773.31 617.209L770.166 616.637ZM316.014 398.564C307.726 441.721 303.153 485.736 302.295 529.751C302.295 552.044 304.296 574.337 308.297 596.345C280.288 595.201 252.279 596.059 224.269 599.203C185.971 507.743 186.257 443.722 149.387 385.131C205.12 383.13 260.853 387.703 316.014 398.564ZM344.595 404.852C385.18 414.855 424.05 430.861 460.348 451.725C460.348 454.297 460.062 456.583 460.062 459.156C460.062 538.039 490.073 614.065 543.519 672.084C481.212 629.499 408.902 603.776 333.734 597.774C330.019 578.053 328.304 558.046 328.304 538.039C330.305 493.167 335.735 448.867 344.595 404.852ZM485.214 747.252C431.196 747.252 362.887 709.811 338.022 617.209C425.194 623.211 508.364 654.936 577.53 708.382C553.237 732.962 520.083 746.966 485.214 747.252ZM479.783 464.3C558.095 518.033 592.393 589.771 592.393 648.648C592.678 665.796 589.249 682.945 582.389 698.95C534.087 652.649 479.212 580.911 479.212 483.164C479.212 476.59 479.212 470.302 479.783 464.3ZM481.784 443.722C486.929 407.996 498.075 373.413 514.366 341.402C572.957 414.569 616.686 505.457 616.686 602.347C616.686 632.071 609.541 661.224 595.822 687.804C600.681 674.371 602.967 660.08 602.967 645.79C602.967 564.62 556.952 494.025 481.784 443.722ZM451.202 772.404C366.031 772.404 279.431 719.243 233.129 618.924C233.129 618.638 232.844 618.638 232.844 618.638C259.424 615.78 286.004 614.636 312.87 615.494C336.878 704.667 400.042 756.684 484.356 756.684C511.223 756.398 537.231 748.11 559.239 732.676C530.086 759.828 490.93 774.118 451.202 772.404ZM493.502 316.537C476.354 352.549 465.493 391.133 461.492 430.575C425.765 409.996 387.753 394.277 348.025 383.416C357.742 321.11 363.745 257.374 343.452 195.639C400.042 227.364 450.631 268.235 493.502 316.537ZM616.401 117.327V523.749H618.115C602.967 450.296 570.385 381.701 522.941 323.396C556.095 260.232 598.966 201.069 618.115 117.327H616.401ZM549.807 748.967C517.51 779.549 468.351 799.841 407.473 799.841C274.858 799.841 169.394 682.659 72.5042 657.222C115.661 640.931 160.248 629.213 205.692 622.068C259.996 730.389 351.741 783.836 444.915 783.836C484.071 783.836 522.369 770.689 553.237 746.966L549.807 748.967Z" fill="black"></path><path d="M393.855 1008.52C391.282 1008.8 390.139 1008.52 389.567 1006.8C386.709 991.367 373.276 980.22 357.843 980.22C344.41 978.505 332.405 988.223 330.691 1001.37C330.691 1001.94 330.691 1002.8 330.405 1003.37C330.405 1020.52 344.695 1027.95 363.559 1033.95C390.711 1042.81 408.431 1053.96 408.431 1080.25C408.431 1106.55 387.853 1125.13 352.412 1125.13C338.979 1125.7 325.26 1122.84 312.97 1117.41C310.112 1116.27 308.112 1113.98 307.254 1111.41C304.11 1101.98 302.395 1091.97 302.681 1081.97C302.681 1080.25 304.396 1079.68 306.397 1079.4C308.397 1079.11 309.826 1079.68 310.112 1081.11C315.828 1096.26 327.833 1116.55 351.841 1116.55C370.704 1116.55 382.708 1105.4 382.708 1090.26C382.708 1077.4 378.135 1066.82 352.984 1058.53C327.833 1050.24 306.968 1037.1 306.968 1011.66C306.968 989.652 324.974 970.788 360.415 970.788C370.132 971.074 379.85 972.217 389.567 974.504C392.997 975.361 393.283 975.933 394.14 978.219C396.713 987.08 397.856 996.225 397.856 1005.37C397.57 1007.37 396.427 1008.23 393.855 1008.52Z" fill="black"></path><path d="M799.419 1082.53C801.42 1082.82 802.563 1083.68 802.277 1084.82C801.134 1095.4 797.99 1105.97 793.417 1115.4C792.56 1117.12 791.131 1118.26 789.13 1118.83C775.983 1123.41 762.264 1125.69 748.259 1125.98C698.814 1125.98 660.801 1101.11 660.801 1048.52C660.801 997.363 701.1 970.497 747.687 970.497C762.835 970.783 777.698 973.069 792.274 976.499C795.132 977.07 795.418 977.642 795.704 980.214C795.989 986.502 796.561 997.649 798.562 1011.08C798.847 1012.51 797.99 1013.08 795.704 1013.65C793.131 1013.94 791.988 1013.65 791.702 1012.22C787.701 991.932 769.123 977.928 748.545 979.643C720.25 979.643 691.669 999.649 691.669 1045.38C691.669 1092.82 721.393 1116.26 750.26 1116.26C771.124 1116.55 789.702 1103.11 796.275 1083.39C796.275 1082.53 797.418 1082.25 799.419 1082.53Z" fill="black"></path><path d="M856.867 1048.81C857.724 1005.08 893.451 970.211 937.18 971.068C979.765 971.64 1014.35 1006.22 1014.92 1048.81C1013.78 1092.54 977.193 1126.83 933.464 1125.69C891.736 1124.55 858.01 1090.82 856.867 1048.81ZM936.036 1116.26C962.902 1116.26 984.338 1087.39 984.338 1048.81C984.338 1013.08 966.904 980.786 936.036 980.786C905.169 980.786 887.734 1013.37 887.734 1048.81C887.449 1087.39 908.884 1116.26 936.036 1116.26Z" fill="black"></path><path d="M189.786 1048.51V1089.96C189.786 1113.68 187.786 1114.25 177.211 1115.68L172.352 1116.25C170.923 1116.54 170.637 1117.97 170.637 1119.68C170.923 1121.4 171.209 1122.82 172.638 1122.54C172.638 1122.54 192.073 1121.97 202.648 1121.97C213.223 1121.97 232.658 1122.54 232.658 1122.54C234.087 1122.54 234.659 1121.4 234.659 1119.68C234.944 1117.97 234.373 1116.25 232.944 1116.25L228.085 1115.68C217.51 1114.25 215.509 1113.68 215.509 1089.96V1007.07C215.509 983.349 217.51 982.777 228.085 981.348L232.944 980.777C234.373 980.491 234.659 979.062 234.659 977.347C234.659 975.632 234.087 974.489 232.658 974.489C232.658 974.489 213.223 975.061 202.648 975.061C192.073 975.061 172.638 974.489 172.638 974.489C171.209 974.489 170.637 975.632 170.637 977.347C170.351 979.062 170.923 980.777 172.352 980.777L177.211 981.348C187.786 982.777 189.786 983.349 189.786 1007.07V1048.51Z" fill="black"></path><path d="M571.629 1109.96C574.201 1113.39 572.2 1115.11 569.342 1115.68L563.626 1116.54C562.197 1116.82 561.911 1117.97 562.197 1119.97C562.483 1121.97 563.054 1123.11 564.198 1122.83C564.198 1122.83 583.061 1122.25 593.35 1122.25C603.925 1122.25 622.789 1122.83 622.789 1122.83C624.218 1122.83 624.789 1121.97 625.075 1119.68C625.361 1117.4 624.503 1116.25 623.36 1116.25C614.214 1116.54 605.64 1112.54 600.21 1105.39C585.919 1089.39 557.624 1053.09 546.192 1037.94C544.762 1036.51 544.762 1033.94 546.192 1032.51L546.477 1032.22C552.765 1025.36 573.343 1004.5 582.489 996.212C591.635 987.066 603.639 981.636 616.501 980.493C617.644 980.207 618.501 978.778 618.216 976.777C617.93 975.062 617.358 973.919 615.929 974.205C615.929 974.205 599.924 974.777 591.349 974.777C582.775 974.777 566.77 974.205 566.77 974.205C565.341 974.205 564.769 975.634 564.769 977.063C564.483 979.064 565.055 980.207 566.198 980.493L572.2 982.208C573.343 982.493 574.201 983.065 574.201 984.208C574.487 986.781 569.628 992.211 563.34 999.356C554.48 1009.36 539.046 1025.65 530.758 1033.65C523.898 1040.23 521.04 1041.37 518.468 1039.94C516.467 1039.08 515.61 1036.8 515.61 1029.94V1006.5C515.61 982.779 517.611 982.208 528.185 980.779L533.044 980.207C534.473 979.921 534.759 978.492 534.759 976.777C534.473 975.062 534.188 973.919 532.758 973.919C532.758 973.919 513.323 974.491 502.748 974.491C492.173 974.491 472.738 973.919 472.738 973.919C471.309 973.919 470.738 975.062 470.738 976.777C470.452 978.492 471.023 980.207 472.453 980.207L477.311 980.779C487.886 982.208 489.887 982.779 489.887 1006.5V1089.39C489.887 1113.11 487.886 1113.68 477.311 1115.11L472.453 1115.68C471.023 1115.97 470.738 1117.4 470.738 1119.11C470.738 1120.83 471.309 1122.25 472.738 1121.97C472.738 1121.97 492.173 1121.4 502.748 1121.4C513.323 1121.4 532.758 1121.97 532.758 1121.97C534.188 1121.97 534.759 1120.83 534.759 1119.11C535.045 1117.4 534.473 1115.68 533.044 1115.68L528.185 1115.11C517.611 1113.68 515.61 1113.11 515.61 1089.39V1056.23C515.61 1052.52 517.039 1050.23 519.325 1049.66C521.898 1049.09 523.898 1050.23 526.471 1053.09C538.76 1066.52 561.911 1096.82 571.629 1109.96Z" fill="black"></path><path d="M1097.23 1005.66C1125.53 1034.81 1169.26 1085.4 1202.41 1125.13C1203.84 1126.84 1205.27 1127.13 1208.13 1125.98C1210.7 1124.84 1210.99 1123.98 1210.99 1121.98C1210.41 1110.84 1210.13 1100.26 1210.13 1090.26V1014.52C1210.13 988.223 1212.13 983.078 1222.7 981.649L1227.56 981.078C1228.99 980.792 1229.28 979.363 1229.28 977.648C1229.28 975.933 1228.71 974.504 1227.28 974.79C1218.7 975.361 1210.41 975.361 1204.7 975.361C1198.7 975.361 1188.12 975.076 1179.55 974.79C1178.12 974.79 1177.55 975.933 1177.55 977.648C1177.26 979.363 1178.12 981.078 1179.26 981.078C1196.98 981.935 1199.27 985.651 1199.27 1014.52V1084.25L1200.98 1082.54C1168.4 1049.39 1138.1 1014.52 1109.81 977.648C1108.38 975.647 1108.09 974.79 1105.52 975.076C1092.66 975.647 1079.8 975.647 1066.94 974.79C1065.51 974.504 1064.94 975.933 1064.94 977.648C1064.65 979.363 1065.22 980.792 1066.65 981.078C1083.8 984.507 1088.66 989.652 1088.66 1007.37V1083.11C1088.66 1109.41 1086.66 1114.55 1076.08 1115.98L1071.22 1116.55C1069.8 1116.84 1069.51 1118.27 1069.51 1119.98C1069.51 1121.7 1070.08 1123.13 1071.51 1122.84C1080.08 1122.27 1088.37 1122.27 1094.09 1122.27C1100.09 1122.27 1108.09 1122.55 1116.67 1122.84C1118.1 1122.84 1118.67 1121.7 1118.67 1119.98C1118.95 1118.27 1118.38 1116.55 1116.95 1116.55L1112.1 1115.98C1101.52 1114.55 1099.52 1109.41 1099.52 1083.11V1004.51L1097.23 1005.66Z" fill="black"></path><path d="M1227.83 930.046C1230.4 930.046 1232.4 927.188 1232.4 922.615C1232.4 918.042 1230.4 915.184 1227.83 915.184H172.332C169.76 915.184 167.759 918.042 167.759 922.615C167.759 927.188 169.76 930.046 172.332 930.046H1227.83Z" fill="black"></path><path d="M1227.83 1181.85C1230.4 1181.85 1232.4 1178.99 1232.4 1174.42C1232.4 1169.85 1230.4 1166.99 1227.83 1166.99H172.332C169.76 1166.99 167.759 1169.85 167.759 1174.42C167.759 1178.99 169.76 1181.85 172.332 1181.85H1227.83Z" fill="black"></path><path d="M1323.78 873.314C1324.07 890.463 1310.64 904.467 1293.49 904.753C1276.34 905.039 1262.33 891.606 1262.05 874.457C1261.76 857.309 1275.2 843.304 1292.34 843.018C1292.63 843.018 1292.92 843.018 1292.92 843.018C1309.78 843.018 1323.78 856.451 1323.78 873.314ZM1269.48 873.314C1270.34 886.175 1281.2 896.179 1294.34 895.607C1307.21 894.75 1317.21 883.889 1316.64 870.742C1316.07 858.166 1305.78 848.449 1293.2 848.449C1279.77 849.02 1269.19 859.881 1269.48 873.314ZM1282.91 866.455C1282.91 863.311 1282.34 861.882 1280.34 861.596H1279.48C1278.91 860.738 1278.91 859.309 1279.77 859.024C1284.63 858.738 1288.91 858.452 1292.92 858.452C1298.35 858.452 1304.92 859.595 1304.92 866.455C1304.92 869.313 1303.2 871.885 1300.63 873.028C1300.06 873.314 1300.06 873.6 1300.63 874.743C1302.06 878.173 1304.06 881.603 1306.63 884.175C1307.49 884.746 1308.06 885.318 1308.64 885.604C1309.21 885.604 1309.21 887.033 1308.64 887.319C1307.49 887.319 1306.35 887.605 1305.21 887.605C1301.49 887.89 1298.06 885.89 1296.35 882.746L1292.92 876.744C1292.63 875.886 1291.77 875.315 1290.92 875.315C1289.77 875.315 1289.49 875.886 1289.49 876.458V879.888C1289.49 883.317 1289.49 884.461 1292.92 884.746L1293.49 885.032C1294.06 885.318 1294.06 887.033 1293.49 887.319C1291.2 887.319 1289.2 887.033 1286.34 887.033C1283.77 887.033 1281.48 887.319 1279.48 887.319C1278.91 887.033 1278.91 885.318 1279.2 885.032L1280.05 884.746C1282.63 884.175 1282.63 883.603 1282.63 879.888L1282.91 866.455ZM1289.49 871.028C1289.49 872.742 1289.77 872.742 1292.34 872.742C1294.92 873.028 1296.92 871.028 1297.2 868.741C1297.2 868.455 1297.2 868.169 1297.2 868.169C1297.2 864.454 1295.49 862.167 1292.63 862.167C1289.77 862.167 1289.49 862.739 1289.49 863.882V871.028Z" fill="black"></path></svg> 