<?xml version="1.0" encoding="UTF-8"?> <svg xmlns="http://www.w3.org/2000/svg" width="1785" height="1260" viewBox="0 0 1785 1260" fill="none"><g clip-path="url(#clip0_2081_4021)"><rect width="1260" height="1785" transform="matrix(0 1 -1 0 1785 0)" fill="white"></rect><path d="M546.871 283.868C686.989 143.749 897.76 101.928 1080.76 177.934C1263.76 253.94 1382.89 432.78 1382.51 630.938C1381.99 900.555 1163.56 1118.99 893.94 1119.51C695.783 1119.88 516.943 1000.76 440.937 817.758C364.931 634.757 406.752 423.986 546.871 283.868ZM1076.42 188.386C897.648 114.137 691.749 154.987 554.87 291.867C417.99 428.747 377.14 634.645 451.389 813.416C525.638 992.188 700.341 1108.56 893.918 1108.19C1157.3 1107.69 1370.69 894.302 1371.2 630.915C1371.56 437.338 1255.19 262.636 1076.42 188.386Z" fill="black"></path><path d="M504.1 241.1C661.531 83.6685 898.349 36.6872 1103.96 122.084C1309.57 207.482 1443.42 408.419 1443 631.06C1442.42 933.988 1196.99 1179.42 894.06 1180C671.419 1180.42 470.482 1046.57 385.084 840.961C299.687 635.349 346.668 398.531 504.1 241.1ZM1099.62 132.536C898.237 48.8964 666.302 94.9175 512.11 249.11C357.917 403.302 311.896 635.237 395.536 836.619C479.177 1038 675.976 1169.1 894.038 1168.69C1190.74 1168.12 1431.12 927.735 1431.69 631.038C1432.1 412.976 1301 216.177 1099.62 132.536Z" fill="black"></path><path d="M792.01 654.187V640.1H800.633C809.257 640.1 815.311 634.341 815.311 625.835C815.311 617.33 809.434 611.571 800.958 611.571H784.391V654.187H792.01ZM798.921 633.957H792.01V617.803H798.95C804.414 617.803 807.574 620.726 807.574 625.835C807.574 631.004 804.384 633.957 798.921 633.957ZM830.107 654.689C834.123 654.689 838.051 652.592 839.853 649.196H840V654.187H847.088V632.628C847.088 626.338 842.038 622.232 834.271 622.232C826.297 622.232 821.306 626.426 820.981 632.274H827.803C828.276 629.675 830.491 627.991 833.976 627.991C837.608 627.991 839.823 629.881 839.823 633.16V635.404L831.554 635.876C823.935 636.349 819.652 639.686 819.652 645.238C819.652 650.879 824.053 654.689 830.107 654.689ZM832.322 649.137C829.132 649.137 827.006 647.512 827.006 644.943C827.006 642.462 829.044 640.867 832.588 640.631L839.823 640.188V642.58C839.823 646.361 836.486 649.137 832.322 649.137ZM867.229 654.807C874.878 654.807 880.076 650.466 880.962 643.909H873.992C873.165 647.04 870.832 648.871 867.288 648.871C862.652 648.871 859.669 645.002 859.669 638.534C859.669 632.185 862.622 628.198 867.259 628.198C870.921 628.198 873.165 630.383 873.933 633.189H880.903C880.046 627.076 875.055 622.232 867.17 622.232C858.074 622.232 852.256 628.612 852.256 638.534C852.256 648.605 858.074 654.807 867.229 654.807ZM899.774 654.807C908.958 654.807 914.924 648.694 914.924 638.534C914.924 628.405 908.899 622.232 899.774 622.232C890.648 622.232 884.624 628.434 884.624 638.534C884.624 648.694 890.589 654.807 899.774 654.807ZM899.774 648.989C895.108 648.989 892.095 645.209 892.095 638.534C892.095 631.89 895.137 628.08 899.774 628.08C904.44 628.08 907.452 631.89 907.452 638.534C907.452 645.209 904.44 648.989 899.774 648.989ZM923.695 665.822C930.842 665.822 934.297 663.194 936.985 655.427L948.296 622.882H940.558L933.175 647.926H933.057L925.674 622.882H917.641L928.775 654.216C928.804 654.305 928.361 655.87 928.361 655.959C927.534 658.853 925.969 660.004 922.927 660.004C922.484 660.004 921.185 659.975 920.801 659.886V665.704C921.185 665.793 923.282 665.822 923.695 665.822ZM952.371 654.511C959.725 654.511 962.087 648.664 962.678 639.598L963.416 628.552H972.335V654.187H979.659V622.882H957.067L956.063 639.214C955.767 644.411 954.763 648.073 951.721 648.073C950.894 648.073 950.274 647.926 949.979 647.837V654.157C950.363 654.305 951.219 654.511 952.371 654.511ZM993.421 654.187L1007.04 633.13H1007.27V654.187H1014.48V622.882H1007.27L993.657 643.791H993.421V622.882H986.215V654.187H993.421Z" fill="black"></path></g><defs><clipPath id="clip0_2081_4021"><rect width="1260" height="1785" fill="white" transform="matrix(0 1 -1 0 1785 0)"></rect></clipPath></defs></svg> 