<?xml version="1.0" encoding="UTF-8"?> <svg xmlns="http://www.w3.org/2000/svg" width="100" height="100" viewBox="0 0 100 100" fill="none"> <g clip-path="url(#clip0_3312_2553)"> <g clip-path="url(#clip1_3312_2553)"> <path d="M54.2454 99.7186C55.0092 99.6518 55.7929 99.5832 56.572 99.4629C76.5997 96.7988 93.0462 82.3209 98.2333 62.7883C103.42 43.2557 96.325 22.5209 80.2598 10.2642C64.2087 -2.00646 42.3486 -3.39518 24.8758 6.74576C7.40307 16.8867 -2.24004 36.5595 0.444412 56.5879C3.99047 83.0271 27.6769 102.016 54.2454 99.7186ZM97.3425 44.7398C100.172 70.492 81.9233 93.7895 56.2499 97.2015C37.146 99.7501 18.3871 90.5395 8.71624 73.8626C-0.954573 57.1856 0.366103 36.3246 12.0627 21.0024C19.7143 10.9302 31.0767 4.33948 43.6167 2.69952C44.3618 2.60225 45.092 2.51832 45.8399 2.45288C71.6416 0.208627 94.5131 18.9876 97.3425 44.7398ZM91.5288 30.3079C83.0948 11.9935 63.7023 1.32649 43.7247 4.01284C20.3487 7.15973 3.14329 27.4869 3.89515 51.0693L3.90345 51.3102C3.95886 52.7552 4.11581 54.1946 4.37318 55.6177C5.62112 65.0462 9.77734 73.8509 16.2631 80.8055C16.5231 81.1115 16.7999 81.4029 17.0922 81.6783C26.4451 91.2288 39.4934 96.2294 52.831 95.3746C52.7758 95.3073 52.7113 95.2482 52.6394 95.1991C52.2107 94.9582 52.0015 94.4558 52.1325 93.9817C51.9321 94.0714 51.9062 94.37 51.7549 94.2431C51.6037 94.1161 51.4039 93.8011 51.4607 93.672C51.7419 93.0866 51.5486 92.6629 51.1764 92.2068C50.7566 91.6179 50.2864 91.0666 49.7709 90.5594C48.6749 89.6858 47.6856 88.686 46.8235 87.5808C46.1386 86.6634 45.6126 85.6399 44.9679 84.6789C44.7066 84.3012 44.3778 83.9295 44.1165 83.5518C43.8347 83 43.4534 82.5051 42.9917 82.092C42.6711 81.8412 42.4008 81.5318 42.1952 81.1804C42.0827 80.9956 41.9831 80.8005 41.8853 80.6034L41.8053 80.442C41.503 79.8318 41.1872 79.2258 40.524 78.8752C40.4161 78.8326 40.3319 78.6477 40.3994 78.6418C40.7248 78.5612 40.6053 78.4315 40.4381 78.3059C40.1453 78.0802 40.0459 77.6827 40.198 77.3456C40.2465 77.0786 40.2751 76.8083 40.2834 76.537C40.4673 76.6251 40.6611 76.6442 40.6778 76.835C40.7696 77.4718 41.1749 76.7034 41.3397 76.9854C41.5898 76.8233 41.4045 76.7193 41.3018 76.5521C40.7389 75.7415 40.0922 74.9926 39.3724 74.3176C38.0205 73.0521 36.781 71.6716 35.6679 70.1916C35.2477 69.5995 34.7614 69.0292 34.3752 68.4141C33.95 67.7183 32.9246 67.2112 33.5461 66.1234C33.5499 66.1061 33.5483 66.0881 33.5416 66.0717C33.3403 65.778 33.3801 65.3819 33.6358 65.1342C33.7573 64.9447 33.7756 64.7069 33.6845 64.501C33.54 64.1532 33.5921 63.7546 33.8213 63.4557C34.0575 63.1346 33.8098 62.9119 33.5833 62.9317C33.1691 63.004 32.8263 62.7016 32.4806 62.7318C31.9569 62.7416 31.7866 62.5802 31.8475 62.0862C31.8596 62.0051 31.8331 61.923 31.776 61.8642C31.5831 61.6728 30.085 61.5755 29.9658 61.8143C29.7806 62.1904 29.5266 62.205 29.258 62.187L29.2074 62.1833C29.1905 62.182 29.1736 62.1806 29.1566 62.1793L29.1057 62.1755C29.0291 62.1703 28.9521 62.1673 28.8761 62.174C28.8692 62.0957 28.8861 62.012 28.9054 61.9296L28.9171 61.8803C28.9577 61.7089 28.9896 61.549 28.8138 61.4624C28.5376 61.3264 28.4473 61.6667 28.2832 61.8052C27.942 62.1155 27.6282 62.5114 27.1145 62.4522C26.9398 62.4475 26.7651 62.4628 26.5939 62.4978C26.3048 62.427 26.1545 62.5807 26.0187 62.7434L25.9849 62.7841C25.9289 62.8518 25.8737 62.918 25.8101 62.9669C25.4604 63.2258 25.0249 63.1918 24.6715 63.3629C23.2808 64.0814 21.9075 64.8144 20.5585 65.5974C19.9281 65.9229 19.3456 66.3337 18.8273 66.8183C18.762 66.917 18.66 66.9855 18.5439 67.0085C18.4277 67.0314 18.3073 67.0069 18.2094 66.9404C18.1528 66.907 18.1158 66.8484 18.1101 66.7829C18.1043 66.7174 18.1306 66.6532 18.1805 66.6105C18.3027 66.4851 18.4109 66.3451 18.5167 66.2029L18.5869 66.1078C18.8441 65.7589 19.1021 65.4123 19.5307 65.2467C20.0489 65.0199 20.5251 64.7074 20.9394 64.3223C21.2222 64.0851 21.3727 63.7257 21.3435 63.3577C21.322 63.1112 21.5418 62.6033 21.9392 62.5686C23.1932 62.5309 24.287 61.9426 25.461 61.6316C25.8525 61.5292 26.2778 61.0354 26.1769 60.6597C26.0994 60.3714 25.7759 60.3712 25.45 60.4024L25.3908 60.4083L25.3319 60.4146C25.2732 60.421 25.2154 60.4274 25.1599 60.4322C25.0417 60.4685 24.921 60.4965 24.7988 60.5159C24.0867 60.6143 23.4772 61.0161 22.8129 61.2504C22.4894 61.3508 22.0206 61.6682 21.8348 61.2839C21.649 60.8996 22.1271 60.5974 22.409 60.4326C23.4266 59.8429 24.0375 58.8161 24.9207 58.11C25.3842 57.7329 25.6382 57.0658 26.1 56.7611C26.8277 56.2503 27.5904 55.7914 28.3824 55.3878C28.65 55.2622 28.9134 55.1224 29.1761 54.9794L29.3731 54.8717L29.5045 54.7997C29.5264 54.7877 29.5483 54.7757 29.5703 54.7638L29.7019 54.6923C30.6683 54.1701 31.659 53.7039 32.8518 53.8392C33.395 53.8357 33.936 53.7709 34.4646 53.646C34.511 53.6419 34.563 53.6505 34.614 53.6609L34.6417 53.6666C34.8068 53.7015 34.9493 53.7343 34.8422 53.3846C34.8133 53.283 35.1272 53.2556 35.02 53.0366C34.7418 53.061 34.2976 53.3842 34.3613 52.6937C34.3429 52.483 34.1235 52.5383 33.9486 52.5536C33.7967 52.5562 33.6387 52.6016 33.4794 52.6449L33.4156 52.662C33.1176 52.7403 32.817 52.7905 32.5442 52.5202C32.469 52.4387 32.4205 52.479 32.3892 52.5338C32.1507 53.0113 31.7602 53.0731 31.3522 53.0918L31.284 53.0946C31.2613 53.0955 31.2385 53.0962 31.2157 53.097L31.1474 53.0994C31.0107 53.1043 30.8746 53.1114 30.744 53.1344C30.6427 53.1492 30.5528 53.1055 30.4622 53.0588L30.4203 53.0373C30.2801 52.9661 30.1338 52.9079 29.9371 53.0648C29.3681 53.4738 28.6486 53.6128 27.9682 53.4453C27.3523 53.3027 26.7049 53.4157 26.1737 53.7585C25.6105 54.1402 24.8848 54.0836 24.2988 54.5714C23.7585 54.9637 23.1105 55.1799 22.4429 55.1904C22.3038 55.1661 22.1609 55.2034 22.0515 55.2928C21.4801 55.9476 20.6206 56.147 19.9662 56.6769C19.808 56.8022 19.6367 56.918 19.4652 57.0336L19.3367 57.1204C19.0163 57.3379 18.7063 57.5626 18.4916 57.8553C18.0492 58.4877 17.5069 59.0438 16.8859 59.5019C16.4813 59.8251 16.1249 60.2042 15.8271 60.6279C15.6838 60.8035 15.568 60.9967 15.4543 61.1897L15.3862 61.3053C15.2041 61.6128 15.0144 61.911 14.713 62.1273C14.0527 62.5896 13.685 63.3748 12.8703 63.6744C12.8308 63.6899 12.807 63.753 12.7848 63.8209L12.77 63.8664C12.7602 63.8966 12.75 63.9258 12.7383 63.9503L12.7052 64.0236L12.6556 64.1338C12.4174 64.6608 12.1548 65.1804 11.4896 65.2853L11.3148 65.3006C11.3293 65.2833 11.3605 65.2285 11.3605 65.2285C11.027 64.8928 10.8752 64.4172 10.9524 63.9504C11.0506 63.3941 11.2602 62.8635 11.5687 62.3904L11.9188 61.815C11.9971 61.704 12.0769 61.6089 12.1567 61.5138C12.5018 61.0976 12.7798 60.63 12.9804 60.1279C13.0227 60.0428 13.0499 59.951 13.0608 59.8565C13.8718 58.5078 14.6653 57.1887 15.5124 55.8408C15.9609 55.1273 16.3568 54.3779 16.7471 53.6254L17.007 53.1237C17.267 52.6222 17.5291 52.1226 17.8073 51.6346C18.5847 50.7084 19.271 49.7094 19.8567 48.6514C20.0373 48.3352 20.3762 48.1814 20.4447 47.7748C20.4474 47.7629 20.4463 47.7504 20.4416 47.7391C21.3362 46.4311 22.2272 45.1275 23.1103 43.8245C23.6203 43.0629 24.1625 42.2584 24.9623 41.7879C25.8445 41.2541 27.8715 40.9887 28.649 41.8659C28.6788 41.8883 28.7043 41.916 28.7242 41.9475C28.8308 42.5403 29.2301 43.0389 29.7851 43.2726C30.1603 43.396 30.8217 43.1298 31.1347 43.503C31.4476 43.8762 31.0651 44.3102 31.0641 44.7108C31.0703 44.7417 31.0919 44.7673 31.1214 44.7785C31.1508 44.7898 31.1839 44.7851 31.2091 44.7662C31.3824 44.6546 31.502 44.7677 31.6114 44.8912L31.6425 44.9266C31.699 44.9914 31.7539 45.0534 31.8134 45.0819C31.9026 45.1198 32.0026 45.1238 32.0947 45.0933C32.2142 45.0548 32.3535 44.8973 32.4979 44.7321L32.5601 44.6611C32.6641 44.5432 32.7697 44.4294 32.8714 44.3604C32.9961 44.3362 33.1251 44.3486 33.2429 44.396C33.2787 44.3929 33.2787 44.3929 33.2787 44.3929L33.3073 44.411C33.3633 44.4491 33.4114 44.4977 33.449 44.5542C33.5114 44.673 33.5576 44.7891 33.6201 44.9078C33.6846 45.0515 33.7791 45.1799 33.8972 45.2841C34.1061 45.4741 34.4169 45.4109 34.6274 45.6208C34.7827 45.8461 34.8822 46.1051 34.9178 46.3764C35.0296 46.647 35.1436 46.9895 35.4666 47.0654C35.7687 47.1063 36.0677 46.9713 36.237 46.7176C36.4732 46.4887 36.6422 46.1775 36.997 46.2506C37.2612 46.2956 37.3875 46.5489 37.6557 46.5935C38.0249 46.6493 38.1255 46.3802 38.098 46.0661C38.0577 45.612 37.7846 45.2113 37.3768 45.0077C37.1248 44.8735 36.6238 44.7772 36.5288 44.4691C36.355 43.8554 36.9925 43.7275 37.4804 43.7209C37.5914 43.7993 37.7023 43.8777 37.8332 43.9544C38.0728 44.1297 38.3219 44.1399 38.2307 44.5164C38.2353 44.5681 38.1197 44.6663 38.1242 44.718C38.0892 44.8151 38.0986 44.9227 38.15 45.0122C38.2162 45.0791 38.2859 45.1425 38.3588 45.2022C38.6273 45.4791 38.5307 45.7479 38.3271 46.0301C38.0892 46.2709 38.0773 46.6546 38.3 46.9097C38.5323 47.1857 38.7581 46.9737 39.0113 46.8474C39.7698 46.5007 40.0883 47.35 40.3794 47.8853L39.7964 48.0405C39.7465 48.0649 39.7152 48.1197 39.7197 48.1713C39.8997 48.5205 40.2423 48.5476 40.5952 48.5409L40.6636 48.5393L40.732 48.5372L40.8001 48.5353C40.9361 48.5318 41.0691 48.5316 41.1905 48.5514C41.4454 48.5681 41.6904 48.6564 41.8975 48.806C42.181 49.0255 42.121 49.3472 42.0593 49.649C41.9776 49.8628 41.9741 50.0986 42.0495 50.3147C42.1216 50.4634 42.2602 50.5688 42.4227 50.5985C42.6714 50.6489 42.7341 50.5873 42.9319 50.8344C42.9912 50.9173 42.9815 50.9902 43.0391 51.0533C43.0967 51.1164 43.1293 51.0774 43.1841 51.1087C43.3383 51.132 43.474 51.223 43.5542 51.3567C43.5948 51.4211 43.6417 51.4814 43.694 51.5367C43.8672 51.7075 44.0841 51.8271 44.3209 51.8824C44.3449 51.8908 44.3713 51.8888 44.3938 51.877C44.4163 51.8652 44.4329 51.8445 44.4396 51.82C44.4516 51.7561 44.4458 51.6901 44.4229 51.6292C44.438 51.6011 44.435 51.5667 44.4152 51.5417C44.154 51.164 44.2323 51.053 44.6791 51.1702C45.0171 51.0525 45.1448 51.0934 45.0415 51.3307L45.0406 51.327C45.0347 51.3179 45.0049 51.4441 45.0047 51.5L45.0051 51.5102C44.9835 51.5678 44.9891 51.6321 45.0204 51.6851C45.0825 51.7998 45.3127 51.8678 45.4359 51.857C45.5782 51.8727 45.718 51.8109 45.8022 51.6951C45.8864 51.5793 45.9021 51.4272 45.8433 51.2966C45.7846 51.1741 45.7154 51.0569 45.6365 50.9462C45.5528 50.8133 45.356 50.1657 45.7275 50.2012C45.8149 50.1936 45.9738 50.408 46.0689 50.4878C46.164 50.5676 46.2777 50.6778 46.3887 50.7562C46.597 50.8942 46.9376 50.9886 47.0682 50.6968C47.1417 50.5301 47.0272 50.2277 47.0119 50.0528C47.0244 49.8262 46.9742 49.6005 46.8667 49.4006C46.783 49.2677 46.7544 49.3063 46.5673 49.1825C46.4456 49.1018 46.4675 49.209 46.4527 49.1715L46.4489 49.1611C46.4392 49.1333 46.4188 49.0692 46.3695 48.9354C46.2595 48.6847 46.2481 48.7377 46.3348 48.5379C46.3759 48.4566 46.41 48.3718 46.4367 48.2846C46.5248 47.8724 46.1585 47.4839 45.8233 47.2688C45.7313 47.2081 45.6329 47.1576 45.5298 47.1183L45.5298 47.1125C45.5314 47.0879 45.5581 47.0963 45.4723 47.0552C45.3803 47.0112 45.3644 47.0126 45.3128 47.0171L45.3202 46.9997C45.3634 46.9219 45.5171 46.8868 45.5552 46.7676C45.6237 46.3925 45.4593 46.0131 45.1388 45.8066C44.8096 45.6592 44.5027 45.9504 44.1978 46.0812C44.1522 45.9033 44.0309 45.7543 43.8658 45.6737C43.6413 45.5331 43.0783 45.0937 43.054 44.8154C43.006 44.6794 43.0699 44.5857 43.022 44.4497C42.9966 44.3721 42.9605 44.2984 42.9147 44.2308C42.888 44.0777 42.8976 43.9205 42.9426 43.7717C42.9707 43.6812 43.065 43.5688 43.056 43.4654C43.0557 43.3992 43.0062 43.3434 42.9405 43.3353L42.8372 43.3444C42.6981 43.3565 42.7295 43.3498 42.5999 43.2409C42.4702 43.1321 42.2999 43.1991 42.3166 43.3899C42.3446 43.5235 42.3856 43.6541 42.4388 43.7798C42.3347 43.7175 42.2177 43.6798 42.0968 43.6695C41.9007 43.658 41.7226 43.7831 41.6667 43.9715C41.6473 44.036 41.6849 44.1833 41.7267 44.3314L41.7461 44.3995C41.7911 44.5571 41.8315 44.701 41.8011 44.7288C41.6714 44.8483 41.6005 44.4499 41.4722 44.357C41.344 44.2641 41.2111 44.3478 41.078 44.4275C40.7489 44.6486 40.7642 44.8235 40.6699 45.1642C40.603 45.3675 40.48 45.5477 40.315 45.6839C40.274 45.6865 40.237 45.7093 40.2162 45.7446C40.0975 45.8071 39.9869 45.7327 39.9236 45.4218C39.9199 45.2875 39.9256 45.1532 39.9405 45.0197C39.8918 44.6915 39.6372 44.5736 39.3781 44.404C39.198 44.2961 39.0245 44.1776 38.8585 44.0489C38.6861 43.9016 38.565 43.7031 38.5127 43.4824C38.4879 43.4285 38.4176 43.4026 38.4144 43.3668C38.3694 43.2475 38.384 43.1138 38.4539 43.0071C38.5237 42.9004 38.6403 42.8336 38.7677 42.8272C39.0629 42.7693 39.2914 42.8174 39.1652 43.1609C39.0754 43.3227 39.0478 43.5117 39.0876 43.6924C39.1753 44.0533 39.6123 44.4717 39.9867 44.1745C40.201 44.0156 40.0938 43.7967 40.2148 43.5778C40.3358 43.3589 40.4181 43.4759 40.5623 43.3391C40.5978 43.3161 40.6256 43.283 40.6421 43.244C40.6579 43.2353 40.6767 43.2336 40.6937 43.2395C40.7667 43.2491 40.7544 43.3383 40.8464 43.3823C40.9383 43.4264 41.0633 43.4355 41.1041 43.3077C41.145 43.18 40.9779 43.0544 40.8845 42.9945C40.7721 42.9285 40.6504 42.8798 40.5235 42.8498C40.5005 42.8158 40.4673 42.8027 40.4284 42.77C40.1021 42.588 39.8311 42.3211 39.6441 41.9975C39.8981 41.9989 40.1451 42.0811 40.3493 42.2322C40.4416 42.2802 40.485 42.3645 40.6224 42.3325C40.7597 42.3004 40.7956 42.1611 40.8061 42.052C40.8073 42.0392 40.8077 42.0202 40.8079 41.9968L40.808 41.8916C40.8092 41.6926 40.8245 41.4035 40.9808 41.4399C41.0839 41.6447 41.162 41.8611 41.2133 42.0845C41.2359 42.3429 40.9845 42.2607 40.8979 42.4606C40.8846 42.4842 40.8841 42.513 40.8968 42.537C40.9094 42.5609 40.9333 42.5769 40.9603 42.5793C41.0531 42.6019 41.1436 42.6881 41.2383 42.7805L41.2764 42.8176C41.4426 42.9789 41.6238 43.1359 41.8531 42.9898C41.9701 42.9075 41.961 42.8042 41.9489 42.665C41.9143 42.5217 41.9136 42.3723 41.9467 42.2286C42.0234 42.0726 42.1228 41.929 42.2418 41.8023C42.2685 41.6958 42.2858 41.7103 42.3292 41.7946C42.3726 41.8789 42.3785 41.9465 42.4423 42.0811C42.5062 42.2157 42.5728 42.3821 42.6352 42.5008C42.6977 42.6196 42.8094 42.8902 42.9544 42.9456C43.1888 43.0612 43.2581 42.8469 43.2772 42.653C43.4 42.6593 43.523 42.6486 43.6428 42.621C43.6587 42.6196 43.6899 42.5648 43.6868 42.529C43.5853 42.3296 43.6764 42.1814 43.9628 42.0683L44.0752 42.1626C44.2025 42.2533 44.3224 42.354 44.4339 42.4636C44.4514 42.4856 44.4787 42.4973 44.5067 42.4949C44.5347 42.4924 44.5595 42.4761 44.573 42.4515C44.8426 42.3758 44.9703 42.4167 44.9839 42.5717L44.9884 42.6234C44.9916 42.6592 44.9943 42.691 44.9975 42.7268C45.0262 42.7731 45.0653 42.8122 45.1116 42.841C45.1871 42.861 45.2672 42.854 45.3381 42.8211C45.4047 42.7769 45.4798 42.7471 45.5587 42.7337C45.5763 42.7522 45.5237 42.9291 45.5268 42.9648C45.5303 42.9974 45.5458 43.0274 45.5703 43.0492C45.6149 43.0802 45.6543 43.1592 45.6958 43.245L45.7114 43.2774C45.8089 43.4783 45.9229 43.6883 46.1455 43.3994C46.1841 43.3251 46.2122 43.2458 46.229 43.1638C46.2518 42.8293 46.4751 42.7737 46.8605 42.9683C46.8651 43.02 46.8682 43.0558 46.8727 43.1075C46.9938 43.3103 47.0672 43.5382 47.0872 43.7736C47.1135 43.9238 47.1937 44.0592 47.3127 44.1544C47.4753 44.2283 47.5034 44.1378 47.638 44.0739C47.8714 43.9494 47.6625 43.7593 48.3244 43.9097C48.2572 43.8972 48.5283 44.0201 48.5306 44.0043L48.5293 44.0017L48.5407 44.013C48.6492 44.1287 48.6009 44.2288 48.5002 44.3194L48.4855 44.3322L48.3776 44.2896L48.1778 44.2029C48.057 44.1607 47.9239 44.1724 47.8123 44.2349C47.7215 44.3002 47.6943 44.4234 47.7492 44.5208C47.7781 44.5612 47.8167 44.5936 47.8615 44.6151C47.8845 44.6492 47.9362 44.6446 47.9521 44.6433C47.968 44.6419 48.0196 44.6373 48.0196 44.6373C48.0414 44.7035 48.098 44.7547 48.1039 44.8222C48.098 44.8393 48.0997 44.8581 48.1084 44.8739C48.0782 44.9142 48.0394 44.9573 47.9994 45.002L47.9726 45.032C47.8162 45.2082 47.6662 45.403 47.9581 45.536C48.2127 45.6539 48.5861 45.3448 48.8543 45.3895C49.261 45.462 49.0444 45.7774 48.9016 45.9301C48.7587 46.0828 48.6137 46.2557 48.4723 46.4243C48.4564 46.4416 48.4485 46.4648 48.4505 46.4882C48.4526 46.5117 48.4644 46.5332 48.4831 46.5475C48.5625 46.6175 48.6664 46.6531 48.772 46.6464C49.0176 46.6609 49.1305 46.579 49.2766 46.8305C49.3047 46.9004 49.3401 46.9671 49.3822 47.0296C49.4224 47.0781 49.5067 47.0347 49.5099 47.0705C49.7607 47.3289 49.656 47.3221 49.6415 47.5677C49.6041 47.7831 49.7471 47.9886 49.962 48.0283C50.3225 48.1209 50.6783 47.5651 50.9305 48.0677C50.9376 48.0939 50.9574 48.1147 50.9832 48.123C51.009 48.1313 51.0373 48.1259 51.0582 48.1086C51.144 48.0562 51.2159 47.9839 51.268 47.898L51.2852 47.8965C51.3015 47.8951 51.3197 47.8935 51.3197 47.8935C51.3884 47.8281 51.4845 47.8003 51.5775 47.8189C51.5947 47.8334 51.6495 47.8646 51.6495 47.8646L51.7446 47.9444C51.795 48.0319 51.8615 48.109 51.9407 48.1716C51.9968 48.2188 52.1703 48.1876 52.2438 48.2492C52.3172 48.3109 52.2944 48.6454 52.3569 48.7641C52.4166 48.8706 52.5031 48.9596 52.6077 49.0225C52.8686 49.212 53.0183 48.7262 53.0297 49.6345C53.0359 49.706 52.9902 49.7781 52.9978 49.8656C53.001 49.952 53.0322 50.035 53.0866 50.1022C53.1618 50.1837 53.2302 50.1417 53.3009 50.1715C53.7146 50.3482 53.6029 50.5085 53.4361 50.699L53.4113 50.7271C53.403 50.7365 53.3945 50.746 53.3861 50.7556L53.3607 50.7847C53.3312 50.8189 53.3021 50.8541 53.2757 50.8907C53.1704 51.0601 52.8681 51.403 53.0411 51.5962C53.1177 51.6936 53.3085 51.6769 53.3959 51.6693L53.607 51.7029C53.6101 51.836 53.6217 51.9688 53.6418 52.1004C53.5328 52.1494 53.4197 52.1888 53.3037 52.2181C52.9524 52.413 52.854 52.8903 52.708 53.2355C52.6771 53.2943 52.7387 53.357 52.8063 53.3511C53.0836 53.3629 53.3419 53.3403 53.6041 53.3174C53.8852 53.2567 54.1751 53.249 54.4591 53.2946C54.6981 53.353 54.8588 53.5771 54.8376 53.8223C54.8466 53.9256 54.8095 53.9129 54.8543 54.0131C54.8772 54.0786 54.9183 54.1361 54.9729 54.1789C55.1798 54.301 55.4055 54.089 55.5514 53.9721C55.8953 53.7114 56.2038 53.407 56.4693 53.0667C56.582 52.9367 56.6016 52.7947 56.7127 52.6448C56.8479 52.4705 57.093 52.4266 57.2804 52.5431C57.3175 52.5559 57.3538 52.6048 57.3896 52.6016C57.4972 52.6516 57.6123 52.6835 57.7302 52.696C58.0553 52.7079 58.3474 52.8979 58.4902 53.1903C58.5992 53.4291 58.4705 53.5605 58.4546 53.7902C58.4223 53.9335 58.4932 54.0802 58.6257 54.1438C58.8789 54.2458 59.0256 54.0927 59.1123 53.8929L59.1213 53.9963C59.1222 54.0199 59.1331 54.042 59.1512 54.0572C59.1693 54.0724 59.193 54.0793 59.2164 54.0761C59.5456 54.2235 59.648 54.3868 59.4884 54.577L59.4899 54.6017C59.4922 54.6853 59.4626 54.6931 59.468 54.755C59.4943 54.8328 59.5503 54.897 59.6238 54.9336C59.7506 55.0107 60.0143 55.0036 59.9983 55.2333C59.989 55.2807 59.9618 55.3173 59.9321 55.3526L59.9023 55.3879C59.8629 55.4354 59.8283 55.4865 59.8351 55.564C59.8405 55.6331 59.8787 55.6953 59.9378 55.7313C59.9966 55.7622 60.0125 55.7608 60.0641 55.7563L60.311 55.7868C60.4758 55.834 60.5794 55.9969 60.5525 56.1662C60.555 56.2714 60.5109 56.3728 60.4591 56.4727L60.4304 56.5271C60.3335 56.708 60.2346 56.8857 60.3677 57.0756C60.3907 57.1096 60.4239 57.1227 60.4628 57.1554C60.5508 57.24 60.6579 57.302 60.775 57.3364C61.0511 57.4724 60.9863 57.7384 60.8268 57.9286L60.7751 57.9332C60.6459 58.0126 60.299 58.075 60.4125 58.3654C60.526 58.6559 60.9938 58.4187 61.1545 58.4247C61.1842 58.4258 61.2102 58.4253 61.2322 58.4251L61.2567 58.425C61.3323 58.4258 61.3454 58.4418 61.293 58.5888C61.2569 58.6829 61.205 58.7701 61.1393 58.8466C61.0528 58.9673 61.0041 59.111 60.9993 59.2594C61.0038 59.3111 61.0282 59.361 61.0957 59.3551C61.2706 59.3398 61.968 59.1186 61.7027 59.7025C61.6601 59.8104 61.5383 59.8371 61.4784 59.9305C61.2916 60.1751 61.5053 60.4208 61.3 60.6831C61.2941 60.7002 61.2958 60.7189 61.3045 60.7348C61.2847 60.7528 61.2738 60.7787 61.2747 60.8055C61.2845 60.9522 61.3685 61.0838 61.4974 61.1545C61.7664 61.2862 61.9869 61.4997 62.1274 61.7643C62.2998 62.1337 62.3699 62.5682 62.7096 62.8349C62.8972 62.9636 63.1151 63.0412 63.3419 63.0599C63.5354 63.0751 63.9309 62.9724 64.0949 63.0622C64.2573 63.1405 64.1975 63.3155 64.1279 63.5049L64.108 63.5594C64.0517 63.7143 64.0022 63.8736 64.0722 63.9934C64.0854 64.0213 64.1135 64.0391 64.1443 64.0392C64.2635 64.0287 64.3784 64.3351 64.5692 64.3184C64.6522 64.3087 64.7294 64.2708 64.788 64.2112C64.8212 64.3472 64.8745 64.4775 64.946 64.5979C64.827 64.9298 64.5969 65.2103 64.2947 65.3919C64.0951 65.4215 63.9116 65.5181 63.7741 65.6658C63.4867 65.9513 63.0706 66.1839 62.9672 65.5962C62.9559 65.5156 62.9498 65.4306 62.9436 65.3445L62.9383 65.2704C62.9158 64.9738 62.8756 64.6749 62.6075 64.5061C62.5884 64.4872 62.5619 64.4777 62.5352 64.4801C62.5084 64.4824 62.484 64.4964 62.4684 64.5183C62.0223 65.4145 62.145 66.4051 62.3661 67.3311C61.8955 67.3522 61.7642 68.277 61.3758 68.4151C61.389 68.1536 61.3837 67.9097 61.3965 67.6442C61.3965 67.6187 61.3863 67.5942 61.3682 67.5763C61.3501 67.5583 61.3255 67.5483 61.3 67.5485C61.0761 67.5521 61.0516 67.6383 60.927 67.8615C60.8024 68.0847 60.6474 68.0983 60.4109 68.1871C60.3278 68.1968 60.2506 68.2347 60.192 68.2943C60.1018 68.4614 60.1197 68.6662 60.2376 68.8151C60.2977 68.8943 60.3519 68.978 60.3996 69.0653C60.3397 69.1586 60.2772 69.2682 60.2173 69.3616C60.1816 69.3647 60.1657 69.3661 60.1299 69.3692C59.9805 69.349 59.8323 69.3205 59.686 69.2839C59.5896 69.2839 59.4949 69.3102 59.4123 69.3599C59.3624 69.3843 59.3135 69.4206 59.2809 69.4595C59.2483 69.4984 59.198 69.5188 59.1654 69.5578C59.0686 69.4581 58.9562 69.3638 58.8597 69.2681C58.8472 69.125 59.1871 68.7988 59.2654 68.6878C59.4091 68.499 59.546 68.2787 59.6684 68.0758C60.1109 67.344 60.4606 66.5599 60.7095 65.7416C60.7376 65.651 60.5895 65.5599 60.5468 65.6677C60.3481 66.2339 60.1396 66.8249 59.5673 67.1033C59.5265 67.122 59.5077 67.1696 59.5247 67.2112C59.6178 67.4353 59.5471 67.694 59.3529 67.8396C59.1587 67.9851 58.8906 67.9803 58.7017 67.8279C58.5444 67.6975 58.407 67.5449 58.2937 67.3749C58.054 67.0681 57.7714 66.7974 57.4545 66.5711C57.398 66.52 57.3155 66.5833 57.3214 66.6509C57.3237 66.9678 57.4369 67.2739 57.6413 67.5161C57.7399 67.6147 57.8469 67.7045 57.9611 67.7845C58.0337 67.8321 58.1025 67.8849 58.1672 67.9427L58.2075 67.9913C58.1512 68.1752 58.0855 68.3561 58.0106 68.5332C57.5539 68.7134 57.4198 67.7758 57.255 67.4938C57.1583 67.3108 57.005 67.164 56.8179 67.0754C56.6242 67.0041 56.4071 67.043 56.2502 67.1772C56.1373 67.2592 56.0447 67.3914 55.9275 67.4698C55.5962 67.7111 55.3416 67.5931 55.0436 67.3909C54.8354 67.2529 54.358 66.786 54.0282 66.8148C54.118 66.6508 54.2289 66.7292 54.3604 66.6295C54.4671 66.5586 54.5128 66.4248 54.472 66.3034C54.4643 66.2159 54.3706 66.152 54.3647 66.0844C54.2985 65.933 54.3324 65.7564 54.45 65.6404C54.4966 65.6751 54.5461 65.7056 54.5981 65.7315C54.7006 65.8543 54.7783 65.9958 54.8268 66.1481C54.8353 66.1778 54.86 66.1999 54.8904 66.2049C54.9208 66.21 54.9514 66.197 54.969 66.1717C55.1445 65.9801 55.311 66.282 55.4896 66.1262C55.5754 66.049 55.5868 65.9184 55.5155 65.8275C55.3313 65.5072 54.8457 65.5857 54.6178 65.3613C54.7189 65.1442 54.8362 65.0658 54.9971 65.1198C55.0661 65.1298 55.1421 65.1753 55.2097 65.1693C55.3065 65.1822 55.4022 65.2033 55.4955 65.2325C55.7391 65.2838 55.9791 65.3511 56.2138 65.434C56.4339 65.5229 56.7093 65.8793 56.933 65.8277C57.1567 65.7761 57.4052 65.2296 57.4946 65.0616C57.5841 64.8935 57.7096 64.7263 57.5896 64.5446C57.5303 64.4616 57.4397 64.4335 57.3821 64.3704C57.095 64.0631 57.3814 63.7216 57.5668 63.4611C57.7175 63.2597 57.8829 63.0699 58.0617 62.893C58.1429 62.8138 58.359 62.6748 58.3998 62.547C58.4311 62.4922 58.3891 62.4238 58.3845 62.3721C58.3665 62.1654 58.0229 62.4038 58.3855 61.9715C58.4692 61.8896 58.5735 61.8321 58.6873 61.8049C59.0657 61.7357 59.277 62.1378 59.6182 62.0559C59.6418 62.055 59.664 62.0441 59.6792 62.026C59.6944 62.0079 59.7012 61.9842 59.698 61.9608C59.6576 61.6896 59.4695 61.4636 59.2102 61.3746C59.1342 61.3292 58.774 61.3767 58.7337 61.3282C58.6355 61.2126 59.0869 60.5603 59.1454 60.451C59.1614 60.4337 59.1693 60.4105 59.1672 60.387C59.1652 60.3636 59.1533 60.3421 59.1347 60.3278C58.9148 60.2017 58.6505 60.1794 58.4126 60.2668C58.0859 60.3314 57.8622 60.383 57.8274 59.9855C57.8071 59.7474 57.8036 59.5081 57.8168 59.2695C58.0325 59.1264 58.2753 58.8809 58.2242 58.7091C58.3056 58.6921 58.3852 58.6677 58.4621 58.6362C58.8413 58.8132 58.7219 58.8852 58.5951 58.9458L58.5643 58.9603C58.5137 58.9844 58.4684 59.0078 58.4611 59.0368C58.426 59.0963 58.4084 59.1645 58.4103 59.2336C58.4256 59.4085 58.6534 59.6329 58.7544 59.7802L59.2929 60.5342C59.7244 61.0733 60.5538 61.1249 60.8228 60.4004C60.9369 60.2863 61.0054 60.108 60.8754 59.9952C60.7455 59.8824 60.5828 60.0369 60.4749 59.9942C60.2045 59.8777 60.58 59.7767 60.6286 59.7364C60.6947 59.6811 60.7378 59.603 60.7496 59.5176C60.7635 59.4483 60.6857 59.383 60.6282 59.3199L60.6639 59.3168C60.7843 59.2742 60.7863 59.1138 60.7256 59.015C60.6826 58.9436 60.6239 58.8829 60.5539 58.8377C60.4757 58.7588 60.393 58.6845 60.3062 58.6151C60.2288 58.5537 60.216 58.5909 60.1255 58.5628C59.8025 58.4869 59.9308 58.3515 59.8094 58.1538C59.7487 58.055 59.6585 58.0309 59.577 58.1061C59.3894 57.8576 59.1354 57.6674 58.8442 57.5573C59.0086 57.4228 59.1293 57.2 58.858 57.1195C58.7566 57.0968 58.6535 57.1496 58.6127 57.2452C58.5801 57.2841 58.6221 57.3525 58.5406 57.4277C58.4591 57.5029 58.4646 57.154 58.4569 57.0665C58.4271 56.9089 58.3914 56.912 58.279 56.8177C58.1853 56.7279 58.1002 56.6294 58.025 56.5235C57.8579 56.1696 58.4928 56.058 58.2156 55.6817C58.1404 55.6002 58.1137 55.7066 58.0096 55.5235C57.9679 55.459 57.9988 55.4002 57.9571 55.3358C57.894 55.2758 57.8084 55.2455 57.7216 55.2523C57.5261 55.287 57.328 55.3043 57.1295 55.3041C56.9786 55.2729 56.8295 55.2338 56.6828 55.1869C56.3995 55.1076 56.3905 55.0042 56.2475 54.7884C56.218 54.7266 56.1779 54.6704 56.1289 54.6226C55.8698 54.453 55.6486 54.7166 55.6698 54.9591C55.6651 55.5003 56.0955 55.2023 56.2649 55.5359C56.3287 55.6705 56.3161 55.7558 56.4501 55.8682C56.5049 55.8995 56.5693 55.8578 56.6082 55.8904C56.7027 56.0074 56.7837 56.1347 56.8496 56.2698C56.8527 56.3056 56.8025 56.326 56.8056 56.3618C56.8033 56.5182 56.7258 56.4569 56.8657 56.6369C57.0056 56.817 57.1963 56.8003 57.2221 57.0944C57.2392 57.2586 57.1699 57.4198 57.039 57.5203C56.9082 57.6208 56.7345 57.6461 56.5804 57.5872C56.5416 57.5545 56.474 57.5604 56.4771 57.5962C56.396 57.6915 56.3931 57.8307 56.4702 57.9293C56.5311 57.9852 56.6 58.0318 56.6745 58.0676C56.766 58.1533 56.8724 58.2213 56.9884 58.2685C57.0945 58.2912 57.1085 58.2219 57.2118 58.2129C57.5013 58.1355 57.5933 58.1795 57.7414 58.2707C57.7898 58.3005 57.8648 58.298 57.9382 58.2994L57.9656 58.3002C58.1063 58.3058 58.2278 58.3429 58.125 58.6737C58.1131 58.6708 58.1005 58.6719 58.0893 58.6768L57.5033 59.1647C57.4829 59.1835 57.4615 59.2017 57.4395 59.2195L57.3056 59.3251L57.2418 59.3798C57.0936 59.517 57.1725 59.5942 56.9279 59.4073C56.6833 59.2204 56.7957 59.3147 56.9067 59.1648C56.9585 59.0932 56.9756 59.002 56.953 58.9164C56.9451 58.8827 56.9188 58.8562 56.885 58.8482C56.8513 58.8401 56.8159 58.8518 56.7935 58.8783C56.347 59.358 56.3171 58.2391 55.8976 58.432C55.7483 58.5001 55.7836 58.5885 55.828 58.6917L55.8408 58.7216C55.8471 58.7367 55.8533 58.7521 55.8589 58.7678C55.9502 58.9882 55.8832 59.0461 55.7966 59.2459L55.6901 59.4475C55.6494 59.6233 55.4772 59.6224 55.234 59.4514C55.2045 59.2977 55.4004 59.1564 55.3868 59.0014C55.3438 58.6927 54.8255 58.8102 54.6566 58.6647C54.4877 58.5193 54.5525 58.2533 54.3655 58.1294C54.2663 58.0633 54.1414 58.0489 54.0298 58.0907C53.8878 58.1369 53.7578 58.214 53.6491 58.3163C53.4126 58.5396 53.0644 58.597 52.7688 58.4614C52.6454 58.3846 52.5033 58.343 52.3579 58.3411C52.3062 58.3456 52.2705 58.3488 52.2188 58.3533C52.126 58.4317 51.994 58.4433 51.889 58.3822C51.7358 58.4234 51.5748 58.3501 51.5053 58.2074C51.2763 58.0152 51.0904 57.8592 50.7824 57.9542C50.7679 57.9715 50.7335 57.9906 50.7367 58.0263C50.7261 58.2361 50.8084 58.4399 50.9616 58.5835C51.0192 58.6465 51.2162 58.7014 51.2564 58.7499C51.4358 59.0146 51.0512 59.0122 50.951 59.057C50.727 59.1476 50.4773 59.1508 50.251 59.0662C50.1703 59.0459 50.0874 59.0356 50.0041 59.0357C49.8517 59.0262 49.7107 59.1163 49.6552 59.2585C49.6212 59.2815 49.6271 59.3491 49.6302 59.3849C49.4045 59.8252 49.4821 59.522 49.3271 59.5356C49.2595 59.5415 49.2007 59.5106 49.1332 59.5165C48.9836 59.5468 48.8645 59.6599 48.8263 59.8077C48.688 60.2404 49.2712 60.9103 49.4763 61.2409C49.6812 61.5279 49.9347 61.7768 50.2253 61.9764C50.3151 62.0356 50.3978 62.105 50.4717 62.1832C50.6004 62.3833 50.6089 62.638 50.4936 62.8462C50.4655 62.9368 50.3812 62.9802 50.3903 63.0835C50.3457 63.3518 50.5594 63.5975 50.6808 63.7951C50.8632 64.0956 51.028 64.3776 51.1946 64.6795C51.6228 65.363 51.989 66.116 52.4458 66.761C52.7407 67.1558 53.252 67.5997 53.7879 67.5008C53.8908 67.5014 53.983 67.4372 54.0181 67.3404C54.1563 67.5006 54.2894 67.6491 54.4262 67.7934L54.1009 67.8739C54.0651 67.8771 54.0162 67.9134 54.0193 67.9492C53.9912 68.268 54.2511 68.4015 54.5452 68.3758C54.6212 68.3786 54.6973 68.3719 54.7717 68.356C55.0856 68.5568 55.1273 68.6213 54.8758 68.5391C54.7264 68.534 54.5781 68.512 54.4336 68.4737C54.1775 68.4431 53.9195 68.4309 53.6616 68.4371C53.6144 68.4432 53.5797 68.4846 53.5818 68.5322C53.658 69.1744 54.0823 69.63 54.4577 70.1218C54.7605 72.0507 55.8764 73.6356 57.0082 75.2019L57.1363 75.3791L57.3283 75.6449C57.7112 76.1767 58.0874 76.7098 58.4255 77.257C59.1747 78.4389 59.8195 79.6838 60.3527 80.9777C60.455 81.3746 60.7531 81.6916 61.1429 81.8178C61.3143 81.8532 61.4926 81.8247 61.6445 81.7379C61.7186 81.6835 61.7896 81.6251 61.8574 81.563L62.0505 81.3899L62.4827 81.7527C62.4917 81.856 62.3874 82.0374 62.3625 82.1637C62.3489 82.2569 62.3451 82.3512 62.351 82.4451C62.3566 82.6818 62.4069 82.9152 62.4993 83.1331C62.6908 83.5771 62.9639 83.9811 63.3043 84.3244C63.5576 84.5495 63.7897 84.7973 63.9977 85.0648C64.2038 85.2231 64.1299 85.3857 63.7964 85.5551L63.4765 85.515C63.2841 85.4429 63.1153 85.319 62.9887 85.1571C62.756 84.8771 62.5955 84.2783 62.2362 84.1535C62.099 84.1194 61.9537 84.1434 61.8347 84.2197C61.7156 84.2961 61.6332 84.4181 61.6068 84.557C61.5592 84.9447 61.7036 85.3313 61.9937 85.5927C62.7071 86.3314 63.8642 86.3302 64.6721 86.9605C65.0003 87.1836 65.2132 87.5402 65.2539 87.935C65.2225 88.2768 65.1638 88.6154 65.0782 88.9478C65.0631 89.3697 65.5051 89.3871 65.7267 89.5399C65.9483 89.6928 66.372 90.0963 66.6386 89.7566C66.691 89.6941 66.7165 89.6133 66.7094 89.5321C66.7023 89.4508 66.6632 89.3757 66.6006 89.3233L66.5975 89.2875C66.58 89.1259 66.5832 88.9628 66.6071 88.802C66.8213 87.8179 67.0936 87.726 67.5495 87.3537C67.7527 87.187 67.8875 86.9514 67.9281 86.6917C68.2679 86.5939 68.6515 86.7686 68.9602 86.4972C69.0543 86.4163 69.1094 86.299 69.1116 86.1748C69.1137 86.0507 69.0627 85.9315 68.9714 85.8474C68.7233 85.6207 68.4908 85.8013 68.2978 85.9744C67.9619 86.3002 67.8595 86.1369 67.5107 86.1314C67.2839 86.1169 67.0578 86.1672 66.8587 86.2766C66.8087 86.301 66.8133 86.3526 66.8178 86.4043C66.9352 86.5893 67.0133 86.7966 67.0472 87.0131C67.0174 87.0549 66.9777 87.0886 66.9317 87.1113C66.4213 87.4564 65.3996 86.8088 65.1647 86.3206C64.9732 85.9168 65.13 85.6948 65.253 85.3155C65.3251 85.1918 65.3255 85.0389 65.254 84.9149C65.2123 84.8504 65.1399 84.8007 65.0982 84.7363C65.0209 84.5627 64.9748 84.3769 64.9621 84.1874C64.9414 84.0613 64.8822 83.9448 64.7927 83.8537C64.7158 83.7952 64.6178 83.7717 64.5228 83.7892C64.3639 83.8031 64.4399 83.8485 64.3039 83.8965C63.9818 84.0128 63.8319 83.9017 63.6358 83.6746C63.4355 83.4515 63.2773 83.1939 63.1689 82.9143C63.0564 82.6452 63.1197 82.3347 63.3286 82.1313C63.3743 82.2937 63.5312 82.3989 63.6987 82.3793C63.8848 82.3281 64.0787 82.3111 64.2709 82.3292C64.522 82.3778 64.6096 82.5528 64.6904 82.7384L64.725 82.8183C64.7523 82.8804 64.7814 82.9419 64.818 82.9983C64.9059 83.1963 65.1024 83.3236 65.3189 83.323C65.9247 83.2901 65.5802 82.5111 65.4313 82.2277C65.3092 81.9938 65.2275 81.7409 65.1897 81.4798C65.1878 81.3075 65.1497 81.1375 65.0779 80.9809C65.0202 80.8836 64.9418 80.8003 64.8484 80.7366C64.8448 80.6168 64.7752 80.5088 64.6676 80.456C64.7598 80.2612 64.7534 80.0339 64.6502 79.8447C64.6348 79.8141 64.6022 79.796 64.5681 79.799C64.534 79.8019 64.5051 79.8254 64.4952 79.8582C64.2702 80.2988 63.7886 80.5459 63.2996 80.4715C63.3586 80.3238 63.5296 80.1944 63.7172 80.067L63.7739 80.0289C64.1253 79.7938 64.5008 79.5605 64.2958 79.2268C64.1917 79.0436 63.9811 79.0621 63.7586 79.0815C63.536 79.101 63.4943 79.2649 63.5855 78.8884C63.6412 78.6583 63.6305 78.6435 63.6592 78.6426L63.6681 78.6426C63.6881 78.6426 63.7227 78.6414 63.789 78.6062C63.9149 78.5614 64.0335 78.4984 64.1411 78.4192C64.3056 78.2055 64.3705 77.9314 64.3195 77.6666C64.3028 77.4758 64.2132 77.047 64.0665 76.9717C63.9198 76.8964 63.8065 76.9745 63.7298 77.1053C63.5765 77.3671 63.5072 77.5814 63.1615 77.6117C62.9476 77.623 62.7333 77.5999 62.5268 77.543C62.6333 77.4865 62.7334 77.4186 62.8254 77.3407C62.9339 77.207 62.9394 76.8581 63.1818 76.8368C63.2117 76.8427 63.2425 76.8319 63.2621 76.8085C63.2817 76.7851 63.287 76.7529 63.2761 76.7244C62.9317 75.9893 63.0091 75.1258 63.4787 74.4636C63.5303 74.3887 63.5933 74.314 63.6592 74.2382L63.7034 74.1875C63.9481 73.9074 64.2056 73.607 64.0539 73.2117C64.0454 73.182 64.0206 73.1599 63.9902 73.1549C63.9598 73.1498 63.9292 73.1628 63.9117 73.1881C63.7746 73.3752 63.6128 73.543 63.4307 73.6868C63.3345 73.7716 63.2212 73.8347 63.0986 73.872C62.9641 73.6329 63.1193 73.4929 63.2915 73.3478L63.3315 73.3142C63.4381 73.224 63.5432 73.1289 63.5833 73.0045C63.6452 72.7507 63.4798 72.4167 63.2175 72.4397C63.1898 72.3059 63.1432 72.1858 63.1311 72.0467C63.132 72.0082 63.1155 71.9714 63.0863 71.9465C62.9912 71.8667 62.8855 72.0321 62.7624 72.0429C62.7037 72.0472 62.6457 72.0277 62.6015 71.9889C62.4579 71.8494 62.4182 71.6344 62.5025 71.4528C62.5943 71.2866 62.7174 71.1398 62.8651 71.0205C63.0105 70.8516 63.2032 70.6745 63.3804 70.5028C63.473 70.3808 63.6096 70.2998 63.7611 70.2772C63.8821 70.2867 63.9913 70.3452 64.1145 70.3344C64.1661 70.3299 64.1502 70.3313 64.2536 70.3223C64.3569 70.3132 64.4221 70.4637 64.3812 70.5915C64.3403 70.7192 64.2429 70.7958 64.2179 70.9222C64.1989 71.1333 64.2826 71.3406 64.4429 71.4793C64.5891 71.6823 64.7837 71.8457 65.009 71.9545C65.2453 72.0677 65.5281 72.0067 65.6968 71.8062C65.8209 71.6231 65.7795 71.3784 65.8488 71.164C65.9668 70.809 66.3362 70.6029 66.7002 70.689C67.1685 70.8243 67.0756 71.1809 67.2308 71.5358C67.4034 71.8776 67.638 72.1844 67.9226 72.4406C68.314 72.8836 68.6511 73.3718 68.9267 73.8949C69.0338 74.092 69.1367 74.2929 69.2393 74.4945L69.3419 74.6963C69.6672 75.3353 70.002 75.9719 70.4691 76.5117C70.5003 76.5628 70.5473 76.6022 70.603 76.6242C70.7148 76.6665 70.8268 76.5725 70.8517 76.4462C70.8647 76.3279 70.8417 76.2085 70.7857 76.1035C70.417 75.2834 69.961 74.5054 69.4255 73.7831C69.0009 73.1388 68.7709 72.3857 68.7632 71.614C68.7545 70.8431 69.1334 70.3123 69.5585 69.7538L69.6297 69.6605C69.8205 69.4105 70.0166 69.1521 70.1882 68.8618C70.5422 68.286 70.6364 67.5768 70.9161 66.9756C71.1334 66.4839 71.4851 66.0646 71.7412 65.6056C71.9785 65.1277 72.1695 64.6281 72.3115 64.1137C72.7314 62.7351 73.172 61.3628 73.5969 59.9958C73.8736 59.1304 73.9952 57.5456 74.9771 57.1433L75.1474 57.0763C76.682 57.5909 77.1179 55.5701 77.4843 54.5407L77.4812 54.5049C77.6849 54.5912 77.9092 54.5916 78.0536 54.8233C77.9836 54.9127 77.9275 55.0121 77.8872 55.1182C77.7452 55.5292 77.6294 55.9487 77.5406 56.3743C77.415 56.7698 77.2934 57.1649 77.1347 57.5473C77.0902 57.6626 77.0348 57.7784 76.9768 57.8946L76.9416 57.9643C76.6885 58.4646 76.4143 58.9729 76.7601 59.4907C77.2025 60.153 78.0063 60.5072 78.7007 60.847C79.4211 61.1823 80.1607 61.4747 80.9156 61.7227C81.2334 61.8904 81.5619 62.037 81.899 62.1614C82.1879 62.2603 82.934 62.5956 83.166 62.2268C83.2717 62.0613 83.1943 61.7717 83.179 61.5968C83.1624 61.2203 83.1817 60.8431 83.2366 60.4702C83.3505 60.2159 83.4666 59.9414 83.5686 59.6881L83.5745 59.7557C83.6045 60.043 83.7071 60.318 83.8726 60.5548C84.343 61.3548 84.2594 62.1832 84.4905 63.0402C84.5475 63.2327 84.6229 63.4192 84.7154 63.5973C84.8837 63.919 85.0159 64.2399 84.5963 64.4329C84.3956 64.5185 84.2696 64.4975 84.1486 64.7164C84.0507 64.9945 84.0588 65.299 84.1714 65.5715C84.3023 66.0608 84.0701 66.3815 83.8783 66.7988C83.7179 67.1614 83.732 67.6888 84.1474 67.8608L84.156 67.9644C84.1808 68.3099 84.1697 68.6571 84.123 69.0005C84.0937 69.4436 84.0587 69.8673 84.0291 70.3065C83.9599 71.1176 83.8921 71.9447 83.7889 72.7789C83.6927 73.6631 83.5608 74.5505 83.3931 75.4411C83.2911 76.2693 83.085 77.0814 82.7797 77.858C82.6098 78.1273 82.4816 78.4208 82.3994 78.7284C82.3122 79.1046 82.3967 79.5217 82.253 79.8467C82.1092 80.1718 81.8509 80.4227 81.7035 80.752C81.6588 80.8317 81.6245 80.9168 81.6015 81.0053C81.3278 81.3096 80.9662 81.5695 80.8619 81.9792C80.8347 82.0864 80.6353 82.4367 80.4313 82.8206L80.386 82.9064C80.1144 83.4233 79.8568 83.9723 80.0105 84.0564C80.1686 83.9728 80.3132 83.8656 80.4392 83.7386C95.4641 70.2973 99.9628 48.6224 91.5288 30.3079ZM62.3373 77.8038L62.3528 77.8389C62.411 77.9798 62.4418 78.1306 62.4434 78.2833C62.3803 78.5692 62.2285 78.6186 61.9708 78.4649C61.9345 78.416 61.9251 78.3087 61.8834 78.2442C61.8194 78.1672 61.7272 78.119 61.6274 78.1104C61.6524 77.984 61.6996 77.9278 61.9465 77.9583C62.1086 77.9802 62.1693 78.079 62.3152 77.9621C62.3397 77.9324 62.3495 77.8933 62.3419 77.8556C62.3332 77.8398 62.3314 77.8209 62.3373 77.8038ZM60.8731 77.9561C60.9292 77.9882 60.9709 78.0404 60.99 78.1021C61.0417 78.2182 61.1037 78.3294 61.1753 78.4343C61.1594 78.4357 61.1267 78.4746 61.1267 78.4746C60.7889 78.7325 60.9029 78.2499 60.8822 78.0594L60.8731 77.9561ZM60.3641 74.2435C60.6645 74.061 60.9873 73.7684 61.3605 73.8238C61.6675 73.9129 61.9031 74.1599 61.9777 74.4708C62.0816 74.7344 62.1282 75.017 62.1143 75.3C62.1603 75.5577 62.0862 75.8223 61.9129 76.0186C61.8658 76.0748 61.6271 76.1838 61.5518 76.1022C61.5437 75.9902 61.5514 75.8777 61.5746 75.7678C61.6083 75.3283 61.769 74.7855 61.4044 74.4168C61.1859 74.1983 60.8366 74.1836 60.6006 74.383C60.5787 74.4039 60.5676 74.4336 60.5702 74.4638C60.5728 74.4939 60.589 74.5212 60.6142 74.538C60.8605 74.7448 60.8369 74.887 60.5945 74.9082C60.5099 74.9961 60.3795 75.0219 60.2678 74.9729C60.1272 74.9568 59.9894 74.9217 59.8582 74.8685C59.6252 74.7833 59.3993 74.6799 59.1825 74.5591C59.1616 74.5441 59.1329 74.5466 59.1149 74.565C59.1118 74.5293 59.1073 74.4776 59.1041 74.4418C59.5342 74.5337 59.9831 74.4631 60.3641 74.2435ZM59.2237 74.7558L59.2704 74.7792C59.4149 74.8518 59.5975 74.9458 59.7916 75.0225L59.7598 75.0146C59.6706 74.9971 59.5505 75.0076 59.4587 75.0156L59.4623 75.0113C59.3596 74.9512 59.2766 74.8624 59.2237 74.7558ZM62.1174 68.6065C62.135 68.3967 62.2551 68.3502 62.477 68.507C62.522 68.4933 62.5694 68.4892 62.6161 68.4948C62.6657 68.6161 62.7229 68.7342 62.7872 68.8484L62.7844 68.8627C62.7825 68.882 62.788 68.9014 62.8002 68.9169C62.8155 68.9363 62.8392 68.9471 62.8638 68.9458C62.9009 68.9586 62.9041 68.9943 62.9041 68.9943C62.9543 69.2022 63.0757 69.3999 63.1504 69.4294C63.225 69.4589 63.2577 69.42 63.3252 69.4141C63.3928 69.4082 63.3723 69.3579 63.3882 69.3565C63.4041 69.3551 63.4399 69.352 63.4399 69.352L63.5134 69.4137L63.5083 69.4021C63.6809 69.5432 63.5574 69.6422 63.4708 69.842C63.4518 69.8647 63.4461 69.8957 63.456 69.9237C63.4658 69.9516 63.4897 69.9722 63.5187 69.978L63.4861 70.0169C63.1136 70.1536 62.5771 70.4289 62.606 70.7588L62.6014 70.7842C62.5291 71.1643 62.3367 71.1365 62.023 70.6856C62.0357 70.6485 62.0573 70.6666 62.0829 70.5923C62.1084 70.518 62.1927 70.4745 62.2225 70.4038C62.2702 70.3164 62.292 70.2173 62.2856 70.1179C62.2874 70.0089 62.2312 69.9071 62.1381 69.8504C62.2137 69.7083 62.2429 69.5461 62.2216 69.3865C62.2165 69.3282 62.2076 69.2725 62.1975 69.2176L62.1658 69.0537C62.1557 68.9988 62.1468 68.9431 62.1417 68.8848C62.125 68.793 62.1168 68.6998 62.1174 68.6065ZM66.3284 67.7214C66.3188 67.7943 66.2907 67.8849 66.2966 67.9525C66.162 68.0164 66.0116 68.0816 65.9599 68.0861C65.7379 68.1576 65.5761 68.2759 65.5616 68.5215C65.5598 68.5684 65.5922 68.6096 65.6382 68.619L66.2438 68.7222C66.247 68.758 66.2841 68.7707 66.2872 68.8065C66.3129 68.8914 66.3207 68.9808 66.3102 69.0689C65.9829 69.3949 65.5549 69.6004 65.0958 69.6518L65.4393 68.36C65.456 68.3225 65.3985 68.2594 65.3627 68.2625C65.2335 68.277 65.1029 68.2521 64.9881 68.1912L65.5283 67.7754C65.5528 67.8005 65.5854 67.8161 65.6203 67.8194C65.7236 67.8104 66.1377 67.7381 66.3284 67.7214ZM24.3436 64.8914C24.4323 64.836 24.5234 64.7894 24.624 64.9252C24.7825 65.1001 24.8189 65.3537 24.7161 65.5661C24.5625 65.8238 24.3802 66.1202 24.121 66.1789C23.7949 66.2443 23.5228 66.4037 23.2557 66.5685L23.1325 66.6446C22.9478 66.7583 22.7618 66.8681 22.5583 66.9445L22.5739 66.9391C20.8648 67.648 19.1112 68.2443 17.3243 68.7242C17.4422 68.3291 17.7627 68.0274 18.1641 67.9338C19.4999 67.3529 20.805 66.704 22.0743 65.9895C22.7798 65.6313 23.3564 65.0361 24.1909 64.9631C24.2326 64.9595 24.274 64.9353 24.3157 64.909L24.3436 64.8914ZM59.952 67.0826L59.9217 67.1477C59.8328 67.3401 59.751 67.5273 59.6436 67.7014C59.6683 67.5691 59.6686 67.4333 59.6446 67.3008C59.7645 67.2377 59.8748 67.158 59.9723 67.0638L59.952 67.0826ZM65.144 65.1213C65.2612 65.043 65.7207 64.8946 65.7125 65.2118C65.717 65.2635 65.7414 65.3134 65.8089 65.3075C65.9246 65.2939 66.0391 65.2719 66.1515 65.2415C66.1238 65.4374 66.0495 65.6239 65.9348 65.7851C65.9034 65.8226 65.8677 65.8569 65.8305 65.8901L65.7177 65.9887C65.6806 66.0219 65.6449 66.0562 65.6134 66.0937C65.5273 66.178 65.4911 66.3009 65.5177 66.4185C65.5815 66.7814 65.9547 66.8369 66.2687 66.8094C66.1419 67.0958 65.9484 67.3476 65.7042 67.5437C65.6855 67.5029 65.638 67.4841 65.5964 67.5011C65.5461 67.5215 65.499 67.5777 65.4473 67.5822L65.4497 67.57C65.4542 67.5218 65.4038 67.4819 65.3707 67.4848C64.8119 67.3694 64.3867 66.9136 64.3103 66.3479C64.2885 66.2817 64.2124 66.2363 64.1653 66.2924C64.1124 66.3008 64.0611 66.3175 64.0134 66.3418C64.136 66.1033 64.2375 65.8545 64.3168 65.5983C64.4923 65.5774 64.6568 65.5013 64.7863 65.3809C64.8738 65.2575 64.9995 65.1663 65.144 65.1213ZM54.8331 65.763C54.9267 65.8036 55.0233 65.8366 55.1221 65.8619C55.1567 65.8662 55.189 65.8816 55.214 65.906C55.1707 65.9062 55.1277 65.8977 55.0877 65.881C55.0255 65.8606 54.9645 65.8365 54.9052 65.8088L54.8933 65.8099C54.8709 65.7976 54.8506 65.7818 54.8331 65.763ZM59.8862 59.2607C59.9682 59.2494 60.0516 59.2544 60.1317 59.2752C60.1666 59.3082 60.2169 59.2878 60.2024 59.3051C60.1905 59.3192 60.1911 59.3216 60.1636 59.3529L60.1408 59.3786C60.0897 59.4351 60.047 59.543 60.0343 59.5802C60.0215 59.6173 59.9726 59.6536 59.9758 59.6894L59.9759 59.6858L59.9568 59.6692C59.7949 59.5246 59.7688 59.3978 59.8714 59.2771L59.8862 59.2607ZM77.1781 54.2911C77.1938 54.3362 77.2208 54.3766 77.2565 54.4084C77.2755 54.4428 77.3272 54.4382 77.3113 54.4396C77.2954 54.441 77.2627 54.4799 77.2627 54.4799L77.2216 54.5839L77.2166 54.5768C77.1995 54.5539 77.1843 54.5437 77.1603 54.5528L77.1494 54.5579L77.1781 54.2911ZM85.082 47.3104C85.2042 46.7961 85.3989 46.3324 85.6974 46.6282C85.7671 46.7088 85.8119 46.8078 85.8265 46.9133C86.1265 48.1381 86.2022 49.4072 86.0501 50.6589C86.0062 51.1832 85.8796 51.6972 85.6748 52.1818C85.4914 52.6024 85.068 53.1642 84.5602 53.1726C84.5093 53.1851 84.4563 53.1618 84.4311 53.1158C84.4121 53.0814 84.4093 53.0496 84.3868 53.0676C84.4297 52.5511 84.804 52.2059 84.8291 51.7151C84.8152 51.148 84.7309 50.585 84.5783 50.0387C84.4709 49.4513 84.7864 48.8469 84.9125 48.2751C84.9329 48.1626 84.98 47.7629 85.0671 47.3749L85.082 47.3104ZM43.6141 48.1511C43.6473 48.1398 43.6827 48.1368 43.7174 48.142C43.8326 48.1824 43.9353 48.2521 44.0154 48.3443C44.0199 48.396 44.0244 48.4476 44.0276 48.4834C44.037 48.5046 44.0391 48.5284 44.0335 48.551C43.9871 48.5192 43.9286 48.511 43.8754 48.5288C43.7752 48.5736 43.7516 48.7158 43.7592 48.8033C43.7833 49.027 43.7213 49.2516 43.5859 49.4313C43.3457 49.6606 43.1247 49.5598 43.0487 49.286L43.0609 49.289C42.9835 48.9993 43.036 48.9587 43.1612 48.7875C43.2864 48.6163 43.4292 48.2353 43.6141 48.1511ZM45.349 47.2943C45.4049 47.3048 45.459 47.323 45.5099 47.3483C45.4932 47.3684 45.4828 47.393 45.4801 47.419C45.475 47.5437 45.5394 47.502 45.5904 47.6738C45.609 47.7362 45.5928 47.8245 45.5765 47.913L45.5685 47.9572C45.5441 48.0964 45.5341 48.2255 45.6763 48.243C45.7438 48.2371 45.7995 48.2323 45.867 48.2263C46.0037 48.2745 46.0832 48.417 46.0523 48.5586C46.0097 48.692 45.92 48.8053 45.7998 48.8771C45.7702 48.8994 45.736 48.9147 45.6996 48.9219C45.6647 48.9186 45.6321 48.903 45.6077 48.8779C45.5227 48.8203 45.441 48.7579 45.3631 48.691C45.326 48.6782 45.3432 48.6927 45.3228 48.6425C45.3024 48.5922 45.3654 48.5346 45.3609 48.4829C45.3735 48.4252 45.3583 48.365 45.3197 48.3203C45.2811 48.2756 45.2237 48.2517 45.1649 48.2557C45.0466 48.2779 44.9479 48.3591 44.9034 48.4709C44.854 48.5473 44.8458 48.6361 44.8 48.7082C44.758 48.7876 44.6696 48.8309 44.5812 48.8155C44.5639 48.801 44.5794 48.7956 44.5091 48.7697C44.4387 48.7438 44.3672 48.7501 44.3124 48.7188C44.2792 48.7005 44.2528 48.6719 44.2372 48.6373L44.2481 48.6243C44.2251 48.5903 44.181 48.5901 44.3042 48.5794C44.3812 48.5726 44.425 48.5078 44.4664 48.4369L44.4913 48.394C44.508 48.3655 44.5253 48.3377 44.5453 48.3139C44.6408 48.2479 44.7518 48.2078 44.8675 48.1976C44.9889 48.167 45.0849 48.0745 45.0742 47.9512C45.0607 47.9082 45.0396 47.868 45.0117 47.8325C44.9528 47.7465 44.9575 47.6321 45.0231 47.5511C45.0972 47.4365 45.3657 47.4851 45.3536 47.346L45.349 47.2943ZM77.0184 28.3454C77.2449 28.1942 77.5241 28.1444 77.7888 28.2079C78.0536 28.2714 78.2798 28.4425 78.4131 28.68C78.8639 29.6219 78.8511 30.8487 79.0129 31.9201C79.181 33.0629 79.181 34.2526 79.3848 35.3923C79.5024 35.9588 79.59 36.548 79.7434 37.1114C79.8189 37.3331 79.9023 38.2871 80.2907 38.149C80.3727 38.1258 80.4221 38.0494 80.4851 37.9918C80.9667 37.4089 81.4599 36.821 81.9317 36.2189C82.2966 35.7664 82.6873 35.0153 83.3529 35.0251C83.7224 35.0514 84.0859 35.133 84.4312 35.2673C84.8995 35.4025 85.3689 35.5497 85.8721 35.718C86.3754 35.8863 86.8808 36.0343 87.3837 36.1986C87.8304 36.3144 88.2449 36.5301 88.5961 36.8295C89.0368 37.2436 89.3668 37.8115 90.0333 37.4208C90.448 37.1722 90.7203 36.852 91.2894 36.7661C91.8585 36.6803 92.5686 37.199 92.3201 37.7454C92.0718 37.7815 91.8203 37.7914 91.5699 37.775C91.3338 37.8027 91.1069 37.8827 90.9057 38.0094C90.571 38.2109 90.1735 38.474 90.1407 38.8774C90.0964 39.3779 90.5842 39.7358 90.8614 40.1121C91.0986 40.4296 91.2511 40.8022 91.3045 41.1949C91.3135 41.5266 91.1644 41.6077 90.8287 41.569C90.622 41.5478 90.4212 41.4879 90.2366 41.3925C90.213 41.3791 90.1843 41.3787 90.1603 41.3913C90.1363 41.404 90.1204 41.4279 90.118 41.4549C90.0916 41.5654 90.1007 41.6687 90.1097 41.7721C90.0382 41.55 90.0655 41.2672 89.8436 41.1104C89.6233 40.9494 89.3417 40.8974 89.0784 40.9691C88.7132 41.1092 88.416 41.3848 88.2488 41.7386C88.125 41.9257 88.0384 42.1255 87.9305 42.3112C87.8517 42.4704 87.722 42.5988 87.562 42.6759C87.2875 42.788 87.0624 42.5954 86.8581 42.4571C86.8192 42.4244 86.7177 42.4534 86.7236 42.5209C86.7261 42.733 86.6911 42.9283 86.7092 43.135C85.8674 42.712 85.0716 43.8231 84.6514 44.4206C84.3357 44.8709 84.0665 45.3521 83.8481 45.8567C83.7799 46.0389 83.6422 46.2953 83.5601 46.5468C83.4862 46.5799 83.4184 46.6251 83.3595 46.6805C83.2613 46.7933 83.2951 46.9506 83.2167 47.0616L82.889 47.2985C82.8314 47.267 82.7701 47.2428 82.7066 47.2264C82.6376 47.2164 82.5616 47.1709 82.494 47.1769C82.3382 47.1422 82.1778 47.1333 82.0192 47.1503C81.5807 47.1726 81.1285 47.4045 80.6908 47.3907C80.5607 47.3939 80.4347 47.3448 80.341 47.2544C80.2473 47.164 80.1937 47.0398 80.1922 46.9096C80.1944 46.8594 80.2079 46.8103 80.2317 46.7659C80.2488 46.7718 80.2676 46.7702 80.2834 46.7614C80.4422 46.6449 80.6286 46.5166 80.8144 46.3772L80.8675 46.3371C80.8763 46.3304 80.8851 46.3236 80.8939 46.3168L80.9466 46.2758C80.9554 46.2689 80.9641 46.262 80.9729 46.2551L81.0249 46.2132C81.0681 46.178 81.1107 46.1422 81.1522 46.1058L81.2014 46.0618C81.7214 45.5898 82.0491 45.0193 81.3875 44.3697C80.9639 43.9221 80.4063 43.7265 79.8923 43.2988C79.3784 42.8712 79.0461 42.2313 78.4908 41.8793C78.1185 41.6516 76.1848 41.1518 76.4281 42.1479C76.4805 42.3356 76.7237 42.5066 76.739 42.6815C76.7832 42.9629 76.5886 43.0084 76.3779 43.0407L76.2873 43.0544C76.1819 43.0709 76.0805 43.0921 76.0108 43.1457C75.9639 43.1815 75.9256 43.2273 75.8985 43.2798L75.9011 43.2749L75.8935 43.246C75.8741 43.1688 75.8634 43.0963 75.8327 43.0008L75.8183 42.9583C75.7951 42.0079 76.1894 41.0951 76.8971 40.4606C77.2461 40.1473 77.6238 39.8675 78.0253 39.6249C78.2265 39.4992 78.4241 39.3777 78.6416 39.2546C78.8254 39.173 79.0046 39.0811 79.1781 38.9793C79.2743 38.9154 79.3251 38.8018 79.3087 38.6875C79.2767 38.5501 79.1317 38.4947 79.0207 38.4163C78.7644 38.2609 78.6196 37.9948 78.4872 37.7131L78.4434 37.6188C78.3708 37.4611 78.2985 37.3019 78.2098 37.1574C78.0133 36.9041 77.8323 36.639 77.6679 36.3637C77.5051 36.0765 77.5359 35.7188 77.7453 35.4637C77.9423 35.2902 78.2708 35.2455 78.3543 35.0098C78.4035 34.8182 78.3605 34.6146 78.238 34.4592C78.1512 34.3369 78.0706 34.2103 77.9966 34.0798C77.8658 33.7748 77.9213 33.4015 77.7207 33.1226C77.6932 33.0883 77.6619 33.056 77.6298 33.0243L77.5817 32.9769C77.4938 32.8901 77.4123 32.8013 77.4015 32.6779C77.3888 32.4998 77.5102 32.34 77.6851 32.3046C77.911 32.2705 78.1401 32.2625 78.3678 32.2809C78.397 32.2884 78.4278 32.2857 78.4552 32.2733C78.4711 32.2719 78.5041 32.2369 78.501 32.2012C78.5652 32.0379 78.5679 31.8569 78.5085 31.6918C78.3908 31.3536 78.0076 31.3671 77.7471 31.1816C77.353 30.8877 76.9388 30.9599 76.688 30.4732C76.5885 30.2691 76.5221 30.0505 76.4912 29.8255C76.4752 29.5418 76.52 29.2579 76.6226 28.9929C76.7063 28.7737 76.8234 28.5689 76.9699 28.3857C76.9827 28.3485 77.0184 28.3454 77.0184 28.3454ZM42.5814 45.1812C42.7077 45.2062 42.7356 45.2959 42.7276 45.4328C42.7195 45.5697 42.627 45.702 42.6392 45.8411C42.4765 45.7672 41.8677 45.6282 41.9497 45.9695C41.9897 46.0638 42.0583 46.1433 42.1457 46.1967C42.4795 46.4426 42.7622 46.7512 42.978 47.1052C42.9889 47.133 42.9915 47.1634 42.9856 47.1927C42.9748 47.2192 42.9593 47.2437 42.9399 47.2648C42.8276 47.3774 42.6592 47.4126 42.5113 47.3543C42.494 47.3398 42.4392 47.3086 42.4392 47.3086C42.2663 47.1635 42.2406 46.8693 42.1564 46.6844L42.1669 46.6675C42.0193 46.4472 41.91 46.2035 41.8436 45.9467C41.8733 45.6277 42.0799 45.3526 42.3779 45.2351C42.437 45.1931 42.5093 45.1739 42.5814 45.1812ZM44.3635 46.7397C44.5171 46.7102 44.5696 46.8979 44.551 47.0517C44.5268 47.1554 44.4668 47.2472 44.3815 47.3109L44.3606 47.2845C44.3023 47.2175 44.2252 47.1728 44.1854 47.0837C44.1541 47.0163 44.1564 46.9381 44.1917 46.8727C44.227 46.8073 44.2911 46.7624 44.3646 46.7516L44.3635 46.7397ZM44.8935 46.1606C44.9343 46.0328 45.0377 46.0238 45.1001 46.1425C45.1205 46.1928 45.1466 46.2626 45.1671 46.3129C45.1875 46.3632 45.2437 46.4103 45.2513 46.4978L45.2497 46.4877L45.2445 46.5136C45.233 46.5593 45.2123 46.6022 45.1836 46.6397L45.1655 46.6615C45.1601 46.6156 45.1378 46.5733 45.1031 46.5428C45.0211 46.4298 44.8526 46.2883 44.8935 46.1606ZM65.3698 41.2488C65.879 41.2564 66.0335 42.2442 66.0206 42.8742C65.966 43.2438 65.9397 43.617 65.942 43.9906C65.5896 43.7611 65.1525 43.7993 64.7429 43.695C64.0203 43.5194 63.3104 43.2951 62.618 43.0237C62.3973 42.9336 62.2038 42.7876 62.0564 42.6002L62.0763 42.5984C61.8599 42.2949 61.723 41.9419 61.6782 41.5718C61.8234 41.4411 62.0083 41.3629 62.2033 41.3496C62.2685 41.3474 62.3337 41.3539 62.3972 41.3687C62.4519 41.4 62.505 41.4114 62.5598 41.4426C63.1282 41.6693 63.9851 42.0349 64.5815 41.6663C64.8475 41.5028 65.0369 41.2419 65.3698 41.2488ZM40.2291 32.5734C40.2993 32.3843 40.4996 32.2774 40.6958 32.3243C40.8076 32.3666 40.9018 32.4825 41.025 32.4718C41.1733 34.1631 41.7496 35.7889 42.6997 37.1959C42.9248 37.4551 43.1309 37.7302 43.3163 38.0192C43.4368 38.2718 43.5921 38.5063 43.7776 38.7158C44.1173 39.1098 44.5793 39.3783 45.0897 39.4783C45.7501 39.6127 46.2454 39.2329 46.6955 38.793C46.9825 38.5035 47.6174 37.751 48.0961 38.0056C48.2169 38.0812 48.3077 38.1964 48.3529 38.3316C48.7032 39.086 49.3483 40.5557 48.1805 40.9382C47.3627 41.202 46.2087 40.8263 45.4785 40.4897C43.924 39.7485 42.7916 38.2013 42.0126 36.7113C41.5056 35.7222 41.3316 34.5118 40.6575 33.6255C40.5293 33.4805 40.4103 33.3277 40.3011 33.168C40.2772 33.1301 40.2563 33.0904 40.2387 33.0493L40.2585 33.0475C40.2049 32.8953 40.1947 32.7311 40.2291 32.5734ZM63.6137 37.5612C64.326 37.4428 65.0515 37.6781 65.5589 38.1921C65.739 38.649 65.9036 39.1113 66.0493 39.5872C66.1944 40.0552 65.9444 40.1732 65.691 40.3435C65.5623 40.2482 65.4208 40.1716 65.2707 40.1159C64.9907 39.9645 64.6982 39.8374 64.3966 39.7358L64.2498 39.6605C64.0804 39.5509 63.9175 39.4314 63.762 39.3026C63.6087 39.2024 63.4428 39.1226 63.2688 39.0654C63.1212 39.0137 62.9806 38.9439 62.8502 38.8577C62.6607 38.6688 62.5957 38.3883 62.6829 38.1353C62.7876 37.9139 63.1805 37.8274 63.398 37.7043C63.4761 37.6667 63.5487 37.6186 63.6137 37.5612ZM42.856 14.7715C45.168 14.63 47.4876 14.8654 49.7242 15.4684C51.5153 15.9405 54.238 17.0362 55.2633 18.7329C55.8537 19.6007 56.5172 20.4163 57.2465 21.171C57.7192 21.6561 58.131 22.1972 58.4726 22.7821C58.4382 22.8011 58.4587 22.8514 58.4459 22.8886C58.4331 22.9257 58.3988 22.9448 58.4019 22.9805C58.0024 22.9338 57.6111 22.8333 57.2385 22.6818C57.0363 22.6414 56.8286 22.6366 56.6246 22.6674C56.2689 22.7666 56.4461 22.8232 56.253 22.9963C55.585 23.5995 55.1727 24.1042 54.1256 24.1277C53.8964 24.1005 53.6651 24.1578 53.475 24.2888C53.4589 24.3358 53.4457 24.3838 53.4355 24.4324C53.4444 24.8696 53.0562 25.009 52.2709 24.8508C51.9847 24.7514 51.7243 24.5894 51.5086 24.3767C50.9168 23.3791 51.6365 24.0531 51.7679 23.9535C51.685 24.0128 52.1883 23.7244 52.2528 23.6827C52.319 23.6197 52.3723 23.5443 52.4095 23.4607C52.5962 23.3225 52.8074 23.2211 53.0321 23.1619C53.2367 23.1091 53.4309 23.0217 53.6061 22.9034C53.8173 22.7087 53.98 22.5543 53.8279 22.2351C53.6759 21.916 53.3146 21.9516 53.0619 21.9016C52.8093 21.8516 51.7397 21.6167 51.4916 21.3901C51.2435 21.1635 51.1539 20.7347 50.7239 20.8084C50.5303 20.8442 50.3736 20.9867 50.3197 21.1762C50.2632 21.4736 50.3692 21.7787 50.5979 21.977C51.0258 22.4282 51.434 22.2884 51.9387 22.4725C52.2799 22.3906 52.3454 22.5451 52.1333 22.9121C52.0017 22.9319 51.869 22.9435 51.7359 22.9469C51.6393 22.9454 51.5443 22.9718 51.4623 23.0229C51.2852 23.1389 51.2129 23.2898 51.1507 23.4353L51.1339 23.4748C51.1283 23.4879 51.1228 23.5009 51.1171 23.5139L51.1001 23.5523C50.9956 23.7808 50.8487 23.9656 50.2443 23.9306C49.9673 23.9228 49.7065 23.7333 49.4238 23.7059C49.3586 23.6902 49.2905 23.717 49.2535 23.7729C48.9888 24.1806 48.9124 24.68 48.4806 24.9621C48.3809 25.0292 48.2745 25.0855 48.1629 25.1301L47.6148 25.0899C47.5795 25.0406 47.5209 25.0136 47.4605 25.0189C47.4001 25.0242 47.347 25.061 47.3208 25.1156C46.7967 24.7088 46.8611 24.4388 47.5208 24.3811C47.6086 24.4044 47.6984 24.4193 47.789 24.4258C47.8989 24.4454 48.0113 24.4477 48.1219 24.4327C48.3336 24.4058 48.5225 24.2866 48.638 24.1071C48.8437 23.854 48.8271 23.4869 48.5994 23.2534C48.3167 22.9977 48.0263 23.1112 47.7413 23.2403C47.6752 23.2621 47.6732 23.4225 47.603 23.4447C47.5329 23.4668 47.5111 23.4006 47.4237 23.4083C47.2145 23.4426 46.8253 23.6169 46.7288 23.2928C46.7012 23.2167 46.623 23.1713 46.5432 23.1849C46.3752 23.0955 46.2257 22.9884 46.0599 22.8787C46.0259 22.8081 45.9524 22.7654 45.8743 22.7708C45.6836 22.7875 45.6361 22.8397 45.5467 23.0077C45.4573 23.1758 45.5832 23.4251 45.5954 23.5642C45.6133 23.7937 45.6039 24.0244 45.5674 24.2516C45.5023 24.1889 45.433 24.1308 45.36 24.0775C45.3389 24.0268 45.2948 23.9892 45.2414 23.9765C45.188 23.9637 45.1318 23.9773 45.09 24.013C44.926 24.1515 44.8394 24.3514 44.5803 24.1818C44.448 24.0892 44.2345 24.212 44.3174 24.381C44.3205 24.4168 44.3205 24.4168 44.3205 24.4168L44.3158 24.4368C44.3085 24.4771 44.3143 24.5189 44.3327 24.5559C44.5342 24.8908 44.4234 25.1808 44.5212 25.5208C44.5564 25.6222 44.6066 25.7177 44.6702 25.8041C44.692 25.8703 44.8287 26.0146 44.8395 26.1378C44.7327 26.0974 44.6164 26.0894 44.5051 26.115C44.4353 26.1411 44.4086 26.2476 44.3411 26.2535C44.3116 26.3052 44.2659 26.3458 44.211 26.369C44.1313 26.4641 44.0438 26.4718 43.9456 26.3562C43.8772 26.3651 43.8086 26.3712 43.7426 26.3787L43.699 26.3839C43.4188 26.4196 43.2005 26.4962 43.2799 26.9392C43.3462 27.2858 43.691 27.4279 43.9533 27.6333C44.3366 27.9322 44.6174 28.343 44.7568 28.8087C45.0265 29.6943 45.2241 30.5342 45.9038 31.2999C46.1807 31.6282 46.6388 31.9205 46.9936 31.7653C47.1273 31.792 47.2626 31.8096 47.3986 31.818L48.0469 31.8134C48.2267 31.9105 48.4307 31.9538 48.6344 31.9382C49.0881 31.8695 49.5519 31.9392 49.9653 32.1382C50.1658 32.206 50.3258 32.3592 50.4023 32.5566C50.4055 32.5924 50.4083 32.6242 50.4114 32.6599C50.4384 32.703 50.4715 32.7419 50.5096 32.7755C50.5817 32.8213 50.6333 32.8168 50.7208 32.8091C50.9031 32.7985 51.086 32.8053 51.2671 32.8294C51.4456 32.9019 51.5262 32.999 51.7596 32.8745C51.9929 32.7499 51.9631 32.5923 52.3029 32.4945C52.4325 32.4617 52.5643 32.4382 52.6972 32.4239L52.8834 32.3556C52.9836 32.3107 53.071 32.3031 53.1743 32.294C53.2556 32.2823 53.3357 32.2632 53.4136 32.2371C53.6785 32.1787 53.9542 32.2679 54.1348 32.4704C54.2114 32.5678 54.2434 32.7052 54.3544 32.7836C54.4036 32.8379 54.4685 32.8756 54.54 32.8916C54.626 32.9914 54.7536 33.0453 54.8851 33.0376C54.9952 33.0438 55.0991 32.9865 55.1525 32.89C55.1784 32.8095 55.1939 32.7261 55.1988 32.6416C55.3022 32.5393 55.439 32.4776 55.5841 32.4678C55.7465 32.621 55.8758 32.806 55.964 33.0113C56.0699 33.3285 56.1168 33.6625 56.1022 33.9966C56.1319 34.5187 56.3896 34.6724 56.7483 34.9735C57.2237 35.3725 57.5391 35.9577 57.9776 36.392C58.3686 36.796 58.8112 37.1465 59.294 37.4344C59.3701 37.4799 59.4689 37.4191 59.4255 37.3348C59.2299 36.8202 58.9513 36.3412 58.6007 35.9169C58.5867 35.7946 58.5641 35.6735 58.5329 35.5544C58.4741 35.3268 58.3781 35.1105 58.2487 34.9143C58.0703 34.6259 57.8206 34.3884 57.5237 34.2247C57.4622 33.9337 57.349 33.6472 57.3215 33.3331C57.2504 32.6503 57.5022 31.9733 58.0023 31.5032L58.054 31.4986C58.1 31.4759 58.1397 31.4422 58.1695 31.4004C58.2947 31.2292 58.2037 31.0129 58.1208 30.8439C58.1165 30.8164 58.0925 30.7962 58.0646 30.7967C57.8234 30.4654 57.3028 30.5109 57.1806 30.121C57.1761 30.0694 57.1086 30.0753 57.0728 30.0784C56.7693 30.2251 56.4259 30.0989 56.1037 30.2153C55.963 30.2713 55.8548 30.3594 55.7493 30.446L55.6966 30.4891C55.5298 30.624 55.3574 30.7411 55.0616 30.707C54.7934 30.6624 54.1381 30.1749 53.9232 30.5102C53.8792 30.6045 53.8581 30.7079 53.8615 30.812C53.7885 30.9385 53.7292 31.0839 53.6852 31.1759C53.6147 31.3177 53.5115 31.4407 53.3842 31.5347C52.994 31.7359 52.5197 31.6718 52.1969 31.3742C51.8504 30.9839 51.7234 30.5384 51.237 30.1964C50.7506 29.8545 50.1559 29.6942 49.7161 29.244C49.5425 29.0508 49.3992 28.8324 49.2911 28.5963C49.2729 28.1481 49.4441 27.7129 49.7628 27.3974C49.9021 27.2267 50.0658 27.0774 50.2486 26.9543C50.6134 26.7302 50.9652 26.9077 51.3218 27.0006C51.4279 27.0234 51.5732 27.0828 51.7327 27.1209C51.7922 27.1575 51.8481 27.1995 51.8998 27.2465C52.4291 27.6207 53.0319 27.6 53.6393 27.7232C53.9606 27.7792 54.3026 27.8894 54.6273 27.9852C54.8239 28.0361 55.4223 28.0558 55.5795 28.2504C55.7366 28.4449 56.0116 28.6131 56.2214 28.4025C56.2342 28.3653 56.2197 28.3826 56.27 28.3622C56.3202 28.3418 56.3963 28.3872 56.4479 28.3827C56.5033 28.3776 56.5496 28.3383 56.5635 28.2844C56.5597 28.2407 56.5422 28.1724 56.5056 28.1551L56.4956 28.1519L56.5035 28.1523C56.595 28.1532 56.6773 28.0959 56.7082 28.0098L56.714 27.9909C56.7319 27.8291 56.552 27.7407 56.4242 27.6998C56.3918 27.6891 56.3609 27.6743 56.3323 27.6558C56.4872 27.4329 56.791 27.5117 57.0831 27.6121L57.1455 27.6339C57.3006 27.6886 57.4492 27.7437 57.5664 27.7561C57.816 27.7914 58.0703 27.7452 58.2916 27.6245C58.524 27.4881 58.9311 26.9237 58.4645 26.8083L58.4499 26.8083C58.4475 26.8083 58.4449 26.8083 58.442 26.8083L58.4216 26.8081C58.2122 26.8065 57.3222 26.7922 57.7152 26.6656C57.8185 26.6566 57.9449 26.6816 58.045 26.6367C58.2168 26.5857 58.3582 26.4171 58.346 26.278C58.3338 26.1388 58.2609 26.1292 58.1499 26.0508C58.0363 26.0488 57.9371 25.9731 57.9054 25.8639C57.9308 25.8367 57.9511 25.805 57.9653 25.7705C57.9607 25.7188 57.9562 25.6672 57.9531 25.6314C57.95 25.5956 57.9136 25.5467 57.8779 25.5499C57.595 25.542 57.3167 25.4764 57.0602 25.357C57.023 25.3443 57.0026 25.294 56.9668 25.2971C56.9232 25.268 56.8737 25.2491 56.8218 25.2417C56.669 25.1599 56.526 25.0609 56.3956 24.9465C56.2785 24.2037 56.4534 23.9601 56.8706 24.1519C57.0175 24.1766 57.1581 24.2296 57.2847 24.308C57.5543 24.4522 57.8552 24.5276 58.1609 24.5277C58.3439 24.5174 58.5242 24.4787 58.6954 24.4129C58.703 24.5003 58.7089 24.5679 58.7166 24.6553C58.7201 26.0523 59.8307 26.5936 60.9638 27.0439L61.098 27.0969C61.1278 27.1086 61.1576 27.1202 61.1874 27.1319L61.2766 27.1667L61.3655 27.2014C61.5872 27.2881 61.8047 27.3749 62.0098 27.4675C63.2058 28.0074 64.285 28.7756 65.1868 29.729C65.9056 30.5015 66.034 31.6535 65.5031 32.5653C65.4324 32.5354 65.3304 32.5604 65.2933 32.5476C65.2561 32.5348 65.253 32.499 65.253 32.499C65.2997 32.3307 65.3617 32.1671 65.4385 32.0102C65.4963 31.78 65.4932 31.5386 65.4293 31.31C65.3522 31.0252 65.1366 30.7985 64.856 30.7073C64.4464 30.6029 63.94 30.8555 63.5426 30.8903C63.0584 30.9008 62.5742 30.8668 62.0962 30.7885C61.6699 30.7216 61.0784 30.5972 60.8801 31.1232C60.5487 31.9573 61.194 32.5137 61.8856 32.8217C62.2738 32.9808 62.6733 33.1105 63.0808 33.2098C63.4665 33.3162 63.9925 33.2862 64.3109 33.5388C64.4213 33.6338 64.5095 33.7519 64.5694 33.8847C64.9429 34.5039 65.1047 35.2279 65.0301 35.9472C64.5944 35.7731 64.0336 35.5417 63.5443 35.7608C63.1891 35.912 62.9918 36.2658 62.7158 36.4982C62.4435 36.6819 62.1406 36.8155 61.8214 36.8929C61.7212 36.9377 61.5852 36.9856 61.5426 37.0935L61.5106 37.0979C61.373 37.1206 61.2481 37.1935 61.1605 37.3032C61.0793 37.4169 61.025 37.5477 61.0018 37.6856C60.9677 37.8015 60.9182 37.9123 60.8544 38.0149C60.8314 37.9809 60.7982 37.9677 60.7593 37.9351C60.4695 37.6981 60.0681 37.6518 59.7319 37.8167C59.56 37.9262 59.4189 38.0778 59.322 38.2571C59.2124 38.4379 59.0719 38.598 58.9069 38.73C58.3079 39.1149 58.146 38.2719 57.7288 38.0801C57.529 37.9934 57.2603 37.8967 57.2092 37.725C57.1582 37.5532 57.2823 37.3701 57.3187 37.1907C57.3229 36.8711 57.1796 36.5674 56.9303 36.3675C56.432 35.924 55.9854 35.4256 55.599 34.8818C55.5289 34.7553 55.442 34.6389 55.3405 34.5359C55.1652 34.391 54.9415 34.3687 54.7167 34.3593L54.6324 34.3561C54.5203 34.3522 54.4093 34.348 54.3055 34.33C53.9285 34.2767 53.5601 34.1743 53.2097 34.0253C52.8804 33.8779 52.3396 33.5086 51.9481 33.611C51.3687 33.7618 52.0183 34.2297 52.2243 34.3879C52.5127 34.5952 52.7703 34.8424 52.9893 35.1221C53.1432 35.3009 53.2524 35.5138 53.3079 35.7431C53.3574 35.9761 53.2869 36.2184 53.1201 36.3884C52.9359 36.2691 52.69 36.3211 52.5697 36.5047C52.4639 36.692 52.404 36.9018 52.395 37.1168C52.2916 37.6436 52.0202 38.1227 51.6215 38.4822C51.3637 38.0925 51.0324 37.7568 50.6461 37.4941C50.3747 37.2321 50.1167 36.9565 49.8731 36.6685C49.2826 36.1433 48.3562 36.1723 47.8636 35.5305C47.5514 35.1062 47.3039 34.6378 47.1293 34.1407C47.0446 33.7726 46.8776 33.4284 46.6408 33.134C46.4747 32.9566 46.2711 32.8184 46.0449 32.7295C46.0077 32.7168 46.0046 32.681 46.0046 32.681C45.9017 32.5789 45.7667 32.5138 45.6295 32.4515L45.5266 32.4047C45.4413 32.3653 45.358 32.3237 45.284 32.2714C45.0468 32.122 44.8357 31.9348 44.6589 31.7172C44.4001 31.3674 44.2592 30.9471 43.9848 30.6026C43.5083 30.057 42.7174 29.9149 42.0809 30.2605C41.663 30.4733 41.1165 31.0458 41.1978 31.5634C41.1833 31.5807 41.1348 31.621 41.1348 31.621C41.0448 31.7139 40.9927 31.837 40.9888 31.9662C40.9486 31.9392 40.9023 31.9211 40.8549 31.9045L40.7839 31.8797C40.7251 31.8583 40.6688 31.8333 40.625 31.7898C40.4158 31.5958 40.498 31.1159 40.5443 30.8676C40.6657 30.24 41.0433 29.6916 41.5862 29.3544C42.1291 29.0172 42.7879 28.9218 43.4041 29.0913C43.4267 29.1213 43.4458 29.1557 43.4974 29.1512C43.596 29.145 43.6854 29.0912 43.737 29.007C43.7886 28.9227 43.796 28.8186 43.7567 28.728C43.6347 28.3862 43.0375 28.3343 42.8052 28.0582C42.5816 27.7779 42.6632 27.5337 42.7333 27.2845L42.7505 27.2221C42.7945 27.0552 42.8217 26.8846 42.7382 26.6982C42.5485 26.3142 42.0705 26.2519 41.7825 25.9807C41.4366 25.6424 41.4771 25.0981 41.084 24.8161C40.765 24.6433 40.4072 24.5546 40.0444 24.5586C39.4918 24.4667 39.2333 24.1208 38.8687 23.7522C38.6811 23.5274 38.4194 23.377 38.1308 23.3281C38.0951 23.3312 38.0289 23.353 38.0334 23.4047C38.0419 23.6705 37.9003 23.9186 37.6671 24.0464C37.4339 24.1742 37.1487 24.1602 36.9292 24.01C36.6687 23.8245 36.7522 23.5889 36.5729 23.3242C36.3935 23.0595 36.0682 23.14 35.7932 23.2001C35.1196 23.3272 34.6544 22.9994 34.0837 22.7008C33.9062 22.6064 33.7101 22.5525 33.5093 22.5428C33.1668 22.6198 32.8078 22.556 32.5128 22.3656C32.3517 22.2214 32.1699 22.1023 31.9733 22.0122C31.7931 21.9794 31.6091 21.9726 31.427 21.9919C31.0904 21.9894 30.9641 21.736 30.661 21.6584C30.4924 21.6341 30.321 21.6369 30.1532 21.6668C29.8164 21.7044 29.4776 21.6155 29.2024 21.4175C29.0673 21.3149 28.9254 21.2216 28.7776 21.1383L28.7935 21.1369C28.7567 21.106 28.7194 21.0793 28.6873 21.073L28.6816 21.0722L28.717 21.0412C29.0272 20.7644 29.3176 20.4663 29.5861 20.1489L29.6748 20.0424C32.8673 16.7149 38.3932 15.0218 42.856 14.7715ZM42.1365 31.4452C42.2363 31.4293 42.3385 31.4519 42.4223 31.5084L42.4268 31.56C42.4591 31.6367 42.4835 31.7164 42.4997 31.798C42.6758 32.2552 43.2819 32.3624 43.395 32.8773L43.4109 32.8759C43.5234 33.3387 43.3397 33.8474 43.345 34.3196C43.409 35.1944 43.8575 35.9957 44.5695 36.5076C44.9626 36.7897 45.4354 36.7483 45.8495 36.9043C46.0533 36.9907 46.2562 37.1131 46.4719 37.1984C46.5189 37.2145 46.5668 37.2277 46.6155 37.2379C46.7378 37.2633 46.8576 37.2998 46.9734 37.3468C47.0227 37.4987 47.0366 37.6577 47.0502 37.8127C46.9847 37.8387 46.9164 37.8568 46.8467 37.8665C46.559 37.902 46.2673 37.8855 45.9855 37.8177C45.0726 37.6618 44.2132 37.2798 43.4857 36.7066C43.0885 36.3018 42.7746 35.823 42.5616 35.2974C42.3661 34.8939 42.157 34.4716 41.9959 34.0491C41.8819 33.7199 41.9216 33.3697 41.9629 33.021L41.9791 32.8817C42.0154 32.5569 42.0354 32.2361 41.9152 31.9372C41.8972 31.7305 41.8972 31.5022 42.1365 31.4452ZM45.7406 34.0579C45.9351 33.6724 46.5818 34.473 46.68 34.5886C46.8326 34.7605 46.9413 34.9667 46.9969 35.1897C47.0399 35.4984 46.7549 35.6275 46.4867 35.5829C46.1393 35.3323 45.8863 34.9721 45.7686 34.5602L45.7848 34.5628C45.7262 34.4013 45.7109 34.2272 45.7406 34.0579Z" fill="black"></path> </g> </g> <defs> <clipPath id="clip0_3312_2553"> <rect width="100" height="100" rx="10" fill="white"></rect> </clipPath> <clipPath id="clip1_3312_2553"> <rect width="100" height="100" fill="white"></rect> </clipPath> </defs> </svg> 