<?xml version="1.0" encoding="UTF-8"?> <svg xmlns="http://www.w3.org/2000/svg" width="1080" height="200" viewBox="0 0 1080 200" fill="none"><rect width="1080" height="200" fill="#F5F5F7"></rect><rect x="90" y="50" width="900" height="99.5392" rx="49.7696" fill="white"></rect><path d="M643.96 113.874L641.854 98.2906L636.8 113.874H631.019L626.003 98.2523L624.242 113.874H616.775L619.724 86.6892H629.257L634.273 101.813L639.289 86.6892H649.053L652.001 113.874H643.96Z" fill="black"></path><path d="M599.928 114.563C597.375 114.563 595.04 113.976 592.921 112.802C590.803 111.602 589.118 109.918 587.867 107.748C586.642 105.578 586.029 103.089 586.029 100.282C586.029 97.4738 586.642 94.985 587.867 92.8153C589.118 90.6457 590.803 88.9737 592.921 87.7996C595.04 86.5999 597.375 86 599.928 86C602.481 86 604.816 86.5999 606.935 87.7996C609.079 88.9737 610.764 90.6457 611.989 92.8153C613.24 94.985 613.865 97.4738 613.865 100.282C613.865 103.089 613.24 105.578 611.989 107.748C610.764 109.918 609.079 111.602 606.935 112.802C604.816 113.976 602.481 114.563 599.928 114.563ZM599.928 106.676C601.357 106.676 602.557 106.14 603.527 105.068C604.497 103.97 604.982 102.375 604.982 100.282C604.982 98.1885 604.497 96.6059 603.527 95.5338C602.557 94.4362 601.357 93.8874 599.928 93.8874C598.499 93.8874 597.312 94.4362 596.367 95.5338C595.423 96.6059 594.95 98.1885 594.95 100.282C594.95 102.375 595.423 103.97 596.367 105.068C597.312 106.14 598.499 106.676 599.928 106.676Z" fill="black"></path><path d="M576.223 114.563C573.262 114.563 570.735 113.976 568.641 112.802C566.548 111.628 564.953 109.969 563.855 107.824C562.758 105.68 562.209 103.166 562.209 100.282C562.209 97.4227 562.771 94.9212 563.894 92.7771C565.017 90.6074 566.625 88.9354 568.718 87.7613C570.837 86.5871 573.338 86 576.223 86C578.647 86 581.085 86.5743 583.536 87.723L582.119 95.3424C580.536 94.6021 578.903 94.232 577.218 94.232C575.482 94.232 574.027 94.7681 572.853 95.8401C571.704 96.9122 571.13 98.3927 571.13 100.282C571.13 102.222 571.653 103.715 572.7 104.761C573.772 105.808 575.291 106.331 577.256 106.331C578.328 106.331 579.196 106.242 579.86 106.063C580.549 105.859 581.417 105.553 582.464 105.144L583.918 112.725C582.77 113.261 581.583 113.695 580.358 114.027C579.158 114.385 577.78 114.563 576.223 114.563Z" fill="black"></path><path d="M555.183 114.18C553.728 114.18 552.554 113.785 551.66 112.993C550.767 112.202 550.32 111.117 550.32 109.739C550.32 108.36 550.767 107.237 551.66 106.369C552.579 105.502 553.754 105.068 555.183 105.068C556.638 105.068 557.812 105.502 558.705 106.369C559.624 107.237 560.084 108.36 560.084 109.739C560.084 111.117 559.637 112.202 558.744 112.993C557.85 113.785 556.663 114.18 555.183 114.18Z" fill="black"></path><path d="M537.559 114.563C534.853 114.563 532.594 114.219 530.782 113.529C528.97 112.815 527.374 111.87 525.996 110.696L528.753 104.876C530.463 105.897 531.854 106.65 532.926 107.135C533.998 107.595 535.147 107.824 536.372 107.824C537.24 107.824 537.891 107.684 538.325 107.403C538.784 107.122 539.014 106.74 539.014 106.255C539.014 105.744 538.772 105.348 538.287 105.068C537.827 104.761 537.087 104.468 536.066 104.187C534.177 103.651 532.646 103.128 531.471 102.617C530.297 102.081 529.238 101.213 528.293 100.014C527.349 98.7883 526.877 97.1292 526.877 95.0361C526.877 92.994 527.362 91.2966 528.332 89.9437C529.327 88.5909 530.616 87.5954 532.199 86.9572C533.781 86.3191 535.479 86 537.291 86C539.665 86 541.631 86.3063 543.188 86.9189C544.77 87.506 546.123 88.3484 547.246 89.446L544.375 94.9212C542.92 94.1299 541.72 93.5556 540.775 93.1982C539.856 92.8409 538.912 92.6622 537.942 92.6622C537.151 92.6622 536.513 92.7898 536.028 93.0451C535.568 93.3003 535.338 93.6577 535.338 94.1172C535.338 94.5766 535.581 94.9467 536.066 95.2275C536.576 95.5083 537.355 95.8018 538.402 96.1082C540.444 96.7208 542.052 97.2823 543.226 97.7928C544.4 98.2778 545.472 99.1074 546.442 100.282C547.438 101.43 547.935 102.975 547.935 104.914C547.935 108.08 546.978 110.479 545.064 112.113C543.149 113.746 540.648 114.563 537.559 114.563Z" fill="black"></path><path d="M513.523 114.219C511.941 114.219 510.103 113.976 508.01 113.491L508.622 106.637C508.776 106.663 509.12 106.727 509.656 106.829C510.192 106.931 510.715 106.982 511.226 106.982C512.375 106.982 513.204 106.637 513.715 105.948C514.225 105.259 514.481 104.251 514.481 102.924V86.6892H522.904V104.685C522.904 108.105 522.049 110.556 520.339 112.036C518.654 113.491 516.382 114.219 513.523 114.219Z" fill="black"></path><path d="M496.672 109.05H488.669L487.176 113.874H478.982L488.478 86.6892H498.012L507.469 113.874H498.127L496.672 109.05ZM495.064 103.881L492.651 95.955L490.239 103.881H495.064Z" fill="black"></path><path d="M464.166 105.374H463.017V113.874H454.594V86.6892H467.267C470.815 86.6892 473.521 87.4805 475.384 89.0631C477.248 90.6202 478.179 92.8409 478.179 95.7253C478.179 97.8184 477.694 99.6307 476.724 101.162C475.78 102.668 474.376 103.779 472.513 104.493L478.869 113.874H469.182L464.166 105.374ZM463.017 99.937H465.276C467.931 99.937 469.258 98.8267 469.258 96.6059C469.258 95.5849 468.939 94.8574 468.301 94.4235C467.663 93.964 466.655 93.7343 465.276 93.7343H463.017V99.937Z" fill="black"></path><path d="M445.378 100.014C447.089 100.422 448.39 101.124 449.284 102.119C450.177 103.089 450.624 104.442 450.624 106.178C450.624 108.68 449.692 110.594 447.829 111.921C445.966 113.223 443.26 113.874 439.712 113.874H427V86.6892H438.946C442.494 86.6892 445.161 87.3401 446.948 88.6419C448.761 89.9437 449.667 91.8582 449.667 94.3852C449.667 95.9933 449.309 97.2441 448.595 98.1375C447.88 99.0053 446.808 99.6307 445.378 100.014ZM435.423 92.9685V98.0226H438.41C439.303 98.0226 439.954 97.7801 440.363 97.2951C440.797 96.8101 441.014 96.172 441.014 95.3807C441.014 94.6149 440.797 94.0278 440.363 93.6194C439.929 93.1855 439.278 92.9685 438.41 92.9685H435.423ZM438.946 107.595C439.814 107.595 440.503 107.339 441.014 106.829C441.524 106.318 441.779 105.68 441.779 104.915C441.779 104.174 441.537 103.6 441.052 103.192C440.567 102.758 439.865 102.541 438.946 102.541H435.423V107.595H438.946Z" fill="black"></path><path d="M925.668 130.53C926.271 130.431 928.767 130.401 929.101 130.444C929.247 130.464 929.184 130.469 929.357 130.468C929.771 130.465 931.437 130.687 931.757 130.764C931.926 130.805 932.098 130.856 932.253 130.884L933.232 131.163C933.612 131.345 934.019 131.417 932.943 132.137L930.833 133.235C930.436 133.352 929.914 133.535 929.588 133.645C929.196 133.776 927.128 134.394 926.599 134.49C926.431 134.521 926.232 134.526 925.995 134.574L924.217 134.851C924.113 134.859 924.071 134.838 923.957 134.85C923.825 134.863 923.772 134.895 923.627 134.902C922.015 134.977 921.896 135.043 920.202 134.966C919.387 134.929 916.781 134.638 916.214 133.982L916.215 133.98C916.252 133.578 917.412 132.81 917.827 132.617C918.088 132.497 917.74 132.599 918.351 132.343C920.039 131.636 919.469 131.773 921.422 131.248L924.736 130.651C924.995 130.635 924.912 130.563 925.343 130.569C925.484 130.572 925.495 130.559 925.668 130.53ZM925.88 119.03C926.227 119.468 925.62 121.257 925.442 121.824L924.561 123.841C924.472 124.012 924.373 124.161 924.298 124.33C924.247 124.445 924.257 124.464 924.193 124.573L923.478 125.78C923.271 126.157 922.888 126.657 922.688 127.016L922.261 127.614C922.139 127.767 922.038 127.892 921.92 128.061L921.215 128.944C920.615 129.744 918.86 131.532 917.929 132.183C917.743 132.312 917.598 132.415 917.43 132.547C916.972 132.906 916.184 133.292 915.603 133.384L915.604 133.383C915.244 132.483 915.937 130.525 916.309 129.644C916.635 128.869 916.797 128.619 917.161 127.911C917.244 127.749 917.342 127.609 917.428 127.457C917.522 127.29 917.586 127.157 917.728 126.986C917.868 126.817 917.843 126.744 917.988 126.532L919.096 124.938C919.169 124.85 919.197 124.826 919.276 124.735L919.773 124.074C919.823 124.009 919.892 123.94 919.951 123.872C920.024 123.787 920.057 123.755 920.128 123.667C920.195 123.584 920.264 123.516 920.326 123.444C920.875 122.799 922.093 121.524 922.729 121.022C923.376 120.51 925.336 118.971 925.88 119.03ZM936.585 124.235C936.674 124.242 936.775 124.24 936.875 124.244L937.408 124.253C937.781 124.258 938.587 124.352 938.967 124.441C939.261 124.509 939.709 124.54 939.937 124.736C939.817 125.347 938.133 126.351 937.538 126.711C937.217 126.905 935.67 127.64 935.36 127.739C934.952 127.87 934.575 128.052 934.197 128.194L931.551 128.981C931.157 129.071 930.749 129.14 930.398 129.224C929.477 129.443 928.938 129.475 928.078 129.562C927.744 129.596 928.095 129.601 927.521 129.619L926.922 129.67C926.407 129.729 925.232 129.683 924.754 129.631C924.269 129.578 923.481 129.454 923.044 129.223L922.825 129.083C923.055 128.515 923.68 128.008 924.199 127.635L925.116 127.036C925.9 126.539 927.626 125.827 928.547 125.56C928.715 125.51 928.982 125.393 929.067 125.376C929.278 125.335 929.461 125.288 929.695 125.218C930.883 124.861 931.627 124.686 932.824 124.536L934.029 124.347C934.606 124.315 935.17 124.226 935.796 124.221L936.585 124.235ZM932.395 107.047C932.67 107.386 932.699 107.906 932.818 108.344C932.932 108.755 932.902 109.228 932.952 109.64C932.979 109.858 932.936 110.029 932.946 110.228C932.959 110.493 932.959 110.619 932.95 110.865C932.909 112.045 932.789 113.173 932.565 114.349L932.395 115.154C932.155 116.402 931.667 117.946 931.253 119.124L929.57 122.533C929.262 123.041 928.62 123.912 928.04 124.172L928.038 124.173C927.859 123.903 927.881 123.983 927.742 123.617C927.642 123.354 927.609 123.191 927.546 122.936C927.297 121.937 927.29 120.561 927.374 119.516L927.53 118.368C927.553 118.252 927.549 118.188 927.555 118.054C927.565 117.841 927.619 117.681 927.654 117.475C927.817 116.521 928.078 115.656 928.299 114.697C928.345 114.496 928.418 114.383 928.464 114.19C928.588 113.673 928.895 112.88 929.097 112.371L929.519 111.369C929.563 111.28 929.593 111.201 929.641 111.104C929.681 111.022 929.723 110.948 929.762 110.869C929.912 110.566 929.843 110.616 930.125 110.133C930.129 110.126 930.136 110.115 930.14 110.109C930.144 110.102 930.152 110.091 930.155 110.084L930.923 108.739C931.136 108.366 932.091 107.128 932.395 107.047ZM944.35 115.175C944.646 115.159 945.238 115.107 945.501 115.148C945.833 115.199 945.932 115.16 945.872 115.372H945.873C945.686 116.022 944.881 116.836 944.352 117.338L942.503 118.862C942 119.19 941.321 119.679 940.831 119.947L937.112 121.863C936.914 121.937 936.657 122 936.513 122.067C935.899 122.349 933.923 123.007 933.334 123.064C933.134 123.083 933.039 123.084 932.794 123.154C932.556 123.223 931.273 123.317 931.002 123.311L930.228 123.198C929.952 123.083 930.358 122.505 930.57 122.143C930.801 121.749 931.641 120.894 931.947 120.627L933.213 119.619C933.466 119.413 934.957 118.425 935.272 118.274C935.403 118.211 935.441 118.215 935.559 118.132C935.738 118.005 935.87 117.973 936.067 117.839C936.382 117.625 937.828 116.993 938.259 116.805C939.844 116.112 942.629 115.267 944.35 115.175ZM943.371 105.265C943.511 105.201 943.55 105.135 943.637 105.263C943.682 105.329 943.715 105.554 943.708 105.623H943.706C943.615 106.496 943.414 107.001 943.131 107.77L942.911 108.249C942.866 108.358 942.868 108.387 942.815 108.498L941.919 110.207C941.816 110.386 941.733 110.504 941.634 110.684L941.04 111.626C940.817 111.938 940.615 112.211 940.401 112.51C940.167 112.838 939.966 113.145 939.721 113.402L938.643 114.682C938.109 115.251 938.191 115.23 937.467 115.906C937.316 116.048 937.223 116.183 937.069 116.323C936.605 116.747 935.752 117.461 935.216 117.813L933.903 118.642C933.583 118.772 933.123 118.993 932.863 119.016C932.698 119.03 932.684 119.065 932.636 118.933C932.597 118.827 932.627 118.672 932.627 118.606C932.622 118.121 932.651 117.861 932.756 117.444L933.306 115.913C933.352 115.816 933.374 115.765 933.416 115.673C933.472 115.55 933.465 115.504 933.517 115.395L934.297 113.956C934.388 113.794 934.499 113.671 934.6 113.488L935.824 111.726C936.435 110.923 936.65 110.693 937.238 109.997L940.167 107.229C940.957 106.605 941.277 106.351 942.172 105.823C942.609 105.565 943.003 105.432 943.371 105.265ZM932.915 94.8566C933.012 94.8781 932.919 94.844 933.001 94.8859C933.572 95.1811 934.322 96.7939 934.553 97.3664C934.714 97.7663 934.835 97.9778 934.969 98.4328C935.193 99.1967 935.454 99.9431 935.652 100.731L936.05 102.871L936.265 105.152C936.276 105.32 936.242 105.23 936.249 105.404C936.254 105.514 936.281 105.552 936.287 105.658C936.33 106.38 936.185 108.087 936.046 108.786C935.987 109.083 935.708 110.297 935.383 110.403C934.598 109.983 933.83 108.369 933.534 107.583C933.247 106.822 933.197 106.805 932.927 105.896C932.858 105.66 932.854 105.394 932.796 105.158C932.733 104.901 932.66 104.641 932.58 104.36C932.476 103.992 932.393 103.222 932.343 102.83L932.096 99.8976C932.092 99.0071 932.127 98.7339 932.183 97.8878C932.197 97.6706 932.25 97.4327 932.256 97.2814C932.273 96.8644 932.366 96.4215 932.477 96.0167C932.566 95.6893 932.7 95.0405 932.915 94.8566ZM946.555 94.1427C946.613 94.2222 946.629 94.26 946.627 94.4025C946.62 94.8389 946.58 94.8629 946.559 95.2033C946.531 95.6531 946.064 97.0923 945.847 97.5402L945.237 98.8732C945.067 99.2077 944.934 99.437 944.78 99.7209C944.63 99.9982 943.731 101.479 943.505 101.756C943.381 101.908 943.335 102.033 943.224 102.171C942.621 102.923 942.024 103.766 941.348 104.442C941.102 104.686 940.897 104.912 940.648 105.159C940.425 105.381 940.141 105.623 939.873 105.839C939.488 106.148 938.414 106.96 937.957 107.023L937.956 107.025L937.607 107.075C937.401 106.111 937.827 104.628 938.224 103.686L938.731 102.598C938.788 102.484 938.771 102.486 938.818 102.377C938.977 102.018 939.139 101.811 939.304 101.544C939.377 101.425 939.412 101.296 939.525 101.134L941.158 98.7599L942.116 97.6144C942.496 97.1921 943.089 96.5539 943.492 96.2003L944.269 95.5265C944.697 95.2012 944.535 95.2769 945.104 94.8781L946.029 94.2882L946.555 94.1427ZM941.264 85.2804C941.42 85.5885 941.74 86.7281 941.761 87.0451C941.795 87.5622 941.909 88.4928 941.858 88.9982C941.825 89.339 941.847 90.1898 941.768 90.8429L941.598 92.1125C941.585 92.2393 941.585 92.2531 941.565 92.3625C941.547 92.4558 941.547 92.5145 941.523 92.6046C941.491 92.7285 941.483 92.7208 941.463 92.839C941.277 93.9337 940.897 95.4911 940.457 96.55C940.395 96.6976 940.344 96.8515 940.301 96.9953L939.927 97.8888C939.864 98.0528 939.782 98.1514 939.71 98.3048C939.414 98.9454 938.641 100.329 937.989 100.636V100.635C937.297 100.027 937.179 97.7763 937.21 96.7599C937.215 96.5912 937.218 96.3835 937.24 96.2355C937.268 96.0563 937.251 95.8934 937.266 95.7179C937.272 95.6478 937.289 95.5372 937.304 95.4689L937.379 94.7482C937.418 94.5531 937.439 94.4165 937.467 94.2296L937.574 93.4904C937.602 93.3265 937.592 93.3871 937.641 93.2267C937.671 93.1268 937.67 93.0816 937.692 92.9904L937.979 91.7492C938.345 90.5473 938.717 89.2 939.321 88.089C939.447 87.8589 939.459 87.7008 939.745 87.2209C939.996 86.8002 940.796 85.3369 941.264 85.2804ZM926.616 83.8947C926.652 83.3178 928.788 84.7332 929.021 84.9201C929.165 85.035 929.398 85.159 929.591 85.3439L930.136 85.8097C930.266 85.9231 930.367 85.9893 930.501 86.1173C930.633 86.244 930.723 86.3267 930.854 86.4474C931.311 86.8677 931.769 87.3622 932.198 87.8351C932.91 88.6183 934.148 90.2096 934.634 91.0744C934.73 91.2466 934.692 91.1663 934.781 91.2863L935.059 91.7677C935.148 91.9327 935.081 91.8684 935.189 92.0109C935.353 92.2235 935.584 92.7421 935.708 93.0177C935.978 93.6149 935.933 93.5547 936.15 94.1544C936.28 94.5107 936.62 95.5377 936.546 95.9279C936.504 96.147 936.346 96.0727 936.165 96.0353C935.426 95.8832 934.811 95.5026 934.21 95.1076L932.995 94.1554C932.777 93.9323 932.49 93.7509 932.282 93.5089C931.96 93.1336 931.411 92.6389 930.957 92.09L930.955 92.091C930.879 91.9981 930.873 91.968 930.801 91.8898L930.323 91.298C930.249 91.2003 930.26 91.2125 930.183 91.1193L929.726 90.506C929.535 90.2347 929.3 89.9536 929.121 89.6486L928.851 89.2248C928.369 88.5254 927.986 87.8009 927.644 87.0285C927.588 86.9008 927.56 86.9108 927.506 86.799C927.362 86.5043 927.321 86.2283 927.057 85.6896C926.941 85.4536 926.597 84.1973 926.616 83.8947ZM938.14 75.4806C938.229 75.66 938.278 75.6279 938.39 75.9357L939.047 78.2404L939.145 79.2941C939.279 80.0579 939.271 81.244 939.248 81.9962L939.208 82.7726C939.124 83.5416 939.088 84.2351 938.962 85.0021L938.79 85.9728C938.665 86.7511 938.405 87.5329 938.172 88.298C938.032 88.7599 937.829 89.1873 937.646 89.6085C937.461 90.0413 936.941 91.0316 936.555 91.1466L936.556 91.1486C936.454 91.0525 936.478 91.0951 936.39 90.9562C935.974 90.308 936.227 90.6389 936.002 90.1994C935.736 89.6793 935.64 89.0177 935.518 88.4513C935.416 87.9813 935.334 86.2104 935.343 85.7013C935.371 84.1354 935.533 82.2426 935.918 80.6955C935.962 80.5141 935.958 80.4203 936.026 80.2189C936.11 79.9746 936.167 79.5731 936.354 79.0714L936.564 78.3849C936.778 77.8337 937.175 76.7251 937.521 76.2453C937.684 76.0199 937.808 75.6259 938.14 75.4806ZM928.72 70.3019C928.88 70.2955 928.89 70.3157 929.095 70.4943C929.697 71.0185 929.427 70.7155 930.062 71.4718C930.321 71.7815 931.263 73.1855 931.405 73.5343C931.445 73.6306 931.45 73.6968 931.502 73.7882C931.553 73.8788 931.592 73.8782 931.648 73.9914C931.691 74.0778 931.701 74.1593 931.741 74.2472C931.802 74.3806 931.823 74.3542 931.889 74.4738L932.329 75.4992C932.412 75.754 932.487 75.8019 932.576 75.9875C932.717 76.2824 932.824 76.7906 932.953 77.1164C933.32 78.0358 933.31 78.2487 933.567 79.0988C933.68 79.4739 933.732 79.8543 933.853 80.1847C934.007 80.6074 934.049 81.3255 934.101 81.7697C934.181 82.4661 934.236 83.1133 934.191 83.8126C934.165 84.2137 934.095 84.3999 934.052 84.7365C933.953 85.5108 933.526 85.07 933.163 84.7736C932.594 84.3096 932.041 83.589 931.657 82.9562C931.219 82.2323 930.755 81.4731 930.432 80.6789C930.348 80.475 930.328 80.3065 930.222 80.1349C929.993 79.7668 929.95 79.4508 929.804 79.048C929.574 78.409 929.555 78.4436 929.294 77.5646C929.049 76.7433 928.841 75.5989 928.665 74.7316L928.51 73.1886C928.463 72.8169 928.495 72.516 928.476 72.172C928.465 71.9855 928.511 70.4576 928.72 70.3019ZM916.034 75.9689C916.813 75.7374 917.959 75.9507 918.751 76.1437L918.75 76.1427C919.323 76.2824 920.201 76.5713 920.769 76.7775L921.589 77.1027C922.197 77.3242 923.442 77.9476 924.036 78.296C924.356 78.4833 925.237 78.957 925.521 79.1701L928.461 81.5402C928.55 81.6448 928.548 81.6183 928.66 81.7248C929.019 82.0672 929.822 83.0838 929.877 83.5763C929.534 83.8006 928.596 83.7113 928.198 83.6808C928.011 83.6668 927.844 83.6427 927.672 83.6125C926.951 83.486 926.354 83.2872 925.701 83.0744L922.113 81.4152C921.991 81.3504 921.877 81.285 921.711 81.1769C921.554 81.0759 921.449 81.0195 921.283 80.923C921.136 80.8374 920.993 80.7503 920.862 80.6574C920.729 80.5615 920.586 80.4391 920.456 80.3605C919.9 80.0223 919.364 79.5795 918.843 79.1691C918.359 78.7894 917.833 78.2884 917.339 77.7726L916.497 76.7511C916.429 76.651 916.38 76.6009 916.327 76.5197C916.229 76.3717 916.084 76.1392 916.034 75.9689ZM921.153 65.0119C921.674 64.8578 922.988 66.2638 923.298 66.6525C923.486 66.8877 923.703 67.0853 923.905 67.3751C924.012 67.5274 924.097 67.6642 924.209 67.8C924.346 67.9662 924.376 68.0109 924.489 68.1974C924.557 68.3107 924.694 68.4545 924.781 68.5792L925.435 69.7013C925.509 69.7959 925.494 69.7518 925.56 69.8839C925.661 70.0878 925.627 69.9935 925.709 70.1144C925.786 70.2278 925.767 70.2467 925.819 70.3468C925.887 70.4762 925.991 70.6153 926.082 70.7853C926.397 71.3777 926.754 72.1345 926.984 72.7287C927.063 72.9318 927.096 73.0948 927.186 73.2746C927.513 73.9294 927.969 75.507 928.09 76.1515C928.228 76.8879 928.355 77.4938 928.325 78.2101C928.312 78.5141 928.319 78.9252 928.148 79.1125C927.69 79.0125 927.336 78.7733 926.997 78.4777C926.883 78.3792 926.777 78.302 926.652 78.1964L925.693 77.2033L924.569 75.6603C924.146 75.0979 923.463 73.6496 923.062 72.9787C922.962 72.8108 922.931 72.6306 922.844 72.465C922.239 71.3113 921.261 68.1985 921.215 67.0148C921.207 66.8125 921.125 66.6618 921.13 66.4709C921.142 66.034 921.035 65.4304 921.153 65.0119ZM911 66.8009C911.293 66.629 911.818 66.7805 912.064 66.8273C912.623 66.9333 913.19 67.1274 913.707 67.3537C914.35 67.635 915.081 67.9719 915.695 68.3449H915.696C916.088 68.5831 917.011 69.092 917.37 69.3664C917.803 69.6977 918.608 70.2475 918.952 70.5607C919.433 70.9985 919.87 71.3218 920.466 71.8791L921.691 73.1671C921.75 73.2392 921.815 73.2929 921.885 73.3683C922.244 73.754 922.557 74.2529 922.837 74.6857C923.145 75.1634 923.493 75.7272 923.536 76.3175C923.197 76.5395 922.188 76.2793 921.763 76.175C921.709 76.162 921.698 76.1618 921.645 76.1476L921.502 76.1017C920.274 75.6752 919.057 75.0828 917.996 74.3507C917.855 74.2541 917.753 74.1739 917.606 74.088C917.428 73.9836 917.367 73.9026 917.202 73.7931C916.495 73.323 916.247 73.0821 915.628 72.5841C915.52 72.4966 915.526 72.5158 915.438 72.4474C915.372 72.3962 915.342 72.36 915.26 72.2794C915.129 72.1504 914.994 72.0551 914.879 71.9386L913.105 70.1251C912.789 69.7653 911.968 68.7388 911.804 68.4103L911.5 67.9279C911.344 67.6896 911.075 67.1017 911 66.8009Z" fill="#F5F5F7"></path><path d="M150.529 130.444C150.86 130.401 153.358 130.431 153.961 130.53C154.134 130.559 154.145 130.572 154.287 130.569C154.718 130.563 154.634 130.635 154.893 130.651L158.207 131.248C160.16 131.773 159.59 131.636 161.279 132.343C161.89 132.599 161.542 132.497 161.802 132.617C162.217 132.81 163.376 133.578 163.414 133.98L163.415 133.982C162.849 134.638 160.244 134.929 159.428 134.966C157.733 135.043 157.614 134.977 156.002 134.902C155.857 134.895 155.804 134.863 155.672 134.85C155.559 134.838 155.517 134.859 155.412 134.851L153.635 134.574C153.399 134.525 153.199 134.521 153.031 134.49C152.503 134.394 150.432 133.776 150.041 133.645C149.715 133.535 149.194 133.352 148.797 133.235L146.686 132.137C145.61 131.417 146.018 131.345 146.397 131.163L147.376 130.884C147.531 130.856 147.703 130.805 147.872 130.764C148.192 130.687 149.858 130.465 150.273 130.468C150.445 130.469 150.383 130.464 150.529 130.444ZM153.748 119.03C154.292 118.971 156.253 120.51 156.9 121.022C157.536 121.524 158.753 122.799 159.302 123.444C159.364 123.516 159.434 123.584 159.501 123.667C159.572 123.755 159.604 123.787 159.678 123.872C159.737 123.94 159.806 124.009 159.856 124.074L160.352 124.735C160.43 124.826 160.46 124.85 160.533 124.938L161.64 126.532C161.785 126.744 161.76 126.816 161.902 126.986C162.043 127.157 162.107 127.29 162.2 127.457C162.286 127.609 162.385 127.749 162.468 127.911C162.832 128.619 162.993 128.87 163.32 129.644C163.691 130.525 164.385 132.483 164.026 133.383V133.384C163.445 133.292 162.657 132.906 162.199 132.547C162.031 132.415 161.885 132.312 161.699 132.183C160.768 131.532 159.014 129.744 158.414 128.944L157.708 128.061C157.59 127.892 157.49 127.767 157.368 127.614L156.941 127.016C156.74 126.657 156.358 126.157 156.152 125.78L155.435 124.573C155.371 124.464 155.381 124.445 155.33 124.33C155.255 124.161 155.156 124.012 155.068 123.841L154.187 121.824C154.01 121.257 153.402 119.468 153.748 119.03ZM143.831 124.221C144.457 124.226 145.021 124.315 145.598 124.347L146.803 124.536C148 124.686 148.744 124.862 149.931 125.218C150.165 125.288 150.349 125.335 150.56 125.376C150.645 125.393 150.912 125.51 151.08 125.56C152.001 125.827 153.727 126.539 154.51 127.036L155.427 127.635C155.947 128.008 156.573 128.515 156.802 129.083L156.582 129.224L156.583 129.223C156.146 129.454 155.358 129.578 154.873 129.631C154.395 129.683 153.22 129.729 152.705 129.67L152.106 129.619C151.531 129.601 151.883 129.596 151.549 129.562C150.689 129.475 150.15 129.443 149.228 129.224C148.878 129.14 148.47 129.071 148.076 128.981L145.429 128.194C145.051 128.052 144.674 127.87 144.266 127.739C143.955 127.64 142.41 126.905 142.089 126.711C141.494 126.351 139.809 125.347 139.69 124.736C139.917 124.54 140.365 124.509 140.659 124.441C141.04 124.352 141.845 124.258 142.218 124.253L142.751 124.244C142.851 124.24 142.954 124.242 143.042 124.235L143.831 124.221ZM147.233 107.047C147.536 107.128 148.491 108.366 148.704 108.739L149.473 110.084L149.502 110.133C149.785 110.616 149.715 110.566 149.865 110.869C149.905 110.948 149.946 111.022 149.987 111.104C150.035 111.201 150.064 111.28 150.109 111.369L150.53 112.37C150.732 112.879 151.039 113.673 151.163 114.19C151.21 114.383 151.282 114.496 151.328 114.697C151.549 115.656 151.81 116.521 151.973 117.475C152.008 117.681 152.062 117.841 152.072 118.054C152.079 118.188 152.074 118.251 152.097 118.367L152.253 119.516C152.337 120.561 152.331 121.937 152.081 122.936C152.018 123.191 151.984 123.353 151.885 123.616C151.747 123.982 151.768 123.903 151.589 124.173L151.588 124.172C151.008 123.912 150.365 123.041 150.057 122.533L148.374 119.124C147.96 117.946 147.471 116.402 147.233 115.154L147.062 114.349C146.838 113.173 146.719 112.045 146.677 110.865C146.668 110.619 146.667 110.492 146.681 110.227C146.691 110.029 146.649 109.858 146.675 109.64C146.725 109.228 146.696 108.755 146.809 108.344C146.929 107.906 146.958 107.386 147.233 107.047ZM134.127 115.148C134.391 115.107 134.981 115.158 135.279 115.174C136.999 115.266 139.785 116.112 141.37 116.805C141.801 116.993 143.246 117.624 143.561 117.838C143.758 117.973 143.89 118.005 144.07 118.132C144.187 118.215 144.224 118.211 144.356 118.274C144.672 118.425 146.162 119.413 146.415 119.619L147.68 120.627C147.985 120.894 148.827 121.749 149.058 122.143C149.27 122.505 149.676 123.083 149.401 123.198L148.626 123.311C148.355 123.317 147.072 123.223 146.834 123.154C146.589 123.084 146.493 123.083 146.294 123.064C145.704 123.007 143.729 122.349 143.115 122.067C142.971 122 142.714 121.937 142.516 121.863L138.797 119.947C138.307 119.679 137.629 119.19 137.125 118.862L135.277 117.338C134.747 116.836 133.943 116.022 133.756 115.372H133.757C133.696 115.16 133.795 115.199 134.127 115.148ZM135.991 105.263C136.078 105.135 136.117 105.201 136.258 105.265C136.627 105.431 137.019 105.565 137.456 105.823C138.351 106.351 138.671 106.605 139.462 107.229L142.39 109.997C142.978 110.693 143.193 110.923 143.804 111.726L145.029 113.488C145.128 113.671 145.241 113.794 145.331 113.956L146.112 115.395C146.164 115.504 146.156 115.551 146.211 115.673C146.253 115.765 146.276 115.816 146.322 115.913L146.872 117.444C146.976 117.861 147.006 118.121 147.001 118.606C147.001 118.672 147.031 118.827 146.992 118.933C146.943 119.065 146.93 119.03 146.765 119.016C146.505 118.993 146.044 118.772 145.724 118.642L144.412 117.813C143.876 117.461 143.023 116.747 142.559 116.323C142.405 116.183 142.312 116.048 142.161 115.906C141.438 115.23 141.519 115.251 140.986 114.682L139.907 113.402C139.662 113.145 139.461 112.838 139.227 112.51C139.013 112.211 138.812 111.938 138.588 111.626L137.994 110.684C137.895 110.504 137.812 110.386 137.709 110.207L136.813 108.498C136.76 108.387 136.761 108.358 136.716 108.249L136.497 107.77C136.214 107.001 136.013 106.496 135.922 105.623H135.92C135.913 105.554 135.946 105.329 135.991 105.263ZM146.713 94.8566C146.928 95.0404 147.062 95.6892 147.152 96.0167C147.262 96.4215 147.355 96.8644 147.372 97.2814C147.378 97.4327 147.431 97.6706 147.446 97.8878C147.501 98.7336 147.535 99.0065 147.532 99.8966L147.285 102.83C147.235 103.222 147.151 103.992 147.047 104.36C146.968 104.641 146.896 104.901 146.833 105.158C146.776 105.394 146.771 105.66 146.701 105.896C146.431 106.805 146.382 106.822 146.095 107.583C145.799 108.369 145.031 109.983 144.246 110.403C143.92 110.298 143.642 109.083 143.582 108.786C143.443 108.087 143.299 106.38 143.341 105.658C143.347 105.552 143.374 105.514 143.379 105.404C143.386 105.23 143.351 105.32 143.363 105.152L143.578 102.871L143.976 100.731C144.174 99.943 144.435 99.1959 144.659 98.4318C144.793 97.977 144.914 97.7662 145.075 97.3664C145.306 96.7939 146.056 95.18 146.627 94.8849C146.708 94.8431 146.616 94.8781 146.713 94.8566ZM133.599 94.2882L134.524 94.8781C135.093 95.2768 134.93 95.2015 135.359 95.5265L136.136 96.2003C136.539 96.5539 137.132 97.1922 137.512 97.6144L138.469 98.7599L140.103 101.134C140.216 101.296 140.251 101.425 140.324 101.544C140.489 101.812 140.651 102.018 140.81 102.377C140.858 102.486 140.84 102.484 140.896 102.598L141.405 103.686C141.801 104.628 142.227 106.111 142.021 107.075L141.672 107.025L141.671 107.023C141.213 106.96 140.14 106.148 139.755 105.839C139.486 105.623 139.203 105.381 138.98 105.159C138.731 104.912 138.526 104.686 138.28 104.442C137.604 103.766 137.007 102.923 136.405 102.171C136.294 102.033 136.247 101.908 136.123 101.756C135.897 101.479 134.998 99.9982 134.848 99.7209C134.695 99.437 134.561 99.2077 134.391 98.8732L133.781 97.5402C133.565 97.0923 133.098 95.6531 133.07 95.2033C133.048 94.8629 133.007 94.8389 133 94.4025C132.998 94.26 133.015 94.2221 133.073 94.1427L133.599 94.2882ZM138.364 85.2804C138.832 85.3369 139.632 86.7999 139.883 87.2209C140.169 87.7008 140.183 87.8589 140.308 88.089C140.912 89.2 141.285 90.5473 141.651 91.7492L141.937 92.9904C141.959 93.0816 141.957 93.1268 141.988 93.2267C142.036 93.3872 142.027 93.3263 142.055 93.4904L142.161 94.2296C142.19 94.4165 142.21 94.5531 142.25 94.7482L142.324 95.4689C142.339 95.5372 142.356 95.6478 142.363 95.7179C142.378 95.8934 142.36 96.0563 142.388 96.2355C142.411 96.3835 142.414 96.5912 142.419 96.7599C142.45 97.7763 142.332 100.027 141.64 100.635L141.639 100.636C140.986 100.329 140.215 98.9454 139.919 98.3048C139.848 98.1513 139.764 98.0528 139.701 97.8888L139.327 96.9953C139.284 96.8516 139.233 96.6976 139.172 96.55C138.732 95.4911 138.352 93.9337 138.166 92.839C138.146 92.7208 138.138 92.7285 138.106 92.6046C138.082 92.5144 138.081 92.4558 138.064 92.3625C138.043 92.2531 138.044 92.2393 138.031 92.1125L137.861 90.8429C137.781 90.1898 137.803 89.339 137.77 88.9982C137.72 88.4928 137.834 87.5622 137.867 87.0451C137.888 86.7281 138.209 85.5886 138.364 85.2804ZM150.607 84.9191C150.842 84.731 152.975 83.3181 153.011 83.8947C153.03 84.1975 152.686 85.4537 152.571 85.6896C152.306 86.2283 152.265 86.5043 152.121 86.799C152.067 86.9107 152.04 86.9008 151.984 87.0285C151.642 87.8009 151.258 88.5254 150.777 89.2248L150.507 89.6486C150.328 89.9536 150.092 90.2347 149.902 90.506L149.445 91.1193C149.367 91.2124 149.378 91.2003 149.304 91.298L148.827 91.8898C148.755 91.968 148.749 91.9972 148.672 92.09H148.67C148.215 92.6388 147.667 93.1336 147.345 93.5089C147.137 93.7509 146.85 93.9324 146.632 94.1554L145.417 95.1066C144.816 95.5017 144.202 95.8833 143.462 96.0353C143.28 96.0728 143.123 96.1469 143.081 95.9279C143.007 95.5377 143.347 94.5107 143.477 94.1544C143.695 93.5547 143.65 93.6149 143.919 93.0177C144.044 92.7421 144.275 92.2235 144.438 92.0109C144.547 91.8684 144.48 91.9327 144.569 91.7677L144.846 91.2863C144.936 91.1663 144.897 91.2465 144.993 91.0744C145.479 90.2096 146.717 88.6183 147.429 87.8351C147.858 87.3621 148.316 86.8677 148.773 86.4474C148.904 86.3266 148.994 86.2441 149.126 86.1173C149.26 85.9892 149.361 85.9231 149.491 85.8097L150.036 85.3439C150.229 85.1588 150.463 85.0341 150.607 84.9191ZM141.49 75.4806C141.821 75.6259 141.945 76.0199 142.108 76.2453C142.454 76.725 142.852 77.8336 143.066 78.3849L143.275 79.0714C143.461 79.5732 143.521 79.9745 143.604 80.2189C143.672 80.4202 143.668 80.5141 143.712 80.6955C144.097 82.2426 144.259 84.1354 144.287 85.7013C144.296 86.2104 144.213 87.9813 144.112 88.4513C143.989 89.0177 143.894 89.6793 143.628 90.1994C143.403 90.639 143.656 90.3079 143.24 90.9562C143.152 91.0951 143.176 91.0527 143.075 91.1486V91.1466C142.69 91.032 142.17 90.0415 141.984 89.6085C141.802 89.1873 141.598 88.7599 141.458 88.298C141.225 87.5329 140.965 86.7512 140.84 85.9728L140.667 85.0021C140.541 84.2351 140.506 83.5416 140.422 82.7726L140.383 81.9962C140.36 81.244 140.351 80.0579 140.486 79.2941L140.584 78.2404L141.241 75.9357C141.352 75.628 141.401 75.66 141.49 75.4806ZM150.91 70.3019C151.119 70.4576 151.165 71.9855 151.155 72.172C151.135 72.516 151.167 72.8169 151.12 73.1886L150.965 74.7316C150.789 75.599 150.581 76.7433 150.336 77.5646C150.075 78.4436 150.057 78.4091 149.826 79.048C149.68 79.4508 149.636 79.7667 149.408 80.1349C149.302 80.3065 149.283 80.4751 149.199 80.6789C148.876 81.4732 148.411 82.2323 147.973 82.9562C147.59 83.589 147.036 84.3096 146.467 84.7736C146.104 85.07 145.677 85.5108 145.577 84.7365C145.534 84.4 145.466 84.2137 145.44 83.8126C145.395 83.1133 145.448 82.4661 145.53 81.7697C145.581 81.3255 145.624 80.6074 145.778 80.1847C145.898 79.8542 145.95 79.4739 146.064 79.0988C146.321 78.2486 146.311 78.0358 146.677 77.1164C146.807 76.7906 146.913 76.2824 147.054 75.9875C147.143 75.8019 147.218 75.7541 147.301 75.4992L147.742 74.4738C147.808 74.3543 147.828 74.3805 147.889 74.2472C147.929 74.1592 147.939 74.0779 147.982 73.9914C148.038 73.8782 148.078 73.879 148.129 73.7882C148.18 73.6968 148.185 73.6305 148.225 73.5343C148.368 73.1856 149.308 71.7819 149.569 71.4718C150.203 70.7155 149.933 71.0183 150.535 70.4943C150.741 70.3157 150.75 70.2955 150.91 70.3019ZM160.877 76.1437C161.669 75.9507 162.816 75.7374 163.595 75.9689C163.544 76.1391 163.4 76.3717 163.302 76.5197C163.249 76.601 163.2 76.6509 163.132 76.7511L162.289 77.7726C161.795 78.2884 161.27 78.7894 160.786 79.1691C160.265 79.5796 159.728 80.0223 159.172 80.3605C159.043 80.4391 158.9 80.5615 158.766 80.6574C158.636 80.7503 158.493 80.8374 158.346 80.923C158.179 81.0195 158.073 81.0759 157.917 81.1769C157.751 81.2849 157.637 81.3504 157.515 81.4152L153.927 83.0744C153.274 83.2872 152.678 83.486 151.956 83.6125C151.785 83.6427 151.618 83.6668 151.431 83.6808C151.033 83.7113 150.094 83.8009 149.751 83.5763C149.807 83.0837 150.609 82.0671 150.969 81.7248C151.081 81.6181 151.079 81.6453 151.168 81.5402L154.107 79.1701C154.391 78.9571 155.273 78.4833 155.593 78.296C156.186 77.9476 157.432 77.3242 158.04 77.1027L158.86 76.7775C159.427 76.5714 160.305 76.2824 160.878 76.1427L160.877 76.1437ZM156.332 66.6525C156.642 66.2638 157.956 64.8578 158.477 65.0119C158.594 65.4304 158.488 66.034 158.5 66.4709C158.505 66.6618 158.422 66.8125 158.414 67.0148C158.368 68.1986 157.391 71.3115 156.785 72.465C156.698 72.6306 156.668 72.8108 156.568 72.9787C156.166 73.6496 155.484 75.0978 155.061 75.6603L153.936 77.2033L152.978 78.1964C152.853 78.3019 152.746 78.3792 152.633 78.4777C152.294 78.7735 151.94 79.0126 151.481 79.1125C151.311 78.9251 151.318 78.5139 151.305 78.2101C151.275 77.4938 151.401 76.8879 151.539 76.1515C151.661 75.507 152.117 73.9294 152.445 73.2746C152.535 73.0948 152.567 72.9318 152.646 72.7287C152.876 72.1345 153.233 71.3777 153.548 70.7853C153.639 70.6153 153.743 70.4762 153.811 70.3468C153.863 70.2468 153.843 70.2275 153.92 70.1144C154.002 69.9935 153.968 70.0875 154.07 69.8839C154.135 69.7518 154.121 69.7959 154.195 69.7013L154.848 68.5792C154.935 68.4545 155.072 68.3107 155.14 68.1974C155.253 68.0107 155.283 67.9664 155.421 67.8C155.534 67.6642 155.618 67.5274 155.724 67.3751C155.926 67.0853 156.144 66.8878 156.332 66.6525ZM167.564 66.8273C167.81 66.7806 168.335 66.629 168.628 66.8009C168.553 67.1017 168.285 67.6895 168.129 67.9279L167.825 68.4103C167.662 68.7385 166.84 69.765 166.524 70.1251L164.749 71.9386C164.633 72.055 164.501 72.1504 164.369 72.2794C164.287 72.3602 164.257 72.3962 164.191 72.4474C164.102 72.5155 164.109 72.4967 164 72.5841C163.382 73.082 163.134 73.3231 162.427 73.7931C162.262 73.9026 162.202 73.9836 162.023 74.088C161.876 74.1739 161.773 74.2541 161.633 74.3507C160.571 75.0829 159.354 75.6752 158.126 76.1017L157.985 76.1466C157.931 76.161 157.919 76.1609 157.865 76.174C157.44 76.2784 156.431 76.5395 156.092 76.3175C156.135 75.7273 156.483 75.1634 156.791 74.6857C157.071 74.2529 157.384 73.754 157.743 73.3683C157.814 73.2929 157.879 73.2392 157.938 73.1671L159.163 71.8781C159.759 71.321 160.195 70.9984 160.676 70.5607C161.02 70.2475 161.825 69.6978 162.258 69.3664C162.617 69.092 163.541 68.5831 163.933 68.3449C164.547 67.9719 165.278 67.635 165.921 67.3537C166.439 67.1274 167.005 66.9333 167.564 66.8273Z" fill="#F5F5F7"></path></svg> 