<?xml version="1.0" encoding="UTF-8"?> <svg xmlns="http://www.w3.org/2000/svg" width="1920" height="1920" viewBox="0 0 1920 1920" fill="none"><path d="M986.585 1374L740.392 1369.49C660.68 1367.92 580.769 1371.06 502.62 1354.8C383.738 1330.52 375.316 1211.43 366.503 1111.55C354.36 971.12 359.061 828.143 381.976 688.888C394.913 610.751 445.824 564.126 524.556 559.052C790.335 540.639 1057.88 542.821 1323.07 551.411C1351.08 552.199 1379.28 556.503 1406.89 561.402C1543.22 585.298 1546.54 720.243 1555.38 833.842C1564.19 948.613 1560.47 1063.97 1543.63 1177.96C1530.11 1272.34 1504.26 1351.49 1395.14 1359.13C1258.43 1369.12 1124.85 1377.16 987.758 1374.6C987.764 1374 986.976 1374 986.585 1374ZM841.847 1135.05C944.872 1075.9 1045.93 1017.73 1148.37 958.977C1045.15 899.824 944.283 841.657 841.847 782.901V1135.05Z" fill="black"></path></svg> 