<?xml version="1.0" encoding="UTF-8"?> <svg xmlns="http://www.w3.org/2000/svg" xmlns:xlink="http://www.w3.org/1999/xlink" width="404px" height="110px" viewBox="0 0 404 110"> <title>500+</title> <defs> <radialGradient cx="75.381116%" cy="-4.33877037%" fx="75.381116%" fy="-4.33877037%" r="180.261262%" gradientTransform="translate(0.753811,-0.043388),scale(0.271184,1.000000),rotate(-30.488780),scale(1.000000,0.891476),translate(-0.753811,0.043388)" id="radialGradient-1"> <stop stop-color="#F8F392" offset="0%"></stop> <stop stop-color="#AA6B08" offset="100%"></stop> </radialGradient> </defs> <g id="Page-1" stroke="none" stroke-width="1" fill="none" fill-rule="evenodd"> <g id="Artboard-Copy-33" transform="translate(-1410.000000, -1084.000000)" fill="url(#radialGradient-1)" fill-rule="nonzero"> <path d="M1451.97998,1193.83105 C1479.15283,1193.83105 1498.56201,1175.95996 1498.56201,1150.98438 C1498.56201,1133.55273 1485.96436,1120.44238 1469.11865,1120.44238 C1459.08447,1120.44238 1451.8335,1123.5918 1446.19385,1129.01172 L1445.60791,1129.01172 L1451.97998,1109.82227 L1500.75928,1109.82227 L1505.95947,1086.31152 L1432.64404,1086.31152 L1414.99268,1146.73633 L1442.60498,1146.73633 C1445.46143,1143.00098 1451.24756,1140.21777 1456.0083,1140.21777 C1464.50439,1140.21777 1469.99756,1145.6377 1469.99756,1154.13379 C1469.99756,1163.21582 1462.81982,1170.39355 1453.73779,1170.39355 C1445.14473,1170.39355 1438.97225,1165.33881 1438.30875,1157.82639 L1438.28369,1157.50293 L1438.28369,1157.50293 L1410.45166,1157.50293 C1410.31414,1159.60005 1410.27345,1160.08346 1410.26895,1160.18781 L1410.26895,1160.21204 C1410.26895,1160.21319 1410.26895,1160.21393 1410.26895,1160.21436 L1410.27181,1160.21401 C1410.28541,1160.20328 1410.30518,1160.22634 1410.30518,1160.87207 C1410.30518,1179.98828 1427.81006,1193.83105 1451.97998,1193.83105 Z M1552.90771,1193.83105 C1584.91455,1193.83105 1608.05908,1165.70605 1608.05908,1126.8877 C1608.05908,1101.47266 1591.43311,1084.48047 1566.45752,1084.48047 C1534.52393,1084.48047 1511.67236,1112.3125 1511.67236,1151.13086 C1511.67236,1176.69238 1528.2251,1193.83105 1552.90771,1193.83105 Z M1554.15283,1170.17383 C1546.82861,1170.17383 1543.02002,1163.3623 1543.02002,1150.39844 C1543.02002,1128.05957 1553.49365,1108.1377 1565.28564,1108.1377 C1572.82959,1108.1377 1576.71143,1114.80273 1576.71143,1127.69336 C1576.71143,1150.03223 1566.01807,1170.17383 1554.15283,1170.17383 Z M1659.25537,1193.83105 C1691.26221,1193.83105 1714.40674,1165.70605 1714.40674,1126.8877 C1714.40674,1101.47266 1697.78076,1084.48047 1672.80518,1084.48047 C1640.87158,1084.48047 1618.02002,1112.3125 1618.02002,1151.13086 C1618.02002,1176.69238 1634.57275,1193.83105 1659.25537,1193.83105 Z M1660.50049,1170.17383 C1653.17627,1170.17383 1649.36768,1163.3623 1649.36768,1150.39844 C1649.36768,1128.05957 1659.84131,1108.1377 1671.6333,1108.1377 C1679.17725,1108.1377 1683.05908,1114.80273 1683.05908,1127.69336 C1683.05908,1150.03223 1672.36572,1170.17383 1660.50049,1170.17383 Z M1772.78076,1192.14648 L1779.22607,1161.67773 L1808.0835,1161.67773 L1813.50342,1136.18945 L1784.646,1136.18945 L1791.09131,1105.7207 L1763.9917,1105.7207 L1757.54639,1136.18945 L1729.86084,1136.18945 L1724.44092,1161.67773 L1752.12646,1161.67773 L1745.68115,1192.14648 L1772.78076,1192.14648 Z" id="500+"></path> </g> </g> </svg> 