<?xml version="1.0" encoding="UTF-8"?> <svg xmlns="http://www.w3.org/2000/svg" xmlns:xlink="http://www.w3.org/1999/xlink" width="37px" height="37px" viewBox="0 0 37 37"> <title>Pavana Sarovar</title> <g id="Page-1" stroke="none" stroke-width="1" fill="none" fill-rule="evenodd" stroke-linecap="round" stroke-linejoin="round"> <g id="Mahabhava-Dhama-Water&amp;Electro-Copy-18" transform="translate(-223.000000, -530.000000)" stroke-width="0.72"> <g id="Pavana-Sarovar" transform="translate(224.000000, 531.000000)"> <g id="Group" transform="translate(5.049603, 5.099206)" stroke="#2A96FB"> <line x1="0" y1="11.3094789" x2="11.3094789" y2="0" id="Shape"></line> <line x1="1.04166253" y1="17.65866" x2="17.65866" y2="1.0912655" id="Shape"></line> <line x1="4.31545904" y1="21.924516" x2="21.974119" y2="4.31545904" id="Shape"></line> <line x1="9.22615381" y1="24.5038709" x2="24.5038709" y2="9.22615381" id="Shape"></line> <line x1="17.2122332" y1="23.9582381" x2="23.9582381" y2="17.2618362" id="Shape"></line> <line x1="3.02578163" y1="12.0039206" x2="7.73806449" y2="7.29163769" id="Shape"></line> <line x1="9.57337465" y1="5.45632752" x2="14.2856575" y2="0.744044662" id="Shape"></line> <line x1="2.48014887" y1="20.0396029" x2="4.91069477" y2="17.609057" id="Shape"></line> <line x1="6.79560792" y1="15.6745409" x2="11.4582878" y2="11.061464" id="Shape"></line> <line x1="13.3432009" y1="9.12694786" x2="18.0058808" y2="4.51387095" id="Shape"></line> <line x1="6.54759303" y1="23.5118113" x2="8.68052106" y2="21.3292803" id="Shape"></line> <line x1="10.5158312" y1="19.4443672" x2="15.2281141" y2="14.7816873" id="Shape"></line> <line x1="17.0634243" y1="12.8967741" x2="21.7757071" y2="8.23409426" id="Shape"></line> <line x1="14.2856575" y1="23.2141935" x2="18.8987344" y2="18.5515136" id="Shape"></line> <line x1="20.8332505" y1="16.6666004" x2="24.9502977" y2="12.5495533" id="Shape"></line> </g> <path d="M30,17.4999503 C30,10.5964182 24.4034824,5 17.4999503,5 C10.5964182,5 5,10.5964182 5,17.4999503 C5,24.4034824 10.5964182,30 17.4999503,30 C20.8191876,30.0131511 24.0063034,28.7004515 26.3533774,26.3533774 C28.7004515,24.0063034 30.0131511,20.8191876 30,17.4999503" id="Shape" stroke="#545454"></path> <path d="M35,17.4999305 C35,7.83498553 27.1648754,0 17.4999305,0 C7.83498553,0 0,7.83498553 0,17.4999305 C0,27.1648754 7.83498553,35 17.4999305,35 C22.1468627,35.0184115 26.6088248,33.180632 29.8947284,29.8947284 C33.180632,26.6088248 35.0184115,22.1468627 35,17.4999305" id="Shape" stroke="#545454"></path> </g> </g> </g> </svg> 