<?xml version="1.0" encoding="UTF-8"?> <svg xmlns="http://www.w3.org/2000/svg" xmlns:xlink="http://www.w3.org/1999/xlink" width="563px" height="110px" viewBox="0 0 563 110"> <title>1050м</title> <defs> <radialGradient cx="75.381116%" cy="-4.33877037%" fx="75.381116%" fy="-4.33877037%" r="235.1481%" gradientTransform="translate(0.753811,-0.043388),scale(0.194452,1.000000),rotate(-22.888714),scale(1.000000,0.891476),translate(-0.753811,0.043388)" id="radialGradient-1"> <stop stop-color="#F8F392" offset="0%"></stop> <stop stop-color="#AA6B08" offset="100%"></stop> </radialGradient> </defs> <g id="Page-1" stroke="none" stroke-width="1" fill="none" fill-rule="evenodd"> <g id="Artboard-Copy-33" transform="translate(-1474.000000, -275.000000)" fill="url(#radialGradient-1)" fill-rule="nonzero"> <path d="M1518.99707,383 L1541.48242,277.311523 L1510.42773,277.311523 C1510.42773,277.311523 1503.72955,281.22689 1496.62947,285.377178 L1495.72137,285.907994 L1495.72137,285.907994 L1494.81183,286.439662 C1487.38584,290.780454 1480.10547,295.036133 1480.10547,295.036133 L1474.46582,321.769531 C1474.46582,321.769531 1481.00222,317.967419 1487.9308,313.937181 L1488.81695,313.421719 L1488.81695,313.421719 L1489.70453,312.90543 L1489.70453,312.90543 L1490.59069,312.389968 C1497.51927,308.359729 1504.05566,304.557617 1504.05566,304.557617 L1504.6416,304.557617 L1487.94238,383 L1518.99707,383 Z M1620.58398,384.831055 C1652.59082,384.831055 1675.73535,356.706055 1675.73535,317.887695 C1675.73535,292.472656 1659.10938,275.480469 1634.13379,275.480469 C1602.2002,275.480469 1579.34863,303.3125 1579.34863,342.130859 C1579.34863,367.692383 1595.90137,384.831055 1620.58398,384.831055 Z M1621.8291,361.173828 C1614.50488,361.173828 1610.69629,354.362305 1610.69629,341.398438 C1610.69629,319.05957 1621.16992,299.137695 1632.96191,299.137695 C1640.50586,299.137695 1644.3877,305.802734 1644.3877,318.693359 C1644.3877,341.032227 1633.69434,361.173828 1621.8291,361.173828 Z M1726.19922,384.831055 C1753.37207,384.831055 1772.78125,366.959961 1772.78125,341.984375 C1772.78125,324.552734 1760.18359,311.442383 1743.33789,311.442383 C1733.30371,311.442383 1726.05273,314.591797 1720.41309,320.011719 L1719.82715,320.011719 L1726.19922,300.822266 L1774.97852,300.822266 L1780.17871,277.311523 L1706.86328,277.311523 L1689.21191,337.736328 L1716.82422,337.736328 C1719.68066,334.000977 1725.4668,331.217773 1730.22754,331.217773 C1738.72363,331.217773 1744.2168,336.637695 1744.2168,345.133789 C1744.2168,354.21582 1737.03906,361.393555 1727.95703,361.393555 C1719.36397,361.393555 1713.19149,356.338812 1712.52798,348.826388 L1712.50293,348.50293 L1712.50293,348.50293 L1684.6709,348.50293 C1684.50947,350.964764 1684.48146,351.202794 1684.48886,351.214358 C1684.50001,351.205844 1684.52441,351.154596 1684.52441,351.87207 C1684.52441,370.988281 1702.0293,384.831055 1726.19922,384.831055 Z M1827.12695,384.831055 C1859.13379,384.831055 1882.27832,356.706055 1882.27832,317.887695 C1882.27832,292.472656 1865.65234,275.480469 1840.67676,275.480469 C1808.74316,275.480469 1785.8916,303.3125 1785.8916,342.130859 C1785.8916,367.692383 1802.44434,384.831055 1827.12695,384.831055 Z M1828.37207,361.173828 C1821.04785,361.173828 1817.23926,354.362305 1817.23926,341.398438 C1817.23926,319.05957 1827.71289,299.137695 1839.50488,299.137695 C1847.04883,299.137695 1850.93066,305.802734 1850.93066,318.693359 C1850.93066,341.032227 1840.2373,361.173828 1828.37207,361.173828 Z M1939.1875,383 L1949.9541,332.316406 L1951.19922,332.316406 L1957.71777,376.701172 L1977.05371,376.701172 L2002.39551,332.316406 L2003.71387,332.316406 L1992.94727,383 L2019.60742,383 L2036.81934,302.140625 L1998.36719,302.140625 L1974.63672,345.866211 L1973.17188,345.866211 L1968.26465,302.140625 L1929.73926,302.140625 L1912.52734,383 L1939.1875,383 Z" id="1050м"></path> </g> </g> </svg> 