<?xml version="1.0" encoding="UTF-8"?> <svg xmlns="http://www.w3.org/2000/svg" width="1785" height="1260" viewBox="0 0 1785 1260" fill="none"><rect width="1260" height="1785" transform="matrix(0 1 -1 0 1785 0)" fill="white"></rect><path d="M1105.95 550.594V977.94H678.6L678.6 550.594H1105.95ZM697.691 958.848H1086.85V569.686H697.691L697.691 958.848Z" fill="black"></path><path d="M1208 448.535V1080H576.535L576.535 448.535H1208ZM595.627 1060.91H1188.91V467.627H595.627L595.627 1060.91Z" fill="black"></path><path d="M639.316 251.913V190.914H673.403V251.913H686.211V180H626.408V251.913H639.316ZM704.5 271.548C716.561 271.548 722.391 267.112 726.926 254.006L746.013 199.087H732.956L720.498 241.347H720.298L707.839 199.087H694.284L713.072 251.962L712.984 252.463L712.49 254.401C712.421 254.672 712.374 254.903 712.374 254.903C710.979 259.787 708.338 261.73 703.205 261.73C702.457 261.73 700.264 261.68 699.617 261.531V271.348C700.264 271.498 703.803 271.548 704.5 271.548ZM765.3 269.305V243.142H765.549C768.439 249.072 774.42 252.76 782.094 252.76C795.35 252.76 803.822 242.344 803.822 225.5C803.822 208.606 795.301 198.19 781.895 198.19C774.22 198.19 768.24 202.077 765.25 208.207H765.001V199.087H752.891V269.305H765.3ZM778.107 242.593C770.383 242.593 765.25 235.866 765.2 225.5C765.25 215.234 770.383 208.406 778.107 208.406C786.131 208.406 791.114 215.084 791.114 225.5C791.114 235.965 786.131 242.593 778.107 242.593ZM825.152 251.913V229.487H847.478V251.913H859.838V199.087H847.478V219.918H825.152V199.087H812.793V251.913H825.152ZM886.549 252.76C893.327 252.76 899.955 249.221 902.995 243.49H903.244V251.913H915.205V215.533C915.205 204.918 906.683 197.991 893.576 197.991C880.121 197.991 871.698 205.067 871.15 214.935H882.662C883.46 210.549 887.197 207.709 893.078 207.709C899.208 207.709 902.945 210.898 902.945 216.43V220.217L888.991 221.015C876.134 221.812 868.908 227.443 868.908 236.812C868.908 246.331 876.333 252.76 886.549 252.76ZM890.287 243.391C884.905 243.391 881.317 240.65 881.317 236.314C881.317 232.128 884.755 229.437 890.736 229.038L902.945 228.291V232.327C902.945 238.706 897.314 243.391 890.287 243.391ZM937.88 251.913V215.782H938.229L953.13 249.471H961.901L976.801 215.782H977.2V251.913H989.011V199.087H973.462L957.864 235.965H957.465L941.867 199.087H926.069V251.913H937.88ZM1015.67 252.76C1022.45 252.76 1029.08 249.221 1032.12 243.49H1032.37V251.913H1044.33V215.533C1044.33 204.918 1035.81 197.991 1022.7 197.991C1009.24 197.991 1000.82 205.067 1000.27 214.935H1011.79C1012.58 210.549 1016.32 207.709 1022.2 207.709C1028.33 207.709 1032.07 210.898 1032.07 216.43V220.217L1018.11 221.015C1005.26 221.812 998.031 227.443 998.031 236.812C998.031 246.331 1005.46 252.76 1015.67 252.76ZM1019.41 243.391C1014.03 243.391 1010.44 240.65 1010.44 236.314C1010.44 232.128 1013.88 229.437 1019.86 229.038L1032.07 228.291V232.327C1032.07 238.706 1026.44 243.391 1019.41 243.391ZM1078.32 252.959C1091.22 252.959 1099.99 245.633 1101.49 234.57H1089.73C1088.33 239.852 1084.4 242.942 1078.42 242.942C1070.59 242.942 1065.56 236.414 1065.56 225.5C1065.56 214.785 1070.54 208.057 1078.37 208.057C1084.55 208.057 1088.33 211.745 1089.63 216.48H1101.39C1099.94 206.164 1091.52 197.991 1078.22 197.991C1062.87 197.991 1053.05 208.755 1053.05 225.5C1053.05 242.494 1062.87 252.959 1078.32 252.959ZM1121.97 251.913L1144.95 216.38H1145.34V251.913H1157.5V199.087H1145.34L1122.37 234.37H1121.97V199.087H1109.81V251.913H1121.97ZM639.316 353.976V292.977H671.41V282.063H626.408V353.976H639.316ZM686.061 373.611C698.121 373.611 703.952 369.175 708.487 356.069L727.574 301.15H714.517L702.058 343.41H701.859L689.4 301.15H675.845L694.633 354.025L694.545 354.526L694.051 356.464C693.982 356.735 693.935 356.966 693.935 356.966C692.54 361.85 689.899 363.793 684.766 363.793C684.018 363.793 681.825 363.743 681.177 363.594V373.411C681.825 373.561 685.364 373.611 686.061 373.611ZM772.476 371.368V354.723C789.42 354.374 800.633 343.959 800.633 327.563C800.633 311.017 789.52 300.751 772.476 300.402V284.156H760.416V300.402C743.372 300.751 732.259 311.117 732.259 327.563C732.259 344.108 743.272 354.324 760.416 354.723V371.368H772.476ZM760.466 345.055C750.847 344.756 744.767 338.327 744.767 327.563C744.767 316.848 750.897 310.32 760.466 310.071V345.055ZM772.376 345.055V310.071C781.995 310.37 788.124 316.798 788.124 327.563C788.124 338.277 781.945 344.806 772.376 345.055ZM825.152 354.823C831.93 354.823 838.558 351.284 841.598 345.553H841.847V353.976H853.807V317.596C853.807 306.981 845.286 300.054 832.179 300.054C818.723 300.054 810.301 307.13 809.753 316.998H821.265C822.062 312.612 825.8 309.772 831.681 309.772C837.81 309.772 841.548 312.961 841.548 318.493V322.28L827.594 323.078C814.736 323.875 807.51 329.506 807.51 338.875C807.51 348.394 814.936 354.823 825.152 354.823ZM828.89 345.454C823.507 345.454 819.919 342.713 819.919 338.377C819.919 334.191 823.358 331.5 829.338 331.101L841.548 330.354V334.39C841.548 340.769 835.917 345.454 828.89 345.454Z" fill="black"></path></svg> 