<?xml version="1.0" encoding="UTF-8"?> <svg xmlns="http://www.w3.org/2000/svg" width="1920" height="1920" viewBox="0 0 1920 1920" fill="none"><path d="M1897.09 1423.44C1499.9 1468.6 1234.11 1382.22 845.351 1176.13C935.136 1105.14 1030.98 1053.09 1130.69 1021.72C1215.4 995.202 1277.08 990.429 1426.04 979.14C1523.55 971.866 1650.17 961.259 1753.51 951.182C1759.88 958.683 1768.59 965.123 1776.85 969.366V1060.06C1776.85 1071.5 1786.09 1080.74 1797.53 1080.74C1808.97 1080.74 1818.22 1071.5 1818.22 1060.06L1818.14 969.366C1877.54 940.044 1935.36 783.66 1856.25 757.595C1830.95 688.949 1764.27 688.798 1738.89 757.595C1738.21 757.747 1737.52 757.974 1736.84 758.126C1718.2 736.229 1709.26 728.653 1704.26 725.092C1676.68 705.09 1622.21 627.351 1616.75 615.608C1611.9 602.652 1601.75 598.257 1533.1 573.557C1509.16 564.995 1473.02 551.962 1467.26 548.174C1459.69 541.052 1430.36 516.579 1406.5 496.88C1304.97 415.431 1174.57 488.773 1070.71 535.068C1014.87 509.308 972.662 456.724 928.793 417.174C912.125 406.643 860.906 394.368 845.676 390.807C842.19 390.428 838.478 390.276 835.068 391.337C738.464 429.601 572.149 501.352 554.731 531.432C541.32 552.875 370.162 672.359 268.711 723.275C238.479 738.504 202.642 763.205 172.182 785.784C163.923 771.161 155.134 766.463 145.209 763.812C121.569 700.924 59.2887 700.773 35.5746 763.812C-36.9352 788.967 15.1928 931.484 69.6697 959.445V1040.89C69.7455 1067.94 110.887 1067.94 111.039 1040.89V968.991C254.846 947.397 343.273 909.06 475.401 878.373C586.021 854.354 583.294 869.963 693.379 842.005C729.596 832.988 759.827 821.698 791.725 815.259C760.206 859.811 766.343 860.113 723.762 894.967C708.532 906.483 718.155 932.396 736.794 931.713C754.902 929.971 778.694 900.497 784.224 896.406C799.756 878.828 830.139 832.382 843.399 811.849C925.985 815.637 984.477 855.415 1062 873.146V919.666C1062.07 946.715 1103.21 946.715 1103.37 919.666V883.449C1194.06 904.134 1303.25 918.454 1455.45 935.123C1175.4 948.989 1013.04 987.705 806.192 1154.32C756.489 1126.52 669.205 1079.39 543.952 1051.89C476.974 1037.19 407.723 1030.14 338.388 1031.05C311.642 1031.51 311.642 1072.27 338.615 1072.42C404.837 1071.36 471.057 1078.25 535.005 1092.27C666.158 1121.67 745.786 1168.19 799.67 1198.04C947.492 1280.55 1152.98 1377.16 1328.75 1426.94C1198.35 1437.7 1061.13 1462.32 918.764 1500.81C943.919 1433.61 956.118 1343.29 887.623 1327.3C854.513 1233.28 768.82 1232.52 736.012 1327.3C647.743 1348.75 691.536 1496.27 734.649 1557.19C530.908 1627.2 393.93 1699.48 392.475 1700.24C368.608 1713.05 388.081 1749.34 411.872 1736.76C413.311 1736 554.087 1661.75 763.045 1591.21C771.455 1598.94 781.76 1605.83 791.003 1609.85V1741.08C791.003 1752.52 800.247 1761.76 811.687 1761.76C823.128 1761.76 832.372 1752.52 832.372 1741.08V1609.85C858.513 1597.88 877.378 1575.91 893.896 1550.37C1109.53 1488.92 1313.11 1459 1499.36 1461.88C1567.47 1471.12 1636.65 1476.04 1706.8 1476.04C1771.13 1476.04 1836.21 1472.1 1901.76 1464.3C1913.12 1462.94 1921.15 1452.63 1919.86 1441.34C1918.65 1430.21 1908.73 1422.1 1897.06 1423.46L1897.09 1423.44ZM1847.61 798.058L1847.53 797.983C1847.61 797.983 1847.61 798.058 1847.61 798.058ZM1748.28 798.286C1759.11 801.165 1770.18 794.876 1773.43 784.193C1781.77 756.159 1793.21 747.066 1797.53 747.066C1801.85 747.066 1813.44 756.158 1821.77 784.193C1824.96 794.876 1837 800.937 1847.84 798.134C1865.95 816.849 1835.11 918.15 1797.68 933.456C1760.71 919.135 1728.13 815.257 1748.28 798.286ZM129.274 869.583C119.727 893.146 108.665 913.15 90.4055 923.909C57.6739 909.74 31.382 820.487 44.944 804.423C55.703 807.302 66.9163 801.089 70.0993 790.33C77.4488 765.555 87.45 757.825 90.2542 757.825C93.1334 757.825 103.21 765.554 110.56 790.33C113.667 800.786 124.88 806.772 135.335 804.498C139.275 810.105 142.609 834.427 129.274 869.583ZM1088.2 813.06C1086.61 814.424 1084.03 816.469 1082.67 817.227C1059.33 805.71 1038.11 740.171 1046.45 723.73C1056.22 724.867 1065.69 718.805 1068.57 709.107C1074.1 690.392 1081.38 684.408 1082.13 683.952C1083.65 684.406 1090.92 690.316 1096.53 709.107C1099.26 718.275 1108.96 723.957 1118.58 723.578C1127.14 737.444 1107.52 799.574 1088.2 813.06ZM1115.55 843.974C1153.58 810.864 1189.73 705.472 1131.23 683.119C1110.25 629.325 1055.01 629.249 1034.02 683.119C984.17 700.773 1004.32 781.768 1030.61 821.092C961.893 799.574 915.146 770.327 832.247 770.327C775.119 770.252 738.219 788.512 682.986 802.074C576.002 829.198 577.593 813.742 466.754 838.064C341.13 865.795 285.67 895.724 150.281 919.894C166.04 895.346 178.314 859.885 179.905 832.004C223.093 798.895 260.218 773.966 287.268 760.329C374.931 716.308 569.875 588.185 589.892 553.097C601.939 538.852 697.861 493.619 795.825 452.099C785.52 474.525 789.99 477.784 782.792 500.515C777.186 520.063 768.094 547.111 764.154 556.658C745.06 574.009 689.446 611.362 675.203 627.804C662.853 640.382 673.157 663.036 690.433 662.431C696.039 662.431 701.57 660.158 705.662 655.763C713.011 647.732 735.135 631.215 752.941 617.956C780.294 597.574 791.734 588.558 797.341 581.436C799.69 585.376 804.766 592.195 823.253 611.44C827.345 615.683 832.724 617.805 838.179 617.805C855.681 618.411 865.91 595.225 853.105 582.8C836.512 565.525 833.255 560.828 833.179 560.828C831.588 557.342 828.633 545.295 823.557 508.473C831.058 475.134 829.618 471.953 851.137 434.75C897.43 447.707 905.082 445.055 930.011 475.514C965.242 516.58 1013.36 553.1 1060.79 576.892C1093.67 593.485 1215.35 698.878 1259.37 738.125C1279.45 755.93 1307.1 725.396 1286.87 707.211C1273.23 695.088 1172.16 605.455 1112 561.283C1142.53 547.115 1174.36 533.023 1183.3 530.901C1223.76 519.611 1248.38 502.184 1285.43 501.276C1305.81 526.052 1314.68 546.965 1310.21 560.754C1303.24 576.135 1291.19 580.833 1288.39 604.698C1286.87 616.973 1294.98 643.794 1311.27 680.314C1314.68 688.042 1322.25 692.588 1330.13 692.588C1344.68 692.891 1355.29 676.752 1349 663.493C1331.19 623.791 1329.76 609.623 1329.38 609.85C1330.06 604.547 1331.73 602.425 1335.82 597.349C1356.73 574.088 1358.02 539.764 1339.83 507.867C1373.25 515.141 1427.27 569.92 1439.09 578.557C1444.09 588.407 1555.85 623.866 1581 636.293C1595.32 661.902 1648.43 735.7 1680.03 758.582C1683.14 760.779 1690.56 767.371 1706.85 786.691C1693.44 816.013 1704.58 874.885 1725.72 912.01C1701.85 914.283 1677.98 916.556 1654.04 918.678C1648.74 912.616 1635.48 912.919 1628.2 912.01C1386.27 886.703 1233.91 870.72 1115.55 843.974ZM881.648 1482.99C869.525 1515.04 852.024 1543.23 832.627 1561.03V1512.54L869.071 1439.27C880.739 1415.63 845.508 1396.92 832.627 1420.1V1390.4C832.551 1363.36 791.41 1363.36 791.258 1390.4V1399.19C773.68 1380.48 744.509 1405.48 760.117 1425.79L791.258 1466.48V1560.88C750.799 1531.18 711.097 1410.71 732.464 1376.84C735.494 1371.61 737.616 1366.99 745.42 1369.11C756.255 1371.92 767.317 1365.7 770.575 1355.02C782.319 1315.55 800.2 1297.59 811.869 1297.59C823.613 1297.59 841.646 1315.55 853.313 1355.02C856.495 1365.78 867.709 1371.99 878.393 1369.11C905.972 1366.16 899.377 1439.27 881.648 1482.99ZM212.237 1150.9C211.252 1178.86 170.414 1178.86 169.504 1150.9C170.489 1122.87 211.251 1122.95 212.237 1150.9ZM541.376 1259.78C542.361 1231.82 583.123 1231.82 584.108 1259.78C583.199 1287.66 542.361 1287.74 541.376 1259.78ZM1163.13 1195.61C1162.14 1223.56 1121.38 1223.56 1120.4 1195.61C1121.31 1167.65 1162.14 1167.65 1163.13 1195.61ZM1104.03 1653.4C1103.05 1681.36 1062.28 1681.36 1061.3 1653.4C1062.21 1625.44 1103.05 1625.44 1104.03 1653.4ZM1381.71 1078.78C1380.73 1106.74 1339.96 1106.74 1338.98 1078.78C1339.96 1050.82 1380.73 1050.82 1381.71 1078.78ZM1711.9 1078.1C1710.91 1106.06 1670.15 1106.06 1669.16 1078.1C1670.07 1050.14 1710.91 1050.14 1711.9 1078.1ZM1545.97 1237.67C1573.92 1238.65 1573.92 1279.41 1545.97 1280.4C1518.01 1279.49 1518.01 1238.65 1545.97 1237.67ZM1495.96 1594.91C1494.97 1622.87 1454.14 1622.87 1453.23 1594.91C1454.14 1566.88 1494.97 1566.95 1495.96 1594.91ZM1753.35 1594.15C1752.37 1622.11 1711.6 1622.11 1710.62 1594.15C1711.53 1566.2 1752.37 1566.2 1753.35 1594.15ZM359.985 1435.87C359 1463.83 318.238 1463.83 317.253 1435.87C318.238 1407.92 359.076 1407.92 359.985 1435.87ZM329.225 431.719C404.991 431.719 466.59 370.12 466.59 294.353C460.15 112.511 198.221 112.587 191.781 294.353C191.857 370.12 253.458 431.719 329.225 431.719ZM329.225 198.36C456.136 202.376 456.136 386.415 329.225 390.43C202.313 386.338 202.313 202.375 329.225 198.36Z" fill="#D2AA1B"></path></svg> 