<?xml version="1.0" encoding="UTF-8"?> <svg xmlns="http://www.w3.org/2000/svg" width="100" height="100" viewBox="0 0 100 100" fill="none"><path fill-rule="evenodd" clip-rule="evenodd" d="M50 0C77.614 0 100 22.386 100 50C100 77.614 77.614 100 50 100C22.386 100 0 77.614 0 50C0 22.386 22.386 0 50 0ZM48.1851 39.4148C47.2863 39.1816 46.4261 38.8185 45.6307 38.3367C44.2386 39.179 42.6631 39.6517 41.0355 39.7161L40.7604 39.727V37.5304L41.0118 37.5184C41.9611 37.4725 42.8883 37.2469 43.7492 36.8518C42.9163 36.0106 42.241 35.0042 42.241 33.7695C42.241 31.8764 43.7761 30.3411 45.6693 30.3411C47.5628 30.3411 49.098 31.8764 49.098 33.7695C49.098 35.0918 48.3928 35.9967 47.5162 36.8532C48.375 37.2469 49.2977 37.4714 50.242 37.518V32.6822H49.2799V30.3411H50.326C50.5771 28.6808 52.0115 27.4299 53.7158 27.4299C55.4208 27.4299 56.8559 28.6823 57.1059 30.3441C57.3977 30.3558 57.6077 30.4089 57.8708 30.6494C58.1142 30.8728 58.2448 31.1828 58.2448 31.5118C58.2448 32.0327 57.8838 32.5068 57.3814 32.6437C57.3122 32.6626 57.2424 32.6739 57.1714 32.6804C57.1714 36.9216 57.1714 41.1628 57.1714 45.404V45.6685H54.8303V32.6822H52.5835V45.6685H50.242V40.4208C48.097 43.3179 44.7069 45.0496 41.0576 45.0496H40.7928V42.8078H41.0576C43.8402 42.8078 46.4436 41.5577 48.1851 39.4148ZM25.0429 69.8838C20.6918 64.4301 18.0902 57.5189 18.0902 50C18.0902 42.4808 20.6918 35.5695 25.0429 30.1162V30.1173C30.8895 22.7885 39.8955 18.0906 49.9996 18.0906C67.6223 18.0906 81.9087 32.377 81.9087 50C81.9087 67.623 67.6223 81.9094 49.9996 81.9094C39.8955 81.9094 30.8895 77.2116 25.0429 69.8827V69.8838ZM71.2468 51.9605V68.5443H67.4389V51.9775H64.6306V68.5443H60.8228V64.1131C59.09 65.1557 56.5728 66.8575 54.7193 66.8575C53.0721 66.8575 51.5868 66.1145 50.6324 64.7681C49.2672 62.8426 49.3654 60.2748 50.9097 58.502C49.9418 57.6761 49.38 56.4702 49.38 55.1847C49.38 53.9508 49.8988 52.7945 50.7852 51.9775H44.4475V68.5443H40.64V51.9775H37.9754V55.4067C37.9928 55.6392 37.9896 55.8979 37.9896 56.1322C37.9896 59.5431 35.372 61.3791 32.2591 60.7271C33.6571 63.3294 36.2339 65.1316 39.1903 65.5185L39.4203 65.5482V68.5323L39.1285 68.5026C34.2105 67.9934 30.0708 64.537 28.6827 59.7988C27.7592 56.646 29.1706 56.1573 32.0033 56.745C32.636 56.8763 33.7222 57.0954 34.053 56.3443C34.1133 56.2075 34.145 56.0558 34.1607 55.9077L34.1675 54.5851V51.9775H27.2538V48.4049H57.8875V51.9775H57.623C56.015 51.9775 52.6093 53.2351 52.6093 55.1847C52.6093 55.8106 53.1165 56.3175 53.742 56.3175C53.9436 56.3175 54.14 56.2643 54.314 56.1623C54.322 56.1577 54.3307 56.1529 54.3391 56.1489L56.9796 54.6247L58.5555 57.354L57.4523 58.0218C56.1566 58.8051 52.8396 60.0241 52.8396 61.8114C52.8396 62.8495 53.6812 63.6911 54.7193 63.6911C54.9139 63.6911 55.1072 63.6616 55.2928 63.602C56.1631 63.3239 57.44 62.5147 58.2375 62.0344C58.5545 61.8438 58.8699 61.6513 59.1847 61.458C59.7286 61.1244 60.2719 60.7828 60.8228 60.4611V51.9775H59.1057V48.4049H70.8192C70.9997 48.4049 71.1882 48.4081 71.3657 48.4409C73.1337 48.7672 73.2178 51.43 71.5284 51.9045C71.4396 51.9295 71.3435 51.9481 71.2468 51.9605ZM54.8493 30.3411C54.6509 29.906 54.2117 29.6115 53.7143 29.6115C53.2169 29.6115 52.7777 29.906 52.5791 30.3411H54.8493ZM45.6679 35.714C46.2555 35.1675 46.9144 34.6421 46.9144 33.7695C46.9144 33.0811 46.3567 32.523 45.6679 32.523C44.9794 32.523 44.4212 33.0811 44.4212 33.7695C44.4212 34.6392 45.0813 35.1685 45.6679 35.714ZM50.1593 96.0598C50.7888 96.4968 51.6231 97.6624 50.1118 99.0227C50.1118 99.0227 49.3758 98.4135 49.2676 97.6279C49.6737 97.3444 49.9127 96.9012 50.0461 96.5456L50.1118 97.6264L50.1717 96.6443L50.1685 96.5367L50.1593 96.0598ZM43.7047 95.1909C44.3342 95.6278 45.1685 96.7935 43.6572 98.1537C43.6572 98.1537 42.9212 97.5446 42.813 96.7591C43.2191 96.4754 43.4581 96.0323 43.5915 95.6767L43.6572 96.7575L43.7172 95.7756L43.7139 95.6678L43.7047 95.1909ZM56.6139 95.1909C57.2434 95.6278 58.0778 96.7935 56.5664 98.1537C56.5664 98.1537 55.8304 97.5446 55.7222 96.7591C56.1283 96.4754 56.3673 96.0323 56.5007 95.6767L56.5664 96.7575L56.6264 95.7756L56.6231 95.6678L56.6139 95.1909ZM49.9421 96.1247L49.943 96.127C49.8609 96.4553 49.6243 97.1643 49.0575 97.5007C48.7795 97.6656 48.4609 97.7175 48.17 97.7175C47.6748 97.7175 47.2597 97.5672 47.2597 97.5672C47.2597 97.5672 47.4013 96.6691 47.9825 96.1667C48.031 96.1933 48.081 96.2181 48.1332 96.2398C48.3399 96.3262 48.5722 96.37 48.8231 96.37C48.9624 96.37 49.0977 96.3562 49.226 96.3347L48.4586 96.8559L49.7129 96.2118C49.8022 96.1814 49.8797 96.151 49.9421 96.1247ZM51.2255 95.6688C51.4519 95.6688 51.6879 95.7059 51.9075 95.8084C52.699 96.1777 52.9781 97.2575 52.9781 97.2575C52.9781 97.2575 52.4541 97.5083 51.8648 97.5083C51.6427 97.5082 51.4117 97.4717 51.1957 97.3738C51.177 96.9073 50.9781 96.5479 50.7601 96.2913L51.7152 96.668L50.4146 95.9613C50.3569 95.9166 50.3071 95.8815 50.2682 95.8558C50.4661 95.7813 50.8289 95.6688 51.2255 95.6688ZM43.4875 95.2558L43.4884 95.2581C43.4063 95.5864 43.1697 96.2953 42.6029 96.6318C42.3248 96.7967 42.0063 96.8486 41.7154 96.8486C41.2202 96.8486 40.8051 96.6982 40.8051 96.6982C40.8051 96.6982 40.9467 95.8001 41.5279 95.2977C41.5764 95.3243 41.6264 95.3491 41.6786 95.3709C41.8853 95.4572 42.1176 95.5011 42.3685 95.5011C42.5078 95.5011 42.6431 95.4872 42.7714 95.4657L42.004 95.9869L43.2583 95.3428C43.3476 95.3124 43.425 95.2821 43.4875 95.2558ZM56.3967 95.2558L56.3976 95.2581C56.3155 95.5864 56.0789 96.2953 55.5121 96.6318C55.2341 96.7967 54.9155 96.8486 54.6246 96.8486C54.1866 96.8486 53.8111 96.731 53.7303 96.7038L53.7161 96.6989L53.7143 96.6982C53.7143 96.6982 53.8559 95.8001 54.4371 95.2977C54.4856 95.3243 54.5356 95.3491 54.5878 95.3709C54.7945 95.4572 55.0268 95.5011 55.2777 95.5011C55.417 95.5011 55.5523 95.4872 55.6806 95.4657L54.9132 95.9869L56.1675 95.3428C56.2568 95.3124 56.3343 95.2821 56.3967 95.2558ZM44.7709 94.7999C44.9973 94.7999 45.2333 94.837 45.4529 94.9394C46.2444 95.3087 46.5235 96.3886 46.5235 96.3886C46.5235 96.3886 45.9995 96.6394 45.4102 96.6394C45.1881 96.6392 44.9571 96.6028 44.7411 96.5048C44.7224 96.0383 44.5235 95.679 44.3055 95.4225L45.2606 95.7991L43.96 95.0923C43.9023 95.0476 43.8525 95.0127 43.8136 94.9869C44.0115 94.9124 44.3743 94.7999 44.7709 94.7999ZM57.6801 94.7999C57.9065 94.7999 58.1425 94.837 58.3621 94.9394C59.1536 95.3087 59.4327 96.3886 59.4327 96.3886C59.4327 96.3886 58.9087 96.6394 58.3194 96.6394C58.0973 96.6392 57.8663 96.6028 57.6503 96.5048C57.6316 96.0383 57.4327 95.679 57.2147 95.4225L58.1698 95.7991L56.8692 95.0923C56.8115 95.0476 56.7617 95.0127 56.7228 94.9869C56.9207 94.9124 57.2835 94.7999 57.6801 94.7999ZM48.275 94.3315C48.3711 94.3315 48.4687 94.3391 48.5658 94.3555C48.5705 94.4055 48.5761 94.4555 48.5857 94.506C48.6523 94.8578 48.8347 95.1577 49.0403 95.3975L48.3758 95.1666L49.2073 95.5752C49.3977 95.7619 49.5862 95.8983 49.7068 95.9769C49.4846 96.0575 49.1632 96.1465 48.823 96.1465C48.6223 96.1465 48.4152 96.1157 48.2189 96.0336C47.4129 95.6971 47.0897 94.6298 47.0897 94.6298L47.1185 94.6153C47.2408 94.5556 47.7353 94.3315 48.275 94.3315ZM49.3534 92.747C49.3534 92.747 50.2996 93.2688 50.4829 94.1066C50.1242 94.4906 49.9866 95.0101 49.9358 95.3913L49.6133 94.1188L49.8254 95.7873C49.5616 95.6147 48.9328 95.1401 48.8046 94.4643C48.6417 93.6046 49.3534 92.747 49.3534 92.747ZM52.1278 93.7325C52.2892 93.7325 52.4082 93.7448 52.4518 93.75L52.47 93.7524C52.47 93.7524 52.5234 94.8663 51.8773 95.4546C51.8484 95.4809 51.8167 95.5022 51.7861 95.5258C51.6131 95.4734 51.4261 95.4454 51.2255 95.4454C51.0146 95.4454 50.8148 95.4756 50.6382 95.5147L51.4387 94.6913L50.2989 95.6084C50.2348 95.6299 50.1773 95.6504 50.1334 95.668C50.1527 95.3154 50.2515 94.6095 50.7223 94.1807C51.1408 93.7996 51.7502 93.7325 52.1278 93.7325ZM54.7296 93.4625C54.8257 93.4625 54.9233 93.4702 55.0204 93.4866C55.0251 93.5366 55.0307 93.5867 55.0403 93.637C55.1069 93.9889 55.2893 94.2887 55.4949 94.5286L54.8304 94.2977L55.6619 94.7062C55.8523 94.893 56.0408 95.0293 56.1614 95.1079C55.9392 95.1886 55.6178 95.2776 55.2776 95.2776C55.0769 95.2776 54.8698 95.2467 54.6735 95.1647C53.8675 94.8282 53.5443 93.7609 53.5443 93.7609L53.5462 93.7599L53.5731 93.7464C53.6954 93.6867 54.1899 93.4625 54.7296 93.4625ZM41.8204 93.4625C41.9165 93.4625 42.0141 93.4702 42.1112 93.4866C42.1159 93.5366 42.1215 93.5867 42.1311 93.637C42.1977 93.9889 42.3801 94.2887 42.5857 94.5286L41.9212 94.2977L42.7527 94.7062C42.9431 94.893 43.1316 95.0293 43.2522 95.1079C43.03 95.1886 42.7086 95.2776 42.3684 95.2776C42.1677 95.2776 41.9606 95.2467 41.7643 95.1647C40.9583 94.8282 40.6351 93.7609 40.6351 93.7609L40.637 93.7599L40.6639 93.7464C40.7862 93.6867 41.2807 93.4625 41.8204 93.4625ZM42.8988 91.8781C42.8988 91.8781 43.845 92.3998 44.0283 93.2376C43.6696 93.6217 43.532 94.1412 43.4812 94.5223L43.1587 93.2498L43.3708 94.9184C43.107 94.7457 42.4782 94.2712 42.35 93.5953C42.1871 92.7356 42.8988 91.8781 42.8988 91.8781ZM55.808 91.8781C55.808 91.8781 56.7542 92.3998 56.9375 93.2376C56.5788 93.6217 56.4412 94.1412 56.3904 94.5223L56.0679 93.2498L56.28 94.9184C56.0162 94.7457 55.3874 94.2712 55.2592 93.5953C55.0963 92.7356 55.808 91.8781 55.808 91.8781ZM45.6732 92.8636C45.8786 92.8636 46.0154 92.8834 46.0154 92.8834C46.0154 92.8834 46.016 92.8972 46.0163 92.9224L46.0164 92.9581C46.0151 93.2173 45.9683 94.0888 45.4227 94.5856C45.3937 94.6119 45.3621 94.6333 45.3315 94.6568C45.1585 94.6045 44.9715 94.5765 44.7709 94.5765C44.56 94.5765 44.3602 94.6067 44.1836 94.6458L44.9841 93.8223L43.8443 94.7395C43.7802 94.7609 43.7227 94.7816 43.6788 94.7991C43.6981 94.4465 43.7969 93.7405 44.2677 93.3118C44.6862 92.9307 45.2956 92.8636 45.6732 92.8636ZM58.5824 92.8636C58.7878 92.8636 58.9246 92.8834 58.9246 92.8834C58.9246 92.8834 58.9253 92.8972 58.9255 92.9224L58.9256 92.9581C58.9243 93.2173 58.8775 94.0888 58.3319 94.5856C58.303 94.6119 58.2713 94.6333 58.2407 94.6568C58.0677 94.6045 57.8807 94.5765 57.6801 94.5765C57.4692 94.5765 57.2694 94.6067 57.0928 94.6458L57.8933 93.8223L56.7535 94.7395C56.6894 94.7609 56.6319 94.7816 56.588 94.7991C56.6073 94.4465 56.7061 93.7405 57.1769 93.3118C57.5954 92.9307 58.2048 92.8636 58.5824 92.8636ZM50 8.85679C72.7226 8.85679 91.1432 27.2775 91.1432 50C91.1432 72.7225 72.7226 91.1433 50 91.1433C27.2775 91.1433 8.85679 72.7225 8.85679 50C8.85679 27.2775 27.2775 8.85679 50 8.85679ZM5.02503 56.5606C5.09931 56.7588 5.21165 57.1225 5.21165 57.52C5.21165 57.7469 5.17464 57.9834 5.0724 58.2034C4.70388 58.9966 3.62639 59.2763 3.62639 59.2763C3.62639 59.2763 3.37616 58.7512 3.37616 58.1607C3.37627 57.9381 3.41264 57.7065 3.51037 57.49C3.97589 57.4713 4.33444 57.2721 4.59044 57.0535L4.21462 58.0107L4.9198 56.7072C4.9644 56.6495 4.99933 56.5995 5.02503 56.5606ZM94.9231 56.5606C94.9488 56.5995 94.9837 56.6495 95.0283 56.7072L95.7335 58.0107L95.3577 57.0535C95.6136 57.2721 95.9722 57.4713 96.4377 57.49C96.5354 57.7065 96.5718 57.9381 96.5719 58.1607C96.5719 58.7512 96.3217 59.2763 96.3217 59.2763C96.3217 59.2763 95.2442 58.9966 94.8757 58.2034C94.7734 57.9834 94.7364 57.7469 94.7364 57.52C94.7364 57.1225 94.8488 56.7588 94.9231 56.5606ZM5.21245 56.4254C5.56423 56.4449 6.26868 56.5438 6.69651 57.0156C7.07673 57.4351 7.14375 58.0458 7.14375 58.4242C7.14375 58.5859 7.1315 58.7053 7.12624 58.749L7.1239 58.7671C7.1239 58.7671 7.11018 58.7678 7.08498 58.7681L7.0277 58.768C6.74528 58.764 5.90805 58.7056 5.4254 58.1732C5.3992 58.1441 5.37783 58.1125 5.35439 58.0817C5.4066 57.9084 5.43455 57.7209 5.43455 57.52C5.43455 57.3086 5.40443 57.1084 5.36538 56.9313L6.1871 57.7337L5.27197 56.5913C5.2505 56.527 5.22994 56.4694 5.21245 56.4254ZM94.7356 56.4254C94.7182 56.4694 94.6976 56.527 94.6761 56.5913L93.761 57.7337L94.5827 56.9313C94.5437 57.1084 94.5135 57.3086 94.5135 57.52C94.5135 57.7209 94.5415 57.9084 94.5937 58.0817L94.5475 58.1434L94.5227 58.1732C94.04 58.7056 93.2028 58.764 92.9204 58.768L92.8631 58.7681C92.8379 58.7678 92.8242 58.7671 92.8242 58.7671L92.8218 58.749C92.8166 58.7053 92.8043 58.5859 92.8043 58.4242C92.8043 58.0458 92.8713 57.4351 93.2516 57.0156C93.6794 56.5438 94.3839 56.4449 94.7356 56.4254ZM96.6914 55.5577C97.4751 55.6663 98.083 56.4039 98.083 56.4039C96.7258 57.9185 95.5626 57.0823 95.1267 56.4515L95.6025 56.4607L95.7101 56.464L96.6898 56.4039L95.6114 56.3379C95.9661 56.2042 96.4084 55.9648 96.6914 55.5577ZM3.25673 55.5577C3.53967 55.9648 3.98195 56.2042 4.33671 56.3379L3.25828 56.4039L4.23825 56.4639L4.34563 56.4607L4.82143 56.4515C4.38547 57.0823 3.22233 57.9185 1.86509 56.4039C1.86509 56.4039 2.47294 55.6663 3.25673 55.5577ZM8.12702 55.6438C8.12702 55.6438 7.60649 56.592 6.77049 56.7758C6.3872 56.4163 5.86895 56.2784 5.4886 56.2274L6.75827 55.9043L5.09337 56.1168C5.2657 55.8525 5.73916 55.2223 6.4136 55.0938C7.27138 54.9305 8.12702 55.6438 8.12702 55.6438ZM91.8211 55.6438C91.8211 55.6438 92.6767 54.9305 93.5345 55.0938C94.2089 55.2223 94.6824 55.8525 94.8547 56.1168L93.1898 55.9043L94.4595 56.2274C94.0791 56.2784 93.5609 56.4163 93.1776 56.7758C92.3416 56.592 91.8211 55.6438 91.8211 55.6438ZM96.6307 53.5455C96.6307 53.5455 96.7808 53.9616 96.7808 54.4577C96.7808 54.7493 96.729 55.0686 96.5643 55.3473C96.2287 55.9153 95.5213 56.1523 95.1936 56.2346L95.1914 56.2338C95.2177 56.1712 95.2479 56.0935 95.2782 56.004L95.9209 54.7471L95.4009 55.516C95.4223 55.3876 95.4362 55.2519 95.4362 55.1124C95.4362 54.8608 95.3924 54.6281 95.3063 54.4209C95.2845 54.3685 95.2598 54.3185 95.2332 54.2699C95.7345 53.6874 96.6307 53.5455 96.6307 53.5455ZM3.31737 53.5455C3.31737 53.5455 4.21359 53.6874 4.71489 54.2699C4.68827 54.3185 4.6636 54.3685 4.64182 54.4209C4.55569 54.6281 4.51192 54.8608 4.51192 55.1124C4.51192 55.2519 4.5258 55.3876 4.54717 55.516L4.02719 54.7471L4.66987 56.004C4.70018 56.0935 4.73041 56.1712 4.75671 56.2338L4.75444 56.2346C4.42683 56.1523 3.7194 55.9153 3.38376 55.3473C3.21914 55.0686 3.16733 54.7493 3.16733 54.4577C3.16733 53.9616 3.31737 53.5455 3.31737 53.5455ZM6.24837 53.3752C6.24837 53.3752 6.54607 53.9389 6.54607 54.563C6.54607 54.6593 6.53846 54.7571 6.52203 54.8545C6.47218 54.8592 6.42225 54.8647 6.37199 54.8743C6.02084 54.9412 5.72167 55.124 5.48234 55.33L5.71273 54.6641L5.30509 55.4973C5.11877 55.6882 4.98269 55.877 4.9043 55.998C4.82371 55.7752 4.73494 55.4532 4.73494 55.1123C4.73494 54.9111 4.76577 54.7035 4.84766 54.5067C5.1834 53.699 6.24837 53.3752 6.24837 53.3752ZM93.6997 53.3752C93.6997 53.3752 94.7647 53.699 95.1004 54.5067C95.1823 54.7035 95.2131 54.9111 95.2131 55.1123C95.2131 55.4532 95.1244 55.7752 95.0438 55.998C94.9654 55.877 94.8293 55.6882 94.643 55.4973L94.2354 54.6641L94.4657 55.33C94.2264 55.124 93.9272 54.9412 93.5761 54.8743C93.5258 54.8647 93.4759 54.8592 93.4261 54.8545C93.4096 54.7571 93.402 54.6593 93.402 54.563C93.402 53.9389 93.6997 53.3752 93.6997 53.3752ZM4.15799 50.0919C4.23228 50.2902 4.34461 50.6539 4.34461 51.0513C4.34461 51.2782 4.3076 51.5147 4.20536 51.7347C3.83684 52.5279 2.75935 52.8077 2.75935 52.8077C2.75935 52.8077 2.50912 52.2825 2.50912 51.692C2.50923 51.4694 2.54561 51.2378 2.64333 51.0214C3.10885 51.0026 3.46741 50.8034 3.7234 50.5848L3.34758 51.542L4.05276 50.2386C4.09737 50.1808 4.13229 50.1308 4.15799 50.0919ZM95.7901 50.0919C95.8158 50.1308 95.8507 50.1808 95.8953 50.2386L96.6005 51.542L96.2247 50.5848C96.4807 50.8034 96.8392 51.0026 97.3047 51.0214C97.4025 51.2378 97.4389 51.4694 97.439 51.692C97.439 52.2825 97.1887 52.8077 97.1887 52.8077C97.1887 52.8077 96.1112 52.5279 95.7427 51.7347C95.6405 51.5147 95.6035 51.2782 95.6035 51.0513C95.6035 50.6539 95.7158 50.2902 95.7901 50.0919ZM4.34542 49.9568C4.69719 49.9762 5.40165 50.0751 5.82947 50.5469C6.2097 50.9664 6.27671 51.5772 6.27671 51.9555C6.27671 52.1614 6.25686 52.2984 6.25686 52.2984C6.25686 52.2984 6.24314 52.2991 6.21794 52.2994L6.18233 52.2995C5.92376 52.2981 5.05405 52.2513 4.55837 51.7046C4.53216 51.6755 4.51079 51.6438 4.48735 51.6131C4.53957 51.4398 4.56751 51.2523 4.56751 51.0512C4.56751 50.84 4.53739 50.6397 4.49835 50.4627L5.32006 51.265L4.40493 50.1226C4.38346 50.0584 4.3629 50.0008 4.34542 49.9568ZM95.6027 49.9568C95.5852 50.0008 95.5646 50.0584 95.5432 50.1226L94.628 51.265L95.4497 50.4627C95.4107 50.6397 95.3806 50.84 95.3806 51.0512C95.3806 51.2523 95.4085 51.4398 95.4607 51.6131C95.4373 51.6438 95.4159 51.6755 95.3897 51.7046C94.894 52.2513 94.0243 52.2981 93.7657 52.2995L93.7301 52.2994C93.7049 52.2991 93.6912 52.2984 93.6912 52.2984C93.6912 52.2984 93.6714 52.1614 93.6714 51.9555C93.6714 51.5772 93.7384 50.9664 94.1186 50.5469C94.5464 50.0751 95.2509 49.9762 95.6027 49.9568ZM97.5584 49.0891C98.3422 49.1976 98.95 49.9352 98.95 49.9352C97.5928 51.4498 96.4297 50.6137 95.9937 49.9828L96.4695 49.992L96.5769 49.9952L97.5568 49.9352L96.4784 49.8693C96.8332 49.7356 97.2755 49.4962 97.5584 49.0891ZM2.3897 49.0891C2.67263 49.4962 3.11492 49.7356 3.46968 49.8693L2.39124 49.9352L3.371 49.9951L3.47859 49.992L3.95439 49.9828C3.51843 50.6137 2.35529 51.4498 0.998055 49.9352C0.998055 49.9352 1.03605 49.8891 1.10528 49.8183L1.15599 49.7675C1.38595 49.5432 1.8454 49.1644 2.3897 49.0891ZM7.25998 49.1752C7.25998 49.1752 6.73945 50.1233 5.90346 50.3071C5.52017 49.9476 5.00191 49.8097 4.62156 49.7587L5.89123 49.4356L4.22633 49.6482C4.39866 49.3838 4.87212 48.7535 5.54656 48.6252C6.40434 48.4618 7.25998 49.1752 7.25998 49.1752ZM92.6881 49.1752C92.6881 49.1752 93.5437 48.4618 94.4015 48.6252C95.076 48.7535 95.5494 49.3838 95.7217 49.6482L94.0569 49.4356L95.3265 49.7587C94.9462 49.8097 94.4279 49.9476 94.0446 50.3071C93.2086 50.1233 92.6881 49.1752 92.6881 49.1752ZM97.4977 47.0768C97.4977 47.0768 97.6478 47.4929 97.6478 47.9891C97.6478 48.2806 97.596 48.5999 97.4314 48.8786C97.0957 49.4465 96.3883 49.6837 96.0607 49.7659L96.0584 49.7651C96.0847 49.7025 96.1149 49.6248 96.1452 49.5353L96.7879 48.2784L96.268 49.0474C96.2893 48.9189 96.3032 48.7832 96.3032 48.6437C96.3032 48.3922 96.2594 48.1594 96.1733 47.9522C96.1515 47.8999 96.1268 47.8499 96.1002 47.8013C96.6015 47.2187 97.4977 47.0768 97.4977 47.0768ZM2.45033 47.0768C2.45033 47.0768 3.34656 47.2187 3.84785 47.8013C3.82123 47.8499 3.79656 47.8999 3.77478 47.9522C3.68865 48.1594 3.64488 48.3922 3.64488 48.6437C3.64488 48.7832 3.65876 48.9189 3.68014 49.0474L3.16015 48.2784L3.80283 49.5353C3.83315 49.6248 3.86337 49.7025 3.88968 49.7651L3.8874 49.7659C3.55979 49.6837 2.85237 49.4465 2.51672 48.8786C2.3521 48.5999 2.30029 48.2806 2.30029 47.9891C2.30029 47.5501 2.41771 47.1739 2.4448 47.0929L2.44969 47.0786L2.45033 47.0768ZM94.5668 46.9064C94.5668 46.9064 95.6317 47.2303 95.9675 48.0381C96.0493 48.2348 96.0802 48.4425 96.0802 48.6436C96.0802 48.9845 95.9914 49.3065 95.9108 49.5293C95.8324 49.4084 95.6964 49.2196 95.51 49.0286L95.1024 48.1954L95.3328 48.8614C95.0934 48.6553 94.7943 48.4725 94.4431 48.4057C94.3929 48.3961 94.3429 48.3906 94.2931 48.3858C94.2767 48.2884 94.2691 48.1906 94.2691 48.0943C94.2691 47.4703 94.5668 46.9064 94.5668 46.9064ZM5.38133 46.9064L5.3823 46.9083L5.39579 46.9354C5.45542 47.0579 5.67904 47.5534 5.67904 48.0943C5.67904 48.1906 5.67143 48.2884 5.655 48.3858C5.60515 48.3906 5.55522 48.3961 5.50496 48.4057C5.1538 48.4725 4.85464 48.6553 4.61531 48.8614L4.8457 48.1954L4.43805 49.0286C4.25173 49.2196 4.11566 49.4084 4.03726 49.5293C3.95668 49.3065 3.86791 48.9845 3.86791 48.6436C3.86791 48.4425 3.89874 48.2348 3.98062 48.0381C4.31637 47.2303 5.38133 46.9064 5.38133 46.9064ZM94.9231 43.6233C94.9488 43.6622 94.9837 43.7122 95.0283 43.7699L95.7335 45.0733L95.3577 44.1162C95.6136 44.3347 95.9722 44.534 96.4377 44.5527C96.5354 44.7692 96.5718 45.0008 96.5719 45.2234C96.5719 45.8139 96.3217 46.339 96.3217 46.339C96.3217 46.339 95.2442 46.0593 94.8757 45.2661C94.7734 45.0461 94.7364 44.8095 94.7364 44.5827C94.7364 44.1852 94.8488 43.8215 94.9231 43.6233ZM5.02503 43.6233C5.09931 43.8215 5.21165 44.1852 5.21165 44.5827C5.21165 44.8095 5.17464 45.0461 5.0724 45.2661C4.70388 46.0593 3.62639 46.339 3.62639 46.339C3.62639 46.339 3.37616 45.8139 3.37616 45.2234C3.37627 45.0008 3.41264 44.7692 3.51037 44.5527C3.97589 44.534 4.33444 44.3347 4.59044 44.1162L4.21462 45.0733L4.9198 43.7699C4.9644 43.7122 4.99933 43.6622 5.02503 43.6233ZM94.7356 43.4881C94.7182 43.5321 94.6976 43.5897 94.6761 43.654L93.761 44.7963L94.5827 43.994C94.5437 44.1711 94.5135 44.3713 94.5135 44.5826C94.5135 44.7836 94.5415 44.9711 94.5937 45.1444L94.5475 45.2061L94.5227 45.2359C93.9357 45.8834 92.8242 45.8298 92.8242 45.8298L92.8218 45.8116C92.8166 45.768 92.8043 45.6486 92.8043 45.4868C92.8043 45.1084 92.8713 44.4977 93.2516 44.0783C93.6794 43.6065 94.3839 43.5075 94.7356 43.4881ZM5.21245 43.4881C5.56423 43.5075 6.26868 43.6065 6.69651 44.0783C7.07673 44.4977 7.14375 45.1084 7.14375 45.4868C7.14375 45.6486 7.1315 45.768 7.12624 45.8116L7.1239 45.8298C7.1239 45.8298 6.0124 45.8834 5.4254 45.2359C5.3992 45.2068 5.37783 45.1752 5.35439 45.1444C5.4066 44.9711 5.43455 44.7836 5.43455 44.5826C5.43455 44.3713 5.40443 44.1711 5.36538 43.994L6.1871 44.7963L5.27197 43.654C5.2505 43.5897 5.22994 43.5321 5.21245 43.4881ZM3.25673 42.6204C3.53967 43.0275 3.98195 43.2669 4.33671 43.4006L3.25828 43.4666L4.23825 43.5266L4.34563 43.5234L4.82143 43.5141C4.38547 44.145 3.22233 44.9811 1.86509 43.4666C1.86509 43.4666 2.47294 42.729 3.25673 42.6204ZM96.6914 42.6204C97.4751 42.729 98.083 43.4666 98.083 43.4666C96.7258 44.9811 95.5626 44.145 95.1267 43.5141L95.6025 43.5234L95.7099 43.5266L96.6898 43.4666L95.6114 43.4006C95.9661 43.2669 96.4084 43.0275 96.6914 42.6204ZM8.12702 42.7065C8.12702 42.7065 7.60649 43.6547 6.77049 43.8385C6.3872 43.479 5.86895 43.3411 5.4886 43.2901L6.75827 42.967L5.09337 43.1795C5.2657 42.9152 5.73916 42.2849 6.4136 42.1565C7.27138 41.9931 8.12702 42.7065 8.12702 42.7065ZM91.8211 42.7065C91.8211 42.7065 92.6767 41.9931 93.5345 42.1565C94.2089 42.2849 94.6824 42.9152 94.8547 43.1795L93.1898 42.967L94.4595 43.2901C94.0791 43.3411 93.5609 43.479 93.1776 43.8385C92.3416 43.6547 91.8211 42.7065 91.8211 42.7065ZM96.6307 40.6081C96.6307 40.6081 96.7808 41.0242 96.7808 41.5204C96.7808 41.812 96.729 42.1312 96.5643 42.41C96.2287 42.9779 95.5213 43.215 95.1936 43.2973L95.1914 43.2965C95.2177 43.2338 95.2479 43.1562 95.2782 43.0667L95.9209 41.8098L95.4009 42.5787C95.4223 42.4502 95.4362 42.3145 95.4362 42.175C95.4362 41.9235 95.3924 41.6908 95.3063 41.4835C95.2845 41.4312 95.2598 41.3812 95.2332 41.3326C95.7345 40.7501 96.6307 40.6081 96.6307 40.6081ZM3.31737 40.6081C3.31737 40.6081 4.21359 40.7501 4.71489 41.3326C4.68827 41.3812 4.6636 41.4312 4.64182 41.4835C4.55569 41.6908 4.51192 41.9235 4.51192 42.175C4.51192 42.3145 4.5258 42.4502 4.54717 42.5787L4.02719 41.8098L4.66987 43.0667C4.70018 43.1562 4.73041 43.2338 4.75671 43.2965L4.75444 43.2973C4.42683 43.215 3.7194 42.9779 3.38376 42.41C3.21914 42.1312 3.16733 41.812 3.16733 41.5204C3.16733 41.0242 3.31737 40.6081 3.31737 40.6081ZM6.24837 40.4378L6.26283 40.4667C6.32246 40.5892 6.54607 41.0848 6.54607 41.6257C6.54607 41.722 6.53846 41.8198 6.52203 41.9172C6.47218 41.9219 6.42225 41.9274 6.37199 41.937C6.02084 42.0039 5.72167 42.1867 5.48234 42.3926L5.71273 41.7268L5.30509 42.56C5.11877 42.7509 4.98269 42.9397 4.9043 43.0607C4.82371 42.8379 4.73494 42.5158 4.73494 42.1749C4.73494 41.9738 4.76577 41.7662 4.84766 41.5694C5.1834 40.7617 6.24837 40.4378 6.24837 40.4378ZM93.6997 40.4378C93.6997 40.4378 94.7647 40.7617 95.1004 41.5694C95.1823 41.7662 95.2131 41.9738 95.2131 42.1749C95.2131 42.5158 95.1244 42.8379 95.0438 43.0607C94.9654 42.9397 94.8293 42.7509 94.643 42.56L94.2354 41.7268L94.4657 42.3926C94.2264 42.1867 93.9272 42.0039 93.5761 41.937C93.5258 41.9274 93.4759 41.9219 93.4261 41.9172C93.4096 41.8198 93.402 41.722 93.402 41.6257C93.402 41.0016 93.6997 40.4378 93.6997 40.4378ZM56.28 4.96157L56.0679 6.6301L56.3904 5.35766C56.4412 5.73884 56.5788 6.25823 56.9375 6.64235C56.7542 7.48016 55.808 8.00183 55.808 8.00183C55.808 8.00183 55.0963 7.14432 55.2592 6.28468C55.3874 5.60877 56.0162 5.13428 56.28 4.96157ZM43.3708 4.96157L43.1587 6.6301L43.4812 5.35766C43.532 5.73884 43.6696 6.25823 44.0283 6.64235C43.845 7.48016 42.8988 8.00183 42.8988 8.00183C42.8988 8.00183 42.1871 7.14432 42.35 6.28468C42.4782 5.60877 43.107 5.13428 43.3708 4.96157ZM49.8254 4.09265L49.6133 5.76117L49.9358 4.48874C49.9866 4.86991 50.1242 5.3893 50.4829 5.77343C50.2996 6.61125 49.3534 7.13291 49.3534 7.13291C49.3534 7.13291 48.6417 6.2754 48.8046 5.41575C48.9328 4.73984 49.5616 4.26535 49.8254 4.09265ZM43.6788 5.08092C43.7227 5.09844 43.7802 5.11904 43.8443 5.14056L44.9841 6.05768L44.1836 5.23417C44.3602 5.27331 44.56 5.30349 44.7709 5.30349C44.9715 5.30349 45.1585 5.27549 45.3315 5.22316C45.3621 5.24665 45.3937 5.26807 45.4227 5.29432C45.9683 5.79109 46.0151 6.66269 46.0164 6.92183L46.0163 6.95752C46.016 6.98277 46.0154 6.99652 46.0154 6.99652C46.0154 6.99652 45.8786 7.01642 45.6732 7.01642C45.2956 7.01642 44.6862 6.94926 44.2677 6.5682C43.7969 6.13944 43.6981 5.43346 43.6788 5.08092ZM56.588 5.08092C56.6319 5.09844 56.6894 5.11904 56.7535 5.14056L57.8933 6.05768L57.0928 5.23417C57.2694 5.27331 57.4692 5.30349 57.6801 5.30349C57.8807 5.30349 58.0677 5.27549 58.2407 5.22316C58.2713 5.24665 58.303 5.26807 58.3319 5.29432C58.8775 5.79109 58.9243 6.66269 58.9256 6.92183L58.9255 6.95752C58.9253 6.98277 58.9246 6.99652 58.9246 6.99652C58.9246 6.99652 58.7878 7.01642 58.5824 7.01642C58.2048 7.01642 57.5954 6.94926 57.1769 6.5682C56.7061 6.13944 56.6073 5.43346 56.588 5.08092ZM42.3684 4.60236C42.7086 4.60236 43.03 4.69132 43.2522 4.77209C43.1316 4.85065 42.9431 4.98703 42.7527 5.17375L41.9212 5.58229L42.5857 5.35139C42.3801 5.59125 42.1977 5.89106 42.1311 6.24298C42.1215 6.29335 42.1159 6.34339 42.1112 6.39334C42.0141 6.40981 41.9165 6.41744 41.8204 6.41744C41.2807 6.41744 40.7862 6.19334 40.6639 6.13358L40.637 6.12006C40.6351 6.11909 40.9583 5.0518 41.7643 4.71533C41.9606 4.63327 42.1677 4.60236 42.3684 4.60236ZM55.2776 4.60236C55.6178 4.60236 55.9392 4.69132 56.1614 4.77209C56.0408 4.85065 55.8523 4.98703 55.6619 5.17375L54.8304 5.58229L55.4949 5.35139C55.2893 5.59125 55.1069 5.89106 55.0403 6.24298C55.0307 6.29335 55.0251 6.34339 55.0204 6.39334C54.9233 6.40981 54.8257 6.41744 54.7296 6.41744C54.1899 6.41744 53.6954 6.19334 53.5731 6.13358L53.5462 6.12006C53.5443 6.11909 53.8675 5.0518 54.6735 4.71533C54.8698 4.63327 55.0769 4.60236 55.2776 4.60236ZM50.1334 4.21199C50.1773 4.22951 50.2348 4.25013 50.2989 4.27163L51.4387 5.18876L50.6382 4.36526C50.8148 4.40438 51.0146 4.43457 51.2255 4.43457C51.4261 4.43457 51.6131 4.40657 51.7861 4.35423L51.8476 4.4005L51.8773 4.42541C52.5234 5.01368 52.47 6.12761 52.47 6.12761L52.4518 6.12995C52.4082 6.13521 52.2892 6.1475 52.1278 6.1475C51.7502 6.1475 51.1408 6.08033 50.7223 5.69927C50.2515 5.27052 50.1527 4.56453 50.1334 4.21199ZM48.823 3.73344C49.1632 3.73344 49.4846 3.82241 49.7068 3.90316C49.5862 3.98173 49.3977 4.1181 49.2073 4.30482L48.3758 4.71336L49.0403 4.48247C48.8347 4.72232 48.6523 5.02213 48.5857 5.37406C48.5761 5.42443 48.5705 5.47447 48.5658 5.52442C48.4687 5.54089 48.3711 5.54852 48.275 5.54852C47.6522 5.54852 47.0897 5.25016 47.0897 5.25016C47.0897 5.25016 47.4129 4.18288 48.2189 3.8464C48.4152 3.76434 48.6223 3.73344 48.823 3.73344ZM45.4102 3.24062C45.9995 3.24062 46.5235 3.4914 46.5235 3.4914C46.5235 3.4914 46.2444 4.57123 45.4529 4.94056C45.2333 5.04302 44.9973 5.08011 44.7709 5.08011C44.3743 5.08011 44.0115 4.96752 43.8136 4.89308C43.8525 4.86733 43.9023 4.83232 43.96 4.78762L45.2606 4.08091L44.3055 4.45755C44.5235 4.20099 44.7224 3.84166 44.7411 3.37512C44.9571 3.27719 45.1881 3.24073 45.4102 3.24062ZM58.3194 3.24062C58.9087 3.24062 59.4327 3.4914 59.4327 3.4914C59.4327 3.4914 59.1536 4.57123 58.3621 4.94056C58.1425 5.04302 57.9065 5.08011 57.6801 5.08011C57.2835 5.08011 56.9207 4.96752 56.7228 4.89308C56.7617 4.86733 56.8115 4.83232 56.8692 4.78762L58.1698 4.08091L57.2147 4.45755C57.4327 4.20099 57.6316 3.84166 57.6503 3.37512C57.8663 3.27719 58.0973 3.24073 58.3194 3.24062ZM56.5664 1.72626C58.0778 3.08646 57.2434 4.25213 56.6139 4.68904L56.6231 4.2122L56.6264 4.10437L56.5664 3.12249L56.5007 4.20327C56.3673 3.84774 56.1283 3.40449 55.7222 3.12093C55.8304 2.33543 56.5664 1.72626 56.5664 1.72626ZM43.6572 1.72626C45.1685 3.08646 44.3342 4.25213 43.7047 4.68904L43.7139 4.2122L43.7172 4.10437L43.6572 3.12249L43.5915 4.20327C43.4581 3.84774 43.2191 3.40449 42.813 3.12093C42.9212 2.33543 43.6572 1.72626 43.6572 1.72626ZM54.6246 3.03134C54.9155 3.03134 55.2341 3.08326 55.5121 3.24824C56.0789 3.58461 56.3155 4.29358 56.3976 4.6219L56.3967 4.62418C56.3343 4.59782 56.2568 4.56753 56.1675 4.53715L54.9132 3.89307L55.6806 4.41418C55.5523 4.39277 55.417 4.37886 55.2777 4.37886C55.0268 4.37886 54.7945 4.42272 54.5878 4.50904C54.5356 4.53087 54.4856 4.55559 54.4371 4.58227C53.8559 4.07988 53.7143 3.1817 53.7143 3.1817L53.7161 3.18105L53.7303 3.17616C53.8111 3.149 54.1866 3.03134 54.6246 3.03134ZM41.7154 3.03134C42.0063 3.03134 42.3248 3.08326 42.6029 3.24824C43.1697 3.58461 43.4063 4.29358 43.4884 4.6219L43.4875 4.62418C43.425 4.59782 43.3476 4.56753 43.2583 4.53715L42.004 3.89307L42.7714 4.41418C42.6431 4.39277 42.5078 4.37886 42.3685 4.37886C42.1176 4.37886 41.8853 4.42272 41.6786 4.50904C41.6264 4.53087 41.5764 4.55559 41.5279 4.58227C40.9467 4.07988 40.8051 3.1817 40.8051 3.1817C40.8051 3.1817 41.2202 3.03134 41.7154 3.03134ZM51.8648 2.37169C52.4541 2.37169 52.9781 2.62247 52.9781 2.62247C52.9781 2.62247 52.699 3.7023 51.9075 4.07163C51.6879 4.17409 51.4519 4.21118 51.2255 4.21118C50.8289 4.21118 50.4661 4.09861 50.2682 4.02415C50.3071 3.9984 50.3569 3.9634 50.4146 3.9187L51.7152 3.21198L50.7601 3.58862C50.9781 3.33207 51.177 2.97273 51.1957 2.50621C51.4117 2.40826 51.6427 2.3718 51.8648 2.37169ZM50.1118 0.857339C51.6231 2.21753 50.7888 3.3832 50.1593 3.82011L50.1685 3.34327L50.1718 3.23544L50.1118 2.25357L50.0461 3.33435C49.9127 2.97881 49.6737 2.53556 49.2676 2.25201C49.3758 1.46652 50.1118 0.857339 50.1118 0.857339ZM48.17 2.16242C48.4609 2.16242 48.7795 2.21433 49.0575 2.37931C49.6243 2.71569 49.8609 3.42465 49.943 3.75298L49.9421 3.75526C49.8797 3.7289 49.8022 3.69861 49.7129 3.66822L48.4586 3.02414L49.226 3.54526C49.0977 3.52384 48.9624 3.50993 48.8231 3.50993C48.5722 3.50993 48.3399 3.55379 48.1332 3.64011C48.081 3.66194 48.031 3.68666 47.9825 3.71334C47.4013 3.21096 47.2597 2.31278 47.2597 2.31278C47.2597 2.31278 47.6748 2.16242 48.17 2.16242Z" fill="black"></path></svg> 