<?xml version="1.0" encoding="UTF-8"?> <svg xmlns="http://www.w3.org/2000/svg" width="1785" height="1260" viewBox="0 0 1785 1260" fill="none"><g clip-path="url(#clip0_2088_11182)"><rect width="1260" height="1785" transform="matrix(0 1 -1 0 1785 0)" fill="white"></rect><path d="M1135.05 508.933L1004.13 868.621L644.442 737.705L775.358 378.018L1135.05 508.933ZM659.275 730.788L997.213 853.788L1120.21 515.85L782.275 392.851L659.275 730.788Z" fill="black"></path><path d="M1214.35 471.965L1041.11 947.93L565.144 774.693L738.381 298.728L1214.35 471.965ZM579.977 767.776L1034.19 933.098L1199.51 478.882L745.298 313.561L579.977 767.776Z" fill="black"></path><path d="M1515.43 856.86C1551.85 756.811 1516.7 640.35 1428.26 532.483C1339.91 424.73 1199.02 326.496 1026.45 263.683C853.872 200.87 682.797 185.561 545.854 211.314C408.768 237.096 306.984 303.718 270.569 403.768C234.154 503.817 269.301 620.279 357.743 728.146C446.093 835.899 586.985 934.136 759.562 996.949C932.137 1059.76 1103.2 1075.07 1240.15 1049.31C1377.23 1023.53 1479.02 956.91 1515.43 856.86ZM1526.31 860.819C1487.93 966.256 1381.45 1034.52 1242.28 1060.69C1102.97 1086.89 929.787 1071.22 755.603 1007.82C581.418 944.426 438.674 845.103 348.794 735.484C259.008 625.979 221.318 505.247 259.694 399.81C298.07 294.372 404.548 226.113 543.716 199.94C683.03 173.741 856.221 189.41 1030.41 252.808C1204.59 316.207 1347.33 415.526 1437.21 525.144C1526.99 634.649 1564.68 755.381 1526.31 860.819Z" fill="black"></path><path d="M1573.56 878.01C1615.88 761.756 1579.33 628.343 1484.24 506.22C1389.2 384.17 1236.18 274.176 1047.61 205.54C859.033 136.904 671.116 122.809 519.858 155.215C368.51 187.641 254.75 266.345 212.436 382.6C170.122 498.855 206.674 632.279 301.771 754.404C396.811 876.454 549.83 986.438 738.403 1055.07C926.977 1123.71 1114.89 1137.82 1266.15 1105.41C1417.5 1072.98 1531.25 994.266 1573.56 878.01ZM1584.44 881.968C1540.28 1003.31 1422.18 1083.81 1268.57 1116.72C1114.88 1149.65 924.738 1135.21 734.445 1065.95C544.151 996.687 389.216 885.529 292.643 761.509C196.126 637.562 157.396 499.982 201.561 378.642C245.726 257.302 363.829 176.804 517.436 143.894C671.134 110.966 861.273 125.404 1051.57 194.665C1241.86 263.927 1396.8 375.084 1493.37 499.105C1589.88 623.051 1628.6 760.629 1584.44 881.968Z" fill="black"></path><path d="M812.996 593.347L819.464 575.576L839.391 582.829L832.924 600.6L840.219 603.255L855.128 562.293L847.833 559.638L841.634 576.67L821.706 569.417L827.905 552.385L820.581 549.719L805.672 590.681L812.996 593.347ZM855.968 609.534C859.829 610.939 864.338 610.297 867.258 607.663L867.4 607.715L865.654 612.512L872.466 614.992L880.009 594.27C882.209 588.223 878.791 582.511 871.326 579.793C863.661 577.004 857.397 579.289 855.039 584.796L861.596 587.182C862.96 584.849 865.677 584.006 869.027 585.226C872.519 586.496 873.986 589.088 872.84 592.239L872.054 594.396L863.941 591.958C856.452 589.746 851.168 591.456 849.226 596.792C847.252 602.214 850.149 607.416 855.968 609.534ZM860.04 604.972C856.974 603.856 855.498 601.551 856.397 599.081C857.265 596.697 859.782 595.877 863.271 596.889L870.381 598.995L869.544 601.294C868.221 604.928 864.042 606.429 860.04 604.972ZM885.695 619.807L890.344 607.033L903.061 611.661L898.412 624.435L905.452 626.998L916.404 596.908L909.364 594.345L905.045 606.211L892.328 601.582L896.646 589.717L889.607 587.154L878.655 617.244L885.695 619.807ZM912.781 638.57L915.643 630.707L936.989 638.476L934.127 646.339L940.6 648.695L945.445 635.382L940.875 633.718L949.843 609.079L926.963 600.751L920.2 616.067C918.438 620.023 916.228 623.269 913.539 623.769L911.154 622.901L906.308 636.214L912.781 638.57ZM933.835 631.156L920.948 626.465L921.03 626.238C923.144 624.757 924.9 622.053 926.367 618.729L931.008 608.363L940.83 611.938L933.835 631.156ZM956.145 645.995C960.006 647.4 964.515 646.759 967.434 644.125L967.576 644.176L965.83 648.974L972.643 651.453L980.185 630.731C982.386 624.685 978.968 618.972 971.502 616.255C963.838 613.465 957.573 615.75 955.215 621.257L961.773 623.644C963.136 621.311 965.854 620.468 969.204 621.687C972.695 622.958 974.163 625.549 973.016 628.7L972.231 630.858L964.117 628.419C956.628 626.207 951.345 627.917 949.402 633.254C947.429 638.676 950.326 643.877 956.145 645.995ZM960.216 641.433C957.151 640.317 955.675 638.012 956.574 635.542C957.442 633.158 959.958 632.338 963.448 633.351L970.557 635.456L969.72 637.756C968.398 641.389 964.219 642.89 960.216 641.433ZM791.084 651.209C799.231 654.174 806.74 651.12 809.499 643.541C812.216 636.075 808.303 628.897 800.042 625.89L791.469 622.77L794.951 613.204L813.658 620.012L815.9 613.853L789.87 604.378L774.961 645.34L791.084 651.209ZM791.429 644.519L784.475 641.988L789.341 628.618L796.267 631.139C801.462 633.029 803.585 636.47 802.004 640.814C800.434 645.128 796.596 646.4 791.429 644.519ZM816.178 660.342L826.349 651.828L826.491 651.88L828.81 664.94L836.531 667.75L832.503 649.053L847.597 637.702L839.847 634.881L830.014 643.261L829.872 643.209L827.641 630.438L819.693 627.545L823.829 646.121L808.656 657.604L816.178 660.342ZM849.47 673.006C853.331 674.411 857.84 673.77 860.76 671.136L860.902 671.187L859.156 675.985L865.968 678.464L873.511 657.742C875.711 651.696 872.293 645.983 864.828 643.266C857.163 640.476 850.899 642.761 848.541 648.268L855.098 650.655C856.462 648.322 859.179 647.479 862.529 648.698C866.021 649.969 867.488 652.56 866.342 655.711L865.556 657.869L857.443 655.43C849.954 653.218 844.67 654.928 842.728 660.265C840.754 665.687 843.651 670.888 849.47 673.006ZM853.542 668.444C850.476 667.328 849 665.023 849.899 662.554C850.767 660.169 853.284 659.349 856.773 660.362L863.883 662.467L863.046 664.767C861.723 668.4 857.544 669.901 853.542 668.444ZM886.662 685.996C893.333 688.424 898.707 686.555 900.639 681.246C902.013 677.471 900.357 673.718 896.598 671.771L896.68 671.544C899.847 672.118 903.169 670.144 904.316 666.993C906.052 662.224 903.462 658.035 897.387 655.824L883.108 650.627L872.157 680.717L886.662 685.996ZM890.727 667.32L885.561 665.439L888.289 657.945L893.994 660.022C896.862 661.065 897.966 662.978 897.108 665.334C896.199 667.832 894.02 668.518 890.727 667.32ZM886.989 680.682L880.829 678.44L883.929 669.924L889.521 671.96C893.325 673.344 894.756 675.505 893.734 678.315C892.731 681.069 890.339 681.901 886.989 680.682ZM911.41 695.55C915.271 696.955 919.78 696.314 922.699 693.68L922.841 693.731L921.095 698.529L927.908 701.009L935.45 680.286C937.651 674.24 934.233 668.527 926.767 665.81C919.103 663.02 912.839 665.305 910.481 670.812L917.038 673.199C918.401 670.866 921.119 670.023 924.469 671.242C927.96 672.513 929.428 675.105 928.281 678.256L927.496 680.413L919.383 677.974C911.893 675.763 906.61 677.472 904.667 682.809C902.694 688.231 905.591 693.432 911.41 695.55ZM915.482 690.988C912.416 689.873 910.94 687.567 911.839 685.098C912.707 682.713 915.224 681.893 918.713 682.906L925.822 685.012L924.985 687.311C923.663 690.944 919.484 692.445 915.482 690.988ZM941.136 705.823L945.786 693.049L958.503 697.678L953.854 710.452L960.893 713.014L971.845 682.924L964.805 680.362L960.487 692.228L947.769 687.599L952.088 675.733L945.048 673.171L934.096 703.261L941.136 705.823Z" fill="black"></path></g><defs><clipPath id="clip0_2088_11182"><rect width="1260" height="1785" fill="white" transform="matrix(0 1 -1 0 1785 0)"></rect></clipPath></defs></svg> 