<?xml version="1.0" encoding="UTF-8"?> <svg xmlns="http://www.w3.org/2000/svg" width="1785" height="1260" viewBox="0 0 1785 1260" fill="none"><g clip-path="url(#clip0_2089_12028)"><rect width="1260" height="1785" transform="matrix(0 1 -1 0 1785 0)" fill="white"></rect><path d="M999.754 542.897L761.388 955.76L348.525 717.394L586.892 304.531L999.754 542.897ZM377.619 709.598L753.592 926.666L970.66 550.693L594.687 333.625L377.619 709.598Z" fill="black"></path><path d="M1155.28 501.22L803.062 1111.28L193 759.062L545.22 149L1155.28 501.22ZM222.094 751.267L795.267 1082.19L1126.19 509.015L553.015 178.094L222.094 751.267Z" fill="black"></path><path d="M1169.76 864.795V828.214H1170.2L1202.89 864.795H1221.24L1183.82 822.71L1218.18 784.572H1201.61L1170.2 819.652H1169.76V784.572H1155.42V864.795H1169.76ZM1235.14 886.7C1248.59 886.7 1255.1 881.752 1260.16 867.13L1281.45 805.865H1266.88L1252.98 853.009H1252.76L1238.86 805.865H1223.74L1244.7 864.851C1244.76 865.018 1243.92 867.964 1243.92 868.131C1242.37 873.579 1239.42 875.747 1233.69 875.747C1232.86 875.747 1230.41 875.692 1229.69 875.525V886.477C1230.41 886.644 1234.36 886.7 1235.14 886.7ZM1299.63 864.795L1311.86 843.669H1312.14L1324.37 864.795H1339.49L1320.75 834.997L1339.71 805.865H1324.53L1312.8 826.546H1312.53L1300.63 805.865H1285.06L1303.91 835.386L1284.89 864.795H1299.63ZM1361.56 864.795V839.778H1386.47V864.795H1400.25V805.865H1386.47V829.104H1361.56V805.865H1347.77V864.795H1361.56ZM1424.55 864.795L1438.28 845.059H1446.18V864.795H1459.74V805.865H1434.89C1420.88 805.865 1411.82 813.593 1411.82 825.99C1411.82 834.329 1416.77 840.389 1424.94 842.891L1409.09 864.795H1424.55ZM1446.18 834.941H1435.95C1429.61 834.941 1425.55 831.161 1425.55 825.935C1425.55 820.097 1429.61 816.428 1435.95 816.428H1446.18V834.941ZM1169.76 978.653V952.135H1185.99C1202.23 952.135 1213.62 941.294 1213.62 925.282C1213.62 909.271 1202.56 898.43 1186.6 898.43H1155.42V978.653H1169.76ZM1182.77 940.571H1169.76V910.161H1182.82C1193.11 910.161 1199.06 915.664 1199.06 925.282C1199.06 935.011 1193.05 940.571 1182.77 940.571ZM1241.48 979.598C1249.04 979.598 1256.43 975.651 1259.82 969.258H1260.1V978.653H1273.44V938.069C1273.44 926.227 1263.94 918.5 1249.31 918.5C1234.3 918.5 1224.91 926.394 1224.3 937.402H1237.14C1238.03 932.51 1242.2 929.341 1248.76 929.341C1255.6 929.341 1259.77 932.899 1259.77 939.07V943.295L1244.2 944.184C1229.86 945.074 1221.8 951.356 1221.8 961.808C1221.8 972.427 1230.08 979.598 1241.48 979.598ZM1245.65 969.146C1239.64 969.146 1235.64 966.089 1235.64 961.252C1235.64 956.582 1239.47 953.58 1246.15 953.135L1259.77 952.301V956.804C1259.77 963.921 1253.48 969.146 1245.65 969.146ZM1293.12 994.053V978.653H1334.93V994.053H1347.61V967.979H1338.65V919.723H1293.85L1291.79 950.467C1291.23 958.417 1289.45 965.422 1285.12 967.979H1280.45V994.053H1293.12ZM1324.87 967.979H1299.63V967.534C1302.35 963.643 1303.69 957.861 1304.13 951.189L1305.63 930.341H1324.87V967.979ZM1365.95 978.653L1378.18 957.527H1378.46L1390.69 978.653H1405.81L1387.08 948.854L1406.04 919.723H1390.86L1379.13 940.404H1378.85L1366.95 919.723H1351.39L1370.23 949.244L1351.22 978.653H1365.95ZM1427.66 978.653L1453.29 939.014H1453.74V978.653H1467.3V919.723H1453.74L1428.11 959.084H1427.66V919.723H1414.1V978.653H1427.66ZM1493.43 978.653V952.301H1493.88L1515.78 978.653H1532.74L1506.61 947.242L1531.57 919.723H1515.45L1493.88 944.296H1493.43V919.723H1479.64V978.653H1493.43ZM1553.36 978.653L1578.99 939.014H1579.44V978.653H1593V919.723H1579.44L1553.81 959.084H1553.36V919.723H1539.8V978.653H1553.36Z" fill="black"></path></g><defs><clipPath id="clip0_2089_12028"><rect width="1260" height="1785" fill="white" transform="matrix(0 1 -1 0 1785 0)"></rect></clipPath></defs></svg> 