<?xml version="1.0" encoding="UTF-8"?> <svg xmlns="http://www.w3.org/2000/svg" xmlns:xlink="http://www.w3.org/1999/xlink" width="254px" height="180px" viewBox="0 0 254 180"><title>Yamuna</title><g id="Page-1" stroke="none" stroke-width="1" fill="none" fill-rule="evenodd" stroke-linecap="round" stroke-linejoin="round"><g id="Mahabhava-Dhama-Water&amp;Electro-Copy-19" transform="translate(-866.000000, -325.000000)"><g id="Yamuna" transform="translate(992.998313, 415.007812) rotate(-5.000000) translate(-992.998313, -415.007812) translate(872.998313, 336.000074)"><g id="Yamuna-Water" transform="translate(0.000000, 0.020792)" stroke="#2A96FB" stroke-width="0.73"><line x1="8.43694978" y1="113.173352" x2="31.3833036" y2="90.2269979" id="Shape"></line><line x1="0" y1="129.72482" x2="41.8623177" y2="87.916241" id="Shape"></line><line x1="1.55841747" y1="136.33466" x2="26.1706659" y2="111.668673" id="Shape"></line><line x1="29.7711476" y1="108.068191" x2="49.8693592" y2="88.0237181" id="Shape"></line><line x1="5.21263776" y1="140.687481" x2="23.2150465" y2="122.792549" id="Shape"></line><line x1="43.7969049" y1="102.210691" x2="56.4791988" y2="89.4209199" id="Shape"></line><line x1="11.6075233" y1="142.514591" x2="24.773464" y2="129.34865" id="Shape"></line><line x1="51.5352537" y1="102.533122" x2="62.2829605" y2="91.7854154" id="Shape"></line><line x1="57.607708" y1="104.682663" x2="67.4418597" y2="94.7410348" id="Shape"></line><line x1="62.5516531" y1="107.74576" x2="72.6007589" y2="97.6966541" id="Shape"></line><line x1="67.4418597" y1="110.970072" x2="77.6521811" y2="100.813489" id="Shape"></line><line x1="72.1708507" y1="114.409338" x2="82.4349106" y2="104.145278" id="Shape"></line><line x1="76.6848875" y1="117.956081" x2="87.0026859" y2="107.638283" id="Shape"></line><line x1="81.0377087" y1="121.66404" x2="91.3555072" y2="111.292503" id="Shape"></line><line x1="181.206335" y1="21.549152" x2="196.360602" y2="6.3948855" id="Shape"></line><line x1="85.2293143" y1="125.533215" x2="95.6545898" y2="115.215416" id="Shape"></line><line x1="176.63856" y1="34.2314459" x2="209.042896" y2="1.82711014" id="Shape"></line><line x1="89.3671814" y1="129.617343" x2="99.6312413" y2="119.299545" id="Shape"></line><line x1="176.047436" y1="42.9370884" x2="217.6948" y2="1.23598627" id="Shape"></line><line x1="93.1826173" y1="133.862687" x2="103.500416" y2="123.544889" id="Shape"></line><line x1="208.021864" y1="19.0234409" x2="227.045305" y2="0" id="Shape"></line><line x1="176.960991" y1="50.0843133" x2="193.888629" y2="33.1566752" id="Shape"></line><line x1="97.0517917" y1="138.108031" x2="107.423329" y2="127.736494" id="Shape"></line><line x1="216.136382" y1="19.0234409" x2="233.117759" y2="2.04206428" id="Shape"></line><line x1="178.895578" y1="56.2105062" x2="192.921336" y2="42.2384874" id="Shape"></line><line x1="101.243397" y1="141.977206" x2="111.829888" y2="131.444453" id="Shape"></line><line x1="220.113034" y1="23.161308" x2="237.309364" y2="5.9112387" id="Shape"></line><line x1="181.582505" y1="61.6918366" x2="194.533492" y2="48.6871115" id="Shape"></line><line x1="105.811173" y1="145.523949" x2="116.773834" y2="134.668765" id="Shape"></line><line x1="225.970534" y1="25.4183264" x2="239.781337" y2="11.6075233" id="Shape"></line><line x1="184.860556" y1="66.4745661" x2="197.596588" y2="53.7922722" id="Shape"></line><line x1="110.808856" y1="148.694523" x2="122.201425" y2="137.301953" id="Shape"></line><line x1="187.547482" y1="71.9558965" x2="201.089593" y2="58.413786" id="Shape"></line><line x1="116.075233" y1="151.488926" x2="128.220141" y2="139.344018" id="Shape"></line><line x1="189.643285" y1="77.9746123" x2="203.830258" y2="63.7876394" id="Shape"></line><line x1="121.878994" y1="153.853422" x2="134.991196" y2="140.794958" id="Shape"></line><line x1="190.986748" y1="84.691929" x2="206.141015" y2="69.5376625" id="Shape"></line><line x1="128.058926" y1="155.73427" x2="142.622068" y2="141.171128" id="Shape"></line><line x1="191.416657" y1="92.4302778" x2="208.021864" y2="75.7713324" id="Shape"></line><line x1="134.883719" y1="157.023995" x2="151.811357" y2="140.042619" id="Shape"></line><line x1="190.341886" y1="101.565829" x2="209.365327" y2="82.5423876" id="Shape"></line><line x1="142.407114" y1="157.615119" x2="164.439913" y2="135.636059" id="Shape"></line><line x1="185.827849" y1="114.140645" x2="209.956451" y2="90.0120438" id="Shape"></line><line x1="150.844064" y1="157.292688" x2="209.63402" y2="98.5564707" id="Shape"></line><line x1="160.785693" y1="155.465578" x2="207.753171" y2="108.390622" id="Shape"></line><line x1="173.844156" y1="150.467894" x2="202.809226" y2="121.556563" id="Shape"></line><line x1="12.8435095" y1="104.790141" x2="17.3038078" y2="100.276104" id="Shape"></line><line x1="19.3458721" y1="98.287778" x2="23.0000924" y2="94.5798192" id="Shape"></line><line x1="2.14954134" y1="123.598627" x2="7.14722497" y2="118.547205" id="Shape"></line><line x1="9.24302778" y1="116.505141" x2="14.2407114" y2="111.453719" id="Shape"></line><line x1="16.3365142" y1="109.411654" x2="21.3341978" y2="104.360232" id="Shape"></line><line x1="23.4300007" y1="102.318168" x2="28.4276843" y2="97.2667459" id="Shape"></line><line x1="30.5234871" y1="95.2246816" x2="35.5211707" y2="90.1732594" id="Shape"></line><line x1="0.429908269" y1="133.37904" x2="4.13786709" y2="129.671082" id="Shape"></line><line x1="6.17993137" y1="127.682756" x2="11.2313535" y2="122.577595" id="Shape"></line><line x1="13.2734178" y1="120.589269" x2="18.32484" y2="115.484109" id="Shape"></line><line x1="20.3669042" y1="113.495783" x2="25.4183264" y2="108.390622" id="Shape"></line><line x1="27.4603907" y1="106.402297" x2="32.5118128" y2="101.297136" id="Shape"></line><line x1="34.5538771" y1="99.3088101" x2="39.6052993" y2="94.2036494" id="Shape"></line><line x1="41.6473636" y1="92.2153237" x2="46.0539233" y2="87.7550254" id="Shape"></line><line x1="3.17057348" y1="138.752894" x2="8.16825711" y2="133.75521" id="Shape"></line><line x1="10.2103214" y1="131.766884" x2="15.2617435" y2="126.661724" id="Shape"></line><line x1="17.3038078" y1="124.673398" x2="21.549152" y2="120.374315" id="Shape"></line><line x1="38.6380057" y1="103.285462" x2="43.6356893" y2="98.287778" id="Shape"></line><line x1="45.6777536" y1="96.2994522" x2="50.7291757" y2="91.1942916" id="Shape"></line><line x1="52.77124" y1="89.5927713" x2="53.6030118" y2="88.6685805" id="Shape"></line><line x1="7.95330298" y1="142.084683" x2="12.2523857" y2="137.7856" id="Shape"></line><line x1="14.2407114" y1="135.743536" x2="19.3458721" y2="130.692114" id="Shape"></line><line x1="21.3341978" y1="128.650049" x2="24.2898172" y2="125.748169" id="Shape"></line><line x1="49.7081436" y1="100.276104" x2="54.8133043" y2="95.2246816" id="Shape"></line><line x1="56.80163" y1="93.1826173" x2="59.5422953" y2="90.5494291" id="Shape"></line><line x1="18.32484" y1="139.827664" x2="23.4300007" y2="134.776242" id="Shape"></line><line x1="54.7595658" y1="103.392939" x2="58.8974328" y2="99.3088101" id="Shape"></line><line x1="60.8857586" y1="97.2667459" x2="64.9161486" y2="93.1826173" id="Shape"></line><line x1="60.0796806" y1="106.133604" x2="62.9278229" y2="103.392939" id="Shape"></line><line x1="64.9161486" y1="101.297136" x2="70.0213093" y2="96.2994522" id="Shape"></line><line x1="65.0236257" y1="109.304177" x2="66.9582129" y2="107.36959" id="Shape"></line><line x1="69.0002772" y1="105.381264" x2="74.0516993" y2="100.276104" id="Shape"></line><line x1="69.7526166" y1="112.635966" x2="70.9886029" y2="111.453719" id="Shape"></line><line x1="73.0844057" y1="109.411654" x2="78.0820893" y2="104.360232" id="Shape"></line><line x1="74.4278691" y1="116.4083" x2="75.3520599" y2="115.484109" id="Shape"></line><line x1="77.1147957" y1="113.495783" x2="82.1662179" y2="108.390622" id="Shape"></line><line x1="84.2082822" y1="106.735364" x2="85.132473" y2="105.811173" id="Shape"></line><line x1="78.8881674" y1="120.030333" x2="79.2578437" y2="119.568237" id="Shape"></line><line x1="81.1451858" y1="117.579912" x2="86.1966079" y2="112.474751" id="Shape"></line><line x1="88.2386722" y1="110.486425" x2="89.2597043" y2="109.411654" id="Shape"></line><line x1="85.1755758" y1="121.556563" x2="90.2807365" y2="116.505141" id="Shape"></line><line x1="92.2690622" y1="114.463077" x2="93.5050485" y2="113.22709" id="Shape"></line><line x1="177.982023" y1="28.803854" x2="182.49606" y2="24.2898172" id="Shape"></line><line x1="184.484386" y1="22.2477529" x2="189.589547" y2="17.1963308" id="Shape"></line><line x1="191.577872" y1="15.1542665" x2="196.683033" y2="10.1028443" id="Shape"></line><line x1="198.671359" y1="8.06078004" x2="203.669042" y2="3.17057348" id="Shape"></line><line x1="89.2597043" y1="125.640692" x2="94.364865" y2="120.589269" id="Shape"></line><line x1="96.3531908" y1="118.547205" x2="97.6429156" y2="117.25748" id="Shape"></line><line x1="176.047436" y1="38.7992213" x2="179.486702" y2="35.4674322" id="Shape"></line><line x1="181.475028" y1="33.4253679" x2="186.580189" y2="28.3739458" id="Shape"></line><line x1="188.568514" y1="26.3318815" x2="193.673675" y2="21.2804593" id="Shape"></line><line x1="195.662001" y1="19.238395" x2="200.767162" y2="14.1869729" id="Shape"></line><line x1="202.755487" y1="12.1449086" x2="207.860648" y2="7.09348644" id="Shape"></line><line x1="209.848974" y1="5.05142216" x2="213.66441" y2="1.23598627" id="Shape"></line><line x1="93.2900944" y1="129.671082" x2="98.3952551" y2="124.673398" id="Shape"></line><line x1="100.383581" y1="122.577595" x2="101.565829" y2="121.449086" id="Shape"></line><line x1="176.369867" y1="46.6450472" x2="176.462286" y2="46.6450472" id="Shape"></line><line x1="178.411932" y1="44.5492444" x2="183.517092" y2="39.5515607" id="Shape"></line><line x1="185.505418" y1="37.4557579" x2="190.610579" y2="32.4580743" id="Shape"></line><line x1="192.598904" y1="30.3622715" x2="197.704065" y2="25.3645879" id="Shape"></line><line x1="199.692391" y1="23.2687851" x2="204.797552" y2="18.2711014" id="Shape"></line><line x1="206.785877" y1="16.1752986" x2="211.891038" y2="11.0701379" id="Shape"></line><line x1="213.879364" y1="9.08181218" x2="218.984524" y2="3.97665149" id="Shape"></line><line x1="220.97285" y1="1.98832574" x2="222.79996" y2="0.214954134" id="Shape"></line><line x1="95.063466" y1="136.29805" x2="95.5255614" y2="135.743536" id="Shape"></line><line x1="97.3742229" y1="133.75521" x2="102.425645" y2="128.650049" id="Shape"></line><line x1="104.467709" y1="126.672359" x2="105.3919" y2="125.748169" id="Shape"></line><line x1="213.127024" y1="17.9486702" x2="215.921428" y2="15.1542665" id="Shape"></line><line x1="217.963492" y1="13.1659407" x2="223.014915" y2="8.06078004" id="Shape"></line><line x1="225.056979" y1="6.0724543" x2="230.108401" y2="0.967293605" id="Shape"></line><line x1="177.874546" y1="53.2548868" x2="180.453996" y2="50.6216987" id="Shape"></line><line x1="182.49606" y1="48.6333729" x2="187.547482" y2="43.5282122" id="Shape"></line><line x1="189.589547" y1="41.5398865" x2="192.867597" y2="38.2618359" id="Shape"></line><line x1="99.093856" y1="140.382179" x2="99.5559514" y2="139.827664" id="Shape"></line><line x1="101.458351" y1="137.7856" x2="106.456035" y2="132.734178" id="Shape"></line><line x1="108.551838" y1="130.692114" x2="109.57287" y2="129.617343" id="Shape"></line><line x1="217.909754" y1="21.2804593" x2="219.951818" y2="19.238395" id="Shape"></line><line x1="222.047621" y1="17.1963308" x2="227.045305" y2="12.1449086" id="Shape"></line><line x1="229.141107" y1="10.1028443" x2="234.138791" y2="5.05142216" id="Shape"></line><line x1="180.185303" y1="59.0586484" x2="184.484386" y2="54.7058272" id="Shape"></line><line x1="186.580189" y1="52.6637629" x2="191.577872" y2="47.6123408" id="Shape"></line><line x1="105.488741" y1="141.869729" x2="110.540164" y2="136.764568" id="Shape"></line><line x1="112.582228" y1="134.776242" x2="114.248122" y2="133.110348" id="Shape"></line><line x1="222.746222" y1="24.5585099" x2="224.035947" y2="23.2687851" id="Shape"></line><line x1="226.078011" y1="21.2804593" x2="231.129433" y2="16.1752986" id="Shape"></line><line x1="233.171497" y1="14.1869729" x2="238.22292" y2="9.08181218" id="Shape"></line><line x1="183.517092" y1="63.8413779" x2="188.568514" y2="58.7362172" id="Shape"></line><line x1="190.610579" y1="56.7478915" x2="195.662001" y2="51.6427308" id="Shape"></line><line x1="109.519132" y1="145.953857" x2="114.570554" y2="140.848697" id="Shape"></line><line x1="116.612618" y1="138.860371" x2="119.407022" y2="136.012229" id="Shape"></line><line x1="230.108401" y1="25.3645879" x2="235.159823" y2="20.2594272" id="Shape"></line><line x1="237.201887" y1="18.2711014" x2="239.942553" y2="15.4766977" id="Shape"></line><line x1="187.547482" y1="67.9255065" x2="192.598904" y2="62.8203458" id="Shape"></line><line x1="194.640969" y1="60.8320201" x2="199.531175" y2="55.888075" id="Shape"></line><line x1="113.549522" y1="149.930509" x2="118.654682" y2="144.879087" id="Shape"></line><line x1="120.643008" y1="142.837022" x2="125.103306" y2="138.376724" id="Shape"></line><line x1="188.675992" y1="74.8684131" x2="189.600182" y2="73.9442223" id="Shape"></line><line x1="191.577872" y1="71.902158" x2="196.683033" y2="66.8507358" id="Shape"></line><line x1="198.671359" y1="64.8086715" x2="202.486795" y2="60.9932357" id="Shape"></line><line x1="118.923375" y1="152.724913" x2="122.738811" y2="148.963215" id="Shape"></line><line x1="124.727137" y1="146.921151" x2="129.832297" y2="141.869729" id="Shape"></line><line x1="190.449363" y1="81.2526628" x2="193.673675" y2="78.0283508" id="Shape"></line><line x1="195.662001" y1="75.9862865" x2="200.767162" y2="70.9348644" id="Shape"></line><line x1="202.755487" y1="68.8928001" x2="205.066244" y2="66.5283046" id="Shape"></line><line x1="124.888352" y1="154.820715" x2="126.769201" y2="153.047344" id="Shape"></line><line x1="128.757527" y1="150.951541" x2="133.862687" y2="145.953857" id="Shape"></line><line x1="135.851013" y1="143.858054" x2="138.645417" y2="141.117389" id="Shape"></line><line x1="192.598904" y1="87.110163" x2="197.704065" y2="82.1124794" id="Shape"></line><line x1="199.692391" y1="80.0166766" x2="204.797552" y2="75.0189929" id="Shape"></line><line x1="206.785877" y1="73.193954" x2="207.52523" y2="72.5470204" id="Shape"></line><line x1="132.841655" y1="155.035669" x2="137.893077" y2="149.930509" id="Shape"></line><line x1="139.935142" y1="147.942183" x2="144.986564" y2="142.837022" id="Shape"></line><line x1="191.147964" y1="96.7293605" x2="194.640969" y2="93.1826173" id="Shape"></line><line x1="196.683033" y1="91.1942916" x2="201.734455" y2="86.0891309" id="Shape"></line><line x1="203.776519" y1="84.1008051" x2="208.827942" y2="79.049383" id="Shape"></line><line x1="138.53794" y1="157.400165" x2="141.923467" y2="154.014637" id="Shape"></line><line x1="144.01927" y1="151.972573" x2="149.016954" y2="146.921151" id="Shape"></line><line x1="151.112757" y1="144.879087" x2="156.11044" y2="139.827664" id="Shape"></line><line x1="188.837207" y1="107.100898" x2="191.577872" y2="104.360232" id="Shape"></line><line x1="193.673675" y1="102.318168" x2="198.671359" y2="97.2667459" id="Shape"></line><line x1="200.767162" y1="95.2246816" x2="205.764845" y2="90.1732594" id="Shape"></line><line x1="207.860648" y1="88.1311951" x2="209.795235" y2="86.1966079" id="Shape"></line><line x1="148.04966" y1="156.056702" x2="153.101082" y2="150.951541" id="Shape"></line><line x1="155.143147" y1="148.963215" x2="160.194569" y2="143.858054" id="Shape"></line><line x1="162.236633" y1="141.869729" x2="167.288055" y2="136.764568" id="Shape"></line><line x1="169.330119" y1="134.776242" x2="174.381542" y2="129.671082" id="Shape"></line><line x1="176.423606" y1="127.682756" x2="181.475028" y2="122.577595" id="Shape"></line><line x1="183.517092" y1="120.589269" x2="188.568514" y2="115.484109" id="Shape"></line><line x1="190.610579" y1="113.495783" x2="195.662001" y2="108.390622" id="Shape"></line><line x1="197.704065" y1="106.402297" x2="202.755487" y2="101.297136" id="Shape"></line><line x1="204.797552" y1="99.3088101" x2="209.848974" y2="94.2036494" id="Shape"></line><line x1="155.519316" y1="156.647826" x2="157.131472" y2="155.035669" id="Shape"></line><line x1="159.173537" y1="153.047344" x2="164.224959" y2="147.942183" id="Shape"></line><line x1="166.267023" y1="145.953857" x2="171.318445" y2="140.848697" id="Shape"></line><line x1="173.360509" y1="138.860371" x2="178.411932" y2="133.75521" id="Shape"></line><line x1="180.453996" y1="131.766884" x2="185.505418" y2="126.661724" id="Shape"></line><line x1="187.547482" y1="124.673398" x2="192.598904" y2="119.568237" id="Shape"></line><line x1="194.640969" y1="117.579912" x2="199.692391" y2="112.474751" id="Shape"></line><line x1="201.734455" y1="110.486425" x2="206.785877" y2="105.381264" id="Shape"></line><line x1="208.827942" y1="103.50898" x2="209.01278" y2="103.231723" id="Shape"></line><line x1="166.696931" y1="153.584729" x2="168.309087" y2="151.972573" id="Shape"></line><line x1="170.297413" y1="149.930509" x2="175.402574" y2="144.879087" id="Shape"></line><line x1="177.390899" y1="142.837022" x2="182.49606" y2="137.7856" id="Shape"></line><line x1="184.484386" y1="135.743536" x2="189.589547" y2="130.692114" id="Shape"></line><line x1="191.577872" y1="128.650049" x2="196.683033" y2="123.598627" id="Shape"></line><line x1="198.671359" y1="121.556563" x2="203.776519" y2="116.505141" id="Shape"></line><line x1="205.764845" y1="114.540438" x2="206.042102" y2="114.3556" id="Shape"></line><line x1="185.397941" y1="143.051976" x2="186.580189" y2="141.869729" id="Shape"></line><line x1="188.568514" y1="139.827664" x2="193.673675" y2="134.776242" id="Shape"></line></g><g id="Yamuna-Countr" transform="translate(0.052706, 0.000000)" stroke="#545454"><path d="M215.492553,17.9157239 C206.365383,17.7036065 198.043883,23.115657 194.536707,31.5447694 C191.02953,39.9738819 193.055907,49.6914661 199.639685,56.0163442" id="Shape"></path><path d="M219.361727,1.36425554 C203.427791,0.0196272396 188.221923,8.2855516 180.685428,22.3887282 C173.148934,36.4919049 174.727438,53.7271088 184.700373,66.2266656" id="Shape"></path><path d="M56.3727546,103.951116 C49.5901516,101.226938 41.9814095,101.438318 35.3605128,104.53486 C28.7396161,107.631403 23.6998402,113.335638 21.4427078,120.28763" id="Shape"></path><path d="M67.2816769,94.6543499 C56.6041448,87.2902561 42.9708875,85.6971001 30.8831264,90.4008861 C18.7953653,95.104672 9.82484059,105.493779 6.93330368,118.138089" id="Shape"></path><path d="M91.8401868,132.217585 C113.438115,160.314329 153.361587,166.357146 182.307021,145.910646 C211.252455,125.464145 218.901447,85.8170496 199.639685,56.0700828" id="Shape"></path><path d="M104.844912,125.231576 C122.173716,143.770557 150.645441,146.379692 171.055131,131.299046 C191.464821,116.2184 197.332549,88.2359691 184.700373,66.2266656" id="Shape"></path><path d="M91.7864483,132.217585 C81.4673941,121.071515 69.5290325,111.542565 56.3727546,103.951116" id="Shape"></path><path d="M104.89865,125.177837 C94.4057555,112.541356 81.510423,102.111845 66.9592457,94.4931343" id="Shape"></path><path d="M215.492553,17.8619854 C217.572961,22.064385 221.643567,24.9240988 226.30244,25.4562311 C230.961313,25.9883635 235.571932,24.1202115 238.546384,20.4951735" id="Shape"></path><path d="M238.600122,20.548912 C241.161872,15.0372357 240.002349,8.51181376 235.698602,4.22008886 C231.394856,-0.0716360368 224.866216,-1.21290122 219.361727,1.36425554" id="Shape"></path><path d="M6.98704221,118.138089 C2.74373418,120.485387 0.0794114614,124.922426 0.00174424844,129.771079 C-0.0759229645,134.619732 2.44492161,139.139829 6.61087248,141.621828" id="Shape"></path><path d="M6.61087248,141.675567 C12.3622837,143.809914 18.8289813,141.77717 22.3248471,136.73603 C25.820713,131.69489 25.4576903,124.925958 21.4427078,120.28763" id="Shape"></path></g></g></g></g></svg> 