<?xml version="1.0" encoding="UTF-8"?> <svg xmlns="http://www.w3.org/2000/svg" xmlns:xlink="http://www.w3.org/1999/xlink" width="185px" height="44px" viewBox="0 0 185 44"> <title>dhama</title> <g id="Page-1" stroke="none" stroke-width="1" fill="none" fill-rule="evenodd"> <g id="Artboard-Copy-35" transform="translate(-448.000000, -1399.000000)" fill="#919195" fill-rule="nonzero"> <path d="M488.688328,1442.70322 C490.372994,1442.70322 492.057659,1442.19782 492.899992,1441.52395 C495.820079,1439.22158 497.167812,1435.85224 497.897834,1434.50451 C498.117464,1434.0927 498.605532,1433.06349 499.07988,1431.97463 L499.208695,1431.6766 C499.656874,1430.63128 500.069181,1429.5778 500.20021,1429.00127 C500.256366,1428.66434 500.144055,1428.55203 499.807121,1428.49587 C499.414033,1428.3274 499.245566,1428.66434 499.020944,1429.11358 C498.872236,1429.46507 498.743055,1429.771 498.61068,1430.07446 L498.549274,1430.2145 C498.147587,1431.12565 497.685691,1432.07423 496.550101,1434.22373 C495.876235,1435.34684 494.135414,1438.60386 491.889193,1439.78313 C491.04686,1440.23238 489.811438,1440.00775 489.306039,1439.10926 C488.632172,1437.98615 488.969106,1432.25829 489.306039,1430.40516 C489.642972,1428.55203 490.990704,1426.69889 490.990704,1426.69889 C492.70729,1423.75989 493.52041,1422.48327 494.200006,1421.2566 L494.291923,1421.08949 C495.037001,1419.72478 495.659888,1418.33113 497.223967,1414.68161 C498.178611,1411.76152 499.807121,1405.92135 500.368677,1403.16973 C500.930232,1400.36195 499.863277,1398.62113 497.560901,1399.07038 C495.595457,1399.46347 494.360036,1400.64273 493.236925,1402.10277 C490.709927,1405.19133 489.530661,1408.95375 488.351395,1412.21077 C487.677528,1414.12006 486.835196,1417.32092 486.385951,1419.51099 L486.161329,1420.91488 C485.543619,1419.96023 484.476664,1419.56714 483.409709,1419.56714 C481.219643,1419.1179 478.074934,1419.17405 475.828713,1419.6233 C470.943183,1420.57794 465.159164,1423.89112 459.880545,1425.46347 C457.578168,1426.13734 455.781191,1426.47427 453.815748,1425.46347 C451.850305,1424.45267 451.064127,1421.75721 450.558728,1420.24101 C450.446417,1419.79176 449.604084,1419.06174 448.817907,1419.23021 C448.087885,1419.39868 447.919418,1420.74641 448.031729,1421.47643 C448.14404,1422.54339 449.210995,1425.35116 452.243393,1427.14814 C454.04037,1428.21509 456.623524,1427.76585 460.273633,1426.64274 C463.811431,1425.51963 467.96694,1423.38572 474.144047,1421.25181 C475.99718,1420.6341 478.411867,1420.24101 480.208844,1420.40948 C477.058519,1422.17557 475.977385,1424.30681 474.99971,1426.32039 L474.885048,1426.55671 L474.885048,1426.55671 L474.77063,1426.79177 C474.675185,1426.98708 474.579253,1427.1809 474.480981,1427.37276 C472.964781,1430.349 471.841671,1433.3814 471.841671,1436.13302 C471.841671,1438.99695 472.010138,1439.72698 473.694803,1441.07471 C474.649447,1441.80473 477.12029,1441.80473 478.524178,1440.68162 C480.264999,1439.33389 482.51122,1436.58227 483.578175,1434.84144 C483.746642,1434.61682 483.971264,1434.61682 484.139731,1434.72913 L484.588975,1438.9408 C485.094374,1441.07471 487.003662,1442.70322 488.688328,1442.70322 Z M489.923749,1424.95807 C489.294808,1424.6436 489.904095,1420.50438 490.692238,1416.43119 L490.760206,1416.08232 C491.079205,1414.45582 491.421979,1412.85768 491.720726,1411.5369 C492.619215,1407.38139 494.472347,1401.37275 497.336278,1400.75504 C499.020944,1400.36195 499.357877,1401.59738 498.796322,1404.06822 C496.550101,1414.34468 494.977746,1416.5909 491.833037,1422.71185 C491.439949,1423.38572 490.934549,1424.11574 490.485305,1424.84576 C490.260683,1425.12654 490.03606,1425.12654 489.923749,1424.95807 Z M476.671046,1438.9408 C475.660247,1438.15462 475.884869,1436.46996 476.277957,1434.22373 C476.839513,1430.8544 477.850312,1427.70969 479.366511,1424.50883 C480.321155,1422.54339 483.465864,1419.23021 485.712085,1422.37492 L485.15053,1429.45051 C485.15053,1430.46131 481.331954,1436.4138 479.7596,1437.70538 C479.670687,1437.77557 479.580604,1437.84811 479.489709,1437.92165 L479.352801,1438.03255 L479.352801,1438.03255 L479.214943,1438.14396 C478.293317,1438.8862 477.326194,1439.59595 476.671046,1438.9408 Z M517.776889,1438.49155 C518.832743,1436.89177 519.997978,1434.21642 520.836344,1432.1274 L520.937337,1431.87464 C521.516592,1430.41865 521.919991,1429.29641 521.988553,1429.11358 C522.15702,1428.60818 522.437797,1428.04663 522.493953,1427.42892 C522.493953,1427.20429 522.325486,1426.97967 522.100864,1426.97967 C521.932398,1426.92352 521.876242,1426.92352 521.763931,1426.97967 C521.426998,1427.3166 521.202376,1427.70969 521.090065,1428.21509 C520.135421,1431.52827 516.709934,1439.89544 514.014469,1441.01855 C513.62138,1441.18702 513.059825,1441.01855 512.835203,1440.51315 C512.161337,1438.99695 513.172136,1433.54987 513.846002,1430.74209 C514.519869,1428.04663 514.295246,1423.94727 512.385959,1423.04879 C511.48747,1422.59954 510.139738,1422.71185 509.241249,1423.38572 C507.72505,1424.78961 506.321162,1426.36196 505.422674,1428.27125 C505.141896,1428.72049 504.187252,1430.349 503.850319,1430.68594 C503.513386,1431.02287 502.951831,1431.07902 502.951831,1430.51747 C502.951831,1429.39436 502.951831,1428.3274 503.007986,1427.20429 C503.906475,1424.11574 505.647296,1422.20645 506.770406,1420.6341 C512.722892,1412.0423 515.586823,1403.73129 512.329803,1400.47426 C511.431315,1399.46347 509.802805,1399.63193 507.893517,1401.26044 C505.59114,1403.3382 503.45723,1408.84144 502.221809,1412.49155 C501.323321,1415.91703 500.70561,1420.01639 499.807121,1424.62114 C499.020944,1428.55203 498.515544,1433.66218 498.122456,1437.31229 C497.953989,1438.99695 497.729367,1440.51315 498.178611,1441.63626 C498.403233,1442.19782 499.0771,1442.81553 499.750966,1442.81553 C500.20021,1442.81553 501.154854,1442.64706 501.435632,1441.74857 C503.45723,1435.62762 504.018786,1432.70754 506.60194,1428.66434 C507.500428,1427.20429 508.005828,1426.36196 508.904316,1425.40732 C509.578182,1424.84576 510.420515,1424.90192 510.925915,1425.63194 C511.712092,1427.20429 510.532826,1430.91056 510.195893,1432.65138 C509.634338,1435.51531 509.35356,1437.14382 509.297405,1438.82849 C509.241249,1441.13086 509.915116,1442.70322 511.375159,1442.92784 C514.12678,1443.32093 515.474512,1441.91704 517.776889,1438.49155 Z M503.738008,1422.6557 C503.401075,1422.54339 503.401075,1420.91488 503.96263,1418.16325 C505.029585,1412.99695 506.489629,1407.83064 507.893517,1404.40515 C508.455072,1403.11357 509.690494,1401.3166 510.86976,1401.20429 C511.375159,1401.14813 511.655937,1401.59738 511.880559,1402.72049 C512.385959,1405.13517 511.655937,1410.07686 509.35356,1414.0639 C509.263395,1414.18412 508.368939,1415.67164 507.410594,1417.26949 L507.258853,1417.52251 L507.258853,1417.52251 L507.030667,1417.90308 C506.321574,1419.0858 505.630686,1420.23864 505.254207,1420.85872 C504.804963,1421.53259 504.018786,1422.76801 503.738008,1422.6557 Z M524.90864,1442.59091 C527.939685,1442.02259 529.692579,1438.29883 531.177908,1434.88932 L531.30459,1434.59792 C531.535726,1434.06541 531.760967,1433.5431 531.984236,1433.04447 C532.040392,1432.93216 532.321169,1432.42676 532.770414,1432.42676 C532.93888,1432.42676 533.107347,1432.59522 533.107347,1432.876 C533.163502,1433.83065 533.107347,1434.78529 533.107347,1435.73993 C533.107347,1436.4138 533.163502,1437.14382 533.219658,1437.87384 C533.331969,1439.33389 534.005835,1441.35549 535.465879,1441.9732 C537.992877,1443.04015 541.137586,1442.19782 543.552274,1438.49155 C544.608128,1436.89177 545.773363,1434.21642 546.611729,1432.1274 L546.712723,1431.87464 C547.291977,1430.41865 547.695376,1429.29641 547.763938,1429.11358 C547.932405,1428.60818 548.213182,1428.04663 548.269338,1427.42892 C548.269338,1427.20429 548.100871,1426.97967 547.876249,1426.97967 C547.707783,1426.92352 547.651627,1426.92352 547.539316,1426.97967 C547.202383,1427.3166 546.977761,1427.70969 546.86545,1428.21509 C545.742339,1432.20214 541.586831,1440.51315 538.554432,1439.67082 C537.992877,1439.50235 537.543633,1438.99695 537.543633,1438.15462 C537.543633,1435.62762 537.543633,1433.15678 537.599789,1430.68594 C537.599789,1428.43972 537.599789,1426.19349 537.431322,1423.94727 C537.431322,1423.44187 537.2067,1423.04879 536.982078,1422.59954 C536.588989,1422.09414 535.915123,1422.1503 535.465879,1422.59954 C534.816079,1423.20602 534.73439,1423.84592 534.602096,1424.90593 L534.571613,1425.14856 C534.539794,1425.39842 534.503213,1425.67045 534.455079,1425.96887 C534.230457,1426.41812 534.061991,1426.86736 533.837368,1427.26045 C533.219658,1428.49587 532.545791,1429.78745 531.81577,1431.02287 C529.850326,1434.67298 528.614905,1437.76153 526.424839,1439.4462 C525.694818,1440.00775 524.29093,1439.83929 524.066307,1438.66002 C523.223975,1434.67298 523.78553,1427.87816 526.761773,1423.55418 C528.446438,1421.1395 530.29957,1420.24101 532.040392,1420.80256 C532.560068,1420.90155 532.447241,1421.64395 532.278594,1422.44345 L532.238947,1422.6287 C532.232261,1422.65966 532.225559,1422.69063 532.218872,1422.72159 L532.179205,1422.90688 C531.997432,1423.76819 531.879539,1424.56498 532.545791,1424.56498 C532.770414,1424.56498 532.93888,1424.56498 533.275813,1424.22805 C533.837368,1423.27341 533.94968,1422.6557 533.94968,1421.58874 C533.94968,1420.40948 533.275813,1419.39868 532.152703,1419.28637 C529.120305,1418.83712 525.582507,1421.08334 523.673219,1423.72265 C519.686177,1429.16974 518.675377,1436.07687 520.303887,1440.23238 C521.14622,1441.80473 523.111664,1442.92784 524.90864,1442.59091 Z M547.763938,1442.53475 C548.100871,1442.4786 548.437804,1442.31013 548.718582,1442.08551 C549.111671,1441.63626 549.504759,1441.18702 549.673226,1440.62546 L551.301736,1433.04447 C551.470203,1432.08982 551.975602,1431.3598 552.481002,1430.51747 C552.930246,1429.78745 556.411889,1424.28421 558.321177,1423.38572 C559.27582,1422.93647 559.668909,1423.32956 559.444287,1423.77881 C559.331976,1424.45267 559.107354,1425.12654 558.995043,1425.85656 C558.321177,1430.23669 556.973444,1436.4138 557.198066,1440.40084 C557.198066,1440.90624 557.534999,1441.74857 558.377332,1441.9732 C558.882732,1442.08551 560.567397,1442.08551 560.904331,1441.41164 C561.241264,1440.9624 561.634352,1440.28853 561.690508,1439.67082 C562.083597,1437.08767 562.308219,1433.8868 563.206707,1431.69674 C563.487485,1431.07902 563.936729,1430.01207 564.329817,1429.50667 C564.785668,1428.91208 565.51433,1427.8768 566.328168,1426.81806 L566.492015,1426.60613 C567.948386,1424.73344 569.63156,1422.87437 570.506925,1423.32956 C571.012325,1423.61034 570.675392,1425.29501 570.226147,1426.69889 C569.987486,1427.38504 569.764674,1428.51495 569.56613,1429.68449 L569.497077,1430.09825 C569.349704,1430.99545 569.217103,1431.88802 569.103037,1432.59522 C568.709948,1435.06607 568.373015,1437.81769 568.766104,1439.39004 C569.103037,1440.68162 570.956169,1442.19782 572.865457,1442.19782 C573.427012,1442.19782 573.820101,1442.14166 574.21319,1442.08551 C576.347099,1441.86089 578.087921,1438.54771 579.772586,1434.78529 C579.941053,1434.42028 580.516647,1433.08658 581.092241,1431.73885 L581.219985,1431.43951 C581.750875,1430.19454 582.255908,1428.99815 582.411896,1428.60818 C582.524207,1428.38356 582.411896,1428.27125 582.411896,1428.04663 C582.411896,1427.93432 582.411896,1427.822 582.299585,1427.76585 C582.074963,1427.48507 581.73803,1427.48507 581.569563,1427.76585 C581.064163,1428.72049 579.772586,1431.97751 579.323342,1432.93216 C579.073882,1433.46671 578.804319,1434.02137 578.527942,1434.57169 L578.376595,1434.87128 C577.389486,1436.81391 576.347099,1438.64598 575.8417,1439.27773 C574.437812,1440.9624 573.370857,1440.23238 573.370857,1437.98615 C573.427012,1436.35764 573.427012,1434.72913 573.539323,1433.04447 C573.539323,1431.58442 574.493967,1425.40732 574.100879,1423.6665 C573.483168,1421.42027 571.517724,1420.69025 570.001525,1421.42027 C568.653793,1422.09414 566.800661,1423.94727 565.902172,1425.23885 C565.396772,1425.91272 564.947528,1426.69889 564.385973,1427.3166 C564.04904,1427.65354 563.262863,1428.43972 562.982085,1427.93432 C562.701307,1427.37276 563.094396,1425.96887 563.206707,1425.40732 C563.599796,1423.1611 563.319018,1421.47643 561.241264,1420.69025 C560.511242,1420.35332 558.938887,1420.74641 557.534999,1421.92567 C556.243422,1422.99263 554.89569,1424.56498 553.211024,1427.03583 C552.031758,1428.43972 551.75098,1428.38356 551.470203,1427.59738 C551.414047,1426.86736 551.301736,1426.19349 551.301736,1425.46347 C551.301736,1424.39652 551.582514,1420.29716 550.796336,1419.73561 C550.571714,1419.56714 549.897848,1419.39868 549.673226,1419.51099 C548.830893,1419.96023 548.044716,1420.74641 547.763938,1421.70105 C547.427005,1422.76801 546.416206,1430.23669 546.36005,1430.74209 C545.966961,1434.3922 545.23694,1436.52611 545.742339,1440.9624 C545.798495,1441.41164 546.023117,1441.86089 546.416206,1442.14166 C546.809294,1442.42244 547.258538,1442.59091 547.763938,1442.53475 Z M600.943219,1442.984 C603.526373,1442.87168 606.053371,1442.02935 608.748836,1440.9624 C612.848189,1439.33389 613.634367,1438.88464 617.059854,1437.08767 L618.23912,1436.35764 C622.113851,1433.99911 622.506939,1433.32525 626.38167,1432.14598 C628.066336,1431.64058 629.863313,1432.53907 630.031779,1433.54987 C630.144091,1434.33605 629.919468,1435.17838 630.200246,1436.02071 C630.368713,1436.58227 630.761801,1436.97535 631.435668,1437.03151 C631.828756,1437.08767 632.334156,1436.80689 632.614934,1436.4138 C633.064178,1435.68378 633.120333,1434.84144 632.7834,1434.05527 C632.614934,1433.60602 632.390311,1433.21293 632.109534,1432.81985 C630.874112,1431.02287 628.796358,1430.40516 626.269359,1430.91056 C624.13545,1431.3598 623.12465,1432.14598 620.316874,1433.83065 C617.059854,1435.79609 615.655966,1436.69458 612.623567,1438.09847 C607.962659,1440.28853 602.852506,1441.41164 600.774752,1441.41164 C598.079287,1441.41164 598.191598,1438.99695 598.023131,1438.15462 C597.573887,1435.62762 597.798509,1433.15678 597.854665,1430.68594 C597.854665,1428.43972 597.854665,1426.19349 597.686198,1423.94727 C597.686198,1423.44187 597.461576,1423.04879 597.236954,1422.59954 C596.843865,1422.09414 596.169999,1422.1503 595.720755,1422.59954 C595.070955,1423.20602 594.989266,1423.84592 594.856972,1424.90593 L594.826489,1425.14856 C594.79467,1425.39842 594.758089,1425.67045 594.709955,1425.96887 C594.485333,1426.41812 594.316867,1426.86736 594.092245,1427.26045 C593.474534,1428.49587 592.800668,1429.78745 592.070646,1431.02287 C590.105203,1434.67298 588.869781,1437.76153 586.679716,1439.4462 C585.949694,1440.00775 584.545806,1439.83929 584.321184,1438.66002 C583.478851,1434.67298 584.040406,1427.87816 587.016649,1423.55418 C588.701315,1421.1395 590.554447,1420.24101 592.295268,1420.80256 C592.814945,1420.90155 592.702117,1421.64395 592.53347,1422.44345 L592.493823,1422.6287 C592.487137,1422.65966 592.480435,1422.69063 592.473748,1422.72159 L592.434082,1422.90688 C592.252308,1423.76819 592.134416,1424.56498 592.800668,1424.56498 C593.02529,1424.56498 593.193756,1424.56498 593.530689,1424.22805 C594.092245,1423.27341 594.204556,1422.6557 594.204556,1421.58874 C594.204556,1420.40948 593.530689,1419.39868 592.407579,1419.28637 C589.375181,1418.83712 585.837383,1421.08334 583.928095,1423.72265 C579.941053,1429.16974 578.930253,1436.07687 580.558764,1440.23238 C581.401097,1441.80473 583.36654,1442.92784 585.163517,1442.59091 C588.194562,1442.02259 589.947455,1438.29883 591.432784,1434.88932 L591.559466,1434.59792 C591.790602,1434.06541 592.015844,1433.5431 592.239112,1433.04447 C592.295268,1432.93216 592.576046,1432.42676 593.02529,1432.42676 C593.193756,1432.42676 593.362223,1432.59522 593.362223,1432.876 C593.418378,1433.83065 593.362223,1434.78529 593.362223,1435.73993 C593.362223,1436.4138 593.418378,1437.14382 593.474534,1437.87384 C593.586845,1439.33389 594.260711,1441.35549 595.720755,1441.9732 C597.517732,1443.04015 599.53933,1443.04015 600.943219,1442.984 Z" id="dhama"></path> </g> </g> </svg> 