<?xml version="1.0" encoding="UTF-8"?> <svg xmlns="http://www.w3.org/2000/svg" xmlns:xlink="http://www.w3.org/1999/xlink" width="110px" height="165px" viewBox="0 0 110 165" version="1.1"><title>Artboard</title><g id="Artboard" stroke="none" stroke-width="1" fill="none" fill-rule="evenodd"><g id="Group-11" transform="translate(-15.000000, -16.000000)"><g id="Group-5" transform="translate(61.492900, 58.790187) scale(-1, -1) rotate(50.000000) translate(-61.492900, -58.790187) translate(29.767707, 5.137505)" stroke-linecap="round" stroke-linejoin="round"><g id="Radha-Kunda-Water" transform="translate(0.001016, 0.276863)" stroke="#2A96FB" stroke-width="0.73"><line x1="15.4775617" y1="21.2156431" x2="34.5073507" y2="2.12156431" id="Shape"></line><polyline id="Shape" points="2.45272836 47.1835903 36.7063486 12.6445233 40.7660369 8.57111983"></polyline><polyline id="Shape" points="0 62.4588534 45.6714936 16.6330642 46.4326852 15.6995759"></polyline><line x1="1.2686526" y1="73.8304381" x2="51.4227187" y2="23.5069326" id="Shape"></line><line x1="4.56714936" y1="83.4199088" x2="56.4127523" y2="31.3991518" id="Shape"></line><line x1="9.3034524" y1="91.4818532" x2="60.3032869" y2="40.2248594" id="Shape"></line><line x1="15.2238312" y1="98.270859" x2="62.6714384" y2="50.5780932" id="Shape"></line><line x1="22.4128626" y1="103.956651" x2="63.0943226" y2="63.0528914" id="Shape"></line><line x1="32.223776" y1="106.841979" x2="59.5420954" y2="79.4313679" id="Shape"></line><line x1="18.0148669" y1="12.305073" x2="20.7213258" y2="9.5894707" id="Shape"></line><line x1="23.8506689" y1="6.44955551" x2="30.3630856" y2="0" id="Shape"></line><line x1="8.54226084" y1="34.6239296" x2="15.9004459" y2="27.1560232" id="Shape"></line><line x1="19.029789" y1="24.016108" x2="27.0645888" y2="15.9541636" id="Shape"></line><polyline id="Shape" points="30.1939319 12.8142485 30.5322392 12.5596607 37.7212706 5.2614795"></polyline><line x1="3.12934308" y1="52.8693827" x2="11.079566" y2="44.8074383" id="Shape"></line><line x1="14.293486" y1="41.6675231" x2="22.2437089" y2="33.6055787" id="Shape"></line><line x1="25.4576288" y1="30.4656635" x2="33.4078518" y2="22.4037192" id="Shape"></line><polyline id="Shape" points="36.6217717 19.263804 41.6118053 14.1720496 43.7262263 12.0504853"></polyline><line x1="0.25373052" y1="68.3992335" x2="6.25868616" y2="62.4588534" id="Shape"></line><line x1="9.55718292" y1="59.2340756" x2="17.422829" y2="51.2569938" id="Shape"></line><line x1="20.7213258" y1="48.0322161" x2="28.5869719" y2="40.0551342" id="Shape"></line><line x1="31.8854687" y1="36.8303565" x2="39.7511148" y2="28.8532747" id="Shape"></line><polyline id="Shape" points="43.0496116 25.6284969 48.8854135 19.6881168 49.139144 19.5183917"></polyline><line x1="4.73630304" y1="76.8854907" x2="12.686526" y2="68.8235463" id="Shape"></line><line x1="15.9004459" y1="65.5987686" x2="23.8506689" y2="57.6216868" id="Shape"></line><line x1="27.0645888" y1="54.396909" x2="35.0148118" y2="46.4198272" id="Shape"></line><line x1="38.2287317" y1="43.1950494" x2="46.1789546" y2="35.2179676" id="Shape"></line><line x1="49.3928746" y1="31.9931899" x2="54.0446008" y2="27.3257484" id="Shape"></line><line x1="6.7661472" y1="87.9344209" x2="8.22069265" y2="86.4749614" id="Shape"></line><line x1="11.079566" y1="83.1653211" x2="19.029789" y2="75.2731019" id="Shape"></line><line x1="22.2437089" y1="71.9634615" x2="30.1939319" y2="64.0712423" id="Shape"></line><line x1="33.4078518" y1="60.7616019" x2="41.3580748" y2="52.8693827" id="Shape"></line><line x1="44.5719947" y1="49.5597424" x2="52.5222176" y2="41.6675231" id="Shape"></line><line x1="55.7361376" y1="38.3578828" x2="58.5271733" y2="35.6422805" id="Shape"></line><line x1="12.179065" y1="95.0460813" x2="14.293486" y2="92.8396544" id="Shape"></line><line x1="17.422829" y1="89.6148766" x2="25.4576288" y2="81.6377948" id="Shape"></line><line x1="28.5869719" y1="78.413017" x2="36.6217717" y2="70.4359352" id="Shape"></line><line x1="39.7511148" y1="67.2111575" x2="47.7859146" y2="59.2340756" id="Shape"></line><line x1="50.9152577" y1="56.0092979" x2="58.9500575" y2="48.0322161" id="Shape"></line><line x1="18.6914816" y1="101.241049" x2="20.7213258" y2="99.2892099" id="Shape"></line><line x1="23.8506689" y1="96.0644321" x2="31.8854687" y2="88.0873503" id="Shape"></line><line x1="35.0148118" y1="84.8625726" x2="43.0496116" y2="76.8854907" id="Shape"></line><line x1="46.1789546" y1="73.660713" x2="54.2137544" y2="65.5987686" id="Shape"></line><line x1="57.3430975" y1="62.4588534" x2="63.1788995" y2="56.5184733" id="Shape"></line><line x1="26.8108583" y1="106.152824" x2="27.2472219" y2="105.56904" id="Shape"></line><line x1="30.1939319" y1="102.429125" x2="38.2287317" y2="94.3671807" id="Shape"></line><line x1="41.3580748" y1="91.2272655" x2="49.3928746" y2="83.1653211" id="Shape"></line><line x1="52.5222176" y1="80.0254059" x2="60.5570174" y2="71.9634615" id="Shape"></line><line x1="40.5123064" y1="104.975002" x2="44.5719947" y2="100.816736" id="Shape"></line><line x1="47.7859146" y1="97.676821" x2="51.9301798" y2="93.3488298" id="Shape"></line></g><g id="Group-9" stroke="#545454"><path d="M8.88158458,34.3916176 C-6.67732028,56.728594 -1.26502817,87.4892043 20.9760727,103.130301" id="Shape"></path><path d="M51.5928888,23.6989334 C47.3145352,16.1658338 41.9572801,9.30367981 35.6924429,3.33191602" id="Shape"></path><path d="M8.88158458,34.3916176 C14.1961118,26.6195148 17.5882989,17.6885772 18.7770749,8.3388078" id="Shape"></path><path d="M21.1452264,103.300026 C27.0297175,107.667335 34.8890547,108.261251 41.3590911,104.827553" id="Shape"></path><path d="M35.607866,3.4167786 C33.1260388,0.528186339 29.2046592,-0.662121151 25.5432221,0.361725983 C21.9241343,1.45964742 19.2785872,4.57866705 18.7770749,8.3388078" id="Shape"></path><path d="M41.443668,104.74269 C66.2311045,84.9937576 70.7402649,48.9871215 51.5928888,23.6989334" id="Shape"></path></g></g><g id="Group-5-Copy" transform="translate(77.292312, 138.326545) rotate(50.000000) translate(-77.292312, -138.326545) translate(45.567119, 84.673864)" stroke-linecap="round" stroke-linejoin="round"><g id="Radha-Kunda-Water" transform="translate(0.001016, 0.276863)" stroke="#2A96FB" stroke-width="0.73"><line x1="15.4775617" y1="21.2156431" x2="34.5073507" y2="2.12156431" id="Shape"></line><polyline id="Shape" points="2.45272836 47.1835903 36.7063486 12.6445233 40.7660369 8.57111983"></polyline><polyline id="Shape" points="0 62.4588534 45.6714936 16.6330642 46.4326852 15.6995759"></polyline><line x1="1.2686526" y1="73.8304381" x2="51.4227187" y2="23.5069326" id="Shape"></line><line x1="4.56714936" y1="83.4199088" x2="56.4127523" y2="31.3991518" id="Shape"></line><line x1="9.3034524" y1="91.4818532" x2="60.3032869" y2="40.2248594" id="Shape"></line><line x1="15.2238312" y1="98.270859" x2="62.6714384" y2="50.5780932" id="Shape"></line><line x1="22.4128626" y1="103.956651" x2="63.0943226" y2="63.0528914" id="Shape"></line><line x1="32.223776" y1="106.841979" x2="59.5420954" y2="79.4313679" id="Shape"></line><line x1="18.0148669" y1="12.305073" x2="20.7213258" y2="9.5894707" id="Shape"></line><line x1="23.8506689" y1="6.44955551" x2="30.3630856" y2="0" id="Shape"></line><line x1="8.54226084" y1="34.6239296" x2="15.9004459" y2="27.1560232" id="Shape"></line><line x1="19.029789" y1="24.016108" x2="27.0645888" y2="15.9541636" id="Shape"></line><polyline id="Shape" points="30.1939319 12.8142485 30.5322392 12.5596607 37.7212706 5.2614795"></polyline><line x1="3.12934308" y1="52.8693827" x2="11.079566" y2="44.8074383" id="Shape"></line><line x1="14.293486" y1="41.6675231" x2="22.2437089" y2="33.6055787" id="Shape"></line><line x1="25.4576288" y1="30.4656635" x2="33.4078518" y2="22.4037192" id="Shape"></line><polyline id="Shape" points="36.6217717 19.263804 41.6118053 14.1720496 43.7262263 12.0504853"></polyline><line x1="0.25373052" y1="68.3992335" x2="6.25868616" y2="62.4588534" id="Shape"></line><line x1="9.55718292" y1="59.2340756" x2="17.422829" y2="51.2569938" id="Shape"></line><line x1="20.7213258" y1="48.0322161" x2="28.5869719" y2="40.0551342" id="Shape"></line><line x1="31.8854687" y1="36.8303565" x2="39.7511148" y2="28.8532747" id="Shape"></line><polyline id="Shape" points="43.0496116 25.6284969 48.8854135 19.6881168 49.139144 19.5183917"></polyline><line x1="4.73630304" y1="76.8854907" x2="12.686526" y2="68.8235463" id="Shape"></line><line x1="15.9004459" y1="65.5987686" x2="23.8506689" y2="57.6216868" id="Shape"></line><line x1="27.0645888" y1="54.396909" x2="35.0148118" y2="46.4198272" id="Shape"></line><line x1="38.2287317" y1="43.1950494" x2="46.1789546" y2="35.2179676" id="Shape"></line><line x1="49.3928746" y1="31.9931899" x2="54.0446008" y2="27.3257484" id="Shape"></line><line x1="6.7661472" y1="87.9344209" x2="8.22069265" y2="86.4749614" id="Shape"></line><line x1="11.079566" y1="83.1653211" x2="19.029789" y2="75.2731019" id="Shape"></line><line x1="22.2437089" y1="71.9634615" x2="30.1939319" y2="64.0712423" id="Shape"></line><line x1="33.4078518" y1="60.7616019" x2="41.3580748" y2="52.8693827" id="Shape"></line><line x1="44.5719947" y1="49.5597424" x2="52.5222176" y2="41.6675231" id="Shape"></line><line x1="55.7361376" y1="38.3578828" x2="58.5271733" y2="35.6422805" id="Shape"></line><line x1="12.179065" y1="95.0460813" x2="14.293486" y2="92.8396544" id="Shape"></line><line x1="17.422829" y1="89.6148766" x2="25.4576288" y2="81.6377948" id="Shape"></line><line x1="28.5869719" y1="78.413017" x2="36.6217717" y2="70.4359352" id="Shape"></line><line x1="39.7511148" y1="67.2111575" x2="47.7859146" y2="59.2340756" id="Shape"></line><line x1="50.9152577" y1="56.0092979" x2="58.9500575" y2="48.0322161" id="Shape"></line><line x1="18.6914816" y1="101.241049" x2="20.7213258" y2="99.2892099" id="Shape"></line><line x1="23.8506689" y1="96.0644321" x2="31.8854687" y2="88.0873503" id="Shape"></line><line x1="35.0148118" y1="84.8625726" x2="43.0496116" y2="76.8854907" id="Shape"></line><line x1="46.1789546" y1="73.660713" x2="54.2137544" y2="65.5987686" id="Shape"></line><line x1="57.3430975" y1="62.4588534" x2="63.1788995" y2="56.5184733" id="Shape"></line><line x1="26.8108583" y1="106.152824" x2="27.2472219" y2="105.56904" id="Shape"></line><line x1="30.1939319" y1="102.429125" x2="38.2287317" y2="94.3671807" id="Shape"></line><line x1="41.3580748" y1="91.2272655" x2="49.3928746" y2="83.1653211" id="Shape"></line><line x1="52.5222176" y1="80.0254059" x2="60.5570174" y2="71.9634615" id="Shape"></line><line x1="40.5123064" y1="104.975002" x2="44.5719947" y2="100.816736" id="Shape"></line><line x1="47.7859146" y1="97.676821" x2="51.9301798" y2="93.3488298" id="Shape"></line></g><g id="Group-9" transform="translate(0.000000, 0.000000)" stroke="#545454"><path d="M8.88158458,34.3916176 C-6.67732028,56.728594 -1.26502817,87.4892043 20.9760727,103.130301" id="Shape"></path><path d="M51.5928888,23.6989334 C47.3145352,16.1658338 41.9572801,9.30367981 35.6924429,3.33191602" id="Shape"></path><path d="M8.88158458,34.3916176 C14.1961118,26.6195148 17.5882989,17.6885772 18.7770749,8.3388078" id="Shape"></path><path d="M21.1452264,103.300026 C27.0297175,107.667335 34.8890547,108.261251 41.3590911,104.827553" id="Shape"></path><path d="M35.607866,3.4167786 C33.1260388,0.528186339 29.2046592,-0.662121151 25.5432221,0.361725983 C21.9241343,1.45964742 19.2785872,4.57866705 18.7770749,8.3388078" id="Shape"></path><path d="M41.443668,104.74269 C66.2311045,84.9937576 70.7402649,48.9871215 51.5928888,23.6989334" id="Shape"></path></g></g><path d="M111.88083,162.734413 L111.88083,159.211464 L111.250948,159.211464 L111.250948,162.204628 L110.149873,162.204628 L110.149873,159.211464 L109.522432,159.211464 L109.522432,162.204628 L108.421358,162.204628 L108.421358,159.211464 L107.791475,159.211464 L107.791475,162.734413 L111.88083,162.734413 Z M113.592256,162.734413 C114.195284,162.734413 114.583467,162.382851 114.583467,161.828651 C114.583467,161.274452 114.195284,160.92289 113.592256,160.92289 L113.091768,160.92289 L113.091768,160.146522 L112.486299,160.146522 L112.486299,162.734413 L113.592256,162.734413 Z M113.514131,162.268104 L113.091768,162.268104 L113.091768,161.384315 L113.514131,161.384315 C113.794893,161.384315 113.98044,161.560097 113.98044,161.82621 C113.98044,162.089882 113.797334,162.268104 113.514131,162.268104 Z M115.52585,162.734413 L116.128877,161.867714 L116.475557,161.867714 L116.475557,162.734413 L117.07126,162.734413 L117.07126,160.146522 L115.979952,160.146522 C115.364717,160.146522 114.966768,160.485878 114.966768,161.030312 C114.966768,161.396522 115.184053,161.662636 115.54294,161.772499 L114.847139,162.734413 L115.52585,162.734413 Z M116.475557,161.423378 L116.026338,161.423378 C115.748018,161.423378 115.569795,161.257362 115.569795,161.02787 C115.569795,160.771522 115.748018,160.61039 116.026338,160.61039 L116.475557,160.61039 L116.475557,161.423378 Z M118.191866,162.734413 L118.191866,160.964394 L118.208955,160.964394 L118.938936,162.614784 L119.368623,162.614784 L120.098604,160.964394 L120.118135,160.964394 L120.118135,162.734413 L120.696748,162.734413 L120.696748,160.146522 L119.93503,160.146522 L119.17087,161.953163 L119.151338,161.953163 L118.387178,160.146522 L117.613252,160.146522 L117.613252,162.734413 L118.191866,162.734413 Z M122.002901,162.775917 C122.334932,162.775917 122.659639,162.602577 122.808565,162.321815 L122.820772,162.321815 L122.820772,162.734413 L123.406709,162.734413 L123.406709,160.952187 C123.406709,160.432167 122.989229,160.092812 122.347139,160.092812 C121.687959,160.092812 121.275362,160.439491 121.248506,160.92289 L121.812471,160.92289 C121.851534,160.708046 122.034639,160.568886 122.322725,160.568886 C122.623018,160.568886 122.806123,160.725136 122.806123,160.996132 L122.806123,161.181679 L122.12253,161.220741 C121.492647,161.259804 121.138643,161.535683 121.138643,161.994667 C121.138643,162.460976 121.502412,162.775917 122.002901,162.775917 Z M122.186006,162.316933 C121.922334,162.316933 121.746553,162.182655 121.746553,161.970253 C121.746553,161.765175 121.91501,161.633339 122.207979,161.613808 L122.806123,161.577187 L122.806123,161.77494 C122.806123,162.08744 122.530245,162.316933 122.186006,162.316933 Z M108.421358,167.734413 L108.421358,166.127968 L108.440889,166.127968 L109.876436,167.734413 L110.6821,167.734413 L109.039034,165.886269 L110.547823,164.211464 L109.820284,164.211464 L108.440889,165.751991 L108.421358,165.751991 L108.421358,164.211464 L107.791475,164.211464 L107.791475,167.734413 L108.421358,167.734413 Z M111.292452,168.696327 C111.883272,168.696327 112.168916,168.479042 112.391084,167.836952 L113.326143,165.146522 L112.686495,165.146522 L112.076143,167.216835 L112.066377,167.216835 L111.456026,165.146522 L110.791963,165.146522 L111.712373,167.736854 C111.714815,167.744179 111.678194,167.873573 111.678194,167.880897 C111.609834,168.120155 111.48044,168.21537 111.228975,168.21537 C111.192354,168.21537 111.084932,168.212929 111.053194,168.205604 L111.053194,168.686562 C111.084932,168.693886 111.258272,168.696327 111.292452,168.696327 Z M114.266084,167.734413 L114.266084,166.63578 L115.359834,166.63578 L115.359834,167.734413 L115.965303,167.734413 L115.965303,165.146522 L115.359834,165.146522 L115.359834,166.16703 L114.266084,166.16703 L114.266084,165.146522 L113.660616,165.146522 L113.660616,167.734413 L114.266084,167.734413 Z M116.841768,168.410683 L116.841768,167.734413 L118.677705,167.734413 L118.677705,168.410683 L119.234346,168.410683 L119.234346,167.265663 L118.84128,167.265663 L118.84128,165.146522 L116.873506,165.146522 L116.783174,166.49662 C116.75876,166.845741 116.680635,167.153358 116.490205,167.265663 L116.285127,167.265663 L116.285127,168.410683 L116.841768,168.410683 Z M118.235811,167.265663 L117.127412,167.265663 L117.127412,167.246132 C117.247041,167.075233 117.305635,166.821327 117.325166,166.528358 L117.391084,165.612831 L118.235811,165.612831 L118.235811,167.265663 Z M120.340303,167.775917 C120.672334,167.775917 120.997041,167.602577 121.145967,167.321815 L121.158174,167.321815 L121.158174,167.734413 L121.744112,167.734413 L121.744112,165.952187 C121.744112,165.432167 121.326631,165.092812 120.684541,165.092812 C120.025362,165.092812 119.612764,165.439491 119.585909,165.92289 L120.149873,165.92289 C120.188936,165.708046 120.372041,165.568886 120.660127,165.568886 C120.96042,165.568886 121.143526,165.725136 121.143526,165.996132 L121.143526,166.181679 L120.459932,166.220741 C119.830049,166.259804 119.476045,166.535683 119.476045,166.994667 C119.476045,167.460976 119.839815,167.775917 120.340303,167.775917 Z M120.523409,167.316933 C120.259737,167.316933 120.083955,167.182655 120.083955,166.970253 C120.083955,166.765175 120.252412,166.633339 120.545381,166.613808 L121.143526,166.577187 L121.143526,166.77494 C121.143526,167.08744 120.867647,167.316933 120.523409,167.316933 Z" id="ШьямаКунда" fill="#919195" fill-rule="nonzero"></path><path d="M16.4213578,35.7344131 L16.4213578,34.5698623 L17.1342484,34.5698623 C17.847139,34.5698623 18.3476273,34.0937881 18.3476273,33.3906631 C18.3476273,32.6875381 17.8617875,32.2114639 17.1611039,32.2114639 L15.791475,32.2114639 L15.791475,35.7344131 L16.4213578,35.7344131 Z M16.9926469,34.0620498 L16.4213578,34.0620498 L16.4213578,32.7266006 L16.9950883,32.7266006 C17.4467484,32.7266006 17.7079789,32.9682998 17.7079789,33.3906631 C17.7079789,33.8179092 17.444307,34.0620498 16.9926469,34.0620498 Z M19.5707719,35.775917 C19.9028031,35.775917 20.2275101,35.6025771 20.3764359,35.3218154 L20.3886429,35.3218154 L20.3886429,35.7344131 L20.9745804,35.7344131 L20.9745804,33.9521865 C20.9745804,33.432167 20.5571,33.0928115 19.9150101,33.0928115 C19.2558304,33.0928115 18.8432328,33.4394912 18.8163773,33.9228896 L19.3803422,33.9228896 C19.4194047,33.7080459 19.6025101,33.5688857 19.8905961,33.5688857 C20.190889,33.5688857 20.3739945,33.7251357 20.3739945,33.9961318 L20.3739945,34.1816787 L19.6904008,34.2207412 C19.0605179,34.2598037 18.706514,34.5356826 18.706514,34.994667 C18.706514,35.4609756 19.0702836,35.775917 19.5707719,35.775917 Z M19.7538773,35.3169326 C19.4902054,35.3169326 19.3144242,35.1826553 19.3144242,34.9702529 C19.3144242,34.7651748 19.4828812,34.6333389 19.77585,34.6138076 L20.3739945,34.5771865 L20.3739945,34.7749404 C20.3739945,35.0874404 20.0981156,35.3169326 19.7538773,35.3169326 Z M21.8388383,36.4106826 L21.8388383,35.7344131 L23.6747758,35.7344131 L23.6747758,36.4106826 L24.2314164,36.4106826 L24.2314164,35.2656631 L23.83835,35.2656631 L23.83835,33.1465224 L21.8705765,33.1465224 L21.7802445,34.4966201 C21.7558304,34.8457412 21.6777054,35.1533584 21.4872758,35.2656631 L21.2821976,35.2656631 L21.2821976,36.4106826 L21.8388383,36.4106826 Z M23.2328812,35.2656631 L22.1244828,35.2656631 L22.1244828,35.2461318 C22.2441117,35.0752334 22.3027054,34.8213271 22.3222367,34.5283584 L22.3881547,33.612831 L23.2328812,33.612831 L23.2328812,35.2656631 Z M25.0370804,35.7344131 L25.5741898,34.8066787 L25.5863969,34.8066787 L26.1235062,35.7344131 L26.7875687,35.7344131 L25.9648148,34.4258193 L26.7973344,33.1465224 L26.1308304,33.1465224 L25.6156937,34.0547256 L25.6034867,34.0547256 L25.0810258,33.1465224 L24.397432,33.1465224 L25.2250687,34.4429092 L24.3901078,35.7344131 L25.0370804,35.7344131 Z M27.9154984,35.775917 C28.2475297,35.775917 28.5722367,35.6025771 28.7211625,35.3218154 L28.7333695,35.3218154 L28.7333695,35.7344131 L29.319307,35.7344131 L29.319307,33.9521865 C29.319307,33.432167 28.9018265,33.0928115 28.2597367,33.0928115 C27.600557,33.0928115 27.1879594,33.4394912 27.1611039,33.9228896 L27.7250687,33.9228896 C27.7641312,33.7080459 27.9472367,33.5688857 28.2353226,33.5688857 C28.5356156,33.5688857 28.7187211,33.7251357 28.7187211,33.9961318 L28.7187211,34.1816787 L28.0351273,34.2207412 C27.4052445,34.2598037 27.0512406,34.5356826 27.0512406,34.994667 C27.0512406,35.4609756 27.4150101,35.775917 27.9154984,35.775917 Z M28.0986039,35.3169326 C27.834932,35.3169326 27.6591508,35.1826553 27.6591508,34.9702529 C27.6591508,34.7651748 27.8276078,34.6333389 28.1205765,34.6138076 L28.7187211,34.5771865 L28.7187211,34.7749404 C28.7187211,35.0874404 28.4428422,35.3169326 28.0986039,35.3169326 Z M16.4213578,40.7344131 L16.4213578,39.1279678 L16.440889,39.1279678 L17.8764359,40.7344131 L18.6821,40.7344131 L17.0390336,38.8862685 L18.5478226,37.2114639 L17.8202836,37.2114639 L16.440889,38.7519912 L16.4213578,38.7519912 L16.4213578,37.2114639 L15.791475,37.2114639 L15.791475,40.7344131 L16.4213578,40.7344131 Z M19.2924515,41.6963271 C19.8832719,41.6963271 20.1689164,41.479042 20.3910844,40.8369521 L21.3261429,38.1465224 L20.6864945,38.1465224 L20.0761429,40.2168349 L20.0663773,40.2168349 L19.4560258,38.1465224 L18.7919633,38.1465224 L19.7123734,40.7368545 C19.7148148,40.7441787 19.6781937,40.8735732 19.6781937,40.8808974 C19.6098344,41.1201553 19.4804398,41.2153701 19.228975,41.2153701 C19.1923539,41.2153701 19.084932,41.2129287 19.0531937,41.2056045 L19.0531937,41.6865615 C19.084932,41.6938857 19.2582719,41.6963271 19.2924515,41.6963271 Z M22.2660844,40.7344131 L22.2660844,39.6357803 L23.3598344,39.6357803 L23.3598344,40.7344131 L23.9653031,40.7344131 L23.9653031,38.1465224 L23.3598344,38.1465224 L23.3598344,39.1670303 L22.2660844,39.1670303 L22.2660844,38.1465224 L21.6606156,38.1465224 L21.6606156,40.7344131 L22.2660844,40.7344131 Z M24.8417679,41.4106826 L24.8417679,40.7344131 L26.6777054,40.7344131 L26.6777054,41.4106826 L27.2343461,41.4106826 L27.2343461,40.2656631 L26.8412797,40.2656631 L26.8412797,38.1465224 L24.8735062,38.1465224 L24.7831742,39.4966201 C24.7587601,39.8457412 24.6806351,40.1533584 24.4902054,40.2656631 L24.2851273,40.2656631 L24.2851273,41.4106826 L24.8417679,41.4106826 Z M26.2358109,40.2656631 L25.1274125,40.2656631 L25.1274125,40.2461318 C25.2470414,40.0752334 25.3056351,39.8213271 25.3251664,39.5283584 L25.3910844,38.612831 L26.2358109,38.612831 L26.2358109,40.2656631 Z M28.3403031,40.775917 C28.6723344,40.775917 28.9970414,40.6025771 29.1459672,40.3218154 L29.1581742,40.3218154 L29.1581742,40.7344131 L29.7441117,40.7344131 L29.7441117,38.9521865 C29.7441117,38.432167 29.3266312,38.0928115 28.6845414,38.0928115 C28.0253617,38.0928115 27.612764,38.4394912 27.5859086,38.9228896 L28.1498734,38.9228896 C28.1889359,38.7080459 28.3720414,38.5688857 28.6601273,38.5688857 C28.9604203,38.5688857 29.1435258,38.7251357 29.1435258,38.9961318 L29.1435258,39.1816787 L28.459932,39.2207412 C27.8300492,39.2598037 27.4760453,39.5356826 27.4760453,39.994667 C27.4760453,40.4609756 27.8398148,40.775917 28.3403031,40.775917 Z M28.5234086,40.3169326 C28.2597367,40.3169326 28.0839554,40.1826553 28.0839554,39.9702529 C28.0839554,39.7651748 28.2524125,39.6333389 28.5453812,39.6138076 L29.1435258,39.5771865 L29.1435258,39.7749404 C29.1435258,40.0874404 28.8676469,40.3169326 28.5234086,40.3169326 Z" id="РадхаКунда" fill="#919195" fill-rule="nonzero"></path></g></g></svg> 